<?xml version="1.0" encoding="utf-8"?>
<svg xmlns="http://www.w3.org/2000/svg" viewBox="0 0 1000 1000">
<style type="text/css">@import url("../../letters.css");</style>

<g class="letter">
	<rect width="1000" height="1000" opacity="0"/>
	<g class="mj">
		<line x1="500" y1="175" x2="0" y2="175"/>
		<line x1="500" y1="175" x2="1000" y2="175"/>
		<line x1="500" y1="275" x2="0" y2="275"/>
		<line x1="500" y1="275" x2="1000" y2="275"/>
		<line x1="500" y1="725" x2="0" y2="725"/>
		<line x1="500" y1="725" x2="1000" y2="725"/>
		<line x1="500" y1="825" x2="0" y2="825"/>
		<line x1="500" y1="825" x2="1000" y2="825"/>
		
		<line x1="275" y1="500" x2="275" y2="0"/>
		<line x1="275" y1="500" x2="275" y2="1000"/>
		<line x1="775" y1="500" x2="775" y2="0"/>
		<line x1="775" y1="500" x2="775" y2="1000"/>
	</g>

	<g class="mn">
		<line x1="500" y1="325" x2="0" y2="325"/>
		<line x1="500" y1="325" x2="1000" y2="325"/>
		<line x1="500" y1="675" x2="0" y2="675"/>
		<line x1="500" y1="675" x2="1000" y2="675"/>

		<line x1="325" y1="500" x2="325" y2="0"/>
		<line x1="325" y1="500" x2="325" y2="1000"/>
		<line x1="675" y1="500" x2="675" y2="0"/>
		<line x1="675" y1="500" x2="675" y2="1000"/>
		<line x1="725" y1="500" x2="725" y2="0"/>
		<line x1="725" y1="500" x2="725" y2="1000"/>
	</g>

	<line class="d" x1="800" y1="0" x2="800" y2="1000"/>

	<path class="c" d=" M500.1,275c71,0,134,33,175,84v-84h50v350c0,28,22,50,50,50v50c-50,0-92-37-99-85
	c-41,52-105,85-176,85c-124,0-225-101-225-225C275.1,376,376.1,275,500.1,275z M500.1,325c-97,0-175,78-175,175s78,175,175,175
	s175-78,175-175S597.1,325,500.1,325z "/>

	<path class="cl" d=" M500.1,275c71,0,134,33,175,84v-84h50v350c0,28,22,50,50,50v50c-50,0-92-37-99-85
	c-41,52-105,85-176,85c-124,0-225-101-225-225C275.1,376,376.1,275,500.1,275z M500.1,325c-97,0-175,78-175,175s78,175,175,175
	s175-78,175-175S597.1,325,500.1,325z "/>

	<text class="l" transform="matrix(1 0 0 1 500 875)"> alpha </text>
</g>
</svg>
