<?xml version="1.0" encoding="utf-8"?>
<svg xmlns="http://www.w3.org/2000/svg" viewBox="0 0 1000 1000">
<style type="text/css">@import url("../../letters.css");</style>

<g class="letter">
	<rect width="1000" height="1000" opacity="0"/>
	<g class="mj">
		<line x1="500" y1="175" x2="0" y2="175"/>
		<line x1="500" y1="175" x2="1000" y2="175"/>
		<line x1="500" y1="275" x2="0" y2="275"/>
		<line x1="500" y1="275" x2="1000" y2="275"/>
		<line x1="500" y1="725" x2="0" y2="725"/>
		<line x1="500" y1="725" x2="1000" y2="725"/>
		<line x1="500" y1="825" x2="0" y2="825"/>
		<line x1="500" y1="825" x2="1000" y2="825"/>
		
		<line x1="375" y1="500" x2="375" y2="0"/>
		<line x1="375" y1="500" x2="375" y2="1000"/>
		<line x1="675" y1="500" x2="675" y2="0"/>
		<line x1="675" y1="500" x2="675" y2="1000"/>
	</g>

	<g class="mn">
		<line x1="500" y1="225" x2="0" y2="225"/>
		<line x1="500" y1="225" x2="1000" y2="225"/>
		<line x1="500" y1="325" x2="0" y2="325"/>
		<line x1="500" y1="325" x2="1000" y2="325"/>
		<line x1="500" y1="375" x2="0" y2="375"/>
		<line x1="500" y1="375" x2="1000" y2="375"/>
		<line x1="500" y1="675" x2="0" y2="675"/>
		<line x1="500" y1="675" x2="1000" y2="675"/>
	</g>

	<line class="d" x1="700" y1="0" x2="700" y2="1000"/>

	<path class="c" d=" M374.9,275c0-55,45-100,100-100s100,45,100,100c0,25-9,47-24,65c73,30,124,102,124,185
	c0,110-90,200-200,200h-50v100h-50L374.9,275L374.9,275z M474.9,225c-28,0-50,22-50,50v400h50c83,0,150-67,150-150
	c0-83-67-150-150-150v-50c28,0,50-22,50-50C524.9,246.9,502.9,225,474.9,225z "/>

	<path class="cl" d=" M374.9,275c0-55,45-100,100-100s100,45,100,100c0,25-9,47-24,65c73,30,124,102,124,185
	c0,110-90,200-200,200h-50v100h-50L374.9,275L374.9,275z M474.9,225c-28,0-50,22-50,50v400h50c83,0,150-67,150-150
	c0-83-67-150-150-150v-50c28,0,50-22,50-50C524.9,246.9,502.9,225,474.9,225z "/>

	<text class="l" transform="matrix(1 0 0 1 500 875)"> beta </text>
</g>
</svg>
