<?xml version="1.0" encoding="utf-8"?>
<svg xmlns="http://www.w3.org/2000/svg" viewBox="0 0 1000 1000">
<style type="text/css">@import url("../../letters.css");</style>

<g class="letter">
	<rect width="1000" height="1000" opacity="0"/>
	<g class="mj">
		<line x1="500" y1="175" x2="0" y2="175"/>
		<line x1="500" y1="175" x2="1000" y2="175"/>
		<line x1="500" y1="275" x2="0" y2="275"/>
		<line x1="500" y1="275" x2="1000" y2="275"/>
		<line x1="500" y1="725" x2="0" y2="725"/>
		<line x1="500" y1="725" x2="1000" y2="725"/>
		<line x1="500" y1="825" x2="0" y2="825"/>
		<line x1="500" y1="825" x2="1000" y2="825"/>

		<line x1="275" y1="500" x2="275" y2="0"/>
		<line x1="275" y1="500" x2="275" y2="1000"/>
		<line x1="725" y1="500" x2="725" y2="0"/>
		<line x1="725" y1="500" x2="725" y2="1000"/>
	</g>

	<g class="mn">
		<line x1="500" y1="225" x2="0" y2="225"/>
		<line x1="500" y1="225" x2="1000" y2="225"/>
		<line x1="500" y1="325" x2="0" y2="325"/>
		<line x1="500" y1="325" x2="1000" y2="325"/>
		<line x1="500" y1="675" x2="0" y2="675"/>
		<line x1="500" y1="675" x2="1000" y2="675"/>

		<line x1="325" y1="500" x2="325" y2="0"/>
		<line x1="325" y1="500" x2="325" y2="1000"/>
		<line x1="675" y1="500" x2="675" y2="0"/>
		<line x1="675" y1="500" x2="675" y2="1000"/>
	</g>

	<line class="d" x1="750" y1="0" x2="750" y2="1000"/>

	<path class="c" d=" M462.99,277.93c-16.98-31.01-49.97-52.97-88-52.97v-49.97H725v49.97H487.04
	c13.02,15,22.97,31.97,29.99,50.99C633.05,284.95,725,381.94,725,499.93c0,123.99-101.01,225-225,225s-225-101.01-225-225
	C275,388.9,356.04,295.92,462.99,277.93z M500,324.96c-97,0-174.98,77.98-174.98,174.98S403,674.91,500,674.91
	s174.98-77.98,174.98-174.98S597,324.96,500,324.96z "/>

	<path class="cl" d=" M462.99,277.93c-16.98-31.01-49.97-52.97-88-52.97v-49.97H725v49.97H487.04
	c13.02,15,22.97,31.97,29.99,50.99C633.05,284.95,725,381.94,725,499.93c0,123.99-101.01,225-225,225s-225-101.01-225-225
	C275,388.9,356.04,295.92,462.99,277.93z M500,324.96c-97,0-174.98,77.98-174.98,174.98S403,674.91,500,674.91
	s174.98-77.98,174.98-174.98S597,324.96,500,324.96z "/>

	<text class="l" transform="matrix(1 0 0 1 500 875)"> delta </text>
</g>
</svg>
