<?xml version="1.0" encoding="utf-8"?>
<svg xmlns="http://www.w3.org/2000/svg" viewBox="0 0 1000 1000">
<style type="text/css">@import url("../../letters.css");</style>

<g class="letter">
	<rect width="1000" height="1000" opacity="0"/>
	<g class="mj">
		<line x1="500" y1="175" x2="0" y2="175"/>
		<line x1="500" y1="175" x2="1000" y2="175"/>
		<line x1="500" y1="275" x2="0" y2="275"/>
		<line x1="500" y1="275" x2="1000" y2="275"/>
		<line x1="500" y1="725" x2="0" y2="725"/>
		<line x1="500" y1="725" x2="1000" y2="725"/>
		<line x1="500" y1="825" x2="0" y2="825"/>
		<line x1="500" y1="825" x2="1000" y2="825"/>

		<line x1="275" y1="500" x2="275" y2="0"/>
		<line x1="275" y1="500" x2="275" y2="1000"/>
		<line x1="725" y1="500" x2="725" y2="0"/>
		<line x1="725" y1="500" x2="725" y2="1000"/>
	</g>

	<g class="mn">
		<line x1="500" y1="325" x2="0" y2="325"/>
		<line x1="500" y1="325" x2="1000" y2="325"/>
		<line x1="500" y1="675" x2="0" y2="675"/>
		<line x1="500" y1="675" x2="1000" y2="675"/>

		<line x1="325" y1="500" x2="325" y2="0"/>
		<line x1="325" y1="500" x2="325" y2="1000"/>
		<line x1="675" y1="500" x2="675" y2="0"/>
		<line x1="675" y1="500" x2="675" y2="1000"/>

		<line x1="500" y1="475" x2="0" y2="475"/>
        <line x1="500" y1="475" x2="1000" y2="475"/>
        <line x1="500" y1="525" x2="0" y2="525"/>
        <line x1="500" y1="525" x2="1000" y2="525"/>
	</g>

	<line class="d" x1="750" y1="0" x2="750" y2="1000"/>

	<path class="c" d=" M325.09,600.05c0,41.03,34.01,74.98,74.98,74.98h225c28.01,0,49.97-22.01,49.97-50.03H725
	c0,55.01-44.99,99.99-99.99,99.99h-225C331.02,725,275,669.04,275,599.99c0-40.97,19.97-77.02,49.97-99.99
	C294.97,477.03,275,441.04,275,400.01C275,331.02,330.96,275,400.01,275h225c55.01,0,99.99,44.99,99.99,99.99h-49.97
	c0-28.01-22.01-49.97-49.97-49.97h-225c-40.97,0-74.98,34.01-74.98,74.98s34.01,74.98,74.98,74.98h125.01v50.03H400.07
	C359.1,525.07,325.09,559.02,325.09,600.05z "/>

	<path class="cl" d=" M325.09,600.05c0,41.03,34.01,74.98,74.98,74.98h225c28.01,0,49.97-22.01,49.97-50.03H725
	c0,55.01-44.99,99.99-99.99,99.99h-225C331.02,725,275,669.04,275,599.99c0-40.97,19.97-77.02,49.97-99.99
	C294.97,477.03,275,441.04,275,400.01C275,331.02,330.96,275,400.01,275h225c55.01,0,99.99,44.99,99.99,99.99h-49.97
	c0-28.01-22.01-49.97-49.97-49.97h-225c-40.97,0-74.98,34.01-74.98,74.98s34.01,74.98,74.98,74.98h125.01v50.03H400.07
	C359.1,525.07,325.09,559.02,325.09,600.05z "/>

	<text class="l" transform="matrix(1 0 0 1 500 875)"> epsilon </text>
</g>
</svg>
