<?xml version="1.0" encoding="utf-8"?>
<svg xmlns="http://www.w3.org/2000/svg" viewBox="0 0 1000 1000">
<style type="text/css">@import url("../../letters.css");</style>

<g class="letter">
	<rect width="1000" height="1000" opacity="0"/>
	<g class="mj">
		<line x1="500" y1="175" x2="0" y2="175"/>
		<line x1="500" y1="175" x2="1000" y2="175"/>
		<line x1="500" y1="275" x2="0" y2="275"/>
		<line x1="500" y1="275" x2="1000" y2="275"/>
		<line x1="500" y1="725" x2="0" y2="725"/>
		<line x1="500" y1="725" x2="1000" y2="725"/>
		<line x1="500" y1="825" x2="0" y2="825"/>
		<line x1="500" y1="825" x2="1000" y2="825"/>

		<line x1="275" y1="500" x2="275" y2="0"/>
		<line x1="275" y1="500" x2="275" y2="1000"/>
		<line x1="725" y1="500" x2="725" y2="0"/>
		<line x1="725" y1="500" x2="725" y2="1000"/>
	</g>

	<g class="mn">
		<line x1="325" y1="500" x2="325" y2="0"/>
		<line x1="325" y1="500" x2="325" y2="1000"/>
		<line x1="675" y1="500" x2="675" y2="0"/>
		<line x1="675" y1="500" x2="675" y2="1000"/>

		<line x1="475" y1="500" x2="475" y2="0"/>
        <line x1="475" y1="500" x2="475" y2="1000"/>
        <line x1="525" y1="500" x2="525" y2="0"/>
        <line x1="525" y1="500" x2="525" y2="1000"/>
	</g>

	<line class="d" x1="750" y1="0" x2="750" y2="1000"/>

	<path class="c" d=" M275,274.97l44.99-19.97l180.01,404l180.01-404L725,274.97L525.01,724.97h1.02v99.99h-49.97v-99.99
	h-1.02L275,274.97z "/>

	<path class="cl" d=" M275,274.97l44.99-19.97l180.01,404l180.01-404L725,274.97L525.01,724.97h1.02v99.99h-49.97v-99.99
	h-1.02L275,274.97z "/>

	<text class="l" transform="matrix(1 0 0 1 500 875)"> gamma </text>
</g>
</svg>
