<?xml version="1.0" encoding="utf-8"?>
<svg xmlns="http://www.w3.org/2000/svg" viewBox="0 0 1000 1000">
<style type="text/css">@import url("../../letters.css");</style>

<g class="letter">
	<rect width="1000" height="1000" opacity="0"/>
	<g class="mj">
		<line x1="500" y1="175" x2="0" y2="175"/>
		<line x1="500" y1="175" x2="1000" y2="175"/>
		<line x1="500" y1="275" x2="0" y2="275"/>
		<line x1="500" y1="275" x2="1000" y2="275"/>
		<line x1="500" y1="725" x2="0" y2="725"/>
		<line x1="500" y1="725" x2="1000" y2="725"/>
		<line x1="500" y1="825" x2="0" y2="825"/>
		<line x1="500" y1="825" x2="1000" y2="825"/>
		
		<line x1="475" y1="500" x2="475" y2="0"/>
		<line x1="475" y1="500" x2="475" y2="1000"/>
		<line x1="525" y1="500" x2="525" y2="0"/>
		<line x1="525" y1="500" x2="525" y2="1000"/>
	</g>

	<g class="mn">
		<line x1="575" y1="500" x2="575" y2="0"/>
		<line x1="575" y1="500" x2="575" y2="1000"/>
	</g>

	<line class="d" x1="600" y1="0" x2="600" y2="1000"/>

	<path class="c" d=" M525,625c0,28,22,50,50,50v50c-55,0-100-45-100-100V275h50L525,625L525,625z "/>

	<path class="cl" d=" M525,625c0,28,22,50,50,50v50c-55,0-100-45-100-100V275h50L525,625L525,625z "/>

	<text class="l" transform="matrix(1 0 0 1 500 875)"> iota </text>
</g>
</svg>
