<?xml version="1.0" encoding="utf-8"?>
<svg xmlns="http://www.w3.org/2000/svg" viewBox="0 0 1000 1000">
<style type="text/css">@import url("../../letters.css");</style>

<g class="letter">
	<rect width="1000" height="1000" opacity="0"/>
	<g class="mj">
		<line x1="500" y1="175" x2="0" y2="175"/>
		<line x1="500" y1="175" x2="1000" y2="175"/>
		<line x1="500" y1="275" x2="0" y2="275"/>
		<line x1="500" y1="275" x2="1000" y2="275"/>
		<line x1="500" y1="725" x2="0" y2="725"/>
		<line x1="500" y1="725" x2="1000" y2="725"/>
		<line x1="500" y1="825" x2="0" y2="825"/>
		<line x1="500" y1="825" x2="1000" y2="825"/>

		<line x1="275" y1="500" x2="275" y2="0"/>
		<line x1="275" y1="500" x2="275" y2="1000"/>
		<line x1="725" y1="500" x2="725" y2="0"/>
		<line x1="725" y1="500" x2="725" y2="1000"/>
	</g>

	<g class="mn">
		<line x1="500" y1="325" x2="0" y2="325"/>
		<line x1="500" y1="325" x2="1000" y2="325"/>
		<line x1="500" y1="675" x2="0" y2="675"/>
		<line x1="500" y1="675" x2="1000" y2="675"/>

		<line x1="325" y1="500" x2="325" y2="0"/>
		<line x1="325" y1="500" x2="325" y2="1000"/>
		<line x1="675" y1="500" x2="675" y2="0"/>
		<line x1="675" y1="500" x2="675" y2="1000"/>

		<line x1="475" y1="500" x2="475" y2="0"/>
        <line x1="475" y1="500" x2="475" y2="1000"/>
        <line x1="525" y1="500" x2="525" y2="0"/>
        <line x1="525" y1="500" x2="525" y2="1000"/>
	</g>

	<line class="d" x1="750" y1="0" x2="750" y2="1000"/>

	<path class="c" d=" M525.01,600c0,41.03,34.01,74.98,74.98,74.98s74.98-34.01,74.98-74.98v-225
	c0-28.01-22.01-49.97-49.97-49.97V275c55.01,0,99.99,44.99,99.99,99.99v225C725,668.98,669.04,725,599.99,725
	c-40.97,0-77.02-19.98-99.99-49.97C477.03,705.03,441.04,725,400.01,725C331.02,725,275,669.04,275,599.99v-225
	c0-55.01,44.99-99.99,99.99-99.99v50.03c-28.01,0-49.97,22.01-49.97,49.97v225c0,41.03,34.01,74.98,74.98,74.98
	s74.98-34.01,74.98-74.98V474.99h49.97V600H525.01z "/>

	<path class="cl" d=" M525.01,600c0,41.03,34.01,74.98,74.98,74.98s74.98-34.01,74.98-74.98v-225
	c0-28.01-22.01-49.97-49.97-49.97V275c55.01,0,99.99,44.99,99.99,99.99v225C725,668.98,669.04,725,599.99,725
	c-40.97,0-77.02-19.98-99.99-49.97C477.03,705.03,441.04,725,400.01,725C331.02,725,275,669.04,275,599.99v-225
	c0-55.01,44.99-99.99,99.99-99.99v50.03c-28.01,0-49.97,22.01-49.97,49.97v225c0,41.03,34.01,74.98,74.98,74.98
	s74.98-34.01,74.98-74.98V474.99h49.97V600H525.01z "/>

	<text class="l" transform="matrix(1 0 0 1 500 875)"> omega </text>
</g>
</svg>
