<?xml version="1.0" encoding="utf-8"?>
<svg xmlns="http://www.w3.org/2000/svg" viewBox="0 0 1000 1000">
<style type="text/css">@import url("../../letters.css");</style>

<g class="letter">
	<rect width="1000" height="1000" opacity="0"/>
	<g class="mj">
		<line x1="500" y1="175" x2="0" y2="175"/>
		<line x1="500" y1="175" x2="1000" y2="175"/>
		<line x1="500" y1="275" x2="0" y2="275"/>
		<line x1="500" y1="275" x2="1000" y2="275"/>
		<line x1="500" y1="725" x2="0" y2="725"/>
		<line x1="500" y1="725" x2="1000" y2="725"/>
		<line x1="500" y1="825" x2="0" y2="825"/>
		<line x1="500" y1="825" x2="1000" y2="825"/>

		<line x1="275" y1="500" x2="275" y2="0"/>
		<line x1="275" y1="500" x2="275" y2="1000"/>
		<line x1="725" y1="500" x2="725" y2="0"/>
		<line x1="725" y1="500" x2="725" y2="1000"/>
	</g>

	<g class="mn">
		<line x1="500" y1="325" x2="0" y2="325"/>
		<line x1="500" y1="325" x2="1000" y2="325"/>

		<line x1="325" y1="500" x2="325" y2="0"/>
		<line x1="325" y1="500" x2="325" y2="1000"/>
		<line x1="675" y1="500" x2="675" y2="0"/>
		<line x1="675" y1="500" x2="675" y2="1000"/>

		<line x1="500" y1="525" x2="0" y2="525"/>
        <line x1="500" y1="525" x2="1000" y2="525"/>
        <line x1="500" y1="575" x2="0" y2="575"/>
        <line x1="500" y1="575" x2="1000" y2="575"/>

		<line x1="475" y1="500" x2="475" y2="0"/>
        <line x1="475" y1="500" x2="475" y2="1000"/>
        <line x1="525" y1="500" x2="525" y2="0"/>
        <line x1="525" y1="500" x2="525" y2="1000"/>
	</g>

	<line class="d" x1="750" y1="0" x2="750" y2="1000"/>

	<path class="c" d=" M324.99,450.03c0,41.03,34.01,74.98,74.98,74.98h74.98V400.01c0-68.98,55.97-125.01,125.01-125.01
	c68.98,0,125.01,55.97,125.01,125.01v49.97c0,68.98-55.97,125.01-125.01,125.01h-74.98V725h-49.97V574.98h-74.98
	c-68.98,0-125.01-55.97-125.01-125.01v-49.97c0-68.98,55.97-125.01,125.01-125.01v49.97c-40.97,0-74.98,34.01-74.98,74.98v50.09
	H324.99z M524.98,525.01h74.98c40.97,0,74.98-34.01,74.98-74.98v-49.97c0-41.03-34.01-74.98-74.98-74.98s-74.98,34.01-74.98,74.98
	V525.01z "/>

	<path class="cl" d=" M324.99,450.03c0,41.03,34.01,74.98,74.98,74.98h74.98V400.01c0-68.98,55.97-125.01,125.01-125.01
	c68.98,0,125.01,55.97,125.01,125.01v49.97c0,68.98-55.97,125.01-125.01,125.01h-74.98V725h-49.97V574.98h-74.98
	c-68.98,0-125.01-55.97-125.01-125.01v-49.97c0-68.98,55.97-125.01,125.01-125.01v49.97c-40.97,0-74.98,34.01-74.98,74.98v50.09
	H324.99z M524.98,525.01h74.98c40.97,0,74.98-34.01,74.98-74.98v-49.97c0-41.03-34.01-74.98-74.98-74.98s-74.98,34.01-74.98,74.98
	V525.01z "/>

	<text class="l" transform="matrix(1 0 0 1 500 875)"> phi </text>
</g>
</svg>
