<?xml version="1.0" encoding="utf-8"?>
<svg xmlns="http://www.w3.org/2000/svg" viewBox="0 0 1000 1000">
<style type="text/css">@import url("../../letters.css");</style>

<g class="letter">
	<rect width="1000" height="1000" opacity="0"/>
	<g class="mj">
		<line x1="500" y1="175" x2="0" y2="175"/>
		<line x1="500" y1="175" x2="1000" y2="175"/>
		<line x1="500" y1="275" x2="0" y2="275"/>
		<line x1="500" y1="275" x2="1000" y2="275"/>
		<line x1="500" y1="725" x2="0" y2="725"/>
		<line x1="500" y1="725" x2="1000" y2="725"/>
		<line x1="500" y1="825" x2="0" y2="825"/>
		<line x1="500" y1="825" x2="1000" y2="825"/>

		<line x1="275" y1="500" x2="275" y2="0"/>
		<line x1="275" y1="500" x2="275" y2="1000"/>
		<line x1="725" y1="500" x2="725" y2="0"/>
		<line x1="725" y1="500" x2="725" y2="1000"/>
	</g>

	<g class="mn">
		<line x1="500" y1="225" x2="0" y2="225"/>
		<line x1="500" y1="225" x2="1000" y2="225"/>
		<line x1="500" y1="325" x2="0" y2="325"/>
		<line x1="500" y1="325" x2="1000" y2="325"/>
		<line x1="500" y1="775" x2="0" y2="775"/>
		<line x1="500" y1="775" x2="1000" y2="775"/>

		<line x1="325" y1="500" x2="325" y2="0"/>
		<line x1="325" y1="500" x2="325" y2="1000"/>
		<line x1="675" y1="500" x2="675" y2="0"/>
		<line x1="675" y1="500" x2="675" y2="1000"/>

        <line x1="500" y1="575" x2="0" y2="575"/>
        <line x1="500" y1="575" x2="1000" y2="575"/>
		<line x1="500" y1="625" x2="0" y2="625"/>
        <line x1="500" y1="625" x2="1000" y2="625"/>

		<line x1="475" y1="500" x2="475" y2="0"/>
        <line x1="475" y1="500" x2="475" y2="1000"/>
        <line x1="525" y1="500" x2="525" y2="0"/>
        <line x1="525" y1="500" x2="525" y2="1000"/>
	</g>

	<line class="d" x1="750" y1="0" x2="750" y2="1000"/>

	<path class="c" d=" M475.05,625.01c-110.01,0-199.99-89.98-199.99-199.99v-99.99h49.97v99.99
	c0,83.02,67,150.02,150.02,150.02V225.03h49.97v350.01c83.02,0,149.96-67,149.96-150.02v-99.99h49.97v99.99
	c0,110.01-89.98,199.99-199.99,199.99v149.96h-49.97V625.01H475.05z "/>

	<path class="cl" d=" M475.05,625.01c-110.01,0-199.99-89.98-199.99-199.99v-99.99h49.97v99.99
	c0,83.02,67,150.02,150.02,150.02V225.03h49.97v350.01c83.02,0,149.96-67,149.96-150.02v-99.99h49.97v99.99
	c0,110.01-89.98,199.99-199.99,199.99v149.96h-49.97V625.01H475.05z "/>

	<text class="l" transform="matrix(1 0 0 1 500 875)"> psi </text>
</g>
</svg>
