<?xml version="1.0" encoding="utf-8"?>
<svg xmlns="http://www.w3.org/2000/svg" viewBox="0 0 1000 1000">
<style type="text/css">@import url("../../letters.css");</style>

<g class="letter">
	<rect width="1000" height="1000" opacity="0"/>
	<g class="mj">
		<line x1="500" y1="175" x2="0" y2="175"/>
		<line x1="500" y1="175" x2="1000" y2="175"/>
		<line x1="500" y1="275" x2="0" y2="275"/>
		<line x1="500" y1="275" x2="1000" y2="275"/>
		<line x1="500" y1="725" x2="0" y2="725"/>
		<line x1="500" y1="725" x2="1000" y2="725"/>
		<line x1="500" y1="825" x2="0" y2="825"/>
		<line x1="500" y1="825" x2="1000" y2="825"/>

		<line x1="275" y1="500" x2="275" y2="0"/>
		<line x1="275" y1="500" x2="275" y2="1000"/>
		<line x1="725" y1="500" x2="725" y2="0"/>
		<line x1="725" y1="500" x2="725" y2="1000"/>
	</g>

	<g class="mn">
		<line x1="500" y1="325" x2="0" y2="325"/>
		<line x1="500" y1="325" x2="1000" y2="325"/>
		<line x1="500" y1="675" x2="0" y2="675"/>
		<line x1="500" y1="675" x2="1000" y2="675"/>
		<line x1="500" y1="775" x2="0" y2="775"/>
		<line x1="500" y1="775" x2="1000" y2="775"/>

		<line x1="325" y1="500" x2="325" y2="0"/>
		<line x1="325" y1="500" x2="325" y2="1000"/>
	</g>

	<line class="d" x1="750" y1="0" x2="750" y2="1000"/>

	<path class="c" d=" M500,674.95h225v50.03
	c0,55.01-44.99,99.99-99.99,99.99h-99.99v-50.03h99.99c28.01,0,49.97-22.01,49.97-49.97H500c-123.99,0-225-101.01-225-225
	s101.01-225,225-225h225v49.97H500c-97,0-174.98,77.98-174.98,174.98C325.03,596.91,403.01,674.95,500,674.95z "/>

	<path class="cl" d=" M500,674.95h225v50.03
	c0,55.01-44.99,99.99-99.99,99.99h-99.99v-50.03h99.99c28.01,0,49.97-22.01,49.97-49.97H500c-123.99,0-225-101.01-225-225
	s101.01-225,225-225h225v49.97H500c-97,0-174.98,77.98-174.98,174.98C325.03,596.91,403.01,674.95,500,674.95z "/>

	<text class="l" transform="matrix(1 0 0 1 500 875)"> sigma   </text>
</g>
</svg>
