<?xml version="1.0" encoding="utf-8"?>
<svg xmlns="http://www.w3.org/2000/svg" viewBox="0 0 1000 1000">
<style type="text/css">@import url("../../letters.css");</style>

<g class="letter">
	<rect width="1000" height="1000" opacity="0"/>
	<g class="mj">
		<line x1="500" y1="175" x2="0" y2="175"/>
		<line x1="500" y1="175" x2="1000" y2="175"/>
		<line x1="500" y1="275" x2="0" y2="275"/>
		<line x1="500" y1="275" x2="1000" y2="275"/>
		<line x1="500" y1="725" x2="0" y2="725"/>
		<line x1="500" y1="725" x2="1000" y2="725"/>
		<line x1="500" y1="825" x2="0" y2="825"/>
		<line x1="500" y1="825" x2="1000" y2="825"/>

		<line x1="275" y1="500" x2="275" y2="0"/>
		<line x1="275" y1="500" x2="275" y2="1000"/>
		<line x1="725" y1="500" x2="725" y2="0"/>
		<line x1="725" y1="500" x2="725" y2="1000"/>
	</g>

	<g class="mn">
		<line x1="500" y1="325" x2="0" y2="325"/>
		<line x1="500" y1="325" x2="1000" y2="325"/>
		<line x1="500" y1="675" x2="0" y2="675"/>
		<line x1="500" y1="675" x2="1000" y2="675"/>
		<line x1="500" y1="775" x2="0" y2="775"/>
		<line x1="500" y1="775" x2="1000" y2="775"/>

		<line x1="325" y1="500" x2="325" y2="0"/>
		<line x1="325" y1="500" x2="325" y2="1000"/>
		<line x1="675" y1="500" x2="675" y2="0"/>
		<line x1="675" y1="500" x2="675" y2="1000"/>

		<line x1="500" y1="475" x2="0" y2="475"/>
        <line x1="500" y1="475" x2="1000" y2="475"/>
        <line x1="500" y1="525" x2="0" y2="525"/>
        <line x1="500" y1="525" x2="1000" y2="525"/>
	</g>

	<line class="d" x1="750" y1="0" x2="750" y2="1000"/>

	<path class="c" d=" M400.07,474.96v49.97c-40.97,0-74.98,34.01-74.98,74.98s34.01,74.98,74.98,74.98h325v50.03
	c0,55.01-44.99,99.99-99.99,99.99h-99.99v-50.03h99.99c28.01,0,49.97-22.01,49.97-49.97H400.07c-68.98,0-125.01-56.03-125.01-125.01
	c0-40.97,19.97-77.02,49.97-99.99c-29.99-22.97-49.97-59.03-49.97-99.99c0-28.01,9-53.99,25.01-74.98h-25.01v-49.97h350.01
	c55.01,0,99.99,44.99,99.99,99.99H675.1c0-28.01-22.01-50.03-49.97-50.03h-225c-40.97,0-74.98,34.01-74.98,74.98
	S359.04,474.96,400.07,474.96z "/>

	<path class="cl" d=" M400.07,474.96v49.97c-40.97,0-74.98,34.01-74.98,74.98s34.01,74.98,74.98,74.98h325v50.03
	c0,55.01-44.99,99.99-99.99,99.99h-99.99v-50.03h99.99c28.01,0,49.97-22.01,49.97-49.97H400.07c-68.98,0-125.01-56.03-125.01-125.01
	c0-40.97,19.97-77.02,49.97-99.99c-29.99-22.97-49.97-59.03-49.97-99.99c0-28.01,9-53.99,25.01-74.98h-25.01v-49.97h350.01
	c55.01,0,99.99,44.99,99.99,99.99H675.1c0-28.01-22.01-50.03-49.97-50.03h-225c-40.97,0-74.98,34.01-74.98,74.98
	S359.04,474.96,400.07,474.96z "/>

	<text class="l" transform="matrix(1 0 0 1 500 875)"> xi </text>
</g>
</svg>
