<svg xmlns="http://www.w3.org/2000/svg" viewBox="0 0 1920 1080">
<style type="text/css">
    .st0{fill:#1AB5EA;}
	.st1{fill:#0763AB;}
	.st2{fill:#203768;}
	.st3{fill:#EA5826;}
</style>

<path class="st0" d="M1022,647.39c-6.14,3.54-12.25,7.01-18.39,10.39c-3.08,28.75-7.28,55.55-12.55,79.3
	c-11.55,52.42-24.64,74.35-31.08,80.98c-6.41-6.63-19.5-28.56-31.08-80.98c-2.62-11.87-4.98-24.53-7.09-37.78
	c-4.81-30.62-8.2-64.56-9.98-100.15c-0.97-19.31-1.46-39.14-1.46-59.15c0-1.46,0-2.95,0.03-4.41c0.14-39.43,2.19-77.89,5.98-113.41
	c3.08-28.72,7.28-55.5,12.52-79.25c11.58-52.42,24.67-74.38,31.08-80.98c6.44,6.6,19.53,28.56,31.08,80.98
	c2.62,11.87,5,24.5,7.09,37.78c17.5-8.03,34.65-15.31,51.23-21.75c-2.62-14.96-5.6-29.13-8.93-42.38
	c-18.55-74.22-44.87-110.3-80.46-110.3c-35.57,0-61.88,36.08-80.44,110.3c-9.87,39.49-16.82,87.33-20.42,139.4
	c-1.87,27.05-2.84,55.26-2.84,84.01c0,10.55,0.14,21.04,0.38,31.4c0.43,17.72,1.24,35.16,2.43,52.12
	c2.38,34.81,6.27,67.72,11.52,97.5c2.62,14.98,5.63,29.16,8.93,42.38c18.55,74.24,44.87,110.32,80.44,110.32
	c35.59,0,61.91-36.08,80.46-110.32c9.87-39.46,16.82-87.33,20.42-139.4C1048.23,631.95,1035.25,639.73,1022,647.39z"/>
<path class="st1" d="M1249.01,373.14c-17.8-30.81-62.21-35.57-135.77-14.52c-39.11,11.2-84.03,29.1-130.93,52.01
	c13.2,7.01,26.45,14.33,39.7,21.99c6.14,3.54,12.2,7.11,18.2,10.71c26.45-11.71,51.74-21.45,74.92-28.78
	c51.17-16.2,76.73-15.85,85.68-13.58c-2.52,8.87-15.01,31.18-54.61,67.4c-8.98,8.22-18.74,16.58-29.18,25.05
	c-24.1,19.47-51.79,39.38-81.74,58.72c-16.23,10.49-33.13,20.83-50.47,30.83c-1.27,0.73-2.54,1.46-3.81,2.19
	c-34.21,19.58-68.56,37.03-101.21,51.5c-26.42,11.71-51.71,21.48-74.92,28.8c-51.2,16.17-76.73,15.82-85.68,13.58
	c2.52-8.9,14.98-31.18,54.58-67.43c8.98-8.22,18.74-16.58,29.18-25.02c-15.69-11.14-30.56-22.34-44.44-33.48
	c-11.63,9.76-22.42,19.45-32.24,28.91c-41.41,40.06-61.88,73.08-61.88,100.13c0,8.87,2.19,17.09,6.6,24.72
	c10.55,18.26,30.45,27.37,60.23,27.37c20.45,0,45.57-4.3,75.51-12.87c39.14-11.2,84.03-29.1,130.93-52.01
	c24.37-11.9,49.28-25.15,74.19-39.54c9.11-5.27,18.12-10.6,26.97-16.01c15.12-9.25,29.81-18.66,43.95-28.16
	c28.94-19.47,55.5-39.3,78.68-58.77c11.63-9.76,22.42-19.42,32.24-28.91C1248.71,444.78,1266.8,403.94,1249.01,373.14z"/>
<path class="st2" d="M1193.7,582.02c-29.26-28.29-67.21-58.23-110.51-87.36c-22.5-15.17-46.44-30.1-71.35-44.49
	c-9.11-5.27-18.23-10.39-27.34-15.34c-15.58-8.49-31.08-16.5-46.39-23.99c-31.32-15.34-61.75-28.4-90.2-38.78
	c-14.28-5.19-28.05-9.68-41.17-13.44c-73.57-21.04-117.98-16.28-135.75,14.52c-17.8,30.81,0.3,71.65,55.28,124.82
	c29.26,28.29,67.21,58.23,110.51,87.39c-0.54-14.93-0.81-30.08-0.81-45.36c0-7.09,0.05-14.15,0.19-21.15
	c-23.37-17.04-44.44-34.05-62.4-50.47c-39.6-36.22-52.06-58.53-54.58-67.4c8.95-2.27,34.48-2.6,85.66,13.58
	c11.6,3.65,23.72,7.92,36.27,12.74c28.91,11.12,59.99,25.15,91.72,41.41c17.2,8.82,34.62,18.31,51.96,28.32
	c1.27,0.73,2.54,1.49,3.81,2.22c34.08,19.85,66.37,40.87,95.2,61.91c23.37,17.04,44.44,34.05,62.4,50.47
	c39.6,36.24,52.06,58.53,54.58,67.43c-8.93,2.24-34.48,2.6-85.66-13.58c-11.6-3.65-23.72-7.92-36.24-12.77
	c-1.81,19.15-4.08,37.65-6.82,55.23c14.28,5.19,28.05,9.68,41.17,13.44c29.94,8.57,55.07,12.87,75.51,12.87
	c14.9,0,27.32-2.27,37.32-6.84c10.03-4.57,17.66-11.39,22.94-20.53C1266.78,676.03,1248.69,635.22,1193.7,582.02z"/>
<path class="st3" d="M1016.63,540.01c-8.98,5.68-18.15,11.31-27.45,16.85c-4.81,2.89-9.66,5.73-14.52,8.55
	c-4.87,2.81-9.76,5.6-14.66,8.3c-9.44,5.27-18.91,10.39-28.32,15.34c-0.43-10.63-0.76-21.39-0.89-32.21
	c-0.08-5.6-0.14-11.22-0.14-16.85c0-5.63,0.05-11.22,0.14-16.82c0.14-10.82,0.46-21.58,0.89-32.21
	c9.41,4.92,18.88,10.03,28.32,15.34c4.9,2.7,9.79,5.49,14.66,8.3c4.87,2.81,9.71,5.65,14.52,8.55
	C998.48,528.65,1007.65,534.31,1016.63,540.01z"/>

</svg>