<svg xmlns="http://www.w3.org/2000/svg" viewBox="0 0 970 360">
<style type="text/css">
    @import url("/styles/logos-draft.css");
	.logo{fill:#2C191C;}
    .d{fill:url(#d);}
	@media (prefers-color-scheme: dark) {
		.logo{fill:#E7E6D0;}
	}
</style>
<g class="main">
	<defs>
		<pattern id="d" width="6" height="6" patternUnits="userSpaceOnUse" patternTransform="rotate(45 50 50)">
			<line class="h" x1="0" y1="0" x2="0" y2="10"></line>
		</pattern>
	</defs>

	<rect class="bg" x="4.81" y="3" width="960.39" height="354"/>
	<rect class="dl" x="4.81" y="3" width="960.39" height="354"/>

	<g class="logo">
		<path d="M187.2,224.6h-28.4l-4.2,25.2h-48.4L146,110.2h54.8l39.6,139.6h-48.8L187.2,224.6z M181.6,192.6l-8.8-50.6
			l-8.6,50.6H181.6z"/>
		<path d="M395.4,170.2v79.6H351v-71.2c0-6.8-1.4-8.2-3.2-8.2c-2,0-5.6,2.4-7.8,8.8v70.6h-44.4v-71.2
			c0-6.8-1.4-8.2-3.4-8.2s-5.4,2.4-7.8,8.8v70.6H240V142.6h38.8l3,10c9.2-10.4,18.8-14.2,31.2-14.2c10.6,0,19,5,23.6,14.6
			c9.2-10.8,19-14.6,32-14.6C384.4,138.4,395.4,149.8,395.4,170.2z"/>
		<path d="M506.8,249.8H468l-1.4-10.6c-7.2,10-18.2,15-31.4,15c-21.2,0-29.8-14-29.8-34.4v-77.2h44.4v71.2
			c0,7,2.4,8.4,4.4,8.4c1.8,0,5.4-1.6,8.2-6.8v-72.8h44.4V249.8z"/>
		<path d="M607,152.6l-15.4,23.6c-7.2-4.6-16.6-7.6-25-7.6c-5.4,0-6.6,1.2-6.6,2.8c0,2.4,0.2,3.6,21.2,10.2
			c19.6,6.2,30.6,15,30.6,34.6c0,22-21.2,38-52.8,38c-19,0-37.2-6.8-48.6-17.8l20.8-23c7.4,6,17.2,10.8,26.8,10.8
			c5.4,0,8.6-1.4,8.6-4.6c0-4-1.6-4.2-19.6-10c-19.2-6-30.8-17.6-30.8-35.4c0-19.8,16.8-35.8,48.6-35.8
			C580.8,138.4,597.2,144,607,152.6z"/>
		<path d="M663,249.8h-44.4V142.6H663V249.8z"/>
		<path d="M768.6,153.2l-18,25.6c-6.2-5.2-12.2-7.4-18-7.4c-10.4,0-16,5.4-16,25.8c0,20,6.8,23,15.6,23
			c6,0,10.2-2,17.6-6.6l18.8,27c-9.8,8-22.2,13.6-39,13.6c-36.8,0-59-24-59-57.2c0-33.8,22.8-58.6,57.8-58.6
			C745.6,138.4,758.4,144,768.6,153.2z"/>
		<path d="M859,152.6l-15.4,23.6c-7.2-4.6-16.6-7.6-25-7.6c-5.4,0-6.6,1.2-6.6,2.8c0,2.4,0.2,3.6,21.2,10.2
			c19.6,6.2,30.6,15,30.6,34.6c0,22-21.2,38-52.8,38c-19,0-37.2-6.8-48.6-17.8l20.8-23c7.4,6,17.2,10.8,26.8,10.8
			c5.4,0,8.6-1.4,8.6-4.6c0-4-1.6-4.2-19.6-10c-19.2-6-30.8-17.6-30.8-35.4c0-19.8,16.8-35.8,48.6-35.8
			C832.8,138.4,849.19,144,859,152.6z"/>
	</g>

	<g class="logo-draft">
		<path d="M187.2,224.6h-28.4l-4.2,25.2h-48.4L146,110.2h54.8l39.6,139.6h-48.8L187.2,224.6z M181.6,192.6l-8.8-50.6
			l-8.6,50.6H181.6z"/>
		<path d="M395.4,170.2v79.6H351v-71.2c0-6.8-1.4-8.2-3.2-8.2c-2,0-5.6,2.4-7.8,8.8v70.6h-44.4v-71.2
			c0-6.8-1.4-8.2-3.4-8.2s-5.4,2.4-7.8,8.8v70.6H240V142.6h38.8l3,10c9.2-10.4,18.8-14.2,31.2-14.2c10.6,0,19,5,23.6,14.6
			c9.2-10.8,19-14.6,32-14.6C384.4,138.4,395.4,149.8,395.4,170.2z"/>
		<path d="M506.8,249.8H468l-1.4-10.6c-7.2,10-18.2,15-31.4,15c-21.2,0-29.8-14-29.8-34.4v-77.2h44.4v71.2
			c0,7,2.4,8.4,4.4,8.4c1.8,0,5.4-1.6,8.2-6.8v-72.8h44.4V249.8z"/>
		<path d="M607,152.6l-15.4,23.6c-7.2-4.6-16.6-7.6-25-7.6c-5.4,0-6.6,1.2-6.6,2.8c0,2.4,0.2,3.6,21.2,10.2
			c19.6,6.2,30.6,15,30.6,34.6c0,22-21.2,38-52.8,38c-19,0-37.2-6.8-48.6-17.8l20.8-23c7.4,6,17.2,10.8,26.8,10.8
			c5.4,0,8.6-1.4,8.6-4.6c0-4-1.6-4.2-19.6-10c-19.2-6-30.8-17.6-30.8-35.4c0-19.8,16.8-35.8,48.6-35.8
			C580.8,138.4,597.2,144,607,152.6z"/>
		<path d="M663,249.8h-44.4V142.6H663V249.8z"/>
		<path d="M768.6,153.2l-18,25.6c-6.2-5.2-12.2-7.4-18-7.4c-10.4,0-16,5.4-16,25.8c0,20,6.8,23,15.6,23
			c6,0,10.2-2,17.6-6.6l18.8,27c-9.8,8-22.2,13.6-39,13.6c-36.8,0-59-24-59-57.2c0-33.8,22.8-58.6,57.8-58.6
			C745.6,138.4,758.4,144,768.6,153.2z"/>
		<path d="M859,152.6l-15.4,23.6c-7.2-4.6-16.6-7.6-25-7.6c-5.4,0-6.6,1.2-6.6,2.8c0,2.4,0.2,3.6,21.2,10.2
			c19.6,6.2,30.6,15,30.6,34.6c0,22-21.2,38-52.8,38c-19,0-37.2-6.8-48.6-17.8l20.8-23c7.4,6,17.2,10.8,26.8,10.8
			c5.4,0,8.6-1.4,8.6-4.6c0-4-1.6-4.2-19.6-10c-19.2-6-30.8-17.6-30.8-35.4c0-19.8,16.8-35.8,48.6-35.8
			C832.8,138.4,849.19,144,859,152.6z"/>
	</g>

	<g class="d">
		<path d="M106.21,249.8h-38.8l-1.4-10.6c-7.2,10-18.2,15-31.4,15c-21.2,0-29.8-14-29.8-34.4v-77.2h44.4v71.2c0,7,2.4,8.4,4.4,8.4
	c1.8,0,5.4-1.6,8.2-6.8v-72.8h44.4C106.21,142.6,106.21,249.8,106.21,249.8z"/>
		<path d="M207.6,357h-38.8l-1.4-10.6c-7.2,10-18.2,15-31.4,15c-21.2,0-29.8-14-29.8-34.4v-77.2h44.4V321c0,7,2.4,8.4,4.4,8.4
			c1.8,0,5.4-1.6,8.2-6.8v-72.8h44.4V357z"/>
		<path d="M863.79,110.2h-38.8l-1.4-10.6c-7.2,10-18.2,15-31.4,15c-21.2,0-29.8-14-29.8-34.4V3h44.4v71.2c0,7,2.4,8.4,4.4,8.4
			c1.8,0,5.4-1.6,8.2-6.8V3h44.4L863.79,110.2L863.79,110.2z"/>
		<path d="M965.19,249.8h-38.8l-1.4-10.6c-7.2,10-18.2,15-31.4,15c-21.2,0-29.8-14-29.8-34.4v-77.2h44.4v71.2c0,7,2.4,8.4,4.4,8.4
			c1.8,0,5.4-1.6,8.2-6.8v-72.8h44.4L965.19,249.8L965.19,249.8z"/>
	</g>

	<g class="mjl">
		<line x1="4.81" y1="249.8" x2="965.19" y2="249.8"/>
		<line x1="4.81" y1="110.2" x2="965.19" y2="110.2"/>
		<line x1="106.21" y1="3" x2="106.21" y2="357"/>
		<line x1="863.79" y1="3" x2="863.79" y2="357"/>
	</g>
	
	<line class="mnl" x1="4.81" y1="142.6" x2="965.19" y2="142.6"/>
</g>
</svg>
