<svg xmlns="http://www.w3.org/2000/svg" viewBox="0 0 1920 1080"
	style="background-color:#FFF;">
<g fill="#FB8500">
	<polygon  points="541.96,450.53 520.48,450.53 520.48,461.27 538.66,470.36 502.57,686.87 502.57,686.87 481.09,697.61 
		481.09,708.35 498.99,708.35 502.57,708.35 520.48,708.35 563.45,450.53 "/>
	<path d="M839.17,686.87l-36.08-216.5l18.18-9.09v-10.74h-21.49H778.3h-21.49h-21.49h-21.49l-42.97,128.91L627.9,450.53
		h-21.49h-21.49l-42.97,257.82h21.49h21.49h21.49v-10.74l-18.18-9.09l25.35-152.05l35.8,107.43l10.74,32.23l10.74,32.23h21.49h21.49
		l57.29-171.88l25.34,152.05l-18.18,9.09v10.74h21.49h21.49h17.9h3.58h17.9v-10.74L839.17,686.87L839.17,686.87z"/>
	<polygon points="817.69,278.65 814.11,278.65 796.2,278.65 796.2,289.39 817.69,300.14 853.77,516.64 835.59,525.73 
		835.59,536.47 857.08,536.47 878.56,536.47 835.59,278.65 "/>
	<path d="M1157.87,278.65h-3.54h-17.95h-21.49h-21.49v10.74l18.18,9.09l-25.34,152.05l-57.29-171.88h-21.49h-21.49
		l-21.49,64.46l-35.8,107.43l-25.35-152.05l18.18-9.09v-10.74h-21.49h-21.49h-21.49l42.97,257.82h21.49h21.49l42.97-128.91
		l42.97,128.91h21.49h21.49h21.49h21.49h21.49v-10.74l-18.18-9.09l36.13-216.78v0.28l21.49-10.74v-10.74H1157.87z"/>	
</g>
<path d="M1167.01,404.07c4.07,0,7.83-1.77,11.27-5.33c3.43-3.55,5.15-7.36,5.15-11.44c0-5.01-2.51-7.51-7.51-7.51
	c-3.96,0-7.75,1.78-11.35,5.33c-3.61,3.55-5.41,7.25-5.41,11.09C1159.15,401.45,1161.77,404.07,1167.01,404.07z"/>
<path d="M1126.5,518.32c11.48,0,28.11-15.07,49.86-45.21c-1.6,2.86-2.77,5.04-3.51,6.52c-2.97,6-4.45,12.2-4.45,18.6
	c0,5.82,1.6,10.63,4.81,14.41c3.2,3.78,7.32,5.68,12.33,5.68c10,0,25.24-13.83,45.72-41.47c-1.37,4.4-2.07,8.91-2.07,13.52
	c0,8.04,2.1,14.7,6.29,20c4.19,5.3,9.37,7.95,15.55,7.95c9.9,0,25.04-14.44,45.42-43.32c-4.19,8.27-6.29,15.55-6.29,21.83
	c0,6.29,1.69,11.44,5.07,15.46c3.38,4.02,7.75,6.03,13.12,6.03c10.49,0,26.76-15.22,48.79-45.66l7.52-10.32
	c1.05-1.52,1.63-2.45,1.75-2.8c0-0.7-0.35-1.05-1.05-1.05c-0.58,0-1.23,0.58-1.93,1.75c-25.42,36.97-43.44,55.46-54.05,55.46
	c-4.78,0-7.17-2.62-7.17-7.86c0-5.12,5.76-17.53,17.29-37.21c11.41-19.33,38.95-63.7,82.62-133.11c-6.29,0.47-9.9,0.7-10.83,0.7
	c-3.73,0-7.51-0.58-11.36-1.75l-62.36,104.46c1.98-4.07,2.97-7.74,2.97-11c0-6.99-3.61-10.48-10.83-10.48
	c-10.83,0-25.74,6.23-44.72,18.69c-14.72,9.63-24.9,19.94-30.54,30.94c-22.7,31.07-38.55,46.62-47.53,46.62
	c-4.43,0-6.65-2.62-6.65-7.86c0-4.66,4.05-14.15,12.14-28.47c8.09-14.32,36.6-62.19,85.51-143.59c-3.73,1.4-7.8,2.1-12.23,2.1
	c-2.68,0-5.76-0.46-9.26-1.4c-14.44,25.74-32.2,56.13-53.28,91.18c-7.47,12.42-13.6,22.7-18.39,30.86
	c-0.54,0.08-1.08,0.64-1.62,1.71c-26.12,36.97-44.37,55.46-54.75,55.46c-5.48,0-8.22-2.62-8.22-7.86c0-5.12,2.85-12.4,8.56-21.83
	l39.65-65.16c-5.71,0.82-10.13,1.22-13.28,1.22c-2.1,0-4.95-0.41-8.56-1.22l-27.25,46.29c-8.04,13.74-12.05,23.99-12.05,30.74
	c0,5.82,1.83,10.69,5.51,14.58C1116.45,516.36,1121.02,518.32,1126.5,518.32z M1267.89,453.42c17.18-20.9,31.01-31.35,41.49-31.35
	c5.7,0,8.56,3.09,8.56,9.26c0,6.41-6.06,18.34-18.17,35.81c-22.71,32.38-38.72,48.56-48.04,48.56c-6.41,0-9.61-3.9-9.61-11.7
	C1242.12,491.18,1250.71,474.33,1267.89,453.42z"/>
<path d="M1171.48,554.79c-3.61,3.55-5.41,7.25-5.41,11.09c0,5.24,2.62,7.86,7.86,7.86c4.07,0,7.83-1.77,11.27-5.33
	c3.43-3.55,5.15-7.36,5.15-11.44c0-5.01-2.51-7.51-7.51-7.51C1178.87,549.47,1175.09,551.24,1171.48,554.79z"/>
<path d="M1438.91,590.52c-5.81,0.81-10.24,1.22-13.27,1.22c-2.32,0-5.07-0.41-8.22-1.22l-9.78,17.64c1.05-2.91,1.58-5.41,1.58-7.51
	c0-7.68-3.49-11.53-10.48-11.53c-10.02,0-23.82,5.48-41.41,16.43c-17.29,10.79-28.9,22.38-34.82,34.78
	c-21.57,30.02-37.03,45.04-46.38,45.04c-4.78,0-7.17-2.39-7.17-7.16c0-4.54,5.47-15.02,16.42-31.44
	c10.71-16.07,16.07-28.01,16.07-35.81c0-6.17-1.75-11.35-5.24-15.55c-3.49-4.19-7.8-6.29-12.93-6.29c-6.29,0-13.13,3.49-20.53,10.48
	c-7.4,6.99-17.97,19.97-31.7,38.95c8.73-13.28,13.1-23.64,13.1-31.09c0-5.01-1.4-9.32-4.2-12.93c-2.8-3.61-6.18-5.41-10.15-5.41
	c-6.18,0-18.2,11.96-36.04,35.89l-2.63,3.46c-0.33,0.26-0.65,0.69-0.98,1.32c-0.06,0.09-0.12,0.16-0.17,0.26
	c-26.07,36.88-44.29,55.33-54.65,55.33c-5.48,0-8.22-2.62-8.22-7.86c0-5.12,2.85-12.4,8.56-21.83l39.65-65.16
	c-5.71,0.82-10.13,1.22-13.28,1.22c-2.1,0-4.95-0.41-8.56-1.22l-22.35,37.97c-0.42,0.28-0.8,0.74-1.14,1.42l-3.15,3.85l-5.42,7.52
	c-20.99,29.39-36.04,44.09-45.13,44.09c-5.02,0-7.52-2.5-7.52-7.51c0-4.31,5.71-14.91,17.12-31.79
	c10.25-15.14,15.37-26.73,15.37-34.76c0-6.17-1.78-11.41-5.33-15.72c-3.55-4.31-7.83-6.46-12.84-6.46
	c-12.69,0-29.99,16.24-51.88,48.74c17.35-28.88,26.38-43.9,27.07-45.07c23.99-38.78,30.19-47.78,42.31-67.23
	c-4.19,1.16-8.62,1.75-13.28,1.75c-2.45,0-5.41-0.35-8.91-1.05l-14.71,24.96c-19.8,33.77-31.62,53.8-35.46,60.09
	c-4.14,7.4-7.66,13.77-10.57,19.11c-25,36.63-42.79,54.95-53.35,54.95c-5.48,0-8.22-2.62-8.22-7.86c0-4.77,2.39-11.18,7.16-19.21
	l38.95-66.55h22.88l1.4-2.62h-22.88l20.09-33.89c-3.49,0.93-6.87,1.4-10.13,1.4c-3.14,0-6.46-0.46-9.96-1.4l-20.44,33.89H965.7
	l-1.75,2.62h17.82l-21.95,36.85c-0.33,0.29-0.67,0.73-1.02,1.32c-10.61,15.63-21.05,28.78-31.31,39.45
	c-10.26,10.67-17.73,16.01-22.39,16.01c-4.55,0-6.82-2.74-6.82-8.21c0-5.7,5.35-17.53,16.07-35.46l30.92-51.18
	c-5.01,0.82-9.08,1.22-12.23,1.22c-2.68,0-5.77-0.41-9.26-1.22l-8.91,16.94c0.93-3.26,1.4-5.88,1.4-7.86
	c0-6.99-3.61-10.48-10.83-10.48c-8.5,0-19.68,3.84-33.54,11.53c-31.56,17.24-47.34,37.03-47.34,59.39c0,8.04,2.1,14.7,6.29,20
	c4.19,5.3,9.37,7.95,15.55,7.95c5.82,0,11.82-2.86,17.99-8.56c6.17-5.7,15.08-16.71,26.73-33.01c-3.73,7.34-5.59,14.15-5.59,20.44
	c0,6.06,1.69,11.09,5.07,15.11c3.38,4.02,7.75,6.03,13.12,6.03c7.93,0,18.77-8.28,32.53-24.84c4.73-5.61,8.78-10.51,12.2-14.75
	c-3.52,7.26-5.28,13.53-5.28,18.81c0,5.94,1.83,10.89,5.51,14.85c3.67,3.96,8.25,5.94,13.73,5.94c10.61,0,26.2-13.98,46.77-41.93
	l-22.69,41.06c4.31-0.7,7.74-1.05,10.31-1.05c2.45,0,5.41,0.35,8.91,1.05c20.38-36.68,36.39-61.6,48.04-74.76
	c12.11-13.74,21.66-20.61,28.65-20.61c4.77,0,7.16,2.27,7.16,6.81c0,3.84-6.93,15.96-20.79,36.33
	c-8.85,13.16-13.28,23.82-13.28,31.97c0,6.06,1.78,11.09,5.33,15.11c3.55,4.02,8.13,6.03,13.73,6.03
	c10.48,0,26.31-14.55,47.49-43.63c-5.24,10-7.86,17.74-7.86,23.19c0,5.82,1.83,10.69,5.51,14.58c3.67,3.9,8.25,5.85,13.73,5.85
	c11.54,0,28.27-15.22,50.19-45.66l7.52-10.32c0.15-0.22,0.28-0.41,0.41-0.61c0.47-0.4,1.04-1.07,1.69-2.02
	c17.5-25.09,29.23-37.64,35.19-37.64c2.92,0,4.37,1.75,4.37,5.24c0,6.17-7.74,21.6-23.23,46.29l-27.25,43.15
	c3.61-0.47,7.45-0.7,11.53-0.7c1.16,0,4.6,0.23,10.31,0.7c35.4-63.12,61.41-94.87,78.61-94.68c5.01,0.06,7.51,2.39,7.51,7.16
	c0,3.84-4.72,12.75-14.15,26.73c-9.08,13.28-14.7,22.16-16.86,26.64c-2.16,4.48-3.23,9.34-3.23,14.58c0,5.94,1.78,10.95,5.33,15.02
	c3.56,4.08,7.96,6.11,13.2,6.11c7.93,0,18.83-8.28,32.7-24.84c4.78-5.7,8.86-10.67,12.28-14.96c-1.11,3.99-1.68,8.06-1.68,12.2
	c0,7.68,2.11,14.21,6.38,19.56c4.25,5.36,9.4,8.04,15.45,8.04c5.59,0,11.03-2.48,16.33-7.43c5.29-4.95,14.42-15.98,27.35-33.1
	l-29.7,54.68c-3.39,1.86-10.9,5.47-22.53,10.83c-53.92,24.56-80.89,48.8-80.89,72.67c0,4.42,1.65,8.15,4.9,11.17
	c3.27,3.03,7.39,4.54,12.41,4.54c13.73,0,30.04-7.61,48.9-22.88c19.68-15.83,37.44-38.36,53.28-67.6l8.73-15.9
	c7.27-3.95,14.09-8.1,20.47-12.41l2.39-4.13c-6.22,4.26-13.27,8.61-21.11,13.05l43.31-74.77
	C1432.98,600.3,1438.11,591.57,1438.91,590.52z M889.37,645.37c-19.8,26.67-33.71,40-41.75,40c-6.76,0-10.13-3.78-10.13-11.36
	c0-12.93,8.7-29.87,26.12-50.83c17.41-20.96,31.47-31.44,42.19-31.44c5.24,0,7.86,2.86,7.86,8.56
	C913.65,608.45,905.55,623.47,889.37,645.37z M1349.83,708.6c-18.27,33.88-33.47,57.37-45.58,70.49
	c-12.12,13.1-24.58,19.65-37.38,19.65c-4.19,0-7.63-1.22-10.31-3.66c-2.66-2.46-4-5.48-4-9.09c0-20.95,26.54-44.6,79.65-70.92
	c10.95-5.36,17.53-8.68,19.73-9.95L1349.83,708.6z M1376.21,654.27c-16.41,20.73-28.07,31.09-34.94,31.09
	c-6.75,0-10.12-3.9-10.12-11.71c0-12.81,8.65-29.67,25.94-50.57c17.29-20.9,31.18-31.35,41.66-31.35c5.71,0,8.56,2.97,8.56,8.9
	C1407.3,610.2,1396.94,628.08,1376.21,654.27z"/>
</svg>