<?xml version="1.0" encoding="utf-8"?>
<svg xmlns="http://www.w3.org/2000/svg" viewBox="0 0 1920 1080">
<style type="text/css">
	@import url("../../../styles/base-items/const.css");
	.st5{fill:var(--txt-color);-webkit-transition: all 0.3s cubic-bezier(0.75, 0.35, 0.4, 0.99);-o-transition: all 0.3s cubic-bezier(0.75, 0.35, 0.4, 0.99);transition: all 0.3s cubic-bezier(0.75, 0.35, 0.4, 0.99);}
	.st0{fill:var(--bg-color);}
	.st1{fill:none;stroke:var(--txt-color);stroke-width:0.5;stroke-miterlimit:10;}
	.st2{fill:none;stroke:var(--txt-color);stroke-miterlimit:10;}
	.st3{fill:none;stroke:#FB8500;stroke-width:3;stroke-miterlimit:10;}
	.st4{fill:none;stroke:var(--txt-color);stroke-width:3;stroke-linejoin:bevel;stroke-miterlimit:10;}
	.st5:hover{fill:#FB8500;}
</style>

<g class="st1">
	<circle cx="545.79" cy="702.41" r="162.98"/>
	<circle cx="1111.73" cy="480.5" r="444.91"/>
</g>

<g class="st2">
	<line x1="394.06" y1="761.9" x2="1525.94" y2="318.09"/>
	<line x1="697.52" y1="318.1" x2="697.52" y2="761.9"/>
	<line x1="1192.73" y1="918.06" x2="1525.94" y2="318.1"/>
	<line x1="516.11" y1="542.14" x2="1192.73" y2="918.06"/>
	<path d="M1090.14,861.06c0-12.05,16.8-21.8,37.55-21.8"/>
	<path d="M617.81,598.64c0,12.05-16.8,21.8-37.55,21.8"/>
	<rect x="697.52" y="318.1" width="33.06" height="33.06"/>
	<rect x="697.52" y="728.84" width="33.06" height="33.06"/>
	<rect x="506" y="548.09" transform="matrix(0.8741 0.4857 -0.4857 0.8741 339.9774 -182.7155)" width="33.06" height="33.06"/>
	<rect x="1169.78" y="879.06" transform="matrix(0.8741 0.4857 -0.4857 0.8741 584.257 -463.4362)" width="33.06" height="33.06"/>
</g>

<g class="st3">
	<line x1="394.06" y1="761.9" x2="1279.46" y2="761.9"/>
	<line x1="640.54" y1="318.1" x2="1525.94" y2="318.1"/>
	<line x1="394.06" y1="761.9" x2="640.54" y2="318.1"/>
	<line x1="1279.46" y1="761.9" x2="1525.94" y2="318.1"/>
</g>

<polygon class="st4" points="697.52,761.9 1192.73,918.06 697.52,318.1 516.11,542.14 "/>

<circle class="st5" cx="697.51" cy="642.92" r="4.13"/>

<g>
	<path class="st5" d="M727.87,665.11c-0.76,0-1.94-0.03-3.54-0.09c-1.54-0.06-2.68-0.09-3.44-0.09s-1.88,0.03-3.37,0.09
		c-1.56,0.06-2.72,0.09-3.48,0.09c-1.66,0-2.83-1.12-2.83-2.72c0-1.81,0.97-2.51,1.54-2.77c0.51-0.23,1.14-0.33,2.02-0.33
		c1.64,0,2.35-0.12,2.61-0.18c0.05-0.1,0.14-0.32,0.22-0.7l7.8-31.32c-0.3-0.01-0.66-0.02-1.12-0.02c-0.55,0-0.92-0.02-1.14-0.04
		c-0.53-0.06-1.04-0.27-1.47-0.6c-0.61-0.48-0.96-1.21-0.96-2.07c0-1.75,0.91-2.46,1.45-2.73c0.52-0.26,1.18-0.38,2.11-0.38h17.49
		c3.59,0,6.55,0.99,8.79,2.94c2.32,2.02,3.5,4.61,3.5,7.69c0,3.95-1.86,7.45-5.53,10.42c-3.54,2.86-7.48,4.32-11.69,4.32h-7.5
		l-3.08,12.64c0.29,0.02,0.66,0.03,1.13,0.03c0.73,0,1.02,0.02,1.2,0.04c0.63,0.07,1.19,0.35,1.63,0.79
		c0.33,0.34,0.74,0.95,0.74,1.92C730.98,663.84,729.7,665.11,727.87,665.11z M735.47,641.16c3.03,0,5.31-0.89,6.95-2.73
		c0.73-0.85,1.36-2.21,1.83-4.01c0.63-2.41,0.76-3.57,0.76-4.11c0-1.43-0.54-1.98-1.02-2.3c-0.92-0.62-2.29-0.94-4.06-0.94h-5.03
		c-0.34,0-0.6,0.01-0.78,0.03c-0.04,0.12-0.08,0.28-0.13,0.49l-3.31,13.58H735.47z"/>
	<path class="st0" d="M741.79,623.24c3.11,0,5.6,0.82,7.48,2.45s2.81,3.7,2.81,6.18c0,3.33-1.6,6.28-4.79,8.87
		c-3.19,2.58-6.67,3.87-10.44,3.87h-9.07l-3.54,14.52c-0.15,0.55-0.23,0.93-0.23,1.16s0.04,0.4,0.11,0.51s0.37,0.22,0.9,0.33
		c0.52,0.1,1.32,0.16,2.38,0.16c0.47,0,0.8,0.01,0.97,0.03s0.31,0.09,0.43,0.2c0.11,0.12,0.17,0.29,0.17,0.52
		c0,0.71-0.37,1.07-1.11,1.07c-0.74,0-1.9-0.03-3.47-0.09c-1.57-0.06-2.74-0.09-3.51-0.09c-0.77,0-1.92,0.03-3.45,0.09
		s-2.66,0.09-3.4,0.09c-0.55,0-0.83-0.24-0.83-0.72c0-0.52,0.12-0.83,0.36-0.94c0.24-0.11,0.64-0.16,1.21-0.16
		c1.9,0,3.12-0.14,3.65-0.44c0.53-0.29,0.91-0.96,1.14-2.01l7.89-31.69c0.15-0.55,0.23-0.91,0.23-1.08c0-0.44-0.27-0.71-0.81-0.83
		s-1.4-0.17-2.58-0.17c-0.44,0-0.74-0.01-0.91-0.03c-0.17-0.02-0.32-0.08-0.46-0.19c-0.13-0.1-0.2-0.27-0.2-0.5
		c0-0.51,0.11-0.83,0.34-0.94c0.23-0.11,0.64-0.17,1.23-0.17H741.79 M728.14,643.16h7.33c3.6,0,6.41-1.13,8.44-3.39
		c0.97-1.12,1.72-2.74,2.27-4.84c0.55-2.11,0.82-3.65,0.82-4.62c0-1.79-0.63-3.11-1.9-3.96c-1.27-0.85-2.99-1.28-5.18-1.28h-5.03
		c-1.05,0-1.73,0.09-2.04,0.28s-0.59,0.79-0.81,1.79L728.14,643.16 M741.79,619.24H724.3c-1.27,0-2.2,0.18-3.02,0.6
		c-0.76,0.38-2.55,1.58-2.55,4.52c0,1.46,0.64,2.8,1.75,3.66c0.68,0.53,1.51,0.88,2.4,0.99l-7.04,28.26
		c-0.28,0.01-0.63,0.02-1.06,0.02c-1.17,0-2.07,0.16-2.85,0.51c-0.63,0.28-2.72,1.45-2.72,4.59c0,2.69,2.07,4.72,4.83,4.72
		c0.79,0,1.95-0.03,3.55-0.09c1.48-0.06,2.59-0.08,3.3-0.08c0.71,0,1.84,0.03,3.36,0.08c1.64,0.06,2.82,0.09,3.61,0.09
		c2.96,0,5.11-2.13,5.11-5.07c0-1.29-0.47-2.47-1.33-3.34c-0.74-0.76-1.72-1.24-2.81-1.36c-0.01,0-0.02,0-0.03,0l2.12-8.72h5.93
		c4.68,0,9.04-1.6,12.95-4.76c4.17-3.37,6.28-7.4,6.28-11.98c0-3.63-1.45-6.81-4.19-9.2C749.28,620.39,745.88,619.24,741.79,619.24
		L741.79,619.24z M735.69,629.06h4.24c1.79,0,2.62,0.37,2.95,0.6c0.04,0.03,0.06,0.04,0.06,0.04c0.02,0.03,0.08,0.22,0.08,0.6
		c0,0.22-0.05,1.13-0.7,3.61c-0.48,1.83-1.03,2.76-1.41,3.21c-0.8,0.88-2.23,2.03-5.43,2.03h-2.24L735.69,629.06L735.69,629.06z"/>
</g>

<g>
	<path class="st5" d="M731.59,310.91c-0.57,0-1.48-0.03-2.72-0.09c-1.15-0.06-2.02-0.08-2.58-0.08c-0.72,0-1.8,0.03-3.23,0.09
		c-1.5,0.06-2.61,0.09-3.33,0.09c-1.05,0-1.7-0.45-2.06-0.82c-0.35-0.37-0.77-1.02-0.73-2.04c0-1.72,1.25-2.97,3.05-2.97l0.11,0
		c0.39,0,0.65-0.04,0.82-0.07c-0.03-0.08-5.21-13.94-5.21-13.94l-5.4,4.51l-1.92,7.75c-0.21,0.76-0.37,1.32-0.47,1.73
		c0.29,0.02,0.67,0.03,1.15,0.03c0.73,0,1.02,0.02,1.2,0.04c0.63,0.07,1.19,0.35,1.63,0.79c0.33,0.34,0.74,0.95,0.74,1.92
		c0,1.81-1.28,3.07-3.11,3.07c-0.76,0-1.94-0.03-3.55-0.09c-1.55-0.06-2.7-0.09-3.47-0.09c-0.76,0-1.9,0.03-3.39,0.09
		c-1.56,0.06-2.72,0.09-3.48,0.09c-1.66,0-2.83-1.12-2.83-2.72c0-1.81,0.97-2.51,1.54-2.77c0.51-0.23,1.14-0.33,2.02-0.33
		c1.64,0,2.35-0.11,2.61-0.18c0.05-0.1,0.14-0.32,0.22-0.7l7.8-31.32c-0.3-0.01-0.66-0.02-1.12-0.02c-0.55,0-0.93-0.02-1.14-0.04
		c-0.53-0.06-1.04-0.27-1.47-0.6c-0.62-0.48-0.96-1.22-0.96-2.07c0-1.83,1.28-3.11,3.11-3.11c0.76,0,1.94,0.03,3.55,0.09
		c1.55,0.06,2.7,0.08,3.46,0.08c0.76,0,1.89-0.03,3.39-0.08c1.57-0.06,2.74-0.09,3.49-0.09c1.66,0,2.83,1.14,2.83,2.77
		c0,1.71-0.93,2.42-1.49,2.69c-0.54,0.26-1.22,0.37-2.28,0.37c-1.53,0-2.19,0.11-2.43,0.17c-0.05,0.09-0.13,0.28-0.21,0.62
		l-3.15,12.71l15.86-13.19c0.23-0.19,0.42-0.35,0.57-0.49c-1.05-0.38-1.72-1.31-1.72-2.53c0-1.83,1.28-3.11,3.11-3.11
		c0.68,0,1.74,0.03,3.19,0.09c1.37,0.06,2.39,0.08,3.05,0.08c0.45,0,1.1-0.03,1.96-0.08c0.97-0.06,1.67-0.09,2.09-0.09
		c0.75,0,1.43,0.28,1.91,0.78c0.35,0.36,0.75,1,0.71,2.01c0,1.62-1.11,2.83-2.84,3.02c-2.14,0.19-4.85,1.65-8.08,4.33l-9.65,8
		l7.13,18.91c0.22,0.58,0.4,0.76,0.42,0.78c0,0,0,0,0,0c0.01,0,0.33,0.15,1.28,0.2c2.05,0.03,2.99,1.41,2.99,2.69
		C734.59,309.62,733.35,310.91,731.59,310.91z"/>

	<path class="st0" d="M740.71,269.04c0.44,0,0.65,0.24,0.63,0.71c0,0.67-0.35,1.04-1.05,1.11c-2.53,0.23-5.58,1.82-9.15,4.78
		l-10.74,8.91l7.64,20.25c0.34,0.89,0.75,1.48,1.23,1.77c0.47,0.28,1.23,0.46,2.28,0.51c0.7,0,1.05,0.23,1.05,0.7
		c0,0.75-0.33,1.13-1,1.13c-0.55,0-1.42-0.03-2.62-0.09c-1.2-0.06-2.09-0.09-2.68-0.09c-0.74,0-1.84,0.03-3.31,0.09
		c-1.46,0.06-2.55,0.09-3.25,0.09c-0.55,0-0.82-0.26-0.8-0.78c0-0.7,0.35-1.04,1.06-1.04c0.02,0,0.04,0,0.06,0
		c1.98,0,2.96-0.64,2.96-1.94c0-0.19-0.11-0.58-0.34-1.17l-6.07-16.26l-8.07,6.74l-2.08,8.38c-0.52,1.81-0.77,2.89-0.77,3.25
		c0,0.23,0.04,0.4,0.11,0.51s0.38,0.22,0.9,0.33c0.52,0.1,1.32,0.16,2.38,0.16c0.47,0,0.8,0.01,0.97,0.03
		c0.17,0.02,0.31,0.09,0.43,0.2c0.11,0.12,0.17,0.29,0.17,0.52c0,0.71-0.37,1.07-1.11,1.07s-1.9-0.03-3.48-0.09
		c-1.58-0.06-2.76-0.09-3.54-0.09c-0.78,0-1.94,0.03-3.47,0.09c-1.53,0.06-2.66,0.09-3.41,0.09c-0.55,0-0.83-0.24-0.83-0.72
		c0-0.52,0.12-0.83,0.36-0.94c0.24-0.11,0.64-0.16,1.21-0.16c1.9,0,3.12-0.14,3.65-0.44c0.53-0.29,0.91-0.96,1.14-2.01l7.89-31.69
		c0.15-0.55,0.23-0.91,0.23-1.08c0-0.44-0.27-0.71-0.81-0.83c-0.54-0.11-1.4-0.17-2.58-0.17c-0.44,0-0.74-0.01-0.91-0.03
		c-0.17-0.02-0.32-0.08-0.46-0.19c-0.13-0.1-0.2-0.27-0.2-0.5c0-0.74,0.37-1.11,1.11-1.11c0.74,0,1.9,0.03,3.48,0.08
		c1.58,0.06,2.76,0.09,3.53,0.09s1.93-0.03,3.47-0.09c1.54-0.06,2.68-0.08,3.42-0.08c0.55,0,0.83,0.26,0.83,0.77
		c0,0.48-0.12,0.77-0.36,0.88c-0.24,0.11-0.71,0.17-1.41,0.17c-1.79,0-2.94,0.14-3.46,0.43c-0.52,0.29-0.9,0.92-1.13,1.91
		l-4.61,18.59l20.55-17.09c1.27-1.03,1.91-1.91,1.91-2.65c0-0.72-0.5-1.12-1.51-1.2c-0.55,0-0.83-0.24-0.83-0.71
		c0-0.74,0.37-1.11,1.11-1.11c0.66,0,1.7,0.03,3.11,0.08s2.45,0.09,3.13,0.09c0.47,0,1.17-0.03,2.08-0.09
		C739.65,269.07,740.31,269.04,740.71,269.04 M740.71,265.04c-0.49,0-1.2,0.03-2.21,0.09c-1.04,0.06-1.57,0.08-1.83,0.08
		c-0.61,0-1.61-0.03-2.97-0.08c-1.47-0.06-2.54-0.09-3.27-0.09c-2.96,0-5.11,2.15-5.11,5.11c0,0.92,0.24,1.76,0.68,2.48l-9.97,8.3
		l1.5-6.04c0.24-0.01,0.53-0.02,0.88-0.02c1.38,0,2.32-0.17,3.14-0.57c1.64-0.79,2.62-2.47,2.62-4.49c0-2.72-2.08-4.77-4.83-4.77
		c-0.8,0-1.96,0.03-3.57,0.09c-1.5,0.06-2.62,0.08-3.32,0.08c-0.7,0-1.84-0.03-3.39-0.08c-1.64-0.06-2.83-0.09-3.62-0.09
		c-2.96,0-5.11,2.15-5.11,5.11c0,1.46,0.64,2.8,1.75,3.66c0.68,0.54,1.51,0.88,2.4,0.99l-7.04,28.26
		c-0.28,0.01-0.63,0.02-1.06,0.02c-1.17,0-2.07,0.16-2.85,0.51c-0.63,0.28-2.72,1.45-2.72,4.59c0,2.69,2.07,4.72,4.83,4.72
		c0.79,0,1.95-0.03,3.56-0.09c1.48-0.06,2.6-0.08,3.32-0.08c0.72,0,1.86,0.03,3.4,0.08c1.65,0.06,2.84,0.09,3.63,0.09
		c2.96,0,5.11-2.13,5.11-5.07c0-1.28-0.47-2.47-1.32-3.33c-0.75-0.76-1.73-1.24-2.82-1.37l1.6-6.45l2.73-2.28l3.35,8.97
		c-1.93,0.67-3.21,2.43-3.24,4.68c-0.03,1.31,0.43,2.52,1.29,3.42c0.89,0.92,2.13,1.43,3.51,1.43c0.75,0,1.87-0.03,3.41-0.09
		c1.41-0.06,2.47-0.08,3.15-0.08c0.52,0,1.35,0.03,2.49,0.08c1.28,0.06,2.2,0.09,2.81,0.09c2.9,0,5-2.16,5-5.13
		c0-2.3-1.69-4.63-4.91-4.69c-0.01,0-0.01,0-0.02,0l-6.51-17.27l8.55-7.09c3.83-3.17,6-3.79,6.95-3.88l0.03,0l0.03,0
		c2.7-0.29,4.59-2.34,4.63-5.01c0.03-1.3-0.42-2.51-1.27-3.4C743.2,265.54,742.01,265.04,740.71,265.04L740.71,265.04z"/>
</g>

<g >
	<path class="st5" d="M687.88,814.62c-0.72,0-1.86-0.03-3.43-0.09c-1.5-0.06-2.61-0.09-3.33-0.09s-1.82,0.03-3.29,0.08
		c-1.54,0.06-2.66,0.09-3.38,0.09c-1.07,0-1.72-0.45-2.08-0.82c-0.49-0.51-0.75-1.22-0.72-1.98c0-1.71,0.94-2.42,1.5-2.68
		c0.51-0.24,1.15-0.34,2.07-0.34c1.64,0,2.35-0.12,2.61-0.18c0.05-0.1,0.14-0.32,0.22-0.7l5.05-20.28l-15,24.95
		c-0.94,1.75-2.36,2.02-3.11,2.02c-0.73,0-1.36-0.21-1.86-0.61c-0.47-0.38-0.81-0.87-0.95-1.43c-0.07-0.26-0.12-0.6-0.17-1.17
		l-2.41-24.11l-5.03,20.03c-0.16,0.65-0.17,0.91-0.17,0.96c0,0.11,0.01,0.18,0.01,0.22c0.03,0.02,0.08,0.04,0.15,0.06
		c0.23,0.08,0.65,0.18,1.37,0.24c2.09,0.04,3.03,1.4,3.03,2.75c0,1.81-1.26,3.07-3.05,3.07c-0.61,0-1.58-0.03-2.92-0.09
		c-1.26-0.06-2.19-0.08-2.79-0.08c-0.6,0-1.5,0.03-2.7,0.08c-1.29,0.06-2.23,0.09-2.84,0.09c-1.6,0-2.77-1.15-2.77-2.72
		c0-1.83,1.26-3.1,3.06-3.1h0.01c1.15-0.06,2.05-0.29,2.68-0.67c0.59-0.36,0.92-1.24,1.1-1.92l7.35-29.61
		c-0.3-0.01-0.66-0.02-1.12-0.02c-0.55,0-0.93-0.02-1.14-0.04c-0.53-0.06-1.04-0.27-1.47-0.6c-0.62-0.48-0.96-1.22-0.96-2.07
		c0-1.77,0.94-2.48,1.5-2.75c0.52-0.25,1.16-0.37,2.07-0.37h7.77c1.13,0,1.95,0.11,2.6,0.64c0.79,0.64,0.96,1.64,1.01,2.52
		l2.67,26.68l16.75-27.82c0.54-0.9,1.06-1.43,1.69-1.71c0.51-0.22,1.13-0.31,2.13-0.31h7.47c0.47,0,0.82,0.02,1.04,0.04
		c0.67,0.07,1.26,0.36,1.71,0.85c0.32,0.34,0.7,0.95,0.7,1.88c0,1.69-0.91,2.4-1.45,2.67c-0.54,0.27-1.22,0.38-2.29,0.38
		c-1.56,0-2.22,0.12-2.46,0.18c-0.05,0.09-0.13,0.28-0.21,0.61l-7.85,31.4c0.3,0.02,0.68,0.03,1.17,0.03c0.73,0,1.02,0.02,1.2,0.04
		c0.63,0.07,1.19,0.34,1.63,0.79c0.34,0.34,0.74,0.96,0.74,1.92C690.99,813.36,689.71,814.62,687.88,814.62z"/>
	<path class="st0" d="M697.05,772.75c0.38,0,0.66,0.01,0.84,0.03s0.33,0.09,0.44,0.21c0.11,0.12,0.17,0.3,0.17,0.53
		c0,0.48-0.11,0.77-0.34,0.88s-0.69,0.17-1.4,0.17c-1.79,0-2.94,0.14-3.48,0.43c-0.53,0.29-0.91,0.92-1.14,1.91l-7.89,31.57
		c-0.15,0.58-0.23,1.02-0.23,1.32c0,0.23,0.04,0.39,0.11,0.51c0.08,0.11,0.38,0.22,0.91,0.32c0.53,0.1,1.32,0.15,2.37,0.15
		c0.47,0,0.8,0.01,0.97,0.03s0.31,0.09,0.43,0.2c0.11,0.12,0.17,0.29,0.17,0.52c0,0.71-0.37,1.07-1.11,1.07
		c-0.7,0-1.82-0.03-3.35-0.09c-1.53-0.06-2.67-0.09-3.41-0.09c-0.74,0-1.86,0.03-3.36,0.09c-1.5,0.06-2.6,0.09-3.31,0.09
		c-0.55,0-0.82-0.24-0.8-0.72c0-0.52,0.11-0.83,0.34-0.94c0.23-0.11,0.64-0.16,1.23-0.16c1.9,0,3.12-0.14,3.65-0.44
		c0.53-0.29,0.91-0.96,1.14-2.01l8.23-33.03l-0.06,0l-21.78,36.25c-0.38,0.7-0.85,1.05-1.4,1.05c-0.27,0-0.47-0.06-0.61-0.17
		c-0.14-0.11-0.23-0.24-0.27-0.38c-0.04-0.14-0.08-0.42-0.11-0.84l-3.54-35.37l-0.05,0l-7.78,30.98c-0.15,0.62-0.23,1.1-0.23,1.44
		c0,0.3,0.03,0.56,0.09,0.78c0.06,0.22,0.19,0.46,0.38,0.74c0.2,0.27,0.55,0.5,1.05,0.67c0.5,0.17,1.14,0.28,1.92,0.34
		c0.74,0,1.11,0.25,1.11,0.75c0,0.71-0.35,1.07-1.05,1.07c-0.59,0-1.53-0.03-2.84-0.09s-2.26-0.09-2.88-0.09
		c-0.62,0-1.55,0.03-2.79,0.09s-2.16,0.09-2.75,0.09c-0.51,0-0.77-0.24-0.77-0.72c0-0.73,0.35-1.1,1.06-1.1c0.02,0,0.03,0,0.05,0
		c1.52-0.08,2.75-0.4,3.68-0.96c0.93-0.57,1.6-1.6,2-3.11l7.47-30.06c0.15-0.55,0.23-0.91,0.23-1.08c0-0.44-0.27-0.71-0.81-0.83
		c-0.54-0.11-1.4-0.17-2.58-0.17c-0.44,0-0.74-0.01-0.91-0.03c-0.17-0.02-0.32-0.08-0.46-0.19c-0.13-0.1-0.2-0.27-0.2-0.5
		c0-0.51,0.12-0.83,0.36-0.94c0.24-0.11,0.64-0.17,1.21-0.17h7.77c0.74,0,1.18,0.06,1.33,0.19c0.15,0.12,0.25,0.49,0.28,1.1
		l3.28,32.74l19.85-32.97c0.3-0.51,0.57-0.82,0.78-0.91c0.22-0.09,0.66-0.14,1.33-0.14H697.05 M697.05,768.75h-7.47
		c-1.28,0-2.15,0.14-2.92,0.47c-1.37,0.6-2.16,1.74-2.63,2.54l-13.63,22.64l-2.07-20.7c-0.05-0.78-0.21-2.63-1.75-3.88
		c-1.16-0.95-2.54-1.08-3.86-1.08h-7.77c-1.21,0-2.14,0.18-2.95,0.57c-0.78,0.37-2.62,1.57-2.62,4.54c0,1.46,0.64,2.8,1.75,3.66
		c0.68,0.54,1.52,0.88,2.4,0.99l-6.76,27.21c-0.12,0.43-0.23,0.65-0.29,0.74c-0.22,0.11-0.69,0.28-1.61,0.33
		c-2.91,0.02-5.01,2.16-5.01,5.1c0,2.69,2.05,4.72,4.77,4.72c0.65,0,1.61-0.03,2.94-0.09c1.18-0.05,2.06-0.08,2.61-0.08
		c0.55,0,1.46,0.03,2.7,0.08c1.38,0.06,2.37,0.09,3.01,0.09c2.11,0,3.81-1.11,4.59-2.83c0.3,0.68,0.78,1.3,1.41,1.79
		c0.58,0.47,1.61,1.04,3.1,1.04c2.01,0,3.78-1.11,4.86-3.06l0.04-0.07c0.21,0.63,0.56,1.21,1.03,1.69
		c0.89,0.92,2.14,1.43,3.52,1.43c0.75,0,1.88-0.03,3.46-0.09c1.45-0.06,2.53-0.08,3.21-0.08c0.68,0,1.78,0.03,3.26,0.08
		c1.6,0.06,2.75,0.09,3.5,0.09c2.96,0,5.11-2.13,5.11-5.07c0-1.28-0.47-2.47-1.32-3.33c-0.75-0.77-1.73-1.24-2.82-1.37
		c-0.02,0-0.03,0-0.05-0.01l7.06-28.25c0.25-0.01,0.55-0.02,0.91-0.02c1.4,0,2.36-0.18,3.19-0.59c0.77-0.38,2.55-1.59,2.55-4.46
		c0-1.23-0.44-2.38-1.23-3.24c-0.76-0.83-1.82-1.36-2.97-1.48C697.98,768.77,697.58,768.75,697.05,768.75L697.05,768.75z
			M656.74,806.86l2-7.97l0.94,9.43C658.99,807.58,658,807.03,656.74,806.86L656.74,806.86z M673.88,806.88l4.05-6.75l-1.65,6.64
		c-0.28,0.01-0.63,0.02-1.06,0.02C674.72,806.8,674.28,806.82,673.88,806.88L673.88,806.88z"/>
</g>

<path class="st5" d="M359.04,811.87c0-0.52,0.21-0.84,0.64-0.95c0.43-0.12,0.96-0.18,1.6-0.2c0.64-0.02,1.46-0.41,2.48-1.17
	s1.99-1.91,2.92-3.45l19.09-33.6c0.04-0.04,0.1-0.16,0.2-0.36c0.09-0.2,0.19-0.35,0.28-0.44s0.21-0.22,0.36-0.37
	c0.14-0.15,0.3-0.26,0.47-0.31s0.35-0.09,0.54-0.09c0.15,0,0.29,0.01,0.41,0.03c0.12,0.02,0.22,0.08,0.3,0.17
	c0.08,0.09,0.13,0.16,0.17,0.2c0.04,0.04,0.08,0.13,0.11,0.28s0.06,0.25,0.06,0.28s0.02,0.16,0.06,0.37v0.28l2.51,36.25
	c0.04,0.88,0.25,1.44,0.64,1.66c0.39,0.23,1.19,0.37,2.41,0.42c1.04,0,1.57,0.27,1.57,0.81c0,0.68-0.39,1.01-1.17,1.01
	c-0.19,0-0.89-0.03-2.1-0.09s-2.52-0.09-3.93-0.09c-1.34,0-2.5,0.01-3.49,0.03s-1.73,0.05-2.21,0.09s-0.76,0.06-0.84,0.06
	c-0.59,0-0.88-0.28-0.88-0.84c0-0.39,0.16-0.66,0.47-0.82c0.31-0.16,0.69-0.23,1.14-0.2c0.45,0.03,0.96-0.02,1.54-0.14
	c0.58-0.12,1.09-0.35,1.52-0.69c0.3-0.26,0.46-0.79,0.46-1.58c0-0.22-0.02-0.69-0.07-1.4c-0.05-0.71-0.12-1.79-0.22-3.24
	c-0.1-1.45-0.2-2.92-0.3-4.42h-13.31c-0.34,0.62-0.72,1.29-1.14,2c-0.42,0.72-0.75,1.28-1,1.71c-0.25,0.42-0.52,0.88-0.81,1.38
	s-0.52,0.89-0.67,1.19c-0.15,0.29-0.32,0.6-0.5,0.92c-0.18,0.32-0.31,0.58-0.38,0.78c-0.08,0.2-0.16,0.4-0.26,0.61
	c-0.1,0.21-0.15,0.38-0.17,0.52c-0.02,0.14-0.03,0.29-0.03,0.44c0,0.55,0.17,0.97,0.5,1.27c0.33,0.3,0.7,0.47,1.11,0.51
	c0.41,0.04,0.77,0.13,1.1,0.27c0.32,0.14,0.48,0.35,0.48,0.62c0,0.75-0.39,1.13-1.17,1.13c-0.11,0-0.39-0.02-0.84-0.06
	c-0.45-0.04-1.06-0.07-1.84-0.09c-0.78-0.02-1.62-0.03-2.51-0.03c-0.74,0-1.57,0.03-2.48,0.09c-0.91,0.06-1.42,0.09-1.54,0.09
	C359.46,812.71,359.04,812.43,359.04,811.87z M373.48,797.55h12.16l-1.3-19.09L373.48,797.55z"/>

<path class="st5" d="M601.53,308.34c0-0.52,0.12-0.83,0.36-0.94c0.24-0.11,0.64-0.16,1.21-0.16c1.9,0,3.12-0.14,3.65-0.44
	c0.53-0.29,0.91-0.96,1.14-2.01l7.89-31.69c0.15-0.55,0.23-0.91,0.23-1.08c0-0.44-0.27-0.71-0.81-0.83s-1.4-0.17-2.58-0.17
	c-0.44,0-0.74-0.01-0.91-0.03c-0.17-0.02-0.32-0.08-0.46-0.19c-0.13-0.1-0.2-0.27-0.2-0.5c0-0.51,0.12-0.83,0.36-0.94
	c0.24-0.11,0.64-0.17,1.21-0.17h18.14c3.04,0,5.43,0.77,7.17,2.31c1.75,1.54,2.62,3.42,2.62,5.64c0,2.34-1.04,4.57-3.11,6.71
	c-2.07,2.14-4.82,3.6-8.24,4.37c2.3,0.27,4.22,1.1,5.77,2.5c1.55,1.4,2.32,3.24,2.32,5.52c0,3.16-1.5,6.08-4.5,8.77
	c-3,2.69-6.5,4.04-10.52,4.04h-19.29c-0.38,0-0.65-0.01-0.81-0.03c-0.16-0.02-0.31-0.08-0.44-0.19
	C601.59,308.74,601.53,308.57,601.53,308.34z M612,305.93c-0.08,0.33-0.12,0.57-0.12,0.72c0,0.15,0.02,0.26,0.06,0.33
	c0.04,0.07,0.19,0.13,0.46,0.18c0.27,0.05,0.69,0.07,1.29,0.07h7.26c3.08,0,5.71-1.21,7.87-3.64c2.16-2.43,3.24-5.12,3.24-8.08
	c0-0.59-0.06-1.16-0.17-1.72s-0.34-1.25-0.67-2.06s-0.93-1.48-1.78-1.99c-0.86-0.51-1.91-0.77-3.17-0.77H616.2l-4.09,16.4
	C612.12,305.41,612.08,305.6,612,305.93z M616.54,287.69h7.73c3.17,0,5.83-1.15,7.97-3.46c2.15-2.31,3.22-4.79,3.22-7.45
	c0-0.59-0.06-1.15-0.17-1.7c-0.11-0.54-0.35-1.15-0.7-1.82s-0.93-1.22-1.73-1.62c-0.8-0.41-1.78-0.61-2.92-0.61h-6.91
	c-1.01,0-1.69,0.09-2.02,0.28s-0.63,0.78-0.87,1.78L616.54,287.69z"/>

<path class="st5" d="M1537.44,311.62c0-4.42,1.21-8.74,3.62-12.94c2.41-4.21,5.53-7.57,9.35-10.09c3.82-2.53,7.68-3.79,11.6-3.79
	c3.82,0,6.76,1.65,8.83,4.96l3.68-4.3c0.34-0.44,0.65-0.66,0.91-0.66c0.44,0,0.66,0.2,0.66,0.6c0,0.23-0.04,0.49-0.11,0.8
	l-3.56,14.18c-0.11,0.47-0.23,0.77-0.34,0.88c-0.11,0.11-0.35,0.17-0.71,0.17c-0.59,0-0.88-0.2-0.88-0.6
	c0-0.04,0.02-0.25,0.06-0.64c0.04-0.39,0.09-0.86,0.16-1.42c0.07-0.56,0.1-1.06,0.1-1.5c0-2.92-0.67-5.43-2.02-7.52
	c-1.35-2.09-3.44-3.13-6.27-3.13c-2.34,0-4.75,0.69-7.24,2.06c-2.49,1.38-4.69,3.37-6.61,5.97c-2.07,2.85-3.61,6.16-4.62,9.92
	c-1.01,3.77-1.51,6.86-1.51,9.27c0,3.85,0.98,6.74,2.95,8.67s4.34,2.89,7.11,2.89c2.85,0,5.74-1.14,8.66-3.41
	c2.93-2.28,5.07-5.67,6.44-10.18c0.11-0.3,0.41-0.46,0.9-0.46c0.56,0,0.84,0.19,0.84,0.57c0,0.82-0.41,2.02-1.22,3.62
	s-1.92,3.28-3.32,5.06s-3.28,3.32-5.64,4.64c-2.36,1.32-4.86,1.98-7.49,1.98c-4.12,0-7.54-1.42-10.24-4.26
	C1538.8,320.11,1537.44,316.33,1537.44,311.62z"/>

<path class="st5" d="M1271.05,811.9c0-0.52,0.12-0.83,0.36-0.94c0.24-0.11,0.64-0.16,1.21-0.16c1.9,0,3.12-0.14,3.65-0.44
	c0.53-0.29,0.91-0.96,1.14-2.01l7.89-31.69c0.15-0.55,0.23-0.91,0.23-1.08c0-0.44-0.27-0.71-0.81-0.83s-1.4-0.17-2.58-0.17
	c-0.44,0-0.74-0.01-0.91-0.03c-0.17-0.02-0.32-0.08-0.46-0.19c-0.13-0.1-0.2-0.27-0.2-0.5c0-0.51,0.11-0.83,0.34-0.94
	c0.23-0.11,0.64-0.17,1.23-0.17h18.24c3.75,0,6.73,1.32,8.95,3.97c2.22,2.65,3.33,6.09,3.33,10.32c0,4.28-1.07,8.4-3.21,12.37
	c-2.14,3.97-4.94,7.17-8.39,9.58c-3.45,2.41-6.99,3.62-10.6,3.62h-17.95c-0.38,0-0.65-0.01-0.81-0.03
	c-0.16-0.02-0.31-0.08-0.44-0.19C1271.11,812.3,1271.05,812.13,1271.05,811.9z M1281.7,809.49c-0.08,0.33-0.12,0.57-0.12,0.72
	c0,0.15,0.02,0.26,0.06,0.33c0.04,0.08,0.19,0.14,0.46,0.18c0.27,0.05,0.69,0.07,1.28,0.07h6.02c4.49,0,8.39-1.93,11.7-5.78
	c2.19-2.56,3.84-5.95,4.97-10.15s1.68-7.55,1.68-10.04c0-3.53-0.9-6.12-2.69-7.77c-1.79-1.65-4.01-2.48-6.66-2.48h-5.69
	c-1.01,0-1.68,0.1-2.02,0.31c-0.33,0.21-0.61,0.79-0.84,1.75l-8.02,32.29C1281.83,808.97,1281.78,809.16,1281.7,809.49z"/>

<path class="st5" d="M1192.73,963.68c0-0.52,0.12-0.83,0.36-0.94c0.24-0.11,0.64-0.16,1.21-0.16c1.9,0,3.12-0.14,3.65-0.44
	c0.53-0.29,0.91-0.96,1.14-2.01l7.89-31.69c0.15-0.55,0.23-0.91,0.23-1.08c0-0.44-0.27-0.71-0.81-0.83s-1.4-0.17-2.58-0.17
	c-0.44,0-0.74-0.01-0.91-0.03c-0.17-0.02-0.32-0.08-0.46-0.19c-0.13-0.1-0.2-0.27-0.2-0.5c0-0.74,0.37-1.11,1.11-1.11
	c0.78,0,1.96,0.03,3.55,0.08s2.79,0.09,3.59,0.09c0.89,0,2.23-0.03,4.04-0.09c1.8-0.06,3.13-0.08,3.99-0.08
	c0.59,0,0.88,0.24,0.88,0.71c0,0.51-0.12,0.83-0.36,0.94c-0.24,0.11-0.66,0.17-1.27,0.17h-0.6c-2.26,0-3.69,0.17-4.29,0.5
	c-0.6,0.33-1.03,1.04-1.3,2.11l-7.91,31.75c-0.01,0.04-0.06,0.22-0.14,0.55s-0.12,0.57-0.12,0.72s0.02,0.26,0.06,0.33
	c0.04,0.07,0.19,0.13,0.47,0.18c0.27,0.05,0.7,0.07,1.27,0.07h4.73c1.75,0,3.32-0.27,4.73-0.83c1.41-0.55,2.54-1.17,3.39-1.85
	c0.85-0.68,1.67-1.66,2.45-2.92s1.33-2.29,1.67-3.09c0.33-0.8,0.75-1.89,1.24-3.27c0.23-0.59,0.39-0.95,0.5-1.08
	c0.1-0.13,0.33-0.2,0.67-0.2c0.59,0,0.88,0.23,0.88,0.68l-0.11,0.34c-0.08,0.23-0.11,0.37-0.11,0.43l-4.45,12.56
	c-0.19,0.51-0.37,0.82-0.53,0.91c-0.16,0.1-0.55,0.14-1.15,0.14h-24.95c-0.38,0-0.65-0.01-0.81-0.03
	c-0.16-0.02-0.31-0.08-0.44-0.19C1192.8,964.08,1192.73,963.91,1192.73,963.68z"/>

<path class="st5" d="M465.71,541.32c0-0.52,0.12-0.83,0.36-0.94c0.24-0.11,0.64-0.16,1.21-0.16c1.9,0,3.12-0.14,3.65-0.44
	c0.53-0.29,0.91-0.96,1.14-2.01l7.89-31.69c0.15-0.55,0.23-0.91,0.23-1.08c0-0.44-0.27-0.71-0.81-0.83
	c-0.54-0.11-1.4-0.17-2.58-0.17c-0.44,0-0.74-0.01-0.91-0.03c-0.17-0.02-0.32-0.08-0.46-0.19c-0.13-0.1-0.2-0.27-0.2-0.5
	c0-0.74,0.37-1.11,1.11-1.11c0.74,0,1.9,0.03,3.47,0.08s2.74,0.09,3.5,0.09c0.76,0,1.91-0.03,3.45-0.09
	c1.54-0.06,2.68-0.08,3.42-0.08c0.55,0,0.83,0.26,0.83,0.77c0,0.48-0.12,0.77-0.36,0.88c-0.24,0.11-0.71,0.17-1.41,0.17
	c-1.79,0-2.94,0.14-3.46,0.43c-0.52,0.28-0.9,0.92-1.13,1.9l-3.5,14.06h16.02l3.56-14.31c0.15-0.55,0.23-0.91,0.23-1.08
	c0-0.44-0.27-0.71-0.81-0.83c-0.54-0.11-1.4-0.17-2.58-0.17c-0.44,0-0.74-0.01-0.91-0.03c-0.17-0.02-0.32-0.08-0.46-0.19
	c-0.13-0.1-0.2-0.27-0.2-0.5c0-0.74,0.37-1.11,1.11-1.11s1.9,0.03,3.47,0.08s2.75,0.09,3.53,0.09s1.93-0.03,3.46-0.09
	c1.53-0.06,2.66-0.08,3.41-0.08c0.55,0,0.83,0.26,0.83,0.77c0,0.48-0.12,0.77-0.36,0.88c-0.24,0.11-0.71,0.17-1.41,0.17
	c-1.79,0-2.94,0.14-3.46,0.43c-0.52,0.29-0.9,0.92-1.13,1.91l-7.89,31.58c-0.15,0.58-0.23,1.02-0.23,1.32
	c0,0.23,0.04,0.39,0.11,0.51c0.08,0.11,0.38,0.22,0.9,0.32c0.52,0.1,1.32,0.15,2.38,0.15c0.47,0,0.8,0.01,0.97,0.03
	s0.31,0.09,0.43,0.2c0.11,0.12,0.17,0.29,0.17,0.52c0,0.71-0.37,1.07-1.11,1.07c-0.74,0-1.9-0.03-3.48-0.09s-2.75-0.09-3.53-0.09
	s-1.93,0.03-3.46,0.09c-1.53,0.06-2.66,0.09-3.41,0.09c-0.55,0-0.83-0.24-0.83-0.72c0-0.52,0.12-0.83,0.36-0.94
	c0.24-0.11,0.64-0.16,1.21-0.16c1.9,0,3.12-0.14,3.65-0.44c0.53-0.29,0.91-0.96,1.14-2.01l3.88-15.56h-16.02l-3.95,15.86
	c-0.15,0.55-0.23,0.93-0.23,1.16s0.04,0.4,0.11,0.51s0.37,0.22,0.9,0.33c0.52,0.1,1.31,0.16,2.38,0.16c0.47,0,0.8,0.01,0.97,0.03
	s0.31,0.09,0.43,0.2c0.11,0.12,0.17,0.29,0.17,0.52c0,0.71-0.37,1.07-1.11,1.07c-0.74,0-1.9-0.03-3.47-0.09
	c-1.57-0.06-2.74-0.09-3.51-0.09s-1.92,0.03-3.45,0.09c-1.53,0.06-2.66,0.09-3.4,0.09C465.98,542.05,465.71,541.8,465.71,541.32z"
	/>
</svg>
