<svg xmlns="http://www.w3.org/2000/svg" viewBox="0 0 1920 1080" style="background-color:#471646;fill:#FEE3C8;">
<path d="M638.1,579.5l-4.4-33.9c-0.8-6.2-1.5-12-2.2-17.4c-0.7-5.4-1.4-10.9-2.2-16.5h-28.8c-1.8,5.2-3.5,9.9-5,14.3
	c-1.5,4.3-3.1,8.7-4.7,13.1l-9.2,25.9h-1.8l-9.8-26c-1.6-4.4-3.3-8.7-5-13.2c-1.7-4.4-3.4-9.1-5.3-14.1h-29.2
	c-0.7,5.6-1.5,11.2-2.1,16.6c-0.7,5.5-1.4,11.2-2.1,17.2l-4.3,33.8c-0.7,6.1-1.4,11.7-2.1,17s-1.3,10.4-1.9,15.5h26.7
	c0.7-5.9,1.5-11.6,2.1-17.1c0.7-5.4,1.3-10.5,1.8-15.3l2.5-20h1.9l7.7,21.7c1.3,3.4,2.5,6.9,3.8,10.4c1.2,3.5,2.5,7,3.7,10.5
	c1.2,3.4,2.4,6.7,3.5,9.8h19c1.4-4.7,2.9-9.6,4.5-14.8s3.1-10.5,4.7-15.9l6.5-21.7h1.9l2.5,20.2c0.6,4.7,1.2,9.8,1.9,15.1
	c0.7,5.4,1.4,11,2.1,17h27.5c-0.7-5.2-1.3-10.4-2-15.5C639.6,591.2,638.9,585.6,638.1,579.5z"/>

<path d="M742.6,524.8c-4.4-4.8-9.9-8.5-16.5-11.2c-6.6-2.7-14.5-4.1-23.5-4.1c-11.9,0-21.7,2.3-29.4,7
	c-7.7,4.7-13.5,11-17.3,18.9c-3.8,7.9-5.7,16.7-5.7,26.5c0,6.8,1,13.4,3.1,19.6c2.1,6.2,5.2,11.8,9.5,16.7
	c4.3,4.9,9.8,8.7,16.5,11.5c6.7,2.8,14.8,4.2,24.1,4.2c11.5,0,21.1-2.3,28.8-6.8c7.8-4.5,13.6-10.7,17.5-18.5
	c3.9-7.8,5.9-16.8,5.9-26.8c0-7.2-1.1-14-3.2-20.3C750.2,535.1,746.9,529.6,742.6,524.8z M723.9,572.7c-1,3.4-2.4,6.5-4.3,9.1
	c-1.9,2.6-4.3,4.7-7,6.2c-2.8,1.5-6,2.2-9.7,2.2s-7-0.7-9.8-2.2c-2.8-1.5-5.2-3.6-7.1-6.2c-1.9-2.6-3.3-5.7-4.3-9.1
	c-1-3.4-1.5-7.1-1.5-11c0-3.9,0.5-7.6,1.5-11.1c1-3.5,2.5-6.5,4.4-9.2c1.9-2.6,4.3-4.7,7.1-6.1c2.8-1.5,6-2.2,9.6-2.2
	c3.5,0,6.6,0.7,9.3,2.2s5.1,3.5,7.1,6.1c1.9,2.6,3.4,5.6,4.5,9.1c1.1,3.5,1.6,7.2,1.6,11.3C725.4,565.6,724.9,569.3,723.9,572.7z
	"/>
<path d="M719.4,484.8c2.6-3,5.3-6.1,8.1-9.2c2.7-3.1,5.5-6.3,8.3-9.4l-26.7,0.6c-2.7,4.5-5.4,9.1-8.2,13.6
	c-2.7,4.5-5.5,9.1-8.3,13.7l19-0.3C714.2,490.8,716.8,487.9,719.4,484.8z"/>

<path d="M760.9,536.7c3.5,0,7.2,0,11.1,0c3.9,0,8.4,0,13.5,0h3.2c0,4,0,8.4,0,13.1v29.6c0,6.3,0,12,0,17
	c0,5,0,10.1,0,15.4h28.8c0-5.3,0-10.4,0-15.4s0-10.6,0-17v-29.6c0-4.7,0-9.1,0-13.1h3.2c5.1,0,9.6,0,13.5,0c3.9,0,7.6,0,11.1,0
	v-25.1h-84.6V536.7z"/>
<path d="M910.3,528.4c-3.4,5.2-6.8,10.4-10.2,15.6L887,564.1h-2v-18.7c0-6.6,0-12.5,0-17.7s0-10.5,0-16h-28.1
	c0,5.4,0,10.7,0,15.9c0,5.2,0,11.1,0,17.7v34.2c0,6.3,0,12,0,17s0,10.1,0,15.4h24.1c3.3-5,6.6-10,10-15.3
	c3.4-5.2,7.2-10.9,11.2-17l13.3-20.2h1.9v19.9c0,6.4,0,12.1,0,17.1s0,10.2,0,15.5h28.1c0-5.3,0-10.4,0-15.4c0-5,0-10.6,0-17v-34.2
	c0-6.6,0-12.5,0-17.7s0-10.5,0-15.9h-24.4C917.4,517.6,913.8,523.2,910.3,528.4z"/>
<path d="M1066.4,527.6c0,5.2,0,11.1,0,17.7v29.5c0,4.8,0,9.1,0,13.1h-23.7c0-4,0-8.4,0-13.1v-29.5
	c0-6.6,0-12.5,0-17.7c0-5.2,0-10.5,0-15.9h-28.3c0,5.4,0,10.7,0,15.9c0,5.2,0,11.1,0,17.7v29.5c0,4.8,0,9.1,0,13.1h-23.7
	c0-4,0-8.4,0-13.1v-29.5c0-6.6,0-12.5,0-17.7c0-5.2,0-10.5,0-15.9h-29c0,5.4,0,10.7,0,15.9c0,5.2,0,11.1,0,17.7v34.2
	c0,6.3,0,12,0,17s0,10.1,0,15.4h133.6c0-5.3,0-10.4,0-15.4s0-10.6,0-17v-34.2c0-6.6,0-12.5,0-17.7c0-5.2,0-10.5,0-15.9h-29
	C1066.4,517.1,1066.4,522.4,1066.4,527.6z"/>
<path d="M1171.9,527.6c0,5.2,0,11.1,0,17.7v4.3h-31.2v-4.3c0-6.6,0-12.5,0-17.7c0-5.2,0-10.5,0-15.9h-29
	c0,5.4,0,10.7,0,15.9c0,5.2,0,11.1,0,17.7v34.2c0,6.3,0,12,0,17s0,10.1,0,15.4h29c0-5.3,0-10.4,0-15.4s0-10.6,0-17v-6h31.2v6
	c0,6.3,0,12,0,17s0,10.1,0,15.4h29c0-5.3,0-10.4,0-15.4s0-10.6,0-17v-34.2c0-6.6,0-12.5,0-17.7c0-5.2,0-10.5,0-15.9h-29
	C1171.9,517.1,1171.9,522.4,1171.9,527.6z"/>
<path d="M1299.5,577.9l-10.5-34.4c-1.9-6-3.6-11.5-5.1-16.5s-3.1-10.1-4.7-15.4h-37c-1.5,5.1-3.1,10.1-4.6,15
	c-1.5,5-3.3,10.6-5.2,16.9l-10.6,34.4c-1.7,5.3-3.4,10.9-5.3,16.9c-1.8,6-3.6,11.6-5.2,17h28.9c1.3-5,2.6-10.1,3.9-15.5
	c0.3-1,0.5-2,0.8-3h30.7c0.3,1,0.5,2,0.8,3.1c1.3,5.3,2.5,10.4,3.8,15.4h29.9c-1.6-5.3-3.4-10.9-5.2-16.8
	C1303,589.1,1301.2,583.4,1299.5,577.9z M1261.4,535.8l8.8,36h-20l9.1-36H1261.4z"/>
<path d="M1390.3,511.7c-4.6,0-9.5,0-14.7,0c-5.2,0-10.2,0-15.1,0c-8.4,0-15.6,0.9-21.6,2.7c-6,1.8-10.5,4.9-13.6,9.3
	c-3.1,4.4-4.7,10.4-4.7,18.2c0,4.5,0.7,8.6,2,12.3c1.3,3.7,3.3,6.8,6.1,9.5c2.7,2.6,6.1,4.6,10.2,6.1l-7.5,12.6
	c-1.9,3.1-3.9,6.4-6,10s-4.2,7.1-6.2,10.5c-2,3.4-3.8,6.4-5.3,9h31.9c2.1-3.7,4.1-7.3,6-10.7c1.9-3.4,3.8-6.8,5.6-10l8.3-15.2h7.9
	v3.7c0,6.3,0,12,0,17s0,10.1,0,15.4h28.4c0-5.3,0-10.4,0-15.4s0-10.6,0-17v-34.2c0-6.6,0-12.5,0-17.7c0-5.2,0-10.5,0-15.9
	C1398.8,511.7,1394.9,511.7,1390.3,511.7z M1362.9,557.1c-3.8,0-6.8-0.8-9.1-2.5c-2.3-1.7-3.4-4.9-3.4-9.6c0-2.2,0.3-3.9,0.9-5.4
	c0.6-1.4,1.4-2.6,2.4-3.5c1-0.9,2.2-1.5,3.5-1.9c1.3-0.4,2.7-0.6,4.2-0.6h12.2c0,4.8,0,10.2,0,16.1v7.2L1362.9,557.1L1362.9,557.1
	z"/>
</svg>