<?xml version="1.0" encoding="utf-8"?>
<!-- Generator: Adobe Illustrator 27.2.0, SVG Export Plug-In . SVG Version: 6.00 Build 0)  -->
<svg version="1.1" id="Слой_1" xmlns="http://www.w3.org/2000/svg" xmlns:xlink="http://www.w3.org/1999/xlink" x="0px" y="0px"
	 viewBox="0 0 1920 1080" style="enable-background:new 0 0 1920 1080;" xml:space="preserve">
<style type="text/css">
	.st0{fill:#471646;}
	.st1{fill:#FEE3C8;}
</style>
<rect x="0.25" class="st0" width="1919.75" height="1079.25"/>
<g>
	<g>
		<path class="st1" d="M563.44,588.62l-5.45-41.77c-0.98-7.61-1.9-14.76-2.77-21.45c-0.87-6.69-1.76-13.46-2.68-20.32h-35.46
			c-2.25,6.4-4.31,12.25-6.18,17.56c-1.87,5.31-3.79,10.67-5.75,16.09l-11.33,31.91h-2.25l-12.11-32
			c-2.02-5.36-4.05-10.77-6.1-16.21c-2.05-5.45-4.22-11.23-6.53-17.34h-35.98c-0.92,6.92-1.79,13.74-2.59,20.45
			c-0.81,6.72-1.67,13.79-2.59,21.23l-5.28,41.69c-0.92,7.49-1.77,14.46-2.55,20.89s-1.57,12.79-2.38,19.07h32.95
			c0.92-7.32,1.79-14.33,2.59-21.02c0.81-6.69,1.56-12.97,2.25-18.85l3.03-24.65h2.33l9.51,26.72c1.56,4.21,3.1,8.49,4.63,12.84
			c1.53,4.35,3.04,8.65,4.54,12.89c1.5,4.24,2.94,8.26,4.32,12.06h23.44c1.73-5.76,3.56-11.85,5.49-18.25
			c1.93-6.4,3.88-12.91,5.84-19.54l7.96-26.72h2.33l3.11,24.91c0.69,5.82,1.46,12.03,2.29,18.64c0.84,6.6,1.69,13.59,2.55,20.97
			h33.9c-0.81-6.4-1.63-12.76-2.46-19.07C565.24,603.02,564.36,596.12,563.44,588.62z"/>
		<g>
			<path class="st1" d="M692.12,521.25c-5.36-5.88-12.14-10.49-20.32-13.84c-8.19-3.34-17.85-5.02-28.97-5.02
				c-14.64,0-26.74,2.88-36.28,8.65c-9.54,5.77-16.66,13.52-21.36,23.26c-4.7,9.74-7.05,20.61-7.05,32.6
				c0,8.42,1.27,16.46,3.81,24.13c2.54,7.67,6.44,14.52,11.72,20.54c5.28,6.03,12.06,10.75,20.37,14.18
				c8.3,3.43,18.19,5.15,29.66,5.15c14.13,0,25.97-2.78,35.54-8.35c9.57-5.56,16.78-13.17,21.62-22.83
				c4.84-9.66,7.26-20.65,7.26-32.99c0-8.88-1.33-17.21-3.98-24.99C701.49,533.97,697.49,527.13,692.12,521.25z M669.16,580.28
				c-1.18,4.24-2.95,7.99-5.32,11.24c-2.37,3.26-5.25,5.81-8.65,7.65c-3.4,1.84-7.38,2.77-11.93,2.77c-4.55,0-8.58-0.92-12.06-2.77
				c-3.49-1.84-6.4-4.4-8.73-7.65c-2.34-3.26-4.11-7.01-5.32-11.24c-1.21-4.24-1.82-8.75-1.82-13.53c0-4.84,0.63-9.41,1.9-13.71
				c1.27-4.29,3.08-8.06,5.45-11.29c2.36-3.23,5.28-5.75,8.73-7.57c3.46-1.82,7.41-2.72,11.85-2.72c4.27,0,8.1,0.89,11.5,2.68
				c3.4,1.79,6.3,4.28,8.69,7.48c2.39,3.2,4.24,6.95,5.53,11.24c1.3,4.3,1.95,8.92,1.95,13.88
				C670.94,571.53,670.35,576.04,669.16,580.28z"/>
			<path class="st1" d="M663.6,472.05c3.26-3.72,6.57-7.49,9.95-11.33c3.37-3.83,6.79-7.71,10.25-11.63l-32.86,0.69
				c-3.34,5.59-6.7,11.17-10.08,16.73c-3.37,5.56-6.79,11.17-10.25,16.82l23.35-0.35C657.13,479.42,660.34,475.77,663.6,472.05z"/>
		</g>
		<path class="st1" d="M714.7,535.95c4.32,0,8.89,0,13.71,0c4.81,0,10.36,0,16.65,0h3.98c0,4.94,0,10.32,0,16.17v36.41
			c0,7.78,0,14.74,0,20.89s0,12.47,0,18.98h35.54c0-6.51,0-12.84,0-18.98s0-13.1,0-20.89v-36.41c0-5.85,0-11.23,0-16.17h3.98
			c6.28,0,11.83,0,16.65,0s9.38,0,13.71,0v-30.87H714.7V535.95z"/>
		<path class="st1" d="M898.82,525.71c-4.21,6.43-8.39,12.84-12.54,19.24l-16.17,24.73h-2.51v-23.09c0-8.13,0-15.39,0-21.79
			c0-6.4,0-12.97,0-19.72h-34.68c0,6.69,0,13.22,0,19.59c0,6.37,0,13.62,0,21.75v42.12c0,7.78,0,14.74,0,20.89s0,12.47,0,18.98
			h29.66c4.03-6.11,8.16-12.38,12.37-18.81c4.21-6.43,8.82-13.42,13.84-20.97l16.43-24.91h2.33v24.56c0,7.84,0,14.85,0,21.02
			s0,12.54,0,19.11h34.68c0-6.51,0-12.84,0-18.98s0-13.1,0-20.89v-42.12c0-8.13,0-15.38,0-21.75c0-6.37,0-12.9,0-19.59h-30.01
			C907.5,512.4,903.03,519.28,898.82,525.71z"/>
		<path class="st1" d="M1091.15,524.67c0,6.37,0,13.62,0,21.75v36.32c0,5.86,0,11.25,0,16.17h-29.14c0-4.93,0-10.32,0-16.17v-36.32
			c0-8.13,0-15.38,0-21.75c0-6.37,0-12.9,0-19.59h-34.85c0,6.69,0,13.22,0,19.59c0,6.37,0,13.62,0,21.75v36.32
			c0,5.86,0,11.25,0,16.17h-29.14c0-4.93,0-10.32,0-16.17v-36.32c0-8.13,0-15.38,0-21.75c0-6.37,0-12.9,0-19.59h-35.72
			c0,6.69,0,13.22,0,19.59c0,6.37,0,13.62,0,21.75v42.12c0,7.78,0,14.74,0,20.89s0,12.47,0,18.98h164.58c0-6.51,0-12.84,0-18.98
			s0-13.1,0-20.89v-42.12c0-8.13,0-15.38,0-21.75c0-6.37,0-12.9,0-19.59h-35.72C1091.15,511.77,1091.15,518.3,1091.15,524.67z"/>
		<path class="st1" d="M1221.05,524.67c0,6.37,0,13.62,0,21.75v5.28h-38.4v-5.28c0-8.13,0-15.38,0-21.75c0-6.37,0-12.9,0-19.59
			h-35.72c0,6.69,0,13.22,0,19.59c0,6.37,0,13.62,0,21.75v42.12c0,7.78,0,14.74,0,20.89s0,12.47,0,18.98h35.72
			c0-6.51,0-12.84,0-18.98s0-13.1,0-20.89v-7.35h38.4v7.35c0,7.78,0,14.74,0,20.89s0,12.47,0,18.98h35.72c0-6.51,0-12.84,0-18.98
			s0-13.1,0-20.89v-42.12c0-8.13,0-15.38,0-21.75c0-6.37,0-12.9,0-19.59h-35.72C1221.05,511.77,1221.05,518.3,1221.05,524.67z"/>
		<path class="st1" d="M1378.27,586.72l-12.97-42.38c-2.31-7.44-4.4-14.21-6.27-20.32c-1.87-6.11-3.82-12.42-5.84-18.94h-45.58
			c-1.9,6.23-3.8,12.4-5.71,18.51c-1.9,6.11-4.04,13.03-6.4,20.76l-13.06,42.38c-2.07,6.52-4.24,13.45-6.49,20.8
			c-2.25,7.35-4.38,14.31-6.4,20.89h35.63c1.56-6.11,3.17-12.48,4.84-19.11c0.32-1.25,0.63-2.49,0.94-3.72h37.78
			c0.31,1.26,0.62,2.52,0.93,3.8c1.59,6.52,3.13,12.86,4.63,19.03h36.84c-2.02-6.57-4.14-13.46-6.36-20.67
			C1382.58,600.53,1380.4,593.52,1378.27,586.72z M1331.31,534.83l10.87,44.36h-24.59l11.21-44.36H1331.31z"/>
		<path class="st1" d="M1490.09,505.08c-5.71,0-11.75,0-18.12,0s-12.58,0-18.64,0c-10.38,0-19.24,1.11-26.59,3.33
			c-7.35,2.22-12.94,6.03-16.78,11.42c-3.83,5.39-5.75,12.87-5.75,22.44c0,5.59,0.81,10.65,2.42,15.18
			c1.61,4.53,4.12,8.43,7.52,11.72c3.31,3.2,7.53,5.68,12.62,7.46l-9.25,15.55c-2.31,3.8-4.77,7.91-7.39,12.32
			c-2.62,4.41-5.19,8.71-7.7,12.89c-2.51,4.18-4.69,7.86-6.53,11.03h39.26c2.6-4.61,5.06-9.02,7.4-13.23
			c2.33-4.21,4.65-8.33,6.96-12.37l10.27-18.77h9.71v4.5c0,7.78,0,14.74,0,20.89s0,12.47,0,18.98h35.03c0-6.51,0-12.84,0-18.98
			s0-13.1,0-20.89v-42.12c0-8.13,0-15.38,0-21.75c0-6.37,0-12.9,0-19.59C1500.61,505.08,1495.8,505.08,1490.09,505.08z
			 M1456.36,561.03c-4.67,0-8.4-1.02-11.2-3.07c-2.8-2.05-4.19-5.98-4.19-11.8c0-2.65,0.36-4.86,1.08-6.62
			c0.72-1.76,1.7-3.18,2.94-4.28c1.24-1.09,2.67-1.87,4.28-2.33c1.61-0.46,3.34-0.69,5.19-0.69h15.05c0,5.92,0,12.53,0,19.89v8.91
			H1456.36z"/>
	</g>
</g>
</svg>
