<svg xmlns="http://www.w3.org/2000/svg" viewBox="-5 -5 151.73 89.37">
<style type="text/css">
    .shw{fill:#2C191C;filter:blur(3px);opacity:0.13;}
    .st0{fill:#FFF;}
	.st1{fill:#461A46;}
	.st2{fill:#FEE3C9;}
</style>

<path class="shw" d="M97.81,0.02c-1.21,0-2.41,0.17-3.57,0.52c-5.39,1.59-8.64,6.29-10.87,10.94c-0.6-0.05-1.2-0.08-1.8-0.08
	c-3.12,0-5.99,0.71-8.42,2.07c-0.28-1-0.61-1.96-1-2.87C70.27,6.18,67.1,3,63.01,1.4c-1.86-0.73-3.84-1.1-5.9-1.1
	c-2.69,0-5.45,0.63-8.19,1.88c-2.87,1.31-5.67,3.29-8.26,5.83c-4.2-4.96-9.32-7.78-14.54-7.89c-0.1,0-0.2,0-0.31,0
	c-3.1,0-9.02,1.07-13.76,8.23L12,8.42L11.95,8.5L11.9,8.59l-0.03,0.04l-0.03,0.04c-4.06,6.89-7.43,17.09-9.02,27.3
	C0.99,47.78,1.77,58.3,5.02,65.62c1.03,2.65,3.22,4.88,6.33,6.44c2.73,1.38,6.11,2.17,9.26,2.17c1.72,0,3.36-0.23,4.87-0.68
	c3.13-0.45,7.21-2.19,10.06-7.68c0.78-1.52,1.37-3.11,1.84-4.64c0.31,0.04,0.63,0.07,0.94,0.1c0.83,3.46,2.09,6.62,3.71,9.29
	c2.79,4.59,6.52,7.5,10.77,8.42c0.94,0.2,1.89,0.31,2.84,0.31c3.35,0,8.08-1.27,12.65-6.87c3.06,1.13,6.42,1.72,9.91,1.72
	c0.69,0,1.4-0.02,2.1-0.07c3.43-0.22,6.89-0.99,10.18-2.24c2.34,4.57,6.48,7.26,11.69,7.43c0.2,0.01,0.41,0.01,0.61,0.01
	c4.32,0,8.42-2.17,11.64-6.06c1.89,0.75,3.94,1.14,6.07,1.14c2.76,0,5.59-0.68,8.17-1.96c6.48-3.22,10.38-9.44,10.48-16.68
	c0.09-1.53,0.18-2.98,0.28-4.38c0.76-11.72,1.32-20.19-4.54-26.14c-3.71-3.77-8.99-5.46-17.11-5.46c-0.11,0-0.23,0-0.34,0
	c-1.96-6-5.36-12.93-11.15-16.89C103.53,0.99,100.68,0.02,97.81,0.02L97.81,0.02z"/>
<path class="st0" d="M97.81,0.02c-1.21,0-2.41,0.17-3.57,0.52c-5.39,1.59-8.64,6.29-10.87,10.94c-0.6-0.05-1.2-0.08-1.8-0.08
	c-3.12,0-5.99,0.71-8.42,2.07c-0.28-1-0.61-1.96-1-2.87C70.27,6.18,67.1,3,63.01,1.4c-1.86-0.73-3.84-1.1-5.9-1.1
	c-2.69,0-5.45,0.63-8.19,1.88c-2.87,1.31-5.67,3.29-8.26,5.83c-4.2-4.96-9.32-7.78-14.54-7.89c-0.1,0-0.2,0-0.31,0
	c-3.1,0-9.02,1.07-13.76,8.23L12,8.42L11.95,8.5L11.9,8.59l-0.03,0.04l-0.03,0.04c-4.06,6.89-7.43,17.09-9.02,27.3
	C0.99,47.78,1.77,58.3,5.02,65.62c1.03,2.65,3.22,4.88,6.33,6.44c2.73,1.38,6.11,2.17,9.26,2.17c1.72,0,3.36-0.23,4.87-0.68
	c3.13-0.45,7.21-2.19,10.06-7.68c0.78-1.52,1.37-3.11,1.84-4.64c0.31,0.04,0.63,0.07,0.94,0.1c0.83,3.46,2.09,6.62,3.71,9.29
	c2.79,4.59,6.52,7.5,10.77,8.42c0.94,0.2,1.89,0.31,2.84,0.31c3.35,0,8.08-1.27,12.65-6.87c3.06,1.13,6.42,1.72,9.91,1.72
	c0.69,0,1.4-0.02,2.1-0.07c3.43-0.22,6.89-0.99,10.18-2.24c2.34,4.57,6.48,7.26,11.69,7.43c0.2,0.01,0.41,0.01,0.61,0.01
	c4.32,0,8.42-2.17,11.64-6.06c1.89,0.75,3.94,1.14,6.07,1.14c2.76,0,5.59-0.68,8.17-1.96c6.48-3.22,10.38-9.44,10.48-16.68
	c0.09-1.53,0.18-2.98,0.28-4.38c0.76-11.72,1.32-20.19-4.54-26.14c-3.71-3.77-8.99-5.46-17.11-5.46c-0.11,0-0.23,0-0.34,0
	c-1.96-6-5.36-12.93-11.15-16.89C103.53,0.99,100.68,0.02,97.81,0.02L97.81,0.02z"/>
<path class="st1" d="M133.86,51.01c-0.1,1.46-0.19,2.97-0.29,4.56c-0.02,5.13-2.76,9.54-7.34,11.81c-4.12,2.05-8.71,1.79-11.98-0.68
	c-0.38-0.29-0.85-0.4-1.31-0.3c-0.46,0.09-0.85,0.37-1.08,0.79c-2.45,4.25-5.95,6.68-9.37,6.48c-2.95-0.08-6.71-1.46-8-7.57
	c-0.11-0.52-0.44-0.94-0.92-1.16c-0.27-0.13-0.81-0.29-1.43,0.04c-3.79,2.03-7.98,3.24-12.13,3.51c-4.49,0.3-8.71-0.55-12.19-2.46
	c-0.75-0.41-1.69-0.17-2.14,0.54c-3.63,5.65-7.21,7.13-9.95,7.13c-0.59,0-1.14-0.07-1.64-0.18c-2.7-0.58-5.17-2.6-7.13-5.84
	c-1.78-2.92-3.03-6.63-3.63-10.73c-0.06-0.45-0.3-0.84-0.67-1.1c-0.35-0.25-0.77-0.35-1.18-0.27c-1.96,0.35-4.24,0.08-6.25-0.74
	c-0.45-0.18-0.95-0.16-1.37,0.05c-0.23,0.12-0.65,0.41-0.8,1l-0.09,0.35c-0.57,2.27-1.22,4.85-2.35,7.03
	c-1.49,2.87-3.54,4.45-6.11,4.72c-0.09,0.01-0.18,0.03-0.27,0.06c-3.41,1.13-7.61,0.3-10.25-1.03c-1.33-0.67-3.02-1.82-3.64-3.55
	c-2.87-6.35-3.52-15.8-1.84-26.64c1.48-9.53,4.59-18.99,8.3-25.29l0.05-0.08c3.18-4.8,6.78-5.75,9.24-5.7
	c4.56,0.1,9.39,3.66,12.94,9.53c0.28,0.47,0.76,0.76,1.3,0.79c0.54,0.03,1.04-0.2,1.37-0.63c2.92-3.78,6.26-6.59,9.66-8.13
	c3.44-1.57,6.79-1.8,9.69-0.66c2.65,1.04,4.73,3.17,6.02,6.17c1.31,3.05,1.77,6.87,1.37,11.37c-0.05,0.51,0.16,1.01,0.55,1.35
	c0.39,0.34,0.9,0.46,1.39,0.35c0.17-0.04,0.33-0.08,0.5-0.11c0.73-0.15,1.26-0.77,1.32-1.54c0.16-2.18,1.2-4.01,3-5.31
	c2.58-1.86,6.44-2.38,10.32-1.39c0.77,0.2,1.58-0.21,1.88-0.95c1.75-4.29,4.3-9.38,8.55-10.64c2.3-0.68,4.73-0.15,7.22,1.59
	c5.4,3.68,8.32,11.17,9.81,16.8c0.19,0.72,0.88,1.22,1.64,1.18c8.49-0.42,13.38,0.69,16.33,3.68
	C135.01,33.35,134.55,40.38,133.86,51.01z"/>
<g>
	<path class="st2" d="M107.91,39.09c1.05,12.91-0.75,25.87-5.25,27.05c-2.32,0.61-0.08-13.87-3.9-25.18
		c-0.37-1.08-0.73-2.15-1.09-3.21c-0.6-0.19-1.22-0.4-1.85-0.62c-8.22-2.98-17.04-11.07-16.25-12.41c0.97-1.64,7.25,1.11,15.12,3.9
		c-1.49-5.1-2.05-8.73-0.3-9.31c2.96-0.98,1.07-8.22,4.5-5.83c4.08,2.85,6.79,10.32,8.19,18.78c3.2,0.66,6.38,1.03,9.32,0.88
		C118.25,33.05,115.85,38.39,107.91,39.09z"/>
	<path class="st2" d="M59.96,61.1c-2.96,0.98-2.31,7.33-5.46,4.6c-4.67-4.05-5.21-20.92-3.56-34.51
		c-5.76,6.98-9.01,16.58-11.35,17.15c0,0-0.01,0-0.01,0c-2.4,0.76-7.27-7.48-12.02-17.81c0.24,13.45-0.93,29.22-4.88,30.13
		c-3.52,0.82-5.2,0.29-5.99-0.96c-1.98-3.13-2.26-12.24-0.45-24.17c1.22-8.04,4.22-15.98,6.6-19.9c0,0,0,0,0,0
		c0.04-0.06,0.08-0.13,0.12-0.19c0.01-0.02,0.03-0.04,0.04-0.06c0.6-0.92,1.45-1.87,2.5-2.23c0.21-0.07,0.42-0.12,0.64-0.13
		c4.77-0.4,10.65,13.76,13.18,24.27c2.51-9.53,8.77-22.09,17.48-24.22c0.25-0.06,0.95-0.08,1.07-0.06
		c4.87,0.76,2.7,11.09,1.43,22.17C57.92,47.21,62.93,60.12,59.96,61.1z"/>
	<path class="st2" d="M70.1,33.73c-6.05,3.52-8.13,17.56-1.08,24.04c8.46,7.78,25.19,0.19,26.55-6.82
		C97.19,42.65,78.49,28.85,70.1,33.73z"/>
	<path class="st2" d="M118.17,60.33c-1.58-1.78-1.2-10.66,0.24-17.44c1.42-6.68,1-12.52,6.83-9.35c2.05,1.11,3.01,26.46-2.29,27.34
		C120.13,61.34,118.79,61.04,118.17,60.33z"/>
</g>

</svg>