<svg xmlns="http://www.w3.org/2000/svg" viewBox="0 0 80 45">
	<style type="text/css">
		.s0{fill:#FF9E33;}
		.s1{fill:#FF6433;}
		.s2{fill:#5646FF;}
		.s3{fill:#1BCEC4;}
		.s4{fill:#9943E2;}
		.s5{fill:#414271;}
		.s6{fill:#FF4267;}
		.a{transform-origin: 50% 50%; animation: sm 10s cubic-bezier(0,.75,.5,.5) infinite;}
		@keyframes sm {0%{transform: rotate(0deg);}100%{transform: rotate(360deg);}}
	</style>
	<rect width="100%" height="100%" fill="#231f20" />
	<g class="a">
		<path class="s0" d="M51.81,10.69L49.32,20l-6.82-6.82C46.26,16.95,50.43,15.83,51.81,10.69z" />
		<path class="s1" d="M51.81,10.69c-1.38,5.14-5.55,6.26-9.32,2.5l2.5-9.32L51.81,10.69z" />
		<polygon class="s2" points="40,22.5 42.5,13.18 49.32,20 46.82,29.32 			" />
		<path class="s3" d="M56.13,26.82L49.32,20l2.5-9.32C50.43,15.83,52.37,23.06,56.13,26.82z" />
		<path class="s4" d="M56.13,26.82c-3.77-3.77-5.7-10.99-4.32-16.13l6.82,6.82L56.13,26.82z" />
		<polygon class="s5" points="46.82,29.32 49.32,20 56.13,26.82 53.64,36.14 			" />
		<polygon class="s6" points="50.23,32.73 52.72,23.41 56.13,26.82 53.64,36.14 			" />
		<path class="s1" d="M30.68,25l6.82,6.82l-9.32,2.5C33.33,32.93,34.45,28.76,30.68,25z" />
		<path class="s5" d="M30.68,25c3.77,3.77,2.65,7.94-2.5,9.32l-6.82-6.82L30.68,25z" />
		<polygon class="s0" points="35.01,41.13 28.19,34.31 37.5,31.82 44.32,38.63 			" />
		<path class="s4" d="M46.82,29.32l-9.32,2.5L30.68,25C34.45,28.76,41.67,30.7,46.82,29.32z" />
		<path class="s2" d="M46.82,29.32C41.67,30.7,34.45,28.76,30.68,25L40,22.5L46.82,29.32z" />
		<polygon class="s6" points="44.32,38.63 37.5,31.82 46.82,29.32 53.64,36.14 			" />
		<polygon class="s3" points="48.98,37.39 42.16,30.57 46.82,29.32 53.64,36.14 			" />
		<path class="s6" d="M42.5,13.18l-9.32,2.5l2.5-9.32C34.3,11.51,37.35,14.56,42.5,13.18z" />
		<path class="s3" d="M42.5,13.18c-5.14,1.38-8.2-1.67-6.82-6.82l9.32-2.5L42.5,13.18z" />
		<polygon class="s1" points="30.68,25 33.18,15.68 42.5,13.18 40,22.5 			" />
		<polygon class="s5" points="35.34,23.75 37.84,14.43 42.5,13.18 40,22.5 			" />
		<polygon class="s4" points="21.37,27.49 23.87,18.18 33.18,15.68 30.68,25 			" />
		<path class="s2" d="M35.68,6.37l-2.5,9.32l-9.32,2.5C29.01,16.8,34.3,11.51,35.68,6.37z" />
		<path class="s0" d="M35.68,6.37c-1.38,5.14-6.67,10.43-11.81,11.81l2.5-9.32L35.68,6.37z" />
	</g>
</svg>