<svg style="fill:#FFF;" xmlns="http://www.w3.org/2000/svg" xmlns:xlink="http://www.w3.org/1999/xlink" viewBox="0 0 1920 1080">

<defs>
	<radialGradient id="grad9-tl" cx="0%" cy="0%" r="100%" fx="0%" fy="0%">
		<stop offset="0%" stop-color="#ffbe0b"/>
		<stop offset="100%" stop-color="#ffbe0b" stop-opacity="0"/>
	</radialGradient>
	<radialGradient id="grad9-tr" cx="100%" cy="0%" r="100%" fx="100%" fy="0%">
		<stop offset="0%" stop-color="#da0082"/>
		<stop offset="100%" stop-color="#da0082" stop-opacity="0"/>
	</radialGradient>
	<radialGradient id="grad9-bl" cx="0%" cy="100%" r="100%" fx="0%" fy="100%">
		<stop offset="0%" stop-color="#5299ff"/>
		<stop offset="100%" stop-color="#5299ff" stop-opacity="0"/>
	</radialGradient>
	<radialGradient id="grad9-br" cx="100%" cy="100%" r="100%" fx="100%" fy="100%">
		<stop offset="0%" stop-color="#8338ec"/>
		<stop offset="100%" stop-color="#8338ec" stop-opacity="0"/>
	</radialGradient>
</defs>

<rect fill="#8338ec" width="1920" height="1080"/>
<rect fill="url(#grad9-tl)" width="1920" height="1080"/>
<rect fill="url(#grad9-tr)" width="1920" height="1080"/>
<rect fill="url(#grad9-bl)" width="1920" height="1080"/>
<rect fill="url(#grad9-br)" width="1920" height="1080"/>

<path d="M569.06,360.09l14.45,26.42c0.45,0.82,1.13,1.5,1.95,1.95l26.42,14.45c3.4,1.86,3.4,6.75,0,8.61l-26.42,14.45
	c-0.82,0.45-1.5,1.13-1.95,1.95l-14.45,26.42c-1.86,3.4-6.75,3.4-8.61,0L546,427.92c-0.45-0.82-1.13-1.5-1.95-1.95l-26.42-14.45
	c-3.4-1.86-3.4-6.75,0-8.61l26.42-14.45c0.82-0.45,1.5-1.13,1.95-1.95l14.45-26.42C562.31,356.68,567.19,356.68,569.06,360.09z"/>
<circle cx="564.75" cy="537.3" r="38.83"/>
<path d="M564.75,680.7c-12.37,0-24.54-0.81-36.49-2.38c-15.57-45.44-36.98-85.38-64.52-119.64
	c-5.71-6.25-5.29-15.95,0.96-21.67c6.25-5.71,15.95-5.27,21.68,0.98c23.77,29.35,63.77,74.18,78.36,74.18
	c14.61,0,54.59-44.83,78.36-74.18c5.73-6.25,15.43-6.69,21.68-0.98s6.67,15.42,0.96,21.67c-27.51,34.26-48.95,74.2-64.52,119.64
	C589.29,679.9,577.12,680.7,564.75,680.7z"/>
<path d="M753.1,498.36h22.58v134.32h70.46v21.29H753.1V498.36z"/>
<path d="M862.36,602.1v-64.84h22.91v57.38c0,18.15,4.65,41.06,29.5,41.06c16.21,0,29.61-10.05,29.61-37.71v-60.73h22.8
	v116.71h-20.1v-13.94c-8.54,10.7-21.61,17.07-38.58,17.07C868.3,657.1,862.36,620.15,862.36,602.1z"/>
<path d="M1113.83,554.44c-12.86,0-23.77,8.97-23.77,26.58l-0.11,72.94h-22.59l0.11-72.29
	c0-16.86-9.29-27.23-23.67-27.23c-14.26,0-23.77,10.7-23.77,26.58v72.94h-22.69V537.26h20.1v12.54
	c7.46-9.51,19.45-15.45,33.5-15.45c16.1,0,27.77,7.13,33.93,18.91c7.13-11.78,20.21-18.91,35.44-18.91
	c25.07,0,39.66,16.43,39.66,41.5l-0.11,78.13h-22.58l0.11-72.73C1137.38,564.49,1127.87,554.44,1113.83,554.44z"/>
<path d="M1180.19,596.59c0-38.25,23.02-62.57,57.17-62.57c35.66,0,56.41,26.15,54.03,67.97h-86.99
	c1.84,21.61,13.29,33.93,32.96,33.93c14.05,0,24.64-6.59,30.37-18.59l22.15,7.02c-9.08,20.86-28.85,32.85-51.44,32.85
	C1203.53,657.21,1180.19,632.68,1180.19,596.59z M1268.26,584.38c-2.38-20.53-12.1-30.37-30.04-30.37
	c-19.34,0-30.37,10.59-33.28,30.37H1268.26z"/>
<path d="M1329.32,639.81c-5.08-9.62-4.32-19.02-4.32-31.77v-52.63h-22.37v-18.16H1325v-32.42h22.69v32.42h34.69v18.16
	h-34.69v51.55c0,9.4-0.43,16.21,2.38,20.96c5.19,8.86,17.07,9.19,32.31,6.92v19.13C1360.44,658.29,1337.86,656.02,1329.32,639.81z"
	/>
</svg>
