<svg xmlns="http://www.w3.org/2000/svg" viewBox="0 0 3584 3584">
<style type="text/css">
	@import url("../../../styles/logos-draft.css");
	.mjl,.mnl,.dl,.logo-draft{stroke-width:6;}
	.logo{fill:#FFFFFF;}
	.mjl,.mnl{stroke-dasharray:3650;stroke-dashoffset:3650;}
</style>
<defs>
	<linearGradient id="grad1" x1="0" y1="0" x2="0" y2="1">
		<stop offset="0%" stop-color="#ffbe0b"/>
		<stop offset="100%" stop-color="#ffd366"/>
	</linearGradient>
	<linearGradient id="grad2" x1="0" y1="0" x2="0" y2="1">
		<stop offset="0%" stop-color="#da0082"/>
		<stop offset="100%" stop-color="#d852a9"/>
	</linearGradient>
	<linearGradient id="grad3" x1="0" y1="0" x2="0" y2="1">
		<stop offset="0%" stop-color="#5299ff"/>
		<stop offset="100%" stop-color="#92c4ff"/>
	</linearGradient>
	<linearGradient id="grad4" x1="0" y1="0" x2="0" y2="1">
		<stop offset="0%" stop-color="#8338ec"/>
		<stop offset="100%" stop-color="#aa81ea"/>
	</linearGradient>

	<linearGradient id="grad5-base" x1="0" y1="0" x2="0" y2="1">
		<stop offset="0%" stop-color="#5299ff"/>
		<stop offset="100%" stop-color="#92c4ff"/>
	</linearGradient>
	<radialGradient id="grad5-rad1" cx="100%" cy="0%" r="100%" fx="100%" fy="0%">
		<stop offset="0%" stop-color="#da0082">
			<animate 
			attributeName="stop-opacity"
			values="1; 0.4; 1"
			dur="10s"
			repeatCount="indefinite"
			easing="ease-in-out"
			/>
		</stop>
		<stop offset="100%" stop-color="#da0082" stop-opacity="0"/>
	</radialGradient>
	<radialGradient id="grad5-rad2" cx="0%" cy="100%" r="100%" fx="0%" fy="100%">
		<stop offset="0%" stop-color="#d852a9">
			<animate 
			attributeName="stop-opacity"
			values="1; 0.4; 1"
			dur="9.5s"
			repeatCount="indefinite"
			easing="ease-in-out"
			/>
		</stop>
		<stop offset="100%" stop-color="#d852a9" stop-opacity="0"/>
	</radialGradient>

	<linearGradient id="grad6-base" x1="0" y1="0" x2="0" y2="1">
		<stop offset="0%" stop-color="#5299ff"/>
		<stop offset="100%" stop-color="#92c4ff"/>
	</linearGradient>
	<radialGradient id="grad6-rad1" cx="0%" cy="0%" r="100%" fx="0%" fy="0%">
		<stop offset="0%" stop-color="#8338ec">
			<animate 
			attributeName="stop-opacity"
			values="1; 0.4; 1"
			dur="9.5s"
			repeatCount="indefinite"
			easing="ease-in-out"
			/>
		</stop>
		<stop offset="100%" stop-color="#8338ec" stop-opacity="0"/>
	</radialGradient>
	<radialGradient id="grad6-rad2" cx="100%" cy="100%" r="100%" fx="100%" fy="100%">
		<stop offset="0%" stop-color="#aa81ea">
			<animate 
			attributeName="stop-opacity"
			values="1; 0.4; 1"
			dur="9.5s"
			repeatCount="indefinite"
			easing="ease-in-out"
			/>
		</stop>
		<stop offset="100%" stop-color="#aa81ea" stop-opacity="0"/>
	</radialGradient>

	<linearGradient id="grad7-base" x1="0" y1="0" x2="0" y2="1">
		<stop offset="0%" stop-color="#da0082"/>
		<stop offset="100%" stop-color="#d852a9"/>
	</linearGradient>
	<radialGradient id="grad7-rad1" cx="0%" cy="0%" r="100%" fx="0%" fy="0%">
		<stop offset="0%" stop-color="#ffbe0b">
			<animate 
			attributeName="stop-opacity"
			values="1; 0.4; 1"
			dur="9.5s"
			repeatCount="indefinite"
			easing="ease-in-out"
			/>
		</stop>
		<stop offset="100%" stop-color="#ffbe0b" stop-opacity="0"/>
	</radialGradient>
	<radialGradient id="grad7-rad2" cx="100%" cy="100%" r="100%" fx="100%" fy="100%">
		<stop offset="0%" stop-color="#ffd366">
			<animate 
			attributeName="stop-opacity"
			values="1; 0.4; 1"
			dur="9.5s"
			repeatCount="indefinite"
			easing="ease-in-out"
			/>
		</stop>
		<stop offset="100%" stop-color="#ffd366" stop-opacity="0"/>
	</radialGradient>

	<linearGradient id="grad8-base" x1="0" y1="0" x2="0" y2="1">
		<stop offset="0%" stop-color="#da0082"/>
		<stop offset="100%" stop-color="#d852a9"/>
	</linearGradient>
	<radialGradient id="grad8-rad1" cx="0%" cy="0%" r="100%" fx="0%" fy="0%">
		<stop offset="0%" stop-color="#8338ec">
			<animate 
			attributeName="stop-opacity"
			values="1; 0.4; 1"
			dur="9.5s"
			repeatCount="indefinite"
			easing="ease-in-out"
			/>
		</stop>
		<stop offset="100%" stop-color="#8338ec" stop-opacity="0"/>
	</radialGradient>
	<radialGradient id="grad8-rad2" cx="100%" cy="100%" r="100%" fx="100%" fy="100%">
		<stop offset="0%" stop-color="#aa81ea">
			<animate 
			attributeName="stop-opacity"
			values="1; 0.4; 1"
			dur="9.5s"
			repeatCount="indefinite"
			easing="ease-in-out"
			/>
		</stop>
		<stop offset="100%" stop-color="#aa81ea" stop-opacity="0"/>
	</radialGradient>

	<radialGradient id="grad9-tl" cx="0%" cy="0%" r="100%" fx="0%" fy="0%">
		<stop offset="0%" stop-color="#ffbe0b"/>
		<stop offset="100%" stop-color="#ffbe0b" stop-opacity="0"/>
	</radialGradient>
	<radialGradient id="grad9-tr" cx="100%" cy="0%" r="100%" fx="100%" fy="0%">
		<stop offset="0%" stop-color="#da0082"/>
		<stop offset="100%" stop-color="#da0082" stop-opacity="0"/>
	</radialGradient>
	<radialGradient id="grad9-bl" cx="0%" cy="100%" r="100%" fx="0%" fy="100%">
		<stop offset="0%" stop-color="#5299ff"/>
		<stop offset="100%" stop-color="#5299ff" stop-opacity="0"/>
	</radialGradient>
	<radialGradient id="grad9-br" cx="100%" cy="100%" r="100%" fx="100%" fy="100%">
		<stop offset="0%" stop-color="#8338ec"/>
		<stop offset="100%" stop-color="#8338ec" stop-opacity="0"/>
	</radialGradient>
</defs>

<g class="main">
	<g class="logo">
		<path fill="url(#grad1)" d="M1024,651c0,14.24,0.01,28.48-0.08,42.73c-0.07,12-0.21,23.99-0.53,35.98c-0.71,26.13-2.25,52.49-6.89,78.34
		c-4.71,26.22-12.4,50.62-24.53,74.44c-11.92,23.41-27.49,44.84-46.07,63.41c-18.58,18.58-40,34.15-63.41,46.07
		c-23.82,12.12-48.22,19.82-74.44,24.53c-25.84,4.65-52.2,6.18-78.34,6.89c-11.99,0.33-23.99,0.46-35.98,0.53
		c-14.24,0.09-28.48,0.08-42.73,0.08H373c-14.24,0-28.48,0.01-42.73-0.08c-12-0.07-23.99-0.21-35.98-0.53
		c-26.13-0.71-52.49-2.25-78.34-6.89c-26.22-4.71-50.62-12.4-74.44-24.53c-23.41-11.92-44.84-27.49-63.41-46.07
		c-18.58-18.58-34.15-40-46.07-63.41c-12.12-23.82-19.82-48.22-24.53-74.44c-4.65-25.84-6.18-52.2-6.89-78.34
		c-0.33-11.99-0.46-23.99-0.53-35.98C-0.01,679.48,0,665.24,0,651V373c0-14.24-0.01-28.48,0.08-42.73c0.07-12,0.21-23.99,0.53-35.98
		c0.71-26.13,2.25-52.49,6.89-78.34c4.71-26.22,12.4-50.62,24.53-74.44C43.95,118.1,59.52,96.67,78.1,78.1s40-34.15,63.41-46.07
		c23.82-12.12,48.22-19.82,74.44-24.53c25.84-4.65,52.2-6.18,78.34-6.89c11.99-0.33,23.99-0.46,35.98-0.53
		C344.51-0.01,358.75,0,373,0h278c14.24,0,28.48-0.01,42.73,0.08c12,0.07,23.99,0.21,35.98,0.53c26.13,0.71,52.49,2.25,78.34,6.89
		c26.22,4.71,50.62,12.4,74.44,24.53c23.41,11.92,44.84,27.49,63.41,46.07c18.58,18.58,34.15,40,46.07,63.41
		c12.12,23.82,19.82,48.22,24.53,74.44c4.65,25.84,6.18,52.2,6.89,78.34c0.33,11.99,0.46,23.99,0.53,35.98
		c0.09,14.24,0.08,28.48,0.08,42.73V651z"/>
		<path d="M522.58,108.27l35.5,64.91c1.11,2.02,2.77,3.69,4.79,4.79l64.91,35.5c8.36,4.57,8.36,16.58,0,21.16
		l-64.91,35.5c-2.02,1.11-3.69,2.77-4.79,4.79l-35.5,64.91c-4.57,8.36-16.58,8.36-21.16,0l-35.5-64.91
		c-1.11-2.02-2.77-3.69-4.79-4.79l-64.91-35.5c-8.36-4.57-8.36-16.58,0-21.16l64.91-35.5c2.02-1.11,3.69-2.77,4.79-4.79l35.5-64.91
		C506,99.91,518,99.91,522.58,108.27z"/>
		<circle cx="512.01" cy="543.67" r="95.39"/>
		<path d="M512,896c-30.38,0-60.3-1.98-89.64-5.84c-38.25-111.64-90.87-209.76-158.51-293.94
		c-14.04-15.36-13-39.19,2.36-53.23s39.19-12.95,53.28,2.4c58.4,72.12,156.66,182.25,192.51,182.25
		c35.89,0,134.11-110.14,192.52-182.25c14.09-15.36,37.92-16.44,53.28-2.4c15.36,14.04,16.39,37.87,2.36,53.23
		c-67.6,84.18-120.26,182.3-158.51,293.94C572.3,894.02,542.38,896,512,896z"/>
	</g>
	<g class="logo-draft">
		<path d="M522.58,108.27l35.5,64.91c1.11,2.02,2.77,3.69,4.79,4.79l64.91,35.5c8.36,4.57,8.36,16.58,0,21.16
		l-64.91,35.5c-2.02,1.11-3.69,2.77-4.79,4.79l-35.5,64.91c-4.57,8.36-16.58,8.36-21.16,0l-35.5-64.91
		c-1.11-2.02-2.77-3.69-4.79-4.79l-64.91-35.5c-8.36-4.57-8.36-16.58,0-21.16l64.91-35.5c2.02-1.11,3.69-2.77,4.79-4.79l35.5-64.91
		C506,99.91,518,99.91,522.58,108.27z"/>
		<circle cx="512.01" cy="543.67" r="95.39"/>
		<path d="M512,896c-30.38,0-60.3-1.98-89.64-5.84c-38.25-111.64-90.87-209.76-158.51-293.94
		c-14.04-15.36-13-39.19,2.36-53.23s39.19-12.95,53.28,2.4c58.4,72.12,156.66,182.25,192.51,182.25
		c35.89,0,134.11-110.14,192.52-182.25c14.09-15.36,37.92-16.44,53.28-2.4c15.36,14.04,16.39,37.87,2.36,53.23
		c-67.6,84.18-120.26,182.3-158.51,293.94C572.3,894.02,542.38,896,512,896z"/>
	</g>
	<g class="mnl">
		<line class="st2" x1="1024" y1="0" x2="0" y2="1024"/>
		<line class="st2" x1="1024" y1="1024" x2="0" y2="0"/>
		<line class="st2" x1="512" y1="0" x2="512" y2="1024"/>
		<line class="st2" x1="1024" y1="512" x2="0" y2="512"/>
		<line class="st2" x1="512" y1="0" x2="512" y2="1024"/>
		<line class="st2" x1="1024" y1="512" x2="0" y2="512"/>
		<line class="st2" x1="1024" y1="640" x2="0" y2="640"/>
		<line class="st2" x1="1024" y1="768" x2="0" y2="768"/>
		<line class="st2" x1="1024" y1="896" x2="0" y2="896"/>
		<line class="st2" x1="1024" y1="384" x2="0" y2="384"/>
		<line class="st2" x1="1024" y1="256" x2="0" y2="256"/>
		<line class="st2" x1="1024" y1="128" x2="0" y2="128"/>
		<line class="st2" x1="512" y1="1024" x2="512" y2="0"/>
		<line class="st2" x1="512" y1="1024" x2="512" y2="0"/>
		<line class="st2" x1="384" y1="1024" x2="384" y2="0"/>
		<line class="st2" x1="256" y1="1024" x2="256" y2="0"/>
		<line class="st2" x1="128" y1="1024" x2="128" y2="0"/>
		<line class="st2" x1="640" y1="1024" x2="640" y2="0"/>
		<line class="st2" x1="768" y1="1024" x2="768" y2="0"/>
		<line class="st2" x1="896" y1="1024" x2="896" y2="0"/>
		<circle class="st2" cx="512" cy="512" r="410"/>
		<circle class="st2" cx="512" cy="512" r="256"/>
	</g>
	<g class="mjl">
		<path d="M1024,651c0,14.24,0.01,28.48-0.08,42.73c-0.07,12-0.21,23.99-0.53,35.98c-0.71,26.13-2.25,52.49-6.89,78.34
		c-4.71,26.22-12.4,50.62-24.53,74.44c-11.92,23.41-27.49,44.84-46.07,63.41c-18.58,18.58-40,34.15-63.41,46.07
		c-23.82,12.12-48.22,19.82-74.44,24.53c-25.84,4.65-52.2,6.18-78.34,6.89c-11.99,0.33-23.99,0.46-35.98,0.53
		c-14.24,0.09-28.48,0.08-42.73,0.08H373c-14.24,0-28.48,0.01-42.73-0.08c-12-0.07-23.99-0.21-35.98-0.53
		c-26.13-0.71-52.49-2.25-78.34-6.89c-26.22-4.71-50.62-12.4-74.44-24.53c-23.41-11.92-44.84-27.49-63.41-46.07
		c-18.58-18.58-34.15-40-46.07-63.41c-12.12-23.82-19.82-48.22-24.53-74.44c-4.65-25.84-6.18-52.2-6.89-78.34
		c-0.33-11.99-0.46-23.99-0.53-35.98C-0.01,679.48,0,665.24,0,651V373c0-14.24-0.01-28.48,0.08-42.73c0.07-12,0.21-23.99,0.53-35.98
		c0.71-26.13,2.25-52.49,6.89-78.34c4.71-26.22,12.4-50.62,24.53-74.44C43.95,118.1,59.52,96.67,78.1,78.1s40-34.15,63.41-46.07
		c23.82-12.12,48.22-19.82,74.44-24.53c25.84-4.65,52.2-6.18,78.34-6.89c11.99-0.33,23.99-0.46,35.98-0.53
		C344.51-0.01,358.75,0,373,0h278c14.24,0,28.48-0.01,42.73,0.08c12,0.07,23.99,0.21,35.98,0.53c26.13,0.71,52.49,2.25,78.34,6.89
		c26.22,4.71,50.62,12.4,74.44,24.53c23.41,11.92,44.84,27.49,63.41,46.07c18.58,18.58,34.15,40,46.07,63.41
		c12.12,23.82,19.82,48.22,24.53,74.44c4.65,25.84,6.18,52.2,6.89,78.34c0.33,11.99,0.46,23.99,0.53,35.98
		c0.09,14.24,0.08,28.48,0.08,42.73V651z"/>
	</g>
</g>

<g class="main">
	<g class="logo">
		<path fill="url(#grad2)" d="M3584,651c0,14.24,0.01,28.48-0.08,42.73c-0.07,12-0.21,23.99-0.53,35.98c-0.71,26.13-2.25,52.49-6.89,78.34
		c-4.71,26.22-12.4,50.62-24.53,74.44c-11.92,23.41-27.49,44.84-46.07,63.41c-18.58,18.58-40,34.15-63.41,46.07
		c-23.82,12.12-48.22,19.82-74.44,24.53c-25.84,4.65-52.2,6.18-78.34,6.89c-11.99,0.33-23.99,0.46-35.98,0.53
		c-14.24,0.09-28.48,0.08-42.73,0.08h-278c-14.24,0-28.48,0.01-42.73-0.08c-12-0.07-23.99-0.21-35.98-0.53
		c-26.13-0.71-52.49-2.25-78.34-6.89c-26.22-4.71-50.62-12.4-74.44-24.53c-23.41-11.92-44.84-27.49-63.41-46.07
		c-18.58-18.58-34.15-40-46.07-63.41c-12.12-23.82-19.82-48.22-24.53-74.44c-4.65-25.84-6.18-52.2-6.89-78.34
		c-0.32-11.99-0.46-23.99-0.53-35.98c-0.09-14.24-0.08-28.48-0.08-42.73V373c0-14.24-0.01-28.48,0.08-42.73
		c0.07-12,0.21-23.99,0.53-35.98c0.71-26.13,2.25-52.49,6.89-78.34c4.71-26.22,12.4-50.62,24.53-74.44
		c11.92-23.41,27.49-44.84,46.07-63.41s40-34.15,63.41-46.07c23.82-12.12,48.22-19.82,74.44-24.53c25.84-4.65,52.2-6.18,78.34-6.89
		c11.99-0.33,23.99-0.46,35.98-0.53C2904.51-0.01,2918.75,0,2933,0h278c14.24,0,28.48-0.01,42.73,0.08
		c12,0.07,23.99,0.21,35.98,0.53c26.13,0.71,52.49,2.25,78.34,6.89c26.22,4.71,50.62,12.4,74.44,24.53
		c23.41,11.92,44.84,27.49,63.41,46.07s34.15,40,46.07,63.41c12.12,23.82,19.82,48.22,24.53,74.44c4.65,25.84,6.18,52.2,6.89,78.34
		c0.32,11.99,0.46,23.99,0.53,35.98c0.09,14.24,0.08,28.48,0.08,42.73V651z"/>
		<path d="M3082.58,108.27l35.5,64.91c1.11,2.02,2.77,3.69,4.79,4.79l64.91,35.5c8.36,4.57,8.36,16.58,0,21.16
		l-64.91,35.5c-2.02,1.11-3.69,2.77-4.79,4.79l-35.5,64.91c-4.57,8.36-16.58,8.36-21.16,0l-35.5-64.91
		c-1.11-2.02-2.77-3.69-4.79-4.79l-64.91-35.5c-8.36-4.57-8.36-16.58,0-21.16l64.91-35.5c2.02-1.11,3.69-2.77,4.79-4.79l35.5-64.91
		C3066,99.91,3078,99.91,3082.58,108.27z"/>
		<circle cx="3072.01" cy="543.67" r="95.39"/>
		<path d="M3072,896c-30.38,0-60.3-1.98-89.64-5.84c-38.25-111.64-90.87-209.76-158.51-293.94
		c-14.04-15.36-13-39.19,2.36-53.23s39.19-12.95,53.28,2.4c58.41,72.12,156.67,182.25,192.52,182.25
		c35.89,0,134.11-110.14,192.52-182.25c14.09-15.36,37.92-16.44,53.28-2.4s16.39,37.87,2.36,53.23
		c-67.6,84.18-120.26,182.3-158.51,293.94C3132.3,894.02,3102.38,896,3072,896z"/>
	</g>
	<g class="logo-draft">
		<path d="M3082.58,108.27l35.5,64.91c1.11,2.02,2.77,3.69,4.79,4.79l64.91,35.5c8.36,4.57,8.36,16.58,0,21.16
		l-64.91,35.5c-2.02,1.11-3.69,2.77-4.79,4.79l-35.5,64.91c-4.57,8.36-16.58,8.36-21.16,0l-35.5-64.91
		c-1.11-2.02-2.77-3.69-4.79-4.79l-64.91-35.5c-8.36-4.57-8.36-16.58,0-21.16l64.91-35.5c2.02-1.11,3.69-2.77,4.79-4.79l35.5-64.91
		C3066,99.91,3078,99.91,3082.58,108.27z"/>
		<circle cx="3072.01" cy="543.67" r="95.39"/>
		<path d="M3072,896c-30.38,0-60.3-1.98-89.64-5.84c-38.25-111.64-90.87-209.76-158.51-293.94
		c-14.04-15.36-13-39.19,2.36-53.23s39.19-12.95,53.28,2.4c58.41,72.12,156.67,182.25,192.52,182.25
		c35.89,0,134.11-110.14,192.52-182.25c14.09-15.36,37.92-16.44,53.28-2.4s16.39,37.87,2.36,53.23
		c-67.6,84.18-120.26,182.3-158.51,293.94C3132.3,894.02,3102.38,896,3072,896z"/>
	</g>
	<g class="mnl">
		<line class="st2" x1="3584" y1="0" x2="2560" y2="1024"/>
		<line class="st2" x1="3584" y1="1024" x2="2560" y2="0"/>
		<line class="st2" x1="3072" y1="0" x2="3072" y2="1024"/>
		<line class="st2" x1="3584" y1="512" x2="2560" y2="512"/>
		<line class="st2" x1="3072" y1="0" x2="3072" y2="1024"/>
		<line class="st2" x1="3584" y1="512" x2="2560" y2="512"/>
		<line class="st2" x1="3584" y1="640" x2="2560" y2="640"/>
		<line class="st2" x1="3584" y1="768" x2="2560" y2="768"/>
		<line class="st2" x1="3584" y1="896" x2="2560" y2="896"/>
		<line class="st2" x1="3584" y1="384" x2="2560" y2="384"/>
		<line class="st2" x1="3584" y1="256" x2="2560" y2="256"/>
		<line class="st2" x1="3584" y1="128" x2="2560" y2="128"/>
		<line class="st2" x1="3072" y1="1024" x2="3072" y2="0"/>
		<line class="st2" x1="3072" y1="1024" x2="3072" y2="0"/>
		<line class="st2" x1="2944" y1="1024" x2="2944" y2="0"/>
		<line class="st2" x1="2816" y1="1024" x2="2816" y2="0"/>
		<line class="st2" x1="2688" y1="1024" x2="2688" y2="0"/>
		<line class="st2" x1="3200" y1="1024" x2="3200" y2="0"/>
		<line class="st2" x1="3328" y1="1024" x2="3328" y2="0"/>
		<line class="st2" x1="3456" y1="1024" x2="3456" y2="0"/>
		<circle class="st2" cx="3072" cy="512" r="410"/>
		<circle class="st2" cx="3072" cy="512" r="256"/>
	</g>
	<g class="mjl">
		<path d="M3584,651c0,14.24,0.01,28.48-0.08,42.73c-0.07,12-0.21,23.99-0.53,35.98c-0.71,26.13-2.25,52.49-6.89,78.34
		c-4.71,26.22-12.4,50.62-24.53,74.44c-11.92,23.41-27.49,44.84-46.07,63.41c-18.58,18.58-40,34.15-63.41,46.07
		c-23.82,12.12-48.22,19.82-74.44,24.53c-25.84,4.65-52.2,6.18-78.34,6.89c-11.99,0.33-23.99,0.46-35.98,0.53
		c-14.24,0.09-28.48,0.08-42.73,0.08h-278c-14.24,0-28.48,0.01-42.73-0.08c-12-0.07-23.99-0.21-35.98-0.53
		c-26.13-0.71-52.49-2.25-78.34-6.89c-26.22-4.71-50.62-12.4-74.44-24.53c-23.41-11.92-44.84-27.49-63.41-46.07
		c-18.58-18.58-34.15-40-46.07-63.41c-12.12-23.82-19.82-48.22-24.53-74.44c-4.65-25.84-6.18-52.2-6.89-78.34
		c-0.32-11.99-0.46-23.99-0.53-35.98c-0.09-14.24-0.08-28.48-0.08-42.73V373c0-14.24-0.01-28.48,0.08-42.73
		c0.07-12,0.21-23.99,0.53-35.98c0.71-26.13,2.25-52.49,6.89-78.34c4.71-26.22,12.4-50.62,24.53-74.44
		c11.92-23.41,27.49-44.84,46.07-63.41s40-34.15,63.41-46.07c23.82-12.12,48.22-19.82,74.44-24.53c25.84-4.65,52.2-6.18,78.34-6.89
		c11.99-0.33,23.99-0.46,35.98-0.53C2904.51-0.01,2918.75,0,2933,0h278c14.24,0,28.48-0.01,42.73,0.08
		c12,0.07,23.99,0.21,35.98,0.53c26.13,0.71,52.49,2.25,78.34,6.89c26.22,4.71,50.62,12.4,74.44,24.53
		c23.41,11.92,44.84,27.49,63.41,46.07s34.15,40,46.07,63.41c12.12,23.82,19.82,48.22,24.53,74.44c4.65,25.84,6.18,52.2,6.89,78.34
		c0.32,11.99,0.46,23.99,0.53,35.98c0.09,14.24,0.08,28.48,0.08,42.73V651z"/>
	</g>
</g>

<g class="main">
	<g class="logo">
		<path fill="url(#grad3)" d="M2304,651c0,14.24,0.01,28.48-0.08,42.73c-0.07,12-0.21,23.99-0.53,35.98c-0.71,26.13-2.25,52.49-6.89,78.34
		c-4.71,26.22-12.4,50.62-24.53,74.44c-11.92,23.41-27.49,44.84-46.07,63.41c-18.58,18.58-40,34.15-63.41,46.07
		c-23.82,12.12-48.22,19.82-74.44,24.53c-25.84,4.65-52.2,6.18-78.34,6.89c-11.99,0.33-23.99,0.46-35.98,0.53
		c-14.24,0.09-28.48,0.08-42.73,0.08h-278c-14.24,0-28.48,0.01-42.73-0.08c-12-0.07-23.99-0.21-35.98-0.53
		c-26.13-0.71-52.49-2.25-78.34-6.89c-26.22-4.71-50.62-12.4-74.44-24.53c-23.41-11.92-44.84-27.49-63.41-46.07
		c-18.58-18.58-34.15-40-46.07-63.41c-12.12-23.82-19.82-48.22-24.53-74.44c-4.65-25.84-6.18-52.2-6.89-78.34
		c-0.33-11.99-0.46-23.99-0.53-35.98c-0.09-14.24-0.08-28.48-0.08-42.73V373c0-14.24-0.01-28.48,0.08-42.73
		c0.07-12,0.21-23.99,0.53-35.98c0.71-26.13,2.25-52.49,6.89-78.34c4.71-26.22,12.4-50.62,24.53-74.44
		c11.92-23.41,27.49-44.84,46.07-63.41c18.58-18.58,40-34.15,63.41-46.07c23.82-12.12,48.22-19.82,74.44-24.53
		c25.84-4.65,52.2-6.18,78.34-6.89c11.99-0.33,23.99-0.46,35.98-0.53C1624.51-0.01,1638.75,0,1653,0h278
		c14.24,0,28.48-0.01,42.73,0.08c12,0.07,23.99,0.21,35.98,0.53c26.13,0.71,52.49,2.25,78.34,6.89
		c26.22,4.71,50.62,12.4,74.44,24.53c23.41,11.92,44.84,27.49,63.41,46.07s34.15,40,46.07,63.41
		c12.12,23.82,19.82,48.22,24.53,74.44c4.65,25.84,6.18,52.2,6.89,78.34c0.32,11.99,0.46,23.99,0.53,35.98
		c0.09,14.24,0.08,28.48,0.08,42.73V651z"/>
		<path d="M1827.53,123.07l119.26,218.05c3.72,6.8,9.3,12.38,16.1,16.1l218.05,119.26c28.09,15.36,28.09,55.7,0,71.06
		L1962.89,666.8c-6.79,3.72-12.38,9.3-16.1,16.1l-119.26,218.05c-15.36,28.09-55.7,28.09-71.06,0L1637.21,682.9
		c-3.72-6.8-9.3-12.38-16.1-16.1l-218.05-119.26c-28.09-15.36-28.09-55.7,0-71.06l218.05-119.26c6.8-3.72,12.38-9.3,16.1-16.1
		l119.26-218.05C1771.83,94.98,1812.17,94.98,1827.53,123.07z"/>
	</g>
	<g class="logo-draft">
		<path d="M1827.53,123.07l119.26,218.05c3.72,6.8,9.3,12.38,16.1,16.1l218.05,119.26c28.09,15.36,28.09,55.7,0,71.06
		L1962.89,666.8c-6.79,3.72-12.38,9.3-16.1,16.1l-119.26,218.05c-15.36,28.09-55.7,28.09-71.06,0L1637.21,682.9
		c-3.72-6.8-9.3-12.38-16.1-16.1l-218.05-119.26c-28.09-15.36-28.09-55.7,0-71.06l218.05-119.26c6.8-3.72,12.38-9.3,16.1-16.1
		l119.26-218.05C1771.83,94.98,1812.17,94.98,1827.53,123.07z"/>
	</g>
	<g class="mnl">
		<line class="st2" x1="2304" y1="0" x2="1280" y2="1024"/>
		<line class="st2" x1="2304" y1="1024" x2="1280" y2="0"/>
		<line class="st2" x1="1792" y1="0" x2="1792" y2="1024"/>
		<line class="st2" x1="2304" y1="512" x2="1280" y2="512"/>
		<line class="st2" x1="1792" y1="0" x2="1792" y2="1024"/>
		<line class="st2" x1="2304" y1="512" x2="1280" y2="512"/>
		<line class="st2" x1="2304" y1="640" x2="1280" y2="640"/>
		<line class="st2" x1="2304" y1="768" x2="1280" y2="768"/>
		<line class="st2" x1="2304" y1="896" x2="1280" y2="896"/>
		<line class="st2" x1="2304" y1="384" x2="1280" y2="384"/>
		<line class="st2" x1="2304" y1="256" x2="1280" y2="256"/>
		<line class="st2" x1="2304" y1="128" x2="1280" y2="128"/>
		<line class="st2" x1="1792" y1="1024" x2="1792" y2="0"/>
		<line class="st2" x1="1792" y1="1024" x2="1792" y2="0"/>
		<line class="st2" x1="1664" y1="1024" x2="1664" y2="0"/>
		<line class="st2" x1="1536" y1="1024" x2="1536" y2="0"/>
		<line class="st2" x1="1408" y1="1024" x2="1408" y2="0"/>
		<line class="st2" x1="1920" y1="1024" x2="1920" y2="0"/>
		<line class="st2" x1="2048" y1="1024" x2="2048" y2="0"/>
		<line class="st2" x1="2176" y1="1024" x2="2176" y2="0"/>
		<circle class="st2" cx="1792" cy="512" r="410"/>
		<circle class="st2" cx="1792" cy="512" r="256"/>
	</g>
	<g class="mjl">
		<path d="M2304,651c0,14.24,0.01,28.48-0.08,42.73c-0.07,12-0.21,23.99-0.53,35.98c-0.71,26.13-2.25,52.49-6.89,78.34
		c-4.71,26.22-12.4,50.62-24.53,74.44c-11.92,23.41-27.49,44.84-46.07,63.41c-18.58,18.58-40,34.15-63.41,46.07
		c-23.82,12.12-48.22,19.82-74.44,24.53c-25.84,4.65-52.2,6.18-78.34,6.89c-11.99,0.33-23.99,0.46-35.98,0.53
		c-14.24,0.09-28.48,0.08-42.73,0.08h-278c-14.24,0-28.48,0.01-42.73-0.08c-12-0.07-23.99-0.21-35.98-0.53
		c-26.13-0.71-52.49-2.25-78.34-6.89c-26.22-4.71-50.62-12.4-74.44-24.53c-23.41-11.92-44.84-27.49-63.41-46.07
		c-18.58-18.58-34.15-40-46.07-63.41c-12.12-23.82-19.82-48.22-24.53-74.44c-4.65-25.84-6.18-52.2-6.89-78.34
		c-0.33-11.99-0.46-23.99-0.53-35.98c-0.09-14.24-0.08-28.48-0.08-42.73V373c0-14.24-0.01-28.48,0.08-42.73
		c0.07-12,0.21-23.99,0.53-35.98c0.71-26.13,2.25-52.49,6.89-78.34c4.71-26.22,12.4-50.62,24.53-74.44
		c11.92-23.41,27.49-44.84,46.07-63.41c18.58-18.58,40-34.15,63.41-46.07c23.82-12.12,48.22-19.82,74.44-24.53
		c25.84-4.65,52.2-6.18,78.34-6.89c11.99-0.33,23.99-0.46,35.98-0.53C1624.51-0.01,1638.75,0,1653,0h278
		c14.24,0,28.48-0.01,42.73,0.08c12,0.07,23.99,0.21,35.98,0.53c26.13,0.71,52.49,2.25,78.34,6.89
		c26.22,4.71,50.62,12.4,74.44,24.53c23.41,11.92,44.84,27.49,63.41,46.07s34.15,40,46.07,63.41
		c12.12,23.82,19.82,48.22,24.53,74.44c4.65,25.84,6.18,52.2,6.89,78.34c0.32,11.99,0.46,23.99,0.53,35.98
		c0.09,14.24,0.08,28.48,0.08,42.73V651z"/>
	</g>
</g>

<g class="main">
	<g class="logo">
		<path fill="url(#grad4)" d="M1024,3211c0,14.24,0.01,28.48-0.08,42.73c-0.07,12-0.21,23.99-0.53,35.98c-0.71,26.13-2.25,52.49-6.89,78.34
		c-4.71,26.22-12.4,50.62-24.53,74.44c-11.92,23.41-27.49,44.84-46.07,63.41c-18.58,18.58-40,34.15-63.41,46.07
		c-23.82,12.12-48.22,19.82-74.44,24.53c-25.84,4.65-52.2,6.18-78.34,6.89c-11.99,0.33-23.99,0.46-35.98,0.53
		c-14.24,0.09-28.48,0.08-42.73,0.08H373c-14.24,0-28.48,0.01-42.73-0.08c-12-0.07-23.99-0.21-35.98-0.53
		c-26.13-0.71-52.49-2.25-78.34-6.89c-26.22-4.71-50.62-12.4-74.44-24.53c-23.41-11.92-44.84-27.49-63.41-46.07
		s-34.15-40-46.07-63.41c-12.12-23.82-19.82-48.22-24.53-74.44c-4.65-25.84-6.18-52.2-6.89-78.34c-0.33-11.99-0.46-23.99-0.53-35.98
		C-0.01,3239.49,0,3225.25,0,3211v-278c0-14.24-0.01-28.48,0.08-42.73c0.07-12,0.21-23.99,0.53-35.98
		c0.71-26.13,2.25-52.49,6.89-78.34c4.71-26.22,12.4-50.62,24.53-74.44c11.92-23.41,27.49-44.84,46.07-63.41s40-34.15,63.41-46.07
		c23.82-12.12,48.22-19.82,74.44-24.53c25.84-4.65,52.2-6.18,78.34-6.89c11.99-0.32,23.99-0.46,35.98-0.53
		c14.24-0.09,28.48-0.08,42.73-0.08h278c14.24,0,28.48-0.01,42.73,0.08c12,0.07,23.99,0.21,35.98,0.53
		c26.13,0.71,52.49,2.25,78.34,6.89c26.22,4.71,50.62,12.4,74.44,24.53c23.41,11.92,44.84,27.49,63.41,46.07
		c18.58,18.58,34.15,40,46.07,63.41c12.12,23.82,19.82,48.22,24.53,74.44c4.65,25.84,6.18,52.2,6.89,78.34
		c0.33,11.99,0.46,23.99,0.53,35.98c0.09,14.24,0.08,28.48,0.08,42.73V3211z"/>
		<path d="M522.58,2668.27l35.5,64.91c1.11,2.02,2.77,3.69,4.79,4.79l64.91,35.5c8.36,4.57,8.36,16.58,0,21.16
		l-64.91,35.5c-2.02,1.11-3.69,2.77-4.79,4.79l-35.5,64.91c-4.57,8.36-16.58,8.36-21.16,0l-35.5-64.91
		c-1.11-2.02-2.77-3.69-4.79-4.79l-64.91-35.5c-8.36-4.57-8.36-16.58,0-21.16l64.91-35.5c2.02-1.11,3.69-2.77,4.79-4.79l35.5-64.91
		C506,2659.91,518,2659.91,522.58,2668.27z"/>
		<circle cx="512.01" cy="3103.67" r="95.39"/>
		<path d="M512,3456c-30.38,0-60.3-1.98-89.64-5.84c-38.25-111.64-90.87-209.76-158.51-293.94
		c-14.04-15.36-13-39.19,2.36-53.23s39.19-12.95,53.28,2.4c58.41,72.12,156.67,182.25,192.52,182.25
		c35.89,0,134.11-110.14,192.52-182.25c14.09-15.36,37.92-16.44,53.28-2.4c15.36,14.04,16.39,37.87,2.36,53.23
		c-67.6,84.18-120.26,182.3-158.51,293.94C572.3,3454.02,542.38,3456,512,3456z"/>
	</g>
	<g class="logo-draft">
		<path d="M522.58,2668.27l35.5,64.91c1.11,2.02,2.77,3.69,4.79,4.79l64.91,35.5c8.36,4.57,8.36,16.58,0,21.16
		l-64.91,35.5c-2.02,1.11-3.69,2.77-4.79,4.79l-35.5,64.91c-4.57,8.36-16.58,8.36-21.16,0l-35.5-64.91
		c-1.11-2.02-2.77-3.69-4.79-4.79l-64.91-35.5c-8.36-4.57-8.36-16.58,0-21.16l64.91-35.5c2.02-1.11,3.69-2.77,4.79-4.79l35.5-64.91
		C506,2659.91,518,2659.91,522.58,2668.27z"/>
		<circle cx="512.01" cy="3103.67" r="95.39"/>
		<path d="M512,3456c-30.38,0-60.3-1.98-89.64-5.84c-38.25-111.64-90.87-209.76-158.51-293.94
		c-14.04-15.36-13-39.19,2.36-53.23s39.19-12.95,53.28,2.4c58.41,72.12,156.67,182.25,192.52,182.25
		c35.89,0,134.11-110.14,192.52-182.25c14.09-15.36,37.92-16.44,53.28-2.4c15.36,14.04,16.39,37.87,2.36,53.23
		c-67.6,84.18-120.26,182.3-158.51,293.94C572.3,3454.02,542.38,3456,512,3456z"/>
	</g>
	<g class="mnl">
		<line class="st2" x1="1024" y1="2560" x2="0" y2="3584"/>
		<line class="st2" x1="1024" y1="3584" x2="0" y2="2560"/>
		<line class="st2" x1="512" y1="2560" x2="512" y2="3584"/>
		<line class="st2" x1="1024" y1="3072" x2="0" y2="3072"/>
		<line class="st2" x1="512" y1="2560" x2="512" y2="3584"/>
		<line class="st2" x1="1024" y1="3072" x2="0" y2="3072"/>
		<line class="st2" x1="1024" y1="3200" x2="0" y2="3200"/>
		<line class="st2" x1="1024" y1="3328" x2="0" y2="3328"/>
		<line class="st2" x1="1024" y1="3456" x2="0" y2="3456"/>
		<line class="st2" x1="1024" y1="2944" x2="0" y2="2944"/>
		<line class="st2" x1="1024" y1="2816" x2="0" y2="2816"/>
		<line class="st2" x1="1024" y1="2688" x2="0" y2="2688"/>
		<line class="st2" x1="512" y1="3584" x2="512" y2="2560"/>
		<line class="st2" x1="512" y1="3584" x2="512" y2="2560"/>
		<line class="st2" x1="384" y1="3584" x2="384" y2="2560"/>
		<line class="st2" x1="256" y1="3584" x2="256" y2="2560"/>
		<line class="st2" x1="128" y1="3584" x2="128" y2="2560"/>
		<line class="st2" x1="640" y1="3584" x2="640" y2="2560"/>
		<line class="st2" x1="768" y1="3584" x2="768" y2="2560"/>
		<line class="st2" x1="896" y1="3584" x2="896" y2="2560"/>
		<circle class="st2" cx="512" cy="3072" r="410"/>
		<circle class="st2" cx="512" cy="3072" r="256"/>
	</g>
	<g class="mjl">
		<path d="M1024,3211c0,14.24,0.01,28.48-0.08,42.73c-0.07,12-0.21,23.99-0.53,35.98c-0.71,26.13-2.25,52.49-6.89,78.34
		c-4.71,26.22-12.4,50.62-24.53,74.44c-11.92,23.41-27.49,44.84-46.07,63.41c-18.58,18.58-40,34.15-63.41,46.07
		c-23.82,12.12-48.22,19.82-74.44,24.53c-25.84,4.65-52.2,6.18-78.34,6.89c-11.99,0.33-23.99,0.46-35.98,0.53
		c-14.24,0.09-28.48,0.08-42.73,0.08H373c-14.24,0-28.48,0.01-42.73-0.08c-12-0.07-23.99-0.21-35.98-0.53
		c-26.13-0.71-52.49-2.25-78.34-6.89c-26.22-4.71-50.62-12.4-74.44-24.53c-23.41-11.92-44.84-27.49-63.41-46.07
		s-34.15-40-46.07-63.41c-12.12-23.82-19.82-48.22-24.53-74.44c-4.65-25.84-6.18-52.2-6.89-78.34c-0.33-11.99-0.46-23.99-0.53-35.98
		C-0.01,3239.49,0,3225.25,0,3211v-278c0-14.24-0.01-28.48,0.08-42.73c0.07-12,0.21-23.99,0.53-35.98
		c0.71-26.13,2.25-52.49,6.89-78.34c4.71-26.22,12.4-50.62,24.53-74.44c11.92-23.41,27.49-44.84,46.07-63.41s40-34.15,63.41-46.07
		c23.82-12.12,48.22-19.82,74.44-24.53c25.84-4.65,52.2-6.18,78.34-6.89c11.99-0.32,23.99-0.46,35.98-0.53
		c14.24-0.09,28.48-0.08,42.73-0.08h278c14.24,0,28.48-0.01,42.73,0.08c12,0.07,23.99,0.21,35.98,0.53
		c26.13,0.71,52.49,2.25,78.34,6.89c26.22,4.71,50.62,12.4,74.44,24.53c23.41,11.92,44.84,27.49,63.41,46.07
		c18.58,18.58,34.15,40,46.07,63.41c12.12,23.82,19.82,48.22,24.53,74.44c4.65,25.84,6.18,52.2,6.89,78.34
		c0.33,11.99,0.46,23.99,0.53,35.98c0.09,14.24,0.08,28.48,0.08,42.73V3211z"/>
	</g>
</g>

<g class="main">
	<g class="logo">
		<path fill="url(#grad5-base)" d="M2304,1931c0,14.24,0.01,28.48-0.08,42.73c-0.07,12-0.21,23.99-0.53,35.98c-0.71,26.13-2.25,52.49-6.89,78.34
		c-4.71,26.22-12.4,50.62-24.53,74.44c-11.92,23.41-27.49,44.84-46.07,63.41s-40,34.15-63.41,46.07
		c-23.82,12.12-48.22,19.82-74.44,24.53c-25.84,4.65-52.2,6.18-78.34,6.89c-11.99,0.33-23.99,0.46-35.98,0.53
		c-14.24,0.09-28.48,0.08-42.73,0.08h-278c-14.24,0-28.48,0.01-42.73-0.08c-12-0.07-23.99-0.21-35.98-0.53
		c-26.13-0.71-52.49-2.25-78.34-6.89c-26.22-4.71-50.62-12.4-74.44-24.53c-23.41-11.92-44.84-27.49-63.41-46.07
		c-18.58-18.58-34.15-40-46.07-63.41c-12.12-23.82-19.82-48.22-24.53-74.44c-4.65-25.84-6.18-52.2-6.89-78.34
		c-0.33-11.99-0.46-23.99-0.53-35.98c-0.09-14.24-0.08-28.48-0.08-42.73v-278c0-14.24-0.01-28.48,0.08-42.73
		c0.07-12,0.21-23.99,0.53-35.98c0.71-26.13,2.25-52.49,6.89-78.34c4.71-26.22,12.4-50.62,24.53-74.44
		c11.92-23.41,27.49-44.84,46.07-63.41c18.58-18.58,40-34.15,63.41-46.07c23.82-12.12,48.22-19.82,74.44-24.53
		c25.84-4.65,52.2-6.18,78.34-6.89c11.99-0.33,23.99-0.46,35.98-0.53c14.24-0.09,28.48-0.08,42.73-0.08h278
		c14.24,0,28.48-0.01,42.73,0.08c12,0.07,23.99,0.21,35.98,0.53c26.13,0.71,52.49,2.25,78.34,6.89
		c26.22,4.71,50.62,12.4,74.44,24.53c23.41,11.92,44.84,27.49,63.41,46.07c18.58,18.58,34.15,40,46.07,63.41
		c12.12,23.82,19.82,48.22,24.53,74.44c4.65,25.84,6.18,52.2,6.89,78.34c0.32,11.99,0.46,23.99,0.53,35.98
		c0.09,14.24,0.08,28.48,0.08,42.73V1931z"/>
		<path fill="url(#grad5-rad1)" d="M2304,1931c0,14.24,0.01,28.48-0.08,42.73c-0.07,12-0.21,23.99-0.53,35.98c-0.71,26.13-2.25,52.49-6.89,78.34
		c-4.71,26.22-12.4,50.62-24.53,74.44c-11.92,23.41-27.49,44.84-46.07,63.41s-40,34.15-63.41,46.07
		c-23.82,12.12-48.22,19.82-74.44,24.53c-25.84,4.65-52.2,6.18-78.34,6.89c-11.99,0.33-23.99,0.46-35.98,0.53
		c-14.24,0.09-28.48,0.08-42.73,0.08h-278c-14.24,0-28.48,0.01-42.73-0.08c-12-0.07-23.99-0.21-35.98-0.53
		c-26.13-0.71-52.49-2.25-78.34-6.89c-26.22-4.71-50.62-12.4-74.44-24.53c-23.41-11.92-44.84-27.49-63.41-46.07
		c-18.58-18.58-34.15-40-46.07-63.41c-12.12-23.82-19.82-48.22-24.53-74.44c-4.65-25.84-6.18-52.2-6.89-78.34
		c-0.33-11.99-0.46-23.99-0.53-35.98c-0.09-14.24-0.08-28.48-0.08-42.73v-278c0-14.24-0.01-28.48,0.08-42.73
		c0.07-12,0.21-23.99,0.53-35.98c0.71-26.13,2.25-52.49,6.89-78.34c4.71-26.22,12.4-50.62,24.53-74.44
		c11.92-23.41,27.49-44.84,46.07-63.41c18.58-18.58,40-34.15,63.41-46.07c23.82-12.12,48.22-19.82,74.44-24.53
		c25.84-4.65,52.2-6.18,78.34-6.89c11.99-0.33,23.99-0.46,35.98-0.53c14.24-0.09,28.48-0.08,42.73-0.08h278
		c14.24,0,28.48-0.01,42.73,0.08c12,0.07,23.99,0.21,35.98,0.53c26.13,0.71,52.49,2.25,78.34,6.89
		c26.22,4.71,50.62,12.4,74.44,24.53c23.41,11.92,44.84,27.49,63.41,46.07c18.58,18.58,34.15,40,46.07,63.41
		c12.12,23.82,19.82,48.22,24.53,74.44c4.65,25.84,6.18,52.2,6.89,78.34c0.32,11.99,0.46,23.99,0.53,35.98
		c0.09,14.24,0.08,28.48,0.08,42.73V1931z"/>
		<path fill="url(#grad5-rad2)" d="M2304,1931c0,14.24,0.01,28.48-0.08,42.73c-0.07,12-0.21,23.99-0.53,35.98c-0.71,26.13-2.25,52.49-6.89,78.34
		c-4.71,26.22-12.4,50.62-24.53,74.44c-11.92,23.41-27.49,44.84-46.07,63.41s-40,34.15-63.41,46.07
		c-23.82,12.12-48.22,19.82-74.44,24.53c-25.84,4.65-52.2,6.18-78.34,6.89c-11.99,0.33-23.99,0.46-35.98,0.53
		c-14.24,0.09-28.48,0.08-42.73,0.08h-278c-14.24,0-28.48,0.01-42.73-0.08c-12-0.07-23.99-0.21-35.98-0.53
		c-26.13-0.71-52.49-2.25-78.34-6.89c-26.22-4.71-50.62-12.4-74.44-24.53c-23.41-11.92-44.84-27.49-63.41-46.07
		c-18.58-18.58-34.15-40-46.07-63.41c-12.12-23.82-19.82-48.22-24.53-74.44c-4.65-25.84-6.18-52.2-6.89-78.34
		c-0.33-11.99-0.46-23.99-0.53-35.98c-0.09-14.24-0.08-28.48-0.08-42.73v-278c0-14.24-0.01-28.48,0.08-42.73
		c0.07-12,0.21-23.99,0.53-35.98c0.71-26.13,2.25-52.49,6.89-78.34c4.71-26.22,12.4-50.62,24.53-74.44
		c11.92-23.41,27.49-44.84,46.07-63.41c18.58-18.58,40-34.15,63.41-46.07c23.82-12.12,48.22-19.82,74.44-24.53
		c25.84-4.65,52.2-6.18,78.34-6.89c11.99-0.33,23.99-0.46,35.98-0.53c14.24-0.09,28.48-0.08,42.73-0.08h278
		c14.24,0,28.48-0.01,42.73,0.08c12,0.07,23.99,0.21,35.98,0.53c26.13,0.71,52.49,2.25,78.34,6.89
		c26.22,4.71,50.62,12.4,74.44,24.53c23.41,11.92,44.84,27.49,63.41,46.07c18.58,18.58,34.15,40,46.07,63.41
		c12.12,23.82,19.82,48.22,24.53,74.44c4.65,25.84,6.18,52.2,6.89,78.34c0.32,11.99,0.46,23.99,0.53,35.98
		c0.09,14.24,0.08,28.48,0.08,42.73V1931z"/>
		<path d="M1802.58,1388.27l35.5,64.91c1.11,2.02,2.77,3.69,4.79,4.79l64.91,35.5c8.36,4.57,8.36,16.58,0,21.16
		l-64.91,35.5c-2.02,1.11-3.69,2.77-4.79,4.79l-35.5,64.91c-4.57,8.36-16.58,8.36-21.16,0l-35.5-64.91
		c-1.11-2.02-2.77-3.69-4.79-4.79l-64.91-35.5c-8.36-4.57-8.36-16.58,0-21.16l64.91-35.5c2.02-1.11,3.69-2.77,4.79-4.79l35.5-64.91
		C1786,1379.91,1798,1379.91,1802.58,1388.27z"/>
		<circle cx="1792.01" cy="1823.67" r="95.39"/>
		<path d="M1792,2176c-30.38,0-60.3-1.98-89.64-5.84c-38.25-111.64-90.87-209.76-158.51-293.94
		c-14.04-15.36-13-39.19,2.36-53.23s39.19-12.95,53.28,2.4c58.41,72.12,156.67,182.25,192.52,182.25
		c35.89,0,134.11-110.14,192.52-182.25c14.09-15.36,37.92-16.44,53.28-2.4s16.39,37.87,2.36,53.23
		c-67.6,84.18-120.26,182.3-158.51,293.94C1852.3,2174.02,1822.38,2176,1792,2176z"/>
	</g>
	<g class="logo-draft">
		<path d="M1802.58,1388.27l35.5,64.91c1.11,2.02,2.77,3.69,4.79,4.79l64.91,35.5c8.36,4.57,8.36,16.58,0,21.16
		l-64.91,35.5c-2.02,1.11-3.69,2.77-4.79,4.79l-35.5,64.91c-4.57,8.36-16.58,8.36-21.16,0l-35.5-64.91
		c-1.11-2.02-2.77-3.69-4.79-4.79l-64.91-35.5c-8.36-4.57-8.36-16.58,0-21.16l64.91-35.5c2.02-1.11,3.69-2.77,4.79-4.79l35.5-64.91
		C1786,1379.91,1798,1379.91,1802.58,1388.27z"/>
		<circle cx="1792.01" cy="1823.67" r="95.39"/>
		<path d="M1792,2176c-30.38,0-60.3-1.98-89.64-5.84c-38.25-111.64-90.87-209.76-158.51-293.94
		c-14.04-15.36-13-39.19,2.36-53.23s39.19-12.95,53.28,2.4c58.41,72.12,156.67,182.25,192.52,182.25
		c35.89,0,134.11-110.14,192.52-182.25c14.09-15.36,37.92-16.44,53.28-2.4s16.39,37.87,2.36,53.23
		c-67.6,84.18-120.26,182.3-158.51,293.94C1852.3,2174.02,1822.38,2176,1792,2176z"/>
	</g>
	<g class="mnl">
		<line class="st2" x1="2304" y1="1280" x2="1280" y2="2304"/>
		<line class="st2" x1="2304" y1="2304" x2="1280" y2="1280"/>
		<line class="st2" x1="1792" y1="1280" x2="1792" y2="2304"/>
		<line class="st2" x1="2304" y1="1792" x2="1280" y2="1792"/>
		<line class="st2" x1="1792" y1="1280" x2="1792" y2="2304"/>
		<line class="st2" x1="2304" y1="1792" x2="1280" y2="1792"/>
		<line class="st2" x1="2304" y1="1920" x2="1280" y2="1920"/>
		<line class="st2" x1="2304" y1="2048" x2="1280" y2="2048"/>
		<line class="st2" x1="2304" y1="2176" x2="1280" y2="2176"/>
		<line class="st2" x1="2304" y1="1664" x2="1280" y2="1664"/>
		<line class="st2" x1="2304" y1="1536" x2="1280" y2="1536"/>
		<line class="st2" x1="2304" y1="1408" x2="1280" y2="1408"/>
		<line class="st2" x1="1792" y1="2304" x2="1792" y2="1280"/>
		<line class="st2" x1="1792" y1="2304" x2="1792" y2="1280"/>
		<line class="st2" x1="1664" y1="2304" x2="1664" y2="1280"/>
		<line class="st2" x1="1536" y1="2304" x2="1536" y2="1280"/>
		<line class="st2" x1="1408" y1="2304" x2="1408" y2="1280"/>
		<line class="st2" x1="1920" y1="2304" x2="1920" y2="1280"/>
		<line class="st2" x1="2048" y1="2304" x2="2048" y2="1280"/>
		<line class="st2" x1="2176" y1="2304" x2="2176" y2="1280"/>
		<circle class="st2" cx="1792" cy="1792" r="410"/>
		<circle class="st2" cx="1792" cy="1792" r="256"/>
	</g>
	<g class="mjl">
		<path d="M2304,1931c0,14.24,0.01,28.48-0.08,42.73c-0.07,12-0.21,23.99-0.53,35.98c-0.71,26.13-2.25,52.49-6.89,78.34
		c-4.71,26.22-12.4,50.62-24.53,74.44c-11.92,23.41-27.49,44.84-46.07,63.41s-40,34.15-63.41,46.07
		c-23.82,12.12-48.22,19.82-74.44,24.53c-25.84,4.65-52.2,6.18-78.34,6.89c-11.99,0.33-23.99,0.46-35.98,0.53
		c-14.24,0.09-28.48,0.08-42.73,0.08h-278c-14.24,0-28.48,0.01-42.73-0.08c-12-0.07-23.99-0.21-35.98-0.53
		c-26.13-0.71-52.49-2.25-78.34-6.89c-26.22-4.71-50.62-12.4-74.44-24.53c-23.41-11.92-44.84-27.49-63.41-46.07
		c-18.58-18.58-34.15-40-46.07-63.41c-12.12-23.82-19.82-48.22-24.53-74.44c-4.65-25.84-6.18-52.2-6.89-78.34
		c-0.33-11.99-0.46-23.99-0.53-35.98c-0.09-14.24-0.08-28.48-0.08-42.73v-278c0-14.24-0.01-28.48,0.08-42.73
		c0.07-12,0.21-23.99,0.53-35.98c0.71-26.13,2.25-52.49,6.89-78.34c4.71-26.22,12.4-50.62,24.53-74.44
		c11.92-23.41,27.49-44.84,46.07-63.41c18.58-18.58,40-34.15,63.41-46.07c23.82-12.12,48.22-19.82,74.44-24.53
		c25.84-4.65,52.2-6.18,78.34-6.89c11.99-0.33,23.99-0.46,35.98-0.53c14.24-0.09,28.48-0.08,42.73-0.08h278
		c14.24,0,28.48-0.01,42.73,0.08c12,0.07,23.99,0.21,35.98,0.53c26.13,0.71,52.49,2.25,78.34,6.89
		c26.22,4.71,50.62,12.4,74.44,24.53c23.41,11.92,44.84,27.49,63.41,46.07c18.58,18.58,34.15,40,46.07,63.41
		c12.12,23.82,19.82,48.22,24.53,74.44c4.65,25.84,6.18,52.2,6.89,78.34c0.32,11.99,0.46,23.99,0.53,35.98
		c0.09,14.24,0.08,28.48,0.08,42.73V1931z"/>
	</g>
</g>

<g class="main">
	<g class="logo">
		<path fill="url(#grad6-base)" d="M3584,3211c0,14.24,0.01,28.48-0.08,42.73c-0.07,12-0.21,23.99-0.53,35.98c-0.71,26.13-2.25,52.49-6.89,78.34
		c-4.71,26.22-12.4,50.62-24.53,74.44c-11.92,23.41-27.49,44.84-46.07,63.41s-40,34.15-63.41,46.07
		c-23.82,12.12-48.22,19.82-74.44,24.53c-25.84,4.65-52.2,6.18-78.34,6.89c-11.99,0.33-23.99,0.46-35.98,0.53
		c-14.24,0.09-28.48,0.08-42.73,0.08h-278c-14.24,0-28.48,0.01-42.73-0.08c-12-0.07-23.99-0.21-35.98-0.53
		c-26.13-0.71-52.49-2.25-78.34-6.89c-26.22-4.71-50.62-12.4-74.44-24.53c-23.41-11.92-44.84-27.49-63.41-46.07
		s-34.15-40-46.07-63.41c-12.12-23.82-19.82-48.22-24.53-74.44c-4.65-25.84-6.18-52.2-6.89-78.34c-0.32-11.99-0.46-23.99-0.53-35.98
		c-0.09-14.24-0.08-28.48-0.08-42.73v-278c0-14.24-0.01-28.48,0.08-42.73c0.07-12,0.21-23.99,0.53-35.98
		c0.71-26.13,2.25-52.49,6.89-78.34c4.71-26.22,12.4-50.62,24.53-74.44c11.92-23.41,27.49-44.84,46.07-63.41s40-34.15,63.41-46.07
		c23.82-12.12,48.22-19.82,74.44-24.53c25.84-4.65,52.2-6.18,78.34-6.89c11.99-0.32,23.99-0.46,35.98-0.53
		c14.24-0.09,28.48-0.08,42.73-0.08h278c14.24,0,28.48-0.01,42.73,0.08c12,0.07,23.99,0.21,35.98,0.53
		c26.13,0.71,52.49,2.25,78.34,6.89c26.22,4.71,50.62,12.4,74.44,24.53c23.41,11.92,44.84,27.49,63.41,46.07s34.15,40,46.07,63.41
		c12.12,23.82,19.82,48.22,24.53,74.44c4.65,25.84,6.18,52.2,6.89,78.34c0.32,11.99,0.46,23.99,0.53,35.98
		c0.09,14.24,0.08,28.48,0.08,42.73V3211z"/>
		<path fill="url(#grad6-rad1)" d="M3584,3211c0,14.24,0.01,28.48-0.08,42.73c-0.07,12-0.21,23.99-0.53,35.98c-0.71,26.13-2.25,52.49-6.89,78.34
		c-4.71,26.22-12.4,50.62-24.53,74.44c-11.92,23.41-27.49,44.84-46.07,63.41s-40,34.15-63.41,46.07
		c-23.82,12.12-48.22,19.82-74.44,24.53c-25.84,4.65-52.2,6.18-78.34,6.89c-11.99,0.33-23.99,0.46-35.98,0.53
		c-14.24,0.09-28.48,0.08-42.73,0.08h-278c-14.24,0-28.48,0.01-42.73-0.08c-12-0.07-23.99-0.21-35.98-0.53
		c-26.13-0.71-52.49-2.25-78.34-6.89c-26.22-4.71-50.62-12.4-74.44-24.53c-23.41-11.92-44.84-27.49-63.41-46.07
		s-34.15-40-46.07-63.41c-12.12-23.82-19.82-48.22-24.53-74.44c-4.65-25.84-6.18-52.2-6.89-78.34c-0.32-11.99-0.46-23.99-0.53-35.98
		c-0.09-14.24-0.08-28.48-0.08-42.73v-278c0-14.24-0.01-28.48,0.08-42.73c0.07-12,0.21-23.99,0.53-35.98
		c0.71-26.13,2.25-52.49,6.89-78.34c4.71-26.22,12.4-50.62,24.53-74.44c11.92-23.41,27.49-44.84,46.07-63.41s40-34.15,63.41-46.07
		c23.82-12.12,48.22-19.82,74.44-24.53c25.84-4.65,52.2-6.18,78.34-6.89c11.99-0.32,23.99-0.46,35.98-0.53
		c14.24-0.09,28.48-0.08,42.73-0.08h278c14.24,0,28.48-0.01,42.73,0.08c12,0.07,23.99,0.21,35.98,0.53
		c26.13,0.71,52.49,2.25,78.34,6.89c26.22,4.71,50.62,12.4,74.44,24.53c23.41,11.92,44.84,27.49,63.41,46.07s34.15,40,46.07,63.41
		c12.12,23.82,19.82,48.22,24.53,74.44c4.65,25.84,6.18,52.2,6.89,78.34c0.32,11.99,0.46,23.99,0.53,35.98
		c0.09,14.24,0.08,28.48,0.08,42.73V3211z"/>
		<path fill="url(#grad6-rad2)" d="M3584,3211c0,14.24,0.01,28.48-0.08,42.73c-0.07,12-0.21,23.99-0.53,35.98c-0.71,26.13-2.25,52.49-6.89,78.34
		c-4.71,26.22-12.4,50.62-24.53,74.44c-11.92,23.41-27.49,44.84-46.07,63.41s-40,34.15-63.41,46.07
		c-23.82,12.12-48.22,19.82-74.44,24.53c-25.84,4.65-52.2,6.18-78.34,6.89c-11.99,0.33-23.99,0.46-35.98,0.53
		c-14.24,0.09-28.48,0.08-42.73,0.08h-278c-14.24,0-28.48,0.01-42.73-0.08c-12-0.07-23.99-0.21-35.98-0.53
		c-26.13-0.71-52.49-2.25-78.34-6.89c-26.22-4.71-50.62-12.4-74.44-24.53c-23.41-11.92-44.84-27.49-63.41-46.07
		s-34.15-40-46.07-63.41c-12.12-23.82-19.82-48.22-24.53-74.44c-4.65-25.84-6.18-52.2-6.89-78.34c-0.32-11.99-0.46-23.99-0.53-35.98
		c-0.09-14.24-0.08-28.48-0.08-42.73v-278c0-14.24-0.01-28.48,0.08-42.73c0.07-12,0.21-23.99,0.53-35.98
		c0.71-26.13,2.25-52.49,6.89-78.34c4.71-26.22,12.4-50.62,24.53-74.44c11.92-23.41,27.49-44.84,46.07-63.41s40-34.15,63.41-46.07
		c23.82-12.12,48.22-19.82,74.44-24.53c25.84-4.65,52.2-6.18,78.34-6.89c11.99-0.32,23.99-0.46,35.98-0.53
		c14.24-0.09,28.48-0.08,42.73-0.08h278c14.24,0,28.48-0.01,42.73,0.08c12,0.07,23.99,0.21,35.98,0.53
		c26.13,0.71,52.49,2.25,78.34,6.89c26.22,4.71,50.62,12.4,74.44,24.53c23.41,11.92,44.84,27.49,63.41,46.07s34.15,40,46.07,63.41
		c12.12,23.82,19.82,48.22,24.53,74.44c4.65,25.84,6.18,52.2,6.89,78.34c0.32,11.99,0.46,23.99,0.53,35.98
		c0.09,14.24,0.08,28.48,0.08,42.73V3211z"/>
		<path d="M3082.58,2668.27l35.5,64.91c1.11,2.02,2.77,3.69,4.79,4.79l64.91,35.5c8.36,4.57,8.36,16.58,0,21.16
		l-64.91,35.5c-2.02,1.11-3.69,2.77-4.79,4.79l-35.5,64.91c-4.57,8.36-16.58,8.36-21.16,0l-35.5-64.91
		c-1.11-2.02-2.77-3.69-4.79-4.79l-64.91-35.5c-8.36-4.57-8.36-16.58,0-21.16l64.91-35.5c2.02-1.11,3.69-2.77,4.79-4.79l35.5-64.91
		C3066,2659.91,3078,2659.91,3082.58,2668.27z"/>
		<circle cx="3072.01" cy="3103.67" r="95.39"/>
		<path d="M3072,3456c-30.38,0-60.3-1.98-89.64-5.84c-38.25-111.64-90.87-209.76-158.51-293.94
		c-14.04-15.36-13-39.19,2.36-53.23s39.19-12.95,53.28,2.4c58.41,72.12,156.67,182.25,192.52,182.25
		c35.89,0,134.11-110.14,192.52-182.25c14.09-15.36,37.92-16.44,53.28-2.4s16.39,37.87,2.36,53.23
		c-67.6,84.18-120.26,182.3-158.51,293.94C3132.3,3454.02,3102.38,3456,3072,3456z"/>
	</g>
	<g class="logo-draft">
		<path d="M3082.58,2668.27l35.5,64.91c1.11,2.02,2.77,3.69,4.79,4.79l64.91,35.5c8.36,4.57,8.36,16.58,0,21.16
		l-64.91,35.5c-2.02,1.11-3.69,2.77-4.79,4.79l-35.5,64.91c-4.57,8.36-16.58,8.36-21.16,0l-35.5-64.91
		c-1.11-2.02-2.77-3.69-4.79-4.79l-64.91-35.5c-8.36-4.57-8.36-16.58,0-21.16l64.91-35.5c2.02-1.11,3.69-2.77,4.79-4.79l35.5-64.91
		C3066,2659.91,3078,2659.91,3082.58,2668.27z"/>
		<circle cx="3072.01" cy="3103.67" r="95.39"/>
		<path d="M3072,3456c-30.38,0-60.3-1.98-89.64-5.84c-38.25-111.64-90.87-209.76-158.51-293.94
		c-14.04-15.36-13-39.19,2.36-53.23s39.19-12.95,53.28,2.4c58.41,72.12,156.67,182.25,192.52,182.25
		c35.89,0,134.11-110.14,192.52-182.25c14.09-15.36,37.92-16.44,53.28-2.4s16.39,37.87,2.36,53.23
		c-67.6,84.18-120.26,182.3-158.51,293.94C3132.3,3454.02,3102.38,3456,3072,3456z"/>
	</g>
	<g class="mnl">
		<line class="st2" x1="3584" y1="2560" x2="2560" y2="3584"/>
		<line class="st2" x1="3584" y1="3584" x2="2560" y2="2560"/>
		<line class="st2" x1="3072" y1="2560" x2="3072" y2="3584"/>
		<line class="st2" x1="3584" y1="3072" x2="2560" y2="3072"/>
		<line class="st2" x1="3072" y1="2560" x2="3072" y2="3584"/>
		<line class="st2" x1="3584" y1="3072" x2="2560" y2="3072"/>
		<line class="st2" x1="3584" y1="3200" x2="2560" y2="3200"/>
		<line class="st2" x1="3584" y1="3328" x2="2560" y2="3328"/>
		<line class="st2" x1="3584" y1="3456" x2="2560" y2="3456"/>
		<line class="st2" x1="3584" y1="2944" x2="2560" y2="2944"/>
		<line class="st2" x1="3584" y1="2816" x2="2560" y2="2816"/>
		<line class="st2" x1="3584" y1="2688" x2="2560" y2="2688"/>
		<line class="st2" x1="3072" y1="3584" x2="3072" y2="2560"/>
		<line class="st2" x1="3072" y1="3584" x2="3072" y2="2560"/>
		<line class="st2" x1="2944" y1="3584" x2="2944" y2="2560"/>
		<line class="st2" x1="2816" y1="3584" x2="2816" y2="2560"/>
		<line class="st2" x1="2688" y1="3584" x2="2688" y2="2560"/>
		<line class="st2" x1="3200" y1="3584" x2="3200" y2="2560"/>
		<line class="st2" x1="3328" y1="3584" x2="3328" y2="2560"/>
		<line class="st2" x1="3456" y1="3584" x2="3456" y2="2560"/>
		<circle class="st2" cx="3072" cy="3072" r="410"/>
		<circle class="st2" cx="3072" cy="3072" r="256"/>
	</g>
	<g class="mjl">
		<path d="M3584,3211c0,14.24,0.01,28.48-0.08,42.73c-0.07,12-0.21,23.99-0.53,35.98c-0.71,26.13-2.25,52.49-6.89,78.34
		c-4.71,26.22-12.4,50.62-24.53,74.44c-11.92,23.41-27.49,44.84-46.07,63.41s-40,34.15-63.41,46.07
		c-23.82,12.12-48.22,19.82-74.44,24.53c-25.84,4.65-52.2,6.18-78.34,6.89c-11.99,0.33-23.99,0.46-35.98,0.53
		c-14.24,0.09-28.48,0.08-42.73,0.08h-278c-14.24,0-28.48,0.01-42.73-0.08c-12-0.07-23.99-0.21-35.98-0.53
		c-26.13-0.71-52.49-2.25-78.34-6.89c-26.22-4.71-50.62-12.4-74.44-24.53c-23.41-11.92-44.84-27.49-63.41-46.07
		s-34.15-40-46.07-63.41c-12.12-23.82-19.82-48.22-24.53-74.44c-4.65-25.84-6.18-52.2-6.89-78.34c-0.32-11.99-0.46-23.99-0.53-35.98
		c-0.09-14.24-0.08-28.48-0.08-42.73v-278c0-14.24-0.01-28.48,0.08-42.73c0.07-12,0.21-23.99,0.53-35.98
		c0.71-26.13,2.25-52.49,6.89-78.34c4.71-26.22,12.4-50.62,24.53-74.44c11.92-23.41,27.49-44.84,46.07-63.41s40-34.15,63.41-46.07
		c23.82-12.12,48.22-19.82,74.44-24.53c25.84-4.65,52.2-6.18,78.34-6.89c11.99-0.32,23.99-0.46,35.98-0.53
		c14.24-0.09,28.48-0.08,42.73-0.08h278c14.24,0,28.48-0.01,42.73,0.08c12,0.07,23.99,0.21,35.98,0.53
		c26.13,0.71,52.49,2.25,78.34,6.89c26.22,4.71,50.62,12.4,74.44,24.53c23.41,11.92,44.84,27.49,63.41,46.07s34.15,40,46.07,63.41
		c12.12,23.82,19.82,48.22,24.53,74.44c4.65,25.84,6.18,52.2,6.89,78.34c0.32,11.99,0.46,23.99,0.53,35.98
		c0.09,14.24,0.08,28.48,0.08,42.73V3211z"/>
	</g>
</g>

<g class="main">
	<g class="logo">
		<path fill="url(#grad7-base)" d="M2304,3211c0,14.24,0.01,28.48-0.08,42.73c-0.07,12-0.21,23.99-0.53,35.98c-0.71,26.13-2.25,52.49-6.89,78.34
		c-4.71,26.22-12.4,50.62-24.53,74.44c-11.92,23.41-27.49,44.84-46.07,63.41s-40,34.15-63.41,46.07
		c-23.82,12.12-48.22,19.82-74.44,24.53c-25.84,4.65-52.2,6.18-78.34,6.89c-11.99,0.33-23.99,0.46-35.98,0.53
		c-14.24,0.09-28.48,0.08-42.73,0.08h-278c-14.24,0-28.48,0.01-42.73-0.08c-12-0.07-23.99-0.21-35.98-0.53
		c-26.13-0.71-52.49-2.25-78.34-6.89c-26.22-4.71-50.62-12.4-74.44-24.53c-23.41-11.92-44.84-27.49-63.41-46.07
		c-18.58-18.58-34.15-40-46.07-63.41c-12.12-23.82-19.82-48.22-24.53-74.44c-4.65-25.84-6.18-52.2-6.89-78.34
		c-0.33-11.99-0.46-23.99-0.53-35.98c-0.09-14.24-0.08-28.48-0.08-42.73v-278c0-14.24-0.01-28.48,0.08-42.73
		c0.07-12,0.21-23.99,0.53-35.98c0.71-26.13,2.25-52.49,6.89-78.34c4.71-26.22,12.4-50.62,24.53-74.44
		c11.92-23.41,27.49-44.84,46.07-63.41c18.58-18.58,40-34.15,63.41-46.07c23.82-12.12,48.22-19.82,74.44-24.53
		c25.84-4.65,52.2-6.18,78.34-6.89c11.99-0.32,23.99-0.46,35.98-0.53c14.24-0.09,28.48-0.08,42.73-0.08h278
		c14.24,0,28.48-0.01,42.73,0.08c12,0.07,23.99,0.21,35.98,0.53c26.13,0.71,52.49,2.25,78.34,6.89
		c26.22,4.71,50.62,12.4,74.44,24.53c23.41,11.92,44.84,27.49,63.41,46.07s34.15,40,46.07,63.41
		c12.12,23.82,19.82,48.22,24.53,74.44c4.65,25.84,6.18,52.2,6.89,78.34c0.32,11.99,0.46,23.99,0.53,35.98
		c0.09,14.24,0.08,28.48,0.08,42.73V3211z"/>
		<path fill="url(#grad7-rad1)" d="M2304,3211c0,14.24,0.01,28.48-0.08,42.73c-0.07,12-0.21,23.99-0.53,35.98c-0.71,26.13-2.25,52.49-6.89,78.34
		c-4.71,26.22-12.4,50.62-24.53,74.44c-11.92,23.41-27.49,44.84-46.07,63.41s-40,34.15-63.41,46.07
		c-23.82,12.12-48.22,19.82-74.44,24.53c-25.84,4.65-52.2,6.18-78.34,6.89c-11.99,0.33-23.99,0.46-35.98,0.53
		c-14.24,0.09-28.48,0.08-42.73,0.08h-278c-14.24,0-28.48,0.01-42.73-0.08c-12-0.07-23.99-0.21-35.98-0.53
		c-26.13-0.71-52.49-2.25-78.34-6.89c-26.22-4.71-50.62-12.4-74.44-24.53c-23.41-11.92-44.84-27.49-63.41-46.07
		c-18.58-18.58-34.15-40-46.07-63.41c-12.12-23.82-19.82-48.22-24.53-74.44c-4.65-25.84-6.18-52.2-6.89-78.34
		c-0.33-11.99-0.46-23.99-0.53-35.98c-0.09-14.24-0.08-28.48-0.08-42.73v-278c0-14.24-0.01-28.48,0.08-42.73
		c0.07-12,0.21-23.99,0.53-35.98c0.71-26.13,2.25-52.49,6.89-78.34c4.71-26.22,12.4-50.62,24.53-74.44
		c11.92-23.41,27.49-44.84,46.07-63.41c18.58-18.58,40-34.15,63.41-46.07c23.82-12.12,48.22-19.82,74.44-24.53
		c25.84-4.65,52.2-6.18,78.34-6.89c11.99-0.32,23.99-0.46,35.98-0.53c14.24-0.09,28.48-0.08,42.73-0.08h278
		c14.24,0,28.48-0.01,42.73,0.08c12,0.07,23.99,0.21,35.98,0.53c26.13,0.71,52.49,2.25,78.34,6.89
		c26.22,4.71,50.62,12.4,74.44,24.53c23.41,11.92,44.84,27.49,63.41,46.07s34.15,40,46.07,63.41
		c12.12,23.82,19.82,48.22,24.53,74.44c4.65,25.84,6.18,52.2,6.89,78.34c0.32,11.99,0.46,23.99,0.53,35.98
		c0.09,14.24,0.08,28.48,0.08,42.73V3211z"/>
		<path fill="url(#grad7-rad2)" d="M2304,3211c0,14.24,0.01,28.48-0.08,42.73c-0.07,12-0.21,23.99-0.53,35.98c-0.71,26.13-2.25,52.49-6.89,78.34
		c-4.71,26.22-12.4,50.62-24.53,74.44c-11.92,23.41-27.49,44.84-46.07,63.41s-40,34.15-63.41,46.07
		c-23.82,12.12-48.22,19.82-74.44,24.53c-25.84,4.65-52.2,6.18-78.34,6.89c-11.99,0.33-23.99,0.46-35.98,0.53
		c-14.24,0.09-28.48,0.08-42.73,0.08h-278c-14.24,0-28.48,0.01-42.73-0.08c-12-0.07-23.99-0.21-35.98-0.53
		c-26.13-0.71-52.49-2.25-78.34-6.89c-26.22-4.71-50.62-12.4-74.44-24.53c-23.41-11.92-44.84-27.49-63.41-46.07
		c-18.58-18.58-34.15-40-46.07-63.41c-12.12-23.82-19.82-48.22-24.53-74.44c-4.65-25.84-6.18-52.2-6.89-78.34
		c-0.33-11.99-0.46-23.99-0.53-35.98c-0.09-14.24-0.08-28.48-0.08-42.73v-278c0-14.24-0.01-28.48,0.08-42.73
		c0.07-12,0.21-23.99,0.53-35.98c0.71-26.13,2.25-52.49,6.89-78.34c4.71-26.22,12.4-50.62,24.53-74.44
		c11.92-23.41,27.49-44.84,46.07-63.41c18.58-18.58,40-34.15,63.41-46.07c23.82-12.12,48.22-19.82,74.44-24.53
		c25.84-4.65,52.2-6.18,78.34-6.89c11.99-0.32,23.99-0.46,35.98-0.53c14.24-0.09,28.48-0.08,42.73-0.08h278
		c14.24,0,28.48-0.01,42.73,0.08c12,0.07,23.99,0.21,35.98,0.53c26.13,0.71,52.49,2.25,78.34,6.89
		c26.22,4.71,50.62,12.4,74.44,24.53c23.41,11.92,44.84,27.49,63.41,46.07s34.15,40,46.07,63.41
		c12.12,23.82,19.82,48.22,24.53,74.44c4.65,25.84,6.18,52.2,6.89,78.34c0.32,11.99,0.46,23.99,0.53,35.98
		c0.09,14.24,0.08,28.48,0.08,42.73V3211z"/>
		<path d="M1827.53,2683.07l119.26,218.05c3.72,6.79,9.3,12.38,16.1,16.1l218.05,119.26c28.09,15.36,28.09,55.7,0,71.06
		l-218.05,119.26c-6.79,3.72-12.38,9.3-16.1,16.1l-119.26,218.05c-15.36,28.09-55.7,28.09-71.06,0l-119.26-218.05
		c-3.72-6.79-9.3-12.38-16.1-16.1l-218.05-119.26c-28.09-15.36-28.09-55.7,0-71.06l218.05-119.26c6.8-3.72,12.38-9.3,16.1-16.1
		l119.26-218.05C1771.83,2654.98,1812.17,2654.98,1827.53,2683.07z"/>
	</g>
	<g class="logo-draft">
		<path d="M1827.53,2683.07l119.26,218.05c3.72,6.79,9.3,12.38,16.1,16.1l218.05,119.26c28.09,15.36,28.09,55.7,0,71.06
		l-218.05,119.26c-6.79,3.72-12.38,9.3-16.1,16.1l-119.26,218.05c-15.36,28.09-55.7,28.09-71.06,0l-119.26-218.05
		c-3.72-6.79-9.3-12.38-16.1-16.1l-218.05-119.26c-28.09-15.36-28.09-55.7,0-71.06l218.05-119.26c6.8-3.72,12.38-9.3,16.1-16.1
		l119.26-218.05C1771.83,2654.98,1812.17,2654.98,1827.53,2683.07z"/>
	</g>
	<g class="mnl">
		<line class="st2" x1="2304" y1="2560" x2="1280" y2="3584"/>
		<line class="st2" x1="2304" y1="3584" x2="1280" y2="2560"/>
		<line class="st2" x1="1792" y1="2560" x2="1792" y2="3584"/>
		<line class="st2" x1="2304" y1="3072" x2="1280" y2="3072"/>
		<line class="st2" x1="1792" y1="2560" x2="1792" y2="3584"/>
		<line class="st2" x1="2304" y1="3072" x2="1280" y2="3072"/>
		<line class="st2" x1="2304" y1="3200" x2="1280" y2="3200"/>
		<line class="st2" x1="2304" y1="3328" x2="1280" y2="3328"/>
		<line class="st2" x1="2304" y1="3456" x2="1280" y2="3456"/>
		<line class="st2" x1="2304" y1="2944" x2="1280" y2="2944"/>
		<line class="st2" x1="2304" y1="2816" x2="1280" y2="2816"/>
		<line class="st2" x1="2304" y1="2688" x2="1280" y2="2688"/>
		<line class="st2" x1="1792" y1="3584" x2="1792" y2="2560"/>
		<line class="st2" x1="1792" y1="3584" x2="1792" y2="2560"/>
		<line class="st2" x1="1664" y1="3584" x2="1664" y2="2560"/>
		<line class="st2" x1="1536" y1="3584" x2="1536" y2="2560"/>
		<line class="st2" x1="1408" y1="3584" x2="1408" y2="2560"/>
		<line class="st2" x1="1920" y1="3584" x2="1920" y2="2560"/>
		<line class="st2" x1="2048" y1="3584" x2="2048" y2="2560"/>
		<line class="st2" x1="2176" y1="3584" x2="2176" y2="2560"/>
		<circle class="st2" cx="1792" cy="3072" r="410"/>
		<circle class="st2" cx="1792" cy="3072" r="256"/>
	</g>
	<g class="mjl">
		<path d="M2304,3211c0,14.24,0.01,28.48-0.08,42.73c-0.07,12-0.21,23.99-0.53,35.98c-0.71,26.13-2.25,52.49-6.89,78.34
		c-4.71,26.22-12.4,50.62-24.53,74.44c-11.92,23.41-27.49,44.84-46.07,63.41s-40,34.15-63.41,46.07
		c-23.82,12.12-48.22,19.82-74.44,24.53c-25.84,4.65-52.2,6.18-78.34,6.89c-11.99,0.33-23.99,0.46-35.98,0.53
		c-14.24,0.09-28.48,0.08-42.73,0.08h-278c-14.24,0-28.48,0.01-42.73-0.08c-12-0.07-23.99-0.21-35.98-0.53
		c-26.13-0.71-52.49-2.25-78.34-6.89c-26.22-4.71-50.62-12.4-74.44-24.53c-23.41-11.92-44.84-27.49-63.41-46.07
		c-18.58-18.58-34.15-40-46.07-63.41c-12.12-23.82-19.82-48.22-24.53-74.44c-4.65-25.84-6.18-52.2-6.89-78.34
		c-0.33-11.99-0.46-23.99-0.53-35.98c-0.09-14.24-0.08-28.48-0.08-42.73v-278c0-14.24-0.01-28.48,0.08-42.73
		c0.07-12,0.21-23.99,0.53-35.98c0.71-26.13,2.25-52.49,6.89-78.34c4.71-26.22,12.4-50.62,24.53-74.44
		c11.92-23.41,27.49-44.84,46.07-63.41c18.58-18.58,40-34.15,63.41-46.07c23.82-12.12,48.22-19.82,74.44-24.53
		c25.84-4.65,52.2-6.18,78.34-6.89c11.99-0.32,23.99-0.46,35.98-0.53c14.24-0.09,28.48-0.08,42.73-0.08h278
		c14.24,0,28.48-0.01,42.73,0.08c12,0.07,23.99,0.21,35.98,0.53c26.13,0.71,52.49,2.25,78.34,6.89
		c26.22,4.71,50.62,12.4,74.44,24.53c23.41,11.92,44.84,27.49,63.41,46.07s34.15,40,46.07,63.41
		c12.12,23.82,19.82,48.22,24.53,74.44c4.65,25.84,6.18,52.2,6.89,78.34c0.32,11.99,0.46,23.99,0.53,35.98
		c0.09,14.24,0.08,28.48,0.08,42.73V3211z"/>
	</g>
</g>

<g class="main">
	<g class="logo">
		<path fill="url(#grad8-base)" d="M1024,1931c0,14.24,0.01,28.48-0.08,42.73c-0.07,12-0.21,23.99-0.53,35.98c-0.71,26.13-2.25,52.49-6.89,78.34
		c-4.71,26.22-12.4,50.62-24.53,74.44c-11.92,23.41-27.49,44.84-46.07,63.41c-18.58,18.58-40,34.15-63.41,46.07
		c-23.82,12.12-48.22,19.82-74.44,24.53c-25.84,4.65-52.2,6.18-78.34,6.89c-11.99,0.33-23.99,0.46-35.98,0.53
		c-14.24,0.09-28.48,0.08-42.73,0.08H373c-14.24,0-28.48,0.01-42.73-0.08c-12-0.07-23.99-0.21-35.98-0.53
		c-26.13-0.71-52.49-2.25-78.34-6.89c-26.22-4.71-50.62-12.4-74.44-24.53c-23.41-11.92-44.84-27.49-63.41-46.07
		s-34.15-40-46.07-63.41c-12.12-23.82-19.82-48.22-24.53-74.44c-4.65-25.84-6.18-52.2-6.89-78.34c-0.33-11.99-0.46-23.99-0.53-35.98
		C-0.01,1959.49,0,1945.25,0,1931v-278c0-14.24-0.01-28.48,0.08-42.73c0.07-12,0.21-23.99,0.53-35.98
		c0.71-26.13,2.25-52.49,6.89-78.34c4.71-26.22,12.4-50.62,24.53-74.44c11.92-23.41,27.49-44.84,46.07-63.41
		c18.58-18.58,40-34.15,63.41-46.07c23.82-12.12,48.22-19.82,74.44-24.53c25.84-4.65,52.2-6.18,78.34-6.89
		c11.99-0.33,23.99-0.46,35.98-0.53c14.24-0.09,28.48-0.08,42.73-0.08h278c14.24,0,28.48-0.01,42.73,0.08
		c12,0.07,23.99,0.21,35.98,0.53c26.13,0.71,52.49,2.25,78.34,6.89c26.22,4.71,50.62,12.4,74.44,24.53
		c23.41,11.92,44.84,27.49,63.41,46.07c18.58,18.58,34.15,40,46.07,63.41c12.12,23.82,19.82,48.22,24.53,74.44
		c4.65,25.84,6.18,52.2,6.89,78.34c0.33,11.99,0.46,23.99,0.53,35.98c0.09,14.24,0.08,28.48,0.08,42.73V1931z"/>
		<path fill="url(#grad8-rad1)" d="M1024,1931c0,14.24,0.01,28.48-0.08,42.73c-0.07,12-0.21,23.99-0.53,35.98c-0.71,26.13-2.25,52.49-6.89,78.34
		c-4.71,26.22-12.4,50.62-24.53,74.44c-11.92,23.41-27.49,44.84-46.07,63.41c-18.58,18.58-40,34.15-63.41,46.07
		c-23.82,12.12-48.22,19.82-74.44,24.53c-25.84,4.65-52.2,6.18-78.34,6.89c-11.99,0.33-23.99,0.46-35.98,0.53
		c-14.24,0.09-28.48,0.08-42.73,0.08H373c-14.24,0-28.48,0.01-42.73-0.08c-12-0.07-23.99-0.21-35.98-0.53
		c-26.13-0.71-52.49-2.25-78.34-6.89c-26.22-4.71-50.62-12.4-74.44-24.53c-23.41-11.92-44.84-27.49-63.41-46.07
		s-34.15-40-46.07-63.41c-12.12-23.82-19.82-48.22-24.53-74.44c-4.65-25.84-6.18-52.2-6.89-78.34c-0.33-11.99-0.46-23.99-0.53-35.98
		C-0.01,1959.49,0,1945.25,0,1931v-278c0-14.24-0.01-28.48,0.08-42.73c0.07-12,0.21-23.99,0.53-35.98
		c0.71-26.13,2.25-52.49,6.89-78.34c4.71-26.22,12.4-50.62,24.53-74.44c11.92-23.41,27.49-44.84,46.07-63.41
		c18.58-18.58,40-34.15,63.41-46.07c23.82-12.12,48.22-19.82,74.44-24.53c25.84-4.65,52.2-6.18,78.34-6.89
		c11.99-0.33,23.99-0.46,35.98-0.53c14.24-0.09,28.48-0.08,42.73-0.08h278c14.24,0,28.48-0.01,42.73,0.08
		c12,0.07,23.99,0.21,35.98,0.53c26.13,0.71,52.49,2.25,78.34,6.89c26.22,4.71,50.62,12.4,74.44,24.53
		c23.41,11.92,44.84,27.49,63.41,46.07c18.58,18.58,34.15,40,46.07,63.41c12.12,23.82,19.82,48.22,24.53,74.44
		c4.65,25.84,6.18,52.2,6.89,78.34c0.33,11.99,0.46,23.99,0.53,35.98c0.09,14.24,0.08,28.48,0.08,42.73V1931z"/>
		<path fill="url(#grad8-rad2)" d="M1024,1931c0,14.24,0.01,28.48-0.08,42.73c-0.07,12-0.21,23.99-0.53,35.98c-0.71,26.13-2.25,52.49-6.89,78.34
		c-4.71,26.22-12.4,50.62-24.53,74.44c-11.92,23.41-27.49,44.84-46.07,63.41c-18.58,18.58-40,34.15-63.41,46.07
		c-23.82,12.12-48.22,19.82-74.44,24.53c-25.84,4.65-52.2,6.18-78.34,6.89c-11.99,0.33-23.99,0.46-35.98,0.53
		c-14.24,0.09-28.48,0.08-42.73,0.08H373c-14.24,0-28.48,0.01-42.73-0.08c-12-0.07-23.99-0.21-35.98-0.53
		c-26.13-0.71-52.49-2.25-78.34-6.89c-26.22-4.71-50.62-12.4-74.44-24.53c-23.41-11.92-44.84-27.49-63.41-46.07
		s-34.15-40-46.07-63.41c-12.12-23.82-19.82-48.22-24.53-74.44c-4.65-25.84-6.18-52.2-6.89-78.34c-0.33-11.99-0.46-23.99-0.53-35.98
		C-0.01,1959.49,0,1945.25,0,1931v-278c0-14.24-0.01-28.48,0.08-42.73c0.07-12,0.21-23.99,0.53-35.98
		c0.71-26.13,2.25-52.49,6.89-78.34c4.71-26.22,12.4-50.62,24.53-74.44c11.92-23.41,27.49-44.84,46.07-63.41
		c18.58-18.58,40-34.15,63.41-46.07c23.82-12.12,48.22-19.82,74.44-24.53c25.84-4.65,52.2-6.18,78.34-6.89
		c11.99-0.33,23.99-0.46,35.98-0.53c14.24-0.09,28.48-0.08,42.73-0.08h278c14.24,0,28.48-0.01,42.73,0.08
		c12,0.07,23.99,0.21,35.98,0.53c26.13,0.71,52.49,2.25,78.34,6.89c26.22,4.71,50.62,12.4,74.44,24.53
		c23.41,11.92,44.84,27.49,63.41,46.07c18.58,18.58,34.15,40,46.07,63.41c12.12,23.82,19.82,48.22,24.53,74.44
		c4.65,25.84,6.18,52.2,6.89,78.34c0.33,11.99,0.46,23.99,0.53,35.98c0.09,14.24,0.08,28.48,0.08,42.73V1931z"/>
		<path d="M547.53,1403.07l119.26,218.05c3.72,6.8,9.3,12.38,16.1,16.1l218.05,119.26c28.09,15.36,28.09,55.7,0,71.06
		L682.89,1946.8c-6.8,3.72-12.38,9.3-16.1,16.1l-119.26,218.05c-15.36,28.09-55.7,28.09-71.06,0L357.21,1962.9
		c-3.72-6.79-9.3-12.38-16.1-16.1l-218.05-119.26c-28.09-15.36-28.09-55.7,0-71.06l218.05-119.26c6.8-3.72,12.38-9.3,16.1-16.1
		l119.26-218.05C491.83,1374.98,532.17,1374.98,547.53,1403.07z"/>
	</g>
	<g class="logo-draft">
		<path d="M547.53,1403.07l119.26,218.05c3.72,6.8,9.3,12.38,16.1,16.1l218.05,119.26c28.09,15.36,28.09,55.7,0,71.06
		L682.89,1946.8c-6.8,3.72-12.38,9.3-16.1,16.1l-119.26,218.05c-15.36,28.09-55.7,28.09-71.06,0L357.21,1962.9
		c-3.72-6.79-9.3-12.38-16.1-16.1l-218.05-119.26c-28.09-15.36-28.09-55.7,0-71.06l218.05-119.26c6.8-3.72,12.38-9.3,16.1-16.1
		l119.26-218.05C491.83,1374.98,532.17,1374.98,547.53,1403.07z"/>
	</g>
	<g class="mnl">
		<line class="st2" x1="1024" y1="1280" x2="0" y2="2304"/>
		<line class="st2" x1="1024" y1="2304" x2="0" y2="1280"/>
		<line class="st2" x1="512" y1="1280" x2="512" y2="2304"/>
		<line class="st2" x1="1024" y1="1792" x2="0" y2="1792"/>
		<line class="st2" x1="512" y1="1280" x2="512" y2="2304"/>
		<line class="st2" x1="1024" y1="1792" x2="0" y2="1792"/>
		<line class="st2" x1="1024" y1="1920" x2="0" y2="1920"/>
		<line class="st2" x1="1024" y1="2048" x2="0" y2="2048"/>
		<line class="st2" x1="1024" y1="2176" x2="0" y2="2176"/>
		<line class="st2" x1="1024" y1="1664" x2="0" y2="1664"/>
		<line class="st2" x1="1024" y1="1536" x2="0" y2="1536"/>
		<line class="st2" x1="1024" y1="1408" x2="0" y2="1408"/>
		<line class="st2" x1="512" y1="2304" x2="512" y2="1280"/>
		<line class="st2" x1="512" y1="2304" x2="512" y2="1280"/>
		<line class="st2" x1="384" y1="2304" x2="384" y2="1280"/>
		<line class="st2" x1="256" y1="2304" x2="256" y2="1280"/>
		<line class="st2" x1="128" y1="2304" x2="128" y2="1280"/>
		<line class="st2" x1="640" y1="2304" x2="640" y2="1280"/>
		<line class="st2" x1="768" y1="2304" x2="768" y2="1280"/>
		<line class="st2" x1="896" y1="2304" x2="896" y2="1280"/>
		<circle class="st2" cx="512" cy="1792" r="410"/>
		<circle class="st2" cx="512" cy="1792" r="256"/>
	</g>
	<g class="mjl">
		<path d="M1024,1931c0,14.24,0.01,28.48-0.08,42.73c-0.07,12-0.21,23.99-0.53,35.98c-0.71,26.13-2.25,52.49-6.89,78.34
		c-4.71,26.22-12.4,50.62-24.53,74.44c-11.92,23.41-27.49,44.84-46.07,63.41c-18.58,18.58-40,34.15-63.41,46.07
		c-23.82,12.12-48.22,19.82-74.44,24.53c-25.84,4.65-52.2,6.18-78.34,6.89c-11.99,0.33-23.99,0.46-35.98,0.53
		c-14.24,0.09-28.48,0.08-42.73,0.08H373c-14.24,0-28.48,0.01-42.73-0.08c-12-0.07-23.99-0.21-35.98-0.53
		c-26.13-0.71-52.49-2.25-78.34-6.89c-26.22-4.71-50.62-12.4-74.44-24.53c-23.41-11.92-44.84-27.49-63.41-46.07
		s-34.15-40-46.07-63.41c-12.12-23.82-19.82-48.22-24.53-74.44c-4.65-25.84-6.18-52.2-6.89-78.34c-0.33-11.99-0.46-23.99-0.53-35.98
		C-0.01,1959.49,0,1945.25,0,1931v-278c0-14.24-0.01-28.48,0.08-42.73c0.07-12,0.21-23.99,0.53-35.98
		c0.71-26.13,2.25-52.49,6.89-78.34c4.71-26.22,12.4-50.62,24.53-74.44c11.92-23.41,27.49-44.84,46.07-63.41
		c18.58-18.58,40-34.15,63.41-46.07c23.82-12.12,48.22-19.82,74.44-24.53c25.84-4.65,52.2-6.18,78.34-6.89
		c11.99-0.33,23.99-0.46,35.98-0.53c14.24-0.09,28.48-0.08,42.73-0.08h278c14.24,0,28.48-0.01,42.73,0.08
		c12,0.07,23.99,0.21,35.98,0.53c26.13,0.71,52.49,2.25,78.34,6.89c26.22,4.71,50.62,12.4,74.44,24.53
		c23.41,11.92,44.84,27.49,63.41,46.07c18.58,18.58,34.15,40,46.07,63.41c12.12,23.82,19.82,48.22,24.53,74.44
		c4.65,25.84,6.18,52.2,6.89,78.34c0.33,11.99,0.46,23.99,0.53,35.98c0.09,14.24,0.08,28.48,0.08,42.73V1931z"/>
	</g>
</g>

<g class="main">
	<g class="logo">
		<path fill="#FFF" d="M3584,1931c0,14.24,0.01,28.48-0.08,42.73c-0.07,12-0.21,23.99-0.53,35.98c-0.71,26.13-2.25,52.49-6.89,78.34
		c-4.71,26.22-12.4,50.62-24.53,74.44c-11.92,23.41-27.49,44.84-46.07,63.41s-40,34.15-63.41,46.07
		c-23.82,12.12-48.22,19.82-74.44,24.53c-25.84,4.65-52.2,6.18-78.34,6.89c-11.99,0.33-23.99,0.46-35.98,0.53
		c-14.24,0.09-28.48,0.08-42.73,0.08h-278c-14.24,0-28.48,0.01-42.73-0.08c-12-0.07-23.99-0.21-35.98-0.53
		c-26.13-0.71-52.49-2.25-78.34-6.89c-26.22-4.71-50.62-12.4-74.44-24.53c-23.41-11.92-44.84-27.49-63.41-46.07
		s-34.15-40-46.07-63.41c-12.12-23.82-19.82-48.22-24.53-74.44c-4.65-25.84-6.18-52.2-6.89-78.34c-0.32-11.99-0.46-23.99-0.53-35.98
		c-0.09-14.24-0.08-28.48-0.08-42.73v-278c0-14.24-0.01-28.48,0.08-42.73c0.07-12,0.21-23.99,0.53-35.98
		c0.71-26.13,2.25-52.49,6.89-78.34c4.71-26.22,12.4-50.62,24.53-74.44c11.92-23.41,27.49-44.84,46.07-63.41
		c18.58-18.58,40-34.15,63.41-46.07c23.82-12.12,48.22-19.82,74.44-24.53c25.84-4.65,52.2-6.18,78.34-6.89
		c11.99-0.33,23.99-0.46,35.98-0.53c14.24-0.09,28.48-0.08,42.73-0.08h278c14.24,0,28.48-0.01,42.73,0.08
		c12,0.07,23.99,0.21,35.98,0.53c26.13,0.71,52.49,2.25,78.34,6.89c26.22,4.71,50.62,12.4,74.44,24.53
		c23.41,11.92,44.84,27.49,63.41,46.07c18.58,18.58,34.15,40,46.07,63.41c12.12,23.82,19.82,48.22,24.53,74.44
		c4.65,25.84,6.18,52.2,6.89,78.34c0.32,11.99,0.46,23.99,0.53,35.98c0.09,14.24,0.08,28.48,0.08,42.73V1931z"/>
		<path fill="url(#grad9-tl)" d="M3584,1931c0,14.24,0.01,28.48-0.08,42.73c-0.07,12-0.21,23.99-0.53,35.98c-0.71,26.13-2.25,52.49-6.89,78.34
		c-4.71,26.22-12.4,50.62-24.53,74.44c-11.92,23.41-27.49,44.84-46.07,63.41s-40,34.15-63.41,46.07
		c-23.82,12.12-48.22,19.82-74.44,24.53c-25.84,4.65-52.2,6.18-78.34,6.89c-11.99,0.33-23.99,0.46-35.98,0.53
		c-14.24,0.09-28.48,0.08-42.73,0.08h-278c-14.24,0-28.48,0.01-42.73-0.08c-12-0.07-23.99-0.21-35.98-0.53
		c-26.13-0.71-52.49-2.25-78.34-6.89c-26.22-4.71-50.62-12.4-74.44-24.53c-23.41-11.92-44.84-27.49-63.41-46.07
		s-34.15-40-46.07-63.41c-12.12-23.82-19.82-48.22-24.53-74.44c-4.65-25.84-6.18-52.2-6.89-78.34c-0.32-11.99-0.46-23.99-0.53-35.98
		c-0.09-14.24-0.08-28.48-0.08-42.73v-278c0-14.24-0.01-28.48,0.08-42.73c0.07-12,0.21-23.99,0.53-35.98
		c0.71-26.13,2.25-52.49,6.89-78.34c4.71-26.22,12.4-50.62,24.53-74.44c11.92-23.41,27.49-44.84,46.07-63.41
		c18.58-18.58,40-34.15,63.41-46.07c23.82-12.12,48.22-19.82,74.44-24.53c25.84-4.65,52.2-6.18,78.34-6.89
		c11.99-0.33,23.99-0.46,35.98-0.53c14.24-0.09,28.48-0.08,42.73-0.08h278c14.24,0,28.48-0.01,42.73,0.08
		c12,0.07,23.99,0.21,35.98,0.53c26.13,0.71,52.49,2.25,78.34,6.89c26.22,4.71,50.62,12.4,74.44,24.53
		c23.41,11.92,44.84,27.49,63.41,46.07c18.58,18.58,34.15,40,46.07,63.41c12.12,23.82,19.82,48.22,24.53,74.44
		c4.65,25.84,6.18,52.2,6.89,78.34c0.32,11.99,0.46,23.99,0.53,35.98c0.09,14.24,0.08,28.48,0.08,42.73V1931z"/>
		<path fill="url(#grad9-tr)" d="M3584,1931c0,14.24,0.01,28.48-0.08,42.73c-0.07,12-0.21,23.99-0.53,35.98c-0.71,26.13-2.25,52.49-6.89,78.34
		c-4.71,26.22-12.4,50.62-24.53,74.44c-11.92,23.41-27.49,44.84-46.07,63.41s-40,34.15-63.41,46.07
		c-23.82,12.12-48.22,19.82-74.44,24.53c-25.84,4.65-52.2,6.18-78.34,6.89c-11.99,0.33-23.99,0.46-35.98,0.53
		c-14.24,0.09-28.48,0.08-42.73,0.08h-278c-14.24,0-28.48,0.01-42.73-0.08c-12-0.07-23.99-0.21-35.98-0.53
		c-26.13-0.71-52.49-2.25-78.34-6.89c-26.22-4.71-50.62-12.4-74.44-24.53c-23.41-11.92-44.84-27.49-63.41-46.07
		s-34.15-40-46.07-63.41c-12.12-23.82-19.82-48.22-24.53-74.44c-4.65-25.84-6.18-52.2-6.89-78.34c-0.32-11.99-0.46-23.99-0.53-35.98
		c-0.09-14.24-0.08-28.48-0.08-42.73v-278c0-14.24-0.01-28.48,0.08-42.73c0.07-12,0.21-23.99,0.53-35.98
		c0.71-26.13,2.25-52.49,6.89-78.34c4.71-26.22,12.4-50.62,24.53-74.44c11.92-23.41,27.49-44.84,46.07-63.41
		c18.58-18.58,40-34.15,63.41-46.07c23.82-12.12,48.22-19.82,74.44-24.53c25.84-4.65,52.2-6.18,78.34-6.89
		c11.99-0.33,23.99-0.46,35.98-0.53c14.24-0.09,28.48-0.08,42.73-0.08h278c14.24,0,28.48-0.01,42.73,0.08
		c12,0.07,23.99,0.21,35.98,0.53c26.13,0.71,52.49,2.25,78.34,6.89c26.22,4.71,50.62,12.4,74.44,24.53
		c23.41,11.92,44.84,27.49,63.41,46.07c18.58,18.58,34.15,40,46.07,63.41c12.12,23.82,19.82,48.22,24.53,74.44
		c4.65,25.84,6.18,52.2,6.89,78.34c0.32,11.99,0.46,23.99,0.53,35.98c0.09,14.24,0.08,28.48,0.08,42.73V1931z"/>
		<path fill="url(#grad9-bl)" d="M3584,1931c0,14.24,0.01,28.48-0.08,42.73c-0.07,12-0.21,23.99-0.53,35.98c-0.71,26.13-2.25,52.49-6.89,78.34
		c-4.71,26.22-12.4,50.62-24.53,74.44c-11.92,23.41-27.49,44.84-46.07,63.41s-40,34.15-63.41,46.07
		c-23.82,12.12-48.22,19.82-74.44,24.53c-25.84,4.65-52.2,6.18-78.34,6.89c-11.99,0.33-23.99,0.46-35.98,0.53
		c-14.24,0.09-28.48,0.08-42.73,0.08h-278c-14.24,0-28.48,0.01-42.73-0.08c-12-0.07-23.99-0.21-35.98-0.53
		c-26.13-0.71-52.49-2.25-78.34-6.89c-26.22-4.71-50.62-12.4-74.44-24.53c-23.41-11.92-44.84-27.49-63.41-46.07
		s-34.15-40-46.07-63.41c-12.12-23.82-19.82-48.22-24.53-74.44c-4.65-25.84-6.18-52.2-6.89-78.34c-0.32-11.99-0.46-23.99-0.53-35.98
		c-0.09-14.24-0.08-28.48-0.08-42.73v-278c0-14.24-0.01-28.48,0.08-42.73c0.07-12,0.21-23.99,0.53-35.98
		c0.71-26.13,2.25-52.49,6.89-78.34c4.71-26.22,12.4-50.62,24.53-74.44c11.92-23.41,27.49-44.84,46.07-63.41
		c18.58-18.58,40-34.15,63.41-46.07c23.82-12.12,48.22-19.82,74.44-24.53c25.84-4.65,52.2-6.18,78.34-6.89
		c11.99-0.33,23.99-0.46,35.98-0.53c14.24-0.09,28.48-0.08,42.73-0.08h278c14.24,0,28.48-0.01,42.73,0.08
		c12,0.07,23.99,0.21,35.98,0.53c26.13,0.71,52.49,2.25,78.34,6.89c26.22,4.71,50.62,12.4,74.44,24.53
		c23.41,11.92,44.84,27.49,63.41,46.07c18.58,18.58,34.15,40,46.07,63.41c12.12,23.82,19.82,48.22,24.53,74.44
		c4.65,25.84,6.18,52.2,6.89,78.34c0.32,11.99,0.46,23.99,0.53,35.98c0.09,14.24,0.08,28.48,0.08,42.73V1931z"/>
		<path fill="url(#grad9-br)" d="M3584,1931c0,14.24,0.01,28.48-0.08,42.73c-0.07,12-0.21,23.99-0.53,35.98c-0.71,26.13-2.25,52.49-6.89,78.34
		c-4.71,26.22-12.4,50.62-24.53,74.44c-11.92,23.41-27.49,44.84-46.07,63.41s-40,34.15-63.41,46.07
		c-23.82,12.12-48.22,19.82-74.44,24.53c-25.84,4.65-52.2,6.18-78.34,6.89c-11.99,0.33-23.99,0.46-35.98,0.53
		c-14.24,0.09-28.48,0.08-42.73,0.08h-278c-14.24,0-28.48,0.01-42.73-0.08c-12-0.07-23.99-0.21-35.98-0.53
		c-26.13-0.71-52.49-2.25-78.34-6.89c-26.22-4.71-50.62-12.4-74.44-24.53c-23.41-11.92-44.84-27.49-63.41-46.07
		s-34.15-40-46.07-63.41c-12.12-23.82-19.82-48.22-24.53-74.44c-4.65-25.84-6.18-52.2-6.89-78.34c-0.32-11.99-0.46-23.99-0.53-35.98
		c-0.09-14.24-0.08-28.48-0.08-42.73v-278c0-14.24-0.01-28.48,0.08-42.73c0.07-12,0.21-23.99,0.53-35.98
		c0.71-26.13,2.25-52.49,6.89-78.34c4.71-26.22,12.4-50.62,24.53-74.44c11.92-23.41,27.49-44.84,46.07-63.41
		c18.58-18.58,40-34.15,63.41-46.07c23.82-12.12,48.22-19.82,74.44-24.53c25.84-4.65,52.2-6.18,78.34-6.89
		c11.99-0.33,23.99-0.46,35.98-0.53c14.24-0.09,28.48-0.08,42.73-0.08h278c14.24,0,28.48-0.01,42.73,0.08
		c12,0.07,23.99,0.21,35.98,0.53c26.13,0.71,52.49,2.25,78.34,6.89c26.22,4.71,50.62,12.4,74.44,24.53
		c23.41,11.92,44.84,27.49,63.41,46.07c18.58,18.58,34.15,40,46.07,63.41c12.12,23.82,19.82,48.22,24.53,74.44
		c4.65,25.84,6.18,52.2,6.89,78.34c0.32,11.99,0.46,23.99,0.53,35.98c0.09,14.24,0.08,28.48,0.08,42.73V1931z"/>
		<path d="M3107.53,1403.07l119.26,218.05c3.72,6.8,9.3,12.38,16.1,16.1l218.05,119.26c28.09,15.36,28.09,55.7,0,71.06
		l-218.05,119.26c-6.79,3.72-12.38,9.3-16.1,16.1l-119.26,218.05c-15.36,28.09-55.7,28.09-71.06,0l-119.26-218.05
		c-3.72-6.79-9.3-12.38-16.1-16.1l-218.05-119.26c-28.09-15.36-28.09-55.7,0-71.06l218.05-119.26c6.79-3.72,12.38-9.3,16.1-16.1
		l119.26-218.05C3051.83,1374.98,3092.17,1374.98,3107.53,1403.07z"/>
	</g>
	<g class="logo-draft">
		<path d="M3107.53,1403.07l119.26,218.05c3.72,6.8,9.3,12.38,16.1,16.1l218.05,119.26c28.09,15.36,28.09,55.7,0,71.06
		l-218.05,119.26c-6.79,3.72-12.38,9.3-16.1,16.1l-119.26,218.05c-15.36,28.09-55.7,28.09-71.06,0l-119.26-218.05
		c-3.72-6.79-9.3-12.38-16.1-16.1l-218.05-119.26c-28.09-15.36-28.09-55.7,0-71.06l218.05-119.26c6.79-3.72,12.38-9.3,16.1-16.1
		l119.26-218.05C3051.83,1374.98,3092.17,1374.98,3107.53,1403.07z"/>
	</g>
	<g class="mnl">
		<line class="st2" x1="3584" y1="1280" x2="2560" y2="2304"/>
		<line class="st2" x1="3584" y1="2304" x2="2560" y2="1280"/>
		<line class="st2" x1="3072" y1="1280" x2="3072" y2="2304"/>
		<line class="st2" x1="3584" y1="1792" x2="2560" y2="1792"/>
		<line class="st2" x1="3072" y1="1280" x2="3072" y2="2304"/>
		<line class="st2" x1="3584" y1="1792" x2="2560" y2="1792"/>
		<line class="st2" x1="3584" y1="1920" x2="2560" y2="1920"/>
		<line class="st2" x1="3584" y1="2048" x2="2560" y2="2048"/>
		<line class="st2" x1="3584" y1="2176" x2="2560" y2="2176"/>
		<line class="st2" x1="3584" y1="1664" x2="2560" y2="1664"/>
		<line class="st2" x1="3584" y1="1536" x2="2560" y2="1536"/>
		<line class="st2" x1="3584" y1="1408" x2="2560" y2="1408"/>
		<line class="st2" x1="3072" y1="2304" x2="3072" y2="1280"/>
		<line class="st2" x1="3072" y1="2304" x2="3072" y2="1280"/>
		<line class="st2" x1="2944" y1="2304" x2="2944" y2="1280"/>
		<line class="st2" x1="2816" y1="2304" x2="2816" y2="1280"/>
		<line class="st2" x1="2688" y1="2304" x2="2688" y2="1280"/>
		<line class="st2" x1="3200" y1="2304" x2="3200" y2="1280"/>
		<line class="st2" x1="3328" y1="2304" x2="3328" y2="1280"/>
		<line class="st2" x1="3456" y1="2304" x2="3456" y2="1280"/>
		<circle class="st2" cx="3072" cy="1792" r="410"/>
		<circle class="st2" cx="3072" cy="1792" r="256"/>
	</g>
	<g class="mjl">
		<path d="M3584,1931c0,14.24,0.01,28.48-0.08,42.73c-0.07,12-0.21,23.99-0.53,35.98c-0.71,26.13-2.25,52.49-6.89,78.34
		c-4.71,26.22-12.4,50.62-24.53,74.44c-11.92,23.41-27.49,44.84-46.07,63.41s-40,34.15-63.41,46.07
		c-23.82,12.12-48.22,19.82-74.44,24.53c-25.84,4.65-52.2,6.18-78.34,6.89c-11.99,0.33-23.99,0.46-35.98,0.53
		c-14.24,0.09-28.48,0.08-42.73,0.08h-278c-14.24,0-28.48,0.01-42.73-0.08c-12-0.07-23.99-0.21-35.98-0.53
		c-26.13-0.71-52.49-2.25-78.34-6.89c-26.22-4.71-50.62-12.4-74.44-24.53c-23.41-11.92-44.84-27.49-63.41-46.07
		s-34.15-40-46.07-63.41c-12.12-23.82-19.82-48.22-24.53-74.44c-4.65-25.84-6.18-52.2-6.89-78.34c-0.32-11.99-0.46-23.99-0.53-35.98
		c-0.09-14.24-0.08-28.48-0.08-42.73v-278c0-14.24-0.01-28.48,0.08-42.73c0.07-12,0.21-23.99,0.53-35.98
		c0.71-26.13,2.25-52.49,6.89-78.34c4.71-26.22,12.4-50.62,24.53-74.44c11.92-23.41,27.49-44.84,46.07-63.41
		c18.58-18.58,40-34.15,63.41-46.07c23.82-12.12,48.22-19.82,74.44-24.53c25.84-4.65,52.2-6.18,78.34-6.89
		c11.99-0.33,23.99-0.46,35.98-0.53c14.24-0.09,28.48-0.08,42.73-0.08h278c14.24,0,28.48-0.01,42.73,0.08
		c12,0.07,23.99,0.21,35.98,0.53c26.13,0.71,52.49,2.25,78.34,6.89c26.22,4.71,50.62,12.4,74.44,24.53
		c23.41,11.92,44.84,27.49,63.41,46.07c18.58,18.58,34.15,40,46.07,63.41c12.12,23.82,19.82,48.22,24.53,74.44
		c4.65,25.84,6.18,52.2,6.89,78.34c0.32,11.99,0.46,23.99,0.53,35.98c0.09,14.24,0.08,28.48,0.08,42.73V1931z"/>
	</g>
</g>
</svg>