<svg xmlns="http://www.w3.org/2000/svg" viewBox="0 0 2201.66 1490.6">
<style>
	path{fill:#231f20;}
	@media (prefers-color-scheme: dark){path{fill:#f2f3f5}}
</style>

<g>
	<path d="M199.38,706.29h73.22v15.36h-56.92v27.06h29.08c2.11,0,5.69,0.16,8.66,0.55
		c18.25,2.18,28.15,16.84,28.15,34.39s-9.75,32.2-28.15,34.39c-2.96,0.39-6.47,0.55-8.66,0.55h-45.38V706.29z M244.14,803.21
		c2.03,0,4.76-0.16,7.1-0.62c9.98-2.1,13.72-10.68,13.72-18.95s-3.74-16.84-13.72-18.95c-2.34-0.47-5.07-0.62-7.1-0.62h-28.46v39.14
		H244.14z"/>
	<path d="M292.47,777.16c0-27.6,16.61-45.15,41.25-45.15c25.73,0,40.7,18.87,38.99,49.04h-62.77
		c1.33,15.59,9.59,24.48,23.78,24.48c10.14,0,17.78-4.76,21.91-13.41l15.98,5.07c-6.55,15.05-20.82,23.7-37.11,23.7
		C309.32,820.91,292.47,803.21,292.47,777.16z M356.02,768.35c-1.71-14.81-8.73-21.91-21.68-21.91c-13.96,0-21.91,7.64-24.02,21.91
		H356.02z"/>
	<path d="M390.17,734.36h59.26v15.36h-42.96v68.85h-16.3V734.36z"/>
	<path d="M535.19,818.57h-15.67v-58.56l-42.11,58.56h-13.25v-84.21h15.67v57.39l42.18-57.39h13.18V818.57z"/>
	<path d="M564.43,818.57h-8.97v-18.79h17.23v20.35c0,12.24-6,19.1-17.23,17.08l1.01-7.25
		C563.26,830.5,565.21,825.2,564.43,818.57z"/>
	<path d="M638.57,792.45c2.57-14.27,4.13-34.78,5.46-58.09h60.51v84.21h-16.37v-68.85h-29.47
		c-1.25,16.53-3.2,38.28-5.46,49.59c-3.2,16.84-9.43,23.16-27.52,19.26v-13.8C634.99,806.48,636.86,802.12,638.57,792.45z"/>
	<path d="M721.69,777.16c0-27.6,16.61-45.15,41.25-45.15c25.73,0,40.7,18.87,38.99,49.04h-62.77
		c1.33,15.59,9.59,24.48,23.78,24.48c10.14,0,17.78-4.76,21.91-13.41l15.98,5.07c-6.55,15.05-20.82,23.7-37.12,23.7
		C738.53,820.91,721.69,803.21,721.69,777.16z M785.23,768.35c-1.72-14.81-8.73-21.91-21.68-21.91c-13.96,0-21.91,7.64-24.02,21.91
		H785.23z"/>
	<path d="M839.03,749.02h-28.77v-14.66h73.84v14.66h-28.77v69.55h-16.3V749.02z"/>
	<path d="M969.87,818.57h-15.67v-58.56l-42.11,58.56h-13.25v-84.21h15.67v57.39l42.18-57.39h13.18V818.57z"/>
	<path d="M999.1,818.57h-8.97v-18.79h17.23v20.35c0,12.24-6,19.1-17.23,17.08l1.01-7.25
		C997.93,830.5,999.88,825.2,999.1,818.57z"/>
	<path d="M1091.26,776.46l-30.64-42.11h17.93l29.32,41.09v-41.09h14.66v41.09l29.32-41.09h18.01l-30.64,42.11
		l32.44,42.1h-18.95l-30.18-41.09v41.09h-14.66v-41.09l-30.1,41.09h-18.95L1091.26,776.46z"/>
	<path d="M1255.07,818.57h-15.67v-58.56l-42.11,58.56h-13.25v-84.21h15.67v57.39l42.18-57.39h13.18V818.57z"/>
	<path d="M1276.82,734.36h37.04c4.91,0,10.06,0.55,13.8,1.64c8.5,2.42,15.44,9.59,15.44,21.36
		c0,6.71-2.26,11.23-5.85,14.5c-1.72,1.56-3.67,2.65-5.46,3.27c1.79,0.31,3.9,1.09,5.69,2.03c5.77,2.96,9.83,8.42,9.83,17.86
		c0,11.38-5.77,19.26-15.83,22.07c-3.98,1.17-9.2,1.48-14.04,1.48h-40.62V734.36z M1311.6,769.99c2.96,0,6.39-0.31,8.66-1.25
		c3.98-1.56,6-5.61,6-9.98c0-4.76-2.18-8.81-6.55-10.29c-3.12-1.01-7.88-1.01-8.89-1.01h-17.47v22.53H1311.6z M1316.43,805.7
		c2.18,0,5.3-0.47,7.49-1.17c4.6-1.4,6.55-5.77,6.55-10.14c0-5.85-3.51-9.51-8.27-10.6c-2.18-0.7-4.91-0.7-6.63-0.7h-22.22v22.61
		H1316.43z"/>
	<path d="M1433.85,818.57h-15.67v-58.56l-42.11,58.56h-13.25v-84.21h15.67v57.39l42.18-57.39h13.18V818.57z"/>
	<path d="M1485.31,762.82h102.92v13.1h-102.92V762.82z"/>
	<path d="M1639.61,734.36h37.04c4.91,0,10.06,0.55,13.8,1.64c8.5,2.42,15.44,9.59,15.44,21.36
		c0,6.71-2.26,11.23-5.85,14.5c-1.72,1.56-3.67,2.65-5.46,3.27c1.79,0.31,3.9,1.09,5.69,2.03c5.77,2.96,9.83,8.42,9.83,17.86
		c0,11.38-5.77,19.26-15.83,22.07c-3.98,1.17-9.2,1.48-14.04,1.48h-40.62V734.36z M1674.38,769.99c2.96,0,6.39-0.31,8.66-1.25
		c3.98-1.56,6-5.61,6-9.98c0-4.76-2.18-8.81-6.55-10.29c-3.12-1.01-7.88-1.01-8.89-1.01h-17.47v22.53H1674.38z M1679.22,805.7
		c2.18,0,5.3-0.47,7.49-1.17c4.6-1.4,6.55-5.77,6.55-10.14c0-5.85-3.51-9.51-8.27-10.6c-2.18-0.7-4.91-0.7-6.63-0.7h-22.22v22.61
		H1679.22z"/>
	<path d="M1725.61,734.36h13.64l31.11,61.75l31.03-61.75h13.72v84.21h-15.75v-50.84l-25.34,50.84h-7.41l-25.34-50.84
		v50.84h-15.67V734.36z"/>
	<path d="M1832.26,777.16c0-27.6,16.61-45.15,41.25-45.15c25.73,0,40.7,18.87,38.99,49.04h-62.77
		c1.33,15.59,9.59,24.48,23.78,24.48c10.14,0,17.78-4.76,21.91-13.41l15.98,5.07c-6.55,15.05-20.82,23.7-37.12,23.7
		C1849.11,820.91,1832.26,803.21,1832.26,777.16z M1895.81,768.35c-1.72-14.81-8.73-21.91-21.68-21.91
		c-13.96,0-21.91,7.64-24.02,21.91H1895.81z"/>
	<path d="M1925.28,776.46c0.16-26.04,15.44-44.44,40.94-44.44c18.4,0,32.28,9.82,36.49,25.65l-16.22,4.68
		c-3.2-9.43-11.07-14.97-20.51-14.97c-15.98,0-23.31,12.24-23.39,29.08c0.08,17.39,7.95,29.08,23.39,29.08
		c10.45,0,16.76-4.99,20.2-14.03l16.53,3.9c-5.54,16.53-18.64,25.5-36.73,25.5C1940.17,820.91,1925.44,802.12,1925.28,776.46z"/>
	<path d="M2039.35,749.02h-28.77v-14.66h73.84v14.66h-28.77v69.55h-16.3V749.02z"/>
	<path d="M2094.55,777.16c0-27.6,16.61-45.15,41.25-45.15c25.73,0,40.7,18.87,38.99,49.04h-62.77
		c1.33,15.59,9.59,24.48,23.78,24.48c10.14,0,17.78-4.76,21.91-13.41l15.98,5.07c-6.55,15.05-20.82,23.7-37.12,23.7
		C2111.39,820.91,2094.55,803.21,2094.55,777.16z M2158.1,768.35c-1.72-14.81-8.73-21.91-21.68-21.91
		c-13.96,0-21.91,7.64-24.02,21.91H2158.1z"/>
	<path d="M138.29,1.84l10.43,19.06c0.32,0.59,0.81,1.08,1.41,1.41l19.06,10.43c2.46,1.34,2.46,4.87,0,6.21
		l-19.06,10.43c-0.59,0.32-1.08,0.81-1.41,1.41l-10.43,19.06c-1.34,2.46-4.87,2.46-6.21,0l-10.43-19.06
		c-0.32-0.59-0.81-1.08-1.41-1.41l-19.06-10.43c-2.46-1.34-2.46-4.87,0-6.21l19.06-10.43c0.59-0.32,1.08-0.81,1.41-1.41
		l10.43-19.06C133.42-0.61,136.94-0.61,138.29,1.84z"/>
	<path d="M88.71,709.24l16.67,30.48c0.52,0.95,1.3,1.73,2.25,2.25l30.48,16.67c3.93,2.15,3.93,7.79,0,9.93
		l-30.48,16.67c-0.95,0.52-1.73,1.3-2.25,2.25l-16.67,30.48c-2.15,3.93-7.79,3.93-9.93,0l-16.67-30.48
		c-0.52-0.95-1.3-1.73-2.25-2.25l-30.48-16.67c-3.93-2.15-3.93-7.79,0-9.93l30.48-16.67c0.95-0.52,1.73-1.3,2.25-2.25l16.67-30.48
		C80.93,705.31,86.57,705.31,88.71,709.24z"/>
	<path d="M199.38,71.68h16.3v48.42h56.14V71.68h16.37v112.28h-16.37v-48.5h-56.14v48.5h-16.3V71.68z"/>
	<path d="M305.34,161.03c0-12.71,6.86-20.82,19.88-24.95c9.75-2.89,23.63-4.68,37.27-6.55
		c-0.55-11.62-5.85-17.08-19.03-17.08c-8.89,0-17,3.9-19.88,13.25l-15.21-4.68c4.05-14.42,15.75-23.63,35.24-23.63
		c15.05,0,26.74,4.99,31.97,16.06c2.65,5.54,2.96,11.62,2.96,18.64v51.85h-14.43v-12.24c-6.94,9.9-16.69,14.58-30.33,14.58
		C315.16,186.3,305.34,174.76,305.34,161.03z M336.68,172.96c13.88,0,22.07-8.5,23.94-16.69c1.33-3.9,1.64-9.28,1.72-13.18
		c-12.71,1.87-22.14,3.2-29.24,5.3c-6.71,2.26-11.62,5.85-11.62,12.48C321.48,167.43,326.23,172.96,336.68,172.96z"/>
	<path d="M469.78,183.96H454.1V125.4L412,183.96h-13.25V99.75h15.67v57.39l42.18-57.39h13.18V183.96z M426.89,67.62
		c0,5.22,4.29,9.51,9.51,9.51c5.3,0,9.51-4.29,9.51-9.51h12.94c0,12.4-10.06,22.46-22.46,22.46c-12.4,0-22.46-10.06-22.46-22.46
		H426.89z"/>
	<path d="M500.1,150.43c2.18-13.57,3.2-29.24,4.21-50.68h60.35v71.11h8.27v31.81h-15.44v-18.71h-56.61v18.71h-15.52
		v-31.81C494.56,170.86,497.68,165.32,500.1,150.43z M548.29,170.86v-58.01h-29.47c-0.78,13.65-1.87,30.02-3.66,40.62
		c-1.25,8.27-2.57,13.49-6.47,17.39H548.29z"/>
	<path d="M659.47,183.96H643.8V125.4l-42.11,58.56h-13.25V99.75h15.67v57.39l42.18-57.39h13.18V183.96z"/>
	<path d="M734.24,114.41h-28.77V99.75h73.84v14.66h-28.77v69.55h-16.3V114.41z"/>
	<path d="M789.44,142.55c0-27.6,16.61-45.15,41.25-45.15c25.73,0,40.7,18.87,38.99,49.04H806.9
		c1.33,15.59,9.59,24.48,23.78,24.48c10.14,0,17.78-4.76,21.91-13.41l15.98,5.07c-6.55,15.05-20.82,23.7-37.12,23.7
		C806.28,186.3,789.44,168.6,789.44,142.55z M852.99,133.74c-1.72-14.81-8.73-21.91-21.68-21.91c-13.96,0-21.91,7.64-24.02,21.91
		H852.99z"/>
	<path d="M906.16,141.39l-30.8-41.64h19.34l20.97,28.93l20.74-28.93h19.34l-30.8,41.64l31.58,42.57h-19.42l-21.44-29.86
		l-21.6,29.86h-19.42L906.16,141.39z"/>
	<path d="M976.41,183.96h-8.97v-18.79h17.23v20.35c0,12.24-6,19.1-17.23,17.08l1.01-7.25
		C975.24,195.89,977.19,190.59,976.41,183.96z"/>
	<path d="M199.38,286.87h16.53v40.55l33.06-40.55h20.74l-34.93,42.1l38.52,42.11h-22.14l-35.24-40.55v40.55H199.3
		L199.38,286.87z"/>
	<path d="M302.84,301.53h-28.77v-14.66h73.84v14.66h-28.77v69.55h-16.3V301.53z"/>
	<path d="M356.49,328.9c0-26.35,16.45-44.37,41.25-44.37c25.26,0,41.33,18.32,41.33,44.37
		c0,26.35-16.22,44.52-41.33,44.52C372.47,373.42,356.49,355.02,356.49,328.9z M397.73,358.06c16.06,0,24.01-11.93,24.01-29.16
		c0-17.62-8.11-29.01-24.01-29.01c-16.38,0-23.94,11.85-23.94,29.01C373.8,346.68,381.98,358.06,397.73,358.06z"/>
	<path d="M495.89,337.56c2.18-13.57,3.2-29.24,4.21-50.68h60.35v71.11h8.27v31.81h-15.44v-18.71h-56.61v18.71h-15.52
		v-31.81C490.36,357.98,493.48,352.45,495.89,337.56z M544.08,357.98v-58.01h-29.47c-0.78,13.65-1.87,30.02-3.66,40.62
		c-1.25,8.26-2.57,13.49-6.47,17.39H544.08z"/>
	<path d="M584.23,286.87h37.04c4.91,0,10.06,0.55,13.8,1.64c8.5,2.42,15.44,9.59,15.44,21.36
		c0,6.71-2.26,11.23-5.85,14.5c-1.71,1.56-3.66,2.65-5.46,3.28c1.79,0.31,3.9,1.09,5.69,2.03c5.77,2.96,9.82,8.42,9.82,17.86
		c0,11.38-5.77,19.26-15.83,22.07c-3.98,1.17-9.2,1.48-14.04,1.48h-40.62V286.87z M619.01,322.51c2.96,0,6.39-0.31,8.66-1.25
		c3.98-1.56,6-5.61,6-9.98c0-4.76-2.18-8.81-6.55-10.29c-3.12-1.01-7.88-1.01-8.89-1.01h-17.47v22.53H619.01z M623.84,358.22
		c2.18,0,5.3-0.47,7.49-1.17c4.6-1.4,6.55-5.77,6.55-10.14c0-5.85-3.51-9.51-8.26-10.6c-2.18-0.7-4.91-0.7-6.63-0.7h-22.22v22.61
		H623.84z"/>
	<path d="M741.26,371.08h-15.67v-58.56l-42.11,58.56h-13.25v-84.21h15.67v57.39l42.18-57.39h13.18V371.08z"/>
	<path d="M786.17,328.98l-30.64-42.1h17.93l29.32,41.09v-41.09h14.66v41.09l29.32-41.09h18.01l-30.64,42.1l32.44,42.11
		h-18.95l-30.18-41.09v41.09h-14.66v-41.09l-30.1,41.09h-18.95L786.17,328.98z"/>
	<path d="M871.23,329.68c0-27.6,16.61-45.15,41.25-45.15c25.73,0,40.7,18.87,38.99,49.04H888.7
		c1.33,15.59,9.59,24.48,23.78,24.48c10.14,0,17.78-4.76,21.91-13.41l15.98,5.07c-6.55,15.05-20.82,23.7-37.12,23.7
		C888.08,373.42,871.23,355.72,871.23,329.68z M934.78,320.87c-1.72-14.81-8.73-21.91-21.68-21.91c-13.96,0-21.91,7.64-24.02,21.91
		H934.78z"/>
	<path d="M988.58,301.53h-28.77v-14.66h73.84v14.66h-28.77v69.55h-16.3V301.53z"/>
	<path d="M1042.22,328.98c0.16-26.04,15.44-44.44,40.94-44.44c18.4,0,32.28,9.82,36.49,25.65l-16.22,4.68
		c-3.2-9.44-11.07-14.97-20.51-14.97c-15.98,0-23.31,12.24-23.39,29.08c0.08,17.39,7.95,29.08,23.39,29.08
		c10.45,0,16.76-4.99,20.19-14.04l16.53,3.9c-5.54,16.53-18.64,25.5-36.72,25.5C1057.11,373.42,1042.38,354.63,1042.22,328.98z"/>
	<path d="M1185.77,341.84h-16.69l-3.27-0.08l-18.56,29.32h-17.39l20.12-31.42c-10.37-3.35-17.7-11.62-17.7-25.11
		c0-14.74,8.81-23.86,21.13-26.51c5.3-1.17,11.31-1.17,15.2-1.17h33.45l0.08,84.21h-16.37V341.84z M1159.26,327.81
		c2.96,0.78,6.16,0.94,8.42,0.94h18.09v-28.77h-18.09c-2.26,0-5.93,0.08-9.04,1.01c-4.83,1.4-9.67,6.16-9.67,13.41
		C1148.96,321.57,1153.64,326.33,1159.26,327.81z"/>
	<path d="M1250.47,328.98c0.16-26.04,15.44-44.44,40.94-44.44c18.4,0,32.28,9.82,36.49,25.65l-16.22,4.68
		c-3.2-9.44-11.07-14.97-20.51-14.97c-15.98,0-23.31,12.24-23.39,29.08c0.08,17.39,7.95,29.08,23.39,29.08
		c10.45,0,16.76-4.99,20.19-14.04l16.53,3.9c-5.54,16.53-18.64,25.5-36.72,25.5C1265.37,373.42,1250.63,354.63,1250.47,328.98z"/>
	<path d="M1396.74,301.53h-28.77v-14.66h73.84v14.66h-28.77v69.55h-16.3V301.53z"/>
	<path d="M1450.39,328.9c0-26.35,16.45-44.37,41.25-44.37c25.26,0,41.33,18.32,41.33,44.37
		c0,26.35-16.22,44.52-41.33,44.52C1466.37,373.42,1450.39,355.02,1450.39,328.9z M1491.63,358.06c16.06,0,24.01-11.93,24.01-29.16
		c0-17.62-8.11-29.01-24.01-29.01c-16.38,0-23.94,11.85-23.94,29.01C1467.7,346.68,1475.88,358.06,1491.63,358.06z"/>
	<path d="M1545.66,329.99c-0.78-13.25,1.01-32.75,5.15-42.96c2.96-7.41,8.42-13.96,14.74-18.25
		c13.33-9.28,33.29-8.97,50.6-12.32l1.56,14.58c-11.54,2.65-32.75,2.34-43.67,9.2c-7.8,4.83-11.85,14.66-12.63,25.34
		c6.39-9.75,17.08-13.8,27.84-13.8c22.53,0,36.26,17.39,36.26,40.39c0,24.95-16.37,41.56-40.78,41.33
		C1560.79,373.34,1547.22,357.44,1545.66,329.99z M1585.59,358.14c14.89,0,22.69-10.06,22.69-25.42c0-15.75-8.27-25.42-22.69-25.42
		c-14.66,0-22.61,9.67-22.61,25.42C1562.97,348.7,1571.01,358.14,1585.59,358.14z"/>
	<path d="M1637.98,328.9c0-26.35,16.45-44.37,41.25-44.37c25.26,0,41.33,18.32,41.33,44.37
		c0,26.35-16.22,44.52-41.33,44.52C1653.96,373.42,1637.98,355.02,1637.98,328.9z M1679.22,358.06c16.06,0,24.01-11.93,24.01-29.16
		c0-17.62-8.11-29.01-24.01-29.01c-16.38,0-23.94,11.85-23.94,29.01C1655.29,346.68,1663.47,358.06,1679.22,358.06z"/>
	<path d="M1808.65,371.08h-15.67v-58.56l-42.11,58.56h-13.25v-84.21h15.67v57.39l42.18-57.39h13.18V371.08z
			M1765.77,254.75c0,5.22,4.29,9.51,9.51,9.51c5.3,0,9.51-4.29,9.51-9.51h12.94c0,12.4-10.06,22.46-22.46,22.46
		c-12.4,0-22.46-10.06-22.46-22.46H1765.77z"/>
	<path d="M138.29,1083.93l10.43,19.06c0.32,0.59,0.81,1.08,1.41,1.41l19.06,10.43c2.46,1.34,2.46,4.87,0,6.21
		l-19.06,10.43c-0.59,0.32-1.08,0.81-1.41,1.41l-10.43,19.06c-1.34,2.46-4.87,2.46-6.21,0l-10.43-19.06
		c-0.32-0.59-0.81-1.08-1.41-1.41l-19.06-10.43c-2.46-1.34-2.46-4.87,0-6.21l19.06-10.43c0.59-0.32,1.08-0.81,1.41-1.41
		l10.43-19.06C133.42,1081.48,136.94,1081.48,138.29,1083.93z"/>
	<path d="M271.19,1266.05v-83.51l-55.28,83.51h-16.53v-112.28h16.53v83.43l55.28-83.43h16.53v112.28H271.19z"/>
	<path d="M309.47,1181.84h16.3v34.39h41.09v-34.39h16.3v84.21h-16.3v-34.46h-41.09v34.46h-16.3V1181.84z"/>
	<path d="M426.74,1196.5h-28.77v-14.66h73.84v14.66h-28.77v69.55h-16.3V1196.5z"/>
	<path d="M481.94,1224.65c0-27.6,16.61-45.15,41.25-45.15c25.73,0,40.7,18.87,38.99,49.04H499.4
		c1.33,15.59,9.59,24.48,23.78,24.48c10.14,0,17.78-4.76,21.91-13.41l15.98,5.07c-6.55,15.05-20.82,23.7-37.11,23.7
		C498.78,1268.39,481.94,1250.69,481.94,1224.65z M545.49,1215.84c-1.72-14.81-8.73-21.91-21.68-21.91
		c-13.96,0-21.91,7.64-24.02,21.91H545.49z"/>
	<path d="M595.93,1260.13v43.35h-16.37v-121.64h14.5v7.56c6-6.24,14.35-9.9,24.8-9.9c23.7,0,38.44,18.95,38.44,44.37
		c0,25.26-14.66,44.52-38.13,44.52C609.57,1268.39,601.86,1265.35,595.93,1260.13z M616.9,1253.65c15.67,0,23.08-13.1,23.08-29.79
		c0-16.53-7.41-29.63-23.63-29.63c-15.36,0-22.3,12.16-22.3,29.63C594.06,1241.33,600.84,1253.65,616.9,1253.65z"/>
	<path d="M669.76,1224.65c0-27.6,16.61-45.15,41.25-45.15c25.73,0,40.7,18.87,38.99,49.04h-62.77
		c1.33,15.59,9.59,24.48,23.78,24.48c10.14,0,17.78-4.76,21.91-13.41l15.98,5.07c-6.55,15.05-20.82,23.7-37.11,23.7
		C686.6,1268.39,669.76,1250.69,669.76,1224.65z M733.31,1215.84c-1.72-14.81-8.73-21.91-21.68-21.91
		c-13.96,0-21.91,7.64-24.02,21.91H733.31z"/>
	<path d="M762.78,1223.95c0.16-26.04,15.44-44.44,40.94-44.44c18.4,0,32.28,9.82,36.49,25.65l-16.22,4.68
		c-3.2-9.43-11.07-14.97-20.51-14.97c-15.98,0-23.31,12.24-23.39,29.08c0.08,17.39,7.95,29.08,23.39,29.08
		c10.45,0,16.76-4.99,20.19-14.04l16.53,3.9c-5.54,16.53-18.64,25.5-36.73,25.5C777.67,1268.39,762.93,1249.6,762.78,1223.95z"/>
	<path d="M856.03,1181.84h16.37v29.24h11.07c4.83,0,10.84,0.16,14.74,0.94c13.64,2.81,22.14,10.92,22.14,26.67
		c0,14.66-8.19,23.31-21.13,26.28c-4.21,0.94-10.45,1.09-15.2,1.09h-27.99V1181.84z M884.96,1252.95c2.65,0,6.24-0.08,9.12-0.86
		c4.91-1.4,9.59-5.93,9.59-13.41c0-7.72-4.45-12.24-10.29-13.65c-2.73-0.7-5.85-0.86-8.42-0.86H872.4v28.77H884.96z M929.64,1181.84
		h16.3v84.21h-16.3V1181.84z"/>
	<path d="M994.27,1223.95c0.16-26.04,15.44-44.44,40.94-44.44c18.4,0,32.28,9.82,36.49,25.65l-16.22,4.68
		c-3.2-9.43-11.07-14.97-20.51-14.97c-15.98,0-23.31,12.24-23.39,29.08c0.08,17.39,7.95,29.08,23.39,29.08
		c10.45,0,16.76-4.99,20.2-14.04l16.53,3.9c-5.54,16.53-18.64,25.5-36.73,25.5C1009.16,1268.39,994.42,1249.6,994.27,1223.95z"/>
	<path d="M1083.15,1224.96c-0.78-13.25,1.01-32.75,5.15-42.96c2.96-7.41,8.42-13.96,14.74-18.25
		c13.33-9.28,33.29-8.97,50.6-12.32l1.56,14.58c-11.54,2.65-32.75,2.34-43.66,9.2c-7.8,4.83-11.85,14.66-12.63,25.34
		c6.39-9.75,17.08-13.8,27.84-13.8c22.53,0,36.26,17.39,36.26,40.39c0,24.95-16.37,41.56-40.78,41.33
		C1098.28,1268.31,1084.71,1252.41,1083.15,1224.96z M1123.07,1253.11c14.89,0,22.69-10.06,22.69-25.42
		c0-15.75-8.26-25.42-22.69-25.42c-14.66,0-22.61,9.67-22.61,25.42C1100.46,1243.67,1108.49,1253.11,1123.07,1253.11z"/>
	<path d="M1185.21,1239.93c2.57-14.27,4.13-34.78,5.46-58.09h60.51v84.21h-16.38v-68.85h-29.47
		c-1.25,16.53-3.2,38.28-5.46,49.59c-3.2,16.84-9.43,23.16-27.52,19.26v-13.8C1181.62,1253.97,1183.49,1249.6,1185.21,1239.93z"/>
	<path d="M1343.96,1266.05h-15.67v-58.56l-42.11,58.56h-13.25v-84.21h15.67v57.39l42.18-57.39h13.18V1266.05z"/>
	<path d="M1358.53,1248.74l12.94-8.5c6,8.19,13.96,12.79,23.94,12.79c10.37,0,16.92-4.99,16.92-13.1
		c0-9.51-8.58-10.76-20.12-10.76h-7.49v-13.1h7.49c10.14,0,17.54-2.26,17.54-10.29c0-7.72-6.63-10.99-14.35-10.99
		c-8.73,0-17.39,4.13-23.47,9.59l-9.51-11.15c8.89-8.58,20.58-13.72,33.84-13.72c16.22,0,30.25,8.65,30.25,24.87
		c0,6.78-2.42,12.55-7.41,17.54c6.55,4.13,9.9,11.62,9.9,19.73c0,17-14.97,26.74-33.22,26.74
		C1379.43,1268.39,1365.94,1261.06,1358.53,1248.74z"/>
	<path d="M1497.39,1236.81h-16.69l-3.27-0.08l-18.56,29.32h-17.39l20.12-31.42c-10.37-3.35-17.7-11.62-17.7-25.11
		c0-14.74,8.81-23.86,21.13-26.51c5.3-1.17,11.31-1.17,15.2-1.17h33.45l0.08,84.21h-16.37V1236.81z M1470.88,1222.78
		c2.96,0.78,6.16,0.94,8.42,0.94h18.09v-28.77h-18.09c-2.26,0-5.93,0.08-9.04,1.01c-4.83,1.4-9.67,6.16-9.67,13.41
		C1460.59,1216.54,1465.27,1221.3,1470.88,1222.78z"/>
	<path d="M1557.35,1196.5h-28.77v-14.66h73.84v14.66h-28.77v69.55h-16.3V1196.5z"/>
	<path d="M1646.85,1210.3h102.92v13.1h-102.92V1210.3z"/>
	<path d="M199.38,1368.97h16.53v40.55l33.06-40.55h20.74l-34.93,42.1l38.52,42.11h-22.14l-35.24-40.54v40.54H199.3
		L199.38,1368.97z"/>
	<path d="M276.41,1430.25c0-12.71,6.86-20.82,19.88-24.95c9.75-2.88,23.63-4.68,37.27-6.55
		c-0.55-11.62-5.85-17.08-19.03-17.08c-8.89,0-17,3.9-19.88,13.25l-15.2-4.68c4.05-14.42,15.75-23.62,35.24-23.62
		c15.05,0,26.74,4.99,31.97,16.06c2.65,5.54,2.96,11.62,2.96,18.63v51.85H335.2v-12.24c-6.94,9.9-16.69,14.58-30.33,14.58
		C286.24,1455.52,276.41,1443.98,276.41,1430.25z M307.76,1442.18c13.88,0,22.07-8.5,23.94-16.69c1.33-3.9,1.64-9.28,1.72-13.18
		c-12.71,1.87-22.14,3.2-29.24,5.3c-6.71,2.26-11.62,5.85-11.62,12.47C292.55,1436.65,297.31,1442.18,307.76,1442.18z"/>
	<path d="M386.19,1447.25v43.35h-16.37v-121.64h14.5v7.56c6-6.24,14.35-9.9,24.8-9.9c23.7,0,38.44,18.95,38.44,44.37
		c0,25.26-14.66,44.52-38.13,44.52C399.84,1455.52,392.12,1452.47,386.19,1447.25z M407.17,1440.78c15.67,0,23.08-13.1,23.08-29.79
		c0-16.53-7.41-29.63-23.63-29.63c-15.36,0-22.3,12.16-22.3,29.63S391.1,1440.78,407.17,1440.78z"/>
	<path d="M486.46,1383.63h-28.77v-14.66h73.84v14.66h-28.77v69.55h-16.3V1383.63z"/>
	<path d="M539.32,1430.25c0-12.71,6.86-20.82,19.88-24.95c9.75-2.88,23.63-4.68,37.27-6.55
		c-0.55-11.62-5.85-17.08-19.03-17.08c-8.89,0-17,3.9-19.88,13.25l-15.2-4.68c4.05-14.42,15.75-23.62,35.24-23.62
		c15.05,0,26.74,4.99,31.97,16.06c2.65,5.54,2.96,11.62,2.96,18.63v51.85h-14.43v-12.24c-6.94,9.9-16.69,14.58-30.33,14.58
		C549.14,1455.52,539.32,1443.98,539.32,1430.25z M570.66,1442.18c13.88,0,22.07-8.5,23.94-16.69c1.33-3.9,1.64-9.28,1.72-13.18
		c-12.71,1.87-22.14,3.2-29.24,5.3c-6.71,2.26-11.62,5.85-11.62,12.47C555.46,1436.65,560.21,1442.18,570.66,1442.18z"/>
	<path d="M663.91,1368.97h71.03v84.21h-16.3v-68.85h-38.44v68.85h-16.3V1368.97z"/>
	<path d="M752.09,1410.99c0-26.35,16.45-44.37,41.25-44.37c25.26,0,41.33,18.32,41.33,44.37
		c0,26.35-16.22,44.52-41.33,44.52C768.07,1455.52,752.09,1437.11,752.09,1410.99z M793.34,1440.15c16.06,0,24.02-11.93,24.02-29.16
		c0-17.62-8.11-29.01-24.02-29.01c-16.37,0-23.94,11.85-23.94,29.01C769.4,1428.77,777.59,1440.15,793.34,1440.15z"/>
	<path d="M851.81,1368.97h16.53v40.55l33.06-40.55h20.74l-34.93,42.1l38.52,42.11h-22.14l-35.24-40.54v40.54h-16.61
		L851.81,1368.97z"/>
	<path d="M928.84,1430.25c0-12.71,6.86-20.82,19.88-24.95c9.75-2.88,23.63-4.68,37.27-6.55
		c-0.55-11.62-5.85-17.08-19.03-17.08c-8.89,0-17,3.9-19.88,13.25l-15.21-4.68c4.05-14.42,15.75-23.62,35.24-23.62
		c15.05,0,26.74,4.99,31.97,16.06c2.65,5.54,2.96,11.62,2.96,18.63v51.85h-14.43v-12.24c-6.94,9.9-16.69,14.58-30.33,14.58
		C938.67,1455.52,928.84,1443.98,928.84,1430.25z M960.19,1442.18c13.88,0,22.07-8.5,23.94-16.69c1.33-3.9,1.64-9.28,1.72-13.18
		c-12.71,1.87-22.14,3.2-29.24,5.3c-6.71,2.26-11.62,5.85-11.62,12.47C944.98,1436.65,949.74,1442.18,960.19,1442.18z"/>
	<path d="M1045.41,1411.07l-30.64-42.1h17.93l29.32,41.09v-41.09h14.66v41.09l29.32-41.09H1124l-30.64,42.1l32.44,42.11
		h-18.95l-30.18-41.09v41.09h-14.66v-41.09l-30.1,41.09h-18.95L1045.41,1411.07z"/>
	<path d="M1130.47,1411.77c0-27.6,16.61-45.15,41.25-45.15c25.73,0,40.7,18.87,38.99,49.04h-62.77
		c1.33,15.59,9.59,24.48,23.78,24.48c10.14,0,17.78-4.76,21.91-13.41l15.98,5.07c-6.55,15.05-20.82,23.7-37.11,23.7
		C1147.31,1455.52,1130.47,1437.82,1130.47,1411.77z M1194.02,1402.96c-1.71-14.82-8.73-21.91-21.68-21.91
		c-13.96,0-21.91,7.64-24.02,21.91H1194.02z"/>
	<path d="M1247.82,1383.63h-28.77v-14.66h73.84v14.66h-28.77v69.55h-16.3V1383.63z"/>
	<path d="M1338.8,1368.97h71.03v84.21h-16.3v-68.85h-38.44v68.85h-16.3V1368.97z"/>
	<path d="M1456.93,1452.79l-34.07-83.82h17l24.87,63.31l23.78-63.31h16.53l-46.47,121.64h-15.52L1456.93,1452.79z"/>
	<path d="M1538.95,1383.63h-28.77v-14.66h73.84v14.66h-28.77v69.55h-16.3V1383.63z"/>
	<path d="M1598.75,1368.97h16.37v29.24h16.61c4.76,0,10.84,0.16,14.74,0.94c13.57,2.81,22.14,10.92,22.14,26.67
		c0,14.66-8.19,23.31-21.21,26.28c-4.13,0.94-10.45,1.09-15.13,1.09h-33.53V1368.97z M1633.21,1440.08c2.65,0,6.24-0.08,9.04-0.86
		c4.99-1.4,9.67-5.93,9.67-13.41c0-7.72-4.44-12.24-10.29-13.65c-2.81-0.7-5.93-0.86-8.42-0.86h-18.09v28.77H1633.21z"/>
</g>

</svg>