<svg xmlns="http://www.w3.org/2000/svg" viewBox="0 0 890 890">
<style type="text/css">
	@import url("/styles/logos-draft.css");
</style>


<g class="main wbi">
<rect x="5" y="5" class="bg" width="880" height="880"/>

<g class="dl">
	<rect x="5" y="5" width="880" height="880"/>
	<path d="M293,453c-79.5,0-144,64.5-144,144c0,79.5,64.5,144,144,144c79.5,0,144-64.5,144-144
		C437,517.5,372.5,453,293,453z M293,709c-61.9,0-112-50.1-112-112s50.1-112,112-112c61.9,0,112,50.1,112,112S354.9,709,293,709z"/>
	<path d="M597,453c-79.5,0-144,64.5-144,144c0,79.5,64.5,144,144,144c79.5,0,144-64.5,144-144
		C741,517.5,676.5,453,597,453z M597,709c-61.9,0-112-50.1-112-112s50.1-112,112-112c61.9,0,112,50.1,112,112S658.9,709,597,709z"/>
	<path d="M741,149c-79.5,0-144,64.5-144,144c0,79.5,64.5,144,144,144c79.5,0,144-64.5,144-144
		C885,213.5,820.5,149,741,149z M741,405c-61.9,0-112-50.1-112-112s50.1-112,112-112c61.9,0,112,50.1,112,112S802.9,405,741,405z"/>
</g>

<g class="logo-draft">
<path d="M597,453c-45.2,0-85.6,20.9-112,53.5V453h-32v144v144h32V597c0-61.9,50.1-112,112-112c61.9,0,112,50.1,112,112v144h32V597
	C741,517.5,676.5,453,597,453z"/>
<path d="M405,453v144c0,61.9-50.1,112-112,112c-61.9,0-112-50.1-112-112V453h-32v144c0,79.5,64.5,144,144,144
	c79.5,0,144-64.5,144-144V453H405z"/>
<path d="M293,149c-79.5,0-144,64.5-144,144c0,79.5,64.5,144,144,144c79.5,0,144-64.5,144-144C437,213.5,372.5,149,293,149z M293,405
	c-61.9,0-112-50.1-112-112s50.1-112,112-112c61.9,0,112,50.1,112,112S354.9,405,293,405z"/>
<path d="M741,293c0-79.5-64.5-144-144-144c-79.5,0-144,64.5-144,144c0,79.5,64.5,144,144,144c26.2,0,50.8-7,72-19.3
	c21.2,12.3,45.8,19.3,72,19.3v-32c-15.5,0-30.2-3.1-43.6-8.8C724.3,370,741,333.5,741,293z M597,405c-61.9,0-112-50.1-112-112
	s50.1-112,112-112c61.9,0,112,50.1,112,112c0,34.4-15.5,65.2-40,85.8c-24.5-20.5-40-51.3-40-85.8h-32c0,40.5,16.7,77,43.6,103.2
	C627.2,401.9,612.5,405,597,405z"/>
</g>

<g class="mjl">
	<line x1="5" y1="741" x2="885" y2="741"/>
	<line x1="741" y1="5" x2="741" y2="885"/>
	<line x1="149" y1="5" x2="149" y2="885"/>
	<line x1="5" y1="149" x2="885" y2="149"/>
</g>

<g class="mnl">
	<line x1="437" y1="5" x2="437" y2="885"/>
	<line x1="453" y1="5" x2="453" y2="885"/>
	<line x1="5" y1="437" x2="885" y2="437"/>
	<line x1="5" y1="453" x2="885" y2="453"/>
</g>
</g>
</svg>