<svg xmlns="http://www.w3.org/2000/svg" viewBox="0 0 308 237">
<style type="text/css">
	path{fill:#231f20;}
	@media (prefers-color-scheme: dark){path{fill:#f2f3f5}}
</style>

  <path d="M306.74,179.75c-0.83-2.42-4.32-2.89-6.44-2.14c-1.09,0.39-2.19,0.8-3.26,1.23h-0.01l-1.39,0.02
	c-7.12,0.1-14.25,0.21-21.37,0.32c-10.61,0.15-21.21,0.32-31.82,0.47c-4.98,0.07-9.96,0.15-14.95,0.22
	c-0.33-4.53-1.36-9.02-3.37-13.13c-1.84-3.79-4.48-7.19-7.56-10.06c-2.23-2.08-4.67-3.81-7.2-5.42c0.53-0.96,1.03-1.93,1.39-2.99
	c0.5-1.49,0.76-3.07,0.79-4.64c0.05-2.76-0.73-5.51-2.24-7.82c-1.39-2.14-3.26-3.84-5.66-4.75c-3.19-1.2-7.05-0.45-10.02,1.03
	c-2.98,1.47-5.91,4.86-6.08,8.36c-0.11,2.19,1.39,4,2.97,5.34c2.22,1.89,4.83,3.29,7.33,4.75c1.46,0.85,2.92,1.72,4.35,2.63
	c-0.51,0.94-1.04,1.88-1.48,2.86c-0.68,1.53-1.27,3.1-1.77,4.7c-0.97,3.1-1.62,6.3-2.04,9.52c-0.44,3.35-0.68,6.73-0.62,10.1
	c-11.64,0.18-23.28,0.34-34.92,0.52c-4.83,0.07-9.65,0.14-14.48,0.21c0.32-3.92,0.63-7.83,0.94-11.75
	c0.58-7.23,1.17-14.46,1.75-21.7c0.09-1.07,0.17-2.14,0.26-3.21c0.56-0.56,1.14-1.12,1.72-1.65c0,0,0.01-0.01,0.01-0.01
	c0.01-0.01,0.01-0.02,0.03-0.03l0.04-0.04c0.02-0.01,0.04-0.03,0.06-0.05c0.01-0.01,0.04-0.04,0.06-0.05
	c0.02-0.02,0.04-0.04,0.06-0.06c0.04-0.04,0.08-0.07,0.1-0.09c0.19-0.18,0.39-0.35,0.59-0.53c0.46-0.42,0.94-0.84,1.42-1.25
	c1.74-1.5,3.52-2.95,5.36-4.34c1.83-1.39,3.7-2.71,5.61-3.98c0.26-0.18,0.52-0.34,0.79-0.51c0.01-0.01,0.03-0.02,0.06-0.04
	c0.01-0.01,0.02-0.01,0.03-0.02c0.01-0.01,0.01-0.01,0.01-0.01c0.01,0,0.02-0.01,0.04-0.02c0.01-0.01,0.03-0.01,0.04-0.02
	c0.01-0.01,0.01-0.01,0.01-0.01c0.03-0.01,0.06-0.04,0.09-0.06c0.1-0.07,0.18-0.13,0.23-0.15l-0.02,0.02
	c0.04-0.02,0.07-0.04,0.08-0.04c0.26-0.17,0.53-0.33,0.79-0.49c0.98-0.6,1.97-1.18,2.96-1.74c2.04-1.14,4.17-2.11,6.23-3.2
	c0.06-0.05,0.3-0.18,0.47-0.26c0.06-0.03,0.12-0.05,0.18-0.08c0,0,0,0,0.01-0.01c0.27-0.12,0.54-0.24,0.81-0.36
	c0.57-0.25,1.15-0.5,1.73-0.74c1.25-0.52,2.52-1.02,3.81-1.49c0.98-0.37,2.32-1.04,2.99-1.9c0.25-0.31,0.45-0.71,0.45-1.11v-0.01
	c0-0.16-0.04-0.32-0.12-0.46c-0.04-0.04-0.11-0.08-0.2-0.11c-0.76-0.28-1.5-0.58-2.25-0.9c-6.44-2.71-12.32-6.63-17.35-11.5
	c-1.55-1.5-3.01-3.07-4.39-4.73c-3.18-3.87-5.91-8.1-8.17-12.56c0.14-1.67,0.27-3.33,0.4-5c0.57-7.09,1.14-14.2,1.71-21.29
	c0.69-8.59,1.38-17.18,2.07-25.77c0.59-7.43,1.19-14.86,1.79-22.29c0.29-3.62,0.64-7.23,0.87-10.84V4.58
	c0.01-0.04,0.01-0.08,0.01-0.12c0.1-0.1,0.21-0.18,0.32-0.28c0.11-0.1,0.21-0.18,0.32-0.28c0.48-0.42,1.42-1.14,1.2-1.94
	c-0.21-0.76-1.39-1.01-2.01-1.08c-1.34-0.12-2.74,0.04-4.04,0.42c-1.25,0.36-2.71,0.79-3.71,1.66c-9.44,8.2-17.95,17.4-25.18,27.61
	c-7.04,9.94-12.94,20.71-17.3,32.09c-4.2,10.97-6.96,22.51-7.92,34.23c-0.95,11.76-0.18,23.62,2.69,35.09
	c3,11.97,8.23,23.23,15.17,33.42c0.81,1.2,1.65,2.37,2.52,3.53c0.07,0.11,0.15,0.21,0.23,0.32c0.21,0.23,0.51,0.4,0.77,0.5
	c0.02,0.01,0.04,0.01,0.07,0.02c0.72,0.2,1.68,0.18,2.08,0.18c1.39-0.04,2.99-0.38,4.28-0.92c0.79-0.32,2.31-0.98,3.04-1.85
	c0.06-0.07,0.12-0.15,0.16-0.23c0.09-0.12,0.16-0.26,0.23-0.4c2.09-4.76,4.77-9.15,7.93-13.27c-0.1,1.29-0.21,2.59-0.31,3.88
	c-0.58,7.23-1.16,14.47-1.74,21.7c-0.07,0.77-0.12,1.54-0.18,2.31c-6.98,0.1-13.96,0.21-20.93,0.31c-13.34,0.2-26.68,0.4-40.01,0.59
	c-11.2,0.16-22.39,0.33-33.59,0.49c-8.11,0.12-16.21,0.24-24.31,0.36c-3.35,0.05-6.69,0.07-10.03,0.14
	c-0.48,0.01-0.95,0.01-1.42,0.03c-0.17,0.01-0.34,0.01-0.51,0.01c-2.33,0.04-5.7,0.9-7.29,2.72c-0.15,0.18-0.27,0.34-0.34,0.49
	c-0.01,0.01-0.01,0.02-0.01,0.03c-0.1,0.26-0.12,0.52-0.04,0.77c0.01,0.02,0.01,0.04,0.02,0.05v0.01c0,0.01,0.01,0.01,0.01,0.01
	c0.13,0.29,0.43,0.56,0.95,0.81c1.17,0.53,2.31,1.13,3.45,1.73c0.62,0.32,1.23,0.65,1.83,0.99c0.34,0.18,0.68,0.37,1.02,0.56
	c0.12,0.07,0.25,0.14,0.37,0.21c0,0,0,0,0.01,0.01c0,0,0,0,0.01,0c0.03,0.02,0.06,0.04,0.09,0.06c0.02,0.01,0.04,0.02,0.07,0.04
	c0.01,0,0.01,0.01,0.02,0.01c0.01,0.01,0.03,0.01,0.04,0.02l0.01,0.01c0.01,0.01,0.04,0.01,0.04,0.02c0.01,0.01,0.01,0.01,0.01,0.01
	c0.01,0,0.01,0,0.01,0c0.01,0.01,0.01,0.01,0.01,0.01c0,0.01,0.01,0.01,0.01,0.01c0.01,0,0.01,0.01,0.01,0.01
	c1.68,0.98,3.34,1.97,4.98,3c9.71,6.1,18.83,13.2,27.01,21.24c5.6,5.5,10.75,11.46,15.29,17.87c0,0.01,0.01,0.01,0.01,0.01
	c0.07,0.26,0.2,0.51,0.41,0.74c0.74,0.8,1.95,1.25,3.03,1.25h166.79c1.9,0,3.81,0.01,5.71,0c0.48,0.19,0.98,0.3,1.43,0.34
	c2.79,0.22,5.65-0.89,7.15-3.3c0.53-0.85,1.06-1.69,1.61-2.52c0.17-0.25,0.34-0.5,0.52-0.75c-0.04,0.07-0.08,0.13-0.1,0.17
	c0.02-0.04,0.06-0.1,0.12-0.2c0.01-0.01,0.02-0.03,0.03-0.05c0.01-0.01,0.01-0.01,0.01-0.02c0.01-0.02,0.02-0.04,0.04-0.07
	c0.03-0.05,0.07-0.1,0.09-0.14c0.01-0.01,0.01-0.02,0.03-0.04v-0.01c0.2-0.28,0.4-0.56,0.59-0.84c1.14-1.59,2.33-3.15,3.57-4.67
	c2.41-2.99,5-5.83,7.71-8.55c1.31-1.31,2.64-2.58,4.01-3.83c0.12-0.1,0.21-0.18,0.28-0.25c0.04-0.03,0.07-0.06,0.09-0.08
	c-0.01,0.01-0.04,0.03-0.05,0.04c0.02-0.01,0.04-0.04,0.06-0.05l-0.01,0.01c0.01-0.01,0.02-0.01,0.03-0.03
	c0.04-0.03,0.07-0.05,0.08-0.07c0.01-0.01,0.02-0.02,0.03-0.03c0.01,0,0.01-0.01,0.01-0.01c0.28-0.24,0.54-0.48,0.82-0.73
	c0.75-0.65,1.5-1.29,2.27-1.92c2.69-2.24,5.47-4.37,8.33-6.41c2.71-1.92,5.47-3.76,8.3-5.51c0.59-0.36,1.18-0.72,1.78-1.08
	c0.07-0.04,0.15-0.1,0.23-0.14c0.01-0.01,0.02-0.01,0.04-0.02c0.09-0.05,0.18-0.1,0.27-0.16c0.05-0.03,0.1-0.06,0.16-0.1
	c0.1-0.06,0.21-0.12,0.32-0.18c0.01-0.01,0.02-0.01,0.03-0.02v0.01c0-0.01,0.01-0.01,0.01-0.01c1.22-0.7,2.43-1.39,3.66-2.06
	c3.94-2.15,7.96-4.15,12.07-5.94c1.35-0.59,2.71-1.17,4.09-1.7c0.37-0.15,0.73-0.29,1.11-0.43c0.02-0.01,0.04-0.01,0.05-0.02
	c-0.01,0.01-0.04,0.01-0.06,0.01c0.96-0.4,1.86-0.9,2.58-1.72C306.45,181.99,307.09,180.76,306.74,179.75z M207.09,156.53
	c3.21,2.49,6.13,5.4,8.33,8.82c2.65,4.12,4.25,8.81,4.91,13.65c0.04,0.32,0.09,0.65,0.12,0.98c-5.52,0.08-11.03,0.16-16.54,0.24
	c-0.22,0-0.44,0.01-0.66,0.01c-0.13-2.66-0.02-5.36,0.18-8c0.42-5.37,1.45-10.81,3.46-15.84
	C206.96,156.42,207.03,156.48,207.09,156.53z M197.82,133.04c0.15-0.1,0.52-0.21-0.04,0.03
	C197.79,133.06,197.8,133.05,197.82,133.04z M196.58,133.44c-0.09,0.02-0.28,0.04-0.31-0.03
	C196.28,133.42,196.43,133.43,196.58,133.44z M199.52,145.21c-1.04-0.68-2.07-1.41-2.98-2.26c-0.37-0.34-0.71-0.71-1.03-1.1
	c0,0-0.01-0.01-0.01-0.01c-0.01-0.01-0.01-0.02-0.03-0.04c-0.07-0.1-0.21-0.3-0.27-0.4c-0.12-0.21-0.23-0.42-0.34-0.64
	c-0.18-0.42-0.32-0.86-0.37-1.31c-0.03-0.21-0.04-0.43-0.04-0.64c0-0.12,0.01-0.24,0.01-0.36v-0.02c0.01-0.04,0.01-0.07,0.01-0.11
	c0.01-0.01,0.01-0.02,0.01-0.03c0.26-1.2,0.79-2.27,1.47-3.28c0.08-0.12,0.16-0.23,0.24-0.34c0.01-0.01,0.02-0.02,0.03-0.04
	c0.01,0,0.01-0.01,0.01-0.01c0.01-0.01,0.01-0.01,0.02-0.02c0-0.01,0.01-0.02,0.01-0.03c0.01-0.01,0.02-0.02,0.03-0.04
	c0.03-0.04,0.05-0.07,0.08-0.1c0.26-0.32,0.52-0.62,0.81-0.9c0.01,0.01,0.01,0.01,0.01,0.01c0.24,0.07,0.48,0.14,0.72,0.23
	c0.04,0.01,0.06,0.02,0.08,0.03c0.02,0.01,0.04,0.01,0.04,0.01c0.01,0,0.01,0.01,0.01,0.01c0.13,0.06,0.26,0.12,0.39,0.19
	c1.01,0.52,1.92,1.23,2.7,2.05c3.1,3.21,4.06,7.86,3.13,12.1C202.69,147.2,201.09,146.24,199.52,145.21z M146.64,37.72
	c1.2-6.75,3.23-13.37,6.13-19.58c-0.46,5.8-0.92,11.6-1.39,17.4c-0.68,8.59-1.37,17.18-2.06,25.77c-0.34,4.28-0.69,8.55-1.03,12.83
	c-1.84-6.94-2.78-14.12-2.84-21.3C145.39,47.78,145.81,42.71,146.64,37.72z M131.49,154.08c-0.98,1.28-1.91,2.6-2.8,3.95
	c-4.12-6.66-7.5-13.76-10.01-21.2c-2.84-8.42-4.56-17.2-5.14-26.06c-0.33-4.86-0.31-9.74,0.01-14.61
	c1.01-13.68,4.46-27.11,9.82-39.73c2.77-6.52,6.04-12.83,9.75-18.86c0.23-0.37,0.47-0.76,0.7-1.14c0.02-0.04,0.09-0.15,0.13-0.21
	c0-0.01,0.01-0.01,0.01-0.02v-0.01c0.01-0.01,0.01-0.01,0.01-0.01c0.07-0.12,0.15-0.23,0.22-0.34c0.51-0.79,1.02-1.58,1.54-2.36
	c0.8-1.2,1.62-2.4,2.48-3.58c-2.59,8.37-3.81,17.2-3.72,25.95c0.09,9.17,1.61,18.35,4.61,27.02c2.93,8.51,7.32,16.45,13.13,23.33
	c5.65,6.7,12.72,12.17,20.76,15.7c0.07,0.03,0.12,0.06,0.19,0.08c-7.35,3.24-14.36,7.28-20.84,12.01
	C144.57,139.7,137.31,146.39,131.49,154.08z M282.81,185.49c-23.32,10.81-48.67,40.82-50.3,43.26H71.04c-1.68,0-3.35-0.01-5.03,0
	c-1.26-1.76-24.26-25.67-27.26-28.03c-0.55-0.43-6.67-4.99-6.67-4.99c-3.99-2.82-8.11-5.48-12.35-7.94
	c4.62-0.07,9.25-0.14,13.87-0.21c10.61-0.15,21.21-0.31,31.81-0.47c12.85-0.19,25.7-0.37,38.56-0.56
	c14.17-0.21,28.34-0.42,42.51-0.63c14.2-0.21,28.41-0.42,42.62-0.62c13.33-0.2,26.67-0.4,40.01-0.59
	c11.2-0.16,22.39-0.33,33.59-0.49c7.74-0.11,15.48-0.23,23.23-0.34C284.89,184.4,283.87,185,282.81,185.49z"/>

</svg>