<svg xmlns="http://www.w3.org/2000/svg" viewBox="0 0 400 130">
<style type="text/css">
    path{fill:#231f20;}
	@media (prefers-color-scheme: dark){path{fill:#f2f3f5}}
</style>

<g>
	<g>
		<path class="st0" d="M54.24,13.36c-0.48,1.66-1.03,3.32-1.66,4.91c-1.29,3.1-2.95,6.04-5.05,8.61c-2.06,2.49-4.61,4.91-7.85,5.47
			c-1.47,0.26-3.06,0.08-4.31-0.83c-1.14-0.83-1.84-2.15-2.25-3.51c-0.77-2.87-0.33-6,0.37-8.83c0.81-3.13,2.1-6.11,3.8-8.83
			c1.66-2.68,3.8-5.21,6.38-6.98c0.04-0.04,0.11,0.04,0.07,0.08c-0.59,0.45-1.14,0.94-1.66,1.47c-2.21,2.15-4.06,4.72-5.49,7.51
			c-1.36,2.64-2.4,5.55-2.95,8.53c-0.48,2.68-0.74,5.81,0.59,8.34c0.66,1.25,1.73,2.19,3.13,2.49c1.47,0.3,3.02-0.11,4.35-0.72
			c1.4-0.68,2.62-1.66,3.72-2.76c1.11-1.13,2.1-2.34,3.02-3.62c1.84-2.64,3.24-5.55,4.31-8.61c0.55-1.59,1-3.21,1.4-4.83
			c0.18-0.91,0.37-1.81,0.41-2.76c0.04-0.94-0.07-1.92-0.3-2.83c-0.41-1.51-1.22-2.94-2.54-3.74c-1.47-0.83-3.21-0.64-4.68,0.04
			c-1.51,0.68-2.84,1.81-3.98,3.02c-1.14,1.17-2.14,2.49-3.02,3.93c-0.88,1.4-1.62,2.91-2.25,4.45c-0.66,1.55-1.25,3.13-1.7,4.76
			c-0.07,0.26-0.44,0.15-0.37-0.11c0.22-0.83,0.44-1.62,0.7-2.45c0.48-1.66,1.18-3.28,1.99-4.83c0.77-1.55,1.7-3.06,2.77-4.42
			c1.07-1.36,2.25-2.6,3.65-3.66c1.33-1.02,2.99-1.81,4.68-1.85c1.66,0,3.1,0.79,4.09,2.08c1.07,1.43,1.47,3.25,1.55,4.98
			C55.24,9.74,54.72,11.55,54.24,13.36z"/>
		<path class="st0" d="M78.02,21.74c-1.07,0.87-2.25,1.59-3.5,2.15c-1.07,0.49-2.18,0.87-3.32,1.09c-0.96,0.15-1.99,0.23-2.88-0.15
			c-0.41-0.15-0.74-0.38-1.03-0.68c-0.33-0.42-0.48-0.98-0.77-1.43c-0.48-0.64-1.44-0.08-1.99,0.15c-0.77,0.3-1.55,0.68-2.29,1.13
			c-0.26,0.15-0.44-0.19-0.29-0.42c0.74-0.94,1.33-2,1.81-3.1c0.18-0.38,0.44-1.06,0-1.32c-0.37-0.23-1-0.19-1.4-0.19
			c-1.18,0-2.32,0.23-3.43,0.64c-0.59,1.47-1.55,2.87-2.62,4.04c-0.48,0.53-1.14,1.17-1.88,1.21c-0.92,0.08-1.03-0.91-0.74-1.59
			c0.15-0.42,0.48-0.79,0.77-1.17c0.29-0.38,0.63-0.75,1-1.06c0.74-0.68,1.55-1.21,2.43-1.62c0.26-0.15,0.55-0.26,0.85-0.38
			c0.11-0.3,0.26-0.64,0.37-0.98c0-0.11,0.04-0.23,0.11-0.34c0.04-0.19,0.26-0.11,0.22,0.08c-0.04,0.34-0.15,0.72-0.26,1.09
			c1.4-0.49,2.91-0.64,4.35-0.38c0.48,0.08,0.85,0.38,0.96,0.87c0.07,0.45-0.11,0.94-0.3,1.36c-0.37,0.79-0.77,1.55-1.25,2.27
			c0.48-0.23,1-0.49,1.47-0.68c0.66-0.26,1.55-0.72,2.21-0.26c0.48,0.38,0.59,1.02,0.92,1.47c0.22,0.34,0.52,0.6,0.88,0.75
			c0.85,0.38,1.88,0.26,2.8,0.08c1.18-0.23,2.29-0.68,3.39-1.17c1.07-0.53,2.18-1.09,3.21-1.74C77.99,21.36,78.17,21.63,78.02,21.74
			z M58.37,19.85c-0.3,0.11-0.59,0.26-0.85,0.45c-0.74,0.42-1.4,0.91-1.99,1.51c-0.29,0.3-0.59,0.6-0.85,0.94
			c-0.22,0.3-0.48,0.64-0.59,0.98c-0.07,0.3-0.07,0.6,0.26,0.6c0.3,0,0.55-0.19,0.77-0.34c0.59-0.38,1.07-0.94,1.51-1.47
			C57.3,21.7,57.89,20.8,58.37,19.85z"/>
		<path class="st0" d="M93.17,23.81c0.07,0.11-0.11,0.23-0.22,0.23c-0.37-0.08-0.7-0.45-1-0.68c-0.33-0.26-0.66-0.53-1-0.79
			c-0.66-0.49-1.36-1.02-2.03-1.51c-0.18-0.11-0.22-0.42,0-0.53c0.66-0.3,1.36-0.64,2.03-0.94c0.33-0.15,0.66-0.3,1-0.45
			c0.3-0.11,0.63-0.23,0.88-0.42c0.04-0.04,0.07,0.04,0.07,0.08c-0.29,0.64-1,0.94-1.59,1.21c-0.55,0.3-1.11,0.57-1.7,0.87
			c0.59,0.42,1.14,0.83,1.7,1.28c0.33,0.26,0.66,0.53,1,0.79C92.62,23.17,93.03,23.43,93.17,23.81z M95.42,23.77
			c-0.33-0.08-0.59-0.42-0.81-0.6c-0.3-0.26-0.59-0.49-0.88-0.75c-0.59-0.42-1.22-0.83-1.88-1.17c-0.22-0.15-0.15-0.49,0.07-0.57
			c0.66-0.19,1.29-0.45,1.92-0.75c0.3-0.15,0.59-0.34,0.88-0.53c0.26-0.15,0.48-0.38,0.77-0.49c0.07-0.04,0.15,0.11,0.11,0.19
			c-0.15,0.26-0.48,0.53-0.7,0.72c-0.29,0.23-0.55,0.42-0.85,0.6c-0.41,0.23-0.85,0.45-1.29,0.6c0.44,0.3,0.92,0.6,1.33,0.94
			c0.3,0.23,0.59,0.49,0.88,0.75c0.22,0.19,0.59,0.49,0.66,0.83C95.64,23.7,95.53,23.77,95.42,23.77z"/>
		<path class="st0" d="M125.03,18.27c-2.62,4.83-7.01,8.38-11.69,11.02c-2.62,1.51-5.38,2.72-8.22,3.7
			c-2.88,0.94-5.79,1.62-8.78,1.93c-0.29,0-0.37-0.49-0.07-0.53c0.66-0.11,1.36-0.26,2.03-0.42c5.64-1.13,11.13-3.13,16.11-6.15
			c4.42-2.68,8.59-6.3,10.84-11.17c1.14-2.53,1.66-5.47,0.63-8.12c-0.88-2.27-2.69-4.04-4.72-5.21c-2.14-1.21-4.57-1.66-7.01-1.74
			c-0.37,0.34-0.7,0.68-1.07,1.02c-0.85,0.83-1.66,1.74-2.43,2.6c-2.88,3.25-5.31,6.87-7.23,10.76c-1,1.96-1.84,3.96-2.54,6.04
			c-0.37,1.02-0.66,2.04-0.96,3.06c-0.29,1.06-0.52,2.15-0.81,3.21c-0.07,0.23-0.48,0.19-0.44-0.08c0.15-1.25,0.48-2.45,0.81-3.62
			c0.33-1.21,0.74-2.38,1.14-3.55c1.55-4.11,3.58-8.04,6.08-11.63c1.25-1.77,2.62-3.51,4.09-5.1c0.74-0.79,1.51-1.59,2.32-2.34
			c0.15-0.11,0.29-0.26,0.44-0.42c-0.18,0-0.37,0-0.59,0c-2.65,0.04-5.35,0.42-7.93,1.06c-4.68,1.09-9.33,3.32-12.09,7.47
			c-0.07,0.11-0.3,0-0.22-0.11c0.33-0.53,0.66-0.98,1.03-1.47c3.21-3.89,8.19-5.85,12.94-6.79c2.4-0.45,4.94-0.79,7.48-0.68
			c0.04-0.04,0.11-0.11,0.15-0.15c0.41-0.3,0.77-0.64,1.22-0.87c0.04,0,0.07,0.04,0.04,0.08c-0.22,0.38-0.55,0.68-0.88,0.98
			c2.95,0.15,5.83,0.94,8.19,2.79c1.92,1.47,3.47,3.55,3.91,5.96C127.39,12.76,126.43,15.74,125.03,18.27z"/>
		<path class="st0" d="M136.97,22.19c-0.41,0.42-0.92,0.72-1.4,1.02c-0.44,0.3-0.92,0.53-1.44,0.75c-0.96,0.45-1.95,0.72-2.99,0.83
			c-1.14,0.15-2.65,0.23-3.58-0.57c-0.52-0.42-0.66-1.13-0.52-1.74c0.22-0.87,1-1.47,1.7-1.93c0.81-0.49,1.81-0.91,2.77-0.72
			c0.96,0.23,0.77,1.28,0.22,1.81c-0.59,0.57-1.33,0.87-2.1,0.94c-0.66,0.08-1.29-0.08-1.88-0.42c-0.26,0.45-0.33,1.02,0,1.47
			c0.3,0.38,0.77,0.53,1.22,0.6c1.14,0.19,2.43,0.04,3.54-0.26c0.74-0.23,1.47-0.53,2.18-0.87c0.7-0.38,1.4-0.87,2.14-1.17
			C136.97,21.93,137.05,22.12,136.97,22.19z M127.9,22.01l-0.04,0.04c0.59,0.23,1.29,0.26,1.92,0.11c0.66-0.11,1.55-0.53,1.84-1.21
			c0.07-0.19,0.11-0.42-0.11-0.49c-0.18-0.08-0.41-0.08-0.63-0.08c-0.37,0-0.77,0.15-1.14,0.3C129.08,20.99,128.38,21.4,127.9,22.01
			z"/>
		<path class="st0" d="M153.71,22.01c-1.33,0.98-2.73,1.77-4.24,2.42c-0.96,0.42-1.95,0.75-2.95,0.91
			c-0.88,0.15-1.84,0.23-2.62-0.23c-1-0.49-1.25-1.62-1.14-2.68c0.04-0.38,0.11-0.75,0.22-1.09c-0.18,0.19-0.33,0.38-0.52,0.57
			c-0.7,0.79-1.44,1.47-2.29,2.08c-0.7,0.49-1.47,0.98-2.32,1.17c-0.77,0.15-1.62-0.04-1.92-0.83c-0.15-0.49-0.07-0.98,0.18-1.4
			c0.07-0.19,0.22-0.42,0.41-0.53c0.15-0.15,0.37-0.23,0.52-0.34c0.07-0.04,0.11,0.04,0.07,0.08c-0.33,0.38-0.66,0.75-0.77,1.25
			c-0.11,0.49,0,1.06,0.52,1.25c0.59,0.23,1.29-0.11,1.81-0.34c0.74-0.38,1.4-0.87,2.03-1.43c1.33-1.17,2.47-2.6,3.5-4.04
			c0.04-0.04,0.04-0.04,0.04-0.08c0.22-0.26,0.66,0.11,0.48,0.38c-0.11,0.11-0.22,0.26-0.29,0.42c-0.7,1.02-1.14,2.26-1.14,3.51
			c0,0.94,0.59,1.62,1.47,1.81c0.77,0.15,1.59-0.04,2.36-0.23c2.29-0.6,4.28-1.89,6.45-2.87C153.75,21.67,153.86,21.89,153.71,22.01
			z"/>
		<path class="st0" d="M167.72,22.65c-0.44,0.3-1,0.57-1.51,0.79c-0.48,0.23-0.96,0.45-1.44,0.64c-0.92,0.34-1.84,0.6-2.8,0.72
			c-0.81,0.11-1.77,0.19-2.54-0.19c-0.85-0.42-0.88-1.25-0.55-2.08c-0.55,0.45-1.11,0.87-1.7,1.25c-0.55,0.3-1.14,0.57-1.73,0.75
			c-0.59,0.15-1.25,0.34-1.88,0.19c-1.4-0.34-0.81-2-0.11-2.76c0.77-0.79,1.73-1.36,2.84-1.62c1.11-0.26,2.58-0.49,3.24,0.72
			c0,0.04,0,0.08,0,0.11c0.18-0.19,0.41-0.38,0.63-0.57c0.04-0.04,0.07-0.08,0.07-0.08c0.29-0.26,0.66,0.15,0.41,0.38
			c-0.04,0.08-0.07,0.11-0.15,0.15c-0.63,0.57-1.22,1.47-1.25,2.34c-0.04,1.06,1.59,0.91,2.25,0.83c1.07-0.08,2.1-0.38,3.1-0.75
			c0.52-0.19,1.03-0.38,1.51-0.6c0.48-0.19,1-0.45,1.47-0.57C167.79,22.23,167.91,22.5,167.72,22.65z M159.46,21.21
			c-0.04,0.04-0.07,0.04-0.11-0.04c-0.41-0.53-1.07-0.64-1.66-0.6c-0.63,0.04-1.25,0.19-1.81,0.38c-0.85,0.3-1.73,0.87-2.25,1.62
			c-0.26,0.34-0.63,0.98-0.33,1.4c0.29,0.45,1.07,0.26,1.51,0.15C156.7,23.7,158.1,22.5,159.46,21.21z"/>
		<path class="st0" d="M177.27,22.19c-0.41,0.42-0.92,0.72-1.4,1.02c-0.44,0.3-0.92,0.53-1.44,0.75c-0.96,0.45-1.95,0.72-2.99,0.83
			c-1.14,0.15-2.65,0.23-3.58-0.57c-0.52-0.42-0.66-1.13-0.52-1.74c0.22-0.87,1-1.47,1.7-1.93c0.81-0.49,1.81-0.91,2.77-0.72
			c0.96,0.23,0.77,1.28,0.22,1.81c-0.59,0.57-1.33,0.87-2.1,0.94c-0.66,0.08-1.29-0.08-1.88-0.42c-0.26,0.45-0.33,1.02,0,1.47
			c0.29,0.38,0.77,0.53,1.22,0.6c1.14,0.19,2.43,0.04,3.54-0.26c0.74-0.23,1.47-0.53,2.18-0.87c0.7-0.38,1.4-0.87,2.14-1.17
			C177.27,21.93,177.34,22.12,177.27,22.19z M168.2,22.01l-0.04,0.04c0.59,0.23,1.29,0.26,1.92,0.11c0.66-0.11,1.55-0.53,1.84-1.21
			c0.07-0.19,0.11-0.42-0.11-0.49c-0.18-0.08-0.41-0.08-0.63-0.08c-0.37,0-0.77,0.15-1.14,0.3C169.38,20.99,168.68,21.4,168.2,22.01
			z"/>
		<path class="st0" d="M199.91,22.61c-1.47,0.34-2.84,1.17-4.17,1.89c-1.18,0.64-2.36,1.21-3.65,1.51c-1,0.23-2.32,0.42-2.99-0.6
			c-0.55-0.87-0.44-2.08-0.15-3.06c-0.81,0.76-1.73,1.47-2.69,2.04c-0.85,0.45-1.95,1.02-2.91,0.57c-1.07-0.53-0.85-1.89-0.52-2.83
			c0.07-0.19,0.15-0.38,0.22-0.57c-0.22,0.23-0.44,0.49-0.66,0.72c-0.85,0.91-1.73,1.81-2.73,2.49c-0.81,0.57-2.06,0.94-2.95,0.38
			c-0.85-0.57-0.77-1.77-0.26-2.45c0.15-0.19,0.37-0.38,0.55-0.42c0.15-0.04,0.26,0.11,0.18,0.19c-0.44,0.45-0.88,1.47-0.37,2
			c0.26,0.3,0.66,0.42,1.03,0.42c1.03,0,1.88-0.72,2.62-1.4c1.36-1.25,2.62-2.64,3.69-4.15c0.15-0.23,0.33-0.45,0.48-0.68
			c0.18-0.26,0.59-0.04,0.44,0.23c-0.15,0.23-0.29,0.45-0.44,0.64c-0.59,0.91-1.07,1.89-1.4,2.91c-0.15,0.45-0.29,1.02-0.15,1.51
			c0.15,0.45,0.59,0.68,1.03,0.68c0.96,0,1.88-0.64,2.65-1.17c0.96-0.68,1.84-1.43,2.62-2.26c0.44-0.94,1.07-1.74,1.84-2.42
			c0.18-0.19,0.52,0.04,0.37,0.3c-0.52,0.91-1.14,1.74-1.84,2.49c-0.15,0.3-0.3,0.64-0.37,1.02c-0.22,0.87-0.44,2.49,0.55,2.94
			c0.48,0.23,1.07,0.15,1.59,0.08c0.55-0.11,1.07-0.26,1.59-0.45c1.18-0.45,2.29-1.09,3.39-1.66c1.07-0.53,2.18-0.98,3.36-1.13
			C200.02,22.31,200.05,22.57,199.91,22.61z"/>
		<path class="st0" d="M199.28,25.55c-0.29,0.57-0.77,0.98-1.29,1.32c-0.07,0.04-0.18-0.08-0.15-0.15c0.29-0.45,0.63-0.83,0.85-1.28
			c0.11-0.23,0.22-0.45,0.26-0.68c0.07-0.23,0.04-0.53,0.11-0.75c0.04-0.11,0.22-0.19,0.29-0.08
			C199.76,24.35,199.5,25.1,199.28,25.55z"/>
		<path class="st0" d="M228.4,21.67c-0.55,0.6-1.22,1.09-1.92,1.51c-0.7,0.45-1.44,0.83-2.21,1.09c-0.66,0.23-1.36,0.38-2.06,0.42
			c-0.48,0-1.11-0.08-1.44-0.53c-0.33-0.53-0.15-1.25-0.04-1.81c0.07-0.57,0.33-1.51-0.33-1.81c-0.48-0.23-1.14,0-1.59,0.15
			c-0.77,0.23-1.51,0.6-2.25,0.98c-0.7,0.38-1.36,0.83-1.99,1.36c-0.29,0.26-0.55,0.53-0.85,0.79c-0.22,0.23-0.48,0.42-0.63,0.72
			c-0.11,0.26-0.55,0.08-0.44-0.19c0.92-2.38,2.51-4.68,4.65-6.04c0.07-0.04,0.15,0.08,0.11,0.11c-0.92,0.87-1.77,1.74-2.51,2.76
			c-0.44,0.6-0.81,1.25-1.14,1.93c0.18-0.19,0.37-0.34,0.55-0.49c0.66-0.6,1.4-1.09,2.18-1.47c0.74-0.38,1.47-0.76,2.25-0.98
			c0.48-0.11,1.07-0.26,1.59-0.15c1.44,0.3,0.85,2.15,0.74,3.13c-0.04,0.38-0.04,0.75,0.29,0.94c0.26,0.15,0.59,0.15,0.85,0.15
			c0.74-0.04,1.44-0.23,2.1-0.45c0.74-0.26,1.4-0.64,2.06-1.06c0.63-0.38,1.22-0.87,1.84-1.32
			C228.37,21.29,228.51,21.52,228.4,21.67z"/>
		<path class="st0" d="M242.23,20.46c-2.88,1.09-5.46,2.94-8.41,3.81c-1.22,0.34-2.62,0.6-3.83,0.26c-1,0.49-2.4,0.94-3.1-0.15
			c-0.77-1.13,0.52-2.53,1.33-3.21c0.77-0.64,1.81-1.17,2.84-1.25c0.44-0.11,0.88-0.15,1.29,0.08c0.55,0.26,0.85,0.83,0.63,1.43
			c-0.22,0.6-0.66,1.13-1.07,1.59c-0.41,0.45-0.85,0.83-1.33,1.13c0.7,0.11,1.44,0,2.1-0.11c1.11-0.23,2.18-0.64,3.21-1.09
			c2.06-0.94,4.06-2.15,6.27-2.72C242.3,20.19,242.38,20.42,242.23,20.46z M229.36,24.23c-0.7-0.42-1.25-1.21-0.96-2.11
			c0.11-0.34,0.29-0.6,0.52-0.87c-0.18,0.11-0.33,0.23-0.52,0.38c-0.44,0.42-0.92,0.91-1.14,1.51c-0.11,0.3-0.15,0.64,0,0.94
			c0.18,0.26,0.52,0.42,0.81,0.45C228.51,24.57,228.96,24.42,229.36,24.23z M231.94,20.38c-0.88-0.23-1.99,0.49-2.58,1.13
			c-0.3,0.3-0.55,0.64-0.55,1.06c-0.04,0.49,0.29,0.91,0.66,1.17c0.15,0.08,0.29,0.19,0.44,0.23c0.48-0.26,0.92-0.57,1.29-0.94
			c0.41-0.42,0.77-0.83,1.07-1.28c0.15-0.26,0.37-0.6,0.22-0.94C232.42,20.57,232.16,20.42,231.94,20.38z"/>
		<path class="st0" d="M253.51,21.86c-0.7,0.94-1.62,1.66-2.62,2.27c-1.59,0.94-3.76,1.96-5.57,1.09c-1.55-0.75-2.06-2.6-1.95-4.34
			c-1.29,1.21-2.29,2.72-2.91,4.38c-0.11,0.3-0.59,0.19-0.48-0.11c0.52-1.4,1.11-2.76,1.7-4.08c0.48-1.02,1.07-2.08,2.03-2.72
			c0.15-0.08,0.33,0.15,0.18,0.26c-0.22,0.19-0.44,0.42-0.63,0.6c-0.52,0.64-0.88,1.43-1.22,2.15c-0.07,0.15-0.11,0.26-0.18,0.42
			c0.77-0.98,1.66-1.85,2.69-2.53c0.63-0.42,1.44-0.75,2.18-0.53c0.59,0.19,1.18,0.72,1.11,1.36c0,0.15-0.22,0.19-0.26,0.04
			c-0.26-0.91-1.22-1.17-2.03-0.87c-0.74,0.3-1.44,0.87-2.03,1.43c0.04,0.38,0.07,0.72,0.15,1.06c0.11,0.49,0.22,1.02,0.44,1.47
			c0.37,0.83,1,1.47,1.88,1.66c0.88,0.23,1.81,0,2.62-0.3c0.85-0.3,1.66-0.75,2.43-1.28c0.81-0.49,1.51-1.09,2.29-1.62
			C253.44,21.59,253.58,21.74,253.51,21.86z"/>
		<path class="st0" d="M267.12,22.65c-0.44,0.3-1,0.57-1.51,0.79c-0.48,0.23-0.96,0.45-1.44,0.64c-0.92,0.34-1.84,0.6-2.8,0.72
			c-0.81,0.11-1.77,0.19-2.54-0.19c-0.85-0.42-0.88-1.25-0.55-2.08c-0.55,0.45-1.11,0.87-1.7,1.25c-0.55,0.3-1.14,0.57-1.73,0.75
			c-0.59,0.15-1.25,0.34-1.88,0.19c-1.4-0.34-0.81-2-0.11-2.76c0.77-0.79,1.73-1.36,2.84-1.62c1.11-0.26,2.58-0.49,3.24,0.72
			c0,0.04,0,0.08,0,0.11c0.18-0.19,0.41-0.38,0.63-0.57c0.04-0.04,0.07-0.08,0.07-0.08c0.3-0.26,0.66,0.15,0.41,0.38
			c-0.04,0.08-0.07,0.11-0.15,0.15c-0.63,0.57-1.22,1.47-1.25,2.34c-0.04,1.06,1.59,0.91,2.25,0.83c1.07-0.08,2.1-0.38,3.1-0.75
			c0.52-0.19,1.03-0.38,1.51-0.6c0.48-0.19,1-0.45,1.47-0.57C267.19,22.23,267.3,22.5,267.12,22.65z M258.86,21.21
			c-0.04,0.04-0.07,0.04-0.11-0.04c-0.41-0.53-1.07-0.64-1.66-0.6c-0.63,0.04-1.25,0.19-1.81,0.38c-0.85,0.3-1.73,0.87-2.25,1.62
			c-0.26,0.34-0.63,0.98-0.33,1.4c0.29,0.45,1.07,0.26,1.51,0.15C256.09,23.7,257.49,22.5,258.86,21.21z"/>
		<path class="st0" d="M292.18,21.67c-0.55,0.6-1.22,1.09-1.92,1.51c-0.7,0.45-1.44,0.83-2.21,1.09c-0.66,0.23-1.36,0.38-2.06,0.42
			c-0.48,0-1.11-0.08-1.44-0.53c-0.33-0.53-0.15-1.25-0.04-1.81c0.07-0.57,0.33-1.51-0.33-1.81c-0.48-0.23-1.14,0-1.59,0.15
			c-0.77,0.23-1.51,0.6-2.25,0.98c-0.7,0.38-1.36,0.83-1.99,1.36c-0.29,0.26-0.55,0.53-0.85,0.79c-0.22,0.23-0.48,0.42-0.63,0.72
			c-0.11,0.26-0.55,0.08-0.44-0.19c0.92-2.38,2.51-4.68,4.65-6.04c0.07-0.04,0.15,0.08,0.11,0.11c-0.92,0.87-1.77,1.74-2.51,2.76
			c-0.44,0.6-0.81,1.25-1.14,1.93c0.18-0.19,0.37-0.34,0.55-0.49c0.66-0.6,1.4-1.09,2.18-1.47c0.74-0.38,1.47-0.76,2.25-0.98
			c0.48-0.11,1.07-0.26,1.59-0.15c1.44,0.3,0.85,2.15,0.74,3.13c-0.04,0.38-0.04,0.75,0.3,0.94c0.26,0.15,0.59,0.15,0.85,0.15
			c0.74-0.04,1.44-0.23,2.1-0.45c0.74-0.26,1.4-0.64,2.06-1.06c0.63-0.38,1.22-0.87,1.84-1.32
			C292.15,21.29,292.29,21.52,292.18,21.67z"/>
		<path class="st0" d="M298.75,21.36c-0.37,0.49-0.74,0.94-1.18,1.32c-0.85,0.72-1.84,1.4-2.88,1.7c-0.77,0.23-1.92,0.23-2.18-0.72
			c-0.04-0.19,0.22-0.3,0.3-0.15c0.44,1.06,1.99,0.38,2.65,0.04c1.07-0.53,2.03-1.28,2.8-2.19c0.15-0.23,0.33-0.45,0.48-0.68
			c0.07-0.11,0.22-0.3,0.22-0.45c0-0.19-0.15-0.23-0.3-0.23c-0.52,0-1.07,0.23-1.55,0.38c-1,0.34-1.92,0.87-2.77,1.47
			c-1.84,1.32-3.24,3.1-4.35,5.06c-0.29,0.49-0.55,1.02-0.81,1.51c-0.29,0.68-0.55,1.36-0.85,2.08c-1.25,3.25-2.36,6.61-3.39,9.97
			c-0.07,0.23-0.48,0.15-0.41-0.11c0.11-0.3,0.18-0.6,0.26-0.87c0.81-2.6,1.55-5.21,2.51-7.78c0.41-1.02,0.85-2.08,1.33-3.1
			c0.55-1.28,1.14-2.57,1.73-3.81c1.55-3.13,3.28-6.19,5.49-8.87c0.07-0.11,0.26,0.04,0.18,0.15c-1.14,1.59-2.21,3.21-3.21,4.91
			c-0.74,1.32-1.44,2.64-2.1,3.96c1.47-2.04,3.28-3.77,5.68-4.76c0.52-0.23,1.07-0.38,1.62-0.49c0.41-0.11,1-0.26,1.25,0.19
			C299.59,20.38,299,21.02,298.75,21.36z"/>
		<path class="st0" d="M310.51,22.19c-0.41,0.42-0.92,0.72-1.4,1.02c-0.44,0.3-0.92,0.53-1.44,0.75c-0.96,0.45-1.95,0.72-2.99,0.83
			c-1.14,0.15-2.65,0.23-3.58-0.57c-0.52-0.42-0.66-1.13-0.52-1.74c0.22-0.87,1-1.47,1.7-1.93c0.81-0.49,1.81-0.91,2.77-0.72
			c0.96,0.23,0.77,1.28,0.22,1.81c-0.59,0.57-1.33,0.87-2.1,0.94c-0.66,0.08-1.29-0.08-1.88-0.42c-0.26,0.45-0.33,1.02,0,1.47
			c0.3,0.38,0.77,0.53,1.22,0.6c1.14,0.19,2.43,0.04,3.54-0.26c0.74-0.23,1.47-0.53,2.18-0.87c0.7-0.38,1.4-0.87,2.14-1.17
			C310.51,21.93,310.58,22.12,310.51,22.19z M301.44,22.01l-0.04,0.04c0.59,0.23,1.29,0.26,1.92,0.11c0.66-0.11,1.55-0.53,1.84-1.21
			c0.07-0.19,0.11-0.42-0.11-0.49c-0.18-0.08-0.41-0.08-0.63-0.08c-0.37,0-0.77,0.15-1.14,0.3
			C302.62,20.99,301.92,21.4,301.44,22.01z M302.87,18.23c-0.07-0.19,0-0.34,0.15-0.49c0.07-0.08,0.15-0.19,0.26-0.19
			c0.15-0.08,0.33-0.08,0.44,0.04c0.18,0.11,0.18,0.38,0.07,0.57c-0.11,0.15-0.29,0.3-0.52,0.34
			C303.1,18.53,302.91,18.42,302.87,18.23z M305.53,18.23c-0.07-0.19,0.04-0.38,0.15-0.49c0.07-0.11,0.18-0.23,0.29-0.19
			c0.11-0.08,0.3-0.08,0.41,0c0.18,0.15,0.18,0.38,0.07,0.57c-0.11,0.19-0.3,0.34-0.48,0.38C305.79,18.5,305.6,18.42,305.53,18.23z"
			/>
		<path class="st0" d="M333.73,21.74c-1.07,0.87-2.25,1.59-3.5,2.15c-1.07,0.49-2.18,0.87-3.32,1.09c-0.96,0.15-1.99,0.23-2.88-0.15
			c-0.41-0.15-0.74-0.38-1.03-0.68c-0.33-0.42-0.48-0.98-0.77-1.43c-0.48-0.64-1.44-0.08-1.99,0.15c-0.77,0.3-1.55,0.68-2.29,1.13
			c-0.26,0.15-0.44-0.19-0.29-0.42c0.74-0.94,1.33-2,1.81-3.1c0.18-0.38,0.44-1.06,0-1.32c-0.37-0.23-1-0.19-1.4-0.19
			c-1.18,0-2.32,0.23-3.43,0.64c-0.59,1.47-1.55,2.87-2.62,4.04c-0.48,0.53-1.14,1.17-1.88,1.21c-0.92,0.08-1.03-0.91-0.74-1.59
			c0.15-0.42,0.48-0.79,0.77-1.17c0.29-0.38,0.63-0.75,1-1.06c0.74-0.68,1.55-1.21,2.43-1.62c0.26-0.15,0.55-0.26,0.85-0.38
			c0.11-0.3,0.26-0.64,0.37-0.98c0-0.11,0.04-0.23,0.11-0.34c0.04-0.19,0.26-0.11,0.22,0.08c-0.04,0.34-0.15,0.72-0.26,1.09
			c1.4-0.49,2.91-0.64,4.35-0.38c0.48,0.08,0.85,0.38,0.96,0.87c0.07,0.45-0.11,0.94-0.3,1.36c-0.37,0.79-0.77,1.55-1.25,2.27
			c0.48-0.23,1-0.49,1.47-0.68c0.66-0.26,1.55-0.72,2.21-0.26c0.48,0.38,0.59,1.02,0.92,1.47c0.22,0.34,0.52,0.6,0.88,0.75
			c0.85,0.38,1.88,0.26,2.8,0.08c1.18-0.23,2.29-0.68,3.39-1.17c1.07-0.53,2.18-1.09,3.21-1.74
			C333.7,21.36,333.88,21.63,333.73,21.74z M314.08,19.85c-0.29,0.11-0.59,0.26-0.85,0.45c-0.74,0.42-1.4,0.91-1.99,1.51
			c-0.29,0.3-0.59,0.6-0.85,0.94c-0.22,0.3-0.48,0.64-0.59,0.98c-0.07,0.3-0.07,0.6,0.26,0.6c0.3,0,0.55-0.19,0.77-0.34
			c0.59-0.38,1.07-0.94,1.51-1.47C313.01,21.7,313.6,20.8,314.08,19.85z"/>
		<path class="st0" d="M338.9,19.21c-0.63,0.23-1.29,0.6-1.92,0.91c-0.37,0.23-0.63,0.42-0.96,0.68c-0.26,0.15-0.55,0.45-0.88,0.49
			c-0.15-0.04-0.22-0.11-0.18-0.26c0.07-0.38,0.52-0.57,0.77-0.75c0.33-0.23,0.59-0.45,0.88-0.64c0.48-0.26,0.96-0.53,1.47-0.75
			c-0.41-0.26-0.81-0.49-1.22-0.79c-0.29-0.23-0.55-0.45-0.77-0.68c-0.26-0.23-0.55-0.49-0.66-0.79c-0.04-0.04,0.04-0.19,0.15-0.15
			c0.29,0.11,0.55,0.42,0.77,0.6c0.26,0.19,0.48,0.42,0.77,0.6c0.55,0.34,1.18,0.68,1.81,0.98
			C339.15,18.68,339.15,19.06,338.9,19.21z M341.92,19.33c-0.77,0.42-1.51,0.83-2.21,1.25c-0.41,0.3-0.81,0.49-1.14,0.72
			c-0.26,0.19-0.63,0.49-0.96,0.57c-0.15-0.04-0.29-0.15-0.26-0.3c0.22-0.3,0.59-0.57,0.96-0.72c0.29-0.26,0.7-0.45,1.03-0.72
			c0.63-0.38,1.29-0.68,1.81-1.09c-0.48-0.38-1-0.64-1.55-1.02c-0.55-0.34-1.22-0.75-1.4-1.4c-0.07-0.04,0.04-0.08,0.07-0.04
			c0.26,0.26,0.55,0.42,0.85,0.53c0.29,0.19,0.59,0.34,0.85,0.57c0.7,0.34,1.33,0.75,1.99,1.13
			C342.14,18.95,342.07,19.25,341.92,19.33z"/>
	</g>
	<g>
		<path class="st0" d="M80.47,54.01c-0.41,0.6-0.77,1.21-1.11,1.85c-1.25,2.45-2.18,5.06-3.28,7.59c-0.26,0.6-0.52,1.21-0.81,1.81
			c0.85,0.08,1.7,0.3,2.51,0.6c0.11,0.08,0.11,0.26-0.04,0.26c-0.55-0.08-1.07-0.11-1.62-0.15c-0.37-0.04-0.74-0.08-1.11-0.08
			c-0.52,1.06-1.03,2.11-1.55,3.17c-1.95,3.81-4.31,7.62-7.56,10.38c-1.55,1.36-3.32,2.42-5.27,3.02c-1,0.3-2.14,0.49-3.13,0.08
			c-1.14-0.45-1.51-1.66-1.51-2.87c0.07-2.64,1.51-5.06,3.13-7.02c1.51-1.85,3.32-3.4,5.35-4.64c1.99-1.25,4.17-2.15,6.45-2.57
			c1.25-0.23,2.54-0.34,3.8-0.26c0.59-1.32,1.18-2.68,1.73-4.08c0.63-1.43,1.18-2.91,1.88-4.34c-0.26,0.26-0.52,0.49-0.77,0.72
			c-0.48,0.42-0.96,0.83-1.47,1.21c-0.52,0.34-1.11,0.79-1.7,0.91c-0.52,0.08-1-0.26-1.03-0.79c-0.04-0.57,0.33-1.09,0.63-1.55
			c0.81-1.09,1.77-2.08,2.91-2.76c0.48-0.26,1-0.53,1.55-0.6c0.44-0.04,0.85,0.08,1.29,0.23c0.07-0.15,0.18-0.26,0.26-0.38
			C80.18,53.44,80.66,53.7,80.47,54.01z M74.39,65.86c-0.52,0-1.03,0-1.55,0.04c-1.11,0.08-2.18,0.26-3.24,0.57
			c-2.18,0.6-4.24,1.62-6.08,2.94c-1.88,1.32-3.58,2.98-4.9,4.91c-0.74,1.06-1.33,2.19-1.7,3.4c-0.18,0.6-0.29,1.25-0.33,1.89
			c0,0.6,0.04,1.28,0.41,1.81c0.63,0.91,1.92,0.87,2.88,0.68c0.92-0.23,1.88-0.6,2.73-1.06c1.73-0.91,3.28-2.19,4.61-3.62
			c2.84-3.02,4.9-6.76,6.71-10.53C74.1,66.54,74.24,66.2,74.39,65.86z M79.63,54.31c-0.44-0.08-0.92-0.15-1.36,0
			c-0.55,0.15-1.03,0.49-1.51,0.83c-0.96,0.64-1.77,1.51-2.43,2.49c-0.22,0.3-0.66,0.94-0.41,1.32c0.29,0.45,1.14-0.23,1.44-0.42
			C77.01,57.44,78.48,56.01,79.63,54.31z"/>
		<path class="st0" d="M96.88,54.69c-2.88,1.09-5.46,2.94-8.41,3.81c-1.22,0.34-2.62,0.6-3.83,0.26c-1,0.49-2.4,0.94-3.1-0.15
			c-0.77-1.13,0.52-2.53,1.33-3.21c0.77-0.64,1.81-1.17,2.84-1.25c0.44-0.11,0.88-0.15,1.29,0.08c0.55,0.26,0.85,0.83,0.63,1.43
			c-0.22,0.6-0.66,1.13-1.07,1.59c-0.41,0.45-0.85,0.83-1.33,1.13c0.7,0.11,1.44,0,2.1-0.11c1.11-0.23,2.18-0.64,3.21-1.09
			c2.06-0.94,4.06-2.15,6.27-2.72C96.95,54.42,97.03,54.65,96.88,54.69z M84.01,58.46c-0.7-0.42-1.25-1.21-0.96-2.11
			c0.11-0.34,0.3-0.6,0.52-0.87c-0.18,0.11-0.33,0.23-0.52,0.38c-0.44,0.42-0.92,0.91-1.14,1.51c-0.11,0.3-0.15,0.64,0,0.94
			c0.18,0.26,0.52,0.42,0.81,0.45C83.16,58.8,83.61,58.65,84.01,58.46z M86.59,54.61c-0.88-0.23-1.99,0.49-2.58,1.13
			c-0.3,0.3-0.55,0.64-0.55,1.06c-0.04,0.49,0.29,0.91,0.66,1.17c0.15,0.08,0.29,0.19,0.44,0.23c0.48-0.26,0.92-0.57,1.29-0.94
			c0.41-0.42,0.77-0.83,1.07-1.28c0.15-0.26,0.37-0.6,0.22-0.94C87.07,54.8,86.81,54.65,86.59,54.61z"/>
		<path class="st0" d="M110.78,58.82c0.07,0.11-0.11,0.23-0.22,0.23c-0.37-0.08-0.7-0.45-1-0.68c-0.33-0.26-0.66-0.53-1-0.79
			c-0.66-0.49-1.36-1.02-2.03-1.51c-0.18-0.11-0.22-0.42,0-0.53c0.66-0.3,1.36-0.64,2.03-0.94c0.33-0.15,0.66-0.3,1-0.45
			c0.3-0.11,0.63-0.23,0.88-0.42c0.04-0.04,0.07,0.04,0.07,0.08c-0.29,0.64-1,0.94-1.59,1.21c-0.55,0.3-1.11,0.57-1.7,0.87
			c0.59,0.42,1.14,0.83,1.7,1.28c0.33,0.26,0.66,0.53,1,0.79C110.23,58.18,110.63,58.44,110.78,58.82z M113.03,58.78
			c-0.33-0.08-0.59-0.42-0.81-0.6c-0.3-0.26-0.59-0.49-0.88-0.75c-0.59-0.42-1.22-0.83-1.88-1.17c-0.22-0.15-0.15-0.49,0.07-0.57
			c0.66-0.19,1.29-0.45,1.92-0.75c0.29-0.15,0.59-0.34,0.88-0.53c0.26-0.15,0.48-0.38,0.77-0.49c0.07-0.04,0.15,0.11,0.11,0.19
			c-0.15,0.26-0.48,0.53-0.7,0.72c-0.3,0.23-0.55,0.42-0.85,0.6c-0.41,0.23-0.85,0.45-1.29,0.6c0.44,0.3,0.92,0.6,1.33,0.94
			c0.29,0.23,0.59,0.49,0.88,0.75c0.22,0.19,0.59,0.49,0.66,0.83C113.25,58.71,113.14,58.78,113.03,58.78z"/>
		<path class="st0" d="M142.63,52.5c-2.62,4.83-7.01,8.38-11.69,11.02c-2.62,1.51-5.38,2.72-8.22,3.7
			c-2.88,0.94-5.79,1.62-8.78,1.93c-0.29,0-0.37-0.49-0.07-0.53c0.66-0.11,1.36-0.26,2.03-0.42c5.64-1.13,11.13-3.13,16.11-6.15
			c4.42-2.68,8.59-6.3,10.84-11.17c1.14-2.53,1.66-5.47,0.63-8.12c-0.88-2.27-2.69-4.04-4.72-5.21c-2.14-1.21-4.57-1.66-7.01-1.74
			c-0.37,0.34-0.7,0.68-1.07,1.02c-0.85,0.83-1.66,1.74-2.43,2.6c-2.88,3.25-5.31,6.87-7.23,10.76c-1,1.96-1.84,3.96-2.54,6.04
			c-0.37,1.02-0.66,2.04-0.96,3.06c-0.3,1.06-0.52,2.15-0.81,3.21c-0.07,0.23-0.48,0.19-0.44-0.08c0.15-1.25,0.48-2.45,0.81-3.62
			c0.33-1.21,0.74-2.38,1.14-3.55c1.55-4.11,3.58-8.04,6.08-11.63c1.25-1.77,2.62-3.51,4.09-5.1c0.74-0.79,1.51-1.59,2.32-2.34
			c0.15-0.11,0.29-0.26,0.44-0.42c-0.18,0-0.37,0-0.59,0c-2.65,0.04-5.35,0.42-7.93,1.06c-4.68,1.09-9.33,3.32-12.09,7.47
			c-0.07,0.11-0.3,0-0.22-0.11c0.33-0.53,0.66-0.98,1.03-1.47c3.21-3.89,8.19-5.85,12.94-6.79c2.4-0.45,4.94-0.79,7.48-0.68
			c0.04-0.04,0.11-0.11,0.15-0.15c0.41-0.3,0.77-0.64,1.22-0.87c0.04,0,0.07,0.04,0.04,0.08c-0.22,0.38-0.55,0.68-0.88,0.98
			c2.95,0.15,5.83,0.94,8.19,2.79c1.92,1.47,3.47,3.55,3.91,5.96C144.99,46.99,144.03,49.97,142.63,52.5z"/>
		<path class="st0" d="M154.58,56.42c-0.41,0.42-0.92,0.72-1.4,1.02c-0.44,0.3-0.92,0.53-1.44,0.75c-0.96,0.45-1.95,0.72-2.99,0.83
			c-1.14,0.15-2.65,0.23-3.58-0.57c-0.52-0.42-0.66-1.13-0.52-1.74c0.22-0.87,1-1.47,1.7-1.93c0.81-0.49,1.81-0.91,2.77-0.72
			c0.96,0.23,0.77,1.28,0.22,1.81c-0.59,0.57-1.33,0.87-2.1,0.94c-0.66,0.08-1.29-0.08-1.88-0.42c-0.26,0.45-0.33,1.02,0,1.47
			c0.29,0.38,0.77,0.53,1.22,0.6c1.14,0.19,2.43,0.04,3.54-0.26c0.74-0.23,1.47-0.53,2.18-0.87c0.7-0.38,1.4-0.87,2.14-1.17
			C154.58,56.16,154.65,56.35,154.58,56.42z M145.51,56.23l-0.04,0.04c0.59,0.23,1.29,0.26,1.92,0.11c0.66-0.11,1.55-0.53,1.84-1.21
			c0.07-0.19,0.11-0.42-0.11-0.49c-0.18-0.08-0.41-0.08-0.63-0.08c-0.37,0-0.77,0.15-1.14,0.3
			C146.69,55.21,145.99,55.63,145.51,56.23z"/>
		<path class="st0" d="M171.32,56.23c-1.33,0.98-2.73,1.77-4.24,2.42c-0.96,0.42-1.95,0.75-2.95,0.91
			c-0.88,0.15-1.84,0.23-2.62-0.23c-1-0.49-1.25-1.62-1.14-2.68c0.04-0.38,0.11-0.75,0.22-1.09c-0.18,0.19-0.33,0.38-0.52,0.57
			c-0.7,0.79-1.44,1.47-2.29,2.08c-0.7,0.49-1.47,0.98-2.32,1.17c-0.77,0.15-1.62-0.04-1.92-0.83c-0.15-0.49-0.07-0.98,0.18-1.4
			c0.07-0.19,0.22-0.42,0.41-0.53c0.15-0.15,0.37-0.23,0.52-0.34c0.07-0.04,0.11,0.04,0.07,0.08c-0.33,0.38-0.66,0.75-0.77,1.25
			c-0.11,0.49,0,1.06,0.52,1.25c0.59,0.23,1.29-0.11,1.81-0.34c0.74-0.38,1.4-0.87,2.03-1.43c1.33-1.17,2.47-2.6,3.5-4.04
			c0.04-0.04,0.04-0.04,0.04-0.08c0.22-0.26,0.66,0.11,0.48,0.38c-0.11,0.11-0.22,0.26-0.3,0.42c-0.7,1.02-1.14,2.26-1.14,3.51
			c0,0.94,0.59,1.62,1.47,1.81c0.77,0.15,1.59-0.04,2.36-0.23c2.29-0.6,4.28-1.89,6.45-2.87C171.35,55.89,171.46,56.12,171.32,56.23
			z"/>
		<path class="st0" d="M185.33,56.88c-0.44,0.3-1,0.57-1.51,0.79c-0.48,0.23-0.96,0.45-1.44,0.64c-0.92,0.34-1.84,0.6-2.8,0.72
			c-0.81,0.11-1.77,0.19-2.54-0.19c-0.85-0.42-0.88-1.25-0.55-2.08c-0.55,0.45-1.11,0.87-1.7,1.25c-0.55,0.3-1.14,0.57-1.73,0.75
			c-0.59,0.15-1.25,0.34-1.88,0.19c-1.4-0.34-0.81-2-0.11-2.76c0.77-0.79,1.73-1.36,2.84-1.62c1.11-0.26,2.58-0.49,3.24,0.72
			c0,0.04,0,0.08,0,0.11c0.18-0.19,0.41-0.38,0.63-0.57c0.04-0.04,0.07-0.08,0.07-0.08c0.29-0.26,0.66,0.15,0.41,0.38
			c-0.04,0.08-0.07,0.11-0.15,0.15c-0.63,0.57-1.22,1.47-1.25,2.34c-0.04,1.06,1.59,0.91,2.25,0.83c1.07-0.08,2.1-0.38,3.1-0.75
			c0.52-0.19,1.03-0.38,1.51-0.6c0.48-0.19,1-0.45,1.47-0.57C185.4,56.46,185.51,56.72,185.33,56.88z M177.07,55.44
			c-0.04,0.04-0.07,0.04-0.11-0.04c-0.41-0.53-1.07-0.64-1.66-0.6c-0.63,0.04-1.25,0.19-1.81,0.38c-0.85,0.3-1.73,0.87-2.25,1.62
			c-0.26,0.34-0.63,0.98-0.33,1.4c0.3,0.45,1.07,0.26,1.51,0.15C174.3,57.93,175.7,56.72,177.07,55.44z"/>
		<path class="st0" d="M194.87,56.42c-0.41,0.42-0.92,0.72-1.4,1.02c-0.44,0.3-0.92,0.53-1.44,0.75c-0.96,0.45-1.95,0.72-2.99,0.83
			c-1.14,0.15-2.65,0.23-3.58-0.57c-0.52-0.42-0.66-1.13-0.52-1.74c0.22-0.87,1-1.47,1.7-1.93c0.81-0.49,1.81-0.91,2.77-0.72
			c0.96,0.23,0.77,1.28,0.22,1.81c-0.59,0.57-1.33,0.87-2.1,0.94c-0.66,0.08-1.29-0.08-1.88-0.42c-0.26,0.45-0.33,1.02,0,1.47
			c0.3,0.38,0.77,0.53,1.22,0.6c1.14,0.19,2.43,0.04,3.54-0.26c0.74-0.23,1.47-0.53,2.18-0.87c0.7-0.38,1.4-0.87,2.14-1.17
			C194.87,56.16,194.95,56.35,194.87,56.42z M185.8,56.23l-0.04,0.04c0.59,0.23,1.29,0.26,1.92,0.11c0.66-0.11,1.55-0.53,1.84-1.21
			c0.07-0.19,0.11-0.42-0.11-0.49c-0.18-0.08-0.41-0.08-0.63-0.08c-0.37,0-0.77,0.15-1.14,0.3
			C186.98,55.21,186.28,55.63,185.8,56.23z"/>
		<path class="st0" d="M217.51,56.84c-1.47,0.34-2.84,1.17-4.17,1.89c-1.18,0.64-2.36,1.21-3.65,1.51c-1,0.23-2.32,0.42-2.99-0.6
			c-0.55-0.87-0.44-2.08-0.15-3.06c-0.81,0.76-1.73,1.47-2.69,2.04c-0.85,0.45-1.95,1.02-2.91,0.57c-1.07-0.53-0.85-1.89-0.52-2.83
			c0.07-0.19,0.15-0.38,0.22-0.57c-0.22,0.23-0.44,0.49-0.66,0.72c-0.85,0.91-1.73,1.81-2.73,2.49c-0.81,0.57-2.06,0.94-2.95,0.38
			c-0.85-0.57-0.77-1.77-0.26-2.45c0.15-0.19,0.37-0.38,0.55-0.42c0.15-0.04,0.26,0.11,0.18,0.19c-0.44,0.45-0.88,1.47-0.37,2
			c0.26,0.3,0.66,0.42,1.03,0.42c1.03,0,1.88-0.72,2.62-1.4c1.36-1.25,2.62-2.64,3.69-4.15c0.15-0.23,0.33-0.45,0.48-0.68
			c0.18-0.26,0.59-0.04,0.44,0.23c-0.15,0.23-0.3,0.45-0.44,0.64c-0.59,0.91-1.07,1.89-1.4,2.91c-0.15,0.45-0.3,1.02-0.15,1.51
			c0.15,0.45,0.59,0.68,1.03,0.68c0.96,0,1.88-0.64,2.65-1.17c0.96-0.68,1.84-1.43,2.62-2.26c0.44-0.94,1.07-1.74,1.84-2.42
			c0.18-0.19,0.52,0.04,0.37,0.3c-0.52,0.91-1.14,1.74-1.84,2.49c-0.15,0.3-0.3,0.64-0.37,1.02c-0.22,0.87-0.44,2.49,0.55,2.94
			c0.48,0.23,1.07,0.15,1.59,0.08c0.55-0.11,1.07-0.26,1.59-0.45c1.18-0.45,2.29-1.09,3.39-1.66c1.07-0.53,2.18-0.98,3.36-1.13
			C217.62,56.54,217.66,56.8,217.51,56.84z"/>
		<path class="st0" d="M242.58,56.88c-0.44,0.3-1,0.57-1.51,0.79c-0.48,0.23-0.96,0.45-1.44,0.64c-0.92,0.34-1.84,0.6-2.8,0.72
			c-0.81,0.11-1.77,0.19-2.54-0.19c-0.85-0.42-0.88-1.25-0.55-2.08c-0.55,0.45-1.11,0.87-1.7,1.25c-0.55,0.3-1.14,0.57-1.73,0.75
			c-0.59,0.15-1.25,0.34-1.88,0.19c-1.4-0.34-0.81-2-0.11-2.76c0.77-0.79,1.73-1.36,2.84-1.62s2.58-0.49,3.24,0.72
			c0,0.04,0,0.08,0,0.11c0.18-0.19,0.41-0.38,0.63-0.57c0.04-0.04,0.07-0.08,0.07-0.08c0.29-0.26,0.66,0.15,0.41,0.38
			c-0.04,0.08-0.07,0.11-0.15,0.15c-0.63,0.57-1.22,1.47-1.25,2.34c-0.04,1.06,1.59,0.91,2.25,0.83c1.07-0.08,2.1-0.38,3.1-0.75
			c0.52-0.19,1.03-0.38,1.51-0.6c0.48-0.19,1-0.45,1.47-0.57C242.65,56.46,242.76,56.72,242.58,56.88z M234.32,55.44
			c-0.04,0.04-0.07,0.04-0.11-0.04c-0.41-0.53-1.07-0.64-1.66-0.6c-0.63,0.04-1.25,0.19-1.81,0.38c-0.85,0.3-1.73,0.87-2.25,1.62
			c-0.26,0.34-0.63,0.98-0.33,1.4c0.29,0.45,1.07,0.26,1.51,0.15C231.56,57.93,232.96,56.72,234.32,55.44z"/>
		<path class="st0" d="M250.21,52.99c-0.3,0.42-0.81,0.72-1.22,0.98c-0.44,0.34-0.88,0.64-1.29,0.98c-0.92,0.68-1.81,1.43-2.69,2.23
			c0.07,0.19,0.15,0.34,0.18,0.49c0.33,0.87,0.81,1.89,1.62,2.38c0.7,0.38,1.51,0.04,1.95-0.6c0.07-0.11,0.26-0.04,0.22,0.11
			c-0.15,0.72-0.88,1.25-1.59,1.25c-0.81,0-1.44-0.64-1.88-1.25c-0.41-0.6-0.7-1.28-0.92-1.96c-0.44,0.42-0.85,0.83-1.25,1.25
			c-1.29,1.4-2.54,2.91-3.58,4.49c-0.07,0.11-0.22,0-0.18-0.11c0.48-0.98,1.03-1.96,1.66-2.83c0.96-1.25,2.03-2.38,3.13-3.43
			c-0.26-0.83-0.41-1.7-0.52-2.57c-0.11-0.94-0.11-1.93-0.04-2.87c0-0.19,0.26-0.19,0.26,0c-0.04,1.06,0.11,2.15,0.3,3.21
			c0.11,0.6,0.26,1.25,0.44,1.85c0.15-0.15,0.33-0.3,0.52-0.45c0.74-0.68,1.51-1.28,2.32-1.89c0.41-0.26,0.81-0.57,1.22-0.83
			c0.37-0.23,0.77-0.53,1.22-0.57C250.17,52.8,250.25,52.91,250.21,52.99z"/>
		<path class="st0" d="M264.96,56.69c-0.48,0.23-0.92,0.53-1.36,0.79c-3.02,1.81-5.75,4-8.22,6.49c-0.48,1.7-0.96,3.89-1.44,5.13
			s-0.48,1.25-1.44,3.66c-0.96,2.3-1.84,4.72-3.36,6.72c-0.63,0.91-1.44,1.81-2.54,2c-0.48,0.08-0.96,0-1.33-0.3
			c-0.37-0.26-0.52-0.72-0.59-1.17c-0.15-1.13,0.22-2.34,0.52-3.4c0.41-1.28,0.92-2.49,1.51-3.66c2.32-4.63,5.66-6.91,6.34-7.6
			c0.68-0.69,1.25-1.2,1.84-1.77c0.7-2.42,1.41-4.6,2.4-6.86c-0.3,0.34-0.59,0.64-0.88,0.94c-0.52,0.53-1.07,1.02-1.62,1.47
			c-0.55,0.42-1.11,0.83-1.7,1.13c-0.81,0.45-2.4,0.75-2.62-0.53c-0.15-0.72,0.3-1.51,0.59-2.11c0.29-0.64,0.7-1.25,1.14-1.85
			c0.41-0.6,0.88-1.21,1.4-1.77c0.26-0.26,0.52-0.53,0.85-0.75c0.26-0.23,0.59-0.38,0.92-0.53c0.07,0,0.11,0.04,0.07,0.08
			c-0.29,0.26-0.55,0.57-0.85,0.83c-0.3,0.23-0.55,0.49-0.77,0.75c-0.52,0.57-1,1.25-1.44,1.89c-0.33,0.49-0.66,1.06-0.92,1.62
			c-0.15,0.3-0.29,0.64-0.41,0.98c-0.11,0.3-0.22,0.68-0.04,0.98c0.22,0.42,0.81,0.3,1.22,0.23c0.55-0.19,1.03-0.53,1.47-0.87
			c2.14-1.51,3.91-3.51,5.31-5.78c0.18-0.3,0.66-0.04,0.48,0.3c-0.3,0.49-0.59,0.98-0.85,1.47c-1.29,2.45-2.21,5.1-2.99,7.78
			c1.03-1.06,2.18-2.04,3.32-2.94c0.92-0.72,1.88-1.4,2.84-2.04c0.96-0.6,1.99-1.06,2.99-1.55
			C264.96,56.38,265.11,56.61,264.96,56.69z M254.08,66.54c0.15-0.57,0.3-1.13,0.48-1.7c-0.48,0.45-1.31,0.98-1.76,1.47
			c-3.13,3.29-4.25,3.7-6.13,7.89c-0.52,1.17-1,2.42-1.25,3.7c-0.11,0.53-0.22,1.09-0.22,1.66c0,0.42,0.04,0.91,0.41,1.21
			c0.41,0.3,1,0.19,1.4,0c0.52-0.23,0.88-0.6,1.25-1.02c0.77-0.91,1.36-1.96,1.92-3.02c0.52-1.09,0.96-2.23,1.44-3.32
			c0.52-1.21,1-2.42,1.4-3.66C253.82,67.48,253.42,68.84,254.08,66.54z"/>
		<path class="st0" d="M274.65,56.42c-0.41,0.42-0.92,0.72-1.4,1.02c-0.44,0.3-0.92,0.53-1.44,0.75c-0.96,0.45-1.95,0.72-2.99,0.83
			c-1.14,0.15-2.65,0.23-3.58-0.57c-0.52-0.42-0.66-1.13-0.52-1.74c0.22-0.87,1-1.47,1.7-1.93c0.81-0.49,1.81-0.91,2.77-0.72
			c0.96,0.23,0.77,1.28,0.22,1.81c-0.59,0.57-1.33,0.87-2.1,0.94c-0.66,0.08-1.29-0.08-1.88-0.42c-0.26,0.45-0.33,1.02,0,1.47
			c0.29,0.38,0.77,0.53,1.22,0.6c1.14,0.19,2.43,0.04,3.54-0.26c0.74-0.23,1.47-0.53,2.18-0.87c0.7-0.38,1.4-0.87,2.14-1.17
			C274.65,56.16,274.73,56.35,274.65,56.42z M265.58,56.23l-0.04,0.04c0.59,0.23,1.29,0.26,1.92,0.11c0.66-0.11,1.55-0.53,1.84-1.21
			c0.07-0.19,0.11-0.42-0.11-0.49c-0.18-0.08-0.41-0.08-0.63-0.08c-0.37,0-0.77,0.15-1.14,0.3
			C266.76,55.21,266.06,55.63,265.58,56.23z"/>
		<path class="st0" d="M288.11,56.99c-1.07,0.91-2.25,1.62-3.5,2.15c-1.07,0.45-2.32,0.79-3.5,0.72c-0.92-0.04-1.92-0.49-2.18-1.51
			c-0.22-0.79,0.07-1.62,0.44-2.34c-0.66,0.26-1.4,0.45-2.1,0.6c-0.92,0.19-1.88,0.42-2.73,0.91c-0.18,0.11-0.37,0.26-0.55,0.42
			c-0.33,0.53-0.63,1.09-0.92,1.66c-0.15,0.23-0.59,0.15-0.55-0.15c0.07-0.91,0.55-1.55,1.18-2.08c0.22-0.34,0.44-0.72,0.66-1.06
			c0.3-0.49,0.59-1.02,0.92-1.51c0.15-0.26,0.3-0.49,0.44-0.75c0.15-0.19,0.26-0.45,0.44-0.6c0.07-0.08,0.26-0.04,0.22,0.11
			c-0.04,0.26-0.18,0.53-0.33,0.75c-0.15,0.26-0.26,0.53-0.41,0.79c-0.29,0.49-0.59,0.98-0.88,1.47c-0.04,0.08-0.07,0.15-0.11,0.19
			c0.55-0.26,1.14-0.45,1.66-0.57c1.03-0.26,2.14-0.42,3.1-0.87c0.18-0.11,0.37-0.19,0.55-0.3c0.15-0.3,0.33-0.57,0.48-0.83
			c0.29-0.45,0.66-0.83,1.18-1.02c0.26-0.08,0.44,0.23,0.33,0.45c-0.37,0.72-0.92,1.36-1.59,1.81c-0.15,0.23-0.26,0.45-0.41,0.68
			c-0.37,0.72-0.81,1.7-0.33,2.49c0.48,0.76,1.62,0.76,2.4,0.64c2.18-0.26,4.02-1.43,5.86-2.57
			C288.07,56.57,288.29,56.84,288.11,56.99z"/>
		<path class="st0" d="M301.97,56.99c-1.07,0.91-2.25,1.62-3.5,2.15c-1.07,0.45-2.32,0.79-3.5,0.72c-0.92-0.04-1.92-0.49-2.18-1.51
			c-0.22-0.79,0.07-1.62,0.44-2.34c-0.66,0.26-1.4,0.45-2.1,0.6c-0.92,0.19-1.88,0.42-2.73,0.91c-0.18,0.11-0.37,0.26-0.55,0.42
			c-0.33,0.53-0.63,1.09-0.92,1.66c-0.15,0.23-0.59,0.15-0.55-0.15c0.07-0.91,0.55-1.55,1.18-2.08c0.22-0.34,0.44-0.72,0.66-1.06
			c0.29-0.49,0.59-1.02,0.92-1.51c0.15-0.26,0.29-0.49,0.44-0.75c0.15-0.19,0.26-0.45,0.44-0.6c0.07-0.08,0.26-0.04,0.22,0.11
			c-0.04,0.26-0.18,0.53-0.33,0.75c-0.15,0.26-0.26,0.53-0.41,0.79c-0.29,0.49-0.59,0.98-0.88,1.47c-0.04,0.08-0.07,0.15-0.11,0.19
			c0.55-0.26,1.14-0.45,1.66-0.57c1.03-0.26,2.14-0.42,3.1-0.87c0.18-0.11,0.37-0.19,0.55-0.3c0.15-0.3,0.33-0.57,0.48-0.83
			c0.29-0.45,0.66-0.83,1.18-1.02c0.26-0.08,0.44,0.23,0.33,0.45c-0.37,0.72-0.92,1.36-1.59,1.81c-0.15,0.23-0.26,0.45-0.41,0.68
			c-0.37,0.72-0.81,1.7-0.33,2.49c0.48,0.76,1.62,0.76,2.4,0.64c2.18-0.26,4.02-1.43,5.86-2.57
			C301.94,56.57,302.16,56.84,301.97,56.99z"/>
		<path class="st0" d="M316.9,54.69c-2.88,1.09-5.46,2.94-8.41,3.81c-1.22,0.34-2.62,0.6-3.83,0.26c-1,0.49-2.4,0.94-3.1-0.15
			c-0.77-1.13,0.52-2.53,1.33-3.21c0.77-0.64,1.81-1.17,2.84-1.25c0.44-0.11,0.88-0.15,1.29,0.08c0.55,0.26,0.85,0.83,0.63,1.43
			c-0.22,0.6-0.66,1.13-1.07,1.59c-0.41,0.45-0.85,0.83-1.33,1.13c0.7,0.11,1.44,0,2.1-0.11c1.11-0.23,2.18-0.64,3.21-1.09
			c2.06-0.94,4.06-2.15,6.27-2.72C316.98,54.42,317.05,54.65,316.9,54.69z M304.04,58.46c-0.7-0.42-1.25-1.21-0.96-2.11
			c0.11-0.34,0.3-0.6,0.52-0.87c-0.18,0.11-0.33,0.23-0.52,0.38c-0.44,0.42-0.92,0.91-1.14,1.51c-0.11,0.3-0.15,0.64,0,0.94
			c0.18,0.26,0.52,0.42,0.81,0.45C303.19,58.8,303.63,58.65,304.04,58.46z M306.62,54.61c-0.88-0.23-1.99,0.49-2.58,1.13
			c-0.29,0.3-0.55,0.64-0.55,1.06c-0.04,0.49,0.29,0.91,0.66,1.17c0.15,0.08,0.29,0.19,0.44,0.23c0.48-0.26,0.92-0.57,1.29-0.94
			c0.41-0.42,0.77-0.83,1.07-1.28c0.15-0.26,0.37-0.6,0.22-0.94C307.1,54.8,306.84,54.65,306.62,54.61z"/>
		<path class="st0" d="M320.96,55.54c-0.63,0.23-1.29,0.6-1.92,0.91c-0.37,0.23-0.63,0.42-0.96,0.68c-0.26,0.15-0.55,0.45-0.88,0.49
			c-0.15-0.04-0.22-0.11-0.18-0.26c0.07-0.38,0.52-0.57,0.77-0.75c0.33-0.23,0.59-0.45,0.88-0.64c0.48-0.26,0.96-0.53,1.47-0.75
			c-0.41-0.26-0.81-0.49-1.22-0.79c-0.29-0.23-0.55-0.45-0.77-0.68c-0.26-0.23-0.55-0.49-0.66-0.79c-0.04-0.04,0.04-0.19,0.15-0.15
			c0.29,0.11,0.55,0.42,0.77,0.6c0.26,0.19,0.48,0.42,0.77,0.6c0.55,0.34,1.18,0.68,1.81,0.98
			C321.22,55.01,321.22,55.39,320.96,55.54z M323.98,55.65c-0.77,0.42-1.51,0.83-2.21,1.25c-0.41,0.3-0.81,0.49-1.14,0.72
			c-0.26,0.19-0.63,0.49-0.96,0.57c-0.15-0.04-0.29-0.15-0.26-0.3c0.22-0.3,0.59-0.57,0.96-0.72c0.29-0.26,0.7-0.45,1.03-0.72
			c0.63-0.38,1.29-0.68,1.81-1.09c-0.48-0.38-1-0.64-1.55-1.02c-0.55-0.34-1.22-0.75-1.4-1.4c-0.07-0.04,0.04-0.08,0.07-0.04
			c0.26,0.26,0.55,0.42,0.85,0.53c0.29,0.19,0.59,0.34,0.85,0.57c0.7,0.34,1.33,0.75,1.99,1.13
			C324.21,55.27,324.13,55.58,323.98,55.65z"/>
	</g>
	<g>
		<path class="st0" d="M33.4,102.2c-2.03,1.81-4.57,2.79-7.19,3.06c-5.01,0.53-9.77-1.62-13.53-4.83
			c-3.65-3.06-6.56-7.06-8.74-11.32c-0.92,1.96-1.7,3.96-2.32,6c-0.66,2.3-1.03,4.64-1.18,7.06c0,0.26-0.41,0.26-0.41,0
			c-0.18-2.72,0.41-5.44,1.22-7.96c0.63-2,1.44-3.93,2.32-5.81c-0.15-0.3-0.29-0.6-0.44-0.91c-0.07-0.23,0.04-0.49,0.26-0.49
			c0.3,0.04,0.59,0.04,0.85,0.04c1.03-2.08,2.18-4.08,3.32-6.04c2.54-4.38,5.24-8.64,8.3-12.65c0.04-0.11,0.18,0,0.15,0.11
			c-1.55,2.34-3.1,4.68-4.57,7.1c-2.29,3.7-4.54,7.55-6.49,11.48c1.22-0.04,2.47-0.19,3.65-0.42c3.06-0.6,6.01-1.81,8.59-3.51
			c2.65-1.74,4.94-3.96,6.71-6.61c0.11-0.19,0.33-0.04,0.26,0.15c-1,1.51-2.14,2.94-3.43,4.19c-2.25,2.27-5.01,4-7.96,5.17
			c-2.58,1.02-5.35,1.59-8.11,1.62c-0.15,0.26-0.26,0.53-0.37,0.79c1.14,2.3,2.51,4.53,4.09,6.57c3.02,3.89,6.86,7.4,11.58,8.95
			c4.31,1.43,9.48,0.94,13.05-2.11C33.29,101.56,33.7,101.98,33.4,102.2z M3.91,87.71c0-0.04,0.04-0.04,0.04-0.08
			c-0.04,0-0.04,0-0.07,0C3.91,87.67,3.91,87.67,3.91,87.71z"/>
		<path class="st0" d="M30.41,89.82c-0.37,0.49-0.74,0.94-1.18,1.32c-0.85,0.72-1.84,1.4-2.88,1.7c-0.77,0.23-1.92,0.23-2.18-0.72
			c-0.04-0.19,0.22-0.3,0.3-0.15c0.44,1.06,1.99,0.38,2.65,0.04c1.07-0.53,2.03-1.28,2.8-2.19c0.15-0.23,0.33-0.45,0.48-0.68
			c0.07-0.11,0.22-0.3,0.22-0.45c0-0.19-0.15-0.23-0.29-0.23c-0.52,0-1.07,0.23-1.55,0.38c-1,0.34-1.92,0.87-2.77,1.47
			c-1.84,1.32-3.24,3.1-4.35,5.06c-0.29,0.49-0.55,1.02-0.81,1.51c-0.29,0.68-0.55,1.36-0.85,2.08c-1.25,3.25-2.36,6.61-3.39,9.97
			c-0.07,0.23-0.48,0.15-0.41-0.11c0.11-0.3,0.18-0.6,0.26-0.87c0.81-2.6,1.55-5.21,2.51-7.78c0.41-1.02,0.85-2.08,1.33-3.1
			c0.55-1.28,1.14-2.57,1.73-3.81c1.55-3.13,3.28-6.19,5.49-8.87c0.07-0.11,0.26,0.04,0.18,0.15c-1.14,1.59-2.21,3.21-3.21,4.91
			c-0.74,1.32-1.44,2.64-2.1,3.96c1.47-2.04,3.28-3.77,5.68-4.76c0.52-0.23,1.07-0.38,1.62-0.49c0.41-0.11,1-0.26,1.25,0.19
			C31.26,88.84,30.67,89.48,30.41,89.82z"/>
		<path class="st0" d="M46.16,90.92c-0.48,0.23-0.92,0.53-1.36,0.79c-3.02,1.81-5.75,4-8.22,6.49c-0.48,1.7-0.96,3.43-1.44,5.13
			c-0.7,2.45-1.51,4.91-2.47,7.32c-0.96,2.3-1.84,4.72-3.36,6.72c-0.63,0.91-1.44,1.81-2.54,2c-0.48,0.08-0.96,0-1.33-0.3
			c-0.37-0.26-0.52-0.72-0.59-1.17c-0.15-1.13,0.22-2.34,0.52-3.4c0.41-1.28,0.92-2.49,1.51-3.66c2.14-4.27,4.9-8.19,8.11-11.7
			c0.33-0.38,0.7-0.75,1.03-1.09c0.7-2.42,1.47-4.83,2.47-7.1c-0.29,0.34-0.59,0.64-0.88,0.94c-0.52,0.53-1.07,1.02-1.62,1.47
			c-0.55,0.42-1.11,0.83-1.7,1.13c-0.81,0.45-2.4,0.75-2.62-0.53c-0.15-0.72,0.29-1.51,0.59-2.11c0.3-0.64,0.7-1.25,1.14-1.85
			c0.41-0.6,0.88-1.21,1.4-1.77c0.26-0.26,0.52-0.53,0.85-0.75c0.26-0.23,0.59-0.38,0.92-0.53c0.07,0,0.11,0.04,0.07,0.08
			c-0.29,0.26-0.55,0.57-0.85,0.83c-0.3,0.23-0.55,0.49-0.77,0.75c-0.52,0.57-1,1.25-1.44,1.89c-0.33,0.49-0.66,1.06-0.92,1.62
			c-0.15,0.3-0.29,0.64-0.41,0.98c-0.11,0.3-0.22,0.68-0.04,0.98c0.22,0.42,0.81,0.3,1.22,0.23c0.55-0.19,1.03-0.53,1.47-0.87
			c2.14-1.51,3.91-3.51,5.31-5.78c0.18-0.3,0.66-0.04,0.48,0.3c-0.3,0.49-0.59,0.98-0.85,1.47c-1.29,2.45-2.21,5.1-2.99,7.78
			c1.03-1.06,2.18-2.04,3.32-2.94c0.92-0.72,1.88-1.4,2.84-2.04c0.96-0.6,1.99-1.06,2.99-1.55C46.16,90.62,46.3,90.84,46.16,90.92z
			 M35.28,100.77c0.15-0.57,0.29-1.13,0.48-1.7c-0.48,0.45-0.92,0.98-1.36,1.47c-2.99,3.43-5.68,7.36-7.56,11.55
			c-0.52,1.17-1,2.42-1.25,3.7c-0.11,0.53-0.22,1.09-0.22,1.66c0,0.42,0.04,0.91,0.41,1.21c0.41,0.3,1,0.19,1.4,0
			c0.52-0.23,0.88-0.6,1.25-1.02c0.77-0.91,1.36-1.96,1.92-3.02c0.52-1.09,0.96-2.23,1.44-3.32c0.52-1.21,1-2.42,1.4-3.66
			C33.99,105.37,34.62,103.07,35.28,100.77z"/>
		<path class="st0" d="M56,90.43c-0.44,0.68-1.11,1.17-1.77,1.66c-0.66,0.45-1.36,0.83-2.1,1.13c-0.92,0.42-2.14,0.94-3.17,0.53
			c-0.55-0.23-0.85-0.75-0.63-1.36c0.22-0.64,0.92-1.02,1.47-1.4c0.44-0.3,1.33-0.79,1.33-1.47c0-0.79-1.11-0.79-1.66-0.72
			c-0.66,0.08-1.36,0.34-1.92,0.75c-0.33,0.23-0.59,0.49-0.81,0.87c-0.15,0.3-0.18,0.68-0.26,1.02c0,0.04-0.04,0.04-0.07,0
			c-0.44-0.64,0.07-1.55,0.55-2c0.55-0.53,1.25-0.87,1.99-1.06c0.63-0.15,1.36-0.23,1.99,0.08c0.52,0.3,0.81,0.87,0.59,1.47
			c-0.18,0.64-0.81,1.02-1.33,1.4c-0.33,0.23-0.74,0.45-1.07,0.75c-0.22,0.19-0.52,0.57-0.37,0.91c0.26,0.53,1.18,0.42,1.62,0.3
			c0.52-0.08,1.07-0.3,1.55-0.49c0.7-0.3,1.33-0.68,1.95-1.09c0.66-0.45,1.25-0.98,1.84-1.47C55.89,90.09,56.11,90.24,56,90.43z"/>
		<path class="st0" d="M54.93,94.01c-0.29,0.57-0.77,0.98-1.29,1.32c-0.07,0.04-0.18-0.08-0.15-0.15c0.3-0.45,0.63-0.83,0.85-1.28
			c0.11-0.23,0.22-0.45,0.26-0.68c0.07-0.23,0.04-0.53,0.11-0.75c0.04-0.11,0.22-0.19,0.3-0.08C55.41,92.81,55.15,93.56,54.93,94.01
			z"/>
		<path class="st0" d="M82.76,90.31c-0.7,0.94-1.62,1.66-2.62,2.27c-1.59,0.94-3.76,1.96-5.57,1.09c-1.55-0.75-2.06-2.6-1.95-4.34
			c-1.29,1.21-2.29,2.72-2.91,4.38c-0.11,0.3-0.59,0.19-0.48-0.11c0.52-1.4,1.11-2.76,1.7-4.08c0.48-1.02,1.07-2.08,2.03-2.72
			c0.15-0.08,0.33,0.15,0.18,0.26c-0.22,0.19-0.44,0.42-0.63,0.6c-0.52,0.64-0.88,1.43-1.22,2.15c-0.07,0.15-0.11,0.26-0.18,0.42
			c0.77-0.98,1.66-1.85,2.69-2.53c0.63-0.42,1.44-0.75,2.18-0.53c0.59,0.19,1.18,0.72,1.11,1.36c0,0.15-0.22,0.19-0.26,0.04
			c-0.26-0.91-1.22-1.17-2.03-0.87c-0.74,0.3-1.44,0.87-2.03,1.43c0.04,0.38,0.07,0.72,0.15,1.06c0.11,0.49,0.22,1.02,0.44,1.47
			c0.37,0.83,1,1.47,1.88,1.66c0.88,0.23,1.81,0,2.62-0.3c0.85-0.3,1.66-0.75,2.43-1.28c0.81-0.49,1.51-1.09,2.29-1.62
			C82.69,90.05,82.84,90.2,82.76,90.31z"/>
		<path class="st0" d="M99.54,72.8c-0.63,1.7-1.73,3.17-2.91,4.53c-1.18,1.36-2.51,2.68-3.87,3.85c-2.43,2.04-5.09,3.77-7.96,5.06
			c-0.77,1.55-1.51,3.17-2.06,4.87c0.44-0.49,0.96-0.94,1.47-1.28c0.44-0.3,0.88-0.57,1.36-0.75c0.37-0.15,0.77-0.3,1.14-0.26
			c1.07,0.11,0.92,1.43,0.63,2.19c-0.37,0.98-1.03,1.66-1.99,2.11c-0.88,0.45-1.95,0.53-2.77-0.19c-0.18-0.19,0.07-0.49,0.3-0.34
			c0.81,0.53,1.84,0.3,2.62-0.19c0.74-0.45,1.22-1.09,1.44-1.93c0.07-0.26,0.22-0.87-0.07-1.06c-0.26-0.15-0.63-0.04-0.85,0.08
			c-1.55,0.57-2.88,1.74-3.76,3.17c-0.15,0.26-0.59,0.08-0.52-0.23c0.15-0.49,0.3-0.98,0.44-1.43c0.52-1.55,1.14-3.02,1.81-4.45
			c-0.15,0.08-0.26,0.15-0.41,0.19c-0.07,0.04-0.11-0.08-0.04-0.11c0.18-0.08,0.37-0.15,0.55-0.26c1.03-2.08,2.18-4.08,3.39-6.04
			c1.84-3.06,3.87-6.04,6.53-8.38c0.66-0.6,1.33-1.13,2.06-1.59c0.66-0.45,1.36-0.94,2.18-1.06c0.74-0.08,1.44,0.23,1.62,0.98
			C100.09,71.1,99.8,72.04,99.54,72.8z M98.84,69.78c-0.74-0.19-1.51,0.34-2.14,0.72c-1.4,0.91-2.69,2-3.83,3.25
			c-2.32,2.49-4.13,5.44-5.86,8.42c-0.74,1.25-1.44,2.49-2.06,3.77c2.95-1.55,5.75-3.43,8.26-5.7c1.25-1.17,2.47-2.42,3.54-3.77
			c1.11-1.32,2.18-2.83,2.58-4.53C99.5,71.25,99.72,70.01,98.84,69.78z"/>
		<path class="st0" d="M105.07,91.11c-0.44,0.3-1,0.57-1.51,0.79c-0.48,0.23-0.96,0.45-1.44,0.64c-0.92,0.34-1.84,0.6-2.8,0.72
			c-0.81,0.11-1.77,0.19-2.54-0.19c-0.85-0.42-0.88-1.25-0.55-2.08c-0.55,0.45-1.11,0.87-1.7,1.25c-0.55,0.3-1.14,0.57-1.73,0.75
			c-0.59,0.15-1.25,0.34-1.88,0.19c-1.4-0.34-0.81-2-0.11-2.76c0.77-0.79,1.73-1.36,2.84-1.62c1.11-0.26,2.58-0.49,3.24,0.72
			c0,0.04,0,0.08,0,0.11c0.18-0.19,0.41-0.38,0.63-0.57c0.04-0.04,0.07-0.08,0.07-0.08c0.3-0.26,0.66,0.15,0.41,0.38
			c-0.04,0.08-0.07,0.11-0.15,0.15c-0.63,0.57-1.22,1.47-1.25,2.34c-0.04,1.06,1.59,0.91,2.25,0.83c1.07-0.08,2.1-0.38,3.1-0.75
			c0.52-0.19,1.03-0.38,1.51-0.6c0.48-0.19,1-0.45,1.47-0.57C105.14,90.69,105.25,90.96,105.07,91.11z M96.81,89.67
			c-0.04,0.04-0.07,0.04-0.11-0.04c-0.41-0.53-1.07-0.64-1.66-0.6c-0.63,0.04-1.25,0.19-1.81,0.38c-0.85,0.3-1.73,0.87-2.25,1.62
			c-0.26,0.34-0.63,0.98-0.33,1.4c0.29,0.45,1.07,0.26,1.51,0.15C94.05,92.16,95.45,90.96,96.81,89.67z"/>
		<path class="st0" d="M111.04,88.24c-0.41,0.6-0.77,1.21-1.11,1.85c-1.25,2.45-2.18,5.06-3.28,7.59c-0.26,0.6-0.52,1.21-0.81,1.81
			c0.85,0.08,1.7,0.3,2.51,0.6c0.11,0.08,0.11,0.26-0.04,0.26c-0.55-0.08-1.07-0.11-1.62-0.15c-0.37-0.04-0.74-0.08-1.11-0.08
			c-0.52,1.06-1.03,2.11-1.55,3.17c-1.95,3.81-4.31,7.62-7.56,10.38c-1.55,1.36-3.32,2.42-5.27,3.02c-1,0.3-2.14,0.49-3.13,0.08
			c-1.14-0.45-1.51-1.66-1.51-2.87c0.07-2.64,1.51-5.06,3.13-7.02c1.51-1.85,3.32-3.4,5.35-4.64c1.99-1.25,4.17-2.15,6.45-2.57
			c1.25-0.23,2.54-0.34,3.8-0.26c0.59-1.32,1.18-2.68,1.73-4.08c0.63-1.43,1.18-2.91,1.88-4.34c-0.26,0.26-0.52,0.49-0.77,0.72
			c-0.48,0.42-0.96,0.83-1.47,1.21c-0.52,0.34-1.11,0.79-1.7,0.91c-0.52,0.08-1-0.26-1.03-0.79c-0.04-0.57,0.33-1.09,0.63-1.55
			c0.81-1.09,1.77-2.08,2.91-2.76c0.48-0.26,1-0.53,1.55-0.6c0.44-0.04,0.85,0.08,1.29,0.23c0.07-0.15,0.18-0.26,0.26-0.38
			C110.75,87.67,111.23,87.94,111.04,88.24z M104.96,100.09c-0.52,0-1.03,0-1.55,0.04c-1.11,0.08-2.18,0.26-3.24,0.57
			c-2.18,0.6-4.24,1.62-6.08,2.94c-1.88,1.32-3.58,2.98-4.9,4.91c-0.74,1.06-1.33,2.19-1.7,3.4c-0.18,0.6-0.29,1.25-0.33,1.89
			c0,0.6,0.04,1.28,0.41,1.81c0.63,0.91,1.92,0.87,2.88,0.68c0.92-0.23,1.88-0.6,2.73-1.06c1.73-0.91,3.28-2.19,4.61-3.62
			c2.84-3.02,4.9-6.76,6.71-10.53C104.66,100.77,104.81,100.43,104.96,100.09z M110.19,88.54c-0.44-0.08-0.92-0.15-1.36,0
			c-0.55,0.15-1.03,0.49-1.51,0.83c-0.96,0.64-1.77,1.51-2.43,2.49c-0.22,0.3-0.66,0.94-0.41,1.32c0.3,0.45,1.14-0.23,1.44-0.42
			C107.58,91.67,109.05,90.24,110.19,88.54z"/>
		<path class="st0" d="M120.55,89.82c-0.37,0.49-0.74,0.94-1.18,1.32c-0.85,0.72-1.84,1.4-2.88,1.7c-0.77,0.23-1.92,0.23-2.18-0.72
			c-0.04-0.19,0.22-0.3,0.3-0.15c0.44,1.06,1.99,0.38,2.65,0.04c1.07-0.53,2.03-1.28,2.8-2.19c0.15-0.23,0.33-0.45,0.48-0.68
			c0.07-0.11,0.22-0.3,0.22-0.45c0-0.19-0.15-0.23-0.29-0.23c-0.52,0-1.07,0.23-1.55,0.38c-1,0.34-1.92,0.87-2.77,1.47
			c-1.84,1.32-3.24,3.1-4.35,5.06c-0.29,0.49-0.55,1.02-0.81,1.51c-0.29,0.68-0.55,1.36-0.85,2.08c-1.25,3.25-2.36,6.61-3.39,9.97
			c-0.07,0.23-0.48,0.15-0.41-0.11c0.11-0.3,0.18-0.6,0.26-0.87c0.81-2.6,1.55-5.21,2.51-7.78c0.41-1.02,0.85-2.08,1.33-3.1
			c0.55-1.28,1.14-2.57,1.73-3.81c1.55-3.13,3.28-6.19,5.49-8.87c0.07-0.11,0.26,0.04,0.18,0.15c-1.14,1.59-2.21,3.21-3.21,4.91
			c-0.74,1.32-1.44,2.64-2.1,3.96c1.47-2.04,3.28-3.77,5.68-4.76c0.52-0.23,1.07-0.38,1.62-0.49c0.41-0.11,1-0.26,1.25,0.19
			C121.4,88.84,120.81,89.48,120.55,89.82z"/>
		<path class="st0" d="M137.37,91.11c-0.44,0.3-1,0.57-1.51,0.79c-0.48,0.23-0.96,0.45-1.44,0.64c-0.92,0.34-1.84,0.6-2.8,0.72
			c-0.81,0.11-1.77,0.19-2.54-0.19c-0.85-0.42-0.88-1.25-0.55-2.08c-0.55,0.45-1.11,0.87-1.7,1.25c-0.55,0.3-1.14,0.57-1.73,0.75
			c-0.59,0.15-1.25,0.34-1.88,0.19c-1.4-0.34-0.81-2-0.11-2.76c0.77-0.79,1.73-1.36,2.84-1.62c1.11-0.26,2.58-0.49,3.24,0.72
			c0,0.04,0,0.08,0,0.11c0.18-0.19,0.41-0.38,0.63-0.57c0.04-0.04,0.07-0.08,0.07-0.08c0.29-0.26,0.66,0.15,0.41,0.38
			c-0.04,0.08-0.07,0.11-0.15,0.15c-0.63,0.57-1.22,1.47-1.25,2.34c-0.04,1.06,1.59,0.91,2.25,0.83c1.07-0.08,2.1-0.38,3.1-0.75
			c0.52-0.19,1.03-0.38,1.51-0.6c0.48-0.19,1-0.45,1.47-0.57C137.44,90.69,137.55,90.96,137.37,91.11z M129.11,89.67
			c-0.04,0.04-0.07,0.04-0.11-0.04c-0.41-0.53-1.07-0.64-1.66-0.6c-0.63,0.04-1.25,0.19-1.81,0.38c-0.85,0.3-1.73,0.87-2.25,1.62
			c-0.26,0.34-0.63,0.98-0.33,1.4c0.3,0.45,1.07,0.26,1.51,0.15C126.34,92.16,127.74,90.96,129.11,89.67z"/>
		<path class="st0" d="M161.22,90.2c-1.07,0.87-2.25,1.59-3.5,2.15c-1.07,0.49-2.18,0.87-3.32,1.09c-0.96,0.15-1.99,0.23-2.88-0.15
			c-0.41-0.15-0.74-0.38-1.03-0.68c-0.33-0.42-0.48-0.98-0.77-1.43c-0.48-0.64-1.44-0.08-1.99,0.15c-0.77,0.3-1.55,0.68-2.29,1.13
			c-0.26,0.15-0.44-0.19-0.3-0.42c0.74-0.94,1.33-2,1.81-3.1c0.18-0.38,0.44-1.06,0-1.32c-0.37-0.23-1-0.19-1.4-0.19
			c-1.18,0-2.32,0.23-3.43,0.64c-0.59,1.47-1.55,2.87-2.62,4.04c-0.48,0.53-1.14,1.17-1.88,1.21c-0.92,0.08-1.03-0.91-0.74-1.59
			c0.15-0.42,0.48-0.79,0.77-1.17c0.3-0.38,0.63-0.75,1-1.06c0.74-0.68,1.55-1.21,2.43-1.62c0.26-0.15,0.55-0.26,0.85-0.38
			c0.11-0.3,0.26-0.64,0.37-0.98c0-0.11,0.04-0.23,0.11-0.34c0.04-0.19,0.26-0.11,0.22,0.08c-0.04,0.34-0.15,0.72-0.26,1.09
			c1.4-0.49,2.91-0.64,4.35-0.38c0.48,0.08,0.85,0.38,0.96,0.87c0.07,0.45-0.11,0.94-0.29,1.36c-0.37,0.79-0.77,1.55-1.25,2.27
			c0.48-0.23,1-0.49,1.47-0.68c0.66-0.26,1.55-0.72,2.21-0.26c0.48,0.38,0.59,1.02,0.92,1.47c0.22,0.34,0.52,0.6,0.88,0.75
			c0.85,0.38,1.88,0.26,2.8,0.08c1.18-0.23,2.29-0.68,3.39-1.17c1.07-0.53,2.18-1.09,3.21-1.74
			C161.18,89.82,161.37,90.09,161.22,90.2z M141.57,88.31c-0.29,0.11-0.59,0.26-0.85,0.45c-0.74,0.42-1.4,0.91-1.99,1.51
			c-0.29,0.3-0.59,0.6-0.85,0.94c-0.22,0.3-0.48,0.64-0.59,0.98c-0.07,0.3-0.07,0.6,0.26,0.6c0.29,0,0.55-0.19,0.77-0.34
			c0.59-0.38,1.07-0.94,1.51-1.47C140.5,90.16,141.09,89.26,141.57,88.31z"/>
		<path class="st0" d="M160.18,94.01c-0.29,0.57-0.77,0.98-1.29,1.32c-0.07,0.04-0.18-0.08-0.15-0.15c0.3-0.45,0.63-0.83,0.85-1.28
			c0.11-0.23,0.22-0.45,0.26-0.68c0.07-0.23,0.04-0.53,0.11-0.75c0.04-0.11,0.22-0.19,0.3-0.08
			C160.66,92.81,160.41,93.56,160.18,94.01z"/>
		<path class="st0" d="M189.31,90.13c-0.55,0.6-1.22,1.09-1.92,1.51c-0.7,0.45-1.44,0.83-2.21,1.09c-0.66,0.23-1.36,0.38-2.06,0.42
			c-0.48,0-1.11-0.08-1.44-0.53c-0.33-0.53-0.15-1.25-0.04-1.81c0.07-0.57,0.33-1.51-0.33-1.81c-0.48-0.23-1.14,0-1.59,0.15
			c-0.77,0.23-1.51,0.6-2.25,0.98c-0.7,0.38-1.36,0.83-1.99,1.36c-0.3,0.26-0.55,0.53-0.85,0.79c-0.22,0.23-0.48,0.42-0.63,0.72
			c-0.11,0.26-0.55,0.08-0.44-0.19c0.92-2.38,2.51-4.68,4.65-6.04c0.07-0.04,0.15,0.08,0.11,0.11c-0.92,0.87-1.77,1.74-2.51,2.76
			c-0.44,0.6-0.81,1.25-1.14,1.93c0.18-0.19,0.37-0.34,0.55-0.49c0.66-0.6,1.4-1.09,2.18-1.47c0.74-0.38,1.47-0.76,2.25-0.98
			c0.48-0.11,1.07-0.26,1.59-0.15c1.44,0.3,0.85,2.15,0.74,3.13c-0.04,0.38-0.04,0.75,0.3,0.94c0.26,0.15,0.59,0.15,0.85,0.15
			c0.74-0.04,1.44-0.23,2.1-0.45c0.74-0.26,1.4-0.64,2.06-1.06c0.63-0.38,1.22-0.87,1.84-1.32
			C189.27,89.75,189.42,89.97,189.31,90.13z"/>
		<path class="st0" d="M195.87,89.82c-0.37,0.49-0.74,0.94-1.18,1.32c-0.85,0.72-1.84,1.4-2.88,1.7c-0.77,0.23-1.92,0.23-2.18-0.72
			c-0.04-0.19,0.22-0.3,0.3-0.15c0.44,1.06,1.99,0.38,2.65,0.04c1.07-0.53,2.03-1.28,2.8-2.19c0.15-0.23,0.33-0.45,0.48-0.68
			c0.07-0.11,0.22-0.3,0.22-0.45c0-0.19-0.15-0.23-0.29-0.23c-0.52,0-1.07,0.23-1.55,0.38c-1,0.34-1.92,0.87-2.77,1.47
			c-1.84,1.32-3.24,3.1-4.35,5.06c-0.29,0.49-0.55,1.02-0.81,1.51c-0.29,0.68-0.55,1.36-0.85,2.08c-1.25,3.25-2.36,6.61-3.39,9.97
			c-0.07,0.23-0.48,0.15-0.41-0.11c0.11-0.3,0.18-0.6,0.26-0.87c0.81-2.6,1.55-5.21,2.51-7.78c0.41-1.02,0.85-2.08,1.33-3.1
			c0.55-1.28,1.14-2.57,1.73-3.81c1.55-3.13,3.28-6.19,5.49-8.87c0.07-0.11,0.26,0.04,0.18,0.15c-1.14,1.59-2.21,3.21-3.21,4.91
			c-0.74,1.32-1.44,2.64-2.1,3.96c1.47-2.04,3.28-3.77,5.68-4.76c0.52-0.23,1.07-0.38,1.62-0.49c0.41-0.11,1-0.26,1.25,0.19
			C196.72,88.84,196.13,89.48,195.87,89.82z"/>
		<path class="st0" d="M203.95,87.78c-0.33,0.87-0.92,1.62-1.51,2.26c-0.22,0.23-0.44,0.45-0.66,0.64c0.22,0.57,0.22,1.17,0.07,1.77
			c-0.18,0.79-0.7,1.47-1.14,2.11c-0.52,0.72-1.07,1.4-1.66,2.08c-0.07,0.11-0.26,0-0.18-0.15c0.3-0.53,0.63-1.06,0.96-1.59
			c0.33-0.49,0.66-0.94,1-1.47c0.44-0.72,0.74-1.55,0.48-2.34c-0.29,0.26-0.63,0.53-0.96,0.75c-0.66,0.49-1.47,1.09-2.32,1.21
			c-0.63,0.08-1.33-0.23-1.47-0.94c-0.04-0.42,0.04-0.83,0.29-1.21c0.26-0.34,0.59-0.53,0.96-0.68c0.07-0.04,0.11,0.08,0.07,0.11
			c-0.41,0.19-0.85,0.72-0.92,1.17c-0.07,0.42,0.04,0.87,0.44,1.06c0.66,0.26,1.47-0.3,2.03-0.68c0.55-0.38,1.14-0.79,1.66-1.25
			c-0.04-0.08-0.07-0.15-0.15-0.23c-0.29-0.34-0.59-0.64-0.74-1.09c-0.15-0.42-0.07-0.79,0.15-1.17c0.48-0.68,1.25-1.09,2.06-1.28
			c0.37-0.08,0.88-0.15,1.25,0C204.02,87.07,204.06,87.45,203.95,87.78z M203.25,87.41c-0.22-0.04-0.41,0-0.59,0.04
			c-0.66,0.11-1.4,0.42-1.81,0.98c-0.48,0.72,0.26,1.28,0.66,1.85c0.48-0.49,0.92-1.02,1.29-1.55c0.26-0.34,0.48-0.72,0.63-1.13
			C203.47,87.41,203.43,87.41,203.25,87.41z"/>
		<path class="st0" d="M227.73,91.07c-1.47,0.34-2.84,1.17-4.17,1.89c-1.18,0.64-2.36,1.21-3.65,1.51c-1,0.23-2.32,0.42-2.99-0.6
			c-0.55-0.87-0.44-2.08-0.15-3.06c-0.81,0.76-1.73,1.47-2.69,2.04c-0.85,0.45-1.95,1.02-2.91,0.57c-1.07-0.53-0.85-1.89-0.52-2.83
			c0.07-0.19,0.15-0.38,0.22-0.57c-0.22,0.23-0.44,0.49-0.66,0.72c-0.85,0.91-1.73,1.81-2.73,2.49c-0.81,0.57-2.06,0.94-2.95,0.38
			c-0.85-0.57-0.77-1.77-0.26-2.45c0.15-0.19,0.37-0.38,0.55-0.42c0.15-0.04,0.26,0.11,0.18,0.19c-0.44,0.45-0.88,1.47-0.37,2
			c0.26,0.3,0.66,0.42,1.03,0.42c1.03,0,1.88-0.72,2.62-1.4c1.36-1.25,2.62-2.64,3.69-4.15c0.15-0.23,0.33-0.45,0.48-0.68
			c0.18-0.26,0.59-0.04,0.44,0.23c-0.15,0.23-0.3,0.45-0.44,0.64c-0.59,0.91-1.07,1.89-1.4,2.91c-0.15,0.45-0.3,1.02-0.15,1.51
			c0.15,0.45,0.59,0.68,1.03,0.68c0.96,0,1.88-0.64,2.65-1.17c0.96-0.68,1.84-1.43,2.62-2.26c0.44-0.94,1.07-1.74,1.84-2.42
			c0.18-0.19,0.52,0.04,0.37,0.3c-0.52,0.91-1.14,1.74-1.84,2.49c-0.15,0.3-0.3,0.64-0.37,1.02c-0.22,0.87-0.44,2.49,0.55,2.94
			c0.48,0.23,1.07,0.15,1.59,0.08c0.55-0.11,1.07-0.26,1.59-0.45c1.18-0.45,2.29-1.09,3.39-1.66c1.07-0.53,2.18-0.98,3.36-1.13
			C227.84,90.77,227.88,91.03,227.73,91.07z"/>
		<path class="st0" d="M242.33,88.92c-2.88,1.09-5.46,2.94-8.41,3.81c-1.22,0.34-2.62,0.6-3.83,0.26c-1,0.49-2.4,0.94-3.1-0.15
			c-0.77-1.13,0.52-2.53,1.33-3.21c0.77-0.64,1.81-1.17,2.84-1.25c0.44-0.11,0.88-0.15,1.29,0.08c0.55,0.26,0.85,0.83,0.63,1.43
			c-0.22,0.6-0.66,1.13-1.07,1.59c-0.41,0.45-0.85,0.83-1.33,1.13c0.7,0.11,1.44,0,2.1-0.11c1.11-0.23,2.18-0.64,3.21-1.09
			c2.06-0.94,4.06-2.15,6.27-2.72C242.4,88.65,242.47,88.88,242.33,88.92z M229.46,92.69c-0.7-0.42-1.25-1.21-0.96-2.11
			c0.11-0.34,0.29-0.6,0.52-0.87c-0.18,0.11-0.33,0.23-0.52,0.38c-0.44,0.42-0.92,0.91-1.14,1.51c-0.11,0.3-0.15,0.64,0,0.94
			c0.18,0.26,0.52,0.42,0.81,0.45C228.61,93.03,229.05,92.88,229.46,92.69z M232.04,88.84c-0.88-0.23-1.99,0.49-2.58,1.13
			c-0.29,0.3-0.55,0.64-0.55,1.06c-0.04,0.49,0.29,0.91,0.66,1.17c0.15,0.08,0.3,0.19,0.44,0.23c0.48-0.26,0.92-0.57,1.29-0.94
			c0.41-0.42,0.77-0.83,1.07-1.28c0.15-0.26,0.37-0.6,0.22-0.94C232.52,89.03,232.26,88.88,232.04,88.84z"/>
		<path class="st0" d="M254.01,90.92c-0.48,0.23-0.92,0.53-1.36,0.79c-3.02,1.81-5.75,4-8.22,6.49c-0.48,1.7-0.96,3.43-1.44,5.13
			c-0.7,2.45-1.51,4.91-2.47,7.32c-0.96,2.3-1.84,4.72-3.35,6.72c-0.63,0.91-1.44,1.81-2.54,2c-0.48,0.08-0.96,0-1.33-0.3
			c-0.37-0.26-0.52-0.72-0.59-1.17c-0.15-1.13,0.22-2.34,0.52-3.4c0.41-1.28,0.92-2.49,1.51-3.66c2.14-4.27,4.9-8.19,8.11-11.7
			c0.33-0.38,0.7-0.75,1.03-1.09c0.7-2.42,1.47-4.83,2.47-7.1c-0.29,0.34-0.59,0.64-0.88,0.94c-0.52,0.53-1.07,1.02-1.62,1.47
			c-0.55,0.42-1.11,0.83-1.7,1.13c-0.81,0.45-2.4,0.75-2.62-0.53c-0.15-0.72,0.29-1.51,0.59-2.11c0.29-0.64,0.7-1.25,1.14-1.85
			c0.41-0.6,0.88-1.21,1.4-1.77c0.26-0.26,0.52-0.53,0.85-0.75c0.26-0.23,0.59-0.38,0.92-0.53c0.07,0,0.11,0.04,0.07,0.08
			c-0.29,0.26-0.55,0.57-0.85,0.83c-0.29,0.23-0.55,0.49-0.77,0.75c-0.52,0.57-1,1.25-1.44,1.89c-0.33,0.49-0.66,1.06-0.92,1.62
			c-0.15,0.3-0.29,0.64-0.41,0.98c-0.11,0.3-0.22,0.68-0.04,0.98c0.22,0.42,0.81,0.3,1.22,0.23c0.55-0.19,1.03-0.53,1.47-0.87
			c2.14-1.51,3.91-3.51,5.31-5.78c0.18-0.3,0.66-0.04,0.48,0.3c-0.29,0.49-0.59,0.98-0.85,1.47c-1.29,2.45-2.21,5.1-2.99,7.78
			c1.03-1.06,2.18-2.04,3.32-2.94c0.92-0.72,1.88-1.4,2.84-2.04c0.96-0.6,1.99-1.06,2.99-1.55
			C254.01,90.62,254.16,90.84,254.01,90.92z M243.14,100.77c0.15-0.57,0.29-1.13,0.48-1.7c-0.48,0.45-0.92,0.98-1.36,1.47
			c-2.99,3.43-5.68,7.36-7.56,11.55c-0.52,1.17-1,2.42-1.25,3.7c-0.11,0.53-0.22,1.09-0.22,1.66c0,0.42,0.04,0.91,0.41,1.21
			c0.41,0.3,1,0.19,1.4,0c0.52-0.23,0.88-0.6,1.25-1.02c0.77-0.91,1.36-1.96,1.92-3.02c0.52-1.09,0.96-2.23,1.44-3.32
			c0.52-1.21,1-2.42,1.4-3.66C241.85,105.37,242.47,103.07,243.14,100.77z"/>
		<path class="st0" d="M263.86,90.43c-0.44,0.68-1.11,1.17-1.77,1.66c-0.66,0.45-1.36,0.83-2.1,1.13c-0.92,0.42-2.14,0.94-3.17,0.53
			c-0.55-0.23-0.85-0.75-0.63-1.36c0.22-0.64,0.92-1.02,1.47-1.4c0.44-0.3,1.33-0.79,1.33-1.47c0-0.79-1.11-0.79-1.66-0.72
			c-0.66,0.08-1.36,0.34-1.92,0.75c-0.33,0.23-0.59,0.49-0.81,0.87c-0.15,0.3-0.18,0.68-0.26,1.02c0,0.04-0.04,0.04-0.07,0
			c-0.44-0.64,0.07-1.55,0.55-2c0.55-0.53,1.25-0.87,1.99-1.06c0.63-0.15,1.36-0.23,1.99,0.08c0.52,0.3,0.81,0.87,0.59,1.47
			c-0.18,0.64-0.81,1.02-1.33,1.4c-0.33,0.23-0.74,0.45-1.07,0.75c-0.22,0.19-0.52,0.57-0.37,0.91c0.26,0.53,1.18,0.42,1.62,0.3
			c0.52-0.08,1.07-0.3,1.55-0.49c0.7-0.3,1.33-0.68,1.95-1.09c0.66-0.45,1.25-0.98,1.84-1.47
			C263.75,90.09,263.97,90.24,263.86,90.43z"/>
		<path class="st0" d="M278.38,88.92c-2.88,1.09-5.46,2.94-8.41,3.81c-1.22,0.34-2.62,0.6-3.83,0.26c-1,0.49-2.4,0.94-3.1-0.15
			c-0.77-1.13,0.52-2.53,1.33-3.21c0.77-0.64,1.81-1.17,2.84-1.25c0.44-0.11,0.88-0.15,1.29,0.08c0.55,0.26,0.85,0.83,0.63,1.43
			c-0.22,0.6-0.66,1.13-1.07,1.59c-0.41,0.45-0.85,0.83-1.33,1.13c0.7,0.11,1.44,0,2.1-0.11c1.11-0.23,2.18-0.64,3.21-1.09
			c2.06-0.94,4.06-2.15,6.27-2.72C278.46,88.65,278.53,88.88,278.38,88.92z M265.51,92.69c-0.7-0.42-1.25-1.21-0.96-2.11
			c0.11-0.34,0.3-0.6,0.52-0.87c-0.18,0.11-0.33,0.23-0.52,0.38c-0.44,0.42-0.92,0.91-1.14,1.51c-0.11,0.3-0.15,0.64,0,0.94
			c0.18,0.26,0.52,0.42,0.81,0.45C264.67,93.03,265.11,92.88,265.51,92.69z M268.09,88.84c-0.88-0.23-1.99,0.49-2.58,1.13
			c-0.29,0.3-0.55,0.64-0.55,1.06c-0.04,0.49,0.29,0.91,0.66,1.17c0.15,0.08,0.29,0.19,0.44,0.23c0.48-0.26,0.92-0.57,1.29-0.94
			c0.41-0.42,0.77-0.83,1.07-1.28c0.15-0.26,0.37-0.6,0.22-0.94C268.57,89.03,268.32,88.88,268.09,88.84z"/>
		<path class="st0" d="M293.9,90.47c-1.33,0.98-2.73,1.77-4.24,2.42c-0.96,0.42-1.95,0.75-2.95,0.91c-0.88,0.15-1.84,0.23-2.62-0.23
			c-1-0.49-1.25-1.62-1.14-2.68c0.04-0.38,0.11-0.75,0.22-1.09c-0.18,0.19-0.33,0.38-0.52,0.57c-0.7,0.79-1.44,1.47-2.29,2.08
			c-0.7,0.49-1.47,0.98-2.32,1.17c-0.77,0.15-1.62-0.04-1.92-0.83c-0.15-0.49-0.07-0.98,0.18-1.4c0.07-0.19,0.22-0.42,0.41-0.53
			c0.15-0.15,0.37-0.23,0.52-0.34c0.07-0.04,0.11,0.04,0.07,0.08c-0.33,0.38-0.66,0.75-0.77,1.25c-0.11,0.49,0,1.06,0.52,1.25
			c0.59,0.23,1.29-0.11,1.81-0.34c0.74-0.38,1.4-0.87,2.03-1.43c1.33-1.17,2.47-2.6,3.5-4.04c0.04-0.04,0.04-0.04,0.04-0.08
			c0.22-0.26,0.66,0.11,0.48,0.38c-0.11,0.11-0.22,0.26-0.29,0.42c-0.7,1.02-1.14,2.26-1.14,3.51c0,0.94,0.59,1.62,1.47,1.81
			c0.77,0.15,1.59-0.04,2.36-0.23c2.29-0.6,4.28-1.89,6.45-2.87C293.94,90.13,294.05,90.35,293.9,90.47z"/>
		<path class="st0" d="M300.02,89.94c-0.41,0.34-0.92,0.53-1.36,0.68c-0.52,0.15-1.03,0.26-1.59,0.34c-0.85,0.11-1.7,0.08-2.54-0.04
			c0.41,0.49,0.52,1.17,0.37,1.81c-0.22,0.79-0.88,1.55-1.66,1.77c-0.41,0.11-0.81-0.04-0.96-0.45c-0.18-0.38-0.11-0.87,0-1.25
			c0.44-2.04,2.14-3.51,3.69-4.72c0.18-0.15,0.41,0.15,0.22,0.3c-0.04,0.08-0.11,0.11-0.18,0.19c-0.66,0.57-1.33,1.13-1.92,1.77
			c0.96,0.19,1.95,0.23,2.95,0.08c0.48-0.04,0.96-0.15,1.44-0.3c0.44-0.15,0.88-0.38,1.36-0.49
			C299.99,89.6,300.17,89.82,300.02,89.94z M293.75,90.77c-0.55,0.72-0.96,1.51-1.07,2.45c-0.04,0.23-0.07,0.45,0.04,0.64
			c0.11,0.26,0.41,0.15,0.59,0.04c0.41-0.19,0.74-0.49,0.92-0.87C294.68,92.24,294.46,91.22,293.75,90.77z"/>
		<path class="st0" d="M313.15,91.22c-1.07,0.91-2.25,1.62-3.5,2.15c-1.07,0.45-2.32,0.79-3.5,0.72c-0.92-0.04-1.92-0.49-2.18-1.51
			c-0.22-0.79,0.07-1.62,0.44-2.34c-0.66,0.26-1.4,0.45-2.1,0.6c-0.92,0.19-1.88,0.42-2.73,0.91c-0.18,0.11-0.37,0.26-0.55,0.42
			c-0.33,0.53-0.63,1.09-0.92,1.66c-0.15,0.23-0.59,0.15-0.55-0.15c0.07-0.91,0.55-1.55,1.18-2.08c0.22-0.34,0.44-0.72,0.66-1.06
			c0.3-0.49,0.59-1.02,0.92-1.51c0.15-0.26,0.3-0.49,0.44-0.75c0.15-0.19,0.26-0.45,0.44-0.6c0.07-0.08,0.26-0.04,0.22,0.11
			c-0.04,0.26-0.18,0.53-0.33,0.75c-0.15,0.26-0.26,0.53-0.41,0.79c-0.29,0.49-0.59,0.98-0.88,1.47c-0.04,0.08-0.07,0.15-0.11,0.19
			c0.55-0.26,1.14-0.45,1.66-0.57c1.03-0.26,2.14-0.42,3.1-0.87c0.18-0.11,0.37-0.19,0.55-0.3c0.15-0.3,0.33-0.57,0.48-0.83
			c0.29-0.45,0.66-0.83,1.18-1.02c0.26-0.08,0.44,0.23,0.33,0.45c-0.37,0.72-0.92,1.36-1.59,1.81c-0.15,0.23-0.26,0.45-0.41,0.68
			c-0.37,0.72-0.81,1.7-0.33,2.49c0.48,0.76,1.62,0.76,2.4,0.64c2.18-0.26,4.02-1.43,5.86-2.57
			C313.11,90.8,313.33,91.07,313.15,91.22z"/>
		<path class="st0" d="M329.7,89.56c-0.74,0.94-1.66,1.74-2.69,2.34c-0.85,0.53-1.81,0.91-2.8,1.17c-0.77,0.19-1.59,0.34-2.4,0.11
			c-0.63-0.19-1.25-0.57-1.44-1.25c-0.11-0.26-0.11-0.53-0.04-0.79c-0.48,0.42-0.96,0.79-1.48,1.13c-0.85,0.53-1.77,0.91-2.73,1.13
			c-0.81,0.19-1.81,0.26-2.54-0.26c-0.96-0.68-0.81-1.89-0.37-2.87c0.26-0.53,0.59-0.98,0.96-1.43c0.33-0.38,0.77-0.79,1.29-0.91
			c0.04-0.04,0.07,0.04,0.04,0.08c-0.33,0.45-0.77,0.76-1.11,1.21c-0.37,0.45-0.66,1.02-0.88,1.59c-0.18,0.49-0.26,1.06,0,1.55
			c0.22,0.34,0.55,0.53,0.92,0.6c0.81,0.19,1.7-0.08,2.47-0.34c1.7-0.57,2.99-1.85,4.39-2.98c0.26-0.23,0.66,0.15,0.37,0.42
			c-0.48,0.49-1.18,1.4-0.55,2.08c0.92,1.06,2.69,0.49,3.8,0.15c1.73-0.6,3.21-1.7,4.54-2.98C329.63,89.14,329.81,89.37,329.7,89.56
			z"/>
		<path class="st0" d="M341.09,90.31c-0.7,0.94-1.62,1.66-2.62,2.27c-1.59,0.94-3.76,1.96-5.57,1.09c-1.55-0.75-2.07-2.6-1.95-4.34
			c-1.29,1.21-2.29,2.72-2.91,4.38c-0.11,0.3-0.59,0.19-0.48-0.11c0.52-1.4,1.11-2.76,1.7-4.08c0.48-1.02,1.07-2.08,2.03-2.72
			c0.15-0.08,0.33,0.15,0.18,0.26c-0.22,0.19-0.44,0.42-0.63,0.6c-0.52,0.64-0.88,1.43-1.22,2.15c-0.07,0.15-0.11,0.26-0.18,0.42
			c0.77-0.98,1.66-1.85,2.69-2.53c0.63-0.42,1.44-0.75,2.18-0.53c0.59,0.19,1.18,0.72,1.11,1.36c0,0.15-0.22,0.19-0.26,0.04
			c-0.26-0.91-1.22-1.17-2.03-0.87c-0.74,0.3-1.44,0.87-2.03,1.43c0.04,0.38,0.07,0.72,0.15,1.06c0.11,0.49,0.22,1.02,0.44,1.47
			c0.37,0.83,1,1.47,1.88,1.66c0.88,0.23,1.81,0,2.62-0.3c0.85-0.3,1.66-0.75,2.43-1.28c0.81-0.49,1.51-1.09,2.29-1.62
			C341.02,90.05,341.17,90.2,341.09,90.31z"/>
		<path class="st0" d="M340.02,94.01c-0.3,0.57-0.77,0.98-1.29,1.32c-0.07,0.04-0.18-0.08-0.15-0.15c0.29-0.45,0.63-0.83,0.85-1.28
			c0.11-0.23,0.22-0.45,0.26-0.68c0.07-0.23,0.04-0.53,0.11-0.75c0.04-0.11,0.22-0.19,0.29-0.08
			C340.5,92.81,340.24,93.56,340.02,94.01z"/>
		<path class="st0" d="M367.86,90.31c-0.7,0.94-1.62,1.66-2.62,2.27c-1.59,0.94-3.76,1.96-5.57,1.09c-1.55-0.75-2.06-2.6-1.95-4.34
			c-1.29,1.21-2.29,2.72-2.91,4.38c-0.11,0.3-0.59,0.19-0.48-0.11c0.52-1.4,1.11-2.76,1.7-4.08c0.48-1.02,1.07-2.08,2.03-2.72
			c0.15-0.08,0.33,0.15,0.18,0.26c-0.22,0.19-0.44,0.42-0.63,0.6c-0.52,0.64-0.88,1.43-1.22,2.15c-0.07,0.15-0.11,0.26-0.18,0.42
			c0.77-0.98,1.66-1.85,2.69-2.53c0.63-0.42,1.44-0.75,2.18-0.53c0.59,0.19,1.18,0.72,1.11,1.36c0,0.15-0.22,0.19-0.26,0.04
			c-0.26-0.91-1.22-1.17-2.03-0.87c-0.74,0.3-1.44,0.87-2.03,1.43c0.04,0.38,0.07,0.72,0.15,1.06c0.11,0.49,0.22,1.02,0.44,1.47
			c0.37,0.83,1,1.47,1.88,1.66c0.88,0.23,1.81,0,2.62-0.3c0.85-0.3,1.66-0.75,2.43-1.28c0.81-0.49,1.51-1.09,2.29-1.62
			C367.79,90.05,367.93,90.2,367.86,90.31z"/>
		<path class="st0" d="M374.38,89.82c-0.37,0.49-0.74,0.94-1.18,1.32c-0.85,0.72-1.84,1.4-2.88,1.7c-0.77,0.23-1.92,0.23-2.18-0.72
			c-0.04-0.19,0.22-0.3,0.29-0.15c0.44,1.06,1.99,0.38,2.65,0.04c1.07-0.53,2.03-1.28,2.8-2.19c0.15-0.23,0.33-0.45,0.48-0.68
			c0.07-0.11,0.22-0.3,0.22-0.45c0-0.19-0.15-0.23-0.29-0.23c-0.52,0-1.07,0.23-1.55,0.38c-1,0.34-1.92,0.87-2.77,1.47
			c-1.84,1.32-3.24,3.1-4.35,5.06c-0.29,0.49-0.55,1.02-0.81,1.51c-0.3,0.68-0.55,1.36-0.85,2.08c-1.25,3.25-2.36,6.61-3.39,9.97
			c-0.07,0.23-0.48,0.15-0.41-0.11c0.11-0.3,0.18-0.6,0.26-0.87c0.81-2.6,1.55-5.21,2.51-7.78c0.41-1.02,0.85-2.08,1.33-3.1
			c0.55-1.28,1.14-2.57,1.73-3.81c1.55-3.13,3.28-6.19,5.49-8.87c0.07-0.11,0.26,0.04,0.18,0.15c-1.14,1.59-2.21,3.21-3.21,4.91
			c-0.74,1.32-1.44,2.64-2.1,3.96c1.48-2.04,3.28-3.77,5.68-4.76c0.52-0.23,1.07-0.38,1.62-0.49c0.41-0.11,1-0.26,1.25,0.19
			C375.23,88.84,374.64,89.48,374.38,89.82z"/>
		<path class="st0" d="M390.13,90.92c-0.48,0.23-0.92,0.53-1.36,0.79c-3.02,1.81-5.75,4-8.22,6.49c-0.48,1.7-0.96,3.43-1.44,5.13
			c-0.7,2.45-1.51,4.91-2.47,7.32c-0.96,2.3-1.84,4.72-3.36,6.72c-0.63,0.91-1.44,1.81-2.54,2c-0.48,0.08-0.96,0-1.33-0.3
			c-0.37-0.26-0.52-0.72-0.59-1.17c-0.15-1.13,0.22-2.34,0.52-3.4c0.41-1.28,0.92-2.49,1.51-3.66c2.14-4.27,4.9-8.19,8.11-11.7
			c0.33-0.38,0.7-0.75,1.03-1.09c0.7-2.42,1.47-4.83,2.47-7.1c-0.29,0.34-0.59,0.64-0.88,0.94c-0.52,0.53-1.07,1.02-1.62,1.47
			c-0.55,0.42-1.11,0.83-1.7,1.13c-0.81,0.45-2.4,0.75-2.62-0.53c-0.15-0.72,0.29-1.51,0.59-2.11c0.3-0.64,0.7-1.25,1.14-1.85
			c0.41-0.6,0.88-1.21,1.4-1.77c0.26-0.26,0.52-0.53,0.85-0.75c0.26-0.23,0.59-0.38,0.92-0.53c0.07,0,0.11,0.04,0.07,0.08
			c-0.29,0.26-0.55,0.57-0.85,0.83c-0.3,0.23-0.55,0.49-0.77,0.75c-0.52,0.57-1,1.25-1.44,1.89c-0.33,0.49-0.66,1.06-0.92,1.62
			c-0.15,0.3-0.29,0.64-0.41,0.98c-0.11,0.3-0.22,0.68-0.04,0.98c0.22,0.42,0.81,0.3,1.22,0.23c0.55-0.19,1.03-0.53,1.47-0.87
			c2.14-1.51,3.91-3.51,5.31-5.78c0.18-0.3,0.66-0.04,0.48,0.3c-0.3,0.49-0.59,0.98-0.85,1.47c-1.29,2.45-2.21,5.1-2.99,7.78
			c1.03-1.06,2.18-2.04,3.32-2.94c0.92-0.72,1.88-1.4,2.84-2.04c0.96-0.6,1.99-1.06,2.99-1.55
			C390.13,90.62,390.27,90.84,390.13,90.92z M379.25,100.77c0.15-0.57,0.29-1.13,0.48-1.7c-0.48,0.45-0.92,0.98-1.36,1.47
			c-2.99,3.43-5.68,7.36-7.56,11.55c-0.52,1.17-1,2.42-1.25,3.7c-0.11,0.53-0.22,1.09-0.22,1.66c0,0.42,0.04,0.91,0.41,1.21
			c0.41,0.3,1,0.19,1.4,0c0.52-0.23,0.88-0.6,1.25-1.02c0.77-0.91,1.36-1.96,1.92-3.02c0.52-1.09,0.96-2.23,1.44-3.32
			c0.52-1.21,1-2.42,1.4-3.66C377.96,105.37,378.59,103.07,379.25,100.77z"/>
		<path class="st0" d="M399.97,90.43c-0.44,0.68-1.11,1.17-1.77,1.66c-0.66,0.45-1.36,0.83-2.1,1.13c-0.92,0.42-2.14,0.94-3.17,0.53
			c-0.55-0.23-0.85-0.75-0.63-1.36c0.22-0.64,0.92-1.02,1.47-1.4c0.44-0.3,1.33-0.79,1.33-1.47c0-0.79-1.11-0.79-1.66-0.72
			c-0.66,0.08-1.36,0.34-1.92,0.75c-0.33,0.23-0.59,0.49-0.81,0.87c-0.15,0.3-0.18,0.68-0.26,1.02c0,0.04-0.04,0.04-0.07,0
			c-0.44-0.64,0.07-1.55,0.55-2c0.55-0.53,1.25-0.87,1.99-1.06c0.63-0.15,1.36-0.23,1.99,0.08c0.52,0.3,0.81,0.87,0.59,1.47
			c-0.18,0.64-0.81,1.02-1.33,1.4c-0.33,0.23-0.74,0.45-1.07,0.75c-0.22,0.19-0.52,0.57-0.37,0.91c0.26,0.53,1.18,0.42,1.62,0.3
			c0.52-0.08,1.07-0.3,1.55-0.49c0.7-0.3,1.33-0.68,1.95-1.09c0.66-0.45,1.25-0.98,1.84-1.47
			C399.86,90.09,400.08,90.24,399.97,90.43z"/>
		<path class="st0" d="M226.74,111.84c-1,0.04-1.95,0.08-2.91,0.11c-4.31,0.11-8.66,0.08-13.01,0c-1.11,0.72-2.06,1.7-2.51,2.98
			c-0.81,2.3,0.48,4.49,0.41,6.79c-0.07,1.66-0.88,3.36-2.62,3.59c-0.22,0-0.22-0.34,0-0.34c1.18-0.15,1.84-1.47,2.06-2.57
			c0.22-1.36-0.22-2.72-0.48-4.04c-0.37-1.92-0.18-3.77,1.03-5.32c0.33-0.42,0.74-0.79,1.14-1.09c-3.13-0.08-6.27-0.11-9.4-0.08
			c-7.34,0.08-14.67,0.53-21.97,1.36c-7.34,0.79-14.6,1.96-21.83,3.47c-7.19,1.55-14.31,3.4-21.31,5.62
			c-7.04,2.19-13.94,4.76-20.72,7.66c-0.07,0.04-0.15-0.11-0.07-0.15c0.81-0.34,1.59-0.68,2.36-1.02c6.82-2.87,13.79-5.4,20.83-7.59
			c7.08-2.19,14.23-4,21.5-5.44c7.19-1.47,14.45-2.57,21.72-3.28c7.41-0.75,14.82-1.13,22.23-1.13c2.47,0,4.9,0.04,7.37,0.04
			c0.81-0.53,1.7-0.91,2.62-1.21c1.95-0.64,4.02-0.72,6.05-0.6c2.62,0.15,5.16,0.72,7.56,1.7
			C227.07,111.42,227.03,111.8,226.74,111.84z M225.33,111.35c-2.36-0.79-4.87-1.21-7.34-1.21c-2.03-0.04-4.02,0.26-5.86,1.09
			c-0.15,0.08-0.29,0.15-0.44,0.23C216.23,111.5,220.8,111.54,225.33,111.35z"/>
	</g>
</g>
</svg>