<svg xmlns="http://www.w3.org/2000/svg" viewBox="0 0 716.78 139.74">
<style type="text/css">
    path{fill:#231f20;}
	@media (prefers-color-scheme: dark){path{fill:#f2f3f5}}
</style>

<g>
	<path d="M140,69.87c0,38.66-31.34,70-70,70s-70-31.34-70-70c0-38.66,31.34-70,70-70L39.71,132.99l77.81-40.38L70-0.13
		C108.66-0.13,140,31.21,140,69.87z"/>
	<g>
		<path d="M232.35,38.51l-22.58,25.65l27.15,35.49c0.41,0.53,0.54,1,0.4,1.41c-0.15,0.41-0.54,0.62-1.19,0.62h-12.74
			c-0.53,0-0.97-0.15-1.32-0.44c-0.35-0.29-0.7-0.67-1.05-1.14l-19.86-26.18l-7.91,8.52v17.48c0,1.17-0.56,1.76-1.67,1.76h-9.49
			c-1.11,0-1.67-0.58-1.67-1.76V38.25c0-1.17,0.56-1.76,1.67-1.76h9.31c0.35,0,0.75,0.15,1.19,0.44c0.44,0.29,0.66,0.73,0.66,1.32
			V65.4l24.34-27.67c0.53-0.58,1-0.94,1.41-1.05c0.41-0.12,0.85-0.18,1.32-0.18h11.33c0.64,0,1.01,0.22,1.1,0.66
			C232.84,37.59,232.71,38.05,232.35,38.51z"/>
		<path d="M244.92,99.92V38.25c0-1.17,0.56-1.76,1.67-1.76h42.08c1.17,0,1.76,0.59,1.76,1.76v8.52
			c0,1.17-0.59,1.76-1.76,1.76h-30.92v17.22h23.63c1.11,0,1.67,0.59,1.67,1.76v8.08c0,1.17-0.56,1.76-1.67,1.76h-23.63v22.58
			c0,1.17-0.59,1.76-1.76,1.76h-9.4C245.47,101.68,244.92,101.1,244.92,99.92z"/>
		<path d="M300,117.23V60.04c0-0.88,0.5-1.32,1.49-1.32h2.11c0.88,0,1.32,0.41,1.32,1.23l0.09,5.71
			c0.41-0.64,1-1.43,1.76-2.37c0.76-0.94,1.77-1.84,3.03-2.72c1.26-0.88,2.81-1.63,4.66-2.24c1.85-0.61,4.05-0.92,6.63-0.92
			c2.87,0,5.56,0.59,8.08,1.76c2.52,1.17,4.7,2.77,6.55,4.79c1.84,2.02,3.31,4.39,4.39,7.12c1.08,2.72,1.62,5.64,1.62,8.74
			c0,3.11-0.54,6.03-1.62,8.79c-1.08,2.75-2.55,5.14-4.39,7.16c-1.85,2.02-4.03,3.62-6.55,4.79c-2.52,1.17-5.21,1.76-8.08,1.76
			c-4.04,0-7.39-0.99-10.06-2.99c-2.67-1.99-4.67-4.39-6.02-7.2v25.13c0,0.41-0.06,0.75-0.18,1.01c-0.12,0.26-0.47,0.4-1.05,0.4
			h-2.72c-0.47,0-0.76-0.12-0.88-0.35C300.06,118.05,300,117.7,300,117.23z M304.75,79.85c0,2.4,0.42,4.66,1.27,6.79
			c0.85,2.13,2.01,3.99,3.47,5.56c1.46,1.58,3.16,2.83,5.1,3.77c1.93,0.93,3.98,1.4,6.15,1.4c2.17,0,4.22-0.47,6.15-1.4
			c1.93-0.93,3.62-2.19,5.05-3.77c1.43-1.58,2.58-3.43,3.43-5.56c0.85-2.13,1.27-4.4,1.27-6.79c0-2.39-0.43-4.66-1.27-6.79
			c-0.85-2.13-1.99-3.99-3.43-5.56c-1.44-1.58-3.12-2.83-5.05-3.77c-1.93-0.93-3.98-1.4-6.15-1.4c-2.17,0-4.22,0.47-6.15,1.4
			c-1.93,0.94-3.63,2.19-5.1,3.77c-1.46,1.58-2.62,3.43-3.47,5.56C305.17,75.19,304.75,77.46,304.75,79.85z"/>
		<path d="M351.92,100.19V60.74c0-1.35,0.47-2.02,1.41-2.02h2.2c0.53,0,0.86,0.16,1.01,0.48
			c0.15,0.32,0.25,0.72,0.31,1.19l0.09,4.83c0.82-2.17,2.24-3.91,4.26-5.23c2.02-1.32,4.44-1.98,7.25-1.98
			c1.29,0,2.74,0.23,4.35,0.7c1.61,0.47,2.91,1.05,3.91,1.76c0.29,0.29,0.58,0.66,0.88,1.1c0.29,0.44,0.29,0.89,0,1.36l-1.32,1.93
			c-0.29,0.35-0.63,0.51-1.01,0.48c-0.38-0.03-0.66-0.1-0.84-0.22c-0.82-0.53-1.79-1.01-2.9-1.45c-1.11-0.44-2.26-0.66-3.43-0.66
			c-1.64,0-3.13,0.38-4.48,1.14c-1.35,0.76-2.52,1.76-3.51,2.99c-1,1.23-1.77,2.65-2.33,4.26c-0.56,1.61-0.83,3.27-0.83,4.96v23.72
			c0,1.05-0.53,1.58-1.58,1.58h-1.84C352.45,101.68,351.92,101.18,351.92,100.19z"/>
		<path d="M380.74,80.24c0-3.1,0.56-6.02,1.67-8.74c1.11-2.72,2.64-5.11,4.57-7.16c1.93-2.05,4.22-3.66,6.85-4.83
			c2.64-1.17,5.5-1.76,8.61-1.76c3.1,0,5.99,0.59,8.65,1.76c2.66,1.17,4.96,2.78,6.9,4.83c1.93,2.05,3.45,4.44,4.57,7.16
			c1.11,2.72,1.67,5.64,1.67,8.74c0,3.11-0.56,6.02-1.67,8.74c-1.11,2.72-2.64,5.11-4.57,7.16c-1.93,2.05-4.23,3.66-6.9,4.83
			c-2.67,1.17-5.55,1.76-8.65,1.76c-3.11,0-5.97-0.59-8.61-1.76c-2.64-1.17-4.92-2.78-6.85-4.83c-1.93-2.05-3.46-4.44-4.57-7.16
			C381.29,86.26,380.74,83.35,380.74,80.24z M385.75,80.24c0,2.4,0.42,4.67,1.27,6.81c0.85,2.14,2.02,4,3.51,5.58
			c1.49,1.58,3.26,2.84,5.32,3.78c2.05,0.94,4.27,1.41,6.68,1.41c2.4,0,4.63-0.47,6.68-1.41c2.05-0.94,3.82-2.2,5.32-3.78
			c1.49-1.58,2.66-3.44,3.51-5.58c0.85-2.14,1.27-4.41,1.27-6.81c0-2.4-0.43-4.67-1.27-6.81c-0.85-2.14-2.02-4-3.51-5.58
			c-1.49-1.58-3.27-2.84-5.32-3.78c-2.05-0.94-4.28-1.41-6.68-1.41c-2.4,0-4.63,0.47-6.68,1.41c-2.05,0.94-3.82,2.2-5.32,3.78
			c-1.49,1.58-2.67,3.44-3.51,5.58C386.17,75.57,385.75,77.84,385.75,80.24z"/>
		<path d="M473.16,38.25v61.59c0,0.59-0.1,1.04-0.31,1.36c-0.21,0.32-0.63,0.48-1.27,0.48h-1.85
			c-1.11,0-1.67-0.62-1.67-1.85v-5.45c-0.35,0.64-0.91,1.44-1.67,2.37c-0.76,0.94-1.77,1.85-3.03,2.72
			c-1.26,0.88-2.81,1.63-4.66,2.24c-1.85,0.62-4.06,0.92-6.63,0.92c-2.87,0-5.56-0.59-8.08-1.76c-2.52-1.17-4.7-2.77-6.55-4.79
			c-1.84-2.02-3.31-4.39-4.39-7.12c-1.09-2.72-1.63-5.64-1.63-8.74c0-3.1,0.54-6.03,1.63-8.79c1.08-2.75,2.55-5.14,4.39-7.16
			c1.85-2.02,4.03-3.62,6.55-4.79c2.52-1.17,5.21-1.76,8.08-1.76c4.04,0,7.38,1,10.02,2.99c2.63,1.99,4.63,4.39,5.97,7.2V38.25
			c0-1.17,0.56-1.76,1.67-1.76h1.85c0.64,0,1.07,0.16,1.27,0.48C473.06,37.3,473.16,37.72,473.16,38.25z M468.42,80.2
			c0-2.39-0.43-4.66-1.27-6.79c-0.85-2.13-2.01-3.99-3.47-5.56c-1.46-1.58-3.16-2.83-5.1-3.77c-1.93-0.93-3.98-1.4-6.15-1.4
			c-2.17,0-4.22,0.47-6.15,1.4c-1.93,0.94-3.62,2.19-5.05,3.77c-1.44,1.58-2.58,3.43-3.43,5.56c-0.85,2.13-1.27,4.4-1.27,6.79
			c0,2.4,0.42,4.66,1.27,6.79c0.85,2.13,1.99,3.99,3.43,5.56c1.44,1.58,3.12,2.83,5.05,3.77c1.93,0.94,3.98,1.4,6.15,1.4
			c2.17,0,4.22-0.47,6.15-1.4c1.93-0.93,3.63-2.19,5.1-3.77c1.46-1.58,2.62-3.43,3.47-5.56C467.99,84.86,468.42,82.6,468.42,80.2z"
			/>
		<path d="M484.23,84.64V60.13c0-0.94,0.44-1.41,1.32-1.41h2.2c0.64,0,1.07,0.15,1.27,0.44
			c0.2,0.29,0.31,0.73,0.31,1.32v24.34c0,1.82,0.35,3.5,1.05,5.05c0.7,1.55,1.67,2.9,2.9,4.04c1.23,1.14,2.65,2.05,4.26,2.72
			c1.61,0.67,3.32,1.01,5.14,1.01c1.76,0,3.44-0.34,5.05-1.01c1.61-0.67,3.03-1.59,4.26-2.77c1.23-1.17,2.2-2.53,2.9-4.09
			c0.7-1.55,1.05-3.23,1.05-5.05V60.3c0-1.05,0.53-1.58,1.58-1.58h1.85c1.11,0,1.67,0.53,1.67,1.58v39.8c0,1.05-0.56,1.58-1.67,1.58
			h-1.41c-1,0-1.55-0.53-1.67-1.58l-0.35-5.1c-1.52,2.23-3.43,4.07-5.71,5.53c-2.28,1.46-4.95,2.2-7.99,2.2
			c-2.46,0-4.79-0.47-6.98-1.41c-2.2-0.94-4.11-2.23-5.75-3.87c-1.64-1.64-2.93-3.56-3.87-5.75
			C484.7,89.51,484.23,87.16,484.23,84.64z"/>
		<path d="M567.25,67.86c-1.52-1.29-3.31-2.46-5.36-3.51c-2.05-1.05-4.39-1.58-7.03-1.58c-2.4,0-4.69,0.42-6.85,1.27
			c-2.17,0.85-4.06,2.02-5.67,3.54c-1.61,1.52-2.9,3.34-3.87,5.46c-0.97,2.13-1.45,4.47-1.45,7.04c0,2.68,0.48,5.1,1.45,7.26
			c0.97,2.16,2.25,3.99,3.87,5.51c1.61,1.52,3.5,2.69,5.67,3.54c2.17,0.85,4.45,1.27,6.85,1.27c1.99,0,4.1-0.44,6.33-1.32
			c2.22-0.88,4.27-2.17,6.15-3.87c0.29-0.29,0.58-0.38,0.88-0.26c0.29,0.12,0.5,0.24,0.62,0.35l1.49,2.2
			c0.12,0.12,0.21,0.29,0.26,0.53c0.06,0.24-0.09,0.53-0.44,0.88c-2.05,2.07-4.5,3.67-7.34,4.8c-2.84,1.13-5.58,1.67-8.22,1.61
			c-2.87-0.06-5.65-0.66-8.35-1.8c-2.69-1.14-5.08-2.71-7.16-4.7c-2.08-1.99-3.73-4.35-4.96-7.07c-1.23-2.72-1.85-5.7-1.85-8.92
			c0-3.1,0.58-6.02,1.76-8.74c1.17-2.72,2.78-5.08,4.83-7.07c2.05-1.99,4.45-3.56,7.2-4.7c2.75-1.14,5.71-1.71,8.87-1.71
			c1.52,0,3,0.2,4.44,0.58c1.43,0.39,2.81,0.9,4.13,1.52c1.32,0.63,2.55,1.31,3.69,2.05c1.14,0.74,2.15,1.5,3.03,2.26
			c0.64,0.53,0.73,1.08,0.26,1.67l-1.76,1.93c-0.12,0.23-0.32,0.34-0.61,0.31C567.84,68.14,567.54,68.03,567.25,67.86z"/>
		<path d="M594.22,97.2h1.67c0.47,0,0.89,0.06,1.27,0.18c0.38,0.12,0.57,0.5,0.57,1.14v2.28c0,0.59-0.21,0.95-0.62,1.1
			c-0.41,0.15-0.91,0.22-1.49,0.22h-1.32c-1.46,0-2.84-0.16-4.13-0.48c-1.29-0.32-2.41-0.92-3.38-1.8c-0.97-0.88-1.71-2.08-2.24-3.6
			c-0.53-1.52-0.79-3.48-0.79-5.89V63.38h-6.06c-0.59,0-1.01-0.1-1.27-0.31c-0.26-0.2-0.39-0.63-0.39-1.27v-1.58
			c0-0.64,0.13-1.07,0.39-1.27c0.26-0.2,0.69-0.31,1.27-0.31h6.06v-13c0-0.88,0.5-1.38,1.49-1.49l2.2-0.35
			c0.58-0.12,0.97,0.03,1.14,0.44c0.18,0.41,0.26,0.88,0.26,1.41v13h7.64c1.17,0,1.76,0.56,1.76,1.67v1.41
			c0,1.11-0.59,1.67-1.76,1.67h-7.64v25.74c0,3.11,0.44,5.18,1.32,6.24C591.06,96.41,592.41,97.02,594.22,97.2z"/>
		<path d="M608.01,46.16c0-1.17,0.4-2.15,1.19-2.94c0.79-0.79,1.74-1.19,2.86-1.19c1.17,0,2.15,0.4,2.94,1.19
			c0.79,0.79,1.19,1.77,1.19,2.94c0,1.11-0.39,2.06-1.19,2.85c-0.79,0.79-1.77,1.19-2.94,1.19c-1.11,0-2.07-0.39-2.86-1.19
			C608.41,48.22,608.01,47.27,608.01,46.16z M609.59,100.1V60.3c0-1.05,0.56-1.58,1.67-1.58h1.76c1.11,0,1.67,0.53,1.67,1.58v39.8
			c0,1.05-0.56,1.58-1.67,1.58h-1.76C610.15,101.68,609.59,101.15,609.59,100.1z"/>
		<path d="M625.5,80.24c0-3.1,0.56-6.02,1.67-8.74c1.11-2.72,2.64-5.11,4.57-7.16c1.93-2.05,4.22-3.66,6.85-4.83
			c2.64-1.17,5.51-1.76,8.61-1.76c3.1,0,5.99,0.59,8.65,1.76c2.66,1.17,4.96,2.78,6.9,4.83c1.93,2.05,3.46,4.44,4.57,7.16
			c1.11,2.72,1.67,5.64,1.67,8.74c0,3.11-0.56,6.02-1.67,8.74c-1.11,2.72-2.63,5.11-4.57,7.16c-1.93,2.05-4.23,3.66-6.9,4.83
			c-2.67,1.17-5.55,1.76-8.65,1.76c-3.1,0-5.97-0.59-8.61-1.76c-2.64-1.17-4.92-2.78-6.85-4.83c-1.93-2.05-3.46-4.44-4.57-7.16
			C626.05,86.26,625.5,83.35,625.5,80.24z M630.5,80.24c0,2.4,0.42,4.67,1.27,6.81c0.85,2.14,2.02,4,3.51,5.58
			c1.49,1.58,3.26,2.84,5.31,3.78c2.05,0.94,4.28,1.41,6.68,1.41c2.4,0,4.63-0.47,6.68-1.41c2.05-0.94,3.82-2.2,5.32-3.78
			c1.49-1.58,2.66-3.44,3.51-5.58c0.85-2.14,1.27-4.41,1.27-6.81c0-2.4-0.43-4.67-1.27-6.81c-0.85-2.14-2.02-4-3.51-5.58
			c-1.49-1.58-3.27-2.84-5.32-3.78c-2.05-0.94-4.28-1.41-6.68-1.41c-2.4,0-4.63,0.47-6.68,1.41c-2.05,0.94-3.82,2.2-5.31,3.78
			c-1.49,1.58-2.67,3.44-3.51,5.58C630.93,75.57,630.5,77.84,630.5,80.24z"/>
		<path d="M684.97,75.35v24.74c0,0.53-0.09,0.93-0.26,1.19c-0.18,0.26-0.53,0.4-1.05,0.4h-2.28
			c-0.59,0-0.97-0.13-1.14-0.4c-0.17-0.26-0.26-0.66-0.26-1.19V59.86c0-0.76,0.44-1.14,1.32-1.14h2.46c0.47,0,0.78,0.13,0.92,0.4
			c0.15,0.26,0.22,0.54,0.22,0.83l0.18,5.45c1.46-2.17,3.41-3.98,5.84-5.45c2.43-1.46,5.14-2.2,8.13-2.2c2.52,0,4.86,0.47,7.03,1.41
			c2.17,0.94,4.04,2.24,5.62,3.91c1.58,1.67,2.82,3.68,3.73,6.02c0.91,2.34,1.36,4.89,1.36,7.64v23.19c0,1.17-0.47,1.76-1.41,1.76
			h-2.28c-0.65,0-1.04-0.13-1.19-0.4c-0.15-0.26-0.22-0.69-0.22-1.28v-24.3c0-1.82-0.35-3.52-1.05-5.11
			c-0.7-1.58-1.66-2.96-2.86-4.14c-1.2-1.17-2.59-2.1-4.17-2.77c-1.58-0.68-3.28-1.01-5.1-1.01c-1.76,0-3.46,0.32-5.1,0.97
			c-1.64,0.65-3.08,1.54-4.31,2.68c-1.23,1.15-2.23,2.5-2.99,4.05C685.35,71.93,684.97,73.59,684.97,75.35z"/>
	</g>
</g>

</svg>