<svg xmlns="http://www.w3.org/2000/svg" viewBox="0 0 680 262">
<style type="text/css">
    path{fill:#231f20;}
	@media (prefers-color-scheme: dark){path{fill:#f2f3f5}}
</style>

<g>
	<g>
		<path d="M210.01,192.14l-18.66,21.2l22.43,29.33c0.34,0.44,0.45,0.82,0.33,1.16c-0.12,0.34-0.45,0.51-0.98,0.51H202.6
			c-0.44,0-0.8-0.12-1.09-0.36s-0.58-0.56-0.87-0.94l-16.41-21.63l-6.53,7.04v14.45c0,0.97-0.46,1.45-1.38,1.45h-7.84
			c-0.92,0-1.38-0.48-1.38-1.45v-50.96c0-0.97,0.46-1.45,1.38-1.45h7.7c0.29,0,0.62,0.12,0.98,0.36c0.36,0.24,0.54,0.61,0.54,1.09
			v22.43l20.11-22.87c0.44-0.48,0.82-0.77,1.16-0.87c0.34-0.1,0.7-0.14,1.09-0.14h9.37c0.53,0,0.83,0.18,0.91,0.54
			C210.41,191.38,210.3,191.75,210.01,192.14z"/>
		<path d="M220.39,242.89v-50.96c0-0.97,0.46-1.45,1.38-1.45h34.78c0.97,0,1.45,0.48,1.45,1.45v7.04
			c0,0.97-0.48,1.45-1.45,1.45h-25.56v14.23h19.53c0.92,0,1.38,0.48,1.38,1.45v6.68c0,0.97-0.46,1.45-1.38,1.45h-19.53v18.66
			c0,0.97-0.48,1.45-1.45,1.45h-7.77C220.85,244.34,220.39,243.85,220.39,242.89z"/>
		<path d="M265.54,256.61V210.8c0-1.31,0.68-2.01,2.03-2.11h3.56c0.77,0,1.44,0.07,2,0.22c0.56,0.15,0.96,0.68,1.2,1.6
			l0.44,2.32c1.21-1.55,2.55-2.76,4.03-3.63c1.48-0.87,3.3-1.31,5.48-1.31c2.42,0,4.66,0.48,6.71,1.45
			c2.06,0.97,3.84,2.28,5.34,3.92c1.5,1.65,2.69,3.58,3.56,5.81c0.87,2.23,1.31,4.62,1.31,7.19c0,2.57-0.42,4.96-1.27,7.19
			c-0.85,2.23-2.03,4.17-3.56,5.84c-1.52,1.67-3.33,2.98-5.41,3.92s-4.36,1.42-6.82,1.42c-1.84,0-3.47-0.36-4.9-1.09
			c-1.43-0.73-2.63-1.6-3.59-2.61v15.68c0,0.63-0.19,1.15-0.58,1.56c-0.39,0.41-0.94,0.62-1.67,0.62h-5.52
			c-0.63,0-1.17-0.19-1.63-0.58C265.77,257.82,265.54,257.28,265.54,256.61z M274.62,226.04c0,1.31,0.22,2.52,0.65,3.63
			c0.44,1.11,1.03,2.08,1.78,2.9c0.75,0.82,1.63,1.48,2.65,1.96c1.02,0.48,2.08,0.73,3.2,0.73c1.11,0,2.15-0.24,3.12-0.73
			c0.97-0.48,1.82-1.14,2.54-1.96c0.73-0.82,1.31-1.78,1.74-2.87c0.44-1.09,0.65-2.26,0.65-3.52c0-1.26-0.22-2.43-0.65-3.52
			s-1.02-2.04-1.74-2.87c-0.73-0.82-1.57-1.46-2.54-1.92c-0.97-0.46-2.01-0.69-3.12-0.69c-1.11,0-2.17,0.23-3.16,0.69
			c-0.99,0.46-1.86,1.09-2.61,1.89c-0.75,0.8-1.36,1.74-1.81,2.83C274.85,223.68,274.62,224.83,274.62,226.04z"/>
		<path d="M316.65,210.73c0.05,0.24,0.17,0.71,0.36,1.42c0.19,0.7,0.31,1.17,0.36,1.42c0.44-0.58,0.96-1.19,1.56-1.81
			c0.6-0.63,1.29-1.2,2.07-1.71c0.77-0.51,1.61-0.93,2.5-1.27c0.9-0.34,1.88-0.51,2.94-0.51c0.24,0,0.47,0,0.69,0
			s0.45,0.03,0.69,0.07c0.68,0.05,1.45,0.23,2.32,0.54c0.87,0.32,1.69,0.68,2.47,1.09c0.77,0.41,1.43,0.85,1.96,1.31
			c0.53,0.46,0.8,0.88,0.8,1.27c0,0.29-0.12,0.63-0.36,1.02l-2.9,4.72c-0.44,0.68-0.94,1.02-1.52,1.02c-0.19,0-0.48-0.08-0.87-0.25
			c-0.39-0.17-0.8-0.37-1.23-0.62c-0.68-0.48-1.27-0.82-1.78-1.02c-0.51-0.19-1.1-0.29-1.78-0.29c-1.06,0-2.02,0.21-2.87,0.62
			c-0.85,0.41-1.56,0.96-2.14,1.63s-1.03,1.44-1.34,2.29c-0.32,0.85-0.47,1.68-0.47,2.5v18.37c0,1.21-0.65,1.81-1.96,1.81h-6.03
			c-1.26,0-1.89-0.6-1.89-1.81v-31.8c0-0.63,0.19-1.1,0.58-1.42c0.39-0.31,0.82-0.47,1.31-0.47h4.65c0.58,0,1,0.19,1.27,0.58
			C316.3,209.81,316.51,210.24,316.65,210.73z"/>
		<path d="M336.55,226.62c0-2.56,0.48-4.98,1.45-7.26c0.97-2.27,2.31-4.26,4.03-5.95c1.72-1.69,3.71-3.02,5.99-3.99
			c2.27-0.97,4.72-1.45,7.33-1.45c2.61,0,5.06,0.48,7.33,1.45c2.27,0.97,4.26,2.3,5.95,3.99s3.04,3.68,4.03,5.95
			c0.99,2.28,1.49,4.7,1.49,7.26c0,2.57-0.5,4.97-1.49,7.22c-0.99,2.25-2.33,4.21-4.03,5.88c-1.69,1.67-3.68,2.99-5.95,3.96
			c-2.28,0.97-4.72,1.45-7.33,1.45c-2.61,0-5.06-0.48-7.33-1.45c-2.28-0.97-4.27-2.29-5.99-3.96c-1.72-1.67-3.06-3.63-4.03-5.88
			C337.03,231.6,336.55,229.19,336.55,226.62z M346.2,226.7c0,1.31,0.23,2.53,0.69,3.67c0.46,1.14,1.1,2.14,1.92,3.01
			c0.82,0.87,1.79,1.55,2.9,2.03c1.11,0.48,2.32,0.73,3.63,0.73c1.31,0,2.52-0.24,3.63-0.73c1.11-0.48,2.08-1.16,2.9-2.03
			c0.82-0.87,1.48-1.88,1.96-3.01c0.48-1.14,0.73-2.36,0.73-3.67s-0.24-2.53-0.73-3.67c-0.48-1.14-1.14-2.14-1.96-3.01
			c-0.82-0.87-1.79-1.56-2.9-2.07c-1.11-0.51-2.32-0.76-3.63-0.76c-1.31,0-2.52,0.25-3.63,0.76c-1.11,0.51-2.08,1.2-2.9,2.07
			c-0.82,0.87-1.46,1.88-1.92,3.01C346.43,224.17,346.2,225.39,346.2,226.7z"/>
		<path d="M415.17,192.28v50.24c0,1.16-0.61,1.77-1.81,1.81h-3.19c-0.92,0-1.74-0.07-2.47-0.22
			c-0.68-0.19-1.09-0.69-1.23-1.49c-0.14-0.8-0.31-1.66-0.51-2.58c-1.21,1.74-2.55,3.01-4.03,3.81c-1.48,0.8-3.45,1.2-5.92,1.2
			c-2.52,0-4.8-0.48-6.86-1.45c-2.06-0.97-3.84-2.27-5.34-3.92c-1.5-1.64-2.66-3.59-3.49-5.84c-0.82-2.25-1.23-4.63-1.23-7.15
			c0-2.56,0.41-4.96,1.23-7.19c0.82-2.23,1.97-4.17,3.45-5.84s3.27-2.99,5.37-3.96c2.11-0.97,4.44-1.45,7.01-1.45
			c2.32,0,4.16,0.39,5.52,1.16c1.35,0.77,2.54,1.79,3.56,3.05v-20.18c0-1.21,0.63-1.81,1.89-1.81h5.95c0.53,0,1.02,0.17,1.45,0.51
			C414.95,191.32,415.17,191.75,415.17,192.28z M406.17,226.77c0-1.31-0.22-2.55-0.65-3.74c-0.44-1.19-1.03-2.21-1.78-3.09
			c-0.75-0.87-1.66-1.56-2.72-2.07c-1.07-0.51-2.25-0.76-3.56-0.76c-1.36,0-2.58,0.25-3.67,0.76c-1.09,0.51-2,1.2-2.72,2.07
			c-0.73,0.87-1.28,1.9-1.67,3.09c-0.39,1.19-0.58,2.43-0.58,3.74c0,1.31,0.19,2.54,0.58,3.7c0.39,1.16,0.94,2.18,1.67,3.05
			c0.73,0.87,1.63,1.56,2.72,2.07c1.09,0.51,2.31,0.76,3.67,0.76c1.26,0,2.42-0.25,3.48-0.76s1.98-1.19,2.76-2.03
			c0.77-0.85,1.38-1.85,1.82-3.01c0.44-1.16,0.65-2.4,0.65-3.7V226.77z"/>
		<path d="M451.25,244.34c-0.73,0-1.28-0.11-1.67-0.33c-0.39-0.22-0.68-0.52-0.87-0.91c-0.19-0.39-0.35-0.85-0.47-1.38
			c-0.12-0.53-0.25-1.11-0.4-1.74c-1.11,1.26-2.7,2.37-4.76,3.34c-2.06,0.97-4.27,1.45-6.64,1.45c-2.23,0-4.2-0.35-5.92-1.05
			c-1.72-0.7-3.16-1.69-4.32-2.98c-1.16-1.28-2.03-2.79-2.61-4.54c-0.58-1.74-0.87-3.65-0.87-5.74v-19.6c0-0.68,0.21-1.21,0.62-1.6
			c0.41-0.39,0.91-0.58,1.49-0.58h5.95c0.77,0,1.31,0.18,1.6,0.54c0.29,0.36,0.44,0.88,0.44,1.56v18c0,1.99,0.57,3.56,1.71,4.72
			c1.14,1.16,2.65,1.74,4.54,1.74c0.77,0,1.64-0.16,2.61-0.47c0.97-0.31,1.86-0.74,2.69-1.27c0.82-0.53,1.53-1.19,2.11-1.96
			c0.58-0.77,0.87-1.62,0.87-2.54v-18.29c0-1.35,0.7-2.03,2.11-2.03h5.88c0.68,0,1.2,0.19,1.56,0.58c0.36,0.39,0.54,0.87,0.54,1.45
			v31.44c0,1.45-0.75,2.18-2.25,2.18H451.25z"/>
		<path d="M480.8,236.14c1.45-0.05,2.71-0.27,3.77-0.65c1.06-0.39,2.18-0.85,3.34-1.38c0.48-0.24,0.82-0.36,1.02-0.36
			c0.34,0,0.7,0.27,1.09,0.8l3.12,4.48c0.19,0.38,0.29,0.65,0.29,0.79c0,0.43-0.15,0.77-0.44,1.01c-0.29,0.24-0.56,0.46-0.8,0.65
			c-1.6,1.06-3.34,1.93-5.23,2.63c-1.89,0.7-3.87,1.04-5.95,1.04c-2.57,0-4.97-0.48-7.22-1.45c-2.25-0.97-4.22-2.29-5.92-3.96
			c-1.7-1.67-3.03-3.63-3.99-5.88c-0.97-2.25-1.45-4.66-1.45-7.22c0-2.56,0.48-4.98,1.45-7.26c0.97-2.27,2.3-4.26,3.99-5.95
			c1.69-1.69,3.67-3.02,5.92-3.99c2.25-0.97,4.66-1.45,7.22-1.45c1.98,0,3.85,0.32,5.59,0.94c1.74,0.63,3.48,1.5,5.23,2.61h-0.07
			c0.39,0.24,0.7,0.51,0.94,0.8c0.24,0.29,0.36,0.63,0.36,1.02c0,0.1-0.01,0.23-0.04,0.4c-0.03,0.17-0.08,0.3-0.18,0.4l-2.83,4.86
			c-0.1,0.19-0.25,0.36-0.47,0.51c-0.22,0.15-0.45,0.22-0.69,0.22c-0.19,0-0.58-0.17-1.16-0.51c-0.82-0.68-1.84-1.22-3.05-1.63
			c-1.21-0.41-2.4-0.62-3.56-0.62c-1.36,0-2.61,0.27-3.78,0.8s-2.17,1.25-3.01,2.15c-0.85,0.9-1.51,1.94-2,3.13
			c-0.48,1.19-0.73,2.44-0.73,3.75c0,2.77,0.88,5.02,2.65,6.74C475.99,235.27,478.19,236.14,480.8,236.14z"/>
		<path d="M502.65,198.89c0-1.26,0.75-1.96,2.25-2.11l5.37-0.8c0.1-0.05,0.27-0.07,0.51-0.07
			c0.68,0,1.14,0.21,1.38,0.62c0.24,0.41,0.36,0.93,0.36,1.56v10.6h4.36c0.58,0,1.05,0.18,1.42,0.54s0.54,0.88,0.54,1.56v3.99
			c0,0.78-0.18,1.34-0.54,1.71s-0.83,0.54-1.42,0.54h-4.36v25.19c0,0.68-0.15,1.2-0.44,1.56c-0.29,0.36-0.8,0.54-1.53,0.54h-6.1
			c-0.73,0-1.21-0.18-1.45-0.54c-0.24-0.36-0.36-0.88-0.36-1.56v-25.19h-1.96c-1.4,0-2.11-0.75-2.11-2.25v-3.99
			c0-1.4,0.7-2.11,2.11-2.11h1.96V198.89z"/>
		<path d="M524.79,198.09c0-1.55,0.54-2.87,1.63-3.96s2.41-1.63,3.96-1.63c1.6,0,2.93,0.54,3.99,1.63
			c1.06,1.09,1.6,2.41,1.6,3.96s-0.53,2.86-1.6,3.92c-1.07,1.07-2.4,1.6-3.99,1.6c-1.55,0-2.87-0.53-3.96-1.6
			C525.34,200.95,524.79,199.64,524.79,198.09z M535.54,210.44v32.23c0,1.11-0.61,1.67-1.81,1.67h-6.32c-1.11,0-1.67-0.56-1.67-1.67
			v-32.23c0-0.53,0.15-0.96,0.44-1.27c0.29-0.31,0.7-0.47,1.23-0.47h6.32c0.44,0,0.85,0.16,1.23,0.47
			C535.34,209.48,535.54,209.9,535.54,210.44z"/>
		<path d="M543.6,226.62c0-2.56,0.48-4.98,1.45-7.26c0.97-2.27,2.31-4.26,4.03-5.95c1.72-1.69,3.71-3.02,5.99-3.99
			c2.27-0.97,4.72-1.45,7.33-1.45c2.61,0,5.06,0.48,7.33,1.45c2.27,0.97,4.26,2.3,5.95,3.99c1.69,1.69,3.04,3.68,4.03,5.95
			c0.99,2.28,1.49,4.7,1.49,7.26c0,2.57-0.5,4.97-1.49,7.22c-0.99,2.25-2.34,4.21-4.03,5.88c-1.7,1.67-3.68,2.99-5.95,3.96
			c-2.28,0.97-4.72,1.45-7.33,1.45c-2.61,0-5.06-0.48-7.33-1.45c-2.28-0.97-4.27-2.29-5.99-3.96c-1.72-1.67-3.06-3.63-4.03-5.88
			C544.08,231.6,543.6,229.19,543.6,226.62z M553.25,226.7c0,1.31,0.23,2.53,0.69,3.67c0.46,1.14,1.1,2.14,1.92,3.01
			s1.79,1.55,2.9,2.03c1.11,0.48,2.32,0.73,3.63,0.73c1.31,0,2.52-0.24,3.63-0.73c1.11-0.48,2.08-1.16,2.9-2.03
			c0.82-0.87,1.48-1.88,1.96-3.01c0.48-1.14,0.73-2.36,0.73-3.67s-0.24-2.53-0.73-3.67c-0.48-1.14-1.14-2.14-1.96-3.01
			c-0.82-0.87-1.79-1.56-2.9-2.07s-2.32-0.76-3.63-0.76c-1.31,0-2.52,0.25-3.63,0.76s-2.08,1.2-2.9,2.07s-1.46,1.88-1.92,3.01
			C553.48,224.17,553.25,225.39,553.25,226.7z"/>
		<path d="M595.36,208.69c0.73,0,1.27,0.12,1.63,0.36c0.36,0.24,0.64,0.58,0.83,1.02c0.19,0.44,0.34,0.93,0.44,1.49
			c0.1,0.56,0.22,1.15,0.36,1.78c1.11-1.26,2.61-2.42,4.5-3.48c1.89-1.06,4.02-1.6,6.39-1.6c2.27,0,4.28,0.36,6.03,1.09
			c1.74,0.73,3.22,1.72,4.43,2.98s2.13,2.77,2.76,4.54c0.63,1.77,0.94,3.69,0.94,5.77v19.96c0,0.68-0.15,1.14-0.44,1.38
			c-0.29,0.24-0.73,0.36-1.31,0.36h-6.68c-0.77,0-1.25-0.11-1.42-0.33c-0.17-0.22-0.25-0.67-0.25-1.34V224.3
			c0-1.98-0.63-3.57-1.89-4.75c-1.26-1.19-2.83-1.78-4.72-1.78c-0.77,0-1.59,0.17-2.43,0.51c-0.85,0.34-1.63,0.79-2.36,1.34
			c-0.73,0.56-1.34,1.22-1.85,2c-0.51,0.78-0.83,1.6-0.98,2.47v18.66c0,0.63-0.12,1.05-0.36,1.27s-0.73,0.33-1.45,0.33H591
			c-0.73,0-1.2-0.12-1.42-0.36s-0.33-0.65-0.33-1.23v-31.87c0-1.45,0.73-2.18,2.18-2.18H595.36z"/>
	</g>
	<g>
		<path d="M161.58,163.89c-0.03-0.01-0.05-0.01-0.06-0.01c0,0,0,0,0,0C161.53,163.88,161.56,163.89,161.58,163.89z"/>
		<path d="M174.98,172.68c-0.05-0.16-0.12-0.31-0.19-0.46c0.06-0.13,0.11-0.25,0.15-0.39c0.3-1.11-0.44-1.95-1.46-2.33
			c-3.34-1.24-6.6-2.69-9.74-4.38c-0.26-0.14-1.8-1.21-2.17-1.24c0.2,0.07,0.67,0.43,0.18,0.14c-0.08-0.05-0.16-0.1-0.24-0.15
			c0,0-0.01,0-0.01,0c0,0,0.01,0,0.01,0c-0.12-0.07-0.24-0.15-0.37-0.22c-0.44-0.27-0.89-0.54-1.33-0.82
			c-1.43-0.91-2.84-1.86-4.21-2.86c-5.62-4.1-10.69-8.93-15.14-14.28c-2.43-2.92-4.66-6.01-6.71-9.2
			c-9.53-15.22-14.92-32.87-16.41-50.72c-0.42-5.02-0.52-10.05-0.32-15.08c0.44-9.02,1.85-17.98,4.33-26.67
			c1.26-4.4,2.79-8.73,4.59-12.94c0.9-2.1,1.87-4.17,2.91-6.21c0.5-0.97,1.01-1.94,1.54-2.9c0.14-0.25,0.26-0.54,0.43-0.77
			c0.01-0.02,0.03-0.04,0.03-0.05c0.3-0.52,0.6-1.03,0.91-1.54c2.69-4.45,5.74-8.68,9.12-12.63c0.7-0.82,0.9-1.93,0.1-2.74
			c-0.9-0.91-2.94-1.05-4.07-1.02c-3.48,0.11-7.85,1.23-10.22,4c-0.43,0.51-0.84,1.04-1.26,1.56
			c-12.61,11.13-23.85,23.71-33.57,37.44c-9.75,13.75-17.86,28.69-23.87,44.45c-5.94,15.55-9.77,31.87-11.15,48.46
			c-1.36,16.38-0.17,32.96,3.84,48.91c4.19,16.68,11.44,32.5,21.16,46.68c1.15,1.68,2.34,3.32,3.55,4.95
			c-0.44,2.95,2.2,5.41,5.19,5.75c3.74,0.43,8.37-1.15,9.99-4.85c1.3-2.97,2.77-5.87,4.39-8.68c0.21-0.37,0.43-0.73,0.64-1.09
			c0.08-0.13,0.77-1.35,0.21-0.35c-0.57,1,0.14-0.21,0.22-0.34c0.23-0.36,0.45-0.71,0.69-1.07c0.92-1.42,1.88-2.81,2.88-4.18
			c1.82-2.51,3.76-4.95,5.79-7.3c2.13-2.46,4.47-4.71,6.65-7.11c-1.57,1.73,0.24-0.23,0.65-0.61c0.56-0.53,1.13-1.06,1.69-1.59
			c1.26-1.16,2.55-2.31,3.85-3.43c2.38-2.05,4.82-4.02,7.32-5.92c2.6-1.98,5.27-3.87,8-5.67c0.6-0.4,1.21-0.78,1.81-1.17
			c0.27-0.17,0.54-0.34,0.82-0.5c1.45-0.89,2.93-1.75,4.41-2.59c3.1-1.74,6.26-3.37,9.49-4.87c1.68-0.78,3.38-1.53,5.09-2.25
			c0.79-0.33,1.59-0.65,2.38-0.97c0.4-0.16,0.8-0.31,1.2-0.47c0.15-0.06,0.29-0.11,0.44-0.17c0.11-0.04,0.22-0.08,0.34-0.13
			c0.01,0,0.02-0.01,0.03-0.01c-0.01,0-0.01,0.01-0.02,0.01c1.62-0.64,3.11-1.39,4.24-2.82
			C174.72,176.09,175.49,174.2,174.98,172.68z M127.59,189.44c-11.09,8.08-21.43,17.67-29.73,28.64c-1.58,2.08-3.08,4.23-4.51,6.43
			c-5.62-9.11-10.29-18.8-13.78-28.94c-4.65-13.51-7.22-27.7-7.74-41.97c-0.29-7.83,0.05-15.67,0.92-23.46
			c2.2-18.39,7.46-36.34,15.13-53.18c3.91-8.59,8.44-16.89,13.51-24.84c1.24-1.95,2.52-3.88,3.83-5.79
			c0.47-0.69,0.96-1.38,1.44-2.06c-3.63,11.86-5.26,24.29-5.13,36.68c0.13,12.96,2.3,25.92,6.56,38.16
			c4.15,11.95,10.36,23.3,18.55,32.97c7.69,9.08,17.26,16.52,28.01,21.61C145.15,178.02,136.1,183.25,127.59,189.44z"/>
	</g>
</g>

</svg>