<svg xmlns="http://www.w3.org/2000/svg" viewBox="0 0 680 262">
<style type="text/css">
    path{fill:#231f20;}
	@media (prefers-color-scheme: dark){path{fill:#f2f3f5}}
</style>

<g>
	<g>
		<path d="M156.48,189.62l-21.81,21.98l25.73,33.67h-17l-17.92-24.49l-6.31,6.33v18.16h-15.93v-55.65h15.93v26.15
			l25.73-26.15H156.48z"/>
		<path d="M180.09,245.26h-15.93v-55.65h47.69v6.94h-31.75v16.24h26.47v6.91h-26.47V245.26z"/>
		<path d="M250.79,261.27V205.5h13.99v2.86c0-0.02,0.61-0.29,1.83-0.82c1.25-0.54,2.72-1.04,4.41-1.49
			c1.69-0.45,3.52-0.71,5.51-0.79c3.57,0,6.79,0.35,9.64,1.06c2.85,0.71,5.39,2.54,7.62,5.48c2.23,2.94,3.34,7.41,3.34,13.39
			c-0.15,5.73-1.14,10.09-2.97,13.06c-1.84,2.97-4.08,4.91-6.74,5.82c-2.66,0.9-5.84,1.41-9.56,1.53c-5.14,0-9.5-0.71-13.07-2.13
			v17.78H250.79z M264.78,213.98v24.22c0.44,0.31,1.38,0.73,2.81,1.27c1.43,0.53,3.41,0.87,5.93,1.01c4.82,0,8.06-1.31,9.73-3.92
			s2.58-6.32,2.75-11.12c0-3.6-0.39-6.46-1.16-8.58c-0.77-2.13-2.09-3.68-3.95-4.65c-1.86-0.97-4.48-1.46-7.86-1.46
			c-2.2,0.19-4.13,0.72-5.78,1.59C265.6,213.2,264.78,213.75,264.78,213.98z"/>
		<path d="M301.03,245.26V205.5h14.13v4.9c0.05-0.04,0.34-0.32,0.86-0.83c0.53-0.51,1.32-1.05,2.37-1.62
			c1.05-0.56,2.48-1.1,4.29-1.6c1.93-0.64,4.39-0.96,7.38-0.96c2.3,0,3.74,0.08,4.33,0.23l1.21,5.74c-1.71-0.33-3.32-0.5-4.81-0.5
			c-3.26,0-5.96,0.49-8.11,1.46c-2.42,0.95-4.28,2.25-5.58,3.91c-1.3,1.65-1.95,3.17-1.95,4.55v24.49H301.03z"/>
		<path d="M361.33,205.27c5.82,0,10.48,0.75,13.97,2.24c3.49,1.5,5.99,3.71,7.51,6.65c1.52,2.93,2.28,6.66,2.28,11.16
			c0,7.05-1.88,12.22-5.65,15.49c-3.77,3.27-9.91,4.91-18.43,4.91c-8.08-0.06-14.03-1.7-17.86-4.93c-3.83-3.23-5.75-8.35-5.75-15.36
			C337.54,211.99,345.52,205.27,361.33,205.27z M351.38,225.32c0.17,3.44,0.42,6.05,0.75,7.83s1.22,3.39,2.66,4.82
			c1.44,1.44,3.67,2.16,6.68,2.16c4.21,0,6.87-1.27,7.97-3.8s1.65-6.13,1.65-10.77c0-4.57-0.56-8.18-1.67-10.83
			c-1.12-2.65-3.76-3.98-7.95-3.98c-4.31,0.1-7.07,1.42-8.28,3.98C351.99,217.28,351.38,220.82,351.38,225.32z"/>
		<path d="M433.81,189.62v55.65h-13.99v-2.39c-0.52,0.43-1.69,0.97-3.53,1.63s-4.43,0.99-7.78,0.99
			c-3.84-0.04-7.3-0.57-10.37-1.59c-3.07-1.02-5.62-3.08-7.64-6.17s-3.03-7.55-3.03-13.38c0.12-7.75,1.99-12.87,5.6-15.36
			c3.61-2.49,8.21-3.73,13.79-3.73c5.26,0,9.58,0.67,12.96,2.01v-17.66H433.81z M419.83,236.78v-24.11c0-0.23-0.76-0.63-2.28-1.2
			c-1.52-0.56-3.62-0.92-6.31-1.08c-4.94,0-8.26,1.19-9.95,3.57c-1.69,2.38-2.53,5.81-2.53,10.28c0,3.56,0.4,6.49,1.19,8.79
			c0.79,2.3,2.13,4.04,4.02,5.22c1.88,1.18,4.4,1.76,7.56,1.76c2.3-0.17,4.26-0.69,5.87-1.53S419.83,237.07,419.83,236.78z"/>
		<path d="M454.24,234.04c0,1.65,0.77,3.02,2.29,4.11c1.53,1.09,3.42,1.63,5.67,1.63c3.72-0.08,6.38-0.78,7.96-2.1
			c1.59-1.32,2.54-2.42,2.86-3.29V205.5h10.54v39.76h-10.54v-3.7c-0.95,0.64-3.02,1.44-6.2,2.39s-7.57,1.43-13.18,1.43
			c-4.16-0.12-7.46-1.12-9.89-3c-2.44-1.88-3.65-4.55-3.65-7.99V205.5h14.13V234.04z"/>
		<path d="M528.38,243.6c0,0.16-1.41,0.47-4.24,0.93c-2.83,0.47-6.43,0.75-10.81,0.85c-6.12,0-10.96-0.68-14.54-2.04
			c-3.57-1.36-6.15-3.58-7.73-6.66c-1.58-3.08-2.37-7.3-2.37-12.67c0.2-4.27,1.06-7.77,2.59-10.49s3.96-4.76,7.31-6.11
			c3.34-1.35,7.8-2.03,13.38-2.03c3.55,0.06,6.74,0.3,9.56,0.73c2.83,0.43,4.85,0.78,6.08,1.05l1.5,5.74
			c-0.9-0.37-2.57-0.83-4.99-1.37c-2.42-0.54-5.47-0.85-9.14-0.9c-4.82,0-8.03,1.26-9.62,3.79c-1.59,2.53-2.39,5.72-2.39,9.59
			c0,4.66,0.65,8.46,1.96,11.38c1.31,2.92,4.01,4.5,8.1,4.74c3.25,0,6.06-0.22,8.41-0.67c2.35-0.45,4.24-0.94,5.67-1.47
			c1.43-0.53,2.15-0.86,2.15-0.98L528.38,243.6z"/>
		<path d="M553.91,210.52v23.06c0,2.29,0.86,3.93,2.57,4.9c1.22,0.78,3.54,1.17,6.94,1.17v5.63
			c-0.29,0.02-0.82,0.04-1.58,0.06c-0.78,0.04-1.66,0.06-2.64,0.06c-6.44,0-11.15-0.87-14.13-2.62c-3.52-1.9-5.29-5.13-5.29-9.68
			v-22.56h-9.47v-5.01h9.47v-15.89h14.13v15.89h9.51v5.01H553.91z"/>
		<path d="M573.06,189.5c2.5,0,4.45,0.62,5.86,1.87c1.41,1.24,2.11,2.73,2.11,4.46c0,1.77-0.71,3.28-2.15,4.55
			s-3.42,1.89-5.97,1.89c-2.45,0-4.39-0.64-5.84-1.91c-1.45-1.27-2.17-2.74-2.17-4.42c0-1.71,0.72-3.21,2.17-4.5
			C568.52,190.14,570.51,189.5,573.06,189.5z M565.97,245.26V205.5h13.99v39.76H565.97z"/>
		<path d="M607.95,205.27c5.82,0,10.48,0.75,13.97,2.24c3.49,1.5,5.99,3.71,7.51,6.65c1.52,2.93,2.28,6.66,2.28,11.16
			c0,7.05-1.88,12.22-5.65,15.49c-3.77,3.27-9.91,4.91-18.43,4.91c-8.08-0.06-14.03-1.7-17.86-4.93c-3.83-3.23-5.75-8.35-5.75-15.36
			C584.16,211.99,592.14,205.27,607.95,205.27z M598,225.32c0.17,3.44,0.42,6.05,0.75,7.83s1.22,3.39,2.66,4.82
			c1.44,1.44,3.67,2.16,6.68,2.16c4.21,0,6.87-1.27,7.97-3.8s1.65-6.13,1.65-10.77c0-4.57-0.56-8.18-1.67-10.83
			c-1.12-2.65-3.76-3.98-7.95-3.98c-4.31,0.1-7.07,1.42-8.28,3.98C598.61,217.28,598,220.82,598,225.32z"/>
		<path d="M679.08,214.68v30.58h-10.54v-29.12c0-3.34-3.21-5.01-9.62-5.01c-3.13,0.29-5.38,1.06-6.74,2.32
			c-1.36,1.25-2.17,2.27-2.44,3.05v28.77h-14.13V205.5h14.13v3.24c0.2-0.1,0.86-0.45,2-1.05c1.14-0.6,2.75-1.16,4.85-1.66
			c2.09-0.5,4.52-0.76,7.29-0.76c5.21,0,9.05,0.95,11.51,2.84C677.85,210.01,679.08,212.2,679.08,214.68z"/>
	</g>
	<path d="M119.58,169.85c0.17-1.17-0.36-2.2-1.54-2.64c-3.52-1.3-6.94-2.85-10.24-4.65c-1.66-0.91-3.29-1.87-4.89-2.9
		c-0.16-0.1-0.32-0.21-0.47-0.31c-0.01,0-0.01-0.01-0.02-0.01c-0.28-0.19-0.57-0.38-0.85-0.58c-0.81-0.56-1.61-1.14-2.4-1.74
		c-5.9-4.44-11.16-9.7-15.72-15.51c-2.46-3.14-4.71-6.45-6.76-9.87c-8.09-13.9-12.86-29.61-14.51-45.58
		c-0.46-4.48-0.67-8.97-0.64-13.47c0.16-9.52,1.4-19.03,3.82-28.24c1.24-4.72,2.79-9.36,4.65-13.87c0.42-1.01,0.85-2.02,1.3-3.01
		c0.24-0.54,0.49-1.09,0.75-1.63c0.13-0.27,0.26-0.54,0.38-0.81c0.04-0.09,0.08-0.18,0.13-0.26c0.35-0.4,0.56-1.11,0.8-1.58
		c0.28-0.53,0.56-1.06,0.84-1.58c0.57-1.05,1.16-2.09,1.77-3.11c2.66-4.49,5.69-8.75,9.04-12.74c0.19-0.2,0.38-0.42,0.54-0.66
		c0.28-0.33,0.46-0.72,0.54-1.13c0.08-0.33,0.1-0.67,0.01-1.01c-0.09-0.32-0.26-0.6-0.49-0.84c-0.02-0.02-0.03-0.05-0.05-0.07
		c-0.26-0.29-0.62-0.51-1.02-0.69c-0.47-0.22-0.97-0.37-1.4-0.45c-3.61-0.63-8.09,0.49-10.89,2.92
		c-13.25,11.49-25.18,24.59-35.32,38.9c-9.94,14.03-18.2,29.32-24.35,45.38c-5.92,15.45-9.81,31.71-11.15,48.22
		c-1.35,16.61-0.2,33.45,3.86,49.63c4.25,16.91,11.67,32.89,21.49,47.28c1.16,1.71,2.37,3.38,3.59,5.04
		c-0.07,0.15-0.14,0.3-0.21,0.45c-0.44,1,0.52,1.54,1.31,1.78c1.44,0.44,3.49,0.22,4.92-0.05c2-0.37,4.05-0.9,5.86-1.85
		c1.11-0.58,2.59-1.28,3.13-2.49c5.24-11.94,12.56-21.67,21.75-30.77c2.32-2.3,4.72-4.51,7.19-6.64c1.19-1.03,2.39-2.04,3.61-3.03
		c0.22-0.18,0.44-0.36,0.67-0.54c0.07-0.05,0.12-0.1,0.17-0.14c0.03-0.03,0.06-0.05,0.11-0.08c0.67-0.53,1.35-1.05,2.03-1.57
		c2.6-1.98,5.27-3.87,8-5.67c1.3-0.86,2.62-1.7,3.95-2.52c0.61-0.37,1.21-0.74,1.82-1.1c0.37-0.22,0.73-0.43,1.1-0.65
		c0.34-0.2,2.1-1.13,0.4-0.24c3.15-1.66,6.26-3.37,9.49-4.87c0.84-0.39,1.68-0.77,2.53-1.15c0.3-0.13,0.6-0.26,0.89-0.39
		c0.1-0.04,0.19-0.08,0.29-0.12c1.72-0.71,3.45-1.39,5.2-2.03c1.38-0.51,3.24-1.3,4.28-2.42c0.46-0.49,0.92-1.25,0.56-1.85
		C119.51,170.17,119.56,170.01,119.58,169.85z M71.46,190.82c-10.99,8.01-21.25,17.31-29.47,28.18c-1.13,1.5-2.23,3.02-3.29,4.56
		c-0.9-1.41-1.79-2.83-2.64-4.26c-10.28-17.65-16.77-37.32-18.9-57.64c-0.57-5.43-0.83-10.88-0.81-16.34
		c0.24-20.48,4.52-40.79,11.91-59.88c1.9-4.91,3.95-9.82,6.32-14.52c-0.56,1.11,0.36-0.72,0.5-1.01c0.3-0.59,0.6-1.19,0.9-1.78
		c0.61-1.18,1.22-2.36,1.85-3.53c1.26-2.35,2.57-4.67,3.92-6.97c2.82-4.78,5.83-9.45,9.02-13.99c-3.3,11.42-4.74,23.3-4.61,35.2
		c0.13,12.96,2.3,25.92,6.56,38.16c4.16,11.97,10.38,23.39,18.58,33.08c8.17,9.66,18.54,17.58,30.15,22.67
		c0.41,0.18,0.83,0.35,1.25,0.53C91.65,177.93,81.13,183.78,71.46,190.82z"/>
</g>

</svg>