<svg xmlns="http://www.w3.org/2000/svg" viewBox="0 0 304.09 238.63">
<style type="text/css">
	path{fill:#231f20;}
	@media (prefers-color-scheme: dark){path{fill:#f2f3f5}}
</style>
<path d="M297.27,155.97c-44.32-13.33-62.01-66.91-52.91-108.78c2.74-12.63,7.8-24.37,15.21-34.93
	c0.27-0.33,0.5-0.66,0.7-1.01c2.31-3.31,0.48-8.26-2.73-10.19c-1.09-0.65-2.22-0.97-3.32-1.02c-1.93-0.23-3.98,0.37-5.77,2.19
	c-45.93,46.82-75.33,118.24-54.36,183.31c6.05,18.79,16.05,35.75,28.94,50.64c2.41,2.78,5.43,2.96,7.91,1.71
	c2.6-0.35,5.06-1.93,6.17-5.04c9.93-27.74,34.7-49.37,60.71-62.11c0.79-0.21,1.51-0.56,2.14-1.02c0.09-0.04,0.17-0.08,0.26-0.13
	C307.34,166.26,303.61,157.06,297.27,155.97z M227.39,217.76c-16.21-21.95-24.92-48.36-25.09-75.86
	c-0.18-30.58,9.41-60.64,24.63-86.96c0.39-0.67,0.8-1.32,1.19-1.99c-4.77,34.38,5.1,71.31,29.31,95.9
	c6.13,6.23,13.18,11.44,20.86,15.47C257.05,177.19,238.38,195.6,227.39,217.76z"/>
<path d="M115.94,165.63c-1.59-0.59-3.16-1.22-4.71-1.91c-0.74-0.33-1.48-0.68-2.22-1.03
	c-0.34-0.17-0.69-0.34-1.03-0.51c-0.11-0.06-0.22-0.11-0.33-0.17c-0.03-0.02-0.07-0.04-0.11-0.06c-2.88-1.55-5.66-3.24-8.33-5.12
	c-5.3-3.74-10.11-8.13-14.39-13c-2.32-2.65-4.48-5.44-6.48-8.34c-5.34-7.93-9.5-16.63-12.48-25.71c-3.1-9.43-4.97-19.27-5.62-29.17
	c-0.37-5.55-0.34-11.12,0.05-16.67c1.35-16.91,6.27-33.61,15.14-48.12c0.26-0.43,0.53-0.85,0.79-1.27
	c0.08-0.13,0.18-0.28,0.22-0.35c0.16-0.25,0.33-0.5,0.49-0.75c0.67-1,1.35-1.98,2.05-2.95c0.52-0.71,1.05-1.4,1.59-2.1
	c0.75-0.67,1.5-1.35,2.27-2.01c0.91-0.79,1.78-2.29,1.44-3.55c-0.34-1.29-1.83-2.09-3.02-2.35c-3.73-0.82-7.91,0.41-10.77,2.89
	c-13.13,11.38-24.86,24.4-34.91,38.57c-9.87,13.93-17.94,29.06-24.05,45.01c-5.83,15.23-9.67,31.26-11,47.53
	c-1.34,16.46-0.2,33.19,3.82,49.22c4.2,16.75,11.55,32.64,21.26,46.9c1.12,1.65,2.29,3.28,3.48,4.88
	c-0.05,0.11-0.11,0.22-0.15,0.34c-0.46,1.06,0.6,1.85,1.4,2.17c1.41,0.56,3.49,0.44,4.93,0.2c1.98-0.33,4.03-0.87,5.78-1.88
	c1.19-0.69,2.43-1.47,3.01-2.78c1.3-2.97,2.76-5.86,4.39-8.67c0.18-0.3,0.35-0.61,0.53-0.91c0.05-0.08,0.08-0.13,0.09-0.16
	c0.03-0.05,0.06-0.1,0.1-0.16c0.41-0.66,0.82-1.31,1.24-1.96c0.88-1.36,1.8-2.69,2.75-4.01c3.71-5.14,7.9-9.94,12.4-14.4
	c1.05-1.04,2.1-2.07,3.19-3.06c0.03-0.03,0.05-0.04,0.08-0.07c0.32-0.29,0.64-0.58,0.96-0.87c0.64-0.57,1.29-1.14,1.94-1.71
	c2.49-2.16,5.05-4.23,7.68-6.22c2.5-1.9,5.07-3.71,7.69-5.44c0.55-0.36,1.17-0.94,1.79-1.17c-0.23,0.15-0.46,0.29-0.69,0.44
	c0.24-0.15,0.48-0.3,0.72-0.45c0.36-0.23,0.73-0.45,1.09-0.67c1.34-0.82,2.69-1.61,4.06-2.38c3.1-1.75,6.26-3.36,9.47-4.89
	c0.48-0.21,0.95-0.43,1.43-0.64c0.79-0.34,1.58-0.68,2.37-1.01c1.72-0.72,3.46-1.4,5.22-2.04c1.36-0.5,3.23-1.45,4.17-2.64
	c0.54-0.68,0.95-1.7,0.28-2.42C117.58,167.13,117.53,166.22,115.94,165.63z M69.54,188.33c-10.86,7.93-21,17.28-29.11,28.05
	c-1.08,1.44-2.13,2.91-3.14,4.4c-1.65-2.58-3.23-5.21-4.72-7.89c-8.51-15.7-14.05-32.89-16.22-50.62
	c-0.58-4.73-0.91-9.49-1.04-14.25c-0.34-20.83,3.61-41.59,10.86-61.09c0.46-1.23,0.93-2.46,1.41-3.68
	c0.22-0.56,0.44-1.11,0.67-1.67c0.13-0.33,0.26-0.66,0.4-0.98c0.02-0.06,0.05-0.11,0.06-0.15c1.08-2.55,2.21-5.07,3.39-7.57
	c2.28-4.8,4.75-9.51,7.41-14.12c3.03-5.26,6.31-10.37,9.79-15.34c-3.23,11.2-4.7,22.9-4.57,34.54c0.14,12.75,2.27,25.51,6.45,37.56
	c4.12,11.88,10.29,23.12,18.44,32.73c8.09,9.53,18.19,17.09,29.63,22.12c0.37,0.16,0.74,0.31,1.11,0.47
	C89.47,175.46,79.11,181.35,69.54,188.33z"/>
</svg>