<?xml version="1.0" encoding="utf-8"?>
<svg xmlns="http://www.w3.org/2000/svg" viewBox="0 0 1220 410">
<style type="text/css">
	@import url("../../../../styles/logos-draft.css");
</style>

<g class="main w">
	<rect class="bg" x="4.64" y="5" width="1210.71" height="400"/>

	<g class="mnl">
		<line x1="486.07" y1="134.29" x2="344.64" y2="275.71"/>
		<line x1="615.36" y1="5" x2="615.36" y2="405"/>
		<line x1="1015.36" y1="5" x2="1015.36" y2="405"/>
		<line x1="175.36" y1="5" x2="175.36" y2="405"/>
		<line x1="125.36" y1="5" x2="125.36" y2="405"/>
		<line x1="275.36" y1="5" x2="275.36" y2="405"/>
		<line x1="315.36" y1="5" x2="315.36" y2="405"/>
		<line x1="486.07" y1="275.71" x2="344.64" y2="134.29"/>
		<line x1="886.07" y1="134.29" x2="744.64" y2="275.71"/>
		<line x1="886.07" y1="275.71" x2="744.64" y2="134.29"/>
		<line x1="246.07" y1="134.29" x2="104.64" y2="275.71"/>
		<line x1="246.07" y1="275.71" x2="104.64" y2="134.29"/>
	</g>

	<g class="mjl">
		<line x1="1115.36" y1="5" x2="1115.36" y2="405"/>
		<line x1="104.64" y1="5" x2="104.64" y2="405"/>
		<line x1="4.64" y1="105" x2="1215.36" y2="105"/>
		<line x1="4.64" y1="305" x2="1215.36" y2="305"/>
	</g>

	<g class="dl">
		<circle cx="815.36" cy="205" r="100"/>
		<circle cx="815.36" cy="205" r="100"/>
		<rect x="4.64" y="5" width="1210.71" height="400"/>
		<circle cx="175.36" cy="205" r="100"/>
		<circle cx="415.36" cy="205" r="100"/>
		<circle cx="615.36" cy="205" r="100"/>
		<circle cx="1015.36" cy="205" r="100"/>
		<line x1="4.64" y1="205" x2="1215.36" y2="205"/>
	</g>

	<g class="logo">
		<path d="M393.37,117.07c30.81-7.73,63.53,1.64,86.07,23.85c8.6,8.48,21.87-4.77,13.26-13.26c-23.92-23.58-57.61-35.42-91.02-31.1
			c-34.02,4.4-64.77,24.7-81.63,54.73c-16.19,28.83-18.55,64.53-5.88,95.12c13.13,31.69,40.81,56.23,74.22,64.6
			c37.28,9.35,76.99-1.75,104.31-28.67c8.6-8.48-4.66-21.74-13.26-13.26c-20.04,19.75-48.38,29.66-76.4,25.79
			c-27.99-3.87-52.99-21.01-66.8-45.62c-13.51-24.07-15.21-53.92-4.52-79.38C342.69,143.75,365.95,123.95,393.37,117.07z"/>
		<path d="M202.32,98.99c-37.28-9.35-76.99,1.75-104.31,28.67c-8.6,8.48,4.66,21.74,13.26,13.26c20.04-19.75,48.38-29.66,76.4-25.79
			c27.99,3.87,52.99,21.01,66.8,45.62c6.05,10.77,9.72,22.7,10.98,34.88c0,0-133.83,0-140.09,0c-12.07-0.01-12.09,18.75,0,18.75
			h140.13c-0.88,8.81-3.04,17.51-6.5,25.75c-10.97,26.12-34.23,45.92-61.65,52.8c-30.81,7.73-63.53-1.64-86.07-23.85
			c-8.6-8.48-21.87,4.77-13.26,13.26c23.92,23.58,57.61,35.42,91.02,31.1c34.02-4.4,64.77-24.7,81.63-54.73
			c16.19-28.83,18.55-64.53,5.88-95.12C263.41,131.9,235.73,107.36,202.32,98.99z"/>
		<path d="M870.18,110.35C836.31,90.69,793.03,90.91,759.4,111c-33.16,19.82-53.97,56.72-53.41,95.4
			c0.56,38.58,22,74.97,55.68,93.91c42.45,23.88,96.44,16.09,131.03-17.97c8.61-8.48-4.65-21.74-13.26-13.26
			c-25.89,25.5-65.14,33.68-98.88,19.71c-29.3-12.14-50.66-39.86-55.04-71.24c-0.15-1.06-0.27-2.11-0.38-3.17h190.22
			c2.73,0,4.84-0.97,6.34-2.46c1.83-1.51,3.05-3.81,3.03-6.91C924.46,166.3,903.77,129.83,870.18,110.35z M725.22,195.63
			c2.65-24.36,15.12-47.36,34.81-62.49c25.46-19.57,60.45-24.22,90.13-11.92c30.75,12.74,51.67,41.87,55.26,74.41H725.22z"/>
		<path d="M715.36,114.38c12.06,0,12.08-18.75,0-18.75h-200c-12.07-0.01-12.09,18.75,0,18.75h90.62V305c0,12.06,18.75,12.08,18.75,0
			V114.38H715.36z"/>
		<path d="M1115.36,95.63h-200c-12.07-0.01-12.09,18.75,0,18.75h90.62V305c0,12.06,18.75,12.08,18.75,0V114.38h90.63
			C1127.42,114.38,1127.44,95.63,1115.36,95.63z"/>
	</g>

	<g class="logo-draft">
		<path d="M393.37,117.07c30.81-7.73,63.53,1.64,86.07,23.85c8.6,8.48,21.87-4.77,13.26-13.26c-23.92-23.58-57.61-35.42-91.02-31.1
			c-34.02,4.4-64.77,24.7-81.63,54.73c-16.19,28.83-18.55,64.53-5.88,95.12c13.13,31.69,40.81,56.23,74.22,64.6
			c37.28,9.35,76.99-1.75,104.31-28.67c8.6-8.48-4.66-21.74-13.26-13.26c-20.04,19.75-48.38,29.66-76.4,25.79
			c-27.99-3.87-52.99-21.01-66.8-45.62c-13.51-24.07-15.21-53.92-4.52-79.38C342.69,143.75,365.95,123.95,393.37,117.07z"/>
		<path d="M202.32,98.99c-37.28-9.35-76.99,1.75-104.31,28.67c-8.6,8.48,4.66,21.74,13.26,13.26c20.04-19.75,48.38-29.66,76.4-25.79
			c27.99,3.87,52.99,21.01,66.8,45.62c6.05,10.77,9.72,22.7,10.98,34.88c0,0-133.83,0-140.09,0c-12.07-0.01-12.09,18.75,0,18.75
			h140.13c-0.88,8.81-3.04,17.51-6.5,25.75c-10.97,26.12-34.23,45.92-61.65,52.8c-30.81,7.73-63.53-1.64-86.07-23.85
			c-8.6-8.48-21.87,4.77-13.26,13.26c23.92,23.58,57.61,35.42,91.02,31.1c34.02-4.4,64.77-24.7,81.63-54.73
			c16.19-28.83,18.55-64.53,5.88-95.12C263.41,131.9,235.73,107.36,202.32,98.99z"/>
		<path d="M870.18,110.35C836.31,90.69,793.03,90.91,759.4,111c-33.16,19.82-53.97,56.72-53.41,95.4
			c0.56,38.58,22,74.97,55.68,93.91c42.45,23.88,96.44,16.09,131.03-17.97c8.61-8.48-4.65-21.74-13.26-13.26
			c-25.89,25.5-65.14,33.68-98.88,19.71c-29.3-12.14-50.66-39.86-55.04-71.24c-0.15-1.06-0.27-2.11-0.38-3.17h190.22
			c2.73,0,4.84-0.97,6.34-2.46c1.83-1.51,3.05-3.81,3.03-6.91C924.46,166.3,903.77,129.83,870.18,110.35z M725.22,195.63
			c2.65-24.36,15.12-47.36,34.81-62.49c25.46-19.57,60.45-24.22,90.13-11.92c30.75,12.74,51.67,41.87,55.26,74.41H725.22z"/>
		<path d="M715.36,114.38c12.06,0,12.08-18.75,0-18.75h-200c-12.07-0.01-12.09,18.75,0,18.75h90.62V305c0,12.06,18.75,12.08,18.75,0
			V114.38H715.36z"/>
		<path d="M1115.36,95.63h-200c-12.07-0.01-12.09,18.75,0,18.75h90.62V305c0,12.06,18.75,12.08,18.75,0V114.38h90.63
			C1127.42,114.38,1127.44,95.63,1115.36,95.63z"/>
	</g>
</g>
</svg>
