<?xml version="1.0" encoding="utf-8"?>
<!-- Generator: Adobe Illustrator 27.2.0, SVG Export Plug-In . SVG Version: 6.00 Build 0)  -->
<svg version="1.1" id="Слой_1" xmlns="http://www.w3.org/2000/svg" xmlns:xlink="http://www.w3.org/1999/xlink" x="0px" y="0px"
	 viewBox="0 0 1920 1080" style="enable-background:new 0 0 1920 1080;" xml:space="preserve">
<style type="text/css">
	.st0{fill:#F5F5F5;}
	.st1{opacity:0.5;fill:none;stroke:#000000;stroke-miterlimit:10;enable-background:new    ;}
	.st2{opacity:0.125;fill:none;stroke:#000000;stroke-miterlimit:10;enable-background:new    ;}
	.st3{fill-opacity:0.25;stroke:#000000;stroke-miterlimit:10;}
	.st4{opacity:0.25;enable-background:new    ;}
	.st5{font-family:'Noah-Regular';}
	.st6{font-size:20px;}
	.st7{fill:url(#SVGID_1_);}
	.st8{fill:url(#SVGID_00000062185215168391774890000007669773005248252583_);}
	.st9{fill:url(#SVGID_00000137850508916691725820000004706229630092814228_);}
	.st10{fill:url(#SVGID_00000067217705416079723730000010786021121884495798_);}
</style>
<rect class="st0" width="1920" height="1080"/>
<g>
	<line class="st1" x1="1594.05" y1="461.61" x2="325.95" y2="461.61"/>
	<line class="st1" x1="1594.05" y1="618.39" x2="325.95" y2="618.39"/>
	<line class="st1" x1="1594.05" y1="653.22" x2="325.95" y2="653.22"/>
	<line class="st1" x1="1594.05" y1="426.78" x2="325.95" y2="426.78"/>
	<line class="st2" x1="1594.05" y1="444.2" x2="325.95" y2="444.2"/>
	<line class="st2" x1="1594.05" y1="479.03" x2="325.95" y2="479.03"/>
	<line class="st2" x1="1594.05" y1="600.97" x2="325.95" y2="600.97"/>
	<line class="st2" x1="1594.05" y1="635.8" x2="325.95" y2="635.8"/>
</g>
<path class="st3" d="M1038.39,540c0,21.95-9.06,41.81-23.69,56.09c7.32,3.14,15.33,4.88,23.69,4.88v17.42
	c-14.28,0-27.87-3.83-39.37-10.45c-11.5,6.62-24.73,10.45-39.02,10.45c-43.2,0-78.39-35.19-78.39-78.39s35.19-78.39,78.39-78.39
	S1038.39,496.8,1038.39,540z M899.03,540c0,33.79,27.17,60.97,60.97,60.97c8.36,0,16.37-1.74,23.69-4.88
	C969.06,581.81,960,561.95,960,540h17.42c0,18.81,8.36,35.53,21.6,46.68c13.24-11.15,21.95-27.87,21.95-46.68
	c0-33.79-27.17-60.97-60.97-60.97S899.03,506.21,899.03,540z"/>
<g>
	<line class="st1" x1="550.65" y1="391.94" x2="550.65" y2="705.48"/>
	<line class="st1" x1="707.42" y1="391.94" x2="707.42" y2="705.48"/>
	<line class="st2" x1="690.01" y1="391.94" x2="690.01" y2="705.48"/>
	<line class="st2" x1="568.07" y1="391.94" x2="568.07" y2="705.48"/>
</g>
<g>
	<line class="st1" x1="716.13" y1="391.94" x2="716.13" y2="705.48"/>
	<line class="st1" x1="872.9" y1="391.94" x2="872.9" y2="705.48"/>
	<line class="st2" x1="855.49" y1="391.94" x2="855.49" y2="705.48"/>
	<line class="st2" x1="733.55" y1="391.94" x2="733.55" y2="705.48"/>
</g>
<g>
	<line class="st1" x1="881.61" y1="391.94" x2="881.61" y2="705.48"/>
	<line class="st1" x1="1038.39" y1="391.94" x2="1038.39" y2="705.48"/>
	<line class="st2" x1="1020.97" y1="391.94" x2="1020.97" y2="705.48"/>
	<line class="st2" x1="899.03" y1="391.94" x2="899.03" y2="705.48"/>
</g>
<g>
	<line class="st1" x1="1047.09" y1="391.94" x2="1047.09" y2="705.48"/>
	<line class="st1" x1="1203.87" y1="391.94" x2="1203.87" y2="705.48"/>
	<line class="st2" x1="1186.45" y1="391.94" x2="1186.45" y2="705.48"/>
	<line class="st2" x1="1064.51" y1="391.94" x2="1064.51" y2="705.48"/>
</g>
<g>
	<line class="st1" x1="1212.58" y1="391.94" x2="1212.58" y2="705.48"/>
	<line class="st1" x1="1369.35" y1="391.94" x2="1369.35" y2="705.48"/>
	<line class="st2" x1="1351.93" y1="391.94" x2="1351.93" y2="705.48"/>
	<line class="st2" x1="1229.99" y1="391.94" x2="1229.99" y2="705.48"/>
</g>
<text transform="matrix(1 0 0 1 618.7145 670.6419)" class="st4 st5 st6">en</text>
<text transform="matrix(1 0 0 1 789.2751 670.6419)" class="st4 st5 st6">u</text>
<text transform="matrix(1 0 0 1 945.1052 670.6419)" class="st4 st5 st6">cue</text>
<text transform="matrix(1 0 0 1 1120.236 670.6419)" class="st4 st5 st6">u</text>
<text transform="matrix(1 0 0 1 1280.6354 670.6419)" class="st4 st5 st6">en</text>
<path class="st3" d="M872.9,461.61h-17.42V540c0,33.79-27.17,60.97-60.97,60.97S733.54,573.8,733.54,540v-78.39h-17.42V540
	c0,43.2,35.19,78.39,78.39,78.39c24.73,0,46.68-11.5,60.97-29.26v29.26h17.42L872.9,461.61L872.9,461.61z"/>
<linearGradient id="SVGID_1_" gradientUnits="userSpaceOnUse" x1="960" y1="374.52" x2="960" y2="409.36" gradientTransform="matrix(1 0 0 -1 0 1080)">
	<stop  offset="0" style="stop-color:#F5F5F5"/>
	<stop  offset="1" style="stop-color:#F5F5F5;stop-opacity:0"/>
</linearGradient>
<rect x="291.11" y="670.64" class="st7" width="1337.78" height="34.84"/>
<linearGradient id="SVGID_00000049942703063162960460000009297924870569990065_" gradientUnits="userSpaceOnUse" x1="777.4971" y1="-751.5477" x2="777.4971" y2="-716.7076" gradientTransform="matrix(0 -1 -1 0 842.5023 1317.4971)">
	<stop  offset="0" style="stop-color:#F5F5F5"/>
	<stop  offset="1" style="stop-color:#F5F5F5;stop-opacity:0"/>
</linearGradient>
<polygon style="fill:url(#SVGID_00000049942703063162960460000009297924870569990065_);" points="1559.21,163.75 1559.21,916.25 
	1594.05,916.25 1594.05,163.75 "/>
<linearGradient id="SVGID_00000061436654610089872350000007233896708099296422_" gradientUnits="userSpaceOnUse" x1="607.5022" y1="-95.552" x2="607.5022" y2="-60.712" gradientTransform="matrix(-1 0 0 1 1567.5022 487.492)">
	<stop  offset="0" style="stop-color:#F5F5F5"/>
	<stop  offset="1" style="stop-color:#F5F5F5;stop-opacity:0"/>
</linearGradient>
<polygon style="fill:url(#SVGID_00000061436654610089872350000007233896708099296422_);" points="291.11,426.78 1628.89,426.78 
	1628.89,391.94 291.11,391.94 "/>
<linearGradient id="SVGID_00000165233962978654647880000016656642744377645239_" gradientUnits="userSpaceOnUse" x1="977.5051" y1="-111.5443" x2="977.5051" y2="-76.7044" gradientTransform="matrix(-1.961531e-08 1 1 1.961531e-08 437.4942 -437.5049)">
	<stop  offset="0" style="stop-color:#F5F5F5"/>
	<stop  offset="1" style="stop-color:#F5F5F5;stop-opacity:0"/>
</linearGradient>
<polygon style="fill:url(#SVGID_00000165233962978654647880000016656642744377645239_);" points="360.79,916.25 360.79,163.75 
	325.95,163.75 325.95,916.25 "/>
<g>
	<circle class="st2" cx="629.04" cy="540" r="78.39"/>
	<circle class="st2" cx="629.04" cy="540" r="60.97"/>
</g>
<g>
	<circle class="st2" cx="794.52" cy="540" r="78.39"/>
	<circle class="st2" cx="794.52" cy="540" r="60.97"/>
</g>
<g>
	<path class="st2" d="M1038.39,618.39C995.1,618.39,960,583.3,960,540s35.09-78.39,78.39-78.39"/>
	<path class="st2" d="M1038.39,600.97c-33.67,0-60.97-27.3-60.97-60.97s27.3-60.97,60.97-60.97"/>
</g>
<g>
	<circle class="st2" cx="1125.48" cy="540" r="78.39"/>
	<circle class="st2" cx="1125.48" cy="540" r="60.97"/>
</g>
<g>
	<circle class="st2" cx="1290.96" cy="540" r="78.39"/>
	<circle class="st2" cx="1290.96" cy="540" r="60.97"/>
</g>
<path class="st3" d="M550.65,618.39h17.42V540c0-33.79,27.17-60.97,60.97-60.97s60.97,27.17,60.97,60.97v78.39h17.42V540
	c0-43.2-35.19-78.39-78.39-78.39c-24.73,0-46.68,11.5-60.97,29.26v-29.26h-17.42L550.65,618.39L550.65,618.39z"/>
<path class="st3" d="M1203.87,461.61h-17.42V540c0,33.79-27.17,60.97-60.97,60.97s-60.97-27.17-60.97-60.97v-78.39h-17.42V540
	c0,43.2,35.19,78.39,78.39,78.39c24.73,0,46.68-11.5,60.97-29.26v29.26h17.42V461.61z"/>
<path class="st3" d="M1212.58,618.39H1230V540c0-33.79,27.17-60.97,60.97-60.97s60.97,27.17,60.97,60.97v78.39h17.42V540
	c0-43.2-35.19-78.39-78.39-78.39c-24.73,0-46.68,11.5-60.97,29.26v-29.26h-17.42V618.39z"/>
</svg>
