<?xml version="1.0" encoding="utf-8"?>
<svg xmlns="http://www.w3.org/2000/svg" viewBox="0 0 24 24" fill="#FED42B">
  <path d="M17.89,10.57l-0.05-0.23L15.86,10l1.15-1.56l-0.13-0.15L15.19,9.1l0.21-2.15l-0.17-0.1L14.2,8.59L13.04,6h-0.2
	l0.27,2.51l-2.91-2.33L9.96,6.25l2.24,2.81L7.76,7.59l-0.2,0.23l3.96,2.25l-5.46,0.45L6,10.86l5.68,0.62l-4.73,3.92l0.2,0.27
	l5.64-3.06L11.66,18H12l2.16-5.08l1.32,3.98l0.23-0.18l-0.54-4.04L17.22,15l0.13-0.21l-1.57-2.89l2.19,0.81L18,12.47l-1.97-1.45
	L17.89,10.57L17.89,10.57z"/>
</svg>