<?xml version="1.0" encoding="utf-8"?>
<svg xmlns="http://www.w3.org/2000/svg" viewBox="0 0 24 24" fill="#1ED760">
  <path d="M12.24,6C8.93,5.87,6.14,8.45,6,11.76c-0.13,3.31,2.45,6.1,5.76,6.23c3.31,0.13,6.1-2.45,6.23-5.76
	C18.13,8.93,15.55,6.14,12.24,6z M14.77,14.79c-0.07,0.13-0.22,0.2-0.36,0.18c-0.04-0.01-0.09-0.02-0.13-0.04
	c-0.79-0.45-1.66-0.75-2.57-0.87C10.8,13.93,9.89,13.97,9,14.19c-0.19,0.05-0.39-0.07-0.43-0.26c-0.05-0.19,0.07-0.39,0.26-0.43
	c0.98-0.24,1.98-0.29,2.98-0.14c1,0.14,1.95,0.46,2.82,0.96C14.81,14.4,14.87,14.62,14.77,14.79z M15.56,13.22
	c-0.12,0.23-0.41,0.31-0.63,0.19c-0.93-0.5-1.93-0.83-2.99-0.98c-1.05-0.15-2.11-0.11-3.14,0.12c-0.06,0.01-0.11,0.01-0.16,0.01
	c-0.19-0.03-0.35-0.17-0.39-0.36c-0.06-0.25,0.1-0.5,0.35-0.55c1.14-0.25,2.31-0.29,3.47-0.13c1.16,0.16,2.27,0.53,3.3,1.08
	C15.6,12.71,15.68,12.99,15.56,13.22z M16.43,11.44c-0.12,0.22-0.35,0.34-0.59,0.3c-0.06-0.01-0.13-0.03-0.18-0.06
	c-1.08-0.56-2.24-0.93-3.46-1.1c-1.21-0.17-2.44-0.13-3.63,0.11c-0.31,0.06-0.61-0.14-0.68-0.45C7.83,9.93,8.03,9.63,8.34,9.57
	c1.32-0.27,2.67-0.31,4.02-0.12c1.34,0.19,2.63,0.6,3.83,1.22C16.47,10.82,16.58,11.16,16.43,11.44z"/>
</svg>