<svg xmlns="http://www.w3.org/2000/svg" viewBox="0 0 24 24">
<style>
	path{fill:#231f20;}
	@media (prefers-color-scheme: dark){path{fill:#f2f3f5}}
</style>
<path d="M6,12c0-3.3,2.7-6,6-6c3.3,0,6,2.7,6,6c0,3.3-2.7,6-6,6h-0.5v0C8.4,17.7,6,15.1,6,12z M12.1,17
	c2.7-0.1,4.9-2.3,4.9-5c0-2.8-2.3-5-5-5c-2.8,0-5,2.3-5,5c0,2.8,2.3,5,5,5H12.1z"/>
<path d="M9.6,7.6c-0.1,0-0.1,0-0.2-0.1l0.3-0.9c0,0,0.1,0,0.1,0c0.1,0,0.2,0.1,0.3,0.1l0,0l0,0c0,0,0,0,0.1,0
	c0.1,0,0.3,0.1,0.4,0.2l0,0l0,0c0.1,0,0.2,0.1,0.2,0.1c0,0,0.1,0,0.1,0.1l0,0l0,0c0,0,0,0,0,0c0,0,0.1,0,0.1,0.1l0,0l0,0
	c0,0,0,0,0,0c0,0,0,0,0,0c0,0,0,0,0,0c0,0,0,0,0,0l0,0c0,0,0,0,0,0c0,0,0,0,0,0c0,0,0.1,0.1,0.1,0.1c0.1,0,0.1,0.1,0.2,0.1
	c0.1,0,0.1,0.1,0.2,0.1c0,0,0,0,0,0c0,0,0.1,0,0.1,0.1c0,0,0.1,0.1,0.1,0.1c0,0,0,0,0,0c0,0,0,0,0.1,0c0,0,0,0,0,0c0,0,0,0,0,0
	c0,0,0,0,0,0l0,0l0,0c0.5,0.4,1,0.9,1.4,1.4l0,0l0,0c0.5,0.6,0.8,1.3,1.1,2c0.7,2.1,0.5,4.4-0.6,6.3l-0.8-0.5c1-1.6,1.2-3.7,0.5-5.5
	l0,0l0,0c-0.2-0.6-0.5-1.2-0.9-1.7c-0.4-0.5-0.8-0.9-1.2-1.2c0,0-0.1,0-0.1-0.1c0,0,0,0-0.1,0c0,0,0,0,0,0c0,0-0.1,0-0.1-0.1
	c0,0,0,0,0,0c0,0,0,0,0,0l0,0l0,0c0,0,0,0-0.1,0c0,0-0.1-0.1-0.1-0.1l0,0l0,0c0,0,0,0,0,0c0,0,0,0,0,0c0,0-0.1,0-0.1-0.1
	c0,0-0.1-0.1-0.1-0.1c0,0,0,0,0,0l0,0c0,0,0,0,0,0c0,0,0,0,0,0c0,0,0,0,0,0c0,0,0,0,0,0c0,0,0,0,0,0c0,0,0,0-0.1,0c0,0,0,0,0,0
	c0,0-0.1,0-0.1-0.1c-0.1,0-0.2-0.1-0.2-0.1l0,0l0,0c-0.1,0-0.2-0.1-0.3-0.1c0,0-0.1,0-0.1,0C9.7,7.7,9.7,7.6,9.6,7.6z M10.8,8.1
	C10.8,8.1,10.8,8.1,10.8,8.1L10.8,8.1z M10.8,8.1C10.8,8.1,10.8,8.1,10.8,8.1L10.8,8.1z"/>
<path d="M11.6,9.9c1.5-0.3,2.8-1.1,3.8-2.3l0.8,0.6c-1.1,1.4-2.6,2.3-4.3,2.6l0,0c-0.8,0.2-1.7,0.2-2.6,0
	c-0.9-0.2-1.7-0.5-2.4-0.9l0.5-0.8c0.6,0.4,1.3,0.6,2.1,0.8l0,0l0,0C10.1,10.1,10.9,10.1,11.6,9.9"/>
<path d="M9,16.9c0.8-4.2,5.2-6.6,8.7-5.6l-0.3,0.9c-3-0.8-6.8,1.2-7.5,4.9L9,16.9z"/>
</svg>
