<svg xmlns="http://www.w3.org/2000/svg" viewBox="0 0 24 24">
	<style>
		path{fill:#231f20;}
		@media (prefers-color-scheme: dark){path{fill:#f2f3f5}}
	</style>
<path d="M11.1,14.5c-1.5-0.2-2.6-1.3-2.6-2.7c0-0.6,0.2-1.2,0.6-1.6C8.8,9.7,8.9,8.9,9,8.6c0.5-0.1,1.1,0.2,1.5,0.5
	C11,9,11.4,8.9,12,8.9c0.6,0,1,0.1,1.5,0.2c0.4-0.3,1-0.6,1.5-0.5c0.2,0.3,0.2,1.1,0,1.5c0.4,0.4,0.6,1,0.6,1.7
	c0,1.4-1.1,2.5-2.7,2.7c0.4,0.3,0.7,0.8,0.7,1.5v1.2c0,0.4,0.3,0.6,0.6,0.4c2.1-0.8,3.8-2.9,3.8-5.6c0-3.3-2.7-6-6-6
	c-3.3,0-6,2.7-6,6c0,2.6,1.7,4.8,3.9,5.6c0.3,0.1,0.6-0.1,0.6-0.4v-0.9c-0.2,0.1-0.4,0.1-0.6,0.1c-0.8,0-1.2-0.4-1.6-1.2
	c-0.1-0.3-0.3-0.5-0.5-0.5c-0.1,0-0.2-0.1-0.2-0.1c0-0.1,0.2-0.2,0.5-0.2c0.3,0,0.6,0.2,0.9,0.6c0.2,0.3,0.5,0.5,0.8,0.5
	c0.3,0,0.5-0.1,0.8-0.4C10.8,14.8,10.9,14.6,11.1,14.5z"/>
</svg>
