<svg xmlns="http://www.w3.org/2000/svg" viewBox="0 0 24 24">
<style>
	path{fill:#231f20;}
	@media (prefers-color-scheme: dark){path{fill:#f2f3f5}}
</style>
<path d="M12.1,17.9c-1.2,0-1.7-0.2-2.7-0.9c-0.6,0.8-2.5,1.4-2.6,0.3c0-0.8-0.2-1.4-0.4-2.1C6.3,14.4,6,13.4,6,12
	c0-3.4,2.8-6,6.1-6c3.3,0,5.9,2.7,5.9,6C18,15.3,15.4,17.9,12.1,17.9 M12.2,9c-1.6-0.1-2.9,1-3.1,2.8C8.8,13.2,9.2,15,9.6,15
	c0.2,0,0.6-0.3,0.8-0.6c0.4,0.3,0.9,0.5,1.5,0.5c1.7,0.1,3.1-1.2,3.2-2.9C15.1,10.5,13.8,9.1,12.2,9L12.2,9z"/>
</svg>
