<svg xmlns="http://www.w3.org/2000/svg" viewBox="0 0 700 700" fill="#F8785E">
<rect x="305" y="290" width="30" height="30"/>
<rect x="335" y="290" width="30" height="30"/>
<rect x="275" y="320" width="30" height="30"/>
<rect x="185" y="410" width="30" height="30"/>
<rect x="215" y="410" width="30" height="30"/>
<rect x="185" y="440" width="30" height="30"/>
<rect x="215" y="440" width="30" height="30"/>
<rect x="185" y="470" width="30" height="30"/>
<rect x="215" y="470" width="30" height="30"/>
<rect x="245" y="230" width="30" height="30"/>
<rect x="275" y="230" width="30" height="30"/>
<rect x="335" y="170" width="30" height="30"/>
<rect x="365" y="170" width="30" height="30"/>
<rect x="395" y="170" width="30" height="30"/>
<rect x="425" y="170" width="30" height="30"/>
<rect x="425" y="200" width="30" height="30"/>
<rect x="455" y="170" width="30" height="30"/>
<rect x="485" y="140" width="30" height="30"/>
<rect x="275" y="200" width="30" height="30"/>
<rect x="305" y="200" width="30" height="30"/>
<rect x="305" y="170" width="30" height="30"/>
<rect x="335" y="200" width="30" height="30"/>
<rect x="365" y="200" width="30" height="30"/>
<rect x="395" y="200" width="30" height="30"/>
<rect x="245" y="260" width="30" height="30"/>
<rect x="275" y="260" width="30" height="30"/>
<rect x="215" y="320" width="30" height="30"/>
<rect x="245" y="320" width="30" height="30"/>
<rect x="215" y="290" width="30" height="30"/>
<rect x="245" y="290" width="30" height="30"/>
<rect x="215" y="350" width="30" height="30"/>
<rect x="245" y="350" width="30" height="30"/>
<rect x="215" y="380" width="30" height="30"/>
<rect x="245" y="380" width="30" height="30"/>
<rect x="215" y="500" width="30" height="30"/>
<rect x="245" y="500" width="30" height="30"/>
<rect x="245" y="530" width="30" height="30"/>
<rect x="305" y="530" width="30" height="30"/>
<rect x="275" y="530" width="30" height="30"/>
<rect x="365" y="500" width="30" height="30"/>
<rect x="335" y="500" width="30" height="30"/>
<rect x="395" y="470" width="30" height="30"/>
<rect x="365" y="470" width="30" height="30"/>
<rect x="395" y="440" width="30" height="30"/>
<rect x="365" y="440" width="30" height="30"/>
<rect x="425" y="410" width="30" height="30"/>
<rect x="395" y="410" width="30" height="30"/>
<rect x="425" y="380" width="30" height="30"/>
<rect x="395" y="380" width="30" height="30"/>
<rect x="425" y="350" width="30" height="30"/>
<rect x="395" y="350" width="30" height="30"/>
<rect x="395" y="320" width="30" height="30"/>
<rect x="365" y="320" width="30" height="30"/>
<rect x="365" y="290" width="30" height="30"/>
</svg>