<svg xmlns="http://www.w3.org/2000/svg" viewBox="0 0 700 700" fill="#F8785E">
<rect x="413.75" y="100" transform="matrix(-1 -4.492907e-11 4.492907e-11 -1 927.5 700)" width="100" height="500"/>
<path d="M413.75,510c0,0,0,41.6-35,55v35h35V510z"/>
<path d="M513.75,190c0,0,0-41.6,35-55v-35l-35,0V190z"/>
<path d="M513.75,510c0,0,0,41.6,35,55v35h-35V510z"/>
<rect x="353.75" y="100" transform="matrix(-1 -4.668766e-11 4.668766e-11 -1 767.5 275)" width="60" height="75"/>
<path d="M413.75,350c0,0-115.65,9.22-149.78,69.68C231.24,477.65,222.7,545.86,151.25,565v35h100c0,0,53.65-34.03,75.62-105.65
	C354.29,405,413.75,405,413.75,405L413.75,350z"/>
<path d="M288.75,265c0-55,25-90,65-90v-75c-100,0-165,65-165,165"/>
<path d="M376.16,352.49c-51.4,0-87.4-36-87.4-87.4l-100-0.1c0,95,65,160,160,160l69.25-80.3
	C405.86,349.74,391.76,352.49,376.16,352.49z"/>
</svg>