<svg xmlns="http://www.w3.org/2000/svg" viewBox="0 0 469.7 200" style="fill:#f2f3f5;">
	<path d="M88.3,74.7V75H78.1L59,52.7V75h-8.7V25H59v22.4L76.9,25h9.8v0.2L67.1,49.8L88.3,74.7z" />
	<path d="M94.9,25h31.2v8h-22.6v14.4h20.2v7.8h-20.2V75h-8.7V25L94.9,25z" />
	<path
		d="M158.9,43.6c2.4,1.5,4.2,3.5,5.6,6.1s2,5.5,2,8.8c0,3.4-0.7,6.4-2,9s-3.2,4.7-5.6,6.1s-5.1,2.2-8.1,2.2
		c-2.2,0-4.2-0.4-6.1-1.2s-3.5-1.9-4.9-3.3c0.1,1.5,0.1,4.1,0.1,7.8v12.1h-8v-49h5.4l1.5,5c1.4-1.9,3.1-3.3,5.1-4.3
		c2-1,4.3-1.5,6.8-1.5C153.9,41.4,156.6,42.2,158.9,43.6z M155.9,66c1.7-1.9,2.5-4.3,2.5-7.3c0-3-0.9-5.5-2.5-7.4s-3.9-2.8-6.6-2.8
		c-2.8,0-5.1,0.9-6.9,2.8s-2.6,4.3-2.6,7.3c0,3.1,0.9,5.6,2.6,7.5c1.8,1.9,4,2.8,6.8,2.8C151.9,68.8,154.2,67.9,155.9,66z" />
	<path
		d="M196.2,42.9l-2.1,6.8c-1.4-0.5-2.8-0.7-4.3-0.7c-2.4,0-4.2,0.7-5.7,2.2s-2.1,3.5-2.1,6V75h-8V42.2h5.4
		l1.5,4.8c0.9-1.8,2.2-3.2,3.8-4.2c1.6-1,3.5-1.4,5.7-1.4C192.7,41.5,194.6,42,196.2,42.9z" />
	<path
		d="M206.3,73.8c-2.7-1.5-4.8-3.5-6.2-6.2c-1.5-2.7-2.2-5.6-2.2-9c0-3.3,0.8-6.3,2.2-8.9s3.6-4.7,6.2-6.1
		s5.7-2.2,9.1-2.2s6.4,0.7,9.1,2.2c2.7,1.5,4.8,3.5,6.3,6.1s2.2,5.6,2.2,8.9s-0.8,6.3-2.2,9c-1.5,2.7-3.6,4.7-6.3,6.2
		c-2.7,1.5-5.7,2.2-9.1,2.2C212,76,208.9,75.2,206.3,73.8z M222.2,66c1.7-1.9,2.6-4.3,2.6-7.4s-0.9-5.5-2.6-7.4s-4-2.8-6.9-2.8
		c-2.8,0-5.1,1-6.8,2.9c-1.8,1.9-2.6,4.4-2.6,7.3c0,3,0.9,5.4,2.6,7.4c1.8,1.9,4,2.9,6.8,2.9C218.2,68.8,220.5,67.9,222.2,66z" />
	<path
		d="M273,22.1V75h-5.5l-1.4-4.9c-1.4,1.8-3,3.2-5,4.2c-2,1-4.2,1.5-6.8,1.5c-3.1,0-5.8-0.7-8.2-2.2
		c-2.4-1.5-4.3-3.5-5.6-6.1c-1.3-2.6-2-5.7-2-9.1c0-3.2,0.7-6.2,2-8.8s3.2-4.6,5.6-6.1c2.4-1.5,5.1-2.2,8.2-2.2
		c2.2,0,4.3,0.4,6.2,1.2s3.5,2,4.8,3.5c-0.1-3-0.2-6.2-0.2-9.4V22.1H273z M262.7,66.1c1.7-1.9,2.6-4.3,2.6-7.4c0-3-0.9-5.5-2.6-7.3
		c-1.7-1.9-4-2.8-6.8-2.8c-2.8,0-5.1,0.9-6.8,2.8c-1.7,1.9-2.6,4.3-2.6,7.3c0,3,0.9,5.5,2.6,7.4s4,2.8,6.8,2.8
		C258.7,68.8,261,67.9,262.7,66.1z" />
	<path
		d="M311.4,42.2V75h-5.6l-1.6-5c-1.1,1.8-2.6,3.2-4.4,4.2c-1.8,1-3.8,1.5-6.1,1.5c-3.9,0-6.8-1.2-8.8-3.5
		c-2-2.3-3-5.6-3-9.7V42.2h8.1v19.5c0,4.5,1.9,6.7,5.7,6.7c2.4,0,4.3-0.9,5.6-2.7c1.4-1.8,2-4,2-6.6v-17H311.4z" />
	<path
		d="M327.5,74c-2.6-1.3-4.7-3.3-6.3-5.9c-1.6-2.6-2.4-5.7-2.4-9.4c0-3.5,0.8-6.5,2.3-9.1c1.5-2.6,3.6-4.6,6.3-6
		c2.6-1.4,5.5-2.1,8.7-2.1c4.8,0,8.8,1.5,12.2,4.4l-3.9,5.4c-1.2-1-2.4-1.7-3.6-2.1c-1.2-0.4-2.6-0.7-4.1-0.7c-2.8,0-5.1,0.9-7,2.8
		s-2.8,4.4-2.8,7.5c0,3.1,0.9,5.6,2.8,7.5s4.1,2.8,6.9,2.8c1.7,0,3.2-0.3,4.6-0.8c1.3-0.5,2.6-1.4,3.8-2.6l4,5.4
		c-1.9,1.8-3.9,3.1-5.9,3.9c-2,0.8-4.5,1.2-7.3,1.2C332.8,76,330.1,75.3,327.5,74z" />
	<path
		d="M359.8,73.1c-1.7-1.8-2.6-4.5-2.6-8.1V49.1l-5.8-0.4v-6.4h5.8l0.2-10.5h7.8v10.5h10.1v6.8h-10.1v15.1
		c0,1.5,0.3,2.6,0.9,3.2c0.6,0.6,1.5,1,2.7,1c1.9,0,3.8-0.6,5.5-1.7l2.6,6c-3.2,2-6.5,3-9.9,3C363.9,75.8,361.5,74.9,359.8,73.1z"
	/>
	<path
		d="M382.5,34c-0.9-0.9-1.4-2-1.4-3.4s0.5-2.5,1.4-3.4s2.1-1.4,3.6-1.4s2.7,0.5,3.6,1.4s1.4,2.1,1.4,3.5
		c0,1.3-0.5,2.4-1.4,3.3c-0.9,0.9-2.1,1.4-3.6,1.4C384.7,35.4,383.4,35,382.5,34z M382.1,42.2h8V75h-8V42.2z" />
	<path
		d="M406,73.8c-2.7-1.5-4.8-3.5-6.2-6.2c-1.5-2.7-2.2-5.6-2.2-9c0-3.3,0.8-6.3,2.2-8.9s3.6-4.7,6.2-6.1
		s5.7-2.2,9.1-2.2s6.4,0.7,9.1,2.2c2.7,1.5,4.8,3.5,6.3,6.1s2.2,5.6,2.2,8.9s-0.8,6.3-2.2,9c-1.5,2.7-3.6,4.7-6.3,6.2
		c-2.7,1.5-5.7,2.2-9.1,2.2C411.7,76,408.7,75.2,406,73.8z M421.9,66c1.7-1.9,2.6-4.3,2.6-7.4s-0.9-5.5-2.6-7.4s-4-2.8-6.9-2.8
		c-2.8,0-5.1,1-6.8,2.9c-1.8,1.9-2.6,4.4-2.6,7.3c0,3,0.9,5.4,2.6,7.4c1.8,1.9,4,2.9,6.8,2.9C417.9,68.8,420.2,67.9,421.9,66z" />
	<path
		d="M466.7,44.8c2,2.3,3,5.5,3,9.7V75h-8V55.2c0-4.5-1.9-6.7-5.6-6.7c-2.5,0-4.4,0.8-5.8,2.3
		c-1.5,1.6-2.2,3.6-2.2,6.1v18h-8V42.2h5.4l1.6,5.2c1.2-1.8,2.7-3.3,4.5-4.4s4-1.7,6.5-1.7C461.9,41.4,464.7,42.5,466.7,44.8z" />
</svg>