<svg xmlns="http://www.w3.org/2000/svg" viewBox="0 0 334.84 100">
	<style type="text/css">
		.o{fill:#FF6433;}
		.d{fill:#414271;}
		.p{fill:#9943E2;}
		.r{fill:#FF4267;}
		.g{fill:#1BCEC4;}
		.b{fill:#5646FF;}
		.y{fill:#FF9E33;}
		.t{fill:#f2f3f5;}
	</style>
	<rect class="o" x="50" y="25" width="50" height="25" />
	<rect class="d" x="50" width="50" height="25" />
	<rect class="p" x="50" y="50" width="50" height="50" />
	<path class="r" d="M50,0v50H0C27.61,50,50,27.61,50,0z" />
	<path class="g" d="M50,0c0,27.61-22.39,50-50,50V0H50z" />
	<path class="b" d="M0,50h50v50C50,72.39,27.61,50,0,50z" />
	<path class="y" d="M0,50c27.61,0,50,22.39,50,50H0V50z" />
	<g class="t">
		<path
			d="M144.17,37.37v0.15h-5.11l-9.56-11.17v11.17h-4.34V12.52h4.34v11.21l8.97-11.21h4.92v0.11l-9.85,12.28
		L144.17,37.37z" />
		<path d="M147.44,12.52h15.62v4.01h-11.28v7.2h10.11v3.9h-10.11v9.89h-4.34V12.52z" />
		<path
			d="M179.47,21.82c1.19,0.73,2.12,1.75,2.79,3.05c0.67,1.3,1.01,2.76,1.01,4.37c0,1.69-0.34,3.19-1.01,4.5
		c-0.67,1.31-1.61,2.33-2.79,3.07c-1.19,0.74-2.53,1.1-4.02,1.1c-1.1,0-2.13-0.2-3.07-0.61c-0.94-0.4-1.76-0.96-2.44-1.67
		c0.05,0.76,0.07,2.06,0.07,3.9v6.06H166V21.12h2.72l0.77,2.5c0.69-0.93,1.54-1.65,2.55-2.15c1.02-0.5,2.15-0.75,3.4-0.75
		C176.94,20.72,178.28,21.08,179.47,21.82z M177.93,33.01c0.85-0.94,1.27-2.16,1.27-3.66c0-1.52-0.42-2.75-1.27-3.69
		c-0.85-0.94-1.95-1.42-3.33-1.42c-1.42,0-2.57,0.47-3.44,1.4c-0.87,0.93-1.3,2.14-1.3,3.64c0,1.54,0.44,2.79,1.32,3.73
		c0.88,0.94,2.02,1.42,3.42,1.42C175.97,34.42,177.08,33.95,177.93,33.01z" />
		<path
			d="M198.08,21.45l-1.03,3.38c-0.69-0.24-1.4-0.37-2.13-0.37c-1.18,0-2.12,0.37-2.83,1.1
		c-0.71,0.74-1.07,1.74-1.07,3.01v8.93h-4.01V21.12h2.72l0.77,2.43c0.47-0.91,1.1-1.6,1.91-2.08c0.81-0.48,1.75-0.72,2.83-0.72
		C196.33,20.75,197.28,20.99,198.08,21.45z" />
		<path
			d="M203.14,36.89c-1.34-0.73-2.38-1.76-3.12-3.09c-0.75-1.32-1.12-2.82-1.12-4.48c0-1.67,0.37-3.15,1.12-4.47
		c0.75-1.31,1.79-2.33,3.12-3.07c1.33-0.74,2.85-1.1,4.54-1.1c1.69,0,3.21,0.37,4.56,1.1c1.35,0.74,2.39,1.76,3.14,3.07
		c0.75,1.31,1.12,2.8,1.12,4.47c0,1.67-0.37,3.16-1.12,4.48c-0.75,1.32-1.8,2.35-3.14,3.09c-1.35,0.74-2.87,1.1-4.56,1.1
		C205.99,37.99,204.47,37.62,203.14,36.89z M211.11,33.01c0.87-0.94,1.3-2.17,1.3-3.69c0-1.52-0.44-2.75-1.3-3.69
		c-0.87-0.94-2.02-1.42-3.44-1.42c-1.4,0-2.54,0.48-3.42,1.43c-0.88,0.96-1.32,2.18-1.32,3.68c0,1.5,0.44,2.72,1.32,3.68
		c0.88,0.96,2.02,1.43,3.42,1.43C209.1,34.42,210.24,33.95,211.11,33.01z" />
		<path
			d="M236.49,11.05v26.46h-2.76l-0.7-2.46c-0.69,0.91-1.52,1.61-2.52,2.11c-0.99,0.5-2.13,0.75-3.4,0.75
		c-1.54,0-2.92-0.37-4.12-1.1c-1.2-0.73-2.13-1.76-2.79-3.07c-0.66-1.31-0.99-2.82-0.99-4.54c0-1.62,0.34-3.07,1.01-4.37
		c0.67-1.3,1.61-2.31,2.81-3.03c1.2-0.72,2.56-1.08,4.08-1.08c1.1,0,2.13,0.21,3.09,0.62c0.96,0.42,1.75,0.99,2.39,1.73
		c-0.07-1.52-0.11-3.09-0.11-4.7v-7.31H236.49z M231.35,33.03c0.86-0.93,1.29-2.17,1.29-3.71c0-1.52-0.43-2.74-1.29-3.68
		c-0.86-0.93-2-1.4-3.42-1.4c-1.4,0-2.52,0.47-3.38,1.4c-0.86,0.93-1.29,2.16-1.29,3.68c0,1.52,0.43,2.75,1.29,3.69
		c0.86,0.94,1.98,1.42,3.38,1.42C229.35,34.42,230.49,33.96,231.35,33.03z" />
		<path
			d="M255.71,21.12v16.39h-2.79l-0.81-2.5c-0.56,0.88-1.29,1.57-2.19,2.08c-0.89,0.5-1.91,0.75-3.03,0.75
		c-1.94,0-3.41-0.58-4.41-1.75c-1.01-1.16-1.51-2.77-1.51-4.83V21.12h4.04v9.78c0,2.23,0.96,3.34,2.87,3.34
		c1.2,0,2.14-0.44,2.81-1.32c0.67-0.88,1.01-1.98,1.01-3.31v-8.49H255.71z" />
		<path
			d="M263.74,36.98c-1.29-0.67-2.33-1.67-3.14-2.98c-0.81-1.31-1.21-2.87-1.21-4.69c0-1.74,0.39-3.26,1.16-4.58
		c0.77-1.31,1.82-2.32,3.14-3.01c1.32-0.7,2.77-1.05,4.34-1.05c2.38,0,4.41,0.74,6.1,2.21l-1.95,2.68
		c-0.59-0.49-1.18-0.85-1.78-1.07c-0.6-0.22-1.29-0.33-2.08-0.33c-1.4,0-2.56,0.47-3.49,1.42c-0.93,0.94-1.4,2.19-1.4,3.73
		c0,1.57,0.46,2.82,1.38,3.75c0.92,0.93,2.06,1.4,3.44,1.4c0.86,0,1.62-0.13,2.28-0.4c0.66-0.27,1.3-0.7,1.91-1.29l2.02,2.68
		c-0.96,0.88-1.94,1.53-2.96,1.93c-1.02,0.4-2.24,0.61-3.66,0.61C266.39,37.99,265.03,37.65,263.74,36.98z" />
		<path
			d="M279.88,36.54c-0.87-0.89-1.3-2.24-1.3-4.02v-7.98l-2.9-0.22v-3.2h2.9l0.11-5.26h3.9v5.26h5.07v3.42h-5.07
		v7.57c0,0.76,0.15,1.3,0.46,1.62c0.31,0.32,0.75,0.48,1.34,0.48c0.96,0,1.87-0.28,2.76-0.85l1.29,3.01c-1.59,1-3.25,1.51-4.96,1.51
		C281.94,37.88,280.75,37.43,279.88,36.54z" />
		<path
			d="M291.27,17.02c-0.45-0.45-0.68-1.02-0.68-1.71c0-0.69,0.23-1.26,0.68-1.71c0.45-0.45,1.06-0.68,1.82-0.68
		c0.76,0,1.37,0.23,1.82,0.7c0.45,0.47,0.68,1.04,0.68,1.73c0,0.66-0.23,1.22-0.7,1.67c-0.47,0.45-1.07,0.68-1.8,0.68
		C292.33,17.7,291.72,17.48,291.27,17.02z M291.07,21.12h4.01v16.39h-4.01V21.12z" />
		<path
			d="M302.99,36.89c-1.34-0.73-2.38-1.76-3.12-3.09c-0.75-1.32-1.12-2.82-1.12-4.48c0-1.67,0.37-3.15,1.12-4.47
		c0.75-1.31,1.79-2.33,3.12-3.07c1.34-0.74,2.85-1.1,4.54-1.1c1.69,0,3.21,0.37,4.56,1.1c1.35,0.74,2.39,1.76,3.14,3.07
		c0.75,1.31,1.12,2.8,1.12,4.47c0,1.67-0.37,3.16-1.12,4.48c-0.75,1.32-1.8,2.35-3.14,3.09c-1.35,0.74-2.87,1.1-4.56,1.1
		C305.84,37.99,304.33,37.62,302.99,36.89z M310.97,33.01c0.87-0.94,1.3-2.17,1.3-3.69c0-1.52-0.44-2.75-1.3-3.69
		c-0.87-0.94-2.02-1.42-3.44-1.42c-1.4,0-2.54,0.48-3.42,1.43c-0.88,0.96-1.32,2.18-1.32,3.68c0,1.5,0.44,2.72,1.32,3.68
		c0.88,0.96,2.02,1.43,3.42,1.43C308.95,34.42,310.1,33.95,310.97,33.01z" />
		<path
			d="M333.35,22.39c0.99,1.14,1.49,2.76,1.49,4.87v10.25h-4.01v-9.89c0-2.23-0.93-3.34-2.79-3.34
		c-1.23,0-2.2,0.39-2.92,1.18c-0.72,0.78-1.08,1.8-1.08,3.05v9h-4.01V21.12h2.72l0.81,2.57c0.59-0.91,1.34-1.64,2.26-2.19
		c0.92-0.55,2-0.83,3.25-0.83C330.93,20.68,332.36,21.25,333.35,22.39z" />
	</g>
</svg>