<svg xmlns="http://www.w3.org/2000/svg" viewBox="0 0 1920 1080" fill="#DD1D00">
<path d="M791.6,625.9c-18.4-16.2-41.7-24.3-70-24.3s-49.4,7.1-63.2,21.3c-13.8,14.2-18.7,28.9-14.8,44.1
	c2.1,8.2,6.6,14.3,13.4,18.1c6.8,3.9,14.1,4.8,22.1,3c16.8-4,25.1-13.7,25.1-29.1c0-4-0.5-10-1.4-18.1c-0.9-8.1-1.3-14-1-17.8
	c0.3-3.7,1.1-6.6,2.4-8.8c2.7-4.5,8.9-6.2,18.7-5.2c23.3,3.6,35.3,31.6,35.9,84h-47.6v8h47.6c-0.9,52.2-20.5,78.4-58.6,78.4
	c-9,0-18.2-2.4-27.5-7.2c-9.3-4.8-16.2-10.5-20.7-17.2l-5.6,4c6.1,10.1,15.3,18.2,27.5,24.3c12.2,6.1,25.9,9.2,41.1,9.2
	c69.4,0,104.1-31.8,104.1-95.3C819.1,665.9,809.9,642.1,791.6,625.9z"/>
<polygon points="973.2,389.9 1028.2,322.1 1052.1,322.1 1052.1,314.1 985.1,314.1 985.1,322.1 1017,322.1 968.4,383.1 
	922.9,322.1 942.8,322.1 942.8,314.1 838,314.1 838,322.1 853.9,322.1 923.3,415 867.1,489.6 843.1,489.6 843.1,497.6 910.5,497.6 
	910.5,489.6 878.2,489.6 928.9,422.6 979.1,489.6 959.2,489.6 959.2,497.6 1063.7,497.6 1063.7,489.6 1047.7,489.6 	"/>
<path d="M401.5,294.4c7.8-8.1,22.4-12.2,43.7-12.2h12v207.4h-27.9v8h115.7v-8h-27.9V282.2h12
	c21.5,0,36.2,4.1,44.1,12.2c7.8,8.1,11.8,24,11.8,47.6h8v-67.8h-211V342h8C389.7,318.4,393.6,302.5,401.5,294.4z"/>
<polygon points="700.4,489.6 680.4,489.6 680.4,462.8 750.2,393 750.2,489.6 730.3,489.6 730.3,497.6 830,497.6 
	830,489.6 810,489.6 810,322.1 830,322.1 830,314.1 810,314.1 730.3,314.1 730.3,322.1 750.2,322.1 750.2,381.7 680.4,451.5 
	680.4,322.1 700.4,322.1 700.4,314.1 680.4,314.1 600.7,314.1 600.7,322.1 620.6,322.1 620.6,489.6 600.7,489.6 600.7,497.6 
	700.4,497.6 	"/>
<polygon points="1201.3,314.1 1201.3,322.1 1221.2,322.1 1221.2,381.7 1151.4,451.5 1151.4,322.1 1171.4,322.1 
	1171.4,314.1 1151.4,314.1 1071.7,314.1 1071.7,322.1 1091.6,322.1 1091.6,489.6 1071.7,489.6 1071.7,497.6 1171.4,497.6 
	1171.4,489.6 1151.4,489.6 1151.4,462.8 1221.2,393 1221.2,489.6 1201.3,489.6 1201.3,497.6 1301,497.6 1301,489.6 1281,489.6 
	1281,322.1 1301,322.1 1301,314.1 1281,314.1 	"/>
<polygon points="1538.3,322.1 1538.3,314.1 1518.3,314.1 1438.6,314.1 1438.6,322.1 1458.5,322.1 1458.5,381.7 
	1388.7,451.5 1388.7,322.1 1408.7,322.1 1408.7,314.1 1388.7,314.1 1309,314.1 1309,322.1 1328.9,322.1 1328.9,489.6 1309,489.6 
	1309,497.6 1408.7,497.6 1408.7,489.6 1388.7,489.6 1388.7,462.8 1458.5,393 1458.5,489.6 1438.6,489.6 1438.6,497.6 1538.3,497.6 
	1538.3,489.6 1518.3,489.6 1518.3,322.1 	"/>
<path d="M618.8,780.8V565.4h19.9v-8h-19.9h-17.7H539H423.8v8h31.5v132.4c0,25.8-6.2,46.2-18.5,61.2
	c-10,12.2-21,19.4-32.9,21.7h-22.2v67.8h8c0-23.7,4.7-39.5,14.1-47.6c9.4-8.1,24.7-12.2,45.7-12.2h14.4H539h26.2h14.4
	c21,0,36.2,4.1,45.7,12.2c9.4,8.1,14.1,24,14.1,47.6h8v-67.8h-8.6L618.8,780.8L618.8,780.8L618.8,780.8z M539,780.8h-75.1h-35.2
	c25.1-14.8,36.6-44.7,36.6-90.9V565.4H539H559v215.4L539,780.8L539,780.8z"/>
<polygon points="948.7,605.3 948.7,613.3 968.7,613.3 968.7,693.1 898.9,693.1 898.9,613.3 918.8,613.3 918.8,605.3 
	898.9,605.3 819.1,605.3 819.1,613.3 839,613.3 839,780.8 819.1,780.8 819.1,788.8 918.8,788.8 918.8,780.8 898.9,780.8 898.9,701 
	968.7,701 968.7,780.8 948.7,780.8 948.7,788.8 1048.4,788.8 1048.4,780.8 1028.5,780.8 1028.5,613.3 1048.4,613.3 1048.4,605.3 
	1028.5,605.3 	"/>
<path d="M1381.6,279.9c8.5,5.8,19.4,8.8,32.8,8.8c5.6,0.3,11.9,0.3,18.4,0c13.4,0,24.3-2.9,32.8-8.8
	c8.5-5.8,13.5-13.1,15-21.6c1.5-8.6-0.2-15.2-5.1-19.9c-4.9-4.7-10.6-7-17.2-7c-13.8,0-20.7,8.2-20.7,24.5v4.8
	c0,1.9,0.1,3.4,0.2,4.6c0.1,1.2,0.1,2.6,0,4.3c-0.1,1.7-0.2,3-0.3,4c-0.1,1-0.2,2.1-0.3,3.3c-0.1,1.3-0.4,2.2-0.8,2.7
	c-0.4,0.5-0.9,1.2-1.4,1.9c-0.5,0.7-1.3,1.1-2.1,0.9h-18.4c-0.7,0.1-1.5-0.2-2.1-0.9c-0.5-0.7-1-1.4-1.4-1.9
	c-0.4-0.5-0.7-1.4-0.8-2.7c-0.1-1.3-0.2-2.4-0.3-3.3c-0.1-0.9-0.2-2.3-0.3-4c-0.1-1.7-0.1-3.1,0-4.3c0.1-1.2,0.2-2.7,0.2-4.6v-4.8
	c0-16.3-6.9-24.5-20.7-24.5c-6.6,0-12.3,2.3-17.2,7c-4.9,4.7-6.6,11.3-5.1,19.9C1368.2,266.9,1373.1,274.1,1381.6,279.9z"/>
</svg>