<svg xmlns="http://www.w3.org/2000/svg" viewBox="0 0 1422 760">
<g fill="#DD1D00">
	<path d="M503.76,484.84c-22.56-19.93-51.22-29.9-86.03-29.9s-60.7,8.76-77.69,26.23
		c-16.99,17.49-23.04,35.55-18.15,54.18c2.63,10.13,8.1,17.57,16.44,22.3c8.32,4.75,17.39,5.96,27.21,3.67
		c20.59-4.89,30.88-16.82,30.88-35.78c0-4.91-0.58-12.33-1.72-22.3c-1.14-9.97-1.56-17.23-1.24-21.82
		c0.34-4.57,1.32-8.16,2.95-10.77c3.27-5.57,10.95-7.68,23.04-6.38c28.68,4.47,43.38,38.87,44.09,103.19h-58.5v9.81h58.48
		c-1.15,64.22-25.14,96.32-72.01,96.32c-11.11,0-22.38-2.93-33.83-8.82c-11.43-5.88-19.93-12.91-25.49-21.08l-6.86,4.91
		c7.52,12.43,18.81,22.38,33.83,29.9c15.04,7.52,31.86,11.27,50.49,11.27c85.31,0,127.96-39.04,127.96-117.15
		C537.59,534.03,526.3,504.79,503.76,484.84z"/>
	<polygon points="726.96,194.82 794.62,111.5 824.02,111.5 824.02,101.69 741.68,101.69 741.68,111.5 780.89,111.5 721.07,186.5 
		665.2,111.5 689.7,111.5 689.7,101.69 560.78,101.69 560.78,111.5 580.39,111.5 665.68,225.72 596.56,317.37 567.14,317.37 
		567.14,327.19 650,327.19 650,317.37 610.29,317.37 672.54,235.03 734.32,317.37 709.8,317.37 709.8,327.19 838.24,327.19 
		838.24,317.37 818.63,317.37 	"/>
	<path d="M24.27,77.43c9.63-9.97,27.53-14.96,53.68-14.96h14.7v254.9H58.34v9.81H200.5v-9.81h-34.31V62.47h14.7
		c26.47,0,44.52,4.99,54.18,14.96c9.63,9.95,14.46,29.48,14.46,58.56h9.79V52.65H0.01v83.34H9.8C9.8,106.91,14.63,87.39,24.27,77.43
		z"/>
	<polygon points="391.67,317.37 367.15,317.37 367.15,284.41 452.95,198.62 452.95,317.37 428.43,317.37 428.43,327.19 
		550.99,327.19 550.99,317.37 526.47,317.37 526.47,111.5 550.99,111.5 550.99,101.69 526.47,101.69 428.43,101.69 428.43,111.5 
		452.95,111.5 452.95,184.74 367.15,270.53 367.15,111.5 391.67,111.5 391.67,101.69 367.15,101.69 269.11,101.69 269.11,111.5 
		293.63,111.5 293.63,317.37 269.11,317.37 269.11,327.19 391.67,327.19 	"/>
	<polygon points="1007.35,101.69 1007.35,111.5 1031.87,111.5 1031.87,184.74 946.07,270.53 946.07,111.5 970.59,111.5 
		970.59,101.69 946.07,101.69 848.03,101.69 848.03,111.5 872.55,111.5 872.55,317.37 848.03,317.37 848.03,327.19 970.59,327.19 
		970.59,317.37 946.07,317.37 946.07,284.41 1031.87,198.62 1031.87,317.37 1007.35,317.37 1007.35,327.19 1129.91,327.19 
		1129.91,317.37 1105.39,317.37 1105.39,111.5 1129.91,111.5 1129.91,101.69 1105.39,101.69 	"/>
	<polygon points="1421.57,111.5 1421.57,101.69 1397.05,101.69 1299.02,101.69 1299.02,111.5 1323.53,111.5 1323.53,184.74 
		1237.74,270.53 1237.74,111.5 1262.25,111.5 1262.25,101.69 1237.74,101.69 1139.7,101.69 1139.7,111.5 1164.21,111.5 
		1164.21,317.37 1139.7,317.37 1139.7,327.19 1262.25,327.19 1262.25,317.37 1237.74,317.37 1237.74,284.41 1323.53,198.62 
		1323.53,317.37 1299.02,317.37 1299.02,327.19 1421.57,327.19 1421.57,317.37 1397.05,317.37 1397.05,111.5 	"/>
	<path d="M291.38,675.28V410.57h24.51v-9.81h-24.51h-21.75h-76.29H51.76v9.81H90.5v162.76c0,31.7-7.6,56.79-22.8,75.24
		c-12.33,14.99-25.79,23.89-40.39,26.72H0v83.34h9.81c0-29.08,5.8-48.61,17.39-58.56c11.61-9.97,30.32-14.96,56.13-14.96h17.65
		h92.34h32.17h17.65c25.81,0,44.52,4.99,56.13,14.96c11.59,9.95,17.39,29.48,17.39,58.56h9.81v-83.34h-10.6h-24.49V675.28z
		 M193.34,675.28H101H57.76c30.82-18.13,44.99-55,44.99-111.77V410.57h90.59h24.51v264.72h-24.51V675.28z"/>
	<polygon points="696.91,459.6 696.91,469.41 721.42,469.41 721.42,567.44 635.63,567.44 635.63,469.41 660.14,469.41 660.14,459.6 
		635.63,459.6 537.59,459.6 537.59,469.41 562.11,469.41 562.11,675.28 537.59,675.28 537.59,685.1 660.14,685.1 660.14,675.28 
		635.63,675.28 635.63,577.26 721.42,577.26 721.42,675.28 696.91,675.28 696.91,685.1 819.46,685.1 819.46,675.28 794.95,675.28 
		794.95,469.41 819.46,469.41 819.46,459.6 794.95,459.6 	"/>
	<path d="M1229.02,59.66c10.43,7.16,23.86,10.76,40.29,10.76c6.94,0.42,14.58,0.36,22.65,0c16.43,0,29.86-3.6,40.29-10.76
		c10.43-7.18,16.56-16.05,18.39-26.6c1.83-10.57-0.25-18.72-6.26-24.45c-6-5.75-13.05-8.61-21.13-8.61
		c-16.95,0-25.44,10.05-25.44,30.12v5.87c0,2.34,0.08,4.23,0.21,5.67c0.13,1.43,0.13,3.2,0,5.29c-0.13,2.09-0.27,3.73-0.4,4.89
		c-0.13,1.18-0.25,2.55-0.4,4.11c-0.13,1.58-0.45,2.67-0.97,3.33c-0.53,0.65-1.1,1.43-1.77,2.36c-0.64,0.91-1.61,1.31-2.53,1.16
		h-22.65c-0.92,0.14-1.89-0.25-2.53-1.16c-0.67-0.92-1.24-1.7-1.77-2.36c-0.53-0.65-0.84-1.75-0.97-3.33
		c-0.14-1.56-0.27-2.93-0.4-4.11c-0.13-1.16-0.27-2.8-0.4-4.89c-0.13-2.09-0.13-3.85,0-5.29c0.13-1.43,0.21-3.33,0.21-5.67v-5.87
		c0-20.07-8.49-30.12-25.44-30.12c-8.07,0-15.12,2.87-21.13,8.61c-6,5.73-8.09,13.88-6.26,24.45
		C1212.46,43.62,1218.59,52.48,1229.02,59.66z"/>
</g>
</svg>
