<?xml version="1.0" encoding="utf-8"?>
<svg xmlns="http://www.w3.org/2000/svg" viewBox="0 0 890 394.1">
<style type="text/css">
  @import url("../../../../styles/logos-draft.css");
</style>

<defs>
  <pattern id="d" width="6" height="6" patternUnits="userSpaceOnUse" patternTransform="rotate(45 50 50)">
    <line class="h" x1="0" y1="0" x2="0" y2="10"></line>
  </pattern>
</defs>

<g class="main wb">
	<rect class="dl" x="1" y="1.8" width="888" height="391.5"/>
	<rect class="bg" x="1" y="1.8" width="888" height="391.5"/>

	<g class="logo">
		<path d="M228.2,140L176,87.8c-5.1-5.1-11.8-7.6-18.5-7.6H79.3v78.3h78.3V315h78.3V158.4C235.9,151.7,233.3,145.1,228.2,140z"/>
		<path d="M373.6,119.3v65.2h-15v-52.9h-29.4v52.9h-15v-65.2H373.6z"/>
		<path d="M437.2,163.5h-37.9c0.7,3.1,2.3,5.6,4.8,7.4c2.5,1.8,5.7,2.7,9.5,2.7c2.6,0,4.9-0.4,6.9-1.2c2-0.8,3.9-2,5.6-3.7l7.7,8.4
			c-4.7,5.4-11.6,8.1-20.7,8.1c-5.7,0-10.7-1.1-15-3.3c-4.4-2.2-7.7-5.3-10.1-9.2c-2.4-3.9-3.5-8.4-3.5-13.3c0-4.9,1.2-9.3,3.5-13.3
			c2.3-3.9,5.5-7,9.6-9.2c4.1-2.2,8.6-3.3,13.7-3.3c4.9,0,9.4,1.1,13.3,3.2c4,2.1,7.1,5.1,9.4,9.1c2.3,3.9,3.4,8.5,3.4,13.7
			C437.5,159.8,437.4,161.1,437.2,163.5z M403.2,147.4c-2.2,1.9-3.6,4.4-4.1,7.6h24.7c-0.5-3.2-1.9-5.7-4.1-7.6
			c-2.2-1.9-5-2.8-8.2-2.8C408.2,144.6,405.4,145.6,403.2,147.4z"/>
		<path d="M490.9,136.8c3.8,2.1,6.8,5.2,9,9c2.2,3.9,3.3,8.4,3.3,13.6c0,5.2-1.1,9.7-3.3,13.6c-2.2,3.9-5.2,6.9-9,9
			c-3.8,2.1-8.1,3.2-12.7,3.2c-6.4,0-11.4-2-15.1-6.1v23.4h-14.5v-68.2h13.9v5.8c3.6-4.3,8.9-6.5,15.7-6.5
			C482.8,133.6,487.1,134.7,490.9,136.8z M484.8,169.6c2.4-2.5,3.6-5.9,3.6-10.1s-1.2-7.6-3.6-10.1c-2.4-2.5-5.5-3.8-9.2-3.8
			s-6.8,1.3-9.2,3.8c-2.4,2.5-3.6,5.9-3.6,10.1c0,4.2,1.2,7.6,3.6,10.1c2.4,2.5,5.5,3.8,9.2,3.8
			C479.4,173.3,482.4,172.1,484.8,169.6z"/>
		<path d="M560.5,170.3c0,4.5-1.7,8-5.1,10.5c-3.4,2.5-8.5,3.7-15.3,3.7h-26.7v-50.1h25.6c6.3,0,11.2,1.1,14.7,3.4
			c3.5,2.3,5.3,5.5,5.3,9.6c0,2.5-0.6,4.7-1.9,6.6c-1.3,1.9-3.1,3.4-5.5,4.4C557.5,160.3,560.5,164.3,560.5,170.3z M526.6,155h11
			c5.1,0,7.6-1.8,7.6-5.4c0-3.5-2.5-5.3-7.6-5.3h-11V155L526.6,155z M546.9,169.1c0-1.9-0.6-3.3-1.9-4.2c-1.2-0.9-3.2-1.4-5.9-1.4
			h-12.5v11.1h12.2C544.2,174.6,546.9,172.8,546.9,169.1z"/>
		<path d="M612.5,154.8c3.4,2.9,5,7,5,12.3c0,5.6-1.9,9.9-5.7,13c-3.8,3-9.2,4.6-16.1,4.6l-24.4-0.1v-50.1h14.4v16h11.9
			C604.2,150.5,609.1,151.9,612.5,154.8z M600.8,172.5c1.5-1.2,2.2-3.1,2.2-5.6c0-2.4-0.7-4.2-2.2-5.3c-1.5-1.1-3.6-1.7-6.5-1.8
			l-8.7-0.1v14.5h8.7C597.2,174.3,599.3,173.7,600.8,172.5z M622.9,134.4h14.4v50.1h-14.4V134.4z"/>
		<path d="M651.3,134.4h14.4v29.8l24.4-29.8h13.3v50.1h-14.4v-29.8l-24.3,29.8h-13.4L651.3,134.4L651.3,134.4z M660,114.5h9.5
			c0.1,2.2,0.7,3.9,1.8,5.1s2.8,1.8,5.1,1.8s4-0.6,5.2-1.8c1.2-1.2,1.8-2.9,1.8-5.1h9.7c-0.1,9.6-5.6,14.4-16.6,14.4
			C665.5,129,660,124.2,660,114.5z"/>
		<path d="M373.6,210.6v65.2h-15v-52.9h-29.4v52.9h-15v-65.2H373.6z"/>
		<path d="M437.2,254.9h-37.9c0.7,3.1,2.3,5.6,4.8,7.4c2.5,1.8,5.7,2.7,9.5,2.7c2.6,0,4.9-0.4,6.9-1.2c2-0.8,3.9-2,5.6-3.7l7.7,8.4
			c-4.7,5.4-11.6,8.1-20.7,8.1c-5.7,0-10.7-1.1-15-3.3c-4.4-2.2-7.7-5.3-10.1-9.2c-2.4-3.9-3.5-8.4-3.5-13.3c0-4.9,1.2-9.3,3.5-13.3
			c2.3-3.9,5.5-7,9.6-9.2c4.1-2.2,8.6-3.3,13.7-3.3c4.9,0,9.4,1.1,13.3,3.2c4,2.1,7.1,5.1,9.4,9.1c2.3,3.9,3.4,8.5,3.4,13.7
			C437.5,251.2,437.4,252.5,437.2,254.9z M403.2,238.8c-2.2,1.9-3.6,4.4-4.1,7.6h24.7c-0.5-3.2-1.9-5.7-4.1-7.6
			c-2.2-1.9-5-2.8-8.2-2.8C408.2,236,405.4,236.9,403.2,238.8z"/>
		<path d="M493.7,225.7v50.1h-14.5v-18.6c-4.2,2.1-8.9,3.2-14,3.2c-6.8,0-11.9-1.5-15.3-4.6c-3.4-3.1-5.2-7.8-5.2-14.3v-15.7h14.5
			v14.8c0,3,0.8,5.3,2.4,6.6c1.6,1.4,3.9,2.1,6.9,2.1c3.8,0,7.4-0.8,10.7-2.4v-21.1L493.7,225.7L493.7,225.7z"/>
		<path d="M545.1,230.5c4.2,3.7,6.2,9.3,6.2,16.7v28.6h-13.6v-6.2c-2.7,4.7-7.8,7-15.3,7c-3.9,0-7.2-0.7-10-2
			c-2.8-1.3-5-3.1-6.5-5.4c-1.5-2.3-2.2-4.9-2.2-7.8c0-4.7,1.8-8.3,5.3-11c3.5-2.7,8.9-4,16.3-4h11.6c0-3.2-1-5.6-2.9-7.3
			c-1.9-1.7-4.8-2.6-8.7-2.6c-2.7,0-5.3,0.4-7.9,1.3c-2.6,0.8-4.8,2-6.6,3.4l-5.2-10.2c2.7-1.9,6-3.4,9.8-4.5
			c3.8-1.1,7.7-1.6,11.8-1.6C535,225,540.9,226.8,545.1,230.5z M532.7,265.1c1.9-1.1,3.3-2.8,4.1-5.1v-5.1h-10c-6,0-8.9,2-8.9,5.9
			c0,1.9,0.7,3.3,2.2,4.4c1.5,1.1,3.5,1.6,6,1.6C528.6,266.8,530.8,266.2,532.7,265.1z"/>
		<path d="M606.1,237.6h-17v38.2h-14.4v-38.2h-17v-11.9h48.4V237.6z"/>
		<path d="M613.8,225.7h14.4v19.6h21.8v-19.6h14.5v50.1h-14.5v-18.7h-21.8v18.7h-14.4V225.7z"/>
		<path d="M719.7,246.1c3.4,2.9,5,7,5,12.3c0,5.6-1.9,9.9-5.7,13c-3.8,3-9.2,4.6-16.1,4.6l-24.4-0.1v-50.1H693v16h11.9
			C711.4,241.8,716.4,243.3,719.7,246.1z M708.1,263.8c1.5-1.2,2.2-3.1,2.2-5.6c0-2.4-0.7-4.2-2.2-5.3c-1.5-1.1-3.6-1.7-6.5-1.8
			l-8.7-0.1v14.5h8.7C704.4,265.7,706.6,265.1,708.1,263.8z M730.1,225.7h14.4v50.1h-14.4V225.7z"/>
		<path d="M758.6,225.7H773v29.8l24.4-29.8h13.3v50.1h-14.4V246L772,275.9h-13.4L758.6,225.7L758.6,225.7z M767.2,205.9h9.5
			c0.1,2.2,0.7,3.9,1.8,5.1c1.1,1.2,2.8,1.8,5.1,1.8s4-0.6,5.2-1.8c1.2-1.2,1.8-2.9,1.8-5.1h9.7c-0.1,9.6-5.6,14.4-16.6,14.4
			C772.8,220.3,767.3,215.5,767.2,205.9z"/>
	</g>
	
	<g class="logo-draft">
		<path d="M228.2,140L176,87.8c-5.1-5.1-11.8-7.6-18.5-7.6H79.3v78.3h78.3V315h78.3V158.4C235.9,151.7,233.3,145.1,228.2,140z"/>
		<path d="M373.6,119.3v65.2h-15v-52.9h-29.4v52.9h-15v-65.2H373.6z"/>
		<path d="M437.2,163.5h-37.9c0.7,3.1,2.3,5.6,4.8,7.4c2.5,1.8,5.7,2.7,9.5,2.7c2.6,0,4.9-0.4,6.9-1.2c2-0.8,3.9-2,5.6-3.7l7.7,8.4
			c-4.7,5.4-11.6,8.1-20.7,8.1c-5.7,0-10.7-1.1-15-3.3c-4.4-2.2-7.7-5.3-10.1-9.2c-2.4-3.9-3.5-8.4-3.5-13.3c0-4.9,1.2-9.3,3.5-13.3
			c2.3-3.9,5.5-7,9.6-9.2c4.1-2.2,8.6-3.3,13.7-3.3c4.9,0,9.4,1.1,13.3,3.2c4,2.1,7.1,5.1,9.4,9.1c2.3,3.9,3.4,8.5,3.4,13.7
			C437.5,159.8,437.4,161.1,437.2,163.5z M403.2,147.4c-2.2,1.9-3.6,4.4-4.1,7.6h24.7c-0.5-3.2-1.9-5.7-4.1-7.6
			c-2.2-1.9-5-2.8-8.2-2.8C408.2,144.6,405.4,145.6,403.2,147.4z"/>
		<path d="M490.9,136.8c3.8,2.1,6.8,5.2,9,9c2.2,3.9,3.3,8.4,3.3,13.6c0,5.2-1.1,9.7-3.3,13.6c-2.2,3.9-5.2,6.9-9,9
			c-3.8,2.1-8.1,3.2-12.7,3.2c-6.4,0-11.4-2-15.1-6.1v23.4h-14.5v-68.2h13.9v5.8c3.6-4.3,8.9-6.5,15.7-6.5
			C482.8,133.6,487.1,134.7,490.9,136.8z M484.8,169.6c2.4-2.5,3.6-5.9,3.6-10.1s-1.2-7.6-3.6-10.1c-2.4-2.5-5.5-3.8-9.2-3.8
			s-6.8,1.3-9.2,3.8c-2.4,2.5-3.6,5.9-3.6,10.1c0,4.2,1.2,7.6,3.6,10.1c2.4,2.5,5.5,3.8,9.2,3.8
			C479.4,173.3,482.4,172.1,484.8,169.6z"/>
		<path d="M560.5,170.3c0,4.5-1.7,8-5.1,10.5c-3.4,2.5-8.5,3.7-15.3,3.7h-26.7v-50.1h25.6c6.3,0,11.2,1.1,14.7,3.4
			c3.5,2.3,5.3,5.5,5.3,9.6c0,2.5-0.6,4.7-1.9,6.6c-1.3,1.9-3.1,3.4-5.5,4.4C557.5,160.3,560.5,164.3,560.5,170.3z M526.6,155h11
			c5.1,0,7.6-1.8,7.6-5.4c0-3.5-2.5-5.3-7.6-5.3h-11V155L526.6,155z M546.9,169.1c0-1.9-0.6-3.3-1.9-4.2c-1.2-0.9-3.2-1.4-5.9-1.4
			h-12.5v11.1h12.2C544.2,174.6,546.9,172.8,546.9,169.1z"/>
		<path d="M612.5,154.8c3.4,2.9,5,7,5,12.3c0,5.6-1.9,9.9-5.7,13c-3.8,3-9.2,4.6-16.1,4.6l-24.4-0.1v-50.1h14.4v16h11.9
			C604.2,150.5,609.1,151.9,612.5,154.8z M600.8,172.5c1.5-1.2,2.2-3.1,2.2-5.6c0-2.4-0.7-4.2-2.2-5.3c-1.5-1.1-3.6-1.7-6.5-1.8
			l-8.7-0.1v14.5h8.7C597.2,174.3,599.3,173.7,600.8,172.5z M622.9,134.4h14.4v50.1h-14.4V134.4z"/>
		<path d="M651.3,134.4h14.4v29.8l24.4-29.8h13.3v50.1h-14.4v-29.8l-24.3,29.8h-13.4L651.3,134.4L651.3,134.4z M660,114.5h9.5
			c0.1,2.2,0.7,3.9,1.8,5.1s2.8,1.8,5.1,1.8s4-0.6,5.2-1.8c1.2-1.2,1.8-2.9,1.8-5.1h9.7c-0.1,9.6-5.6,14.4-16.6,14.4
			C665.5,129,660,124.2,660,114.5z"/>
		<path d="M373.6,210.6v65.2h-15v-52.9h-29.4v52.9h-15v-65.2H373.6z"/>
		<path d="M437.2,254.9h-37.9c0.7,3.1,2.3,5.6,4.8,7.4c2.5,1.8,5.7,2.7,9.5,2.7c2.6,0,4.9-0.4,6.9-1.2c2-0.8,3.9-2,5.6-3.7l7.7,8.4
			c-4.7,5.4-11.6,8.1-20.7,8.1c-5.7,0-10.7-1.1-15-3.3c-4.4-2.2-7.7-5.3-10.1-9.2c-2.4-3.9-3.5-8.4-3.5-13.3c0-4.9,1.2-9.3,3.5-13.3
			c2.3-3.9,5.5-7,9.6-9.2c4.1-2.2,8.6-3.3,13.7-3.3c4.9,0,9.4,1.1,13.3,3.2c4,2.1,7.1,5.1,9.4,9.1c2.3,3.9,3.4,8.5,3.4,13.7
			C437.5,251.2,437.4,252.5,437.2,254.9z M403.2,238.8c-2.2,1.9-3.6,4.4-4.1,7.6h24.7c-0.5-3.2-1.9-5.7-4.1-7.6
			c-2.2-1.9-5-2.8-8.2-2.8C408.2,236,405.4,236.9,403.2,238.8z"/>
		<path d="M493.7,225.7v50.1h-14.5v-18.6c-4.2,2.1-8.9,3.2-14,3.2c-6.8,0-11.9-1.5-15.3-4.6c-3.4-3.1-5.2-7.8-5.2-14.3v-15.7h14.5
			v14.8c0,3,0.8,5.3,2.4,6.6c1.6,1.4,3.9,2.1,6.9,2.1c3.8,0,7.4-0.8,10.7-2.4v-21.1L493.7,225.7L493.7,225.7z"/>
		<path d="M545.1,230.5c4.2,3.7,6.2,9.3,6.2,16.7v28.6h-13.6v-6.2c-2.7,4.7-7.8,7-15.3,7c-3.9,0-7.2-0.7-10-2
			c-2.8-1.3-5-3.1-6.5-5.4c-1.5-2.3-2.2-4.9-2.2-7.8c0-4.7,1.8-8.3,5.3-11c3.5-2.7,8.9-4,16.3-4h11.6c0-3.2-1-5.6-2.9-7.3
			c-1.9-1.7-4.8-2.6-8.7-2.6c-2.7,0-5.3,0.4-7.9,1.3c-2.6,0.8-4.8,2-6.6,3.4l-5.2-10.2c2.7-1.9,6-3.4,9.8-4.5
			c3.8-1.1,7.7-1.6,11.8-1.6C535,225,540.9,226.8,545.1,230.5z M532.7,265.1c1.9-1.1,3.3-2.8,4.1-5.1v-5.1h-10c-6,0-8.9,2-8.9,5.9
			c0,1.9,0.7,3.3,2.2,4.4c1.5,1.1,3.5,1.6,6,1.6C528.6,266.8,530.8,266.2,532.7,265.1z"/>
		<path d="M606.1,237.6h-17v38.2h-14.4v-38.2h-17v-11.9h48.4V237.6z"/>
		<path d="M613.8,225.7h14.4v19.6h21.8v-19.6h14.5v50.1h-14.5v-18.7h-21.8v18.7h-14.4V225.7z"/>
		<path d="M719.7,246.1c3.4,2.9,5,7,5,12.3c0,5.6-1.9,9.9-5.7,13c-3.8,3-9.2,4.6-16.1,4.6l-24.4-0.1v-50.1H693v16h11.9
			C711.4,241.8,716.4,243.3,719.7,246.1z M708.1,263.8c1.5-1.2,2.2-3.1,2.2-5.6c0-2.4-0.7-4.2-2.2-5.3c-1.5-1.1-3.6-1.7-6.5-1.8
			l-8.7-0.1v14.5h8.7C704.4,265.7,706.6,265.1,708.1,263.8z M730.1,225.7h14.4v50.1h-14.4V225.7z"/>
		<path d="M758.6,225.7H773v29.8l24.4-29.8h13.3v50.1h-14.4V246L772,275.9h-13.4L758.6,225.7L758.6,225.7z M767.2,205.9h9.5
			c0.1,2.2,0.7,3.9,1.8,5.1c1.1,1.2,2.8,1.8,5.1,1.8s4-0.6,5.2-1.8c1.2-1.2,1.8-2.9,1.8-5.1h9.7c-0.1,9.6-5.6,14.4-16.6,14.4
			C772.8,220.3,767.3,215.5,767.2,205.9z"/>
	</g>

	<g class="mjl">
		<line x1="1" y1="80.1" x2="889" y2="80.1"/>
		<line x1="1" y1="315" x2="889" y2="315"/>
		<line x1="235.9" y1="1.8" x2="235.9" y2="393.3"/>
		<line x1="314.2" y1="1.8" x2="314.2" y2="393.3"/>
		<line x1="79.3" y1="1.8" x2="79.3" y2="393.3"/>
		<line x1="810.8" y1="0.8" x2="810.8" y2="392.3"/>
	</g>
	
	<g class="mnl">
		<line x1="1" y1="184.5" x2="889" y2="184.5"/>
		<line x1="235.9" y1="119.3" x2="889" y2="119.3"/>
		<line x1="235.9" y1="210.6" x2="889" y2="210.6"/>
		<line x1="235.9" y1="275.9" x2="889" y2="275.9"/>
		<line x1="157.6" y1="1.8" x2="157.6" y2="393.3"/>
		<circle cx="157.6" cy="106.2" r="26.1"/>
		<circle cx="209.8" cy="158.4" r="26.1"/>
		<line x1="1" y1="132.3" x2="235.9" y2="132.3"/>
		<line x1="1" y1="106.2" x2="235.9" y2="106.2"/>
		<line x1="1" y1="158.4" x2="235.9" y2="158.4"/>
		<line x1="1" y1="236.7" x2="235.9" y2="236.7"/>
	</g>
</g>
</svg>
