<?xml version="1.0" encoding="utf-8"?>
<svg xmlns="http://www.w3.org/2000/svg" viewBox="0 0 890 907.7">
<style type="text/css">
	@import url("../../../../styles/logos-draft.css");
	.st0{fill:#3C8EFF;}
	.st1{fill:#FFB93E;}
	.st2{fill:#E1005A;}
</style>

<defs>
  <pattern id="d" width="6" height="6" patternUnits="userSpaceOnUse" patternTransform="rotate(45 50 50)">
    <line class="h" x1="0" y1="0" x2="0" y2="10"></line>
  </pattern>
</defs>

<g class="main">
	<rect class="dl" x="1" y="1.5" width="888" height="904.7"/>
	<rect class="bg" x="1" y="1.5" width="888" height="904.7"/>

	<g class="mnl">
		<line x1="1" y1="214.3" x2="889" y2="214.3"/>
		<line x1="1" y1="249.8" x2="889" y2="249.8"/>
		<line x1="1" y1="320.8" x2="889" y2="320.8"/>
		<line x1="1" y1="569.1" x2="889" y2="569.1"/>
		<line x1="1" y1="604.6" x2="889" y2="604.6"/>
		<line x1="1" y1="693.3" x2="889" y2="693.3"/>
		<line x1="1" y1="728.8" x2="889" y2="728.8"/>
		<line x1="1" y1="143.4" x2="889" y2="143.4"/>
		<line x1="1" y1="178.9" x2="889" y2="178.9"/>
		<line x1="267.1" y1="1.5" x2="267.1" y2="427.2"/>
		<circle cx="267.1" cy="143.4" r="35.5"/>
		<circle cx="338.1" cy="214.3" r="35.5"/>
	</g>

	<g class="mjl">
		<line x1="1" y1="107.9" x2="889" y2="107.9"/>
		<line x1="1" y1="427.2" x2="889" y2="427.2"/>
		<line x1="1" y1="480.4" x2="889" y2="480.4"/>
		<line x1="1" y1="799.7" x2="889" y2="799.7"/>
		<line x1="782.6" y1="1.5" x2="782.6" y2="906.2"/>
		<line x1="107.4" y1="1.5" x2="107.4" y2="906.2"/>
		<line x1="160.7" y1="1.5" x2="160.7" y2="427.2"/>
		<line x1="373.5" y1="1.5" x2="373.5" y2="427.2"/>
	</g>

	<g class="logo">
		<path d="M188.3,480.4v88.7h-20.4v-72h-40v72h-20.4v-88.7H188.3z"/>
		<path d="M274.7,540.6h-51.6c0.9,4.2,3.1,7.6,6.6,10c3.5,2.5,7.8,3.7,12.9,3.7c3.5,0,6.7-0.5,9.4-1.6c2.7-1.1,5.3-2.7,7.7-5
			l10.5,11.4c-6.4,7.3-15.8,11-28.1,11c-7.7,0-14.5-1.5-20.4-4.5c-5.9-3-10.5-7.2-13.7-12.5c-3.2-5.3-4.8-11.4-4.8-18.1
			c0-6.7,1.6-12.7,4.8-18.1c3.2-5.4,7.5-9.5,13-12.5c5.5-3,11.7-4.5,18.6-4.5c6.7,0,12.7,1.4,18.1,4.3c5.4,2.9,9.6,7,12.7,12.4
			c3.1,5.4,4.6,11.6,4.6,18.7C275,535.5,274.9,537.3,274.7,540.6z M228.4,518.7c-3,2.5-4.9,6-5.6,10.4h33.6
			c-0.7-4.3-2.5-7.7-5.6-10.3c-3-2.6-6.8-3.9-11.1-3.9C235.2,514.9,231.5,516.2,228.4,518.7z"/>
		<path d="M347.7,504.3c5.2,2.9,9.3,7,12.2,12.3c3,5.3,4.4,11.4,4.4,18.4c0,7-1.5,13.2-4.4,18.4c-3,5.3-7,9.4-12.2,12.3
			c-5.2,2.9-11,4.4-17.3,4.4c-8.7,0-15.5-2.7-20.5-8.2v31.8h-19.8V501H309v7.9c4.9-5.9,12-8.9,21.4-8.9
			C336.7,499.9,342.5,501.4,347.7,504.3z M339.5,548.8c3.2-3.4,4.9-8,4.9-13.7s-1.6-10.3-4.9-13.7c-3.3-3.4-7.4-5.1-12.5-5.1
			c-5.1,0-9.2,1.7-12.5,5.1c-3.3,3.4-4.9,8-4.9,13.7c0,5.7,1.6,10.3,4.9,13.7c3.2,3.4,7.4,5.1,12.5,5.1
			C332.1,553.9,336.2,552.2,339.5,548.8z"/>
		<path d="M442.3,549.7c0,6.2-2.3,10.9-7,14.3c-4.6,3.4-11.6,5.1-20.8,5.1h-36.4V501H413c8.5,0,15.2,1.5,20,4.6
			c4.8,3.1,7.2,7.4,7.2,13c0,3.4-0.9,6.4-2.6,8.9c-1.7,2.6-4.2,4.6-7.4,6C438.3,536.2,442.3,541.6,442.3,549.7z M396.3,529h15
			c6.9,0,10.4-2.4,10.4-7.3c0-4.8-3.5-7.2-10.4-7.2h-15V529z M423.8,548.2c0-2.6-0.8-4.5-2.5-5.8c-1.7-1.2-4.3-1.8-8-1.8h-17v15.1
			h16.6C420.1,555.7,423.8,553.2,423.8,548.2z"/>
		<path d="M513,528.7c4.6,3.9,6.8,9.5,6.8,16.7c0,7.6-2.6,13.5-7.7,17.6c-5.2,4.1-12.5,6.2-21.9,6.2l-33.2-0.1V501h19.6v21.8h16.2
			C501.7,522.8,508.4,524.8,513,528.7z M497.1,552.8c2-1.7,3-4.2,3-7.6c0-3.3-1-5.7-3-7.2c-2-1.5-4.9-2.3-8.8-2.4l-11.8-0.1v19.8
			h11.8C492.2,555.3,495.1,554.5,497.1,552.8z M527.2,501h19.6v68.2h-19.6V501z"/>
		<path d="M565.8,501h19.6v40.5l33.2-40.5h18.1v68.2h-19.6v-40.5L584,569.1h-18.2V501z M577.6,474h12.9c0.1,3,0.9,5.3,2.5,6.9
			c1.6,1.6,3.9,2.5,6.9,2.5s5.4-0.8,7-2.5c1.6-1.6,2.5-3.9,2.5-6.9h13.2c-0.1,13.1-7.6,19.6-22.6,19.6
			C585.1,493.6,577.7,487.1,577.6,474z"/>
		<path d="M188.3,604.6v88.7h-20.4v-72h-40v72h-20.4v-88.7H188.3z"/>
		<path d="M274.7,664.8h-51.6c0.9,4.2,3.1,7.6,6.6,10c3.5,2.5,7.8,3.7,12.9,3.7c3.5,0,6.7-0.5,9.4-1.6c2.7-1.1,5.3-2.7,7.7-5
			l10.5,11.4c-6.4,7.3-15.8,11-28.1,11c-7.7,0-14.5-1.5-20.4-4.5c-5.9-3-10.5-7.2-13.7-12.5c-3.2-5.3-4.8-11.4-4.8-18.1
			c0-6.7,1.6-12.7,4.8-18.1c3.2-5.4,7.5-9.5,13-12.5c5.5-3,11.7-4.5,18.6-4.5c6.7,0,12.7,1.4,18.1,4.3c5.4,2.9,9.6,7,12.7,12.4
			c3.1,5.4,4.6,11.6,4.6,18.7C275,659.7,274.9,661.5,274.7,664.8z M228.4,642.9c-3,2.5-4.9,6-5.6,10.4h33.6
			c-0.7-4.3-2.5-7.7-5.6-10.3c-3-2.6-6.8-3.9-11.1-3.9C235.2,639.1,231.5,640.4,228.4,642.9z"/>
		<path d="M351.6,625.2v68.2h-19.8V668c-5.7,2.9-12.1,4.3-19,4.3c-9.2,0-16.2-2.1-20.8-6.3c-4.7-4.2-7-10.7-7-19.4v-21.4h19.8v20.1
			c0,4.1,1.1,7.1,3.2,9c2.2,1.9,5.3,2.8,9.3,2.8c5.2,0,10-1.1,14.6-3.3v-28.6L351.6,625.2L351.6,625.2z"/>
		<path d="M421.4,631.7c5.7,5,8.5,12.6,8.5,22.7v38.9h-18.5v-8.5c-3.7,6.3-10.6,9.5-20.8,9.5c-5.2,0-9.8-0.9-13.6-2.7
			c-3.8-1.8-6.8-4.2-8.8-7.3c-2-3.1-3-6.7-3-10.6c0-6.3,2.4-11.3,7.2-15c4.8-3.6,12.1-5.4,22.1-5.4h15.7c0-4.3-1.3-7.6-3.9-9.9
			c-2.6-2.3-6.5-3.5-11.8-3.5c-3.6,0-7.2,0.6-10.7,1.7c-3.5,1.1-6.5,2.7-8.9,4.6l-7.1-13.8c3.7-2.6,8.2-4.6,13.4-6.1
			c5.2-1.4,10.5-2.2,16-2.2C407.6,624.1,415.7,626.7,421.4,631.7z M404.5,678.7c2.6-1.6,4.5-3.9,5.6-6.9v-7h-13.6
			c-8.1,0-12.2,2.7-12.2,8c0,2.5,1,4.5,3,6c2,1.5,4.7,2.2,8.2,2.2C398.9,681,401.9,680.2,404.5,678.7z"/>
		<path d="M504.4,641.4h-23.1v51.9h-19.6v-51.9h-23.1v-16.2h65.8V641.4z"/>
		<path d="M514.9,625.2h19.6v26.6h29.6v-26.6h19.8v68.2h-19.8v-25.5h-29.6v25.5h-19.6V625.2z"/>
		<path d="M658.8,652.9c4.6,3.9,6.8,9.5,6.8,16.7c0,7.6-2.6,13.5-7.7,17.6c-5.2,4.1-12.5,6.2-21.9,6.2l-33.2-0.1v-68.2h19.6v21.8
			h16.2C647.5,647,654.2,649,658.8,652.9z M642.9,677c2-1.7,3-4.2,3-7.6c0-3.3-1-5.7-3-7.2c-2-1.5-4.9-2.3-8.8-2.4l-11.8-0.1v19.8
			h11.8C638,679.5,640.9,678.7,642.9,677z M673,625.2h19.6v68.2H673V625.2z"/>
		<path d="M711.6,625.2h19.6v40.5l33.2-40.5h18.1v68.2h-19.6v-40.5l-33.1,40.5h-18.2V625.2L711.6,625.2z M723.4,598.2h12.9
			c0.1,3,0.9,5.3,2.5,6.9c1.6,1.6,3.9,2.5,6.9,2.5s5.4-0.8,7-2.5c1.6-1.6,2.5-3.9,2.5-6.9h13.2c-0.1,13.1-7.6,19.6-22.6,19.6
			C731,617.8,723.5,611.3,723.4,598.2z"/>
		<path d="M133.5,728.8v30.3h-4.3v-13.5h-17.4v13.5h-4.3v-30.3h4.3v13h17.4v-13H133.5z"/>
		<path d="M157.6,738.3c1.7,1.6,2.5,3.9,2.5,7v13.8h-3.9v-3c-0.7,1.1-1.7,1.9-3,2.4c-1.3,0.6-2.8,0.8-4.6,0.8
			c-2.6,0-4.6-0.6-6.2-1.9c-1.5-1.2-2.3-2.9-2.3-4.9c0-2,0.7-3.6,2.2-4.9c1.5-1.2,3.8-1.8,7-1.8h6.6v-0.8c0-1.8-0.5-3.2-1.6-4.1
			c-1-1-2.6-1.4-4.6-1.4c-1.4,0-2.7,0.2-4,0.7c-1.3,0.4-2.4,1-3.3,1.8l-1.7-3.1c1.2-1,2.6-1.7,4.2-2.2c1.6-0.5,3.4-0.8,5.2-0.8
			C153.5,736,156,736.7,157.6,738.3z M153.5,755.1c1.2-0.7,2-1.7,2.5-3v-3.2h-6.4c-3.5,0-5.3,1.2-5.3,3.5c0,1.2,0.4,2.1,1.3,2.7
			c0.9,0.7,2.1,1,3.7,1C151,756.1,152.4,755.8,153.5,755.1z"/>
		<path d="M188.9,736.2v22.9h-4.2v-19.3h-12.9v19.3h-4.2v-22.9H188.9z"/>
		<path d="M217.5,749h-18.6c0.3,2,1.1,3.6,2.7,4.9c1.5,1.2,3.4,1.8,5.6,1.8c2.7,0,4.9-0.9,6.6-2.8l2.3,2.7c-1,1.2-2.3,2.1-3.9,2.8
			c-1.5,0.6-3.3,1-5.2,1c-2.4,0-4.6-0.5-6.4-1.5c-1.9-1-3.3-2.4-4.3-4.2c-1-1.8-1.5-3.8-1.5-6.1c0-2.2,0.5-4.2,1.5-6
			c1-1.8,2.4-3.2,4.1-4.2c1.7-1,3.7-1.5,5.9-1.5c2.2,0,4.1,0.5,5.9,1.5s3.1,2.4,4,4.2c1,1.8,1.4,3.8,1.4,6.1
			C217.6,748.1,217.6,748.5,217.5,749z M201.3,741.3c-1.3,1.2-2.1,2.8-2.4,4.8h14.7c-0.2-1.9-1-3.5-2.4-4.7c-1.3-1.2-3-1.8-5-1.8
			C204.3,739.5,202.6,740.1,201.3,741.3z"/>
		<path d="M242.3,736.2v22.9h-4.2v-9.2c-2.5,1.2-4.9,1.7-7.4,1.7c-2.9,0-5.1-0.7-6.6-2c-1.6-1.3-2.3-3.3-2.3-6v-7.4h4.2v7.2
			c0,1.6,0.5,2.8,1.5,3.6s2.4,1.2,4.2,1.2c2,0,4.2-0.5,6.5-1.5v-10.5L242.3,736.2L242.3,736.2z"/>
		<path d="M265.8,738.3c1.7,1.6,2.5,3.9,2.5,7v13.8h-3.9v-3c-0.7,1.1-1.7,1.9-3,2.4c-1.3,0.6-2.8,0.8-4.6,0.8
			c-2.6,0-4.6-0.6-6.2-1.9c-1.5-1.2-2.3-2.9-2.3-4.9c0-2,0.7-3.6,2.2-4.9c1.5-1.2,3.8-1.8,7-1.8h6.6v-0.8c0-1.8-0.5-3.2-1.6-4.1
			c-1-1-2.6-1.4-4.6-1.4c-1.4,0-2.7,0.2-4,0.7c-1.3,0.4-2.4,1-3.3,1.8l-1.7-3.1c1.2-1,2.6-1.7,4.2-2.2c1.6-0.5,3.4-0.8,5.2-0.8
			C261.7,736,264.1,736.7,265.8,738.3z M261.7,755.1c1.2-0.7,2-1.7,2.5-3v-3.2h-6.4c-3.5,0-5.3,1.2-5.3,3.5c0,1.2,0.4,2.1,1.3,2.7
			c0.9,0.7,2.1,1,3.7,1C259.2,756.1,260.6,755.8,261.7,755.1z"/>
		<path d="M292.9,739.8h-8.4v19.3h-4.1v-19.3H272v-3.6h20.9L292.9,739.8L292.9,739.8z"/>
		<path d="M312.6,738.3c1.7,1.6,2.5,3.9,2.5,7v13.8h-3.9v-3c-0.7,1.1-1.7,1.9-3,2.4c-1.3,0.6-2.8,0.8-4.6,0.8
			c-2.6,0-4.6-0.6-6.2-1.9c-1.5-1.2-2.3-2.9-2.3-4.9c0-2,0.7-3.6,2.2-4.9c1.5-1.2,3.8-1.8,7-1.8h6.6v-0.8c0-1.8-0.5-3.2-1.6-4.1
			c-1-1-2.6-1.4-4.6-1.4c-1.4,0-2.7,0.2-4,0.7c-1.3,0.4-2.4,1-3.3,1.8l-1.7-3.1c1.2-1,2.6-1.7,4.2-2.2c1.6-0.5,3.4-0.8,5.2-0.8
			C308.5,736,310.9,736.7,312.6,738.3z M308.5,755.1c1.2-0.7,2-1.7,2.5-3v-3.2h-6.4c-3.5,0-5.3,1.2-5.3,3.5c0,1.2,0.4,2.1,1.3,2.7
			c0.9,0.7,2.1,1,3.7,1C305.9,756.1,307.3,755.8,308.5,755.1z"/>
		<path d="M343.2,749h-18.6c0.3,2,1.1,3.6,2.7,4.9c1.5,1.2,3.4,1.8,5.6,1.8c2.7,0,4.9-0.9,6.6-2.8l2.3,2.7c-1,1.2-2.3,2.1-3.9,2.8
			c-1.5,0.6-3.3,1-5.2,1c-2.4,0-4.6-0.5-6.4-1.5c-1.9-1-3.3-2.4-4.3-4.2c-1-1.8-1.5-3.8-1.5-6.1c0-2.2,0.5-4.2,1.5-6
			c1-1.8,2.4-3.2,4.1-4.2c1.7-1,3.7-1.5,5.9-1.5s4.1,0.5,5.9,1.5c1.7,1,3.1,2.4,4,4.2c1,1.8,1.4,3.8,1.4,6.1
			C343.3,748.1,343.3,748.5,343.2,749z M327,741.3c-1.3,1.2-2.1,2.8-2.4,4.8h14.7c-0.2-1.9-1-3.5-2.4-4.7c-1.3-1.2-3-1.8-5-1.8
			C330,739.5,328.3,740.1,327,741.3z"/>
		<path d="M376.2,736.2v22.9h-3.8v-16.7l-8.6,14.1H362l-8.5-14.2v16.8h-3.8v-22.9h4.3l9,15.5l9.2-15.5L376.2,736.2L376.2,736.2z"/>
		<path d="M126.1,779c1.7,1,3,2.3,3.9,4c0.9,1.7,1.4,3.6,1.4,5.8c0,2.2-0.5,4.2-1.5,5.9c-1,1.7-2.4,3-4.2,4c-1.8,1-3.9,1.4-6.2,1.4
			c-3.9,0-6.9-1.3-9-4c-2.1-2.7-3.2-6.4-3.2-11.3c0-4.7,1-8.4,2.9-11c1.9-2.7,4.9-4.4,8.9-5.3l10.5-2.3l0.6,3.8l-9.6,2.1
			c-3,0.7-5.2,1.8-6.7,3.4c-1.5,1.6-2.3,3.9-2.5,6.8c1-1.5,2.2-2.6,3.8-3.4c1.6-0.8,3.3-1.2,5.2-1.2
			C122.5,777.6,124.4,778.1,126.1,779z M123.6,795.6c1.1-0.7,2-1.6,2.7-2.7c0.6-1.2,1-2.5,1-4c0-2.3-0.7-4.1-2.1-5.5
			c-1.4-1.4-3.2-2.1-5.4-2.1c-2.2,0-4.1,0.7-5.5,2.1c-1.4,1.4-2.1,3.2-2.1,5.5c0,1.5,0.3,2.8,1,4s1.6,2.1,2.7,2.7
			c1.2,0.7,2.4,1,3.9,1C121.1,796.6,122.5,796.3,123.6,795.6z"/>
		<path d="M154.3,786.6c1.5,1.3,2.3,3.1,2.3,5.5c0,2.5-0.8,4.4-2.5,5.7c-1.7,1.3-4,2-7.1,2l-9.6,0v-22.9h4.2v7.7l6.2,0
			C150.6,784.6,152.8,785.3,154.3,786.6z M150.9,795.5c1-0.8,1.4-1.9,1.4-3.5c0-1.5-0.5-2.6-1.4-3.3s-2.4-1.1-4.3-1.1l-5.2-0.1v9
			l5.2,0C148.6,796.7,150,796.3,150.9,795.5z M160,776.8h4.2v22.9H160V776.8z"/>
		<path d="M176,798.5c-1.8-1-3.3-2.4-4.3-4.2c-1-1.8-1.6-3.8-1.6-6c0-2.2,0.5-4.3,1.6-6c1-1.8,2.5-3.2,4.3-4.2
			c1.8-1,3.9-1.5,6.2-1.5c2.1,0,3.9,0.4,5.6,1.3c1.6,0.8,2.9,2,3.8,3.6l-3.2,2c-0.7-1.1-1.6-1.9-2.7-2.5c-1.1-0.5-2.2-0.8-3.5-0.8
			c-1.5,0-2.8,0.3-4,1c-1.2,0.7-2.1,1.6-2.8,2.8c-0.7,1.2-1,2.6-1,4.2c0,1.6,0.3,3,1,4.3s1.6,2.2,2.8,2.8c1.2,0.7,2.5,1,4,1
			c1.3,0,2.5-0.3,3.5-0.8c1.1-0.5,2-1.4,2.7-2.5l3.2,2c-0.9,1.6-2.2,2.8-3.8,3.7c-1.6,0.9-3.5,1.3-5.6,1.3
			C179.9,800,177.8,799.5,176,798.5z"/>
		<path d="M213.7,780.5h-8.4v19.3h-4.2v-19.3h-8.4v-3.6h20.9L213.7,780.5L213.7,780.5z"/>
		<path d="M236,778.1c1.8,1,3.1,2.3,4.1,4.1c1,1.8,1.5,3.8,1.5,6.1c0,2.3-0.5,4.3-1.5,6.1c-1,1.8-2.4,3.1-4.1,4.1
			c-1.8,1-3.7,1.5-6,1.5c-1.6,0-3.1-0.3-4.5-1c-1.4-0.6-2.5-1.6-3.5-2.8v11.8h-4.2v-31.3h4v3.6c0.9-1.3,2.1-2.2,3.5-2.9
			c1.4-0.6,3-1,4.7-1C232.3,776.6,234.3,777.1,236,778.1z M233.7,795.4c1.2-0.7,2.1-1.6,2.8-2.9s1-2.6,1-4.2c0-1.6-0.3-3-1-4.2
			c-0.7-1.2-1.6-2.2-2.8-2.8c-1.2-0.7-2.5-1-4-1c-1.4,0-2.7,0.3-3.9,1c-1.2,0.7-2.1,1.6-2.8,2.8c-0.7,1.2-1,2.6-1,4.2s0.3,3,1,4.2
			s1.6,2.2,2.8,2.9c1.2,0.7,2.5,1,3.9,1C231.2,796.4,232.5,796,233.7,795.4z"/>
		<path d="M251.3,798.5c-1.8-1-3.2-2.4-4.3-4.2c-1-1.8-1.5-3.8-1.5-6c0-2.2,0.5-4.3,1.5-6c1-1.8,2.4-3.2,4.3-4.2
			c1.8-1,3.9-1.5,6.1-1.5c2.3,0,4.3,0.5,6.1,1.5s3.2,2.4,4.2,4.2c1,1.8,1.5,3.8,1.5,6c0,2.2-0.5,4.3-1.5,6c-1,1.8-2.4,3.2-4.2,4.2
			c-1.8,1-3.8,1.5-6.1,1.5C255.2,800,253.2,799.5,251.3,798.5z M261.4,795.4c1.2-0.7,2.1-1.6,2.7-2.9s1-2.6,1-4.2c0-1.6-0.3-3-1-4.2
			s-1.6-2.2-2.7-2.8c-1.2-0.7-2.5-1-4-1s-2.8,0.3-4,1c-1.2,0.7-2.1,1.6-2.8,2.8s-1,2.6-1,4.2c0,1.6,0.3,3,1,4.2s1.6,2.2,2.8,2.9
			c1.2,0.7,2.5,1,4,1C258.9,796.4,260.3,796,261.4,795.4z"/>
		<path d="M287,776.8h4.2v16.7l14-16.7h3.8v22.9h-4.2v-16.7l-14,16.7H287L287,776.8L287,776.8z"/>
		<path d="M348.3,776.8v22.9h-4.2v-19.3h-9.9l-0.3,5.1c-0.1,3.1-0.4,5.7-0.8,7.7c-0.4,2.1-1.1,3.7-2,4.9c-0.9,1.2-2.2,1.9-3.8,1.9
			c-0.7,0-1.6-0.1-2.6-0.4l0.3-3.5c0.4,0.1,0.7,0.1,1,0.1c1.2,0,2-0.5,2.6-1.5c0.6-1,1-2.2,1.1-3.6c0.2-1.4,0.3-3.4,0.5-5.9l0.4-8.5
			L348.3,776.8L348.3,776.8z"/>
		<path d="M376.9,789.7h-18.6c0.3,2,1.1,3.6,2.7,4.9c1.5,1.2,3.4,1.8,5.6,1.8c2.7,0,4.9-0.9,6.6-2.8l2.3,2.7c-1,1.2-2.3,2.1-3.9,2.8
			c-1.5,0.6-3.3,1-5.2,1c-2.4,0-4.6-0.5-6.4-1.5c-1.9-1-3.3-2.4-4.3-4.2c-1-1.8-1.5-3.8-1.5-6.1c0-2.2,0.5-4.2,1.5-6
			s2.4-3.2,4.1-4.2c1.7-1,3.7-1.5,5.9-1.5c2.2,0,4.1,0.5,5.9,1.5s3.1,2.4,4,4.2c1,1.8,1.4,3.8,1.4,6.1
			C377,788.7,377,789.1,376.9,789.7z M360.7,781.9c-1.3,1.2-2.1,2.8-2.4,4.8h14.7c-0.2-1.9-1-3.5-2.4-4.7c-1.3-1.2-3-1.8-5-1.8
			S362.1,780.7,360.7,781.9z"/>
		<path d="M400.3,780.5h-12.7v19.3h-4.2v-22.9h16.9L400.3,780.5L400.3,780.5z"/>
		<path d="M413.5,790.1h-4.8v9.7h-4.2v-22.9h4.2v9.7h4.8l7.4-9.7h4.5l-8.7,11l9.3,11.9h-4.9L413.5,790.1z"/>
		<path d="M433.3,798.5c-1.8-1-3.2-2.4-4.3-4.2c-1-1.8-1.5-3.8-1.5-6c0-2.2,0.5-4.3,1.5-6c1-1.8,2.4-3.2,4.3-4.2
			c1.8-1,3.9-1.5,6.1-1.5c2.3,0,4.3,0.5,6.1,1.5c1.8,1,3.2,2.4,4.2,4.2c1,1.8,1.5,3.8,1.5,6c0,2.2-0.5,4.3-1.5,6
			c-1,1.8-2.4,3.2-4.2,4.2c-1.8,1-3.8,1.5-6.1,1.5C437.2,800,435.1,799.5,433.3,798.5z M443.4,795.4c1.2-0.7,2.1-1.6,2.7-2.9
			s1-2.6,1-4.2c0-1.6-0.3-3-1-4.2s-1.6-2.2-2.7-2.8c-1.2-0.7-2.5-1-4-1s-2.8,0.3-4,1c-1.2,0.7-2.1,1.6-2.8,2.8c-0.7,1.2-1,2.6-1,4.2
			c0,1.6,0.3,3,1,4.2c0.7,1.2,1.6,2.2,2.8,2.9c1.2,0.7,2.5,1,4,1C440.9,796.4,442.2,796,443.4,795.4z"/>
		<rect class="st0" x="160.7" y="214.3" width="106.4" height="212.9"/>
		<rect class="st1" x="160.7" y="107.9" width="106.4" height="106.4"/>
		<rect class="st1" x="267.1" y="214.3" width="106.4" height="212.9"/>
		<path class="st2" d="M373.5,214.3H267.1V107.9c9.1,0,18.2,3.5,25.1,10.4l71,71C370.1,196.2,373.5,205.3,373.5,214.3z"/>
	</g>

	<g class="logo-draft">
		<path d="M188.3,480.4v88.7h-20.4v-72h-40v72h-20.4v-88.7H188.3z"/>
		<path d="M274.7,540.6h-51.6c0.9,4.2,3.1,7.6,6.6,10c3.5,2.5,7.8,3.7,12.9,3.7c3.5,0,6.7-0.5,9.4-1.6c2.7-1.1,5.3-2.7,7.7-5
			l10.5,11.4c-6.4,7.3-15.8,11-28.1,11c-7.7,0-14.5-1.5-20.4-4.5c-5.9-3-10.5-7.2-13.7-12.5c-3.2-5.3-4.8-11.4-4.8-18.1
			c0-6.7,1.6-12.7,4.8-18.1c3.2-5.4,7.5-9.5,13-12.5c5.5-3,11.7-4.5,18.6-4.5c6.7,0,12.7,1.4,18.1,4.3c5.4,2.9,9.6,7,12.7,12.4
			c3.1,5.4,4.6,11.6,4.6,18.7C275,535.5,274.9,537.3,274.7,540.6z M228.4,518.7c-3,2.5-4.9,6-5.6,10.4h33.6
			c-0.7-4.3-2.5-7.7-5.6-10.3c-3-2.6-6.8-3.9-11.1-3.9C235.2,514.9,231.5,516.2,228.4,518.7z"/>
		<path d="M347.7,504.3c5.2,2.9,9.3,7,12.2,12.3c3,5.3,4.4,11.4,4.4,18.4c0,7-1.5,13.2-4.4,18.4c-3,5.3-7,9.4-12.2,12.3
			c-5.2,2.9-11,4.4-17.3,4.4c-8.7,0-15.5-2.7-20.5-8.2v31.8h-19.8V501H309v7.9c4.9-5.9,12-8.9,21.4-8.9
			C336.7,499.9,342.5,501.4,347.7,504.3z M339.5,548.8c3.2-3.4,4.9-8,4.9-13.7s-1.6-10.3-4.9-13.7c-3.3-3.4-7.4-5.1-12.5-5.1
			c-5.1,0-9.2,1.7-12.5,5.1c-3.3,3.4-4.9,8-4.9,13.7c0,5.7,1.6,10.3,4.9,13.7c3.2,3.4,7.4,5.1,12.5,5.1
			C332.1,553.9,336.2,552.2,339.5,548.8z"/>
		<path d="M442.3,549.7c0,6.2-2.3,10.9-7,14.3c-4.6,3.4-11.6,5.1-20.8,5.1h-36.4V501H413c8.5,0,15.2,1.5,20,4.6
			c4.8,3.1,7.2,7.4,7.2,13c0,3.4-0.9,6.4-2.6,8.9c-1.7,2.6-4.2,4.6-7.4,6C438.3,536.2,442.3,541.6,442.3,549.7z M396.3,529h15
			c6.9,0,10.4-2.4,10.4-7.3c0-4.8-3.5-7.2-10.4-7.2h-15V529z M423.8,548.2c0-2.6-0.8-4.5-2.5-5.8c-1.7-1.2-4.3-1.8-8-1.8h-17v15.1
			h16.6C420.1,555.7,423.8,553.2,423.8,548.2z"/>
		<path d="M513,528.7c4.6,3.9,6.8,9.5,6.8,16.7c0,7.6-2.6,13.5-7.7,17.6c-5.2,4.1-12.5,6.2-21.9,6.2l-33.2-0.1V501h19.6v21.8h16.2
			C501.7,522.8,508.4,524.8,513,528.7z M497.1,552.8c2-1.7,3-4.2,3-7.6c0-3.3-1-5.7-3-7.2c-2-1.5-4.9-2.3-8.8-2.4l-11.8-0.1v19.8
			h11.8C492.2,555.3,495.1,554.5,497.1,552.8z M527.2,501h19.6v68.2h-19.6V501z"/>
		<path d="M565.8,501h19.6v40.5l33.2-40.5h18.1v68.2h-19.6v-40.5L584,569.1h-18.2V501z M577.6,474h12.9c0.1,3,0.9,5.3,2.5,6.9
			c1.6,1.6,3.9,2.5,6.9,2.5s5.4-0.8,7-2.5c1.6-1.6,2.5-3.9,2.5-6.9h13.2c-0.1,13.1-7.6,19.6-22.6,19.6
			C585.1,493.6,577.7,487.1,577.6,474z"/>
		<path d="M188.3,604.6v88.7h-20.4v-72h-40v72h-20.4v-88.7H188.3z"/>
		<path d="M274.7,664.8h-51.6c0.9,4.2,3.1,7.6,6.6,10c3.5,2.5,7.8,3.7,12.9,3.7c3.5,0,6.7-0.5,9.4-1.6c2.7-1.1,5.3-2.7,7.7-5
			l10.5,11.4c-6.4,7.3-15.8,11-28.1,11c-7.7,0-14.5-1.5-20.4-4.5c-5.9-3-10.5-7.2-13.7-12.5c-3.2-5.3-4.8-11.4-4.8-18.1
			c0-6.7,1.6-12.7,4.8-18.1c3.2-5.4,7.5-9.5,13-12.5c5.5-3,11.7-4.5,18.6-4.5c6.7,0,12.7,1.4,18.1,4.3c5.4,2.9,9.6,7,12.7,12.4
			c3.1,5.4,4.6,11.6,4.6,18.7C275,659.7,274.9,661.5,274.7,664.8z M228.4,642.9c-3,2.5-4.9,6-5.6,10.4h33.6
			c-0.7-4.3-2.5-7.7-5.6-10.3c-3-2.6-6.8-3.9-11.1-3.9C235.2,639.1,231.5,640.4,228.4,642.9z"/>
		<path d="M351.6,625.2v68.2h-19.8V668c-5.7,2.9-12.1,4.3-19,4.3c-9.2,0-16.2-2.1-20.8-6.3c-4.7-4.2-7-10.7-7-19.4v-21.4h19.8v20.1
			c0,4.1,1.1,7.1,3.2,9c2.2,1.9,5.3,2.8,9.3,2.8c5.2,0,10-1.1,14.6-3.3v-28.6L351.6,625.2L351.6,625.2z"/>
		<path d="M421.4,631.7c5.7,5,8.5,12.6,8.5,22.7v38.9h-18.5v-8.5c-3.7,6.3-10.6,9.5-20.8,9.5c-5.2,0-9.8-0.9-13.6-2.7
			c-3.8-1.8-6.8-4.2-8.8-7.3c-2-3.1-3-6.7-3-10.6c0-6.3,2.4-11.3,7.2-15c4.8-3.6,12.1-5.4,22.1-5.4h15.7c0-4.3-1.3-7.6-3.9-9.9
			c-2.6-2.3-6.5-3.5-11.8-3.5c-3.6,0-7.2,0.6-10.7,1.7c-3.5,1.1-6.5,2.7-8.9,4.6l-7.1-13.8c3.7-2.6,8.2-4.6,13.4-6.1
			c5.2-1.4,10.5-2.2,16-2.2C407.6,624.1,415.7,626.7,421.4,631.7z M404.5,678.7c2.6-1.6,4.5-3.9,5.6-6.9v-7h-13.6
			c-8.1,0-12.2,2.7-12.2,8c0,2.5,1,4.5,3,6c2,1.5,4.7,2.2,8.2,2.2C398.9,681,401.9,680.2,404.5,678.7z"/>
		<path d="M504.4,641.4h-23.1v51.9h-19.6v-51.9h-23.1v-16.2h65.8V641.4z"/>
		<path d="M514.9,625.2h19.6v26.6h29.6v-26.6h19.8v68.2h-19.8v-25.5h-29.6v25.5h-19.6V625.2z"/>
		<path d="M658.8,652.9c4.6,3.9,6.8,9.5,6.8,16.7c0,7.6-2.6,13.5-7.7,17.6c-5.2,4.1-12.5,6.2-21.9,6.2l-33.2-0.1v-68.2h19.6v21.8
			h16.2C647.5,647,654.2,649,658.8,652.9z M642.9,677c2-1.7,3-4.2,3-7.6c0-3.3-1-5.7-3-7.2c-2-1.5-4.9-2.3-8.8-2.4l-11.8-0.1v19.8
			h11.8C638,679.5,640.9,678.7,642.9,677z M673,625.2h19.6v68.2H673V625.2z"/>
		<path d="M711.6,625.2h19.6v40.5l33.2-40.5h18.1v68.2h-19.6v-40.5l-33.1,40.5h-18.2V625.2L711.6,625.2z M723.4,598.2h12.9
			c0.1,3,0.9,5.3,2.5,6.9c1.6,1.6,3.9,2.5,6.9,2.5s5.4-0.8,7-2.5c1.6-1.6,2.5-3.9,2.5-6.9h13.2c-0.1,13.1-7.6,19.6-22.6,19.6
			C731,617.8,723.5,611.3,723.4,598.2z"/>
		<path d="M133.5,728.8v30.3h-4.3v-13.5h-17.4v13.5h-4.3v-30.3h4.3v13h17.4v-13H133.5z"/>
		<path d="M157.6,738.3c1.7,1.6,2.5,3.9,2.5,7v13.8h-3.9v-3c-0.7,1.1-1.7,1.9-3,2.4c-1.3,0.6-2.8,0.8-4.6,0.8
			c-2.6,0-4.6-0.6-6.2-1.9c-1.5-1.2-2.3-2.9-2.3-4.9c0-2,0.7-3.6,2.2-4.9c1.5-1.2,3.8-1.8,7-1.8h6.6v-0.8c0-1.8-0.5-3.2-1.6-4.1
			c-1-1-2.6-1.4-4.6-1.4c-1.4,0-2.7,0.2-4,0.7c-1.3,0.4-2.4,1-3.3,1.8l-1.7-3.1c1.2-1,2.6-1.7,4.2-2.2c1.6-0.5,3.4-0.8,5.2-0.8
			C153.5,736,156,736.7,157.6,738.3z M153.5,755.1c1.2-0.7,2-1.7,2.5-3v-3.2h-6.4c-3.5,0-5.3,1.2-5.3,3.5c0,1.2,0.4,2.1,1.3,2.7
			c0.9,0.7,2.1,1,3.7,1C151,756.1,152.4,755.8,153.5,755.1z"/>
		<path d="M188.9,736.2v22.9h-4.2v-19.3h-12.9v19.3h-4.2v-22.9H188.9z"/>
		<path d="M217.5,749h-18.6c0.3,2,1.1,3.6,2.7,4.9c1.5,1.2,3.4,1.8,5.6,1.8c2.7,0,4.9-0.9,6.6-2.8l2.3,2.7c-1,1.2-2.3,2.1-3.9,2.8
			c-1.5,0.6-3.3,1-5.2,1c-2.4,0-4.6-0.5-6.4-1.5c-1.9-1-3.3-2.4-4.3-4.2c-1-1.8-1.5-3.8-1.5-6.1c0-2.2,0.5-4.2,1.5-6
			c1-1.8,2.4-3.2,4.1-4.2c1.7-1,3.7-1.5,5.9-1.5c2.2,0,4.1,0.5,5.9,1.5s3.1,2.4,4,4.2c1,1.8,1.4,3.8,1.4,6.1
			C217.6,748.1,217.6,748.5,217.5,749z M201.3,741.3c-1.3,1.2-2.1,2.8-2.4,4.8h14.7c-0.2-1.9-1-3.5-2.4-4.7c-1.3-1.2-3-1.8-5-1.8
			C204.3,739.5,202.6,740.1,201.3,741.3z"/>
		<path d="M242.3,736.2v22.9h-4.2v-9.2c-2.5,1.2-4.9,1.7-7.4,1.7c-2.9,0-5.1-0.7-6.6-2c-1.6-1.3-2.3-3.3-2.3-6v-7.4h4.2v7.2
			c0,1.6,0.5,2.8,1.5,3.6s2.4,1.2,4.2,1.2c2,0,4.2-0.5,6.5-1.5v-10.5L242.3,736.2L242.3,736.2z"/>
		<path d="M265.8,738.3c1.7,1.6,2.5,3.9,2.5,7v13.8h-3.9v-3c-0.7,1.1-1.7,1.9-3,2.4c-1.3,0.6-2.8,0.8-4.6,0.8
			c-2.6,0-4.6-0.6-6.2-1.9c-1.5-1.2-2.3-2.9-2.3-4.9c0-2,0.7-3.6,2.2-4.9c1.5-1.2,3.8-1.8,7-1.8h6.6v-0.8c0-1.8-0.5-3.2-1.6-4.1
			c-1-1-2.6-1.4-4.6-1.4c-1.4,0-2.7,0.2-4,0.7c-1.3,0.4-2.4,1-3.3,1.8l-1.7-3.1c1.2-1,2.6-1.7,4.2-2.2c1.6-0.5,3.4-0.8,5.2-0.8
			C261.7,736,264.1,736.7,265.8,738.3z M261.7,755.1c1.2-0.7,2-1.7,2.5-3v-3.2h-6.4c-3.5,0-5.3,1.2-5.3,3.5c0,1.2,0.4,2.1,1.3,2.7
			c0.9,0.7,2.1,1,3.7,1C259.2,756.1,260.6,755.8,261.7,755.1z"/>
		<path d="M292.9,739.8h-8.4v19.3h-4.1v-19.3H272v-3.6h20.9L292.9,739.8L292.9,739.8z"/>
		<path d="M312.6,738.3c1.7,1.6,2.5,3.9,2.5,7v13.8h-3.9v-3c-0.7,1.1-1.7,1.9-3,2.4c-1.3,0.6-2.8,0.8-4.6,0.8
			c-2.6,0-4.6-0.6-6.2-1.9c-1.5-1.2-2.3-2.9-2.3-4.9c0-2,0.7-3.6,2.2-4.9c1.5-1.2,3.8-1.8,7-1.8h6.6v-0.8c0-1.8-0.5-3.2-1.6-4.1
			c-1-1-2.6-1.4-4.6-1.4c-1.4,0-2.7,0.2-4,0.7c-1.3,0.4-2.4,1-3.3,1.8l-1.7-3.1c1.2-1,2.6-1.7,4.2-2.2c1.6-0.5,3.4-0.8,5.2-0.8
			C308.5,736,310.9,736.7,312.6,738.3z M308.5,755.1c1.2-0.7,2-1.7,2.5-3v-3.2h-6.4c-3.5,0-5.3,1.2-5.3,3.5c0,1.2,0.4,2.1,1.3,2.7
			c0.9,0.7,2.1,1,3.7,1C305.9,756.1,307.3,755.8,308.5,755.1z"/>
		<path d="M343.2,749h-18.6c0.3,2,1.1,3.6,2.7,4.9c1.5,1.2,3.4,1.8,5.6,1.8c2.7,0,4.9-0.9,6.6-2.8l2.3,2.7c-1,1.2-2.3,2.1-3.9,2.8
			c-1.5,0.6-3.3,1-5.2,1c-2.4,0-4.6-0.5-6.4-1.5c-1.9-1-3.3-2.4-4.3-4.2c-1-1.8-1.5-3.8-1.5-6.1c0-2.2,0.5-4.2,1.5-6
			c1-1.8,2.4-3.2,4.1-4.2c1.7-1,3.7-1.5,5.9-1.5s4.1,0.5,5.9,1.5c1.7,1,3.1,2.4,4,4.2c1,1.8,1.4,3.8,1.4,6.1
			C343.3,748.1,343.3,748.5,343.2,749z M327,741.3c-1.3,1.2-2.1,2.8-2.4,4.8h14.7c-0.2-1.9-1-3.5-2.4-4.7c-1.3-1.2-3-1.8-5-1.8
			C330,739.5,328.3,740.1,327,741.3z"/>
		<path d="M376.2,736.2v22.9h-3.8v-16.7l-8.6,14.1H362l-8.5-14.2v16.8h-3.8v-22.9h4.3l9,15.5l9.2-15.5L376.2,736.2L376.2,736.2z"/>
		<path d="M126.1,779c1.7,1,3,2.3,3.9,4c0.9,1.7,1.4,3.6,1.4,5.8c0,2.2-0.5,4.2-1.5,5.9c-1,1.7-2.4,3-4.2,4c-1.8,1-3.9,1.4-6.2,1.4
			c-3.9,0-6.9-1.3-9-4c-2.1-2.7-3.2-6.4-3.2-11.3c0-4.7,1-8.4,2.9-11c1.9-2.7,4.9-4.4,8.9-5.3l10.5-2.3l0.6,3.8l-9.6,2.1
			c-3,0.7-5.2,1.8-6.7,3.4c-1.5,1.6-2.3,3.9-2.5,6.8c1-1.5,2.2-2.6,3.8-3.4c1.6-0.8,3.3-1.2,5.2-1.2
			C122.5,777.6,124.4,778.1,126.1,779z M123.6,795.6c1.1-0.7,2-1.6,2.7-2.7c0.6-1.2,1-2.5,1-4c0-2.3-0.7-4.1-2.1-5.5
			c-1.4-1.4-3.2-2.1-5.4-2.1c-2.2,0-4.1,0.7-5.5,2.1c-1.4,1.4-2.1,3.2-2.1,5.5c0,1.5,0.3,2.8,1,4s1.6,2.1,2.7,2.7
			c1.2,0.7,2.4,1,3.9,1C121.1,796.6,122.5,796.3,123.6,795.6z"/>
		<path d="M154.3,786.6c1.5,1.3,2.3,3.1,2.3,5.5c0,2.5-0.8,4.4-2.5,5.7c-1.7,1.3-4,2-7.1,2l-9.6,0v-22.9h4.2v7.7l6.2,0
			C150.6,784.6,152.8,785.3,154.3,786.6z M150.9,795.5c1-0.8,1.4-1.9,1.4-3.5c0-1.5-0.5-2.6-1.4-3.3s-2.4-1.1-4.3-1.1l-5.2-0.1v9
			l5.2,0C148.6,796.7,150,796.3,150.9,795.5z M160,776.8h4.2v22.9H160V776.8z"/>
		<path d="M176,798.5c-1.8-1-3.3-2.4-4.3-4.2c-1-1.8-1.6-3.8-1.6-6c0-2.2,0.5-4.3,1.6-6c1-1.8,2.5-3.2,4.3-4.2
			c1.8-1,3.9-1.5,6.2-1.5c2.1,0,3.9,0.4,5.6,1.3c1.6,0.8,2.9,2,3.8,3.6l-3.2,2c-0.7-1.1-1.6-1.9-2.7-2.5c-1.1-0.5-2.2-0.8-3.5-0.8
			c-1.5,0-2.8,0.3-4,1c-1.2,0.7-2.1,1.6-2.8,2.8c-0.7,1.2-1,2.6-1,4.2c0,1.6,0.3,3,1,4.3s1.6,2.2,2.8,2.8c1.2,0.7,2.5,1,4,1
			c1.3,0,2.5-0.3,3.5-0.8c1.1-0.5,2-1.4,2.7-2.5l3.2,2c-0.9,1.6-2.2,2.8-3.8,3.7c-1.6,0.9-3.5,1.3-5.6,1.3
			C179.9,800,177.8,799.5,176,798.5z"/>
		<path d="M213.7,780.5h-8.4v19.3h-4.2v-19.3h-8.4v-3.6h20.9L213.7,780.5L213.7,780.5z"/>
		<path d="M236,778.1c1.8,1,3.1,2.3,4.1,4.1c1,1.8,1.5,3.8,1.5,6.1c0,2.3-0.5,4.3-1.5,6.1c-1,1.8-2.4,3.1-4.1,4.1
			c-1.8,1-3.7,1.5-6,1.5c-1.6,0-3.1-0.3-4.5-1c-1.4-0.6-2.5-1.6-3.5-2.8v11.8h-4.2v-31.3h4v3.6c0.9-1.3,2.1-2.2,3.5-2.9
			c1.4-0.6,3-1,4.7-1C232.3,776.6,234.3,777.1,236,778.1z M233.7,795.4c1.2-0.7,2.1-1.6,2.8-2.9s1-2.6,1-4.2c0-1.6-0.3-3-1-4.2
			c-0.7-1.2-1.6-2.2-2.8-2.8c-1.2-0.7-2.5-1-4-1c-1.4,0-2.7,0.3-3.9,1c-1.2,0.7-2.1,1.6-2.8,2.8c-0.7,1.2-1,2.6-1,4.2s0.3,3,1,4.2
			s1.6,2.2,2.8,2.9c1.2,0.7,2.5,1,3.9,1C231.2,796.4,232.5,796,233.7,795.4z"/>
		<path d="M251.3,798.5c-1.8-1-3.2-2.4-4.3-4.2c-1-1.8-1.5-3.8-1.5-6c0-2.2,0.5-4.3,1.5-6c1-1.8,2.4-3.2,4.3-4.2
			c1.8-1,3.9-1.5,6.1-1.5c2.3,0,4.3,0.5,6.1,1.5s3.2,2.4,4.2,4.2c1,1.8,1.5,3.8,1.5,6c0,2.2-0.5,4.3-1.5,6c-1,1.8-2.4,3.2-4.2,4.2
			c-1.8,1-3.8,1.5-6.1,1.5C255.2,800,253.2,799.5,251.3,798.5z M261.4,795.4c1.2-0.7,2.1-1.6,2.7-2.9s1-2.6,1-4.2c0-1.6-0.3-3-1-4.2
			s-1.6-2.2-2.7-2.8c-1.2-0.7-2.5-1-4-1s-2.8,0.3-4,1c-1.2,0.7-2.1,1.6-2.8,2.8s-1,2.6-1,4.2c0,1.6,0.3,3,1,4.2s1.6,2.2,2.8,2.9
			c1.2,0.7,2.5,1,4,1C258.9,796.4,260.3,796,261.4,795.4z"/>
		<path d="M287,776.8h4.2v16.7l14-16.7h3.8v22.9h-4.2v-16.7l-14,16.7H287L287,776.8L287,776.8z"/>
		<path d="M348.3,776.8v22.9h-4.2v-19.3h-9.9l-0.3,5.1c-0.1,3.1-0.4,5.7-0.8,7.7c-0.4,2.1-1.1,3.7-2,4.9c-0.9,1.2-2.2,1.9-3.8,1.9
			c-0.7,0-1.6-0.1-2.6-0.4l0.3-3.5c0.4,0.1,0.7,0.1,1,0.1c1.2,0,2-0.5,2.6-1.5c0.6-1,1-2.2,1.1-3.6c0.2-1.4,0.3-3.4,0.5-5.9l0.4-8.5
			L348.3,776.8L348.3,776.8z"/>
		<path d="M376.9,789.7h-18.6c0.3,2,1.1,3.6,2.7,4.9c1.5,1.2,3.4,1.8,5.6,1.8c2.7,0,4.9-0.9,6.6-2.8l2.3,2.7c-1,1.2-2.3,2.1-3.9,2.8
			c-1.5,0.6-3.3,1-5.2,1c-2.4,0-4.6-0.5-6.4-1.5c-1.9-1-3.3-2.4-4.3-4.2c-1-1.8-1.5-3.8-1.5-6.1c0-2.2,0.5-4.2,1.5-6
			s2.4-3.2,4.1-4.2c1.7-1,3.7-1.5,5.9-1.5c2.2,0,4.1,0.5,5.9,1.5s3.1,2.4,4,4.2c1,1.8,1.4,3.8,1.4,6.1
			C377,788.7,377,789.1,376.9,789.7z M360.7,781.9c-1.3,1.2-2.1,2.8-2.4,4.8h14.7c-0.2-1.9-1-3.5-2.4-4.7c-1.3-1.2-3-1.8-5-1.8
			S362.1,780.7,360.7,781.9z"/>
		<path d="M400.3,780.5h-12.7v19.3h-4.2v-22.9h16.9L400.3,780.5L400.3,780.5z"/>
		<path d="M413.5,790.1h-4.8v9.7h-4.2v-22.9h4.2v9.7h4.8l7.4-9.7h4.5l-8.7,11l9.3,11.9h-4.9L413.5,790.1z"/>
		<path d="M433.3,798.5c-1.8-1-3.2-2.4-4.3-4.2c-1-1.8-1.5-3.8-1.5-6c0-2.2,0.5-4.3,1.5-6c1-1.8,2.4-3.2,4.3-4.2
			c1.8-1,3.9-1.5,6.1-1.5c2.3,0,4.3,0.5,6.1,1.5c1.8,1,3.2,2.4,4.2,4.2c1,1.8,1.5,3.8,1.5,6c0,2.2-0.5,4.3-1.5,6
			c-1,1.8-2.4,3.2-4.2,4.2c-1.8,1-3.8,1.5-6.1,1.5C437.2,800,435.1,799.5,433.3,798.5z M443.4,795.4c1.2-0.7,2.1-1.6,2.7-2.9
			s1-2.6,1-4.2c0-1.6-0.3-3-1-4.2s-1.6-2.2-2.7-2.8c-1.2-0.7-2.5-1-4-1s-2.8,0.3-4,1c-1.2,0.7-2.1,1.6-2.8,2.8c-0.7,1.2-1,2.6-1,4.2
			c0,1.6,0.3,3,1,4.2c0.7,1.2,1.6,2.2,2.8,2.9c1.2,0.7,2.5,1,4,1C440.9,796.4,442.2,796,443.4,795.4z"/>
		<rect x="160.7" y="214.3" width="106.4" height="212.9"/>
		<rect x="160.7" y="107.9" width="106.4" height="106.4"/>
		<rect x="267.1" y="214.3" width="106.4" height="212.9"/>
		<path d="M373.5,214.3H267.1V107.9c9.1,0,18.2,3.5,25.1,10.4l71,71C370.1,196.2,373.5,205.3,373.5,214.3z"/>
	</g>
</g>
</svg>
