<svg xmlns="http://www.w3.org/2000/svg" viewBox="0 0 890 395.6">
<style type="text/css">
	@import url("/styles/logos-draft.css");
	.st0{fill:#3C8EFF;}
	.st1{fill:#FFB93E;}
	.st2{fill:#E1005A;}
</style>

<defs>
  <pattern id="d" width="6" height="6" patternUnits="userSpaceOnUse" patternTransform="rotate(45 50 50)">
    <line class="h" x1="0" y1="0" x2="0" y2="10"></line>
  </pattern>
</defs>

<g class="main w">
	<rect class="dl" x="1" y="2.6" width="888" height="391.5"/>
	<rect class="bg" x="1" y="2.6" width="888" height="391.5"/>

	<g class="mjl">
		<line x1="1" y1="80.9" x2="889" y2="80.9"/>
		<line x1="1" y1="315.7" x2="889" y2="315.7"/>
		<line x1="235.9" y1="2.6" x2="235.9" y2="394"/>
		<line x1="314.2" y1="2.6" x2="314.2" y2="394"/>
		<line x1="79.3" y1="2.6" x2="79.3" y2="394"/>
		<line x1="810.8" y1="1.5" x2="810.8" y2="393"/>
	</g>

	<g class="mnl">
		<line x1="235.9" y1="146.1" x2="889" y2="146.1"/>
		<line x1="235.9" y1="237.4" x2="889" y2="237.4"/>
		<line x1="235.9" y1="172.2" x2="889" y2="172.2"/>
		<line x1="235.9" y1="263.6" x2="889" y2="263.6"/>
		<line x1="235.9" y1="285.6" x2="889" y2="285.6"/>
		<line x1="235.9" y1="298.9" x2="889" y2="298.9"/>
		<line x1="1" y1="159.1" x2="235.9" y2="159.1"/>
		<line x1="1" y1="237.4" x2="235.9" y2="237.4"/>
		<line x1="157.6" y1="2.6" x2="157.6" y2="394"/>
		<circle cx="157.6" cy="107" r="26.1"/>
		<circle cx="209.8" cy="159.1" r="26.1"/>
		<line x1="1" y1="133" x2="235.9" y2="133"/>
		<line x1="1" y1="185.2" x2="235.9" y2="185.2"/>
		<line x1="1" y1="107" x2="235.9" y2="107"/>
	</g>

	<g class="logo">
		<rect class="st0" x="79.3" y="159.1" width="78.3" height="156.6"/>
		<rect class="st1" x="79.3" y="80.9" width="78.3" height="78.3"/>
		<rect class="st1" x="157.6" y="159.1" width="78.3" height="156.6"/>
		<path class="st2" d="M235.9,159.1h-78.3V80.9c6.7,0,13.4,2.5,18.5,7.6l52.2,52.2C233.3,145.8,235.9,152.5,235.9,159.1z"/>
		<path d="M373.6,80.9v65.2h-15V93.2h-29.4v52.9h-15V80.9H373.6z"/>
		<path d="M437.2,125.1h-37.9c0.7,3.1,2.3,5.6,4.8,7.4c2.5,1.8,5.7,2.7,9.5,2.7c2.6,0,4.9-0.4,6.9-1.2c2-0.8,3.9-2,5.6-3.7l7.7,8.4
			c-4.7,5.4-11.6,8.1-20.7,8.1c-5.7,0-10.7-1.1-15-3.3c-4.4-2.2-7.7-5.3-10.1-9.2c-2.4-3.9-3.5-8.4-3.5-13.3c0-4.9,1.2-9.3,3.5-13.3
			c2.3-3.9,5.5-7,9.6-9.2c4.1-2.2,8.6-3.3,13.7-3.3c4.9,0,9.4,1.1,13.3,3.2c4,2.1,7.1,5.1,9.4,9.1c2.3,3.9,3.4,8.5,3.4,13.7
			C437.5,121.4,437.4,122.7,437.2,125.1z M403.2,109c-2.2,1.9-3.6,4.4-4.1,7.6h24.7c-0.5-3.2-1.9-5.7-4.1-7.6s-5-2.8-8.2-2.8
			C408.2,106.2,405.4,107.1,403.2,109z"/>
		<path d="M490.9,98.4c3.8,2.1,6.8,5.2,9,9c2.2,3.9,3.3,8.4,3.3,13.6c0,5.2-1.1,9.7-3.3,13.6c-2.2,3.9-5.2,6.9-9,9
			c-3.8,2.1-8.1,3.2-12.7,3.2c-6.4,0-11.4-2-15.1-6.1v23.4h-14.5V96h13.9v5.8c3.6-4.3,8.9-6.5,15.7-6.5
			C482.8,95.2,487.1,96.3,490.9,98.4z M484.8,131.1c2.4-2.5,3.6-5.9,3.6-10.1s-1.2-7.6-3.6-10.1c-2.4-2.5-5.5-3.8-9.2-3.8
			s-6.8,1.3-9.2,3.8c-2.4,2.5-3.6,5.9-3.6,10.1c0,4.2,1.2,7.6,3.6,10.1c2.4,2.5,5.5,3.8,9.2,3.8S482.4,133.6,484.8,131.1z"/>
		<path d="M560.5,131.8c0,4.5-1.7,8-5.1,10.5c-3.4,2.5-8.5,3.7-15.3,3.7h-26.7V96h25.6c6.3,0,11.2,1.1,14.7,3.4
			c3.5,2.3,5.3,5.5,5.3,9.6c0,2.5-0.6,4.7-1.9,6.6c-1.3,1.9-3.1,3.4-5.5,4.4C557.5,121.9,560.5,125.9,560.5,131.8z M526.6,116.5h11
			c5.1,0,7.6-1.8,7.6-5.4c0-3.5-2.5-5.3-7.6-5.3h-11V116.5L526.6,116.5z M546.9,130.7c0-1.9-0.6-3.3-1.9-4.2
			c-1.2-0.9-3.2-1.4-5.9-1.4h-12.5v11.1h12.2C544.2,136.2,546.9,134.4,546.9,130.7z"/>
		<path d="M612.5,116.4c3.4,2.9,5,7,5,12.3c0,5.6-1.9,9.9-5.7,13c-3.8,3-9.2,4.6-16.1,4.6l-24.4-0.1V96h14.4v16h11.9
			C604.2,112,609.1,113.5,612.5,116.4z M600.8,134.1c1.5-1.2,2.2-3.1,2.2-5.6c0-2.4-0.7-4.2-2.2-5.3c-1.5-1.1-3.6-1.7-6.5-1.8
			l-8.7-0.1v14.5h8.7C597.2,135.9,599.3,135.3,600.8,134.1z M622.9,96h14.4v50.1h-14.4V96z"/>
		<path d="M651.3,96h14.4v29.8L690.2,96h13.3v50.1h-14.4v-29.8l-24.3,29.8h-13.4L651.3,96L651.3,96z M660,76.1h9.5
			c0.1,2.2,0.7,3.9,1.8,5.1c1.1,1.2,2.8,1.8,5.1,1.8s4-0.6,5.2-1.8c1.2-1.2,1.8-2.9,1.8-5.1h9.7c-0.1,9.6-5.6,14.4-16.6,14.4
			C665.5,90.5,660,85.7,660,76.1z"/>
		<path d="M373.6,172.2v65.2h-15v-52.9h-29.4v52.9h-15v-65.2H373.6z"/>
		<path d="M437.2,216.5h-37.9c0.7,3.1,2.3,5.6,4.8,7.4c2.5,1.8,5.7,2.7,9.5,2.7c2.6,0,4.9-0.4,6.9-1.2c2-0.8,3.9-2,5.6-3.7l7.7,8.4
			c-4.7,5.4-11.6,8.1-20.7,8.1c-5.7,0-10.7-1.1-15-3.3c-4.4-2.2-7.7-5.3-10.1-9.2c-2.4-3.9-3.5-8.4-3.5-13.3c0-4.9,1.2-9.3,3.5-13.3
			c2.3-3.9,5.5-7,9.6-9.2c4.1-2.2,8.6-3.3,13.7-3.3c4.9,0,9.4,1.1,13.3,3.2c4,2.1,7.1,5.1,9.4,9.1c2.3,3.9,3.4,8.5,3.4,13.7
			C437.5,212.7,437.4,214,437.2,216.5z M403.2,200.3c-2.2,1.9-3.6,4.4-4.1,7.6h24.7c-0.5-3.2-1.9-5.7-4.1-7.6
			c-2.2-1.9-5-2.8-8.2-2.8C408.2,197.6,405.4,198.5,403.2,200.3z"/>
		<path d="M493.7,187.3v50.1h-14.5v-18.6c-4.2,2.1-8.9,3.2-14,3.2c-6.8,0-11.9-1.5-15.3-4.6c-3.4-3.1-5.2-7.8-5.2-14.3v-15.7h14.5
			v14.8c0,3,0.8,5.3,2.4,6.6c1.6,1.4,3.9,2.1,6.9,2.1c3.8,0,7.4-0.8,10.7-2.4v-21.1L493.7,187.3L493.7,187.3z"/>
		<path d="M545.1,192.1c4.2,3.7,6.2,9.3,6.2,16.7v28.6h-13.6v-6.2c-2.7,4.7-7.8,7-15.3,7c-3.9,0-7.2-0.7-10-2
			c-2.8-1.3-5-3.1-6.5-5.4c-1.5-2.3-2.2-4.9-2.2-7.8c0-4.7,1.8-8.3,5.3-11c3.5-2.7,8.9-4,16.3-4h11.6c0-3.2-1-5.6-2.9-7.3
			c-1.9-1.7-4.8-2.6-8.7-2.6c-2.7,0-5.3,0.4-7.9,1.3c-2.6,0.8-4.8,2-6.6,3.4l-5.2-10.2c2.7-1.9,6-3.4,9.8-4.5
			c3.8-1.1,7.7-1.6,11.8-1.6C535,186.6,540.9,188.4,545.1,192.1z M532.7,226.7c1.9-1.1,3.3-2.8,4.1-5.1v-5.1h-10c-6,0-8.9,2-8.9,5.9
			c0,1.9,0.7,3.3,2.2,4.4c1.5,1.1,3.5,1.6,6,1.6C528.6,228.4,530.8,227.8,532.7,226.7z"/>
		<path d="M606.1,199.2h-17v38.2h-14.4v-38.2h-17v-11.9h48.4V199.2z"/>
		<path d="M613.8,187.3h14.4v19.6h21.8v-19.6h14.5v50.1h-14.5v-18.7h-21.8v18.7h-14.4V187.3z"/>
		<path d="M719.7,207.7c3.4,2.9,5,7,5,12.3c0,5.6-1.9,9.9-5.7,13c-3.8,3-9.2,4.6-16.1,4.6l-24.4-0.1v-50.1H693v16h11.9
			C711.4,203.4,716.4,204.9,719.7,207.7z M708.1,225.4c1.5-1.2,2.2-3.1,2.2-5.6c0-2.4-0.7-4.2-2.2-5.3c-1.5-1.1-3.6-1.7-6.5-1.8
			l-8.7-0.1v14.5h8.7C704.4,227.2,706.6,226.7,708.1,225.4z M730.1,187.3h14.4v50.1h-14.4V187.3z"/>
		<path d="M758.6,187.3H773v29.8l24.4-29.8h13.3v50.1h-14.4v-29.8L772,237.4h-13.4L758.6,187.3L758.6,187.3z M767.2,167.5h9.5
			c0.1,2.2,0.7,3.9,1.8,5.1c1.1,1.2,2.8,1.8,5.1,1.8s4-0.6,5.2-1.8c1.2-1.2,1.8-2.9,1.8-5.1h9.7c-0.1,9.6-5.6,14.4-16.6,14.4
			C772.8,181.9,767.3,177.1,767.2,167.5z"/>
		<path d="M333.3,263.6v22.3h-3.2v-9.9h-12.8v9.9h-3.2v-22.3h3.2v9.6h12.8v-9.6H333.3L333.3,263.6z"/>
		<path d="M351.1,270.5c1.2,1.1,1.9,2.8,1.9,5.1v10.2h-2.9v-2.2c-0.5,0.8-1.2,1.4-2.2,1.8c-0.9,0.4-2.1,0.6-3.4,0.6
			c-1.9,0-3.4-0.5-4.5-1.4c-1.1-0.9-1.7-2.1-1.7-3.6c0-1.5,0.5-2.7,1.6-3.6c1.1-0.9,2.8-1.4,5.2-1.4h4.8v-0.6c0-1.3-0.4-2.3-1.1-3
			c-0.8-0.7-1.9-1-3.4-1c-1,0-2,0.2-2.9,0.5c-1,0.3-1.8,0.8-2.4,1.3l-1.3-2.3c0.9-0.7,1.9-1.2,3.1-1.6c1.2-0.4,2.5-0.6,3.8-0.6
			C348.1,268.8,349.9,269.4,351.1,270.5z M348.1,282.9c0.8-0.5,1.5-1.3,1.8-2.2v-2.4h-4.7c-2.6,0-3.9,0.9-3.9,2.6c0,0.8,0.3,1.5,1,2
			s1.6,0.7,2.7,0.7C346.2,283.7,347.2,283.4,348.1,282.9z"/>
		<path d="M374.1,269v16.9H371v-14.2h-9.5v14.2h-3.1V269H374.1z"/>
		<path d="M395.1,278.4h-13.7c0.2,1.5,0.8,2.7,2,3.6c1.1,0.9,2.5,1.4,4.1,1.4c2,0,3.6-0.7,4.9-2l1.7,2c-0.8,0.9-1.7,1.6-2.8,2
			c-1.1,0.5-2.4,0.7-3.8,0.7c-1.8,0-3.4-0.4-4.7-1.1c-1.4-0.7-2.4-1.8-3.2-3.1c-0.8-1.3-1.1-2.8-1.1-4.5c0-1.6,0.4-3.1,1.1-4.4
			c0.7-1.3,1.7-2.3,3-3.1c1.3-0.7,2.7-1.1,4.3-1.1c1.6,0,3,0.4,4.3,1.1c1.3,0.7,2.2,1.8,3,3.1c0.7,1.3,1.1,2.8,1.1,4.5
			C395.2,277.7,395.2,278,395.1,278.4z M383.2,272.7c-1,0.9-1.6,2.1-1.7,3.5h10.8c-0.2-1.4-0.7-2.6-1.7-3.5c-1-0.9-2.2-1.4-3.7-1.4
			C385.4,271.4,384.2,271.8,383.2,272.7z"/>
		<path d="M413.4,269v16.9h-3.1V279c-1.8,0.8-3.6,1.3-5.4,1.3c-2.1,0-3.7-0.5-4.9-1.5c-1.1-1-1.7-2.4-1.7-4.4V269h3.1v5.3
			c0,1.2,0.4,2,1.1,2.6c0.7,0.6,1.8,0.9,3.1,0.9c1.5,0,3.1-0.4,4.8-1.1V269L413.4,269L413.4,269z"/>
		<path d="M430.7,270.5c1.2,1.1,1.9,2.8,1.9,5.1v10.2h-2.9v-2.2c-0.5,0.8-1.2,1.4-2.2,1.8c-0.9,0.4-2.1,0.6-3.4,0.6
			c-1.9,0-3.4-0.5-4.5-1.4c-1.1-0.9-1.7-2.1-1.7-3.6c0-1.5,0.5-2.7,1.6-3.6c1.1-0.9,2.8-1.4,5.2-1.4h4.8v-0.6c0-1.3-0.4-2.3-1.1-3
			c-0.8-0.7-1.9-1-3.4-1c-1,0-2,0.2-2.9,0.5c-1,0.3-1.8,0.8-2.4,1.3l-1.3-2.3c0.9-0.7,1.9-1.2,3.1-1.6c1.2-0.4,2.5-0.6,3.8-0.6
			C427.6,268.8,429.4,269.4,430.7,270.5z M427.6,282.9c0.8-0.5,1.5-1.3,1.8-2.2v-2.4h-4.7c-2.6,0-3.9,0.9-3.9,2.6c0,0.8,0.3,1.5,1,2
			c0.7,0.5,1.6,0.7,2.7,0.7C425.8,283.7,426.8,283.4,427.6,282.9z"/>
		<path d="M450.6,271.6h-6.2v14.2h-3.1v-14.2h-6.2V269h15.4L450.6,271.6L450.6,271.6z"/>
		<path d="M465.1,270.5c1.2,1.1,1.9,2.8,1.9,5.1v10.2H464v-2.2c-0.5,0.8-1.2,1.4-2.2,1.8c-0.9,0.4-2.1,0.6-3.4,0.6
			c-1.9,0-3.4-0.5-4.5-1.4c-1.1-0.9-1.7-2.1-1.7-3.6c0-1.5,0.5-2.7,1.6-3.6c1.1-0.9,2.8-1.4,5.2-1.4h4.8v-0.6c0-1.3-0.4-2.3-1.1-3
			c-0.8-0.7-1.9-1-3.4-1c-1,0-2,0.2-2.9,0.5c-1,0.3-1.8,0.8-2.4,1.3l-1.3-2.3c0.9-0.7,1.9-1.2,3.1-1.6c1.2-0.4,2.5-0.6,3.8-0.6
			C462,268.8,463.8,269.4,465.1,270.5z M462,282.9c0.8-0.5,1.5-1.3,1.8-2.2v-2.4h-4.7c-2.6,0-3.9,0.9-3.9,2.6c0,0.8,0.3,1.5,1,2
			s1.6,0.7,2.7,0.7C460.2,283.7,461.2,283.4,462,282.9z"/>
		<path d="M487.6,278.4h-13.7c0.2,1.5,0.8,2.7,2,3.6c1.1,0.9,2.5,1.4,4.1,1.4c2,0,3.6-0.7,4.9-2l1.7,2c-0.8,0.9-1.7,1.6-2.8,2
			c-1.1,0.5-2.4,0.7-3.8,0.7c-1.8,0-3.4-0.4-4.7-1.1c-1.4-0.7-2.4-1.8-3.2-3.1c-0.8-1.3-1.1-2.8-1.1-4.5c0-1.6,0.4-3.1,1.1-4.4
			c0.7-1.3,1.7-2.3,3-3.1c1.3-0.7,2.7-1.1,4.3-1.1c1.6,0,3,0.4,4.3,1.1c1.3,0.7,2.2,1.8,3,3.1c0.7,1.3,1.1,2.8,1.1,4.5
			C487.7,277.7,487.6,278,487.6,278.4z M475.7,272.7c-1,0.9-1.6,2.1-1.7,3.5h10.8c-0.2-1.4-0.7-2.6-1.7-3.5c-1-0.9-2.2-1.4-3.7-1.4
			C477.9,271.4,476.6,271.8,475.7,272.7z"/>
		<path d="M511.8,269v16.9h-2.8v-12.3l-6.3,10.4h-1.3l-6.2-10.4v12.3h-2.8V269h3.1l6.6,11.4L509,269H511.8z"/>
		<path d="M327.9,300.5c1.2,0.7,2.2,1.7,2.9,2.9c0.7,1.2,1,2.7,1,4.2c0,1.6-0.4,3.1-1.1,4.3s-1.8,2.2-3.1,2.9c-1.3,0.7-2.8,1-4.5,1
			c-2.9,0-5.1-1-6.6-2.9s-2.3-4.7-2.3-8.3c0-3.5,0.7-6.2,2.1-8.1c1.4-2,3.6-3.3,6.5-3.9l7.7-1.7l0.4,2.8l-7.1,1.5
			c-2.2,0.5-3.8,1.3-4.9,2.5c-1.1,1.2-1.7,2.8-1.8,5c0.7-1.1,1.7-1.9,2.8-2.5c1.1-0.6,2.4-0.9,3.8-0.9
			C325.3,299.4,326.7,299.8,327.9,300.5z M326,312.7c0.8-0.5,1.5-1.2,2-2s0.7-1.8,0.7-2.9c0-1.7-0.5-3-1.5-4c-1-1-2.4-1.5-4-1.5
			c-1.7,0-3,0.5-4,1.5c-1,1-1.5,2.4-1.5,4c0,1.1,0.2,2.1,0.7,2.9c0.5,0.9,1.1,1.5,2,2c0.8,0.5,1.8,0.7,2.9,0.7
			C324.2,313.4,325.2,313.2,326,312.7z"/>
		<path d="M348.6,306.1c1.1,1,1.7,2.3,1.7,4c0,1.8-0.6,3.2-1.8,4.2c-1.2,1-3,1.5-5.2,1.4l-7.1,0v-16.9h3.1v5.7l4.5,0
			C345.9,304.6,347.5,305.1,348.6,306.1z M346.2,312.6c0.7-0.6,1.1-1.4,1.1-2.5c0-1.1-0.3-1.9-1-2.4s-1.7-0.8-3.1-0.8l-3.8-0.1v6.6
			l3.8,0C344.4,313.5,345.5,313.2,346.2,312.6z M352.8,298.9h3.1v16.9h-3.1V298.9z"/>
		<path d="M364.6,314.8c-1.3-0.7-2.4-1.8-3.2-3.1c-0.8-1.3-1.1-2.8-1.1-4.4c0-1.7,0.4-3.1,1.1-4.4c0.8-1.3,1.8-2.3,3.2-3.1
			c1.3-0.7,2.9-1.1,4.6-1.1c1.5,0,2.9,0.3,4.1,0.9c1.2,0.6,2.1,1.5,2.8,2.7l-2.3,1.5c-0.5-0.8-1.2-1.4-2-1.8
			c-0.8-0.4-1.7-0.6-2.6-0.6c-1.1,0-2.1,0.2-3,0.7s-1.6,1.2-2.1,2.1c-0.5,0.9-0.7,1.9-0.7,3.1c0,1.2,0.2,2.2,0.7,3.1
			c0.5,0.9,1.2,1.6,2.1,2.1s1.9,0.7,3,0.7c1,0,1.8-0.2,2.6-0.6c0.8-0.4,1.4-1,2-1.8l2.3,1.5c-0.7,1.2-1.6,2.1-2.8,2.7
			c-1.2,0.6-2.6,0.9-4.1,0.9C367.5,315.9,365.9,315.5,364.6,314.8z"/>
		<path d="M392.3,301.5h-6.2v14.2h-3.1v-14.2h-6.2v-2.7h15.4L392.3,301.5L392.3,301.5z"/>
		<path d="M408.8,299.8c1.3,0.7,2.3,1.7,3,3c0.7,1.3,1.1,2.8,1.1,4.5s-0.4,3.2-1.1,4.5c-0.7,1.3-1.7,2.3-3,3s-2.8,1.1-4.4,1.1
			c-1.2,0-2.3-0.2-3.3-0.7c-1-0.5-1.9-1.1-2.6-2v8.7h-3.1v-23h2.9v2.7c0.7-0.9,1.5-1.6,2.6-2.1s2.2-0.7,3.4-0.7
			C406,298.7,407.5,299.1,408.8,299.8z M407,312.5c0.9-0.5,1.5-1.2,2-2.1c0.5-0.9,0.7-1.9,0.7-3.1c0-1.2-0.3-2.2-0.7-3.1
			c-0.5-0.9-1.2-1.6-2-2.1c-0.9-0.5-1.8-0.7-2.9-0.7c-1.1,0-2,0.3-2.9,0.7c-0.9,0.5-1.5,1.2-2,2.1c-0.5,0.9-0.7,1.9-0.7,3.1
			c0,1.2,0.2,2.2,0.7,3.1c0.5,0.9,1.2,1.6,2,2.1c0.9,0.5,1.8,0.7,2.9,0.7C405.2,313.2,406.2,313,407,312.5z"/>
		<path d="M420,314.8c-1.3-0.7-2.4-1.8-3.1-3.1c-0.8-1.3-1.1-2.8-1.1-4.4c0-1.7,0.4-3.1,1.1-4.4c0.8-1.3,1.8-2.3,3.1-3.1
			c1.3-0.7,2.8-1.1,4.5-1.1s3.2,0.4,4.5,1.1c1.3,0.7,2.4,1.7,3.1,3.1c0.8,1.3,1.1,2.8,1.1,4.4c0,1.7-0.4,3.1-1.1,4.4
			c-0.8,1.3-1.8,2.3-3.1,3.1c-1.3,0.7-2.8,1.1-4.5,1.1S421.3,315.5,420,314.8z M427.4,312.5c0.9-0.5,1.5-1.2,2-2.1
			c0.5-0.9,0.7-1.9,0.7-3.1c0-1.2-0.2-2.2-0.7-3.1s-1.2-1.6-2-2.1s-1.8-0.7-2.9-0.7s-2.1,0.2-2.9,0.7c-0.9,0.5-1.5,1.2-2,2.1
			c-0.5,0.9-0.7,1.9-0.7,3.1c0,1.2,0.2,2.2,0.7,3.1c0.5,0.9,1.2,1.6,2,2.1c0.9,0.5,1.8,0.7,2.9,0.7
			C425.6,313.2,426.6,313,427.4,312.5z"/>
		<path d="M446.2,298.9h3.1v12.3l10.3-12.3h2.8v16.9h-3.1v-12.3L449,315.7h-2.8L446.2,298.9L446.2,298.9z"/>
		<path d="M491.3,298.9v16.9h-3.1v-14.2H481l-0.2,3.8c-0.1,2.3-0.3,4.2-0.6,5.7c-0.3,1.5-0.8,2.7-1.5,3.6c-0.7,0.9-1.6,1.4-2.8,1.4
			c-0.6,0-1.2-0.1-1.9-0.3l0.2-2.6c0.3,0.1,0.5,0.1,0.8,0.1c0.8,0,1.5-0.4,1.9-1.1c0.4-0.7,0.7-1.6,0.8-2.6s0.2-2.5,0.3-4.4l0.3-6.2
			L491.3,298.9L491.3,298.9z"/>
		<path d="M512.4,308.3h-13.7c0.2,1.5,0.8,2.7,2,3.6c1.1,0.9,2.5,1.4,4.1,1.4c2,0,3.6-0.7,4.9-2l1.7,2c-0.8,0.9-1.7,1.6-2.8,2
			c-1.1,0.5-2.4,0.7-3.8,0.7c-1.8,0-3.4-0.4-4.7-1.1s-2.4-1.8-3.2-3.1c-0.8-1.3-1.1-2.8-1.1-4.5c0-1.6,0.4-3.1,1.1-4.4
			c0.7-1.3,1.7-2.3,3-3.1c1.3-0.7,2.7-1.1,4.3-1.1c1.6,0,3,0.4,4.3,1.1c1.3,0.7,2.2,1.8,3,3.1c0.7,1.3,1.1,2.8,1.1,4.5
			C512.5,307.6,512.4,307.9,512.4,308.3z M500.5,302.6c-1,0.9-1.6,2.1-1.7,3.5h10.8c-0.2-1.4-0.7-2.6-1.7-3.5
			c-1-0.9-2.2-1.4-3.7-1.4S501.4,301.7,500.5,302.6z"/>
		<path d="M529.6,301.5h-9.3v14.2h-3.1v-16.9h12.4L529.6,301.5L529.6,301.5z"/>
		<path d="M539.3,308.6h-3.5v7.1h-3.1v-16.9h3.1v7.1h3.6l5.5-7.1h3.3l-6.4,8.1l6.8,8.7h-3.6L539.3,308.6z"/>
		<path d="M553.9,314.8c-1.3-0.7-2.4-1.8-3.1-3.1c-0.8-1.3-1.1-2.8-1.1-4.4c0-1.7,0.4-3.1,1.1-4.4c0.8-1.3,1.8-2.3,3.1-3.1
			c1.3-0.7,2.8-1.1,4.5-1.1s3.2,0.4,4.5,1.1c1.3,0.7,2.4,1.7,3.1,3.1c0.8,1.3,1.1,2.8,1.1,4.4c0,1.7-0.4,3.1-1.1,4.4
			c-0.8,1.3-1.8,2.3-3.1,3.1c-1.3,0.7-2.8,1.1-4.5,1.1C556.7,315.9,555.2,315.5,553.9,314.8z M561.3,312.5c0.9-0.5,1.5-1.2,2-2.1
			c0.5-0.9,0.7-1.9,0.7-3.1c0-1.2-0.2-2.2-0.7-3.1s-1.2-1.6-2-2.1s-1.8-0.7-2.9-0.7s-2.1,0.2-2.9,0.7c-0.9,0.5-1.5,1.2-2,2.1
			c-0.5,0.9-0.7,1.9-0.7,3.1c0,1.2,0.2,2.2,0.7,3.1c0.5,0.9,1.2,1.6,2,2.1c0.9,0.5,1.8,0.7,2.9,0.7
			C559.5,313.2,560.4,313,561.3,312.5z"/>
	</g>

	<g class="logo-draft">
		<rect x="79.3" y="159.1" width="78.3" height="156.6"/>
		<rect x="79.3" y="80.9" width="78.3" height="78.3"/>
		<rect x="157.6" y="159.1" width="78.3" height="156.6"/>
		<path d="M235.9,159.1h-78.3V80.9c6.7,0,13.4,2.5,18.5,7.6l52.2,52.2C233.3,145.8,235.9,152.5,235.9,159.1z"/>
		<path d="M373.6,80.9v65.2h-15V93.2h-29.4v52.9h-15V80.9H373.6z"/>
		<path d="M437.2,125.1h-37.9c0.7,3.1,2.3,5.6,4.8,7.4c2.5,1.8,5.7,2.7,9.5,2.7c2.6,0,4.9-0.4,6.9-1.2c2-0.8,3.9-2,5.6-3.7l7.7,8.4
			c-4.7,5.4-11.6,8.1-20.7,8.1c-5.7,0-10.7-1.1-15-3.3c-4.4-2.2-7.7-5.3-10.1-9.2c-2.4-3.9-3.5-8.4-3.5-13.3c0-4.9,1.2-9.3,3.5-13.3
			c2.3-3.9,5.5-7,9.6-9.2c4.1-2.2,8.6-3.3,13.7-3.3c4.9,0,9.4,1.1,13.3,3.2c4,2.1,7.1,5.1,9.4,9.1c2.3,3.9,3.4,8.5,3.4,13.7
			C437.5,121.4,437.4,122.7,437.2,125.1z M403.2,109c-2.2,1.9-3.6,4.4-4.1,7.6h24.7c-0.5-3.2-1.9-5.7-4.1-7.6s-5-2.8-8.2-2.8
			C408.2,106.2,405.4,107.1,403.2,109z"/>
		<path d="M490.9,98.4c3.8,2.1,6.8,5.2,9,9c2.2,3.9,3.3,8.4,3.3,13.6c0,5.2-1.1,9.7-3.3,13.6c-2.2,3.9-5.2,6.9-9,9
			c-3.8,2.1-8.1,3.2-12.7,3.2c-6.4,0-11.4-2-15.1-6.1v23.4h-14.5V96h13.9v5.8c3.6-4.3,8.9-6.5,15.7-6.5
			C482.8,95.2,487.1,96.3,490.9,98.4z M484.8,131.1c2.4-2.5,3.6-5.9,3.6-10.1s-1.2-7.6-3.6-10.1c-2.4-2.5-5.5-3.8-9.2-3.8
			s-6.8,1.3-9.2,3.8c-2.4,2.5-3.6,5.9-3.6,10.1c0,4.2,1.2,7.6,3.6,10.1c2.4,2.5,5.5,3.8,9.2,3.8S482.4,133.6,484.8,131.1z"/>
		<path d="M560.5,131.8c0,4.5-1.7,8-5.1,10.5c-3.4,2.5-8.5,3.7-15.3,3.7h-26.7V96h25.6c6.3,0,11.2,1.1,14.7,3.4
			c3.5,2.3,5.3,5.5,5.3,9.6c0,2.5-0.6,4.7-1.9,6.6c-1.3,1.9-3.1,3.4-5.5,4.4C557.5,121.9,560.5,125.9,560.5,131.8z M526.6,116.5h11
			c5.1,0,7.6-1.8,7.6-5.4c0-3.5-2.5-5.3-7.6-5.3h-11V116.5L526.6,116.5z M546.9,130.7c0-1.9-0.6-3.3-1.9-4.2
			c-1.2-0.9-3.2-1.4-5.9-1.4h-12.5v11.1h12.2C544.2,136.2,546.9,134.4,546.9,130.7z"/>
		<path d="M612.5,116.4c3.4,2.9,5,7,5,12.3c0,5.6-1.9,9.9-5.7,13c-3.8,3-9.2,4.6-16.1,4.6l-24.4-0.1V96h14.4v16h11.9
			C604.2,112,609.1,113.5,612.5,116.4z M600.8,134.1c1.5-1.2,2.2-3.1,2.2-5.6c0-2.4-0.7-4.2-2.2-5.3c-1.5-1.1-3.6-1.7-6.5-1.8
			l-8.7-0.1v14.5h8.7C597.2,135.9,599.3,135.3,600.8,134.1z M622.9,96h14.4v50.1h-14.4V96z"/>
		<path d="M651.3,96h14.4v29.8L690.2,96h13.3v50.1h-14.4v-29.8l-24.3,29.8h-13.4L651.3,96L651.3,96z M660,76.1h9.5
			c0.1,2.2,0.7,3.9,1.8,5.1c1.1,1.2,2.8,1.8,5.1,1.8s4-0.6,5.2-1.8c1.2-1.2,1.8-2.9,1.8-5.1h9.7c-0.1,9.6-5.6,14.4-16.6,14.4
			C665.5,90.5,660,85.7,660,76.1z"/>
		<path d="M373.6,172.2v65.2h-15v-52.9h-29.4v52.9h-15v-65.2H373.6z"/>
		<path d="M437.2,216.5h-37.9c0.7,3.1,2.3,5.6,4.8,7.4c2.5,1.8,5.7,2.7,9.5,2.7c2.6,0,4.9-0.4,6.9-1.2c2-0.8,3.9-2,5.6-3.7l7.7,8.4
			c-4.7,5.4-11.6,8.1-20.7,8.1c-5.7,0-10.7-1.1-15-3.3c-4.4-2.2-7.7-5.3-10.1-9.2c-2.4-3.9-3.5-8.4-3.5-13.3c0-4.9,1.2-9.3,3.5-13.3
			c2.3-3.9,5.5-7,9.6-9.2c4.1-2.2,8.6-3.3,13.7-3.3c4.9,0,9.4,1.1,13.3,3.2c4,2.1,7.1,5.1,9.4,9.1c2.3,3.9,3.4,8.5,3.4,13.7
			C437.5,212.7,437.4,214,437.2,216.5z M403.2,200.3c-2.2,1.9-3.6,4.4-4.1,7.6h24.7c-0.5-3.2-1.9-5.7-4.1-7.6
			c-2.2-1.9-5-2.8-8.2-2.8C408.2,197.6,405.4,198.5,403.2,200.3z"/>
		<path d="M493.7,187.3v50.1h-14.5v-18.6c-4.2,2.1-8.9,3.2-14,3.2c-6.8,0-11.9-1.5-15.3-4.6c-3.4-3.1-5.2-7.8-5.2-14.3v-15.7h14.5
			v14.8c0,3,0.8,5.3,2.4,6.6c1.6,1.4,3.9,2.1,6.9,2.1c3.8,0,7.4-0.8,10.7-2.4v-21.1L493.7,187.3L493.7,187.3z"/>
		<path d="M545.1,192.1c4.2,3.7,6.2,9.3,6.2,16.7v28.6h-13.6v-6.2c-2.7,4.7-7.8,7-15.3,7c-3.9,0-7.2-0.7-10-2
			c-2.8-1.3-5-3.1-6.5-5.4c-1.5-2.3-2.2-4.9-2.2-7.8c0-4.7,1.8-8.3,5.3-11c3.5-2.7,8.9-4,16.3-4h11.6c0-3.2-1-5.6-2.9-7.3
			c-1.9-1.7-4.8-2.6-8.7-2.6c-2.7,0-5.3,0.4-7.9,1.3c-2.6,0.8-4.8,2-6.6,3.4l-5.2-10.2c2.7-1.9,6-3.4,9.8-4.5
			c3.8-1.1,7.7-1.6,11.8-1.6C535,186.6,540.9,188.4,545.1,192.1z M532.7,226.7c1.9-1.1,3.3-2.8,4.1-5.1v-5.1h-10c-6,0-8.9,2-8.9,5.9
			c0,1.9,0.7,3.3,2.2,4.4c1.5,1.1,3.5,1.6,6,1.6C528.6,228.4,530.8,227.8,532.7,226.7z"/>
		<path d="M606.1,199.2h-17v38.2h-14.4v-38.2h-17v-11.9h48.4V199.2z"/>
		<path d="M613.8,187.3h14.4v19.6h21.8v-19.6h14.5v50.1h-14.5v-18.7h-21.8v18.7h-14.4V187.3z"/>
		<path d="M719.7,207.7c3.4,2.9,5,7,5,12.3c0,5.6-1.9,9.9-5.7,13c-3.8,3-9.2,4.6-16.1,4.6l-24.4-0.1v-50.1H693v16h11.9
			C711.4,203.4,716.4,204.9,719.7,207.7z M708.1,225.4c1.5-1.2,2.2-3.1,2.2-5.6c0-2.4-0.7-4.2-2.2-5.3c-1.5-1.1-3.6-1.7-6.5-1.8
			l-8.7-0.1v14.5h8.7C704.4,227.2,706.6,226.7,708.1,225.4z M730.1,187.3h14.4v50.1h-14.4V187.3z"/>
		<path d="M758.6,187.3H773v29.8l24.4-29.8h13.3v50.1h-14.4v-29.8L772,237.4h-13.4L758.6,187.3L758.6,187.3z M767.2,167.5h9.5
			c0.1,2.2,0.7,3.9,1.8,5.1c1.1,1.2,2.8,1.8,5.1,1.8s4-0.6,5.2-1.8c1.2-1.2,1.8-2.9,1.8-5.1h9.7c-0.1,9.6-5.6,14.4-16.6,14.4
			C772.8,181.9,767.3,177.1,767.2,167.5z"/>
		<path d="M333.3,263.6v22.3h-3.2v-9.9h-12.8v9.9h-3.2v-22.3h3.2v9.6h12.8v-9.6H333.3L333.3,263.6z"/>
		<path d="M351.1,270.5c1.2,1.1,1.9,2.8,1.9,5.1v10.2h-2.9v-2.2c-0.5,0.8-1.2,1.4-2.2,1.8c-0.9,0.4-2.1,0.6-3.4,0.6
			c-1.9,0-3.4-0.5-4.5-1.4c-1.1-0.9-1.7-2.1-1.7-3.6c0-1.5,0.5-2.7,1.6-3.6c1.1-0.9,2.8-1.4,5.2-1.4h4.8v-0.6c0-1.3-0.4-2.3-1.1-3
			c-0.8-0.7-1.9-1-3.4-1c-1,0-2,0.2-2.9,0.5c-1,0.3-1.8,0.8-2.4,1.3l-1.3-2.3c0.9-0.7,1.9-1.2,3.1-1.6c1.2-0.4,2.5-0.6,3.8-0.6
			C348.1,268.8,349.9,269.4,351.1,270.5z M348.1,282.9c0.8-0.5,1.5-1.3,1.8-2.2v-2.4h-4.7c-2.6,0-3.9,0.9-3.9,2.6c0,0.8,0.3,1.5,1,2
			s1.6,0.7,2.7,0.7C346.2,283.7,347.2,283.4,348.1,282.9z"/>
		<path d="M374.1,269v16.9H371v-14.2h-9.5v14.2h-3.1V269H374.1z"/>
		<path d="M395.1,278.4h-13.7c0.2,1.5,0.8,2.7,2,3.6c1.1,0.9,2.5,1.4,4.1,1.4c2,0,3.6-0.7,4.9-2l1.7,2c-0.8,0.9-1.7,1.6-2.8,2
			c-1.1,0.5-2.4,0.7-3.8,0.7c-1.8,0-3.4-0.4-4.7-1.1c-1.4-0.7-2.4-1.8-3.2-3.1c-0.8-1.3-1.1-2.8-1.1-4.5c0-1.6,0.4-3.1,1.1-4.4
			c0.7-1.3,1.7-2.3,3-3.1c1.3-0.7,2.7-1.1,4.3-1.1c1.6,0,3,0.4,4.3,1.1c1.3,0.7,2.2,1.8,3,3.1c0.7,1.3,1.1,2.8,1.1,4.5
			C395.2,277.7,395.2,278,395.1,278.4z M383.2,272.7c-1,0.9-1.6,2.1-1.7,3.5h10.8c-0.2-1.4-0.7-2.6-1.7-3.5c-1-0.9-2.2-1.4-3.7-1.4
			C385.4,271.4,384.2,271.8,383.2,272.7z"/>
		<path d="M413.4,269v16.9h-3.1V279c-1.8,0.8-3.6,1.3-5.4,1.3c-2.1,0-3.7-0.5-4.9-1.5c-1.1-1-1.7-2.4-1.7-4.4V269h3.1v5.3
			c0,1.2,0.4,2,1.1,2.6c0.7,0.6,1.8,0.9,3.1,0.9c1.5,0,3.1-0.4,4.8-1.1V269L413.4,269L413.4,269z"/>
		<path d="M430.7,270.5c1.2,1.1,1.9,2.8,1.9,5.1v10.2h-2.9v-2.2c-0.5,0.8-1.2,1.4-2.2,1.8c-0.9,0.4-2.1,0.6-3.4,0.6
			c-1.9,0-3.4-0.5-4.5-1.4c-1.1-0.9-1.7-2.1-1.7-3.6c0-1.5,0.5-2.7,1.6-3.6c1.1-0.9,2.8-1.4,5.2-1.4h4.8v-0.6c0-1.3-0.4-2.3-1.1-3
			c-0.8-0.7-1.9-1-3.4-1c-1,0-2,0.2-2.9,0.5c-1,0.3-1.8,0.8-2.4,1.3l-1.3-2.3c0.9-0.7,1.9-1.2,3.1-1.6c1.2-0.4,2.5-0.6,3.8-0.6
			C427.6,268.8,429.4,269.4,430.7,270.5z M427.6,282.9c0.8-0.5,1.5-1.3,1.8-2.2v-2.4h-4.7c-2.6,0-3.9,0.9-3.9,2.6c0,0.8,0.3,1.5,1,2
			c0.7,0.5,1.6,0.7,2.7,0.7C425.8,283.7,426.8,283.4,427.6,282.9z"/>
		<path d="M450.6,271.6h-6.2v14.2h-3.1v-14.2h-6.2V269h15.4L450.6,271.6L450.6,271.6z"/>
		<path d="M465.1,270.5c1.2,1.1,1.9,2.8,1.9,5.1v10.2H464v-2.2c-0.5,0.8-1.2,1.4-2.2,1.8c-0.9,0.4-2.1,0.6-3.4,0.6
			c-1.9,0-3.4-0.5-4.5-1.4c-1.1-0.9-1.7-2.1-1.7-3.6c0-1.5,0.5-2.7,1.6-3.6c1.1-0.9,2.8-1.4,5.2-1.4h4.8v-0.6c0-1.3-0.4-2.3-1.1-3
			c-0.8-0.7-1.9-1-3.4-1c-1,0-2,0.2-2.9,0.5c-1,0.3-1.8,0.8-2.4,1.3l-1.3-2.3c0.9-0.7,1.9-1.2,3.1-1.6c1.2-0.4,2.5-0.6,3.8-0.6
			C462,268.8,463.8,269.4,465.1,270.5z M462,282.9c0.8-0.5,1.5-1.3,1.8-2.2v-2.4h-4.7c-2.6,0-3.9,0.9-3.9,2.6c0,0.8,0.3,1.5,1,2
			s1.6,0.7,2.7,0.7C460.2,283.7,461.2,283.4,462,282.9z"/>
		<path d="M487.6,278.4h-13.7c0.2,1.5,0.8,2.7,2,3.6c1.1,0.9,2.5,1.4,4.1,1.4c2,0,3.6-0.7,4.9-2l1.7,2c-0.8,0.9-1.7,1.6-2.8,2
			c-1.1,0.5-2.4,0.7-3.8,0.7c-1.8,0-3.4-0.4-4.7-1.1c-1.4-0.7-2.4-1.8-3.2-3.1c-0.8-1.3-1.1-2.8-1.1-4.5c0-1.6,0.4-3.1,1.1-4.4
			c0.7-1.3,1.7-2.3,3-3.1c1.3-0.7,2.7-1.1,4.3-1.1c1.6,0,3,0.4,4.3,1.1c1.3,0.7,2.2,1.8,3,3.1c0.7,1.3,1.1,2.8,1.1,4.5
			C487.7,277.7,487.6,278,487.6,278.4z M475.7,272.7c-1,0.9-1.6,2.1-1.7,3.5h10.8c-0.2-1.4-0.7-2.6-1.7-3.5c-1-0.9-2.2-1.4-3.7-1.4
			C477.9,271.4,476.6,271.8,475.7,272.7z"/>
		<path d="M511.8,269v16.9h-2.8v-12.3l-6.3,10.4h-1.3l-6.2-10.4v12.3h-2.8V269h3.1l6.6,11.4L509,269H511.8z"/>
		<path d="M327.9,300.5c1.2,0.7,2.2,1.7,2.9,2.9c0.7,1.2,1,2.7,1,4.2c0,1.6-0.4,3.1-1.1,4.3s-1.8,2.2-3.1,2.9c-1.3,0.7-2.8,1-4.5,1
			c-2.9,0-5.1-1-6.6-2.9s-2.3-4.7-2.3-8.3c0-3.5,0.7-6.2,2.1-8.1c1.4-2,3.6-3.3,6.5-3.9l7.7-1.7l0.4,2.8l-7.1,1.5
			c-2.2,0.5-3.8,1.3-4.9,2.5c-1.1,1.2-1.7,2.8-1.8,5c0.7-1.1,1.7-1.9,2.8-2.5c1.1-0.6,2.4-0.9,3.8-0.9
			C325.3,299.4,326.7,299.8,327.9,300.5z M326,312.7c0.8-0.5,1.5-1.2,2-2s0.7-1.8,0.7-2.9c0-1.7-0.5-3-1.5-4c-1-1-2.4-1.5-4-1.5
			c-1.7,0-3,0.5-4,1.5c-1,1-1.5,2.4-1.5,4c0,1.1,0.2,2.1,0.7,2.9c0.5,0.9,1.1,1.5,2,2c0.8,0.5,1.8,0.7,2.9,0.7
			C324.2,313.4,325.2,313.2,326,312.7z"/>
		<path d="M348.6,306.1c1.1,1,1.7,2.3,1.7,4c0,1.8-0.6,3.2-1.8,4.2c-1.2,1-3,1.5-5.2,1.4l-7.1,0v-16.9h3.1v5.7l4.5,0
			C345.9,304.6,347.5,305.1,348.6,306.1z M346.2,312.6c0.7-0.6,1.1-1.4,1.1-2.5c0-1.1-0.3-1.9-1-2.4s-1.7-0.8-3.1-0.8l-3.8-0.1v6.6
			l3.8,0C344.4,313.5,345.5,313.2,346.2,312.6z M352.8,298.9h3.1v16.9h-3.1V298.9z"/>
		<path d="M364.6,314.8c-1.3-0.7-2.4-1.8-3.2-3.1c-0.8-1.3-1.1-2.8-1.1-4.4c0-1.7,0.4-3.1,1.1-4.4c0.8-1.3,1.8-2.3,3.2-3.1
			c1.3-0.7,2.9-1.1,4.6-1.1c1.5,0,2.9,0.3,4.1,0.9c1.2,0.6,2.1,1.5,2.8,2.7l-2.3,1.5c-0.5-0.8-1.2-1.4-2-1.8
			c-0.8-0.4-1.7-0.6-2.6-0.6c-1.1,0-2.1,0.2-3,0.7s-1.6,1.2-2.1,2.1c-0.5,0.9-0.7,1.9-0.7,3.1c0,1.2,0.2,2.2,0.7,3.1
			c0.5,0.9,1.2,1.6,2.1,2.1s1.9,0.7,3,0.7c1,0,1.8-0.2,2.6-0.6c0.8-0.4,1.4-1,2-1.8l2.3,1.5c-0.7,1.2-1.6,2.1-2.8,2.7
			c-1.2,0.6-2.6,0.9-4.1,0.9C367.5,315.9,365.9,315.5,364.6,314.8z"/>
		<path d="M392.3,301.5h-6.2v14.2h-3.1v-14.2h-6.2v-2.7h15.4L392.3,301.5L392.3,301.5z"/>
		<path d="M408.8,299.8c1.3,0.7,2.3,1.7,3,3c0.7,1.3,1.1,2.8,1.1,4.5s-0.4,3.2-1.1,4.5c-0.7,1.3-1.7,2.3-3,3s-2.8,1.1-4.4,1.1
			c-1.2,0-2.3-0.2-3.3-0.7c-1-0.5-1.9-1.1-2.6-2v8.7h-3.1v-23h2.9v2.7c0.7-0.9,1.5-1.6,2.6-2.1s2.2-0.7,3.4-0.7
			C406,298.7,407.5,299.1,408.8,299.8z M407,312.5c0.9-0.5,1.5-1.2,2-2.1c0.5-0.9,0.7-1.9,0.7-3.1c0-1.2-0.3-2.2-0.7-3.1
			c-0.5-0.9-1.2-1.6-2-2.1c-0.9-0.5-1.8-0.7-2.9-0.7c-1.1,0-2,0.3-2.9,0.7c-0.9,0.5-1.5,1.2-2,2.1c-0.5,0.9-0.7,1.9-0.7,3.1
			c0,1.2,0.2,2.2,0.7,3.1c0.5,0.9,1.2,1.6,2,2.1c0.9,0.5,1.8,0.7,2.9,0.7C405.2,313.2,406.2,313,407,312.5z"/>
		<path d="M420,314.8c-1.3-0.7-2.4-1.8-3.1-3.1c-0.8-1.3-1.1-2.8-1.1-4.4c0-1.7,0.4-3.1,1.1-4.4c0.8-1.3,1.8-2.3,3.1-3.1
			c1.3-0.7,2.8-1.1,4.5-1.1s3.2,0.4,4.5,1.1c1.3,0.7,2.4,1.7,3.1,3.1c0.8,1.3,1.1,2.8,1.1,4.4c0,1.7-0.4,3.1-1.1,4.4
			c-0.8,1.3-1.8,2.3-3.1,3.1c-1.3,0.7-2.8,1.1-4.5,1.1S421.3,315.5,420,314.8z M427.4,312.5c0.9-0.5,1.5-1.2,2-2.1
			c0.5-0.9,0.7-1.9,0.7-3.1c0-1.2-0.2-2.2-0.7-3.1s-1.2-1.6-2-2.1s-1.8-0.7-2.9-0.7s-2.1,0.2-2.9,0.7c-0.9,0.5-1.5,1.2-2,2.1
			c-0.5,0.9-0.7,1.9-0.7,3.1c0,1.2,0.2,2.2,0.7,3.1c0.5,0.9,1.2,1.6,2,2.1c0.9,0.5,1.8,0.7,2.9,0.7
			C425.6,313.2,426.6,313,427.4,312.5z"/>
		<path d="M446.2,298.9h3.1v12.3l10.3-12.3h2.8v16.9h-3.1v-12.3L449,315.7h-2.8L446.2,298.9L446.2,298.9z"/>
		<path d="M491.3,298.9v16.9h-3.1v-14.2H481l-0.2,3.8c-0.1,2.3-0.3,4.2-0.6,5.7c-0.3,1.5-0.8,2.7-1.5,3.6c-0.7,0.9-1.6,1.4-2.8,1.4
			c-0.6,0-1.2-0.1-1.9-0.3l0.2-2.6c0.3,0.1,0.5,0.1,0.8,0.1c0.8,0,1.5-0.4,1.9-1.1c0.4-0.7,0.7-1.6,0.8-2.6s0.2-2.5,0.3-4.4l0.3-6.2
			L491.3,298.9L491.3,298.9z"/>
		<path d="M512.4,308.3h-13.7c0.2,1.5,0.8,2.7,2,3.6c1.1,0.9,2.5,1.4,4.1,1.4c2,0,3.6-0.7,4.9-2l1.7,2c-0.8,0.9-1.7,1.6-2.8,2
			c-1.1,0.5-2.4,0.7-3.8,0.7c-1.8,0-3.4-0.4-4.7-1.1s-2.4-1.8-3.2-3.1c-0.8-1.3-1.1-2.8-1.1-4.5c0-1.6,0.4-3.1,1.1-4.4
			c0.7-1.3,1.7-2.3,3-3.1c1.3-0.7,2.7-1.1,4.3-1.1c1.6,0,3,0.4,4.3,1.1c1.3,0.7,2.2,1.8,3,3.1c0.7,1.3,1.1,2.8,1.1,4.5
			C512.5,307.6,512.4,307.9,512.4,308.3z M500.5,302.6c-1,0.9-1.6,2.1-1.7,3.5h10.8c-0.2-1.4-0.7-2.6-1.7-3.5
			c-1-0.9-2.2-1.4-3.7-1.4S501.4,301.7,500.5,302.6z"/>
		<path d="M529.6,301.5h-9.3v14.2h-3.1v-16.9h12.4L529.6,301.5L529.6,301.5z"/>
		<path d="M539.3,308.6h-3.5v7.1h-3.1v-16.9h3.1v7.1h3.6l5.5-7.1h3.3l-6.4,8.1l6.8,8.7h-3.6L539.3,308.6z"/>
		<path d="M553.9,314.8c-1.3-0.7-2.4-1.8-3.1-3.1c-0.8-1.3-1.1-2.8-1.1-4.4c0-1.7,0.4-3.1,1.1-4.4c0.8-1.3,1.8-2.3,3.1-3.1
			c1.3-0.7,2.8-1.1,4.5-1.1s3.2,0.4,4.5,1.1c1.3,0.7,2.4,1.7,3.1,3.1c0.8,1.3,1.1,2.8,1.1,4.4c0,1.7-0.4,3.1-1.1,4.4
			c-0.8,1.3-1.8,2.3-3.1,3.1c-1.3,0.7-2.8,1.1-4.5,1.1C556.7,315.9,555.2,315.5,553.9,314.8z M561.3,312.5c0.9-0.5,1.5-1.2,2-2.1
			c0.5-0.9,0.7-1.9,0.7-3.1c0-1.2-0.2-2.2-0.7-3.1s-1.2-1.6-2-2.1s-1.8-0.7-2.9-0.7s-2.1,0.2-2.9,0.7c-0.9,0.5-1.5,1.2-2,2.1
			c-0.5,0.9-0.7,1.9-0.7,3.1c0,1.2,0.2,2.2,0.7,3.1c0.5,0.9,1.2,1.6,2,2.1c0.9,0.5,1.8,0.7,2.9,0.7
			C559.5,313.2,560.4,313,561.3,312.5z"/>
	</g>
</g>
</svg>
