<?xml version="1.0" encoding="utf-8"?>
<svg xmlns="http://www.w3.org/2000/svg" viewBox="0 0 1514 396.8">
<style type="text/css">
	@import url("../../../../styles/logos-draft.css");
	.st0{fill:#3C8EFF;}
	.st1{fill:#FFB93E;}
	.st2{fill:#E1005A;}
</style>

<defs>
  <pattern id="d" width="6" height="6" patternUnits="userSpaceOnUse" patternTransform="rotate(45 50 50)">
    <line class="h" x1="0" y1="0" x2="0" y2="10"></line>
  </pattern>
</defs>

<g class="main w">
	<rect class="dl" x="1" y="2.1" width="1512" height="392.5"/>
	<rect class="bg" x="1" y="2.1" width="1512" height="392.5"/>

	<g class="mnl">
		<line x1="1" y1="159.1" x2="236.5" y2="159.1"/>
		<line x1="1" y1="185.3" x2="236.5" y2="185.3"/>
		<line x1="1" y1="106.8" x2="236.5" y2="106.8"/>
		<line x1="1" y1="237.6" x2="1513" y2="237.6"/>
		<line x1="1" y1="133" x2="1513" y2="133"/>
		<line x1="236.5" y1="119.9" x2="1513" y2="119.9"/>
		<line x1="236.5" y1="198.6" x2="1513" y2="198.6"/>
		<line x1="236.5" y1="276.9" x2="1513" y2="276.9"/>
		<line x1="158" y1="2.1" x2="158" y2="394.6"/>
		<circle cx="158" cy="106.8" r="26.2"/>
		<circle cx="210.3" cy="159.1" r="26.2"/>
	</g>

	<g class="mjl">
		<line x1="1" y1="80.6" x2="1513" y2="80.6"/>
		<line x1="1" y1="316.1" x2="1513" y2="316.1"/>
		<line x1="236.5" y1="2.1" x2="236.5" y2="394.6"/>
		<line x1="315" y1="2.1" x2="315" y2="394.6"/>
		<line x1="79.5" y1="2.1" x2="79.5" y2="394.6"/>
		<line x1="1434.5" y1="2.1" x2="1434.5" y2="394.6"/>
	</g>

	<g class="logo">
		<rect class="st0" x="79.5" y="159.1" width="78.5" height="157"/>
		<rect class="st1" x="79.5" y="80.6" width="78.5" height="78.5"/>
		<rect class="st1" x="158" y="159.1" width="78.5" height="157"/>
		<path class="st2" d="M236.5,159.1H158V80.6c6.7,0,13.4,2.6,18.5,7.7l52.3,52.3C234,145.7,236.5,152.4,236.5,159.1z"/>
		<path d="M386.8,119.9v78.7h-18.1v-63.9h-35.5v63.9H315v-78.7H386.8z"/>
		<path d="M463.5,173.3h-45.8c0.8,3.8,2.8,6.7,5.9,8.9c3.1,2.2,6.9,3.3,11.5,3.3c3.2,0,5.9-0.5,8.4-1.4c2.4-0.9,4.7-2.4,6.8-4.4
			l9.3,10.1c-5.7,6.5-14,9.8-25,9.8c-6.8,0-12.9-1.3-18.1-4c-5.3-2.7-9.3-6.4-12.1-11.1c-2.9-4.7-4.3-10.1-4.3-16.1
			c0-5.9,1.4-11.3,4.2-16c2.8-4.8,6.7-8.5,11.6-11.1c4.9-2.7,10.4-4,16.5-4c5.9,0,11.3,1.3,16.1,3.8c4.8,2.6,8.6,6.2,11.3,11
			c2.7,4.8,4.1,10.3,4.1,16.6C463.8,168.8,463.7,170.4,463.5,173.3z M422.4,153.9c-2.7,2.3-4.4,5.3-5,9.2h29.8
			c-0.6-3.8-2.3-6.9-5-9.2c-2.7-2.3-6-3.4-9.9-3.4C428.5,150.5,425.1,151.6,422.4,153.9z"/>
		<path d="M528.3,141.1c4.6,2.6,8.2,6.2,10.9,10.9c2.6,4.7,3.9,10.1,3.9,16.4c0,6.2-1.3,11.7-3.9,16.4c-2.6,4.7-6.2,8.3-10.9,10.9
			c-4.6,2.6-9.7,3.9-15.4,3.9c-7.7,0-13.8-2.4-18.2-7.3v28.2h-17.5v-82.3H494v7c4.3-5.2,10.7-7.9,19-7.9
			C518.6,137.2,523.7,138.5,528.3,141.1z M521,180.6c2.9-3,4.3-7.1,4.3-12.2c0-5.1-1.4-9.2-4.3-12.2c-2.9-3-6.6-4.6-11.1-4.6
			c-4.5,0-8.2,1.5-11.1,4.6c-2.9,3-4.3,7.1-4.3,12.2s1.4,9.2,4.3,12.2c2.9,3,6.6,4.6,11.1,4.6C514.4,185.1,518.1,183.6,521,180.6z"
			/>
		<path d="M612.3,181.4c0,5.5-2.1,9.7-6.2,12.7c-4.1,3-10.3,4.5-18.4,4.5h-32.3v-60.5h30.9c7.6,0,13.5,1.4,17.8,4.1
			c4.3,2.7,6.4,6.6,6.4,11.5c0,3-0.8,5.6-2.3,7.9c-1.5,2.3-3.7,4.1-6.6,5.3C608.7,169.4,612.3,174.2,612.3,181.4z M571.5,163h13.3
			c6.1,0,9.2-2.2,9.2-6.5c0-4.3-3.1-6.4-9.2-6.4h-13.3V163z M595.9,180.1c0-2.3-0.8-4-2.3-5.1c-1.5-1.1-3.9-1.6-7.1-1.6h-15.1v13.4
			h14.7C592.7,186.7,595.9,184.5,595.9,180.1z"/>
		<path d="M675.1,162.7c4.1,3.5,6.1,8.4,6.1,14.8c0,6.7-2.3,12-6.9,15.6c-4.6,3.7-11.1,5.5-19.5,5.5l-29.5-0.1v-60.5h17.4v19.3h14.4
			C665.1,157.5,671,159.3,675.1,162.7z M661,184.1c1.8-1.5,2.7-3.7,2.7-6.7c0-2.9-0.9-5.1-2.6-6.4c-1.8-1.4-4.4-2.1-7.8-2.1
			l-10.5-0.1v17.5h10.5C656.6,186.3,659.2,185.6,661,184.1z M687.7,138.1h17.4v60.5h-17.4V138.1z"/>
		<path d="M722,138.1h17.4v36l29.5-36H785v60.5h-17.4v-36l-29.4,36H722V138.1z M732.4,114.2h11.5c0.1,2.6,0.8,4.7,2.2,6.1
			c1.4,1.5,3.4,2.2,6.1,2.2c2.7,0,4.8-0.7,6.2-2.2s2.2-3.5,2.2-6.1h11.7c-0.1,11.6-6.7,17.4-20,17.4
			C739.2,131.6,732.5,125.8,732.4,114.2z"/>
		<path d="M906.8,119.9v78.7h-18.1v-63.9h-35.5v63.9H835v-78.7H906.8z"/>
		<path d="M983.5,173.3h-45.8c0.8,3.8,2.8,6.7,5.9,8.9c3.1,2.2,6.9,3.3,11.5,3.3c3.2,0,5.9-0.5,8.4-1.4c2.4-0.9,4.7-2.4,6.8-4.4
			l9.3,10.1c-5.7,6.5-14,9.8-25,9.8c-6.8,0-12.9-1.3-18.1-4c-5.3-2.7-9.3-6.4-12.1-11.1c-2.9-4.7-4.3-10.1-4.3-16.1
			c0-5.9,1.4-11.3,4.2-16c2.8-4.8,6.7-8.5,11.6-11.1c4.9-2.7,10.4-4,16.5-4c5.9,0,11.3,1.3,16.1,3.8c4.8,2.6,8.6,6.2,11.3,11
			c2.7,4.8,4.1,10.3,4.1,16.6C983.9,168.8,983.7,170.4,983.5,173.3z M942.5,153.9c-2.7,2.3-4.4,5.3-5,9.2h29.8
			c-0.6-3.8-2.3-6.9-5-9.2c-2.7-2.3-6-3.4-9.9-3.4C948.5,150.5,945.2,151.6,942.5,153.9z"/>
		<path d="M1051.8,138.1v60.5h-17.5v-22.5c-5.1,2.6-10.7,3.8-16.9,3.8c-8.2,0-14.3-1.9-18.5-5.6c-4.2-3.7-6.2-9.5-6.2-17.3v-19h17.5
			V156c0,3.7,1,6.3,2.9,8c1.9,1.7,4.7,2.5,8.3,2.5c4.6,0,8.9-1,12.9-2.9v-25.4L1051.8,138.1L1051.8,138.1z"/>
		<path d="M1113.8,143.9c5,4.5,7.5,11.2,7.5,20.2v34.5h-16.4v-7.5c-3.3,5.6-9.4,8.4-18.4,8.4c-4.6,0-8.7-0.8-12.1-2.4
			c-3.4-1.6-6-3.7-7.8-6.5s-2.7-5.9-2.7-9.4c0-5.6,2.1-10,6.4-13.3c4.2-3.2,10.8-4.8,19.6-4.8h13.9c0-3.8-1.2-6.8-3.5-8.8
			c-2.3-2.1-5.8-3.1-10.5-3.1c-3.2,0-6.4,0.5-9.5,1.5c-3.1,1-5.8,2.4-7.9,4.1l-6.3-12.3c3.3-2.3,7.3-4.1,11.9-5.4
			c4.6-1.3,9.4-1.9,14.2-1.9C1101.6,137.2,1108.8,139.4,1113.8,143.9z M1098.8,185.6c2.3-1.4,4-3.4,5-6.1v-6.2h-12
			c-7.2,0-10.8,2.4-10.8,7.1c0,2.3,0.9,4,2.6,5.3c1.8,1.3,4.2,2,7.3,2C1093.8,187.7,1096.5,187,1098.8,185.6z"/>
		<path d="M1187.5,152.5H1167v46.1h-17.4v-46.1h-20.5v-14.4h58.4L1187.5,152.5L1187.5,152.5z"/>
		<path d="M1196.8,138.1h17.4v23.6h26.3v-23.6h17.5v60.5h-17.5V176h-26.3v22.6h-17.4V138.1z"/>
		<path d="M1324.6,162.7c4.1,3.5,6.1,8.4,6.1,14.8c0,6.7-2.3,12-6.9,15.6c-4.6,3.7-11.1,5.5-19.5,5.5l-29.5-0.1v-60.5h17.4v19.3
			h14.4C1314.6,157.5,1320.5,159.3,1324.6,162.7z M1310.5,184.1c1.8-1.5,2.7-3.7,2.7-6.7c0-2.9-0.9-5.1-2.6-6.4
			c-1.8-1.4-4.4-2.1-7.8-2.1l-10.5-0.1v17.5h10.5C1306.1,186.3,1308.7,185.6,1310.5,184.1z M1337.2,138.1h17.4v60.5h-17.4V138.1z"/>
		<path d="M1371.5,138.1h17.4v36l29.5-36h16.1v60.5H1417v-36l-29.4,36h-16.2V138.1z M1382,114.2h11.5c0.1,2.6,0.8,4.7,2.2,6.1
			s3.4,2.2,6.1,2.2c2.7,0,4.8-0.7,6.2-2.2c1.5-1.5,2.2-3.5,2.2-6.1h11.7c-0.1,11.6-6.8,17.4-20,17.4
			C1388.7,131.6,1382,125.8,1382,114.2z"/>
		<path d="M348.5,237.9v39H343v-17.4h-22.4v17.4H315v-39h5.6v16.8H343v-16.8H348.5z"/>
		<path d="M379.7,250.1c2.2,2,3.3,5,3.3,9v17.8h-5.1V273c-0.9,1.4-2.2,2.4-3.8,3.1c-1.7,0.7-3.6,1.1-5.9,1.1c-3.3,0-5.9-0.8-7.9-2.4
			s-3-3.7-3-6.3c0-2.6,0.9-4.7,2.8-6.3c1.9-1.6,4.9-2.4,9-2.4h8.5v-1.1c0-2.3-0.7-4.1-2-5.3s-3.3-1.8-5.9-1.8
			c-1.7,0-3.5,0.3-5.1,0.9c-1.7,0.6-3.1,1.3-4.2,2.3l-2.2-4c1.5-1.2,3.3-2.2,5.5-2.8c2.1-0.6,4.4-1,6.7-1
			C374.4,247.1,377.5,248.1,379.7,250.1z M374.4,271.7c1.5-0.9,2.6-2.2,3.2-3.9v-4.1h-8.2c-4.5,0-6.8,1.5-6.8,4.6
			c0,1.5,0.6,2.7,1.7,3.5c1.2,0.9,2.7,1.3,4.8,1.3C371.1,273.1,372.9,272.6,374.4,271.7z"/>
		<path d="M419.9,247.4v29.5h-5.3v-24.8h-16.6v24.8h-5.3v-29.5H419.9z"/>
		<path d="M456.8,263.9h-23.9c0.3,2.6,1.5,4.7,3.4,6.3c1.9,1.6,4.4,2.4,7.3,2.4c3.5,0,6.4-1.2,8.5-3.6l3,3.5c-1.3,1.6-3,2.7-5,3.6
			c-2,0.8-4.2,1.2-6.7,1.2c-3.1,0-5.9-0.6-8.3-1.9c-2.4-1.3-4.3-3.1-5.6-5.4c-1.3-2.3-2-4.9-2-7.8c0-2.9,0.6-5.4,1.9-7.7
			c1.3-2.3,3-4.1,5.3-5.4s4.8-1.9,7.6-1.9s5.3,0.6,7.5,1.9c2.2,1.3,3.9,3.1,5.2,5.4c1.2,2.3,1.9,4.9,1.9,7.9
			C456.9,262.7,456.9,263.2,456.8,263.9z M435.9,253.9c-1.7,1.6-2.7,3.6-3,6.1h18.9c-0.3-2.5-1.3-4.5-3-6.1
			c-1.7-1.6-3.9-2.4-6.4-2.4C439.8,251.6,437.6,252.4,435.9,253.9z"/>
		<path d="M488.8,247.4v29.5h-5.3V265c-3.2,1.5-6.4,2.2-9.5,2.2c-3.7,0-6.5-0.9-8.5-2.6c-2-1.7-3-4.3-3-7.7v-9.6h5.3v9.2
			c0,2,0.6,3.6,1.9,4.6c1.3,1,3.1,1.6,5.4,1.6c2.6,0,5.4-0.6,8.4-1.9v-13.5L488.8,247.4L488.8,247.4z"/>
		<path d="M519,250.1c2.2,2,3.3,5,3.3,9v17.8h-5.1V273c-0.9,1.4-2.2,2.4-3.8,3.1c-1.7,0.7-3.6,1.1-5.9,1.1c-3.3,0-5.9-0.8-7.9-2.4
			c-2-1.6-3-3.7-3-6.3c0-2.6,0.9-4.7,2.8-6.3c1.9-1.6,4.9-2.4,9-2.4h8.5v-1.1c0-2.3-0.7-4.1-2-5.3s-3.3-1.8-5.9-1.8
			c-1.7,0-3.5,0.3-5.1,0.9s-3.1,1.3-4.2,2.3l-2.2-4c1.5-1.2,3.3-2.2,5.5-2.8c2.1-0.6,4.4-1,6.7-1C513.7,247.1,516.8,248.1,519,250.1
			z M513.7,271.7c1.5-0.9,2.6-2.2,3.2-3.9v-4.1h-8.2c-4.5,0-6.8,1.5-6.8,4.6c0,1.5,0.6,2.7,1.7,3.5c1.2,0.9,2.7,1.3,4.8,1.3
			C510.4,273.1,512.2,272.6,513.7,271.7z"/>
		<path d="M553.9,252.1h-10.8v24.8h-5.3v-24.8h-10.8v-4.7h26.9L553.9,252.1L553.9,252.1z"/>
		<path d="M579.2,250.1c2.2,2,3.3,5,3.3,9v17.8h-5.1V273c-0.9,1.4-2.2,2.4-3.8,3.1c-1.7,0.7-3.6,1.1-5.9,1.1c-3.3,0-5.9-0.8-7.9-2.4
			c-2-1.6-3-3.7-3-6.3c0-2.6,0.9-4.7,2.8-6.3c1.9-1.6,4.9-2.4,9-2.4h8.5v-1.1c0-2.3-0.7-4.1-2-5.3s-3.3-1.8-5.9-1.8
			c-1.7,0-3.5,0.3-5.1,0.9c-1.7,0.6-3.1,1.3-4.2,2.3l-2.2-4c1.5-1.2,3.3-2.2,5.5-2.8c2.1-0.6,4.4-1,6.7-1
			C574,247.1,577.1,248.1,579.2,250.1z M573.9,271.7c1.5-0.9,2.6-2.2,3.2-3.9v-4.1h-8.2c-4.5,0-6.8,1.5-6.8,4.6
			c0,1.5,0.6,2.7,1.7,3.5c1.2,0.9,2.7,1.3,4.8,1.3C570.7,273.1,572.4,272.6,573.9,271.7z"/>
		<path d="M618.7,263.9h-23.9c0.3,2.6,1.5,4.7,3.4,6.3c1.9,1.6,4.4,2.4,7.3,2.4c3.5,0,6.4-1.2,8.5-3.6l3,3.5c-1.3,1.6-3,2.7-5,3.6
			c-2,0.8-4.2,1.2-6.7,1.2c-3.1,0-5.9-0.6-8.3-1.9c-2.4-1.3-4.3-3.1-5.6-5.4c-1.3-2.3-2-4.9-2-7.8c0-2.9,0.6-5.4,1.9-7.7
			c1.3-2.3,3-4.1,5.3-5.4s4.8-1.9,7.6-1.9c2.8,0,5.3,0.6,7.5,1.9c2.2,1.3,3.9,3.1,5.2,5.4c1.2,2.3,1.9,4.9,1.9,7.9
			C618.8,262.7,618.8,263.2,618.7,263.9z M597.8,253.9c-1.7,1.6-2.7,3.6-3,6.1h18.9c-0.3-2.5-1.3-4.5-3-6.1
			c-1.7-1.6-3.9-2.4-6.4-2.4C601.7,251.6,599.5,252.4,597.8,253.9z"/>
		<path d="M661.1,247.4v29.5h-4.8v-21.5l-11,18.2h-2.3L632,255.3v21.6h-4.9v-29.5h5.5l11.6,19.9l11.9-19.9H661.1z"/>
		<path d="M708.9,250.2c2.2,1.2,3.8,2.9,5,5.1c1.2,2.2,1.8,4.6,1.8,7.4c0,2.9-0.6,5.4-1.9,7.6s-3.1,3.9-5.4,5.1
			c-2.3,1.2-5,1.8-7.9,1.8c-5,0-8.9-1.7-11.6-5.1c-2.7-3.4-4.1-8.3-4.1-14.5c0-6,1.2-10.8,3.7-14.2c2.5-3.4,6.3-5.7,11.4-6.8l13.5-3
			l0.8,4.9l-12.4,2.7c-3.9,0.9-6.7,2.3-8.6,4.3s-3,5-3.2,8.8c1.3-1.9,2.9-3.4,4.9-4.4c2-1,4.2-1.6,6.7-1.6
			C704.3,248.4,706.7,249,708.9,250.2z M705.6,271.6c1.5-0.9,2.6-2,3.4-3.5c0.8-1.5,1.2-3.2,1.2-5.1c0-2.9-0.9-5.3-2.7-7.1
			c-1.8-1.8-4.1-2.7-7-2.7c-2.9,0-5.2,0.9-7,2.7c-1.8,1.8-2.7,4.1-2.7,7.1c0,1.9,0.4,3.6,1.3,5.1s2,2.7,3.5,3.5
			c1.5,0.9,3.2,1.3,5,1.3C702.5,272.9,704.2,272.4,705.6,271.6z"/>
		<path d="M745.2,260c2,1.7,3,4,3,7.1c0,3.2-1.1,5.7-3.2,7.4c-2.1,1.7-5.2,2.6-9.2,2.5l-12.4-0.1v-29.5h5.3v10l8,0.1
			C740.4,257.4,743.2,258.3,745.2,260z M740.9,271.4c1.2-1,1.9-2.5,1.9-4.5c0-1.9-0.6-3.3-1.8-4.2c-1.2-0.9-3.1-1.4-5.5-1.4
			l-6.7-0.1v11.6l6.7,0.1C737.8,272.9,739.6,272.4,740.9,271.4z M752.5,247.4h5.3v29.5h-5.3V247.4z"/>
		<path d="M773.1,275.3c-2.4-1.3-4.2-3.1-5.5-5.4c-1.3-2.3-2-4.9-2-7.8s0.7-5.5,2-7.8c1.3-2.3,3.2-4.1,5.5-5.3c2.4-1.3,5-1.9,8-1.9
			c2.7,0,5.1,0.5,7.2,1.6c2.1,1.1,3.7,2.6,4.9,4.7l-4.1,2.6c-0.9-1.4-2.1-2.5-3.5-3.2c-1.4-0.7-2.9-1.1-4.6-1.1
			c-1.9,0-3.7,0.4-5.2,1.3c-1.5,0.9-2.7,2.1-3.6,3.6c-0.9,1.6-1.3,3.4-1.3,5.4c0,2.1,0.4,3.9,1.3,5.5c0.9,1.6,2.1,2.8,3.6,3.6
			c1.5,0.9,3.3,1.3,5.2,1.3c1.7,0,3.2-0.4,4.6-1.1c1.4-0.7,2.5-1.8,3.5-3.2l4.1,2.6c-1.2,2-2.8,3.6-4.9,4.7
			c-2.1,1.1-4.5,1.6-7.2,1.6C778.1,277.2,775.4,276.6,773.1,275.3z"/>
		<path d="M821.7,252.1h-10.8v24.8h-5.3v-24.8h-10.8v-4.7h26.9L821.7,252.1L821.7,252.1z"/>
		<path d="M850.4,249c2.3,1.3,4,3,5.3,5.3c1.3,2.3,1.9,4.9,1.9,7.8s-0.6,5.6-1.9,7.9c-1.3,2.3-3.1,4.1-5.3,5.3
			c-2.3,1.3-4.8,1.9-7.7,1.9c-2.1,0-4.1-0.4-5.8-1.2c-1.8-0.8-3.3-2-4.5-3.6v15.3h-5.3v-40.3h5.1v4.7c1.2-1.6,2.7-2.9,4.5-3.7
			c1.8-0.8,3.8-1.3,6-1.3C845.6,247.1,848.2,247.7,850.4,249z M847.4,271.2c1.5-0.9,2.7-2.1,3.6-3.7c0.9-1.6,1.3-3.4,1.3-5.4
			c0-2-0.4-3.8-1.3-5.4c-0.9-1.6-2.1-2.8-3.6-3.6c-1.5-0.9-3.2-1.3-5.1-1.3c-1.9,0-3.5,0.4-5,1.3c-1.5,0.9-2.7,2.1-3.6,3.6
			c-0.9,1.6-1.3,3.4-1.3,5.4c0,2,0.4,3.9,1.3,5.4c0.9,1.6,2,2.8,3.6,3.7c1.5,0.9,3.2,1.3,5.1,1.3
			C844.2,272.5,845.9,272.1,847.4,271.2z"/>
		<path d="M870.2,275.3c-2.3-1.3-4.2-3.1-5.5-5.4c-1.3-2.3-2-4.9-2-7.8s0.7-5.5,2-7.8c1.3-2.3,3.1-4.1,5.5-5.3
			c2.3-1.3,5-1.9,7.9-1.9c2.9,0,5.6,0.6,7.9,1.9c2.3,1.3,4.1,3.1,5.5,5.3c1.3,2.3,2,4.9,2,7.8s-0.7,5.5-2,7.8
			c-1.3,2.3-3.1,4.1-5.5,5.4c-2.3,1.3-4.9,1.9-7.9,1.9C875.1,277.2,872.5,276.6,870.2,275.3z M883.2,271.2c1.5-0.9,2.7-2.1,3.5-3.7
			c0.9-1.6,1.3-3.4,1.3-5.4c0-2-0.4-3.8-1.3-5.4c-0.9-1.6-2-2.8-3.5-3.6c-1.5-0.9-3.2-1.3-5.1-1.3c-1.9,0-3.6,0.4-5.1,1.3
			c-1.5,0.9-2.7,2.1-3.6,3.6c-0.9,1.6-1.3,3.4-1.3,5.4c0,2,0.4,3.9,1.3,5.4s2.1,2.8,3.6,3.7c1.5,0.9,3.2,1.3,5.1,1.3
			C880,272.5,881.7,272.1,883.2,271.2z"/>
		<path d="M916.1,247.4h5.3v21.5l18.1-21.5h4.8v29.5H939v-21.5l-18,21.5h-4.9V247.4z"/>
		<path d="M995,247.4v29.5h-5.3v-24.8H977l-0.3,6.6c-0.2,4-0.5,7.3-1.1,9.9c-0.5,2.7-1.4,4.8-2.6,6.4c-1.2,1.6-2.8,2.4-5,2.4
			c-1,0-2.1-0.2-3.3-0.5l0.3-4.5c0.5,0.1,0.9,0.2,1.3,0.2c1.5,0,2.6-0.6,3.3-1.9c0.7-1.3,1.2-2.8,1.4-4.6c0.2-1.8,0.4-4.3,0.6-7.6
			l0.5-10.9L995,247.4L995,247.4z"/>
		<path d="M1031.9,263.9H1008c0.3,2.6,1.5,4.7,3.4,6.3c1.9,1.6,4.4,2.4,7.3,2.4c3.5,0,6.4-1.2,8.5-3.6l3,3.5c-1.3,1.6-3,2.7-5,3.6
			c-2,0.8-4.2,1.2-6.7,1.2c-3.1,0-5.9-0.6-8.3-1.9c-2.4-1.3-4.3-3.1-5.6-5.4c-1.3-2.3-2-4.9-2-7.8c0-2.9,0.6-5.4,1.9-7.7
			c1.3-2.3,3-4.1,5.3-5.4s4.8-1.9,7.6-1.9s5.3,0.6,7.5,1.9c2.2,1.3,3.9,3.1,5.2,5.4c1.2,2.3,1.9,4.9,1.9,7.9
			C1032,262.7,1032,263.2,1031.9,263.9z M1011,253.9c-1.7,1.6-2.7,3.6-3,6.1h18.9c-0.3-2.5-1.3-4.5-3-6.1s-3.9-2.4-6.4-2.4
			C1014.9,251.6,1012.8,252.4,1011,253.9z"/>
		<path d="M1062.1,252.1h-16.4v24.8h-5.3v-29.5h21.7V252.1z"/>
		<path d="M1079,264.4h-6.1v12.5h-5.3v-29.5h5.3v12.5h6.2l9.6-12.5h5.7l-11.2,14.2l12,15.3h-6.3L1079,264.4z"/>
		<path d="M1104.5,275.3c-2.3-1.3-4.2-3.1-5.5-5.4c-1.3-2.3-2-4.9-2-7.8s0.7-5.5,2-7.8c1.3-2.3,3.1-4.1,5.5-5.3
			c2.3-1.3,5-1.9,7.9-1.9s5.6,0.6,7.9,1.9c2.3,1.3,4.1,3.1,5.5,5.3c1.3,2.3,2,4.9,2,7.8s-0.7,5.5-2,7.8c-1.3,2.3-3.1,4.1-5.5,5.4
			c-2.3,1.3-4.9,1.9-7.9,1.9C1109.5,277.2,1106.9,276.6,1104.5,275.3z M1117.5,271.2c1.5-0.9,2.7-2.1,3.5-3.7s1.3-3.4,1.3-5.4
			c0-2-0.4-3.8-1.3-5.4c-0.9-1.6-2-2.8-3.5-3.6c-1.5-0.9-3.2-1.3-5.1-1.3c-1.9,0-3.6,0.4-5.1,1.3c-1.5,0.9-2.7,2.1-3.6,3.6
			c-0.9,1.6-1.3,3.4-1.3,5.4c0,2,0.4,3.9,1.3,5.4s2.1,2.8,3.6,3.7c1.5,0.9,3.2,1.3,5.1,1.3S1116,272.1,1117.5,271.2z"/>
	</g>

	<g class="logo-draft">
		<rect x="79.5" y="159.1" width="78.5" height="157"/>
		<rect x="79.5" y="80.6" width="78.5" height="78.5"/>
		<rect x="158" y="159.1" width="78.5" height="157"/>
		<path d="M236.5,159.1H158V80.6c6.7,0,13.4,2.6,18.5,7.7l52.3,52.3C234,145.7,236.5,152.4,236.5,159.1z"/>
		<path d="M386.8,119.9v78.7h-18.1v-63.9h-35.5v63.9H315v-78.7H386.8z"/>
		<path d="M463.5,173.3h-45.8c0.8,3.8,2.8,6.7,5.9,8.9c3.1,2.2,6.9,3.3,11.5,3.3c3.2,0,5.9-0.5,8.4-1.4c2.4-0.9,4.7-2.4,6.8-4.4
			l9.3,10.1c-5.7,6.5-14,9.8-25,9.8c-6.8,0-12.9-1.3-18.1-4c-5.3-2.7-9.3-6.4-12.1-11.1c-2.9-4.7-4.3-10.1-4.3-16.1
			c0-5.9,1.4-11.3,4.2-16c2.8-4.8,6.7-8.5,11.6-11.1c4.9-2.7,10.4-4,16.5-4c5.9,0,11.3,1.3,16.1,3.8c4.8,2.6,8.6,6.2,11.3,11
			c2.7,4.8,4.1,10.3,4.1,16.6C463.8,168.8,463.7,170.4,463.5,173.3z M422.4,153.9c-2.7,2.3-4.4,5.3-5,9.2h29.8
			c-0.6-3.8-2.3-6.9-5-9.2c-2.7-2.3-6-3.4-9.9-3.4C428.5,150.5,425.1,151.6,422.4,153.9z"/>
		<path d="M528.3,141.1c4.6,2.6,8.2,6.2,10.9,10.9c2.6,4.7,3.9,10.1,3.9,16.4c0,6.2-1.3,11.7-3.9,16.4c-2.6,4.7-6.2,8.3-10.9,10.9
			c-4.6,2.6-9.7,3.9-15.4,3.9c-7.7,0-13.8-2.4-18.2-7.3v28.2h-17.5v-82.3H494v7c4.3-5.2,10.7-7.9,19-7.9
			C518.6,137.2,523.7,138.5,528.3,141.1z M521,180.6c2.9-3,4.3-7.1,4.3-12.2c0-5.1-1.4-9.2-4.3-12.2c-2.9-3-6.6-4.6-11.1-4.6
			c-4.5,0-8.2,1.5-11.1,4.6c-2.9,3-4.3,7.1-4.3,12.2s1.4,9.2,4.3,12.2c2.9,3,6.6,4.6,11.1,4.6C514.4,185.1,518.1,183.6,521,180.6z"
			/>
		<path d="M612.3,181.4c0,5.5-2.1,9.7-6.2,12.7c-4.1,3-10.3,4.5-18.4,4.5h-32.3v-60.5h30.9c7.6,0,13.5,1.4,17.8,4.1
			c4.3,2.7,6.4,6.6,6.4,11.5c0,3-0.8,5.6-2.3,7.9c-1.5,2.3-3.7,4.1-6.6,5.3C608.7,169.4,612.3,174.2,612.3,181.4z M571.5,163h13.3
			c6.1,0,9.2-2.2,9.2-6.5c0-4.3-3.1-6.4-9.2-6.4h-13.3V163z M595.9,180.1c0-2.3-0.8-4-2.3-5.1c-1.5-1.1-3.9-1.6-7.1-1.6h-15.1v13.4
			h14.7C592.7,186.7,595.9,184.5,595.9,180.1z"/>
		<path d="M675.1,162.7c4.1,3.5,6.1,8.4,6.1,14.8c0,6.7-2.3,12-6.9,15.6c-4.6,3.7-11.1,5.5-19.5,5.5l-29.5-0.1v-60.5h17.4v19.3h14.4
			C665.1,157.5,671,159.3,675.1,162.7z M661,184.1c1.8-1.5,2.7-3.7,2.7-6.7c0-2.9-0.9-5.1-2.6-6.4c-1.8-1.4-4.4-2.1-7.8-2.1
			l-10.5-0.1v17.5h10.5C656.6,186.3,659.2,185.6,661,184.1z M687.7,138.1h17.4v60.5h-17.4V138.1z"/>
		<path d="M722,138.1h17.4v36l29.5-36H785v60.5h-17.4v-36l-29.4,36H722V138.1z M732.4,114.2h11.5c0.1,2.6,0.8,4.7,2.2,6.1
			c1.4,1.5,3.4,2.2,6.1,2.2c2.7,0,4.8-0.7,6.2-2.2s2.2-3.5,2.2-6.1h11.7c-0.1,11.6-6.7,17.4-20,17.4
			C739.2,131.6,732.5,125.8,732.4,114.2z"/>
		<path d="M906.8,119.9v78.7h-18.1v-63.9h-35.5v63.9H835v-78.7H906.8z"/>
		<path d="M983.5,173.3h-45.8c0.8,3.8,2.8,6.7,5.9,8.9c3.1,2.2,6.9,3.3,11.5,3.3c3.2,0,5.9-0.5,8.4-1.4c2.4-0.9,4.7-2.4,6.8-4.4
			l9.3,10.1c-5.7,6.5-14,9.8-25,9.8c-6.8,0-12.9-1.3-18.1-4c-5.3-2.7-9.3-6.4-12.1-11.1c-2.9-4.7-4.3-10.1-4.3-16.1
			c0-5.9,1.4-11.3,4.2-16c2.8-4.8,6.7-8.5,11.6-11.1c4.9-2.7,10.4-4,16.5-4c5.9,0,11.3,1.3,16.1,3.8c4.8,2.6,8.6,6.2,11.3,11
			c2.7,4.8,4.1,10.3,4.1,16.6C983.9,168.8,983.7,170.4,983.5,173.3z M942.5,153.9c-2.7,2.3-4.4,5.3-5,9.2h29.8
			c-0.6-3.8-2.3-6.9-5-9.2c-2.7-2.3-6-3.4-9.9-3.4C948.5,150.5,945.2,151.6,942.5,153.9z"/>
		<path d="M1051.8,138.1v60.5h-17.5v-22.5c-5.1,2.6-10.7,3.8-16.9,3.8c-8.2,0-14.3-1.9-18.5-5.6c-4.2-3.7-6.2-9.5-6.2-17.3v-19h17.5
			V156c0,3.7,1,6.3,2.9,8c1.9,1.7,4.7,2.5,8.3,2.5c4.6,0,8.9-1,12.9-2.9v-25.4L1051.8,138.1L1051.8,138.1z"/>
		<path d="M1113.8,143.9c5,4.5,7.5,11.2,7.5,20.2v34.5h-16.4v-7.5c-3.3,5.6-9.4,8.4-18.4,8.4c-4.6,0-8.7-0.8-12.1-2.4
			c-3.4-1.6-6-3.7-7.8-6.5s-2.7-5.9-2.7-9.4c0-5.6,2.1-10,6.4-13.3c4.2-3.2,10.8-4.8,19.6-4.8h13.9c0-3.8-1.2-6.8-3.5-8.8
			c-2.3-2.1-5.8-3.1-10.5-3.1c-3.2,0-6.4,0.5-9.5,1.5c-3.1,1-5.8,2.4-7.9,4.1l-6.3-12.3c3.3-2.3,7.3-4.1,11.9-5.4
			c4.6-1.3,9.4-1.9,14.2-1.9C1101.6,137.2,1108.8,139.4,1113.8,143.9z M1098.8,185.6c2.3-1.4,4-3.4,5-6.1v-6.2h-12
			c-7.2,0-10.8,2.4-10.8,7.1c0,2.3,0.9,4,2.6,5.3c1.8,1.3,4.2,2,7.3,2C1093.8,187.7,1096.5,187,1098.8,185.6z"/>
		<path d="M1187.5,152.5H1167v46.1h-17.4v-46.1h-20.5v-14.4h58.4L1187.5,152.5L1187.5,152.5z"/>
		<path d="M1196.8,138.1h17.4v23.6h26.3v-23.6h17.5v60.5h-17.5V176h-26.3v22.6h-17.4V138.1z"/>
		<path d="M1324.6,162.7c4.1,3.5,6.1,8.4,6.1,14.8c0,6.7-2.3,12-6.9,15.6c-4.6,3.7-11.1,5.5-19.5,5.5l-29.5-0.1v-60.5h17.4v19.3
			h14.4C1314.6,157.5,1320.5,159.3,1324.6,162.7z M1310.5,184.1c1.8-1.5,2.7-3.7,2.7-6.7c0-2.9-0.9-5.1-2.6-6.4
			c-1.8-1.4-4.4-2.1-7.8-2.1l-10.5-0.1v17.5h10.5C1306.1,186.3,1308.7,185.6,1310.5,184.1z M1337.2,138.1h17.4v60.5h-17.4V138.1z"/>
		<path d="M1371.5,138.1h17.4v36l29.5-36h16.1v60.5H1417v-36l-29.4,36h-16.2V138.1z M1382,114.2h11.5c0.1,2.6,0.8,4.7,2.2,6.1
			s3.4,2.2,6.1,2.2c2.7,0,4.8-0.7,6.2-2.2c1.5-1.5,2.2-3.5,2.2-6.1h11.7c-0.1,11.6-6.8,17.4-20,17.4
			C1388.7,131.6,1382,125.8,1382,114.2z"/>
		<path d="M348.5,237.9v39H343v-17.4h-22.4v17.4H315v-39h5.6v16.8H343v-16.8H348.5z"/>
		<path d="M379.7,250.1c2.2,2,3.3,5,3.3,9v17.8h-5.1V273c-0.9,1.4-2.2,2.4-3.8,3.1c-1.7,0.7-3.6,1.1-5.9,1.1c-3.3,0-5.9-0.8-7.9-2.4
			s-3-3.7-3-6.3c0-2.6,0.9-4.7,2.8-6.3c1.9-1.6,4.9-2.4,9-2.4h8.5v-1.1c0-2.3-0.7-4.1-2-5.3s-3.3-1.8-5.9-1.8
			c-1.7,0-3.5,0.3-5.1,0.9c-1.7,0.6-3.1,1.3-4.2,2.3l-2.2-4c1.5-1.2,3.3-2.2,5.5-2.8c2.1-0.6,4.4-1,6.7-1
			C374.4,247.1,377.5,248.1,379.7,250.1z M374.4,271.7c1.5-0.9,2.6-2.2,3.2-3.9v-4.1h-8.2c-4.5,0-6.8,1.5-6.8,4.6
			c0,1.5,0.6,2.7,1.7,3.5c1.2,0.9,2.7,1.3,4.8,1.3C371.1,273.1,372.9,272.6,374.4,271.7z"/>
		<path d="M419.9,247.4v29.5h-5.3v-24.8h-16.6v24.8h-5.3v-29.5H419.9z"/>
		<path d="M456.8,263.9h-23.9c0.3,2.6,1.5,4.7,3.4,6.3c1.9,1.6,4.4,2.4,7.3,2.4c3.5,0,6.4-1.2,8.5-3.6l3,3.5c-1.3,1.6-3,2.7-5,3.6
			c-2,0.8-4.2,1.2-6.7,1.2c-3.1,0-5.9-0.6-8.3-1.9c-2.4-1.3-4.3-3.1-5.6-5.4c-1.3-2.3-2-4.9-2-7.8c0-2.9,0.6-5.4,1.9-7.7
			c1.3-2.3,3-4.1,5.3-5.4s4.8-1.9,7.6-1.9s5.3,0.6,7.5,1.9c2.2,1.3,3.9,3.1,5.2,5.4c1.2,2.3,1.9,4.9,1.9,7.9
			C456.9,262.7,456.9,263.2,456.8,263.9z M435.9,253.9c-1.7,1.6-2.7,3.6-3,6.1h18.9c-0.3-2.5-1.3-4.5-3-6.1
			c-1.7-1.6-3.9-2.4-6.4-2.4C439.8,251.6,437.6,252.4,435.9,253.9z"/>
		<path d="M488.8,247.4v29.5h-5.3V265c-3.2,1.5-6.4,2.2-9.5,2.2c-3.7,0-6.5-0.9-8.5-2.6c-2-1.7-3-4.3-3-7.7v-9.6h5.3v9.2
			c0,2,0.6,3.6,1.9,4.6c1.3,1,3.1,1.6,5.4,1.6c2.6,0,5.4-0.6,8.4-1.9v-13.5L488.8,247.4L488.8,247.4z"/>
		<path d="M519,250.1c2.2,2,3.3,5,3.3,9v17.8h-5.1V273c-0.9,1.4-2.2,2.4-3.8,3.1c-1.7,0.7-3.6,1.1-5.9,1.1c-3.3,0-5.9-0.8-7.9-2.4
			c-2-1.6-3-3.7-3-6.3c0-2.6,0.9-4.7,2.8-6.3c1.9-1.6,4.9-2.4,9-2.4h8.5v-1.1c0-2.3-0.7-4.1-2-5.3s-3.3-1.8-5.9-1.8
			c-1.7,0-3.5,0.3-5.1,0.9s-3.1,1.3-4.2,2.3l-2.2-4c1.5-1.2,3.3-2.2,5.5-2.8c2.1-0.6,4.4-1,6.7-1C513.7,247.1,516.8,248.1,519,250.1
			z M513.7,271.7c1.5-0.9,2.6-2.2,3.2-3.9v-4.1h-8.2c-4.5,0-6.8,1.5-6.8,4.6c0,1.5,0.6,2.7,1.7,3.5c1.2,0.9,2.7,1.3,4.8,1.3
			C510.4,273.1,512.2,272.6,513.7,271.7z"/>
		<path d="M553.9,252.1h-10.8v24.8h-5.3v-24.8h-10.8v-4.7h26.9L553.9,252.1L553.9,252.1z"/>
		<path d="M579.2,250.1c2.2,2,3.3,5,3.3,9v17.8h-5.1V273c-0.9,1.4-2.2,2.4-3.8,3.1c-1.7,0.7-3.6,1.1-5.9,1.1c-3.3,0-5.9-0.8-7.9-2.4
			c-2-1.6-3-3.7-3-6.3c0-2.6,0.9-4.7,2.8-6.3c1.9-1.6,4.9-2.4,9-2.4h8.5v-1.1c0-2.3-0.7-4.1-2-5.3s-3.3-1.8-5.9-1.8
			c-1.7,0-3.5,0.3-5.1,0.9c-1.7,0.6-3.1,1.3-4.2,2.3l-2.2-4c1.5-1.2,3.3-2.2,5.5-2.8c2.1-0.6,4.4-1,6.7-1
			C574,247.1,577.1,248.1,579.2,250.1z M573.9,271.7c1.5-0.9,2.6-2.2,3.2-3.9v-4.1h-8.2c-4.5,0-6.8,1.5-6.8,4.6
			c0,1.5,0.6,2.7,1.7,3.5c1.2,0.9,2.7,1.3,4.8,1.3C570.7,273.1,572.4,272.6,573.9,271.7z"/>
		<path d="M618.7,263.9h-23.9c0.3,2.6,1.5,4.7,3.4,6.3c1.9,1.6,4.4,2.4,7.3,2.4c3.5,0,6.4-1.2,8.5-3.6l3,3.5c-1.3,1.6-3,2.7-5,3.6
			c-2,0.8-4.2,1.2-6.7,1.2c-3.1,0-5.9-0.6-8.3-1.9c-2.4-1.3-4.3-3.1-5.6-5.4c-1.3-2.3-2-4.9-2-7.8c0-2.9,0.6-5.4,1.9-7.7
			c1.3-2.3,3-4.1,5.3-5.4s4.8-1.9,7.6-1.9c2.8,0,5.3,0.6,7.5,1.9c2.2,1.3,3.9,3.1,5.2,5.4c1.2,2.3,1.9,4.9,1.9,7.9
			C618.8,262.7,618.8,263.2,618.7,263.9z M597.8,253.9c-1.7,1.6-2.7,3.6-3,6.1h18.9c-0.3-2.5-1.3-4.5-3-6.1
			c-1.7-1.6-3.9-2.4-6.4-2.4C601.7,251.6,599.5,252.4,597.8,253.9z"/>
		<path d="M661.1,247.4v29.5h-4.8v-21.5l-11,18.2h-2.3L632,255.3v21.6h-4.9v-29.5h5.5l11.6,19.9l11.9-19.9H661.1z"/>
		<path d="M708.9,250.2c2.2,1.2,3.8,2.9,5,5.1c1.2,2.2,1.8,4.6,1.8,7.4c0,2.9-0.6,5.4-1.9,7.6s-3.1,3.9-5.4,5.1
			c-2.3,1.2-5,1.8-7.9,1.8c-5,0-8.9-1.7-11.6-5.1c-2.7-3.4-4.1-8.3-4.1-14.5c0-6,1.2-10.8,3.7-14.2c2.5-3.4,6.3-5.7,11.4-6.8l13.5-3
			l0.8,4.9l-12.4,2.7c-3.9,0.9-6.7,2.3-8.6,4.3s-3,5-3.2,8.8c1.3-1.9,2.9-3.4,4.9-4.4c2-1,4.2-1.6,6.7-1.6
			C704.3,248.4,706.7,249,708.9,250.2z M705.6,271.6c1.5-0.9,2.6-2,3.4-3.5c0.8-1.5,1.2-3.2,1.2-5.1c0-2.9-0.9-5.3-2.7-7.1
			c-1.8-1.8-4.1-2.7-7-2.7c-2.9,0-5.2,0.9-7,2.7c-1.8,1.8-2.7,4.1-2.7,7.1c0,1.9,0.4,3.6,1.3,5.1s2,2.7,3.5,3.5
			c1.5,0.9,3.2,1.3,5,1.3C702.5,272.9,704.2,272.4,705.6,271.6z"/>
		<path d="M745.2,260c2,1.7,3,4,3,7.1c0,3.2-1.1,5.7-3.2,7.4c-2.1,1.7-5.2,2.6-9.2,2.5l-12.4-0.1v-29.5h5.3v10l8,0.1
			C740.4,257.4,743.2,258.3,745.2,260z M740.9,271.4c1.2-1,1.9-2.5,1.9-4.5c0-1.9-0.6-3.3-1.8-4.2c-1.2-0.9-3.1-1.4-5.5-1.4
			l-6.7-0.1v11.6l6.7,0.1C737.8,272.9,739.6,272.4,740.9,271.4z M752.5,247.4h5.3v29.5h-5.3V247.4z"/>
		<path d="M773.1,275.3c-2.4-1.3-4.2-3.1-5.5-5.4c-1.3-2.3-2-4.9-2-7.8s0.7-5.5,2-7.8c1.3-2.3,3.2-4.1,5.5-5.3c2.4-1.3,5-1.9,8-1.9
			c2.7,0,5.1,0.5,7.2,1.6c2.1,1.1,3.7,2.6,4.9,4.7l-4.1,2.6c-0.9-1.4-2.1-2.5-3.5-3.2c-1.4-0.7-2.9-1.1-4.6-1.1
			c-1.9,0-3.7,0.4-5.2,1.3c-1.5,0.9-2.7,2.1-3.6,3.6c-0.9,1.6-1.3,3.4-1.3,5.4c0,2.1,0.4,3.9,1.3,5.5c0.9,1.6,2.1,2.8,3.6,3.6
			c1.5,0.9,3.3,1.3,5.2,1.3c1.7,0,3.2-0.4,4.6-1.1c1.4-0.7,2.5-1.8,3.5-3.2l4.1,2.6c-1.2,2-2.8,3.6-4.9,4.7
			c-2.1,1.1-4.5,1.6-7.2,1.6C778.1,277.2,775.4,276.6,773.1,275.3z"/>
		<path d="M821.7,252.1h-10.8v24.8h-5.3v-24.8h-10.8v-4.7h26.9L821.7,252.1L821.7,252.1z"/>
		<path d="M850.4,249c2.3,1.3,4,3,5.3,5.3c1.3,2.3,1.9,4.9,1.9,7.8s-0.6,5.6-1.9,7.9c-1.3,2.3-3.1,4.1-5.3,5.3
			c-2.3,1.3-4.8,1.9-7.7,1.9c-2.1,0-4.1-0.4-5.8-1.2c-1.8-0.8-3.3-2-4.5-3.6v15.3h-5.3v-40.3h5.1v4.7c1.2-1.6,2.7-2.9,4.5-3.7
			c1.8-0.8,3.8-1.3,6-1.3C845.6,247.1,848.2,247.7,850.4,249z M847.4,271.2c1.5-0.9,2.7-2.1,3.6-3.7c0.9-1.6,1.3-3.4,1.3-5.4
			c0-2-0.4-3.8-1.3-5.4c-0.9-1.6-2.1-2.8-3.6-3.6c-1.5-0.9-3.2-1.3-5.1-1.3c-1.9,0-3.5,0.4-5,1.3c-1.5,0.9-2.7,2.1-3.6,3.6
			c-0.9,1.6-1.3,3.4-1.3,5.4c0,2,0.4,3.9,1.3,5.4c0.9,1.6,2,2.8,3.6,3.7c1.5,0.9,3.2,1.3,5.1,1.3
			C844.2,272.5,845.9,272.1,847.4,271.2z"/>
		<path d="M870.2,275.3c-2.3-1.3-4.2-3.1-5.5-5.4c-1.3-2.3-2-4.9-2-7.8s0.7-5.5,2-7.8c1.3-2.3,3.1-4.1,5.5-5.3
			c2.3-1.3,5-1.9,7.9-1.9c2.9,0,5.6,0.6,7.9,1.9c2.3,1.3,4.1,3.1,5.5,5.3c1.3,2.3,2,4.9,2,7.8s-0.7,5.5-2,7.8
			c-1.3,2.3-3.1,4.1-5.5,5.4c-2.3,1.3-4.9,1.9-7.9,1.9C875.1,277.2,872.5,276.6,870.2,275.3z M883.2,271.2c1.5-0.9,2.7-2.1,3.5-3.7
			c0.9-1.6,1.3-3.4,1.3-5.4c0-2-0.4-3.8-1.3-5.4c-0.9-1.6-2-2.8-3.5-3.6c-1.5-0.9-3.2-1.3-5.1-1.3c-1.9,0-3.6,0.4-5.1,1.3
			c-1.5,0.9-2.7,2.1-3.6,3.6c-0.9,1.6-1.3,3.4-1.3,5.4c0,2,0.4,3.9,1.3,5.4s2.1,2.8,3.6,3.7c1.5,0.9,3.2,1.3,5.1,1.3
			C880,272.5,881.7,272.1,883.2,271.2z"/>
		<path d="M916.1,247.4h5.3v21.5l18.1-21.5h4.8v29.5H939v-21.5l-18,21.5h-4.9V247.4z"/>
		<path d="M995,247.4v29.5h-5.3v-24.8H977l-0.3,6.6c-0.2,4-0.5,7.3-1.1,9.9c-0.5,2.7-1.4,4.8-2.6,6.4c-1.2,1.6-2.8,2.4-5,2.4
			c-1,0-2.1-0.2-3.3-0.5l0.3-4.5c0.5,0.1,0.9,0.2,1.3,0.2c1.5,0,2.6-0.6,3.3-1.9c0.7-1.3,1.2-2.8,1.4-4.6c0.2-1.8,0.4-4.3,0.6-7.6
			l0.5-10.9L995,247.4L995,247.4z"/>
		<path d="M1031.9,263.9H1008c0.3,2.6,1.5,4.7,3.4,6.3c1.9,1.6,4.4,2.4,7.3,2.4c3.5,0,6.4-1.2,8.5-3.6l3,3.5c-1.3,1.6-3,2.7-5,3.6
			c-2,0.8-4.2,1.2-6.7,1.2c-3.1,0-5.9-0.6-8.3-1.9c-2.4-1.3-4.3-3.1-5.6-5.4c-1.3-2.3-2-4.9-2-7.8c0-2.9,0.6-5.4,1.9-7.7
			c1.3-2.3,3-4.1,5.3-5.4s4.8-1.9,7.6-1.9s5.3,0.6,7.5,1.9c2.2,1.3,3.9,3.1,5.2,5.4c1.2,2.3,1.9,4.9,1.9,7.9
			C1032,262.7,1032,263.2,1031.9,263.9z M1011,253.9c-1.7,1.6-2.7,3.6-3,6.1h18.9c-0.3-2.5-1.3-4.5-3-6.1s-3.9-2.4-6.4-2.4
			C1014.9,251.6,1012.8,252.4,1011,253.9z"/>
		<path d="M1062.1,252.1h-16.4v24.8h-5.3v-29.5h21.7V252.1z"/>
		<path d="M1079,264.4h-6.1v12.5h-5.3v-29.5h5.3v12.5h6.2l9.6-12.5h5.7l-11.2,14.2l12,15.3h-6.3L1079,264.4z"/>
		<path d="M1104.5,275.3c-2.3-1.3-4.2-3.1-5.5-5.4c-1.3-2.3-2-4.9-2-7.8s0.7-5.5,2-7.8c1.3-2.3,3.1-4.1,5.5-5.3
			c2.3-1.3,5-1.9,7.9-1.9s5.6,0.6,7.9,1.9c2.3,1.3,4.1,3.1,5.5,5.3c1.3,2.3,2,4.9,2,7.8s-0.7,5.5-2,7.8c-1.3,2.3-3.1,4.1-5.5,5.4
			c-2.3,1.3-4.9,1.9-7.9,1.9C1109.5,277.2,1106.9,276.6,1104.5,275.3z M1117.5,271.2c1.5-0.9,2.7-2.1,3.5-3.7s1.3-3.4,1.3-5.4
			c0-2-0.4-3.8-1.3-5.4c-0.9-1.6-2-2.8-3.5-3.6c-1.5-0.9-3.2-1.3-5.1-1.3c-1.9,0-3.6,0.4-5.1,1.3c-1.5,0.9-2.7,2.1-3.6,3.6
			c-0.9,1.6-1.3,3.4-1.3,5.4c0,2,0.4,3.9,1.3,5.4s2.1,2.8,3.6,3.7c1.5,0.9,3.2,1.3,5.1,1.3S1116,272.1,1117.5,271.2z"/>
	</g>
</g>
</svg>
