<svg xmlns="http://www.w3.org/2000/svg" viewBox="0 0 24 24" style="fill:none;stroke:#f2f3f5;stroke-width:2.3;stroke-linecap:round;stroke-linejoin:round;stroke-dasharray:72;stroke-dashoffset:72;">
  <style type="text/css">
    .a {animation: sm .7s cubic-bezier(0.75, 0.35, 0.4, 0.99) .2s forwards;}
    .b {animation: sm .8s cubic-bezier(0.75, 0.35, 0.4, 0.99) forwards;}
    @keyframes sm {0%{stroke-dasharray:72;stroke-dashoffset:72;}100%{stroke-dashoffset: 0;}}
  </style>
  <path class="a" d="M13.9,6.5l-9.8,9.8l-0.7,2.1l-1.1,1.1c-0.6,0.6-0.6,1.5,0,2.1l0,0c0.6,0.6,1.5,0.6,2.1,0l1.1-1.1l2.1-0.7
	l9.8-9.8"/>
  <path class="b" d="M17.8,2.6l-1.8,1.8c-0.6-0.6-1.5-0.6-2.1,0l0,0c-0.6,0.6-0.6,1.5,0,2.1l3.5,3.5c0.6,0.6,1.5,0.6,2.1,0l0,0
	c0.6-0.6,0.6-1.5,0-2.1l1.8-1.8c1-1,1-2.6,0-3.5l0,0C20.4,1.7,18.8,1.7,17.8,2.6z"/>
</svg>
