<svg xmlns:sodipodi="http://sodipodi.sourceforge.net/DTD/sodipodi-0.dtd" xmlns:inkscape="http://www.inkscape.org/namespaces/inkscape" sodipodi:docname="PARTY MAIN"
	 xmlns="http://www.w3.org/2000/svg" xmlns:xlink="http://www.w3.org/1999/xlink" viewBox="0 0 1920 1080"
	 style="enable-background:new 0 0 1920 1080;">
<style type="text/css">
	.st0{fill:#D01D4F;}
	.st1{fill:#E84A6D;}
	.st2{fill:#C3C343;}
	.st3{fill:#F8F74A;}
	.st4{fill:#184D9B;}
	.st5{fill:#3C6FD9;}
	.st6{fill:#D18927;}
	.st7{fill:#FCB351;}
	.st8{fill:#CE194D;}
	.st9{fill:#285CB6;}
	.st10{fill:#3868D6;}
	.st11{fill:#6C78FE;}
	.st12{fill:#1946AA;}
	.st13{fill:#FFA1E4;}
	.st14{fill:#FF6FD3;}
	.st15{fill:#FF53CB;}
	.st16{fill:#E02AB6;}
	.st17{fill:#595BFA;}
	.st18{fill:#FF77D6;}
	.st19{fill:none;stroke:#284F97;stroke-width:6.198;stroke-miterlimit:10.33;}
	.st20{fill:none;stroke:#FFFFFF;stroke-width:6.198;stroke-linecap:round;stroke-linejoin:round;stroke-miterlimit:1.033;}
	.st21{fill:url(#path_199_00000023976108335730595720000017909221986933344695_);}
	.st22{fill:url(#path_202_00000096758092970680822760000006408506193855469714_);}
	.st23{fill:none;stroke:#E76900;stroke-width:8.0273;stroke-miterlimit:9.7195;}
	.st24{opacity:0;}
	.st25{opacity:0.5;}
	.st26{fill:url(#path_206_00000090281815792498682540000005559760550285696427_);}
	.st27{fill:url(#path_208_00000159471719458442074320000002333835367958315656_);}
	.st28{fill:#FFE2A6;}
	.st29{fill:#974800;}
	.st30{fill:#632900;}
	.st31{fill:#FEDD78;}
	.st32{fill:none;stroke:#7198F8;stroke-width:17.561;stroke-linecap:round;stroke-linejoin:round;stroke-miterlimit:1.033;}
	.st33{fill:#DB35AC;}
	.st34{opacity:0.4;}
	.st35{fill:none;stroke:#1E49A8;stroke-width:6.4046;stroke-linecap:round;stroke-linejoin:round;stroke-miterlimit:1.033;}
	.st36{fill:#7197F8;}
	.st37{fill:#DC2EAB;}
	.st38{fill:#DE2DAC;}
	.st39{fill:#113FA5;}
	.st40{opacity:0.35;}
	.st41{fill:#352E74;}
	.st42{fill:#4942A3;}
	.st43{fill:#6057D3;}
	.st44{fill:#776EF2;}
	.st45{fill:#4841A3;}
	.st46{fill:#5C53D3;}
	.st47{fill:#736BEF;}
</style>
<g id="g_13_00000128442819644179752370000017710658392775695287_" transform="matrix(0.9781476007338056, 0.20791169081775987, -0.20791169081775987, 0.9781476007338056, -109.57583788545828, 580.9594207708253)" inkscape:groupmode="layer" inkscape:label="18">
	
		<g id="g_14_00000044149126770971757550000006502655569870821251_" transform="matrix(1.0, 0.0, 0.0, 1.0, 0.0, 0.0)" inkscape:label="Group 2">
		<path id="path_15_00000071519483977141170140000010736495654449038213_" inkscape:label="Path 1" class="st0" d="M1236.7,154.6
			l-12.8,25.2c-1.1,2.2-3.8,3-6,1.9l-25.2-12.8c-2.2-1.1-3-3.8-1.9-6l12.8-25.2c1.1-2.2,3.8-3,6-1.9l25.2,12.8
			C1237,149.7,1238,152.4,1236.7,154.6z"/>
	</g>
	
		<g id="g_16_00000028285866806373021120000008489702232967485335_" transform="matrix(1.0, 0.0, 0.0, 1.0, 0.0, 0.0)" inkscape:label="Group 1">
		<path id="path_17_00000098198285952980775950000016878030037529114264_" inkscape:label="Path 1" class="st1" d="M1236.7,154.6
			l-11.2,22c-1.1,2.2-3.8,3-6,1.9l-22-11.2c-2.2-1.1-3-3.8-1.9-6l11.2-22c1.1-2.2,3.8-3,6-1.9l22,11.2
			C1237,149.7,1238,152.4,1236.7,154.6z"/>
	</g>
</g>
<g id="g_1" transform="matrix(-0.9124703533978192, -0.4091428285697537, 0.4091428285697537, -0.9124703533978192, 350.6938810613598, 370.5189108108815)" inkscape:groupmode="layer" inkscape:label="15">
	<g id="Group_2" transform="matrix(1.0, 0.0, 0.0, 1.0, 0.0, 0.0)" inkscape:label="Group 2">
		<path id="Path_1" inkscape:label="Path 1" class="st2" d="M-609.7-209.4l-12.8,25.2c-1.1,2.2-3.8,3-6,1.9l-25.2-12.8
			c-2.2-1.1-3-3.8-1.9-6l12.8-25.2c1.1-2.2,3.8-3,6-1.9l25.2,12.8C-609.4-214.3-608.5-211.5-609.7-209.4z"/>
	</g>
	<g id="Group_1" transform="matrix(1.0, 0.0, 0.0, 1.0, 0.0, 0.0)" inkscape:label="Group 1">
		<path id="path_2" inkscape:label="Path 1" class="st3" d="M-609.7-209.4l-11.2,22c-1.1,2.2-3.8,3-6,1.9l-22-11.2
			c-2.2-1.1-3-3.8-1.9-6l11.2-22c1.1-2.2,3.8-3,6-1.9l22,11.2C-609.4-214.3-608.5-211.5-609.7-209.4z"/>
	</g>
</g>
<g id="g_3" transform="matrix(0.8571673007021134, -0.5150380749100524, 0.5150380749100524, 0.8571673007021134, 272.05980090656044, 668.6169461023044)" inkscape:groupmode="layer" inkscape:label="17">
	<g id="g_4" transform="matrix(1.0, 0.0, 0.0, 1.0, 0.0, 0.0)" inkscape:label="Group 2">
		<path id="path_5" inkscape:label="Path 1" class="st4" d="M627.3,531.6l-12.8,25.2c-1.1,2.2-3.8,3-6,1.9L583.3,546
			c-2.2-1.1-3-3.8-1.9-6l12.8-25.2c1.1-2.2,3.8-3,6-1.9l25.2,12.8C627.6,526.7,628.5,529.5,627.3,531.6z"/>
	</g>
	<g id="g_6" transform="matrix(1.0, 0.0, 0.0, 1.0, 0.0, 0.0)" inkscape:label="Group 1">
		<path id="path_7" inkscape:label="Path 1" class="st5" d="M627.3,531.6l-11.2,22c-1.1,2.2-3.8,3-6,1.9l-22-11.2
			c-2.2-1.1-3-3.8-1.9-6l11.2-22c1.1-2.2,3.8-3,6-1.9l22,11.2C627.6,526.7,628.5,529.5,627.3,531.6z"/>
	</g>
</g>
<g id="g_3_00000070094029652327019560000003898282580101543836_" transform="matrix(0.8571673007021134, -0.5150380749100524, 0.5150380749100524, 0.8571673007021134, 272.05980090656044, 668.6169461023044)" inkscape:groupmode="layer" inkscape:label="17">
	
		<g id="g_4_00000124156682178182106230000001261310503956170141_" transform="matrix(1.0, 0.0, 0.0, 1.0, 0.0, 0.0)" inkscape:label="Group 2">
		<path id="path_5_00000096017130912192770460000003853362126132361630_" inkscape:label="Path 1" class="st4" d="M274.5,562.6
			l2.3,28.2c0.2,2.4-1.7,4.6-4.1,4.8l-28.2,2.3c-2.4,0.2-4.6-1.7-4.8-4.1l-2.3-28.2c-0.2-2.4,1.7-4.6,4.1-4.8l28.2-2.3
			C272.2,558.3,274.4,560.1,274.5,562.6z"/>
	</g>
	
		<g id="g_6_00000114762194692891888390000007402303897193355178_" transform="matrix(1.0, 0.0, 0.0, 1.0, 0.0, 0.0)" inkscape:label="Group 1">
		<path id="path_7_00000170277954395101411010000002000573073137400461_" inkscape:label="Path 1" class="st5" d="M274.5,562.6
			l2,24.6c0.2,2.4-1.7,4.6-4.1,4.8l-24.6,2c-2.4,0.2-4.6-1.7-4.8-4.1l-2-24.6c-0.2-2.4,1.7-4.6,4.1-4.8l24.6-2
			C272.2,558.3,274.4,560.1,274.5,562.6z"/>
	</g>
</g>
<g id="g_8" transform="matrix(0.7986355100472932, 0.6018150231520479, -0.6018150231520479, 0.7986355100472932, -157.82024281939425, 407.9200045376683)" inkscape:groupmode="layer" inkscape:label="10">
	<g id="g_9" transform="matrix(1.0, 0.0, 0.0, 1.0, 0.0, 0.0)" inkscape:label="Group 2">
		<path id="path_10" inkscape:label="Path 1" class="st4" d="M868.6-310.6l-12.8,25.2c-1.1,2.2-3.8,3-6,1.9l-25.2-12.8
			c-2.2-1.1-3-3.8-1.9-6l12.8-25.2c1.1-2.2,3.8-3,6-1.9l25.2,12.8C868.9-315.5,869.7-312.8,868.6-310.6z"/>
	</g>
	<g id="g_11" transform="matrix(1.0, 0.0, 0.0, 1.0, 0.0, 0.0)" inkscape:label="Group 1">
		<path id="path_12" inkscape:label="Path 1" class="st5" d="M868.6-310.6l-11.2,22c-1.1,2.2-3.8,3-6,1.9l-22-11.2
			c-2.2-1.1-3-3.8-1.9-6l11.2-22c1.1-2.2,3.8-3,6-1.9l22,11.2C868.9-315.5,869.7-312.8,868.6-310.6z"/>
	</g>
</g>
<g id="g_13" transform="matrix(0.9781476007338056, 0.20791169081775987, -0.20791169081775987, 0.9781476007338056, -109.57583788545828, 580.9594207708253)" inkscape:groupmode="layer" inkscape:label="18">
	<g id="g_14" transform="matrix(1.0, 0.0, 0.0, 1.0, 0.0, 0.0)" inkscape:label="Group 2">
		<path id="path_15" inkscape:label="Path 1" class="st0" d="M877.1,23.8l-12.8,25.2c-1.1,2.2-3.8,3-6,1.9l-25.2-12.8
			c-2.2-1.1-3-3.8-1.9-6L844,6.9c1.1-2.2,3.8-3,6-1.9l25.2,12.8C877.4,18.9,878.3,21.7,877.1,23.8z"/>
	</g>
	<g id="g_16" transform="matrix(1.0, 0.0, 0.0, 1.0, 0.0, 0.0)" inkscape:label="Group 1">
		<path id="path_17" inkscape:label="Path 1" class="st1" d="M877.1,23.8l-11.2,22c-1.1,2.2-3.8,3-6,1.9l-22-11.2
			c-2.2-1.1-3-3.8-1.9-6l11.2-22c1.1-2.2,3.8-3,6-1.9l22,11.2C877.4,18.9,878.3,21.7,877.1,23.8z"/>
	</g>
</g>
<g id="g_18" transform="matrix(0.7660444431189781, -0.6427876096865391, 0.6427876096865391, 0.7660444431189781, 394.6180416772572, 644.8780761665186)" inkscape:groupmode="layer" inkscape:label="13">
	<g id="g_19" transform="matrix(1.0, 0.0, 0.0, 1.0, 0.0, 0.0)" inkscape:label="Group 2">
		<path id="path_20" inkscape:label="Path 1" class="st6" d="M567.3,586.3l-12.8,25.2c-1.1,2.2-3.8,3-6,1.9l-25.2-12.8
			c-2.2-1.1-3-3.8-1.9-6l12.8-25.2c1.1-2.2,3.8-3,6-1.9l25.2,12.8C567.4,581.5,568.4,584.1,567.3,586.3z"/>
	</g>
	<g id="g_21" transform="matrix(1.0, 0.0, 0.0, 1.0, 0.0, 0.0)" inkscape:label="Group 1">
		<path id="path_22" inkscape:label="Path 1" class="st7" d="M567.3,586.3l-11.2,22c-1.1,2.2-3.8,3-6,1.9l-22-11.2
			c-2.2-1.1-3-3.8-1.9-6l11.2-22c1.1-2.2,3.8-3,6-1.9l22,11.2C567.4,581.5,568.4,584.1,567.3,586.3z"/>
	</g>
</g>
<g id="g_1_00000111885738657414736520000006377025004864004231_" transform="matrix(-0.9124703533978192, -0.4091428285697537, 0.4091428285697537, -0.9124703533978192, 350.6938810613598, 370.5189108108815)" inkscape:groupmode="layer" inkscape:label="15">
	
		<g id="Group_2_00000103978313608064184760000006817135702293423778_" transform="matrix(1.0, 0.0, 0.0, 1.0, 0.0, 0.0)" inkscape:label="Group 2">
		<path id="Path_1_00000072254487884657482990000007680371515753921203_" inkscape:label="Path 1" class="st2" d="M-107.6,25
			l-12.8,25.2c-1.1,2.2-3.8,3-6,1.9l-25.2-12.8c-2.2-1.1-3-3.8-1.9-6L-140.7,8c1.1-2.2,3.8-3,6-1.9l25.2,12.8
			C-107.3,20-106.5,22.8-107.6,25z"/>
	</g>
	
		<g id="Group_1_00000107588182926544695800000009477900644662434961_" transform="matrix(1.0, 0.0, 0.0, 1.0, 0.0, 0.0)" inkscape:label="Group 1">
		<path id="path_2_00000016075765190766723580000011831360577130651822_" inkscape:label="Path 1" class="st3" d="M-107.6,25
			l-11.2,22c-1.1,2.2-3.8,3-6,1.9l-22-11.2c-2.2-1.1-3-3.8-1.9-6l11.2-22c1.1-2.2,3.8-3,6-1.9l22,11.2
			C-107.3,20-106.5,22.8-107.6,25z"/>
	</g>
</g>
<g id="g_3_00000093137269671404774200000000449205638485099429_" transform="matrix(0.8571673007021134, -0.5150380749100524, 0.5150380749100524, 0.8571673007021134, 272.05980090656044, 668.6169461023044)" inkscape:groupmode="layer" inkscape:label="17">
	
		<g id="g_4_00000175287684241888408800000010719075693412655757_" transform="matrix(1.0, 0.0, 0.0, 1.0, 0.0, 0.0)" inkscape:label="Group 2">
		<path id="path_5_00000074440760968436741900000009742129611477438090_" inkscape:label="Path 1" class="st4" d="M295.1-125.1
			l-28.2-1.2c-2.5-0.1-4.4-2.2-4.2-4.6l1.2-28.2c0.1-2.5,2.2-4.4,4.6-4.2l28.2,1.2c2.5,0.1,4.4,2.2,4.2,4.6l-1.2,28.2
			C299.6-126.9,297.6-125,295.1-125.1z"/>
	</g>
	
		<g id="g_6_00000063623533685992305800000006231049020289278381_" transform="matrix(1.0, 0.0, 0.0, 1.0, 0.0, 0.0)" inkscape:label="Group 1">
		<path id="path_7_00000119092316988474864890000009881822542050138281_" inkscape:label="Path 1" class="st5" d="M295.1-125.1
			l-24.7-1.1c-2.5-0.1-4.4-2.2-4.2-4.6l1.1-24.7c0.1-2.5,2.2-4.4,4.6-4.2l24.7,1.1c2.5,0.1,4.4,2.2,4.2,4.6l-1.1,24.7
			C299.6-126.9,297.6-125,295.1-125.1z"/>
	</g>
</g>
<g id="g_13_00000044897806293741429150000006572151032004765845_" transform="matrix(0.9781476007338056, 0.20791169081775987, -0.20791169081775987, 0.9781476007338056, -109.57583788545828, 580.9594207708253)" inkscape:groupmode="layer" inkscape:label="18">
	
		<g id="g_14_00000173858429177846802460000006080757150458184366_" transform="matrix(1.0, 0.0, 0.0, 1.0, 0.0, 0.0)" inkscape:label="Group 2">
		<path id="path_15_00000015356922548294935970000002261503560476776344_" inkscape:label="Path 1" class="st0" d="M626.8-547.7
			L614-522.5c-1.1,2.2-3.8,3-6,1.9l-25.2-12.8c-2.2-1.1-3-3.8-1.9-6l12.8-25.2c1.1-2.2,3.8-3,6-1.9l25.2,12.8
			C626.9-552.5,627.9-549.9,626.8-547.7z"/>
	</g>
	
		<g id="g_16_00000028323907283618346510000016017564200379349654_" transform="matrix(1.0, 0.0, 0.0, 1.0, 0.0, 0.0)" inkscape:label="Group 1">
		<path id="path_17_00000106105203431996692140000008870420457352265402_" inkscape:label="Path 1" class="st1" d="M626.8-547.7
			l-11.2,22c-1.1,2.2-3.8,3-6,1.9l-22.1-11c-2.2-1.1-3-3.8-1.9-6l11.2-22c1.1-2.2,3.8-3,6-1.9l22,11.2
			C626.9-552.5,627.9-549.9,626.8-547.7z"/>
	</g>
</g>
<g id="g_18_00000023986536698557891870000012740693053597778340_" transform="matrix(0.7660444431189781, -0.6427876096865391, 0.6427876096865391, 0.7660444431189781, 394.6180416772572, 644.8780761665186)" inkscape:groupmode="layer" inkscape:label="13">
	
		<g id="g_19_00000042010552639931172270000016689857842726762665_" transform="matrix(1.0, 0.0, 0.0, 1.0, 0.0, 0.0)" inkscape:label="Group 2">
		<path id="path_20_00000081644447173415334450000006590844582419462814_" inkscape:label="Path 1" class="st6" d="M524.6,719.7
			L511.8,745c-1.1,2.2-3.8,3-6,1.9L480.6,734c-2.2-1.1-3-3.8-1.9-6l12.8-25.2c1.1-2.2,3.8-3,6-1.9l25.2,12.8
			C524.9,714.8,525.7,717.6,524.6,719.7z"/>
	</g>
	
		<g id="g_21_00000038390139522802191510000011018613796931287205_" transform="matrix(1.0, 0.0, 0.0, 1.0, 0.0, 0.0)" inkscape:label="Group 1">
		<path id="path_22_00000176733736525129385720000011884533057686096042_" inkscape:label="Path 1" class="st7" d="M524.6,719.7
			l-11.2,22c-1.1,2.2-3.8,3-6,1.9l-22-11.2c-2.2-1.1-3-3.8-1.9-6l11.2-22c1.1-2.2,3.8-3,6-1.9l22,11.2
			C524.9,714.8,525.7,717.6,524.6,719.7z"/>
	</g>
</g>
<g id="g_1_00000152942329135794902090000018216738627511264671_" transform="matrix(-0.9124703533978192, -0.4091428285697537, 0.4091428285697537, -0.9124703533978192, 350.6938810613598, 370.5189108108815)" inkscape:groupmode="layer" inkscape:label="15">
	
		<g id="Group_2_00000122000284151168533120000000570374177444872600_" transform="matrix(1.0, 0.0, 0.0, 1.0, 0.0, 0.0)" inkscape:label="Group 2">
		<path id="Path_1_00000016033393996300120130000000960228730867100810_" inkscape:label="Path 1" class="st2" d="M-194.6-67.1
			l-12.8,25.2c-1.1,2.2-3.8,3-6,1.9l-25.2-12.8c-2.2-1.1-3-3.8-1.9-6l12.8-25.2c1.1-2.2,3.8-3,6-1.9l25.2,12.8
			C-194.4-71.8-193.5-69.3-194.6-67.1z"/>
	</g>
	
		<g id="Group_1_00000052085532784263755160000009717336386110281631_" transform="matrix(1.0, 0.0, 0.0, 1.0, 0.0, 0.0)" inkscape:label="Group 1">
		<path id="path_2_00000085930201711618379050000008831017822801619100_" inkscape:label="Path 1" class="st3" d="M-194.6-67.1
			l-11.2,22c-1.1,2.2-3.8,3-6,1.9l-22-11.2c-2.2-1.1-3-3.8-1.9-6l11.2-22c1.1-2.2,3.8-3,6-1.9l22,11.2
			C-194.4-71.8-193.5-69.3-194.6-67.1z"/>
	</g>
</g>
<g id="g_3_00000047058751235983520940000004673362509904610217_" transform="matrix(0.8571673007021134, -0.5150380749100524, 0.5150380749100524, 0.8571673007021134, 272.05980090656044, 668.6169461023044)" inkscape:groupmode="layer" inkscape:label="17">
	
		<g id="g_4_00000047044660252823237840000007441482290462571196_" transform="matrix(1.0, 0.0, 0.0, 1.0, 0.0, 0.0)" inkscape:label="Group 2">
		<path id="path_5_00000096753782758587017770000010763740597101284262_" inkscape:label="Path 1" class="st4" d="M262.8,37.4
			L250,62.6c-1.1,2.2-3.8,3-6,1.9l-25.2-12.8c-2.2-1.1-3-3.8-1.9-6l12.8-25.2c1.1-2.2,3.8-3,6-1.9l25.2,12.8
			C263.1,32.5,263.9,35.2,262.8,37.4z"/>
	</g>
	
		<g id="g_6_00000071561059608391387910000005944735977620550036_" transform="matrix(1.0, 0.0, 0.0, 1.0, 0.0, 0.0)" inkscape:label="Group 1">
		<path id="path_7_00000176727286458066165770000000649848449147603644_" inkscape:label="Path 1" class="st5" d="M262.8,37.4
			l-11.2,22c-1.1,2.2-3.8,3-6,1.9L223.5,50c-2.2-1.1-3-3.8-1.9-6l11.2-22c1.1-2.2,3.8-3,6-1.9l22,11.2
			C263.1,32.5,263.9,35.2,262.8,37.4z"/>
	</g>
</g>
<g id="g_13_00000129173929449892593530000016137982801185572508_" transform="matrix(0.9781476007338056, 0.20791169081775987, -0.20791169081775987, 0.9781476007338056, -109.57583788545828, 580.9594207708253)" inkscape:groupmode="layer" inkscape:label="18">
	
		<g id="g_14_00000127728734350973879490000001348107413288906172_" transform="matrix(1.0, 0.0, 0.0, 1.0, 0.0, 0.0)" inkscape:label="Group 2">
		<path id="path_15_00000172404613876134372990000015488776312533718671_" inkscape:label="Path 1" class="st0" d="M489.3-254
			l15.1,23.9c1.4,2,0.7,4.8-1.4,6.1l-23.9,15.1c-2,1.4-4.8,0.7-6.1-1.4l-15.1-23.9c-1.4-2-0.7-4.8,1.4-6.1l23.9-15.1
			C485.2-256.6,488.1-256,489.3-254z"/>
	</g>
	
		<g id="g_16_00000034811129589663170130000015471943678812846997_" transform="matrix(1.0, 0.0, 0.0, 1.0, 0.0, 0.0)" inkscape:label="Group 1">
		<path id="path_17_00000156577568142295990810000012129964703172185730_" inkscape:label="Path 1" class="st1" d="M489.3-254
			l13.2,20.9c1.4,2,0.7,4.8-1.4,6.1l-20.9,13.2c-2,1.4-4.8,0.7-6.1-1.4L460.9-236c-1.4-2-0.7-4.8,1.4-6.1l20.9-13.2
			C485.2-256.6,488.1-256,489.3-254z"/>
	</g>
</g>
<g id="g_18_00000152966629889700333000000000459347627957501846_" transform="matrix(0.7660444431189781, -0.6427876096865391, 0.6427876096865391, 0.7660444431189781, 394.6180416772572, 644.8780761665186)" inkscape:groupmode="layer" inkscape:label="13">
	
		<g id="g_19_00000063601312335014291320000008344270342967754112_" transform="matrix(1.0, 0.0, 0.0, 1.0, 0.0, 0.0)" inkscape:label="Group 2">
		<path id="path_20_00000033358366072318072800000007105741409383526288_" inkscape:label="Path 1" class="st6" d="M121.7-238.4
			l-12.8,25.2c-1.1,2.2-3.8,3-6,1.9l-25.2-12.8c-2.2-1.1-3-3.8-1.9-6l12.8-25.2c1.1-2.2,3.8-3,6-1.9l25.2,12.8
			C121.9-243.3,122.8-240.7,121.7-238.4z"/>
	</g>
	
		<g id="g_21_00000160154281442280859710000015927075425080790961_" transform="matrix(1.0, 0.0, 0.0, 1.0, 0.0, 0.0)" inkscape:label="Group 1">
		<path id="path_22_00000182506078133087300140000014648921030753688461_" inkscape:label="Path 1" class="st7" d="M121.7-238.4
			l-11.2,22c-1.1,2.2-3.8,3-6,1.9l-22-11.2c-2.2-1.1-3-3.8-1.9-6l11.2-22c1.1-2.2,3.8-3,6-1.9l22,11.2
			C121.9-243.3,122.8-240.7,121.7-238.4z"/>
	</g>
</g>
<g id="g_1_00000101068071803498071410000009308610033263471519_" transform="matrix(-0.9124703533978192, -0.4091428285697537, 0.4091428285697537, -0.9124703533978192, 350.6938810613598, 370.5189108108815)" inkscape:groupmode="layer" inkscape:label="15">
	
		<g id="Group_2_00000043455507119676287230000014216312584979571074_" transform="matrix(1.0, 0.0, 0.0, 1.0, 0.0, 0.0)" inkscape:label="Group 2">
		<path id="Path_1_00000063604533824370296220000002382593561767710389_" inkscape:label="Path 1" class="st2" d="M-118.2-163.7
			l-12.8,25.2c-1.1,2.2-3.8,3-6,1.9l-25.2-12.8c-2.2-1.1-3-3.8-1.9-6l12.8-25.2c1.1-2.2,3.8-3,6-1.9l25.2,12.8
			C-117.9-168.6-117.1-165.9-118.2-163.7z"/>
	</g>
	
		<g id="Group_1_00000120552685660916260820000015411835526895230374_" transform="matrix(1.0, 0.0, 0.0, 1.0, 0.0, 0.0)" inkscape:label="Group 1">
		<path id="path_2_00000173121976897076926080000005209953028774244529_" inkscape:label="Path 1" class="st3" d="M-118.2-163.7
			l-11.2,22c-1.1,2.2-3.8,3-6,1.9l-22-11.2c-2.2-1.1-3-3.8-1.9-6l11.2-22c1.1-2.2,3.8-3,6-1.9l22,11.2
			C-117.9-168.6-117.1-165.9-118.2-163.7z"/>
	</g>
</g>
<g id="g_3_00000050621687947038137650000013431671464179617694_" transform="matrix(0.8571673007021134, -0.5150380749100524, 0.5150380749100524, 0.8571673007021134, 272.05980090656044, 668.6169461023044)" inkscape:groupmode="layer" inkscape:label="17">
	
		<g id="g_4_00000072993012965326616080000009241582726304750470_" transform="matrix(1.0, 0.0, 0.0, 1.0, 0.0, 0.0)" inkscape:label="Group 2">
		<path id="path_5_00000108304262378173707750000013141993483030148792_" inkscape:label="Path 1" class="st4" d="M152.4-57.1
			l-26.2-10.5c-2.3-1-3.4-3.5-2.5-5.7l10.5-26.3c1-2.3,3.5-3.4,5.7-2.5l26.3,10.5c2.3,1,3.4,3.5,2.5,5.7l-10.5,26.3
			C157.3-57.3,154.7-56.2,152.4-57.1z"/>
	</g>
	
		<g id="g_6_00000172426884933629200210000003485243588981049989_" transform="matrix(1.0, 0.0, 0.0, 1.0, 0.0, 0.0)" inkscape:label="Group 1">
		<path id="path_7_00000088126911243585887850000011766403991634197664_" inkscape:label="Path 1" class="st5" d="M152.4-57.1
			l-22.9-9.1c-2.3-1-3.4-3.5-2.5-5.7l9.1-22.9c1-2.3,3.5-3.4,5.7-2.5l22.9,9.1c2.3,1,3.4,3.5,2.5,5.7l-9.1,22.9
			C157.3-57.3,154.7-56.2,152.4-57.1z"/>
	</g>
</g>
<g id="g_13_00000090260368354592630780000005717036648317448323_" transform="matrix(0.9781476007338056, 0.20791169081775987, -0.20791169081775987, 0.9781476007338056, -109.57583788545828, 580.9594207708253)" inkscape:groupmode="layer" inkscape:label="18">
	
		<g id="g_14_00000015319105751821489390000013250063018050487229_" transform="matrix(1.0, 0.0, 0.0, 1.0, 0.0, 0.0)" inkscape:label="Group 2">
		<path id="path_15_00000005237046646773562040000006534715624345737906_" inkscape:label="Path 1" class="st0" d="M303.6-151.4
			l6.1,27.7c0.5,2.5-1,4.8-3.4,5.3l-27.7,6.1c-2.5,0.5-4.8-1-5.3-3.4l-6.1-27.7c-0.5-2.5,1-4.8,3.4-5.3l27.7-6.1
			C300.7-155.4,303.1-153.9,303.6-151.4z"/>
	</g>
	
		<g id="g_16_00000158003656114018968670000009233732539811325838_" transform="matrix(1.0, 0.0, 0.0, 1.0, 0.0, 0.0)" inkscape:label="Group 1">
		<path id="path_17_00000030459683761516060190000016509014398474531734_" inkscape:label="Path 1" class="st1" d="M303.6-151.4
			l5.3,24.1c0.5,2.5-1,4.8-3.4,5.3l-24.1,5.3c-2.5,0.5-4.8-1-5.3-3.4l-5.3-24.1c-0.5-2.5,1-4.8,3.4-5.3l24.1-5.3
			C300.7-155.4,303.1-153.9,303.6-151.4z"/>
	</g>
</g>
<g id="g_18_00000112598914853636857860000010720717326450662791_" transform="matrix(0.7660444431189781, -0.6427876096865391, 0.6427876096865391, 0.7660444431189781, 394.6180416772572, 644.8780761665186)" inkscape:groupmode="layer" inkscape:label="13">
	
		<g id="g_19_00000023279335714702388380000015560454019541217167_" transform="matrix(1.0, 0.0, 0.0, 1.0, 0.0, 0.0)" inkscape:label="Group 2">
		<path id="path_20_00000027583380982590847800000011055204806484631205_" inkscape:label="Path 1" class="st6" d="M144.2,62.1
			l-14,24.5c-1.2,2.2-4,2.9-6,1.6l-24.5-14c-2.2-1.2-2.9-4-1.6-6l14-24.5c1.2-2.2,4-2.9,6-1.6l24.5,14
			C144.6,57.2,145.4,59.9,144.2,62.1z"/>
	</g>
	
		<g id="g_21_00000011016880465291467720000009112421656088884909_" transform="matrix(1.0, 0.0, 0.0, 1.0, 0.0, 0.0)" inkscape:label="Group 1">
		<path id="path_22_00000090996844505908823220000002102182297469514902_" inkscape:label="Path 1" class="st7" d="M144.2,62.1
			l-12.3,21.4c-1.2,2.2-4,2.9-6,1.6l-21.4-12.3c-2.2-1.2-2.9-4-1.6-6l12.3-21.4c1.2-2.2,4-2.9,6-1.6l21.4,12.3
			C144.6,57.2,145.4,59.9,144.2,62.1z"/>
	</g>
</g>
<g id="g_18_00000124145287102096646560000005584530803958229938_" transform="matrix(0.7660444431189781, -0.6427876096865391, 0.6427876096865391, 0.7660444431189781, 394.6180416772572, 644.8780761665186)" inkscape:groupmode="layer" inkscape:label="13">
	
		<g id="g_19_00000018956679441867929250000011993905709480861111_" transform="matrix(1.0, 0.0, 0.0, 1.0, 0.0, 0.0)" inkscape:label="Group 2">
		<path id="path_20_00000161617824000787549570000004531410007243099018_" inkscape:label="Path 1" class="st6" d="M11.1,318.1
			l-14,24.5c-1.2,2.2-4,2.9-6,1.6l-24.5-14c-2.2-1.2-2.9-4-1.6-6l14-24.5c1.2-2.2,4-2.9,6-1.6l24.5,14
			C11.5,313.2,12.3,315.9,11.1,318.1z"/>
	</g>
	
		<g id="g_21_00000098223094492966062350000004251627797281998011_" transform="matrix(1.0, 0.0, 0.0, 1.0, 0.0, 0.0)" inkscape:label="Group 1">
		<path id="path_22_00000020370611376519700280000013027057648276802449_" inkscape:label="Path 1" class="st7" d="M11.1,318.1
			l-12.3,21.4c-1.2,2.2-4,2.9-6,1.6l-21.4-12.3c-2.2-1.2-2.9-4-1.6-6l12.3-21.4c1.2-2.2,4-2.9,6-1.6l21.4,12.3
			C11.5,313.2,12.3,315.9,11.1,318.1z"/>
	</g>
</g>
<g id="g_18_00000069362246211089270570000001129869681946335148_" transform="matrix(0.7660444431189781, -0.6427876096865391, 0.6427876096865391, 0.7660444431189781, 394.6180416772572, 644.8780761665186)" inkscape:groupmode="layer" inkscape:label="13">
	
		<g id="g_19_00000085214016011566489050000007532504436277476232_" transform="matrix(1.0, 0.0, 0.0, 1.0, 0.0, 0.0)" inkscape:label="Group 2">
		<path id="path_20_00000150096063080025609820000006734329183938479285_" inkscape:label="Path 1" class="st6" d="M221.9-344.9
			l-27.8,5c-2.5,0.4-4.8-1.2-5.2-3.5l-5-27.8c-0.4-2.5,1.2-4.8,3.5-5.2l27.8-5c2.5-0.4,4.8,1.2,5.2,3.5l5,27.8
			C226-347.6,224.3-345.3,221.9-344.9z"/>
	</g>
	
		<g id="g_21_00000148663048401514533710000000317483139744747930_" transform="matrix(1.0, 0.0, 0.0, 1.0, 0.0, 0.0)" inkscape:label="Group 1">
		<path id="path_22_00000080917913118590356000000016436075373824258219_" inkscape:label="Path 1" class="st7" d="M221.9-344.9
			l-24.3,4.4c-2.5,0.4-4.8-1.2-5.2-3.5l-4.4-24.3c-0.4-2.5,1.2-4.8,3.5-5.2l24.3-4.4c2.5-0.4,4.8,1.2,5.2,3.5l4.4,24.3
			C226-347.6,224.3-345.3,221.9-344.9z"/>
	</g>
</g>
<g id="g_1_00000055705350175346704570000015382521100056947841_" transform="matrix(-0.9124703533978192, -0.4091428285697537, 0.4091428285697537, -0.9124703533978192, 350.6938810613598, 370.5189108108815)" inkscape:groupmode="layer" inkscape:label="15">
	
		<g id="Group_2_00000143618070106997997290000002707589008071202230_" transform="matrix(1.0, 0.0, 0.0, 1.0, 0.0, 0.0)" inkscape:label="Group 2">
		<path id="Path_1_00000124157698157911630200000011948271022159550354_" inkscape:label="Path 1" class="st2" d="M-1120.9,628.3
			l-12.8,25.2c-1.1,2.2-3.8,3-6,1.9l-25.2-12.8c-2.2-1.1-3-3.8-1.9-6l12.8-25.2c1.1-2.2,3.8-3,6-1.9l25.2,12.8
			C-1120.8,623.5-1119.8,626.1-1120.9,628.3z"/>
	</g>
	
		<g id="Group_1_00000103254135355538621430000011606390745310830474_" transform="matrix(1.0, 0.0, 0.0, 1.0, 0.0, 0.0)" inkscape:label="Group 1">
		<path id="path_2_00000122701503922599498610000012682593668128529280_" inkscape:label="Path 1" class="st3" d="M-1120.9,628.3
			l-11.2,22c-1.1,2.2-3.8,3-6,1.9l-22-11.2c-2.2-1.1-3-3.8-1.9-6l11.2-22c1.1-2.2,3.8-3,6-1.9l22,11.2
			C-1120.8,623.5-1119.8,626.1-1120.9,628.3z"/>
	</g>
</g>
<g id="g_3_00000026870142661807091580000013967301065542569348_" transform="matrix(0.8571673007021134, -0.5150380749100524, 0.5150380749100524, 0.8571673007021134, 272.05980090656044, 668.6169461023044)" inkscape:groupmode="layer" inkscape:label="17">
	
		<g id="g_4_00000050634505232447724260000012933465482644960670_" transform="matrix(1.0, 0.0, 0.0, 1.0, 0.0, 0.0)" inkscape:label="Group 2">
		<path id="path_5_00000065067342591759253280000011143017163385684670_" inkscape:label="Path 1" class="st4" d="M1058.3,398.3
			l-12.8,25.2c-1.1,2.2-3.8,3-6,1.9l-25.2-12.8c-2.2-1.1-3-3.8-1.9-6l12.8-25.2c1.1-2.2,3.8-3,6-1.9l25.2,12.8
			C1058.6,393.5,1059.4,396.1,1058.3,398.3z"/>
	</g>
	
		<g id="g_6_00000054230755448988488950000001587087604971581118_" transform="matrix(1.0, 0.0, 0.0, 1.0, 0.0, 0.0)" inkscape:label="Group 1">
		<path id="path_7_00000005233667069969615740000004668491756477253556_" inkscape:label="Path 1" class="st5" d="M1058.3,398.3
			l-11.2,22c-1.1,2.2-3.8,3-6,1.9l-22-11.2c-2.2-1.1-3-3.8-1.9-6l11.2-22c1.1-2.2,3.8-3,6-1.9l22,11.2
			C1058.6,393.5,1059.4,396.1,1058.3,398.3z"/>
	</g>
</g>
<g id="g_13_00000125602060768092134600000000571550064855731842_" transform="matrix(0.9781476007338056, 0.20791169081775987, -0.20791169081775987, 0.9781476007338056, -109.57583788545828, 580.9594207708253)" inkscape:groupmode="layer" inkscape:label="18">
	
		<g id="g_14_00000064334967574382309010000006059075444173897872_" transform="matrix(1.0, 0.0, 0.0, 1.0, 0.0, 0.0)" inkscape:label="Group 2">
		<path id="path_15_00000067220485346588276900000017518551008646032044_" inkscape:label="Path 1" class="st0" d="M1474.2-471.7
			l15.1,23.9c1.4,2,0.7,4.8-1.4,6.1l-23.9,15.1c-2,1.4-4.8,0.7-6.1-1.4l-15.1-23.9c-1.4-2-0.7-4.8,1.4-6.1l23.9-15.1
			C1470.2-474.3,1472.9-473.7,1474.2-471.7z"/>
	</g>
	
		<g id="g_16_00000085228330441722745410000008844112150923796362_" transform="matrix(1.0, 0.0, 0.0, 1.0, 0.0, 0.0)" inkscape:label="Group 1">
		<path id="path_17_00000134930464019234872200000001941686536255745687_" inkscape:label="Path 1" class="st1" d="M1474.2-471.7
			l13.2,20.9c1.4,2,0.7,4.8-1.4,6.1l-20.9,13.2c-2,1.4-4.8,0.7-6.1-1.4l-13.2-20.9c-1.4-2-0.7-4.8,1.4-6.1l20.9-13.2
			C1470.2-474.3,1472.9-473.7,1474.2-471.7z"/>
	</g>
</g>
<g id="g_18_00000058553920397106977270000000850928473626249139_" transform="matrix(0.7660444431189781, -0.6427876096865391, 0.6427876096865391, 0.7660444431189781, 394.6180416772572, 644.8780761665186)" inkscape:groupmode="layer" inkscape:label="13">
	
		<g id="g_19_00000100361396161591140930000000884181701632992172_" transform="matrix(1.0, 0.0, 0.0, 1.0, 0.0, 0.0)" inkscape:label="Group 2">
		<path id="path_20_00000135666662506291572370000017602118339965144498_" inkscape:label="Path 1" class="st6" d="M1185.1,602.4
			l-12.8,25.2c-1.1,2.2-3.8,3-6,1.9l-25.2-12.8c-2.2-1.1-3-3.8-1.9-6l12.8-25.2c1.1-2.2,3.8-3,6-1.9l25.2,12.8
			C1185.2,597.5,1186.2,600.2,1185.1,602.4z"/>
	</g>
	
		<g id="g_21_00000031203415192279297200000000938477731552296116_" transform="matrix(1.0, 0.0, 0.0, 1.0, 0.0, 0.0)" inkscape:label="Group 1">
		<path id="path_22_00000109013476871489297600000010535192366709356981_" inkscape:label="Path 1" class="st7" d="M1185.1,602.4
			l-11.2,22c-1.1,2.2-3.8,3-6,1.9l-22.1-11.2c-2.2-1.1-3-3.8-1.9-6l11.2-22c1.1-2.2,3.8-3,6-1.9l22,11.2
			C1185.2,597.5,1186.2,600.2,1185.1,602.4z"/>
	</g>
</g>
<g id="g_18_00000156580241656495421840000009044969914215640236_" transform="matrix(0.7660444431189781, -0.6427876096865391, 0.6427876096865391, 0.7660444431189781, 394.6180416772572, 644.8780761665186)" inkscape:groupmode="layer" inkscape:label="13">
	
		<g id="g_19_00000161617040914900860170000006775467397596338830_" transform="matrix(1.0, 0.0, 0.0, 1.0, 0.0, 0.0)" inkscape:label="Group 2">
		<path id="path_20_00000123412867033031280010000003018814174801629109_" inkscape:label="Path 1" class="st6" d="M1053,557.6
			l-12.8,25.2c-1.1,2.2-3.8,3-6,1.9l-25.2-12.8c-2.2-1.1-3-3.8-1.9-6l12.8-25.2c1.1-2.2,3.8-3,6-1.9l25.2,12.8
			C1053.2,552.7,1054.1,555.4,1053,557.6z"/>
	</g>
	
		<g id="g_21_00000145779813988307880490000006308505846138014100_" transform="matrix(1.0, 0.0, 0.0, 1.0, 0.0, 0.0)" inkscape:label="Group 1">
		<path id="path_22_00000171704703530078615870000006682164860333432484_" inkscape:label="Path 1" class="st7" d="M1053,557.6
			l-11.2,22c-1.1,2.2-3.8,3-6,1.9l-22-11.2c-2.2-1.1-3-3.8-1.9-6l11.2-22c1.1-2.2,3.8-3,6-1.9l22,11.2
			C1053.2,552.7,1054.1,555.4,1053,557.6z"/>
	</g>
</g>
<g id="g_1_00000069360119278762595070000005747753458569706637_" transform="matrix(-0.9124703533978192, -0.4091428285697537, 0.4091428285697537, -0.9124703533978192, 350.6938810613598, 370.5189108108815)" inkscape:groupmode="layer" inkscape:label="15">
	
		<g id="Group_2_00000112620085577449046750000015950549118009847706_" transform="matrix(1.0, 0.0, 0.0, 1.0, 0.0, 0.0)" inkscape:label="Group 2">
		<path id="Path_1_00000094597914234955866570000001480096955162996393_" inkscape:label="Path 1" class="st2" d="M-981.2,200.7
			l-12.8,25.2c-1.1,2.2-3.8,3-6,1.9l-25.2-12.8c-2.2-1.1-3-3.8-1.9-6l12.8-25.2c1.1-2.2,3.8-3,6-1.9l25.2,12.8
			C-980.9,195.8-980.1,198.5-981.2,200.7z"/>
	</g>
	
		<g id="Group_1_00000040556156417257941740000003163959353028033717_" transform="matrix(1.0, 0.0, 0.0, 1.0, 0.0, 0.0)" inkscape:label="Group 1">
		<path id="path_2_00000117644066253304957260000002777230699049202071_" inkscape:label="Path 1" class="st3" d="M-981.2,200.7
			l-11.2,22c-1.1,2.2-3.8,3-6,1.9l-22-11.2c-2.2-1.1-3-3.8-1.9-6l11.2-22c1.1-2.2,3.8-3,6-1.9l22,11.2
			C-980.9,195.8-980.1,198.5-981.2,200.7z"/>
	</g>
</g>
<g id="g_1_00000140725236172072437220000018389105622819852990_" transform="matrix(-0.9124703533978192, -0.4091428285697537, 0.4091428285697537, -0.9124703533978192, 350.6938810613598, 370.5189108108815)" inkscape:groupmode="layer" inkscape:label="15">
	
		<g id="Group_2_00000079477287071657229840000009290530100102965903_" transform="matrix(1.0, 0.0, 0.0, 1.0, 0.0, 0.0)" inkscape:label="Group 2">
		<path id="Path_1_00000165925826392243949020000011513745751934886027_" inkscape:label="Path 1" class="st2" d="M-1280.6,432.9
			l-12.8,25.2c-1.1,2.2-3.8,3-6,1.9l-25.2-12.8c-2.2-1.1-3-3.8-1.9-6l12.8-25.2c1.1-2.2,3.8-3,6-1.9l25.2,12.8
			C-1280.3,428-1279.5,430.7-1280.6,432.9z"/>
	</g>
	
		<g id="Group_1_00000139286782174710568840000007011378687211985044_" transform="matrix(1.0, 0.0, 0.0, 1.0, 0.0, 0.0)" inkscape:label="Group 1">
		<path id="path_2_00000067200511999553207850000016584074641241258138_" inkscape:label="Path 1" class="st3" d="M-1280.6,432.9
			l-11.2,22c-1.1,2.2-3.8,3-6,1.9l-22-11.2c-2.2-1.1-3-3.8-1.9-6l11.2-22c1.1-2.2,3.8-3,6-1.9l22,11.2
			C-1280.3,428-1279.5,430.7-1280.6,432.9z"/>
	</g>
</g>
<g id="g_3_00000104668353869857511460000014102309141533965200_" transform="matrix(0.8571673007021134, -0.5150380749100524, 0.5150380749100524, 0.8571673007021134, 272.05980090656044, 668.6169461023044)" inkscape:groupmode="layer" inkscape:label="17">
	
		<g id="g_4_00000012434056443079856740000005486094328450791555_" transform="matrix(1.0, 0.0, 0.0, 1.0, 0.0, 0.0)" inkscape:label="Group 2">
		<path id="path_5_00000129885985615449593590000002182917327458942650_" inkscape:label="Path 1" class="st4" d="M1191.5,397.6
			l-26.3-10.5c-2.3-1-3.4-3.5-2.5-5.7l10.5-26.3c1-2.3,3.5-3.4,5.7-2.5l26.3,10.5c2.3,1,3.4,3.5,2.5,5.7l-10.5,26.3
			C1196.4,397.4,1193.8,398.5,1191.5,397.6z"/>
	</g>
	
		<g id="g_6_00000155845332217321484960000018111559971512312740_" transform="matrix(1.0, 0.0, 0.0, 1.0, 0.0, 0.0)" inkscape:label="Group 1">
		<path id="path_7_00000068673959051491513680000004776865068852986020_" inkscape:label="Path 1" class="st5" d="M1191.5,397.6
			l-22.9-9.1c-2.3-1-3.4-3.5-2.5-5.7l9.1-22.9c1-2.3,3.5-3.4,5.7-2.5l22.9,9.1c2.3,1,3.4,3.5,2.5,5.7l-9.1,22.9
			C1196.4,397.4,1193.8,398.5,1191.5,397.6z"/>
	</g>
</g>
<g id="g_13_00000052104217384772389150000011451283135816403842_" transform="matrix(0.9781476007338056, 0.20791169081775987, -0.20791169081775987, 0.9781476007338056, -109.57583788545828, 580.9594207708253)" inkscape:groupmode="layer" inkscape:label="18">
	
		<g id="g_14_00000119817354066814886300000016345609664217022106_" transform="matrix(1.0, 0.0, 0.0, 1.0, 0.0, 0.0)" inkscape:label="Group 2">
		<path id="path_15_00000060727122682315035840000003881641230982386852_" inkscape:label="Path 1" class="st0" d="M1773.1-484.2
			l-5.2,27.8c-0.4,2.5-2.7,4-5.2,3.5l-27.8-5.2c-2.5-0.4-4-2.7-3.5-5.2l5.2-27.8c0.4-2.5,2.7-4,5.2-3.5l27.8,5.2
			C1771.9-489,1773.5-486.7,1773.1-484.2z"/>
	</g>
	
		<g id="g_16_00000068639586678268704450000006342398318658361783_" transform="matrix(1.0, 0.0, 0.0, 1.0, 0.0, 0.0)" inkscape:label="Group 1">
		<path id="path_17_00000155129790211335136070000015504934114037846706_" inkscape:label="Path 1" class="st1" d="M1773.1-484.2
			l-4.5,24.3c-0.4,2.5-2.7,4-5.2,3.5l-24.3-4.5c-2.5-0.4-4-2.7-3.5-5.2l4.5-24.3c0.4-2.5,2.7-4,5.2-3.5l24.3,4.5
			C1771.9-489,1773.5-486.7,1773.1-484.2z"/>
	</g>
</g>
<g id="g_18_00000155861601668010076020000010351675873252572035_" transform="matrix(0.7660444431189781, -0.6427876096865391, 0.6427876096865391, 0.7660444431189781, 394.6180416772572, 644.8780761665186)" inkscape:groupmode="layer" inkscape:label="13">
	
		<g id="g_19_00000076572058585560369640000011091828176680977325_" transform="matrix(1.0, 0.0, 0.0, 1.0, 0.0, 0.0)" inkscape:label="Group 2">
		<path id="path_20_00000067231447757348169110000017687857927238535092_" inkscape:label="Path 1" class="st6" d="M926.3,641.8
			L913.5,667c-1.1,2.2-3.8,3-6,1.9l-25.2-12.8c-2.2-1.1-3-3.8-1.9-6l12.8-25.2c1.1-2.2,3.8-3,6-1.9l25.2,12.8
			C926.5,637,927.4,639.6,926.3,641.8z"/>
	</g>
	
		<g id="g_21_00000010311769789941419170000006544729551079985071_" transform="matrix(1.0, 0.0, 0.0, 1.0, 0.0, 0.0)" inkscape:label="Group 1">
		<path id="path_22_00000181064105166855636390000002403872071047723683_" inkscape:label="Path 1" class="st7" d="M926.3,641.8
			l-11.2,22c-1.1,2.2-3.8,3-6,1.9l-22-11.2c-2.2-1.1-3-3.8-1.9-6l11.2-22c1.1-2.2,3.8-3,6-1.9l22,11.2
			C926.5,637,927.4,639.6,926.3,641.8z"/>
	</g>
</g>
<g id="g_18_00000065071590984879509180000007586965662240221850_" transform="matrix(0.7660444431189781, -0.6427876096865391, 0.6427876096865391, 0.7660444431189781, 394.6180416772572, 644.8780761665186)" inkscape:groupmode="layer" inkscape:label="13">
	
		<g id="g_19_00000015320693113827986240000016102759403965374391_" transform="matrix(1.0, 0.0, 0.0, 1.0, 0.0, 0.0)" inkscape:label="Group 2">
		<path id="path_20_00000158738469879488008540000018069710648827592895_" inkscape:label="Path 1" class="st6" d="M908,612.5
			l-27.8,5c-2.5,0.4-4.8-1.2-5.2-3.5l-5-27.8c-0.4-2.5,1.2-4.8,3.5-5.2l27.8-5c2.5-0.4,4.8,1.2,5.2,3.5l5,27.8
			C912,609.8,910.4,612.1,908,612.5z"/>
	</g>
	
		<g id="g_21_00000078725422205149637860000002365531268512558752_" transform="matrix(1.0, 0.0, 0.0, 1.0, 0.0, 0.0)" inkscape:label="Group 1">
		<path id="path_22_00000089547554714135088130000017247952453496373646_" inkscape:label="Path 1" class="st7" d="M908,612.5
			l-24.3,4.4c-2.5,0.4-4.8-1.2-5.2-3.5l-4.4-24.3c-0.4-2.5,1.2-4.8,3.5-5.2l24.3-4.4c2.5-0.4,4.8,1.2,5.2,3.5l4.4,24.3
			C912,609.8,910.4,612.1,908,612.5z"/>
	</g>
</g>
<g id="g_23" transform="matrix(0.5735764363510462, -0.8191520442889918, 0.8191520442889918, 0.5735764363510462, 334.18586874277617, 335.3490206096409)" inkscape:groupmode="layer" inkscape:label="16">
	<g id="g_24" transform="matrix(1.0, 0.0, 0.0, 1.0, 0.0, 0.0)" inkscape:label="Group 2">
		<path id="path_25" inkscape:label="Path 1" class="st8" d="M431.5,553.9l-12.8,25.2c-1.1,2.2-3.8,3-6,1.9l-25.2-12.8
			c-2.2-1.1-3-3.8-1.9-6l12.8-25.2c1.1-2.2,3.8-3,6-1.9l25.2,12.8C431.7,549,432.6,551.8,431.5,553.9z"/>
	</g>
	<g id="g_26" transform="matrix(1.0, 0.0, 0.0, 1.0, 0.0, 0.0)" inkscape:label="Group 1">
		<path id="path_27" inkscape:label="Path 1" class="st1" d="M431.5,553.9l-11.2,22c-1.1,2.2-3.8,3-6,1.9l-22-11.2
			c-2.2-1.1-3-3.8-1.9-6l11.2-22c1.1-2.2,3.8-3,6-1.9l22,11.2C431.7,549,432.6,551.8,431.5,553.9z"/>
	</g>
</g>
<g id="g_28" transform="matrix(0.9986295347545738, -0.05233595624294383, 0.05233595624294383, 0.9986295347545738, 53.408501343961575, 259.29994097137484)" inkscape:groupmode="layer" inkscape:label="19">
	<g id="g_29" transform="matrix(1.0, 0.0, 0.0, 1.0, 0.0, 0.0)" inkscape:label="Group 2">
		<path id="path_30" inkscape:label="Path 1" class="st6" d="M864,50.1l-12.8,25.2c-1.1,2.2-3.8,3-6,1.9L820,64.4
			c-2.2-1.1-3-3.8-1.9-6l12.8-25.2c1.1-2.2,3.8-3,6-1.9l25.2,12.8C864.3,45.2,865.1,47.9,864,50.1z"/>
	</g>
	<g id="g_31" transform="matrix(1.0, 0.0, 0.0, 1.0, 0.0, 0.0)" inkscape:label="Group 1">
		<path id="path_32" inkscape:label="Path 1" class="st7" d="M864,50.1l-11.2,22c-1.1,2.2-3.8,3-6,1.9l-22-11.2
			c-2.2-1.1-3-3.8-1.9-6l11.2-22c1.1-2.2,3.8-3,6-1.9l22,11.2C864.3,45.2,865.1,47.9,864,50.1z"/>
	</g>
</g>
<g id="g_33" transform="matrix(0.882947592858927, -0.4694715627858908, 0.4694715627858908, 0.882947592858927, 362.4809463928534, 407.5457688416466)" inkscape:groupmode="layer" inkscape:label="20">
	<g id="g_34" transform="matrix(1.0, 0.0, 0.0, 1.0, 0.0, 0.0)" inkscape:label="Group 2">
		<path id="path_35" inkscape:label="Path 1" class="st2" d="M765.3,405.5l-12.8,25.2c-1.1,2.2-3.8,3-6,1.9l-25.2-12.8
			c-2.2-1.1-3-3.8-1.9-6l12.8-25.2c1.1-2.2,3.8-3,6-1.9l25.2,12.8C765.4,400.7,766.3,403.3,765.3,405.5z"/>
	</g>
	<g id="g_36" transform="matrix(1.0, 0.0, 0.0, 1.0, 0.0, 0.0)" inkscape:label="Group 1">
		<path id="path_37" inkscape:label="Path 1" class="st3" d="M765.3,405.5l-11.2,22c-1.1,2.2-3.8,3-6,1.9l-22-11.2
			c-2.2-1.1-3-3.8-1.9-6l11.2-22c1.1-2.2,3.8-3,6-1.9l22,11.2C765.4,400.7,766.3,403.3,765.3,405.5z"/>
	</g>
</g>
<g id="g_38" transform="matrix(-0.05233595624294362, -0.9986295347545738, 0.9986295347545738, -0.05233595624294362, 555.8419409713748, 232.48149865603847)" inkscape:groupmode="layer" inkscape:label="21">
	<g id="g_39" transform="matrix(1.0, 0.0, 0.0, 1.0, 0.0, 0.0)" inkscape:label="Group 2">
		<path id="path_40" inkscape:label="Path 1" class="st9" d="M-62.8,605.2l-12.8,25.2c-1.1,2.2-3.8,3-6,1.9l-25.2-12.8
			c-2.2-1.1-3-3.8-1.9-6l12.8-25.2c1.1-2.2,3.8-3,6-1.9l25.2,12.8C-62.6,600.5-61.8,603.1-62.8,605.2z"/>
	</g>
	<g id="g_41" transform="matrix(1.0, 0.0, 0.0, 1.0, 0.0, 0.0)" inkscape:label="Group 1">
		<path id="path_42" inkscape:label="Path 1" class="st5" d="M-62.8,605.2l-11.2,22c-1.1,2.2-3.8,3-6,1.9l-22-11.2
			c-2.2-1.1-3-3.8-1.9-6l11.2-22c1.1-2.2,3.8-3,6-1.9l22,11.2C-62.6,600.5-61.8,603.1-62.8,605.2z"/>
	</g>
</g>
<g id="g_63" transform="matrix(1.0, 0.0, 0.0, 1.0, -190.0, -256.0)" inkscape:groupmode="layer" inkscape:label="4">
	<g id="g_64" transform="matrix(1.0, 0.0, 0.0, 1.0, 255.0, 305.0)" inkscape:groupmode="layer" inkscape:label="y 4">
		<g id="g_65" transform="matrix(1.0, 0.0, 0.0, 1.0, 0.0, 0.0)" inkscape:groupmode="layer" inkscape:label="x 4">
			<g id="g_66" transform="matrix(0.0, 0.0, 0.0, 0.0, -1.159, -1.451)" inkscape:groupmode="layer" inkscape:label="12">
				<g id="g_67" transform="matrix(1.0, 0.0, 0.0, 1.0, 0.0, 0.0)" inkscape:label="Group 2">
					<path id="path_68" inkscape:label="Path 1" class="st2" d="M960.1,191.5l-12.8,25.2c-1.1,2.2-3.8,3-6,1.9l-25.2-12.8
						c-2.2-1.1-3-3.8-1.9-6l12.8-25.2c1.1-2.2,3.8-3,6-1.9l25.2,12.8C960.4,186.7,961.2,189.3,960.1,191.5z"/>
				</g>
				<g id="g_69" transform="matrix(1.0, 0.0, 0.0, 1.0, 0.0, 0.0)" inkscape:label="Group 1">
					<path id="path_70" inkscape:label="Path 1" class="st3" d="M960.1,191.5l-11.2,22c-1.1,2.2-3.8,3-6,1.9l-22-11.2
						c-2.2-1.1-3-3.8-1.9-6l11.2-22c1.1-2.2,3.8-3,6-1.9l22,11.2C960.4,186.7,961.2,189.3,960.1,191.5z"/>
				</g>
			</g>
		</g>
	</g>
</g>
<g id="g_71" transform="matrix(1.0, 0.0, 0.0, 1.0, -256.0, -256.0)" inkscape:groupmode="layer" inkscape:label="7">
	<g id="y_7" transform="matrix(1.0, 0.0, 0.0, 1.0, 175.0, 305.0)" inkscape:groupmode="layer" inkscape:label="y 7">
		<g id="x_7" transform="matrix(1.0, 0.0, 0.0, 1.0, 0.0, 0.0)" inkscape:groupmode="layer" inkscape:label="x 7">
			<g id="g_72" transform="matrix(0.0, 0.0, 0.0, 0.0, -1.159, -1.451)" inkscape:groupmode="layer" inkscape:label="15">
				<g id="g_73" transform="matrix(1.0, 0.0, 0.0, 1.0, 0.0, 0.0)" inkscape:label="Group 2">
					<path id="path_74" inkscape:label="Path 1" class="st2" d="M1223.3,307.8l-12.8,25.2c-1.1,2.2-3.8,3-6,1.9l-25.2-12.8
						c-2.2-1.1-3-3.8-1.9-6l12.8-25.2c1.1-2.2,3.8-3,6-1.9l25.2,12.8C1223.6,302.9,1224.4,305.6,1223.3,307.8z"/>
				</g>
				<g id="g_75" transform="matrix(1.0, 0.0, 0.0, 1.0, 0.0, 0.0)" inkscape:label="Group 1">
					<path id="path_76" inkscape:label="Path 1" class="st3" d="M1223.3,307.8l-11.2,22c-1.1,2.2-3.8,3-6,1.9l-22-11.2
						c-2.2-1.1-3-3.8-1.9-6l11.2-22c1.1-2.2,3.8-3,6-1.9l22,11.2C1223.6,302.9,1224.4,305.6,1223.3,307.8z"/>
				</g>
			</g>
		</g>
	</g>
</g>
<g id="g_95" transform="matrix(1.0, 0.0, 0.0, 1.0, -256.0, -256.0)" inkscape:groupmode="layer" inkscape:label="6">
	<g id="y_6" transform="matrix(1.0, 0.0, 0.0, 1.0, 175.0, 285.0)" inkscape:groupmode="layer" inkscape:label="y 6">
		<g id="x_6" transform="matrix(1.0, 0.0, 0.0, 1.0, 0.0, 0.0)" inkscape:groupmode="layer" inkscape:label="x 6">
			<g id="g_96" transform="matrix(0.0, 0.0, 0.0, 0.0, -1.159, -1.451)" inkscape:groupmode="layer" inkscape:label="14">
				<g id="g_97" transform="matrix(1.0, 0.0, 0.0, 1.0, 0.0, 0.0)" inkscape:label="Group 2">
					<path id="path_98" inkscape:label="Path 1" class="st8" d="M1223.3,299.6l-12.8,25.2c-1.1,2.2-3.8,3-6,1.9l-25.2-12.8
						c-2.2-1.1-3-3.8-1.9-6l12.8-25.2c1.1-2.2,3.8-3,6-1.9l25.2,12.8C1223.6,294.8,1224.4,297.4,1223.3,299.6z"/>
				</g>
				<g id="g_99" transform="matrix(1.0, 0.0, 0.0, 1.0, 0.0, 0.0)" inkscape:label="Group 1">
					<path id="path_100" inkscape:label="Path 1" class="st1" d="M1223.3,299.6l-11.2,22c-1.1,2.2-3.8,3-6,1.9l-22-11.2
						c-2.2-1.1-3-3.8-1.9-6l11.2-22c1.1-2.2,3.8-3,6-1.9l22,11.2C1223.6,294.8,1224.4,297.4,1223.3,299.6z"/>
				</g>
			</g>
		</g>
	</g>
</g>
<g id="g_101" transform="matrix(1.0, 0.0, 0.0, 1.0, -256.0, -256.0)" inkscape:groupmode="layer" inkscape:label="8">
	<g id="y_8" transform="matrix(1.0, 0.0, 0.0, 1.0, 355.0, 325.0)" inkscape:groupmode="layer" inkscape:label="y 8">
		<g id="x_8" transform="matrix(1.0, 0.0, 0.0, 1.0, 0.0, 0.0)" inkscape:groupmode="layer" inkscape:label="x 8">
			<g id="g_102" transform="matrix(0.0, 0.0, 0.0, 0.0, -1.159, -1.451)" inkscape:groupmode="layer" inkscape:label="16">
				<g id="g_103" transform="matrix(1.0, 0.0, 0.0, 1.0, 0.0, 0.0)" inkscape:label="Group 2">
					<path id="path_104" inkscape:label="Path 1" class="st8" d="M974.6,199.7l-12.8,25.2c-1.1,2.2-3.8,3-6,1.9L930.6,214
						c-2.2-1.1-3-3.8-1.9-6l12.8-25.2c1.1-2.2,3.8-3,6-1.9l25.2,12.8C974.9,194.8,975.9,197.5,974.6,199.7z"/>
				</g>
				<g id="g_105" transform="matrix(1.0, 0.0, 0.0, 1.0, 0.0, 0.0)" inkscape:label="Group 1">
					<path id="path_106" inkscape:label="Path 1" class="st1" d="M974.6,199.7l-11.2,22c-1.1,2.2-3.8,3-6,1.9l-22-11.2
						c-2.2-1.1-3-3.8-1.9-6l11.2-22c1.1-2.2,3.8-3,6-1.9l22,11.2C974.9,194.8,975.9,197.5,974.6,199.7z"/>
				</g>
			</g>
		</g>
	</g>
</g>
<g id="g_110" transform="matrix(1.0, 0.0, 0.0, 1.0, -296.0, -256.0)" inkscape:groupmode="layer" inkscape:label="2">
	<g id="g_111" transform="matrix(1.0, 0.0, 0.0, 1.0, 255.0, 305.0)" inkscape:groupmode="layer" inkscape:label="y 2">
		<g id="g_112" transform="matrix(1.0, 0.0, 0.0, 1.0, 0.0, 0.0)" inkscape:groupmode="layer" inkscape:label="x 2">
			<g id="g_113" transform="matrix(0.0, 0.0, 0.0, 0.0, -1.159, -1.451)" inkscape:groupmode="layer" inkscape:label="9">
				<g id="g_114" transform="matrix(1.0, 0.0, 0.0, 1.0, 0.0, 0.0)" inkscape:label="Group 2">
					<path id="path_115" inkscape:label="Path 1" class="st6" d="M1239.7,307.8l-12.8,25.2c-1.1,2.2-3.8,3-6,1.9l-25.2-12.8
						c-2.2-1.1-3-3.8-1.9-6l12.8-25.2c1.1-2.2,3.8-3,6-1.9l25.2,12.8C1239.9,302.9,1240.7,305.6,1239.7,307.8z"/>
				</g>
				<g id="g_116" transform="matrix(1.0, 0.0, 0.0, 1.0, 0.0, 0.0)" inkscape:label="Group 1">
					<path id="path_117" inkscape:label="Path 1" class="st7" d="M1239.7,307.8l-11.2,22c-1.1,2.2-3.8,3-6,1.9l-22-11.2
						c-2.2-1.1-3-3.8-1.9-6l11.2-22c1.1-2.2,3.8-3,6-1.9l22,11.2C1239.9,302.9,1240.7,305.6,1239.7,307.8z"/>
				</g>
			</g>
		</g>
	</g>
</g>
<g id="g_126_00000165235807418460049870000006376843962197835684_" transform="matrix(1.0, 0.0, 0.0, 1.0, -256.0, -256.0)" inkscape:groupmode="layer" inkscape:label="8">
	
		<g id="g_127_00000000200702545325445700000001949037176706216348_" transform="matrix(1.0, 0.0, 0.0, 1.0, 355.0, 325.0)" inkscape:groupmode="layer" inkscape:label="y 8">
		
			<g id="g_128_00000116215780607261084010000011429342515740951185_" transform="matrix(1.0, 0.0, 0.0, 1.0, 0.0, 0.0)" inkscape:groupmode="layer" inkscape:label="x 8">
			
				<g id="g_129_00000028300148035021704520000017846600849816195254_" transform="matrix(0.0, 0.0, 0.0, 0.0, -1.159, -1.451)" inkscape:groupmode="layer" inkscape:label="16">
				
					<g id="g_130_00000164513895894809112600000006503986273600713643_" transform="matrix(1.0, 0.0, 0.0, 1.0, 0.0, 0.0)" inkscape:label="Group 2">
					<path id="path_131_00000163760036938826041190000003045281441966957477_" inkscape:label="Path 1" class="st8" d="M843.2-23.6
						L830.4,1.6c-1.1,2.2-3.8,3-6,1.9L799.2-9.3c-2.2-1.1-3-3.8-1.9-6l12.8-25.2c1.1-2.2,3.8-3,6-1.9l25.2,12.8
						C843.5-28.4,844.3-25.8,843.2-23.6z"/>
				</g>
				
					<g id="g_132_00000147916609741465541310000005447918332453529484_" transform="matrix(1.0, 0.0, 0.0, 1.0, 0.0, 0.0)" inkscape:label="Group 1">
					<path id="path_133_00000082343832468380942800000014541849464039205527_" inkscape:label="Path 1" class="st1" d="M843.2-23.6
						L832-1.7c-1.1,2.2-3.8,3-6,1.9l-22-11.2c-2.2-1.1-3-3.8-1.9-6l11.2-22c1.1-2.2,3.8-3,6-1.9l22,11.2
						C843.5-28.4,844.3-25.8,843.2-23.6z"/>
				</g>
			</g>
		</g>
	</g>
</g>
<g id="g_148" transform="matrix(1.0, 0.0, 0.0, 1.0, -256.0, -256.0)" inkscape:groupmode="layer" inkscape:label="4">
	<g id="g_149" transform="matrix(1.0, 0.0, 0.0, 1.0, 255.0, 305.0)" inkscape:groupmode="layer" inkscape:label="y 4">
		<g id="g_150" transform="matrix(1.0, 0.0, 0.0, 1.0, 0.0, 0.0)" inkscape:groupmode="layer" inkscape:label="x 4">
			<g id="g_151" transform="matrix(0.0, 0.0, 0.0, 0.0, -1.159, -1.451)" inkscape:groupmode="layer" inkscape:label="12">
				<g id="g_152" transform="matrix(1.0, 0.0, 0.0, 1.0, 0.0, 0.0)" inkscape:label="Group 2">
					<path id="path_153" inkscape:label="Path 1" class="st2" d="M1250.9,309.5l-12.8,25.2c-1.1,2.2-3.8,3-6,1.9l-25.2-12.8
						c-2.2-1.1-3-3.8-1.9-6l12.8-25.2c1.1-2.2,3.8-3,6-1.9l25.2,12.8C1251.1,304.6,1251.9,307.3,1250.9,309.5z"/>
				</g>
				<g id="g_154" transform="matrix(1.0, 0.0, 0.0, 1.0, 0.0, 0.0)" inkscape:label="Group 1">
					<path id="path_155" inkscape:label="Path 1" class="st3" d="M1250.9,309.5l-11.2,22c-1.1,2.2-3.8,3-6,1.9l-22-11.2
						c-2.2-1.1-3-3.8-1.9-6l11.2-22c1.1-2.2,3.8-3,6-1.9l22,11.2C1251.1,304.6,1251.9,307.3,1250.9,309.5z"/>
				</g>
			</g>
		</g>
	</g>
</g>
<g id="g_156" transform="matrix(1.0, 0.0, 0.0, 1.0, -256.0, -256.0)" inkscape:groupmode="layer" inkscape:label="5">
	<g id="g_157" transform="matrix(0.0, 0.0, 0.0, 0.0, 313.841, 303.549)" inkscape:groupmode="layer" inkscape:label="13">
		<g id="g_158" transform="matrix(1.0, 0.0, 0.0, 1.0, 0.0, 0.0)" inkscape:label="Group 2">
			<path id="path_159" inkscape:label="Path 1" class="st6" d="M1073.5,379l-12.8,25.2c-1.1,2.2-3.8,3-6,1.9l-25.2-12.8
				c-2.2-1.1-3-3.8-1.9-6l12.8-25.2c1.1-2.2,3.8-3,6-1.9l25.2,12.8C1073.7,374.1,1074.7,376.8,1073.5,379z"/>
		</g>
		<g id="g_160" transform="matrix(1.0, 0.0, 0.0, 1.0, 0.0, 0.0)" inkscape:label="Group 1">
			<path id="path_161" inkscape:label="Path 1" class="st7" d="M1073.5,379l-11.2,22c-1.1,2.2-3.8,3-6,1.9l-22-11.2
				c-2.2-1.1-3-3.8-1.9-6l11.2-22c1.1-2.2,3.8-3,6-1.9l22,11.2C1073.7,374.1,1074.7,376.8,1073.5,379z"/>
		</g>
	</g>
</g>
<g id="g_162" transform="matrix(1.0, 0.0, 0.0, 1.0, -256.0, -256.0)" inkscape:groupmode="layer" inkscape:label="7">
	<g id="g_163" transform="matrix(1.0, 0.0, 0.0, 1.0, 175.0, 305.0)" inkscape:groupmode="layer" inkscape:label="y 7">
		<g id="g_164" transform="matrix(1.0, 0.0, 0.0, 1.0, 0.0, 0.0)" inkscape:groupmode="layer" inkscape:label="x 7">
			<g id="g_165" transform="matrix(0.0, 0.0, 0.0, 0.0, -1.159, -1.451)" inkscape:groupmode="layer" inkscape:label="15">
				<g id="g_166" transform="matrix(1.0, 0.0, 0.0, 1.0, 0.0, 0.0)" inkscape:label="Group 2">
					<path id="path_167" inkscape:label="Path 1" class="st2" d="M1223.3,307.8l-12.8,25.2c-1.1,2.2-3.8,3-6,1.9l-25.2-12.8
						c-2.2-1.1-3-3.8-1.9-6l12.8-25.2c1.1-2.2,3.8-3,6-1.9l25.2,12.8C1223.6,302.9,1224.4,305.6,1223.3,307.8z"/>
				</g>
				<g id="g_168" transform="matrix(1.0, 0.0, 0.0, 1.0, 0.0, 0.0)" inkscape:label="Group 1">
					<path id="path_169" inkscape:label="Path 1" class="st3" d="M1223.3,307.8l-11.2,22c-1.1,2.2-3.8,3-6,1.9l-22-11.2
						c-2.2-1.1-3-3.8-1.9-6l11.2-22c1.1-2.2,3.8-3,6-1.9l22,11.2C1223.6,302.9,1224.4,305.6,1223.3,307.8z"/>
				</g>
			</g>
		</g>
	</g>
</g>
<g id="master" transform="matrix(1.0, 0.0, 0.0, 1.0, -48.0, 40.0)" inkscape:groupmode="layer" inkscape:label="master">
	<g id="body_ctrl" transform="matrix(1.0, 0.0, 0.0, 1.0, 0.0, 0.0)" inkscape:groupmode="layer" inkscape:label="body ctrl">
		<g id="bodyface" transform="matrix(1.0, 0.0, 0.0, 1.0, 0.0, -40.0)" inkscape:groupmode="layer" inkscape:label="bodyface">
			<g id="hat" transform="matrix(1.0, 0.0, 0.0, 1.0, 0.0, 0.0)" inkscape:groupmode="layer" inkscape:label="hat">
				<g id="Group_21" transform="matrix(1.0, 0.0, 0.0, 1.0, 0.0, 0.0)" inkscape:label="Group 21">
					<path id="path_170" inkscape:label="Path 1" class="st10" d="M910.9,321.6L763.2,461.4l-31.6-115.7l0,0l-7.4-27l-7.9-28.9v-0.1
						l-6.1-22.5c-0.3-0.8-0.3-1.6-0.3-2.5l0,0c0.3-3.7,3.4-6.5,7.1-6.5h0.1c0,0,1.4,0.1,2,0.4l22.2,7.4l30.4,10l24.5,8l0,0
						L902,318.6L910.9,321.6z"/>
				</g>
				<g id="Group_19" transform="matrix(1.0, 0.0, 0.0, 1.0, 0.0, 0.0)" inkscape:label="Group 19">
					<path id="path_171" inkscape:label="Path 1" class="st11" d="M771.8,275.9c-6.7,3.7-13.9,8.5-21,14.2l-19.2-15.8
						c3.3-3,6.7-5.7,10-8.3L771.8,275.9z"/>
				</g>
				<g id="Group_18" transform="matrix(1.0, 0.0, 0.0, 1.0, 0.0, 0.0)" inkscape:label="Group 18">
					<path id="path_172" inkscape:label="Path 1" class="st11" d="M839.7,298.3c0,0-24.4,6.5-48.5,24.9l-23.6-19.4
						c10.1-8.5,19.9-15,28.8-19.9l0,0L839.7,298.3z"/>
				</g>
				<g id="Group_17" transform="matrix(1.0, 0.0, 0.0, 1.0, 0.0, 0.0)" inkscape:label="Group 17">
					<path id="path_173" inkscape:label="Path 1" class="st11" d="M902,318.8l-4.5,14l-51.4,35.4l-38.2-31.4
						c28.5-23.2,55.5-30.4,56.2-30.7l0,0L902,318.8z"/>
				</g>
				<g id="Group_16" transform="matrix(1.0, 0.0, 0.0, 1.0, 0.0, 0.0)" inkscape:label="Group 16">
					<path id="path_174" inkscape:label="Path 1" class="st12" d="M790.1,436l-26.9,25.5l-31.6-115.7l0,0l-7.4-27l-7.9-28.9v-0.1
						l-6.1-22.5c-0.3-0.8-0.3-1.6-0.3-2.5l0,0l0.1-1l1.9-1l73.5,155.7L790.1,436z"/>
				</g>
				<g id="Group_15" transform="matrix(1.0, 0.0, 0.0, 1.0, 0.0, 0.0)" inkscape:label="Group 15">
					<path id="path_175" inkscape:label="Path 1" class="st13" d="M864.1,306.2c-0.7,0.1-27.7,7.5-56.2,30.7l-16.6-13.6
						c24.1-18.5,48.5-24.9,48.5-24.9l0,0L864.1,306.2z"/>
				</g>
				<g id="Group_14" transform="matrix(1.0, 0.0, 0.0, 1.0, 0.0, 0.0)" inkscape:label="Group 14">
					<path id="path_176" inkscape:label="Path 1" class="st14" d="M807.9,336.9c-21.1,17.2-43.2,43.2-56,81.7l-7.4-25.5
						c8.3-32.9,27.7-55.1,46.8-69.8L807.9,336.9z"/>
				</g>
				<g id="Group_13" transform="matrix(1.0, 0.0, 0.0, 1.0, 0.0, 0.0)" inkscape:label="Group 13">
					<path id="path_177" inkscape:label="Path 1" class="st13" d="M796.3,284c-8.7,4.9-18.7,11.3-28.8,19.9l-16.8-13.8
						c7.1-5.7,14.3-10.4,21-14.2L796.3,284z"/>
				</g>
				<g id="Group_12" transform="matrix(1.0, 0.0, 0.0, 1.0, 0.0, 0.0)" inkscape:label="Group 12">
					<path id="path_178" inkscape:label="Path 1" class="st14" d="M767.6,303.9c-12.5,10.6-25.2,24.3-36,41.9l-7.4-27
						c7.9-11.7,17.2-21.1,26.6-28.6L767.6,303.9z"/>
				</g>
				<g id="Group_11" transform="matrix(1.0, 0.0, 0.0, 1.0, 0.0, 0.0)" inkscape:label="Group 11">
					<path id="path_179" inkscape:label="Path 1" class="st13" d="M741.5,266c-3.3,2.6-6.5,5.3-10,8.3l-16.9-13.8
						c0.8-0.7,1.6-1.5,2.6-2.2c0,0,1.4,0.1,2,0.4L741.5,266z"/>
				</g>
				<g id="Group_10" transform="matrix(1.0, 0.0, 0.0, 1.0, 0.0, 0.0)" inkscape:label="Group 10">
					<path id="path_180" inkscape:label="Path 1" class="st15" d="M731.6,274.3c-5.2,4.6-10.2,9.8-15.1,15.5v-0.1l-6.4-24.9l0,0
						c1.5-1.5,3.1-3,4.8-4.4L731.6,274.3z"/>
				</g>
				<g id="Group_9" transform="matrix(1.0, 0.0, 0.0, 1.0, 0.0, 0.0)" inkscape:label="Group 9">
					<path id="path_181" inkscape:label="Path 1" class="st16" d="M721.9,283.7c-1.9,2-3.7,4.1-5.6,6.1v-0.1l-6.4-24.9l0,0
						c0.7-0.7,1.4-1.4,2.2-2L721.9,283.7z"/>
				</g>
				<g id="Group_8" transform="matrix(1.0, 0.0, 0.0, 1.0, 0.0, 0.0)" inkscape:label="Group 8">
					<path id="path_182" inkscape:label="Path 1" class="st16" d="M743.3,329c-4.1,5.2-8,10.8-11.7,16.8l-7.4-27
						c2.7-4.1,5.7-7.9,8.9-11.5L743.3,329z"/>
				</g>
				<g id="Group_7" transform="matrix(1.0, 0.0, 0.0, 1.0, 0.0, 0.0)" inkscape:label="Group 7">
					<path id="path_183" inkscape:label="Path 1" class="st16" d="M768.5,382.3c-6.4,10.6-12.1,22.6-16.6,36.3l-7.4-25.5
						c3.1-12.4,7.9-23.3,13.5-32.9L768.5,382.3z"/>
				</g>
				<g id="Group_6" transform="matrix(1.0, 0.0, 0.0, 1.0, 0.0, 0.0)" inkscape:label="Group 6">
					<g id="Group_3" transform="matrix(1.0, 0.0, 0.0, 1.0, 0.0, 0.0)" inkscape:label="Group 3">
						<path id="path_184" inkscape:label="Path 1" class="st17" d="M741.5,266l30.4,10c-2.6,1.5-5.2,3-7.9,4.8l-44.7-22L741.5,266z"
							/>
					</g>
					<g id="g_185" transform="matrix(1.0, 0.0, 0.0, 1.0, 0.0, 0.0)" inkscape:label="Group 2">
						<path id="path_186" inkscape:label="Path 1" class="st17" d="M839.7,298.3c0,0-9.5,2.6-22.2,8.7l-32.6-16.1
							c4-2.6,7.8-4.9,11.5-7l0,0L839.7,298.3z"/>
					</g>
					<g id="g_187" transform="matrix(1.0, 0.0, 0.0, 1.0, 0.0, 0.0)" inkscape:label="Group 1">
						<path id="path_188" inkscape:label="Path 1" class="st17" d="M910.9,321.6L889,342.2l-51-25.1c14.9-7.8,26-10.9,26-10.9l0,0
							L910.9,321.6z"/>
					</g>
				</g>
				<g id="Group_5" transform="matrix(1.0, 0.0, 0.0, 1.0, 0.0, 0.0)" inkscape:label="Group 5">
					<path id="path_189" inkscape:label="Path 1" class="st18" d="M864.1,306.2c0,0-11.2,3-26,10.9L817.6,307
						c12.7-6.1,22.2-8.7,22.2-8.7l0,0L864.1,306.2z"/>
				</g>
				<g id="Group_4" transform="matrix(1.0, 0.0, 0.0, 1.0, 0.0, 0.0)" inkscape:label="Group 4">
					<path id="path_190" inkscape:label="Path 1" class="st18" d="M796.3,284c-3.7,2-7.5,4.4-11.5,7L764,280.7
						c2.7-1.6,5.3-3.3,7.9-4.8L796.3,284z"/>
				</g>
				<g id="g_191" transform="matrix(1.0, 0.0, 0.0, 1.0, 0.0, 0.0)" inkscape:label="Group 3">
					<path id="path_192" inkscape:label="Path 1" class="st19" d="M763.2,461.4l-52.9-194.1c-1.5-5.5,3.7-10.4,9-8.6l191.7,63
						L763.2,461.4z"/>
				</g>
				<g id="Group_22" transform="matrix(1.0, 0.0, 0.0, 1.0, 0.0, 0.0)" inkscape:label="Group 22">
					<g id="g_193" transform="matrix(1.0, 0.0, 0.0, 1.0, 0.0, 0.0)" inkscape:label="Group 2">
						<path id="path_194" inkscape:label="Path 1" class="st20" d="M814.6,305.7l16.1,7.9"/>
					</g>
					<g id="g_195" transform="matrix(1.0, 0.0, 0.0, 1.0, 0.0, 0.0)" inkscape:label="Group 1">
						<path id="path_196" inkscape:label="Path 1" class="st20" d="M794.8,295.8l6.3,3.1"/>
					</g>
				</g>
			</g>
			<g id="g_197" transform="matrix(0.97, 0.0, 0.0, 0.97, -211.99868, -198.50768)" inkscape:label="Group 7">
				<g id="g_198" transform="matrix(1.0, 0.0, 0.0, 1.0, 215.644, 215.645)" inkscape:label="Group 6">
					
						<linearGradient id="path_199_00000155129735424510709700000006437952498288392355_" gradientUnits="userSpaceOnUse" x1="849.0261" y1="26.8143" x2="851.7529" y2="524.9736" gradientTransform="matrix(0.9719 0 0 0.9719 212.9905 288.5618)">
						<stop  offset="0" style="stop-color:#FDCF18"/>
						<stop  offset="0.465" style="stop-color:#F5AB0C"/>
						<stop  offset="0.93" style="stop-color:#ED8700"/>
					</linearGradient>
					
						<path id="path_199" inkscape:label="Path 1" style="fill:url(#path_199_00000155129735424510709700000006437952498288392355_);" d="
						M1314.1,563.2c0,151.6-123,274.6-274.6,274.6S765,714.8,765,563.2s123-274.6,274.6-274.6
						C1191.2,288.6,1314.1,411.5,1314.1,563.2z"/>
				</g>
				<g id="g_201" transform="matrix(1.0, 0.0, 0.0, 1.0, 215.702, 213.717)" inkscape:label="Group 4">
					
						<radialGradient id="path_202_00000000204180613701313440000013329709344667740564_" cx="841.5093" cy="49.7414" r="467.1883" gradientTransform="matrix(0.9719 0 0 0.9719 213.1069 288.5561)" gradientUnits="userSpaceOnUse">
						<stop  offset="7.099999e-02" style="stop-color:#FEFEE2"/>
						<stop  offset="0.282" style="stop-color:#FDEE8C"/>
						<stop  offset="0.492" style="stop-color:#FCDE36"/>
						<stop  offset="0.821" style="stop-color:#F5B820"/>
						<stop  offset="1" style="stop-color:#EE910A"/>
					</radialGradient>
					
						<path id="path_202" inkscape:label="Path 1" style="fill:url(#path_202_00000000204180613701313440000013329709344667740564_);" d="
						M1284.3,566.2c-2.2,138.1-113.4,248.5-248.7,246.5s-243.1-115.7-240.9-254c2.2-138.1,113.4-248.5,248.7-246.5
						C1178.5,314.2,1286.5,427.9,1284.3,566.2z"/>
				</g>
				<g id="g_204" transform="matrix(1.0, 0.0, 0.0, 1.0, 215.644, 215.645)" inkscape:label="Group 5">
					<path id="path_205" inkscape:label="Path 1" class="st23" d="M1314.1,563.2c0,151.6-123,274.6-274.6,274.6S765,714.8,765,563.2
						s123-274.6,274.6-274.6C1191.2,288.6,1314.1,411.5,1314.1,563.2z"/>
				</g>
			</g>
			<g id="face" transform="matrix(1.0, 0.0, 0.0, 1.0, 0.0, 0.0)" inkscape:groupmode="layer" inkscape:label="face">
				
					<g id="Cheeks" transform="matrix(0.92, 0.0, 0.0, 0.92, -1.9744000000000002, 14.588799999999996)" inkscape:groupmode="layer" inkscape:label="Cheeks" class="st24">
					<g id="R" transform="matrix(1.0, 0.0, 0.0, 1.0, 0.0, 0.0)" inkscape:label="R" class="st25">
						
							<radialGradient id="path_206_00000145044612288963030880000005683846682113385883_" cx="1195.5852" cy="319.8824" r="91.2261" gradientTransform="matrix(0.8744 0 0 0.8744 234.5813 357.381)" gradientUnits="userSpaceOnUse">
							<stop  offset="0" style="stop-color:#F10C1C"/>
							<stop  offset="0.594" style="stop-color:#E01D21;stop-opacity:0.5"/>
							<stop  offset="1" style="stop-color:#CF2D26;stop-opacity:0"/>
						</radialGradient>
						
							<path id="path_206" inkscape:label="Path 1" style="fill:url(#path_206_00000145044612288963030880000005683846682113385883_);" d="
							M1374.8,637.7c0,29.4-13.5,55.8-34.8,73.1c-16.2,13.2-36.9,21.1-59.4,21.1c-51.9,0-94.2-42.1-94.2-94.2
							c0-52.1,42.1-94.2,94.2-94.2c21.4,0,41.2,7.2,57,19.2C1360.2,580.1,1374.8,607.2,1374.8,637.7z"/>
					</g>
					<g id="L" transform="matrix(1.0, 0.0, 0.0, 1.0, 0.0, 0.0)" inkscape:label="L" class="st25">
						
							<radialGradient id="path_208_00000153677960445013517460000007438962813615228341_" cx="775.1708" cy="319.8824" r="91.1683" gradientTransform="matrix(0.8744 0 0 0.8744 234.5813 357.381)" gradientUnits="userSpaceOnUse">
							<stop  offset="0" style="stop-color:#F10C1C"/>
							<stop  offset="0.594" style="stop-color:#E01D21;stop-opacity:0.5"/>
							<stop  offset="1" style="stop-color:#CF2D26;stop-opacity:0"/>
						</radialGradient>
						
							<path id="path_208" inkscape:label="Path 1" style="fill:url(#path_208_00000153677960445013517460000007438962813615228341_);" d="
							M1007.7,637.7c0,33.3-17.3,62.6-43.4,79.2c-14.7,9.4-32.2,14.9-50.9,14.9c-51.9,0-94.2-42.1-94.2-94.2
							c0-44.9,31.5-82.5,73.5-91.9c6.7-1.5,13.5-2.3,20.6-2.3C965.5,543.5,1007.7,585.8,1007.7,637.7z"/>
					</g>
				</g>
				<g id="eye_R" transform="matrix(1.0, 0.0, 0.0, 1.0, 0.0, 0.5)" inkscape:groupmode="layer" inkscape:label="eye_R">
					<g id="g_210" transform="matrix(1.0, 0.0, 0.0, 1.0, 0.0, 0.0)" inkscape:label="Group 3">
						<path id="path_211" inkscape:label="Path 1" class="st28" d="M1138.9,551c-14.3-13.1-42.9-24.1-72.1-18.7
							c-36,6.7-32,37.2-16.6,41.7c17,5,32.4-11.6,69.1,2.5C1146.7,587,1153.7,564.5,1138.9,551z"/>
					</g>
					<g id="g_212" transform="matrix(1.0, 0.0, 0.0, 1.0, 0.0, 0.0)" inkscape:label="Group 2">
						<path id="path_213" inkscape:label="Path 1" class="st29" d="M1137.2,547.8c-14.3-12.3-39.8-21.3-69-16.2
							c-35.9,6.1-30.9,31.2-18,34.9c17,4.8,32.3-10.6,69.1,2.6C1146.9,578.9,1151.9,560.5,1137.2,547.8z"/>
					</g>
					<g id="g_214" transform="matrix(1.0, 0.0, 0.0, 1.0, 0.0, 0.0)" inkscape:label="Group 1">
						<path id="path_215" inkscape:label="Path 1" class="st30" d="M1144.4,566.2c-1.2-3.3-3.5-6.7-7.2-9.8
							c-14.3-12.3-39.8-21.3-69-16.2c-16.9,2.9-24.8,10-27,17.2c-2.9-9,2.9-21.7,27-25.8c29.2-4.9,54.7,4,69,16.2
							C1144.3,554,1146.9,561.3,1144.4,566.2z"/>
					</g>
				</g>
				
					<g id="eye_L" transform="matrix(1.0, 0.0, 0.0, 1.0, -0.08500000000000796, 0.5340000000000007)" inkscape:groupmode="layer" inkscape:label="eye_L">
					<g id="g_216" transform="matrix(1.0, 0.0, 0.0, 1.0, 0.0, 0.0)" inkscape:label="Group 3">
						<path id="path_217" inkscape:label="Path 1" class="st28" d="M871.2,551c14.3-13.1,42.9-24.1,72.1-18.7
							c36,6.7,32,37.2,16.6,41.7c-17,5-32.4-11.6-69.1,2.5C863.4,587,856.4,564.5,871.2,551z"/>
					</g>
					<g id="g_218" transform="matrix(1.0, 0.0, 0.0, 1.0, 0.0, 0.0)" inkscape:label="Group 2">
						<path id="path_219" inkscape:label="Path 1" class="st29" d="M872.9,547.9c14.3-12.3,39.8-21.3,69-16.2
							c35.9,6.1,30.9,31.2,18,34.9c-17,4.8-32.3-10.6-69.1,2.6C863.4,578.9,858.2,560.5,872.9,547.9z"/>
					</g>
					<g id="g_220" transform="matrix(1.0, 0.0, 0.0, 1.0, 0.0, 0.0)" inkscape:label="Group 1">
						<path id="path_221" inkscape:label="Path 1" class="st30" d="M865.7,566.3c1.2-3.3,3.5-6.7,7.2-9.8
							c14.3-12.3,39.8-21.3,69-16.2c16.9,2.9,24.8,10,27,17.2c2.9-9-2.9-21.7-27-25.8c-29.2-4.9-54.7,4-69,16.2
							C865.8,554,863.4,561.4,865.7,566.3z"/>
					</g>
				</g>
				<g id="mouth" transform="matrix(1.0, 0.0, 0.0, 1.0, 0.0, 0.0)" inkscape:groupmode="layer" inkscape:label="mouth">
					<g id="g_222" transform="matrix(1.0, 0.0, 0.0, 1.0, 0.0, 0.0)" inkscape:label="Group 6">
						<path id="path_223" inkscape:label="Path 1" class="st31" d="M1006.6,622.9c5.9-2,50.2,1.4,68.3,19.5
							c14.7,14.7-14.6,39.9-27.8,46.8c-1.9,1-1.2,6.8,0.5,8.2c9.8,7.9,28.6,18,30.3,30.1c2.3,18-50.4,31.6-70.8,27.7
							c-4.6-0.8-3.8-8.2,1-10.4c14.7-6.5,48.3-8.6,48.3-15.8c0-13.1-42.3-24.3-42.3-42.1c0-13,42.5-14.6,42-27.8
							C1055.4,646.5,988.8,629.1,1006.6,622.9z"/>
					</g>
					<g id="g_224" transform="matrix(1.0, 0.0, 0.0, 1.0, 0.0, 0.0)" inkscape:label="Group 5">
						<path id="path_225" inkscape:label="Path 1" class="st29" d="M1008.1,750c-4.6-0.8-3.3-4.6,1.6-6.8c14.7-6.5,47-16,46.8-23.2
							c-0.3-6.5-17.7-14.3-30.1-22c-7-4.2-12.3-8.3-12-12.1c0.3-5.6,8.2-10.5,16.9-15.4c11.7-6.5,25.2-12.8,24.9-20.5
							c-0.5-12.5-65.9-22.1-48.1-28.2c5.9-2,47.6,1.2,65.7,19.4c9.1,9.1,1,20.5-9.1,29.3c-6.1,5.5-13,10-17,12.7
							c-1.8,1.2-1.6,3.7,0.1,5c3.7,2.9,8.5,6.1,13.2,9.7c8.2,6,16,12.8,16.9,20.5C1080.2,736.5,1028.4,753.8,1008.1,750z"/>
					</g>
					<g id="g_226" transform="matrix(1.0, 0.0, 0.0, 1.0, 0.0, 0.0)" inkscape:label="Group 4">
						<path id="path_227" inkscape:label="Path 1" class="st30" d="M1055.1,654l-0.4,0.7l-0.3,0.3l-0.5,0.7l-0.3,0.3
							c-8.9,10.4-38.7,19-39.3,29.9c0,1,0.3,2,1,3.1c6.3-11.5,41.4-20.5,40.9-32.7v-6C1056.2,651.5,1055.8,652.8,1055.1,654z"/>
					</g>
					<g id="g_228" transform="matrix(1.0, 0.0, 0.0, 1.0, 0.0, 0.0)" inkscape:label="Group 3">
						<path id="path_229" inkscape:label="Path 1" class="st30" d="M1077.2,653.2c-0.5-2-1.6-4-3.5-5.9c-17-17-54.9-20.9-64.2-19.6
							c-4.9-2.3-6.4-4.2-1.4-6c5.9-2,47.6,1.2,65.7,19.4C1077.5,644.9,1078.3,649,1077.2,653.2z"/>
					</g>
					<g id="g_230" transform="matrix(1.0, 0.0, 0.0, 1.0, 0.0, 0.0)" inkscape:label="Group 2">
						<path id="path_231" inkscape:label="Path 1" class="st30" d="M1077.9,718.5c-1.5-11.9-19.5-21.8-29.4-29.6l0,0l-0.8-0.5
							c-1-0.7-1.4-1.8-1.4-2.7v6.5l0,0c0.1,1,0.5,1.8,1.4,2.5c9.1,7.5,26.6,16.8,29.7,28.1C1077.9,721.2,1078,719.9,1077.9,718.5z"
							/>
					</g>
					<g id="g_232" transform="matrix(1.0, 0.0, 0.0, 1.0, 0.0, 0.0)" inkscape:label="Group 1">
						<path id="path_233" inkscape:label="Path 1" class="st30" d="M1055,722.9c-6.4,6.8-32.4,14.6-45.3,20.3
							c-4.8,2.2-6.1,5.9-1.6,6.8l0.4,0.1l1.1-0.5c14.7-6.5,47-16,46.8-23.3v-6.1C1056.5,720.9,1055.9,721.9,1055,722.9z"/>
					</g>
				</g>
				<g id="blower" transform="matrix(1.0, 0.0, 0.0, 1.0, 0.0, 0.0)" inkscape:groupmode="layer" inkscape:label="blower">
					<g id="blowout" transform="matrix(1.0, 0.0, 0.0, 1.0, 0.0, 0.0)" inkscape:groupmode="layer" inkscape:label="blowout">
						<g id="oof" transform="matrix(1.0, 0.0, 0.0, 1.0, 0.0, 0.0)" inkscape:groupmode="layer" inkscape:label="oof">
							
								<g id="round_part" transform="matrix(1.0, -2.4492935982947064e-16, 2.4492935982947064e-16, 1.0, -2.842170943040401e-14, 4.263256414560601e-14)" inkscape:groupmode="layer" inkscape:label="round part">
								<g id="line1" transform="matrix(1.0, 0.0, 0.0, 1.0, 0.0, 0.0)" inkscape:label="line1">
									<path class="st32" d="M1244.6,684.5l13.8-0.1c26.3-4.1,43.8-30.7,30.8-54.3c-19.2-35-58.8-17.9-58.8,2.9
										c0,31.1,46.4,26.3,31.4,2.6"/>
								</g>
							</g>
							
								<g id="round_oofs_top_2" transform="matrix(1.0, -2.4492935982947064e-16, 2.4492935982947064e-16, 1.0, -2.842170943040401e-14, 4.263256414560601e-14)" inkscape:groupmode="layer" inkscape:label="round oofs top 2">
								<g id="oofs1" transform="matrix(1.0, 0.0, 0.0, 1.0, 0.0, 0.0)" inkscape:label="oofs1">
									<g id="g_234" transform="matrix(1.0, 0.0, 0.0, 1.0, 0.0, 0.0)" inkscape:label="Group 14">
										<path id="path_235" inkscape:label="Path 1" class="st33" d="M1290.7,681c0,0,10.6-10,13.5-23.9
											C1304.3,657,1282.5,659.3,1290.7,681z"/>
									</g>
									<g id="g_236" transform="matrix(1.0, 0.0, 0.0, 1.0, 0.0, 0.0)" inkscape:label="Group 13">
										<path id="path_237" inkscape:label="Path 1" class="st33" d="M1274.2,654.8c0,0,6.5-10.5-1.1-23.6
											C1273.1,631.2,1256.9,643.2,1274.2,654.8z"/>
									</g>
									<g id="g_238" transform="matrix(1.0, 0.0, 0.0, 1.0, 0.0, 0.0)" inkscape:label="Group 4">
										<path id="path_239" inkscape:label="Path 1" class="st33" d="M1224,652.6c0,0,4.4,10.2,19.4,13.5
											C1243.2,666.1,1243.5,645.6,1224,652.6z"/>
									</g>
									<g id="g_240" transform="matrix(1.0, 0.0, 0.0, 1.0, 0.0, 0.0)" inkscape:label="Group 3">
										<path id="path_241" inkscape:label="Path 1" class="st33" d="M1241.9,601.5c0,0-12,4.4-18.3,14.9
											C1223.6,616.4,1242.8,622.2,1241.9,601.5z"/>
									</g>
									<g id="g_242" transform="matrix(1.0, 0.0, 0.0, 1.0, 0.0, 0.0)" inkscape:label="Group 2">
										<path id="path_243" inkscape:label="Path 1" class="st33" d="M1298.7,622.5c0,0-5.5-10.6-16-17.3
											C1282.8,605.2,1278,624.7,1298.7,622.5z"/>
									</g>
								</g>
								<g id="shade1" transform="matrix(1.0, 0.0, 0.0, 1.0, 0.0, 0.0)" inkscape:label="shade1" class="st34">
									<path class="st35" d="M1247.2,692.2l11.3-0.4c30.8-3.8,42.1-29.6,30.8-54c-15.3-32.9-52.8-20.5-51-3.3
										c1.6,16.5,23.9,16.1,16,2.3"/>
								</g>
							</g>
							<g id="line_part" transform="matrix(1.0, 0.0, 0.0, 1.0, 0.0, 0.0)" inkscape:groupmode="layer" inkscape:label="line part">
								<g id="line2" transform="matrix(1.0, 0.0, 0.0, 1.0, 0.0, 0.0)" inkscape:groupmode="layer" inkscape:label="line2">
									<g id="g_244" transform="matrix(1.0, 0.0, 0.0, 1.0, 0.0, 0.0)" inkscape:label="Group 1">
										<path id="path_245" inkscape:label="Path 1" class="st36" d="M1263.3,684.5c0,5.6-3.8,10.4-9.1,11.6
											c-0.8,0.3-1.8,0.3-2.6,0.4c-8.7,0.1-18.3,0.3-28.4,0.3c-3.5,0-7.2,0-10.8,0c-7.5,0-15,0-22.4,0c-11,0-21.7-0.1-30.9-0.3
											c-18.1-0.1-31.2-0.4-32.6-0.4c-6.7-0.1-11.9-5.6-11.7-12.1c0.1-6.5,5.5-11.7,12-11.7h0.1c0,0,0.5,0,1.2,0
											c3.8,0,15.5,0.3,30.9,0.4c9.4,0.1,20.2,0.1,31.4,0.3c10.2,0,20.7,0.1,30.9,0c10.5,0,20.7-0.1,29.7-0.3
											C1257.8,672.4,1263.3,677.7,1263.3,684.5z"/>
									</g>
								</g>
								<g id="oofs2" transform="matrix(1.0, 0.0, 0.0, 1.0, 0.0, 0.0)" inkscape:groupmode="layer" inkscape:label="oofs2">
									<g id="g_246" transform="matrix(1.0, 0.0, 0.0, 1.0, 0.0, 0.0)" inkscape:label="Group 8">
										<path id="path_247" inkscape:label="Path 1" class="st37" d="M1249.4,686.7L1249.4,686.7c-2.9-2.3-6.5-3.8-10.8-3.8
											s-7.9,1.5-10.8,3.8c-2.9,2.5-4.8,6-4.8,10c10,0,19.6-0.1,28.4-0.3c1,0,1.8-0.1,2.6-0.4
											C1254,692.5,1252.1,689.2,1249.4,686.7z"/>
									</g>
									<g id="g_248" transform="matrix(1.0, 0.0, 0.0, 1.0, 0.0, 0.0)" inkscape:label="Group 9">
										<path id="path_249" inkscape:label="Path 1" class="st37" d="M1185.2,686.7c-2.7-2.3-6.5-3.8-10.6-3.8s-7.8,1.4-10.5,3.5
											c-3,2.5-4.9,6-5,9.8c9.3,0.1,19.9,0.1,30.9,0.3C1189.9,692.7,1188.2,689.2,1185.2,686.7z"/>
									</g>
									<g id="g_250" transform="matrix(1.0, 0.0, 0.0, 1.0, 0.0, 0.0)" inkscape:label="Group 6">
										<path id="path_251" inkscape:label="Path 1" class="st37" d="M1159,672.5c-0.3,7.4-7.1,13.4-15.5,13.4
											c-8.6,0-15.5-6.1-15.5-13.8C1131.9,672.1,1143.4,672.3,1159,672.5z"/>
									</g>
									<g id="g_252" transform="matrix(1.0, 0.0, 0.0, 1.0, 0.0, 0.0)" inkscape:label="Group 5">
										<path id="path_253" inkscape:label="Path 1" class="st37" d="M1222,672.8c-0.3,7.4-7.1,13.6-15.5,13.6
											c-8.6,0-15.5-6.1-15.5-13.8C1194.8,672.7,1206.6,672.5,1222,672.8z"/>
									</g>
									<g id="g_254" transform="matrix(1.0, 0.0, 0.0, 1.0, 0.0, 0.0)" inkscape:label="Group 12">
										<path id="path_255" inkscape:label="Path 1" class="st37" d="M1280.9,652c0,0,3-7.9-3.4-18.1c0,0,6.8-2,9.4,5
											C1288.9,644.1,1285.1,651.4,1280.9,652z"/>
									</g>
									<g id="g_256" transform="matrix(1.0, 0.0, 0.0, 1.0, 0.0, 0.0)" inkscape:label="Group 1">
										<path id="path_257" inkscape:label="Path 1" class="st37" d="M1259.2,672c0,0,6.7,5.3,13.6,2.5c7.1-2.9,7.4-13.8,4.9-15.3
											C1277.7,659.2,1272,669,1259.2,672z"/>
									</g>
								</g>
							</g>
							
								<g id="round_oofs_top" transform="matrix(1.0, -2.4492935982947064e-16, 2.4492935982947064e-16, 1.0, -2.842170943040401e-14, 4.263256414560601e-14)" inkscape:groupmode="layer" inkscape:label="round oofs top" class="st24">
								<g id="g_258" transform="matrix(1.0, 0.0, 0.0, 1.0, 0.0, 0.0)" inkscape:label="oofs1">
									<g id="g_259" transform="matrix(1.0, 0.0, 0.0, 1.0, 0.0, 0.0)" inkscape:label="Group 14">
										<path id="path_260" inkscape:label="Path 1" class="st38" d="M1290.7,681c0,0,10.6-10,13.5-23.9
											C1304.3,657,1282.5,659.3,1290.7,681z"/>
									</g>
									<g id="g_261" transform="matrix(1.0, 0.0, 0.0, 1.0, 0.0, 0.0)" inkscape:label="Group 13">
										<path id="path_262" inkscape:label="Path 1" class="st38" d="M1274.2,654.8c0,0,6.5-10.5-1.1-23.6
											C1273.1,631.2,1256.9,643.2,1274.2,654.8z"/>
									</g>
									<g id="g_263" transform="matrix(1.0, 0.0, 0.0, 1.0, 0.0, 0.0)" inkscape:label="Group 4">
										<path id="path_264" inkscape:label="Path 1" class="st38" d="M1224,652.6c0,0,4.4,10.2,19.4,13.5
											C1243.2,666.1,1243.5,645.6,1224,652.6z"/>
									</g>
									<g id="g_265" transform="matrix(1.0, 0.0, 0.0, 1.0, 0.0, 0.0)" inkscape:label="Group 3">
										<path id="path_266" inkscape:label="Path 1" class="st38" d="M1241.9,601.5c0,0-12,4.4-18.3,14.9
											C1223.6,616.4,1242.8,622.2,1241.9,601.5z"/>
									</g>
									<g id="g_267" transform="matrix(1.0, 0.0, 0.0, 1.0, 0.0, 0.0)" inkscape:label="Group 2">
										<path id="path_268" inkscape:label="Path 1" class="st38" d="M1298.7,622.5c0,0-5.5-10.6-16-17.3
											C1282.8,605.2,1278,624.7,1298.7,622.5z"/>
									</g>
								</g>
							</g>
							
								<g id="line_part_2" transform="matrix(1.0, 0.0, 0.0, 1.0, 0.0, 0.0)" inkscape:groupmode="layer" inkscape:label="line part 2">
								<g id="shade2" transform="matrix(1.0, 0.0, 0.0, 1.0, 0.0, 0.0)" inkscape:label="shade2" class="st34">
									<path id="path_269" inkscape:label="Path 1" class="st39" d="M1249.4,686.7L1249.4,686.7c-8.5,0-16.2,0-21.4,0
										c-2,0-3.7,0-4.8,0c-3.5,0-7.2,0-10.8,0c-7.5,0-15,0-22.4,0c-1.6,0-3.3,0-4.9,0c-7.4,0-14.6-0.1-21.1-0.1c-1.8,0-3.4,0-5,0
										c-18.1-0.1-31.2-0.4-32.6-0.4c-4.8-0.1-8.9-3-10.8-7.1c-0.7,1.5-1.1,3.1-1.1,4.8c-0.1,6.7,5.2,12,11.7,12.1
										c1.5,0,14.5,0.3,32.6,0.4c9.3,0.1,19.9,0.1,30.9,0.3c7.4,0,14.9,0,22.4,0c3.7,0,7.2,0,10.8,0c10,0,19.6-0.1,28.4-0.3
										c1,0,1.8-0.1,2.6-0.4c4.5-1.1,8-4.8,8.9-9.4C1258.5,686.7,1253.9,686.7,1249.4,686.7z"/>
								</g>
							</g>
						</g>
						
							<g id="highlights" transform="matrix(1.0, 0.0, 0.0, 1.0, 0.0, 0.0)" inkscape:groupmode="layer" inkscape:label="highlights">
							<g id="straight" transform="matrix(1.0, 0.0, 0.0, 1.0, 0.0, 0.0)" inkscape:label="straight" class="st40">
								<g id="g_270" transform="matrix(1.0, 0.0, 0.0, 1.0, 0.0, 0.0)" inkscape:label="Group 1">
									<path class="st20" d="M1142.8,677.7h35"/>
								</g>
							</g>
							<g id="round" transform="matrix(1.0, 0.0, 0.0, 1.0, 0.0, 0.0)" inkscape:label="round">
								<g id="g_271" transform="matrix(1.0, 0.0, 0.0, 1.0, 0.0, 0.0)" inkscape:label="Group 2" class="st40">
									<path class="st20" d="M1281.6,611.7c1.8,1.2,3.3,2.7,4.6,4.1"/>
								</g>
								<g id="g_272" transform="matrix(1.0, 0.0, 0.0, 1.0, 0.0, 0.0)" inkscape:label="Group 1" class="st40">
									<path class="st20" d="M1236.3,614.1c0,0,9.5-11.5,27.8-9c2.2,0.3,4.4,0.7,6.3,1.4"/>
								</g>
							</g>
						</g>
					</g>
					<g id="g_273" transform="matrix(1.0, 0.0, 0.0, 1.0, 0.0, 0.0)" inkscape:label="Group 7">
						<path id="path_274" inkscape:label="Path 1" class="st41" d="M1131.7,672.4V696l-0.3,2h-105.1c-7-4.2-12.3-8.3-12-12.1
							c0.3-5.6,8.2-10.5,16.9-15.4h100.2v0.1l0.1,0.4l0.1,0.7V672.4z"/>
					</g>
					<g id="g_275" transform="matrix(1.0, 0.0, 0.0, 1.0, 0.0, 0.0)" inkscape:label="Group 6">
						<path id="path_276" inkscape:label="Path 1" class="st42" d="M1131.7,672.4v21.1h-87.3c-3.8,0-7.2-1.5-9.7-4
							c-2.5-2.5-4-5.9-4-9.7c0-5.2,4.2-9.4,9.4-9.4h91.2v0.1l0.1,0.4l0.1,0.7V672.4z"/>
					</g>
					<g id="g_277" transform="matrix(1.0, 0.0, 0.0, 1.0, 0.0, 0.0)" inkscape:label="Group 5">
						<path id="path_278" inkscape:label="Path 1" class="st43" d="M1131.7,671.6v0.8v16.8h-78c-3,0-5.6-1.2-7.5-3.1
							c-1.9-1.9-3.1-4.6-3.1-7.5c0-4.5,3.7-8,8-8h80.2v0.1l0.1,0.4L1131.7,671.6z"/>
					</g>
					<g id="g_279" transform="matrix(1.0, 0.0, 0.0, 1.0, 0.0, 0.0)" inkscape:label="Group 4">
						<path id="path_280" inkscape:label="Path 1" class="st44" d="M1131.7,672.4v10.4h-66.7c-2.3,0-4.4-1-5.9-2.5
							c-1.5-1.5-2.5-3.5-2.5-5.9c0-2.2,1.8-4.1,4.1-4.1h70.6v0.1l0.1,0.4l0.1,0.7L1131.7,672.4z"/>
					</g>
					<g id="g_281" transform="matrix(1.0, 0.0, 0.0, 1.0, 0.0, 0.0)" inkscape:label="Group 3">
						<path id="path_282" inkscape:label="Path 1" class="st45" d="M1131.7,672.4V696l-0.3,2c-1,3.5-4.1,6.1-7.9,6.1h-4.8
							c-3.8,0-7-2.6-7.9-6.1l-0.3-2v-23.6l0.3-2c1-3.5,4.1-6.1,7.9-6.1h4.8h0.3h0.5h0.4l0.7,0.1l1.4,0.4l0.7,0.4
							c0.7,0.4,1.4,1,1.9,1.5l0.4,0.4l0.1,0.1l0.4,0.5l0.4,0.7l0.3,0.5l0.1,0.4l0.3,0.5l0.1,0.4v0.1l0.1,0.4l0.1,0.7L1131.7,672.4z"
							/>
					</g>
					<g id="g_283" transform="matrix(1.0, 0.0, 0.0, 1.0, 0.0, 0.0)" inkscape:label="Group 2">
						<path id="path_284" inkscape:label="Path 1" class="st46" d="M1131.7,673.6v18.5l-1.2,1.4c-1.8,1.5-4.1,2.5-6.7,2.5h-0.1
							c-2.6,0-4.9-1-6.5-2.5c-1.4-1.2-2.3-2.7-2.7-4.4c0,0-0.3-1.4-0.3-2v-13.9c0-1,0.1-1.9,0.5-2.7c1.1-3.3,4.2-5.7,8-6.1h0.8
							c3.8,0.4,6.5,2.9,7.6,6.1C1131.6,671.5,1131.7,672.5,1131.7,673.6z"/>
					</g>
					<g id="g_285" transform="matrix(1.0, 0.0, 0.0, 1.0, 0.0, 0.0)" inkscape:label="Group 1">
						<path id="path_286" inkscape:label="Path 1" class="st47" d="M1131.7,672.4v10.4l0,0c-1.4,2-3.8,3.3-6.4,3.3h-0.5
							c-2.6,0-4.9-1.4-6.4-3.3c-1-1.2-1.4-2.9-1.4-4.5V672l0.1-1.6c0.7-3.1,3.1-5.6,6.3-6.1h0.3h0.5h0.4l0.7,0.1l1.4,0.4l0.7,0.4
							c0.7,0.4,1.4,1,1.9,1.5l0.4,0.4l0.1,0.1l0.4,0.5l0.4,0.7l0.3,0.5l0.1,0.4l0.3,0.5l0.1,0.4v0.1l0.1,0.4l0.1,0.7V672.4z"/>
					</g>
				</g>
				<g id="brow_R" transform="matrix(1.0, 0.0, 0.0, 1.0, 0.0, 0.0)" inkscape:groupmode="layer" inkscape:label="brow R">
					<g id="g_287" transform="matrix(1.0, 0.0, 0.0, 1.0, 0.0, 0.0)" inkscape:label="Group 2">
						<g id="g_288" transform="matrix(1.0, 0.0, 0.0, 1.0, 0.0, 0.0)" inkscape:label="Group 2">
							<path id="path_289" inkscape:label="Path 1" class="st28" d="M1065.1,447.7c1.4-2.2,6.1-5.5,10.2-7.4
								c17.5-8.6,55.5-7.4,85.1,8.9c42.1,23,34.2,42.5,25.1,38c-9.1-4.5-41.4-25.5-85.8-24.3c-11.9,0.4-20.2,1.9-26.9,1.5
								C1064.1,463.8,1061.5,453.7,1065.1,447.7z"/>
						</g>
						<g id="g_290" transform="matrix(1.0, 0.0, 0.0, 1.0, 0.0, 0.0)" inkscape:label="Group 1">
							<path id="path_291" inkscape:label="Path 1" class="st29" d="M1065.6,446.6c1.4-2.2,5.6-5.7,9.7-7.8
								c17.5-8.6,50.7-12.5,80.3,3.5c42.1,23,38.9,42.4,29.6,37.9c-9.1-4.5-41.4-25.5-85.8-24.3c-11.9,0.4-20.2,1.9-26.9,1.5
								C1064,457.1,1062.1,452.6,1065.6,446.6z"/>
						</g>
					</g>
					<g id="g_292" transform="matrix(1.0, 0.0, 0.0, 1.0, 0.0, 0.0)" inkscape:label="Group 1">
						<path id="path_293" inkscape:label="Path 1" class="st30" d="M1065.6,455.4l0.1-0.1c1.4-2.2,5.6-5.7,9.7-7.8
							c17.5-8.6,50.7-12.5,80.3,3.5c21.1,11.5,30.8,22.1,34.1,29.3c4.4-3.3-0.1-19.5-34.1-38c-29.6-16.1-62.9-12.1-80.3-3.5
							c-4.1,1.9-8.3,5.6-9.7,7.8C1063.4,450.3,1063.3,453.5,1065.6,455.4z"/>
					</g>
				</g>
				<g id="brow_L" transform="matrix(1.0, 0.0, 0.0, 1.0, 0.0, 0.0)" inkscape:groupmode="layer" inkscape:label="brow L">
					<g id="g_294" transform="matrix(1.0, 0.0, 0.0, 1.0, 0.0, 0.0)" inkscape:label="Group 2">
						<g id="g_295" transform="matrix(1.0, 0.0, 0.0, 1.0, 0.0, 0.0)" inkscape:label="Group 2">
							<path id="path_296" inkscape:label="Path 1" class="st28" d="M945.5,447.7c-1.4-2.2-6.1-5.5-10.2-7.4
								c-17.5-8.6-55.5-7.4-85.1,8.9c-42.1,23-34.2,42.5-25.1,38c9.1-4.5,41.4-25.5,85.8-24.3c11.9,0.4,20.2,1.9,26.9,1.5
								C946.3,463.8,949,453.7,945.5,447.7z"/>
						</g>
						<g id="g_297" transform="matrix(1.0, 0.0, 0.0, 1.0, 0.0, 0.0)" inkscape:label="Group 1">
							<path id="path_298" inkscape:label="Path 1" class="st29" d="M944.8,446.6c-1.4-2.2-5.6-5.7-9.7-7.8
								c-17.5-8.6-50.7-12.5-80.3,3.5c-42.1,23-38.9,42.4-29.6,37.9s41.4-25.5,85.8-24.3c11.9,0.4,20.2,1.9,26.9,1.5
								C946.4,457.1,948.5,452.6,944.8,446.6z"/>
						</g>
					</g>
					<g id="g_299" transform="matrix(1.0, 0.0, 0.0, 1.0, 0.0, 0.0)" inkscape:label="Group 1">
						<path id="path_300" inkscape:label="Path 1" class="st30" d="M944.9,455.4l-0.1-0.1c-1.4-2.2-5.6-5.7-9.7-7.8
							c-17.5-8.6-50.7-12.5-80.3,3.5c-21.1,11.5-30.8,22.1-34.1,29.3c-4.4-3.3,0.1-19.5,34.1-38c29.6-16.1,62.9-12.1,80.3-3.5
							c4.1,1.9,8.3,5.6,9.7,7.8C947,450.3,947.1,453.5,944.9,455.4z"/>
					</g>
				</g>
			</g>
		</g>
	</g>
</g>
<g id="g_333" transform="matrix(1.0, 0.0, 0.0, 1.0, -256.0, -256.0)" inkscape:groupmode="layer" inkscape:label="3">
	<g id="g_334" transform="matrix(0.0, 0.0, 0.0, 0.0, 253.841, 303.549)" inkscape:groupmode="layer" inkscape:label="10">
		<g id="g_335" transform="matrix(1.0, 0.0, 0.0, 1.0, 0.0, 0.0)" inkscape:label="Group 2">
			<path id="path_336" inkscape:label="Path 1" class="st4" d="M1391.7,358.7l-12.8,25.2c-1.1,2.2-3.8,3-6,1.9l-25.2-12.8
				c-2.2-1.1-3-3.8-1.9-6l12.8-25.2c1.1-2.2,3.8-3,6-1.9l25.2,12.8C1391.9,353.9,1392.9,356.5,1391.7,358.7z"/>
		</g>
		<g id="g_337" transform="matrix(1.0, 0.0, 0.0, 1.0, 0.0, 0.0)" inkscape:label="Group 1">
			<path id="path_338" inkscape:label="Path 1" class="st5" d="M1391.7,358.7l-11.2,22c-1.1,2.2-3.8,3-6,1.9l-22-11.2
				c-2.2-1.1-3-3.8-1.9-6l11.2-22c1.1-2.2,3.8-3,6-1.9l22,11.2C1391.9,353.9,1392.9,356.5,1391.7,358.7z"/>
		</g>
	</g>
</g>
<g id="g_339" transform="matrix(1.0, 0.0, 0.0, 1.0, -256.0, -256.0)" inkscape:groupmode="layer" inkscape:label="4">
	<g id="g_340" transform="matrix(1.0, 0.0, 0.0, 1.0, 255.0, 305.0)" inkscape:groupmode="layer" inkscape:label="y 4">
		<g id="g_341" transform="matrix(1.0, 0.0, 0.0, 1.0, 0.0, 0.0)" inkscape:groupmode="layer" inkscape:label="x 4">
			<g id="g_342" transform="matrix(0.0, 0.0, 0.0, 0.0, -1.159, -1.451)" inkscape:groupmode="layer" inkscape:label="12">
				<g id="g_343" transform="matrix(1.0, 0.0, 0.0, 1.0, 0.0, 0.0)" inkscape:label="Group 2">
					<path id="path_344" inkscape:label="Path 1" class="st2" d="M1297.1,168l-12.8,25.2c-1.1,2.2-3.8,3-6,1.9l-25.1-12.8
						c-2.2-1.1-3-3.8-1.9-6l12.8-25.2c1.1-2.2,3.8-3,6-1.9l25.2,12.8C1297.4,163.1,1298.4,165.9,1297.1,168z"/>
				</g>
				<g id="g_345" transform="matrix(1.0, 0.0, 0.0, 1.0, 0.0, 0.0)" inkscape:label="Group 1">
					<path id="path_346" inkscape:label="Path 1" class="st3" d="M1297.1,168l-11.2,22c-1.1,2.2-3.8,3-6,1.9l-22-11.2
						c-2.2-1.1-3-3.8-1.9-6l11.2-22c1.1-2.2,3.8-3,6-1.9l22,11.2C1297.4,163.1,1298.4,165.9,1297.1,168z"/>
				</g>
			</g>
		</g>
	</g>
</g>
<g id="g_353" transform="matrix(1.0, 0.0, 0.0, 1.0, -256.0, -256.0)" inkscape:groupmode="layer" inkscape:label="7">
	<g id="g_354" transform="matrix(1.0, 0.0, 0.0, 1.0, 175.0, 305.0)" inkscape:groupmode="layer" inkscape:label="y 7">
		<g id="g_355" transform="matrix(1.0, 0.0, 0.0, 1.0, 0.0, 0.0)" inkscape:groupmode="layer" inkscape:label="x 7">
			<g id="g_356" transform="matrix(0.0, 0.0, 0.0, 0.0, -1.159, -1.451)" inkscape:groupmode="layer" inkscape:label="15">
				<g id="g_357" transform="matrix(1.0, 0.0, 0.0, 1.0, 0.0, 0.0)" inkscape:label="Group 2">
					<path id="path_358" inkscape:label="Path 1" class="st2" d="M1223.3,307.8l-12.8,25.2c-1.1,2.2-3.8,3-6,1.9l-25.2-12.8
						c-2.2-1.1-3-3.8-1.9-6l12.8-25.2c1.1-2.2,3.8-3,6-1.9l25.2,12.8C1223.6,302.9,1224.4,305.6,1223.3,307.8z"/>
				</g>
				<g id="g_359" transform="matrix(1.0, 0.0, 0.0, 1.0, 0.0, 0.0)" inkscape:label="Group 1">
					<path id="path_360" inkscape:label="Path 1" class="st3" d="M1223.3,307.8l-11.2,22c-1.1,2.2-3.8,3-6,1.9l-22-11.2
						c-2.2-1.1-3-3.8-1.9-6l11.2-22c1.1-2.2,3.8-3,6-1.9l22,11.2C1223.6,302.9,1224.4,305.6,1223.3,307.8z"/>
				</g>
			</g>
		</g>
	</g>
</g>
</svg>
