<?xml version="1.0" encoding="utf-8"?>
<svg xmlns="http://www.w3.org/2000/svg" viewBox="0 0 700 530.91">
<style type="text/css">
    @import url("../../../../styles/logos-draft.css");
    .d{fill:url(#d);}

    .st0{fill:#513212;}
	.st1{fill:#F1EDD7;}
	.st2{fill:#EE9B00;}
	.st3{fill:#DB8600;}
	.st4{fill:#9F5F01;}
	.st5{fill:none;stroke:#00E72D;stroke-miterlimit:10;}
	.st6{fill:none;stroke:#FF0000;stroke-miterlimit:10;}
</style>

<defs>
  <pattern id="d" width="6" height="6" patternUnits="userSpaceOnUse" patternTransform="rotate(45 50 50)">
    <line class="h" x1="0" y1="0" x2="0" y2="10"></line>
  </pattern>
</defs>

<g class="main">
	<g class="logo">
		<rect x="200" y="25" class="st0" width="300" height="480.91"/>
		<rect x="225" y="50" class="st1" width="250" height="375"/>
		<rect x="250" y="75" class="st2" width="200" height="175"/>

		<path class="st3" d="M390.63,115.62c0,5.18-4.2,9.38-9.38,9.38h-25c-3.45,0-6.25-2.8-6.25-6.25s2.8-6.25,6.25-6.25
			c0-6.91,5.6-12.5,12.5-12.5c4.69,0,8.77,2.57,10.9,6.39c0.52-0.09,1.05-0.14,1.6-0.14C386.43,106.25,390.63,110.45,390.63,115.62z"
			/>
		<path class="st3" d="M425,140.62c0,5.18-4.2,9.38-9.38,9.38h-25c-3.45,0-6.25-2.8-6.25-6.25s2.8-6.25,6.25-6.25
			c0-6.91,5.6-12.5,12.5-12.5c4.69,0,8.77,2.57,10.9,6.39c0.52-0.09,1.05-0.14,1.6-0.14C420.8,131.25,425,135.45,425,140.62z"/>
		<circle class="st1" cx="300" cy="125" r="25"/>
		<g>
			<polygon class="st0" points="475,325 425,325 425,125 "/>
			<polygon class="st4" points="425,125 425,325 375,325 "/>
		</g>
		<rect class="st0" x="452" y="325"  width="25" height="25"/>

		<g>
			<polygon class="st3" points="425,325 375,325 375,175 "/>
			<polygon class="st4" points="375,175 375,325 325,325 "/>
		</g>
		<g>
			<rect class="st0" x="224" y="349" width="155" height="77"/>
			<g>
				<rect x="287.75" y="263.57" class="st4" width="12.5" height="18.75"/>
				<rect x="300.25" y="263.57" class="st0" width="25" height="18.75"/>
			</g>
			<polygon class="st4" points="475,350 475,425 375,425 375,350 425,300 "/>
			<polygon class="st0" points="475,350 475,367.68 425,317.67 375,367.68 375,350 416.16,308.84 425,300 "/>
			<polygon class="st4" points="375,350 225,350 216.29,341.29 216.42,341.16 366.16,341.16 "/>
			<polygon class="st3" points="424.99,282.32 416.16,291.16 407.31,299.99 375,332.32 366.16,341.16 216.42,341.16 275.25,282.32 
				"/>
			<polygon class="st2" points="483.83,341.16 475,350 425,300 416.16,308.84 375,350 366.16,341.16 375,332.32 407.31,299.99 
				416.16,291.16 424.99,282.32 425,282.32 433.83,291.16 442.67,300 475,332.32 475,332.33 "/>
			<rect x="412.5" y="362.5" class="st2" width="25" height="25"/>
		</g>

		<g>
			<path class="st1" d="M246.45,477.08h-12.03l-1.79,3.84H225v-1.13L238.73,450h3.36l13.78,29.78v1.13h-7.63L246.45,477.08z
				M240.39,462.38l-3.44,8.02h6.98L240.39,462.38z"/>
			<path class="st1" d="M286.82,450.31h2.79v30.6c-2.66,0-5.32,0-7.98,0v-13.6l-6.5,6.8h-0.87l-6.45-6.8v13.6c-2.66,0-5.32,0-7.98,0
				v-30.6h2.88l11.95,13.25L286.82,450.31z"/>
			<path class="st1" d="M313.8,470.62v-20.23c2.48,0,5.1,0,7.54,0v20.36c0,6.71-5.89,10.59-12.16,10.59
				c-6.23,0-12.12-3.88-12.12-10.59v-20.36c2.44,0,5.01,0,7.46,0v20.23c0,2.49,2.4,3.71,4.66,3.71S313.8,473.11,313.8,470.62z"/>
			<path class="st1" d="M343.79,471.8c0-2.14-2.53-2.49-5.58-2.66c-6.63-0.48-10.99-2.75-11.07-9.38c-0.26-13.17,23.46-13.17,23.28,0
				c-2.75,0-4.75,0-7.41,0c0-4.05-8.2-3.71-8.46-0.09c-0.17,2.31,2.09,2.79,4.84,3.09c6.06,0.65,11.99,1.44,11.99,9.07
				c0,12.82-24.85,13.17-24.68-0.26c2.62,0,4.88,0,7.54,0C334.24,475.46,343.79,475.38,343.79,471.8z"/>
			<path class="st1" d="M376.13,457.37c-4.53,0-6.8,0-11.29,0v4.32h10.38c0,2.31,0,4.62,0,6.93h-10.38c0,1.79,0,3.53,0,5.36
				c4.49,0,7.11,0,11.68,0c0,2.27,0,4.62,0,6.93c-7.15,0-12.38,0-19.45,0c0-10.2,0-20.4,0-30.52c7.06,0,11.9,0,19.05,0
				C376.13,452.66,376.13,455.01,376.13,457.37z"/>
			<path class="st1" d="M394.62,467.7h0.22l6.98-17.31h7.5v1.18l-12.95,29.69h-3.31l-13.08-29.69v-1.18h7.5L394.62,467.7z"/>
			<path class="st1" d="M426.79,474.07c0,2.57,0,4.19,0,6.84c-5.19,0-10.29,0-15.48,0c0-2.66,0-4.27,0-6.84h3.88v-16.87h-3.58
				c0-2.62,0-4.23,0-6.8c4.97,0,9.9,0,14.87,0c0,2.57,0,4.19,0,6.8h-3.58v16.87H426.79z"/>
			<path class="st1" d="M439.69,473.89h11.07c0,2.62,0,4.4,0,7.02c-6.28,0-12.73,0-18.92,0v-30.52c2.62,0,5.19,0,7.85,0
				C439.69,466.18,439.69,460.9,439.69,473.89z"/>
			<path class="st1" d="M463.93,473.89H475c0,2.62,0,4.4,0,7.02c-6.28,0-12.73,0-18.92,0v-30.52c2.62,0,5.19,0,7.85,0
				C463.93,466.18,463.93,460.9,463.93,473.89z"/>
		</g>
	</g>

	<g class="logo-draft">
		<rect x="200" y="25" width="300" height="480.91"/>
		<rect x="225" y="50" width="250" height="375"/>
		<rect x="250" y="75" width="200" height="175"/>

		<path d="M390.63,115.62c0,5.18-4.2,9.38-9.38,9.38h-25c-3.45,0-6.25-2.8-6.25-6.25s2.8-6.25,6.25-6.25
			c0-6.91,5.6-12.5,12.5-12.5c4.69,0,8.77,2.57,10.9,6.39c0.52-0.09,1.05-0.14,1.6-0.14C386.43,106.25,390.63,110.45,390.63,115.62z"
			/>
		<path d="M425,140.62c0,5.18-4.2,9.38-9.38,9.38h-25c-3.45,0-6.25-2.8-6.25-6.25s2.8-6.25,6.25-6.25
			c0-6.91,5.6-12.5,12.5-12.5c4.69,0,8.77,2.57,10.9,6.39c0.52-0.09,1.05-0.14,1.6-0.14C420.8,131.25,425,135.45,425,140.62z"/>
		<circle class="st1" cx="300" cy="125" r="25"/>

		<polygon points="475,325 425,325 425,125 "/>
		<polygon points="425,125 425,325 375,325 "/>

		<polygon points="425,325 375,325 375,175 "/>
		<polygon points="375,175 375,325 325,325 "/>


		<rect x="225" y="350" width="150" height="75"/>

		<rect x="287.75" y="263.57" width="12.5" height="18.75"/>
		<rect x="300.25" y="263.57" width="25" height="18.75"/>

		<polygon points="475,350 475,425 375,425 375,350 425,300 "/>
		<polygon points="475,350 475,367.68 425,317.67 375,367.68 375,350 416.16,308.84 425,300 "/>
		<polygon points="375,350 225,350 216.29,341.29 216.42,341.16 366.16,341.16 "/>
		<polygon points="424.99,282.32 416.16,291.16 407.31,299.99 375,332.32 366.16,341.16 216.42,341.16 275.25,282.32 "/>
		<polygon points="483.83,341.16 475,350 425,300 416.16,308.84 375,350 366.16,341.16 375,332.32 407.31,299.99 
			416.16,291.16 424.99,282.32 425,282.32 433.83,291.16 442.67,300 475,332.32 475,332.33 "/>
		<rect x="412.5" y="362.5" width="25" height="25"/>


		<g>
			<path d="M246.45,477.08h-12.03l-1.79,3.84H225v-1.13L238.73,450h3.36l13.78,29.78v1.13h-7.63L246.45,477.08z
				M240.39,462.38l-3.44,8.02h6.98L240.39,462.38z"/>
			<path d="M286.82,450.31h2.79v30.6c-2.66,0-5.32,0-7.98,0v-13.6l-6.5,6.8h-0.87l-6.45-6.8v13.6c-2.66,0-5.32,0-7.98,0
				v-30.6h2.88l11.95,13.25L286.82,450.31z"/>
			<path d="M313.8,470.62v-20.23c2.48,0,5.1,0,7.54,0v20.36c0,6.71-5.89,10.59-12.16,10.59
				c-6.23,0-12.12-3.88-12.12-10.59v-20.36c2.44,0,5.01,0,7.46,0v20.23c0,2.49,2.4,3.71,4.66,3.71S313.8,473.11,313.8,470.62z"/>
			<path d="M343.79,471.8c0-2.14-2.53-2.49-5.58-2.66c-6.63-0.48-10.99-2.75-11.07-9.38c-0.26-13.17,23.46-13.17,23.28,0
				c-2.75,0-4.75,0-7.41,0c0-4.05-8.2-3.71-8.46-0.09c-0.17,2.31,2.09,2.79,4.84,3.09c6.06,0.65,11.99,1.44,11.99,9.07
				c0,12.82-24.85,13.17-24.68-0.26c2.62,0,4.88,0,7.54,0C334.24,475.46,343.79,475.38,343.79,471.8z"/>
			<path d="M376.13,457.37c-4.53,0-6.8,0-11.29,0v4.32h10.38c0,2.31,0,4.62,0,6.93h-10.38c0,1.79,0,3.53,0,5.36
				c4.49,0,7.11,0,11.68,0c0,2.27,0,4.62,0,6.93c-7.15,0-12.38,0-19.45,0c0-10.2,0-20.4,0-30.52c7.06,0,11.9,0,19.05,0
				C376.13,452.66,376.13,455.01,376.13,457.37z"/>
			<path d="M394.62,467.7h0.22l6.98-17.31h7.5v1.18l-12.95,29.69h-3.31l-13.08-29.69v-1.18h7.5L394.62,467.7z"/>
			<path d="M426.79,474.07c0,2.57,0,4.19,0,6.84c-5.19,0-10.29,0-15.48,0c0-2.66,0-4.27,0-6.84h3.88v-16.87h-3.58
				c0-2.62,0-4.23,0-6.8c4.97,0,9.9,0,14.87,0c0,2.57,0,4.19,0,6.8h-3.58v16.87H426.79z"/>
			<path d="M439.69,473.89h11.07c0,2.62,0,4.4,0,7.02c-6.28,0-12.73,0-18.92,0v-30.52c2.62,0,5.19,0,7.85,0
				C439.69,466.18,439.69,460.9,439.69,473.89z"/>
			<path d="M463.93,473.89H475c0,2.62,0,4.4,0,7.02c-6.28,0-12.73,0-18.92,0v-30.52c2.62,0,5.19,0,7.85,0
				C463.93,466.18,463.93,460.9,463.93,473.89z"/>
		</g>
	</g>

	<g class="mnl">
		<line x1="175" y1="50" x2="525" y2="50"/>
		<line x1="175" y1="75" x2="525" y2="75"/>
		<line x1="175" y1="100" x2="525" y2="100"/>
		<line x1="175" y1="125" x2="525" y2="125"/>
		<line x1="175" y1="150" x2="525" y2="150"/>
		<line x1="175" y1="175" x2="525" y2="175"/>
		<line x1="175" y1="200" x2="525" y2="200"/>
		<line x1="175" y1="225" x2="525" y2="225"/>
		<line x1="175" y1="250" x2="525" y2="250"/>
		<line x1="175" y1="275" x2="525" y2="275"/>
		<line x1="175" y1="300" x2="525" y2="300"/>
		<line x1="175" y1="325" x2="525" y2="325"/>
		<line x1="175" y1="350" x2="525" y2="350"/>
		<line x1="175" y1="375" x2="525" y2="375"/>
		<line x1="175" y1="400" x2="525" y2="400"/>
		<line x1="175" y1="425" x2="525" y2="425"/>
		<line x1="175" y1="450" x2="525" y2="450"/>
		<line x1="175" y1="480.91" x2="525" y2="480.91"/>
		<line x1="475" y1="0" x2="475" y2="530.91"/>
		<line x1="450" y1="0" x2="450" y2="530.91"/>
		<line x1="425" y1="0" x2="425" y2="530.91"/>
		<line x1="400" y1="0" x2="400" y2="530.91"/>
		<line x1="375" y1="0" x2="375" y2="530.91"/>
		<line x1="350" y1="0" x2="350" y2="530.91"/>
		<line x1="325" y1="0" x2="325" y2="530.91"/>
		<line x1="300" y1="0" x2="300" y2="530.91"/>
		<line x1="275" y1="0" x2="275" y2="530.91"/>
		<line x1="250" y1="0" x2="250" y2="530.91"/>
		<line x1="225" y1="0" x2="225" y2="530.91"/>
	</g>

	<g class="mjl">
		<line x1="175" y1="25" x2="525" y2="25"/>
		<line x1="175" y1="505.91" x2="525" y2="505.91"/>
		<line x1="500" y1="0" x2="500" y2="530.91"/>
		<line x1="200" y1="0" x2="200" y2="530.91"/>
	</g>
</g>

</svg>