<svg xmlns="http://www.w3.org/2000/svg" viewBox="0 0 107 107">
<style type="text/css">
	path,polygon{fill:#231f20;}
	@media (prefers-color-scheme: dark){path,polygon{fill:#f2f3f5}}
</style>

<path d="M57,0h-7H0v50v7v50h50h7h50V57v-7V32v-7V0H57z M50,32v18H29.94c0.15-0.08,0.29-0.18,0.44-0.27
	c0.74-0.43,1.48-0.89,2.2-1.36c0.19-0.13,0.39-0.25,0.58-0.37c0.88-0.59,1.75-1.21,2.6-1.85c0.19-0.15,0.38-0.3,0.57-0.45
	c0.67-0.52,1.33-1.06,1.98-1.62c0.22-0.19,0.45-0.38,0.67-0.58c1.6-1.42,3.11-2.93,4.53-4.53c0.2-0.22,0.39-0.45,0.59-0.68
	c0.55-0.64,1.09-1.3,1.61-1.97c0.15-0.2,0.31-0.39,0.46-0.58c0.64-0.84,1.26-1.71,1.85-2.59c0.13-0.19,0.25-0.39,0.38-0.59
	c0.47-0.72,0.92-1.45,1.35-2.19c0.09-0.15,0.18-0.29,0.27-0.44V32z M50,77.06c-0.08-0.15-0.18-0.29-0.27-0.44
	c-0.43-0.74-0.88-1.47-1.35-2.19c-0.13-0.2-0.25-0.4-0.38-0.59c-0.59-0.88-1.21-1.74-1.84-2.59c-0.15-0.2-0.31-0.39-0.46-0.59
	c-0.52-0.67-1.06-1.32-1.61-1.97c-0.19-0.23-0.39-0.45-0.59-0.68c-1.42-1.6-2.93-3.11-4.53-4.53c-0.22-0.2-0.45-0.39-0.67-0.58
	c-0.65-0.55-1.31-1.09-1.98-1.62c-0.19-0.15-0.38-0.3-0.57-0.45c-0.85-0.64-1.71-1.26-2.59-1.85c-0.19-0.13-0.39-0.25-0.58-0.37
	c-0.72-0.47-1.45-0.92-2.2-1.36c-0.15-0.09-0.29-0.18-0.44-0.27H50V77.06z M49.85,7c-0.02,0.22-0.03,0.45-0.05,0.67
	c-0.03,0.33-0.06,0.66-0.1,1c-0.05,0.42-0.1,0.84-0.16,1.26c-0.04,0.32-0.09,0.64-0.14,0.96c-0.07,0.43-0.15,0.86-0.23,1.29
	c-0.06,0.3-0.11,0.6-0.17,0.89c-0.1,0.47-0.21,0.93-0.32,1.39c-0.06,0.25-0.12,0.5-0.18,0.75c-0.17,0.64-0.35,1.28-0.54,1.91
	c-0.02,0.06-0.04,0.13-0.06,0.19c-0.22,0.7-0.45,1.39-0.7,2.07c-0.08,0.21-0.16,0.41-0.24,0.62c-0.18,0.47-0.36,0.94-0.56,1.41
	c-0.1,0.25-0.22,0.5-0.33,0.74c-0.18,0.41-0.37,0.83-0.56,1.24c-0.12,0.26-0.25,0.52-0.38,0.78c-0.19,0.39-0.39,0.78-0.59,1.16
	c-0.14,0.26-0.28,0.52-0.43,0.77c-0.21,0.37-0.42,0.74-0.64,1.11c-0.15,0.25-0.3,0.51-0.46,0.76c-0.23,0.36-0.46,0.72-0.69,1.08
	c-0.16,0.24-0.32,0.48-0.49,0.72c-0.25,0.36-0.5,0.71-0.76,1.07c-0.16,0.23-0.33,0.45-0.5,0.67c-0.28,0.37-0.56,0.73-0.85,1.08
	c-0.16,0.2-0.32,0.4-0.48,0.59c-0.33,0.4-0.67,0.79-1.02,1.18c-0.13,0.15-0.25,0.29-0.39,0.44c-0.97,1.06-1.98,2.08-3.04,3.04
	c-0.14,0.13-0.29,0.26-0.44,0.39c-0.39,0.34-0.78,0.69-1.17,1.02c-0.2,0.16-0.4,0.32-0.59,0.48c-0.36,0.29-0.72,0.58-1.09,0.85
	c-0.22,0.17-0.45,0.33-0.67,0.49c-0.35,0.26-0.71,0.51-1.07,0.76c-0.24,0.16-0.48,0.32-0.72,0.48c-0.36,0.24-0.72,0.47-1.09,0.7
	c-0.25,0.15-0.5,0.31-0.75,0.46c-0.37,0.22-0.74,0.43-1.12,0.64c-0.25,0.14-0.51,0.28-0.76,0.42c-0.39,0.21-0.78,0.4-1.17,0.6
	c-0.25,0.13-0.51,0.26-0.76,0.38c-0.41,0.2-0.83,0.38-1.25,0.57c-0.24,0.11-0.48,0.22-0.73,0.32c-0.47,0.2-0.96,0.38-1.44,0.57
	c-0.2,0.07-0.39,0.16-0.59,0.23c-0.69,0.25-1.38,0.49-2.08,0.7c-0.03,0.01-0.07,0.02-0.1,0.03c-0.66,0.2-1.33,0.4-2.01,0.57
	c-0.23,0.06-0.47,0.11-0.7,0.17c-0.48,0.12-0.96,0.23-1.45,0.33c-0.28,0.06-0.57,0.11-0.85,0.16c-0.44,0.08-0.89,0.17-1.33,0.24
	c-0.31,0.05-0.61,0.09-0.92,0.13c-0.43,0.06-0.86,0.12-1.3,0.17c-0.32,0.04-0.64,0.07-0.96,0.09C7.46,49.82,7.23,49.84,7,49.85V7
	H49.85z M7,57.15c0.23,0.02,0.46,0.03,0.69,0.05c0.32,0.03,0.64,0.06,0.96,0.09c0.44,0.05,0.87,0.11,1.3,0.17
	c0.31,0.04,0.62,0.08,0.92,0.13c0.45,0.07,0.89,0.15,1.33,0.24c0.28,0.05,0.57,0.1,0.85,0.16c0.49,0.1,0.97,0.22,1.45,0.33
	c0.23,0.06,0.47,0.11,0.7,0.17c0.67,0.18,1.34,0.37,2.01,0.57c0.03,0.01,0.07,0.02,0.1,0.03c0.7,0.22,1.39,0.45,2.08,0.7
	c0.2,0.07,0.39,0.15,0.59,0.23c0.48,0.18,0.96,0.37,1.44,0.57c0.25,0.1,0.49,0.21,0.73,0.32c0.42,0.18,0.84,0.37,1.25,0.57
	c0.26,0.12,0.51,0.25,0.76,0.38c0.39,0.2,0.78,0.39,1.17,0.6c0.26,0.14,0.51,0.28,0.76,0.42c0.38,0.21,0.75,0.42,1.12,0.64
	c0.25,0.15,0.5,0.3,0.75,0.46c0.37,0.23,0.73,0.46,1.09,0.7c0.24,0.16,0.48,0.32,0.72,0.48c0.36,0.25,0.72,0.5,1.07,0.76
	c0.22,0.16,0.45,0.32,0.67,0.49c0.37,0.28,0.73,0.57,1.09,0.85c0.2,0.16,0.4,0.31,0.59,0.48c0.4,0.33,0.79,0.67,1.17,1.02
	c0.15,0.13,0.3,0.25,0.44,0.39c1.06,0.97,2.08,1.98,3.04,3.04c0.13,0.14,0.26,0.29,0.39,0.44c0.34,0.39,0.69,0.78,1.02,1.18
	c0.16,0.2,0.32,0.4,0.48,0.59c0.29,0.36,0.57,0.72,0.85,1.08c0.17,0.22,0.33,0.45,0.5,0.67c0.26,0.35,0.51,0.71,0.76,1.07
	c0.16,0.24,0.33,0.48,0.49,0.72c0.24,0.36,0.47,0.72,0.69,1.08c0.16,0.25,0.31,0.5,0.46,0.76c0.22,0.37,0.43,0.74,0.64,1.11
	c0.14,0.26,0.29,0.51,0.43,0.77c0.2,0.38,0.4,0.77,0.59,1.16c0.13,0.26,0.26,0.52,0.38,0.78c0.19,0.41,0.38,0.82,0.56,1.24
	c0.11,0.25,0.22,0.49,0.33,0.74c0.19,0.46,0.38,0.94,0.56,1.41c0.08,0.21,0.16,0.41,0.24,0.62c0.25,0.68,0.48,1.37,0.7,2.07
	c0.02,0.06,0.04,0.13,0.06,0.19c0.19,0.63,0.38,1.27,0.54,1.91c0.06,0.25,0.12,0.5,0.18,0.75c0.11,0.46,0.22,0.93,0.32,1.39
	c0.06,0.3,0.11,0.59,0.17,0.89c0.08,0.43,0.16,0.86,0.23,1.29c0.05,0.32,0.09,0.64,0.14,0.96c0.06,0.42,0.11,0.84,0.16,1.26
	c0.04,0.33,0.07,0.66,0.1,1c0.02,0.22,0.03,0.45,0.05,0.67H7V57.15z M100,100H57V57h43V100z M100,50H57V32h43V50z M57,25V7h43v18H57
	z" />
</svg>