<svg xmlns="http://www.w3.org/2000/svg" viewBox="0 0 24 24" fill="#f2f3f5">
<path d="M16,6.6c1.2,0,1.9,0.5,1.9,1.2c0,0.6-0.5,1.3-1.8,1.3c-0.6,0-1.1-0.1-1.6-0.3c-0.2,0.4-0.4,0.8-0.6,1.3h1.5
	l-0.4,1.3h-1.5l-0.7,2.2c-0.8,2.7-2.2,3.7-3.8,3.7c-1.7,0-2.8-1.1-2.8-2.5c0-0.5,0.1-1,0.4-1.5l1.6,0.8c-0.1,0.3-0.2,0.6-0.2,0.9
	c0,0.5,0.3,1,1,1c1,0,1.8-1,2.3-2.7l0.6-1.9h-1.3l0.4-1.3h1.3c0.2-0.7,0.5-1.3,0.9-1.9c-0.5-0.2-1-0.3-1.6-0.3
	c-1.4,0-2.3,0.8-2.3,1.9c0,0.6,0.3,1.2,0.7,1.7l-1.1,1.1c-0.9-0.8-1.3-1.8-1.3-2.7c0-1.7,1.3-3.3,3.5-3.3c1.1,0,2,0.4,2.8,0.8
	C14.3,6.9,15.1,6.6,16,6.6 M16.3,8.2C16.8,8.2,17,8,17,7.9c0-0.2-0.3-0.3-0.6-0.3c-0.4,0-0.8,0.2-1.2,0.5
	C15.5,8.1,15.9,8.2,16.3,8.2"/>
</svg>