<?xml version="1.0" encoding="utf-8"?>
<svg xmlns="http://www.w3.org/2000/svg" viewBox="0 0 755 410">
	<style type="text/css">
		@import url("../../../../styles/logos-draft.css");
		.d{fill:url(#d);}

		.s1{fill:#1AB5EA;}
		.s2{fill:#0763AB;}
		.s3{fill:#203768;}
		.s4{fill:#EA5826;}
	</style>

	<g class="main w">
		<defs>
			<pattern id="d" width="6" height="6" patternUnits="userSpaceOnUse"
				patternTransform="rotate(45 50 50)">
				<line class="h" x1="0" y1="0" x2="0" y2="10"></line>
			</pattern>
		</defs>

		<g class="d">
			<rect x="151.83" y="81.61" width="76.69" height="246.77" />
			<rect x="4.19" y="81.61" width="76.69" height="246.77" />
			<rect x="299.47" y="81.61" width="76.69" height="246.77" />
			<rect x="674.12" y="81.61" width="76.69" height="246.77" />
		</g>

		<rect class="bg" x="4.19" y="4.92" width="746.62" height="400.16" />
		<rect class="dl" x="4.19" y="4.92" width="746.62" height="400.16" />

		<g class="logo-draft">
			<path
				d="M213.1,244.7c-2.27,1.31-4.53,2.59-6.8,3.84c-1.14,10.63-2.69,20.54-4.64,29.32
		c-4.27,19.38-9.11,27.49-11.49,29.94c-2.37-2.45-7.21-10.56-11.49-29.94c-0.97-4.39-1.84-9.07-2.62-13.97
		c-1.78-11.32-3.03-23.87-3.69-37.03c-0.36-7.14-0.54-14.47-0.54-21.87c0-0.54,0-1.09,0.01-1.63c0.05-14.58,0.81-28.8,2.21-41.93
		c1.14-10.62,2.69-20.52,4.63-29.3c4.28-19.38,9.12-27.5,11.49-29.94c2.38,2.44,7.22,10.56,11.49,29.94
		c0.97,4.39,1.85,9.06,2.62,13.97c6.47-2.97,12.81-5.66,18.94-8.04c-0.97-5.53-2.07-10.77-3.3-15.67
		c-6.86-27.44-16.59-40.78-29.75-40.78c-13.15,0-22.88,13.34-29.74,40.78c-3.65,14.6-6.22,32.29-7.55,51.54
		c-0.69,10-1.05,20.43-1.05,31.06c0,3.9,0.05,7.78,0.14,11.61c0.16,6.55,0.46,13,0.9,19.27c0.88,12.87,2.32,25.04,4.26,36.05
		c0.97,5.54,2.08,10.78,3.3,15.67c6.86,27.45,16.59,40.79,29.74,40.79c13.16,0,22.89-13.34,29.75-40.79
		c3.65-14.59,6.22-32.29,7.55-51.54C222.8,238.99,218,241.87,213.1,244.7z" />
			<path
				d="M297.03,143.3c-6.58-11.39-23-13.15-50.2-5.37c-14.46,4.14-31.07,10.76-48.41,19.23
		c4.88,2.59,9.78,5.3,14.68,8.13c2.27,1.31,4.51,2.63,6.73,3.96c9.78-4.33,19.13-7.93,27.7-10.64
		c18.92-5.99,28.37-5.86,31.68-5.02c-0.93,3.28-5.55,11.53-20.19,24.92c-3.32,3.04-6.93,6.13-10.79,9.26
		c-8.91,7.2-19.15,14.56-30.22,21.71c-6,3.88-12.25,7.7-18.66,11.4c-0.47,0.27-0.94,0.54-1.41,0.81
		c-12.65,7.24-25.35,13.69-37.42,19.04c-9.77,4.33-19.12,7.94-27.7,10.65c-18.93,5.98-28.37,5.85-31.68,5.02
		c0.93-3.29,5.54-11.53,20.18-24.93c3.32-3.04,6.93-6.13,10.79-9.25c-5.8-4.12-11.3-8.26-16.43-12.38
		c-4.3,3.61-8.29,7.19-11.92,10.69c-15.31,14.81-22.88,27.02-22.88,37.02c0,3.28,0.81,6.32,2.44,9.14
		c3.9,6.75,11.26,10.12,22.27,10.12c7.56,0,16.85-1.59,27.92-4.76c14.47-4.14,31.07-10.76,48.41-19.23
		c9.01-4.4,18.22-9.3,27.43-14.62c3.37-1.95,6.7-3.92,9.97-5.92c5.59-3.42,11.02-6.9,16.25-10.41
		c10.7-7.2,20.52-14.53,29.09-21.73c4.3-3.61,8.29-7.18,11.92-10.69C296.92,169.79,303.61,154.69,297.03,143.3z" />
			<path
				d="M276.58,220.53c-10.82-10.46-24.85-21.53-40.86-32.3c-8.32-5.61-17.17-11.13-26.38-16.45
		c-3.37-1.95-6.74-3.84-10.11-5.67c-5.76-3.14-11.49-6.1-17.15-8.87c-11.58-5.67-22.83-10.5-33.35-14.34
		c-5.28-1.92-10.37-3.58-15.22-4.97c-27.2-7.78-43.62-6.02-50.19,5.37c-6.58,11.39,0.11,26.49,20.44,46.15
		c10.82,10.46,24.85,21.53,40.86,32.31c-0.2-5.52-0.3-11.12-0.3-16.77c0-2.62,0.02-5.23,0.07-7.82
		c-8.64-6.3-16.43-12.59-23.07-18.66c-14.64-13.39-19.25-21.64-20.18-24.92c3.31-0.84,12.75-0.96,31.67,5.02
		c4.29,1.35,8.77,2.93,13.41,4.71c10.69,4.11,22.18,9.3,33.91,15.31c6.36,3.26,12.8,6.77,19.21,10.47
		c0.47,0.27,0.94,0.55,1.41,0.82c12.6,7.34,24.54,15.11,35.2,22.89c8.64,6.3,16.43,12.59,23.07,18.66
		c14.64,13.4,19.25,21.64,20.18,24.93c-3.3,0.83-12.75,0.96-31.67-5.02c-4.29-1.35-8.77-2.93-13.4-4.72
		c-0.67,7.08-1.51,13.92-2.52,20.42c5.28,1.92,10.37,3.58,15.22,4.97c11.07,3.17,20.36,4.76,27.92,4.76
		c5.51,0,10.1-0.84,13.8-2.53c3.71-1.69,6.53-4.21,8.48-7.59C303.6,255.29,296.91,240.2,276.58,220.53z" />
			<path
				d="M211.12,205c-3.32,2.1-6.71,4.18-10.15,6.23c-1.78,1.07-3.57,2.12-5.37,3.16c-1.8,1.04-3.61,2.07-5.42,3.07
		c-3.49,1.95-6.99,3.84-10.47,5.67c-0.16-3.93-0.28-7.91-0.33-11.91c-0.03-2.07-0.05-4.15-0.05-6.23c0-2.08,0.02-4.15,0.05-6.22
		c0.05-4,0.17-7.98,0.33-11.91c3.48,1.82,6.98,3.71,10.47,5.67c1.81,1,3.62,2.03,5.42,3.07c1.8,1.04,3.59,2.09,5.37,3.16
		C204.41,200.8,207.8,202.89,211.12,205z" />
			<path d="M360.15,172.7l17.98-6.48h13.75v68.77h-15.72v-52.16l-12.18,3.34L360.15,172.7z" />
			<path
				d="M421.16,190.39h5.6c6.74,0,12.34,2.03,16.8,6.09c4.52,4.06,6.78,9.69,6.78,16.9c0,7.2-2.42,12.84-7.27,16.9
		c-4.85,4.06-10.77,6.09-17.78,6.09c-5.83,0-10.89-1.25-15.18-3.73c-4.29-2.49-7.42-6.16-9.38-11l13.56-7.86
		c1.7,4.85,5.37,7.27,11,7.27c3.93,0.26,6.7-0.95,8.3-3.64c1.6-2.68,1.62-5.37,0.05-8.06c-1.57-2.68-4.19-3.9-7.86-3.63h-21.51
		l2.85-39.49h39.79v14.74h-25.05L421.16,190.39z" />
			<path
				d="M499.75,234.99h-46.76v-11.4l23.09-23.97c4.65-4.85,6.98-8.91,6.98-12.18c0-2.16-0.66-3.91-1.96-5.26
		c-1.31-1.34-3.11-2.01-5.4-2.01c-4.58,0-7.96,2.49-10.12,7.47l-13.26-7.76c2.1-4.78,5.21-8.48,9.33-11.1
		c4.13-2.62,8.74-3.93,13.85-3.93c6.48,0,11.95,2,16.41,5.99c4.58,3.93,6.88,9.23,6.88,15.91c0,7.27-3.57,14.47-10.71,21.61
		l-11.39,11.49h23.09V234.99z" />
			<path
				d="M550.54,178.99l-11.89,15.13c4.45,1.57,8.01,4.05,10.66,7.42c2.65,3.37,3.98,7.32,3.98,11.84
		c0,7.2-2.42,12.84-7.27,16.9c-4.85,4.06-10.77,6.09-17.78,6.09c-5.57,0-10.48-1.26-14.74-3.78c-4.26-2.52-7.37-6.17-9.33-10.95
		l13.56-7.86c1.7,4.85,5.21,7.27,10.51,7.27c3.86,0.26,6.61-0.95,8.25-3.64c1.64-2.68,1.64-5.37,0-8.06
		c-1.64-2.68-4.39-3.9-8.25-3.63H525l-5.99-8.94l12.48-15.82h-25.15v-14.74h44.21V178.99z" />
			<path d="M557.22,166.22h51.08v15.13h-17.68v53.64H574.9v-53.64h-17.68V166.22z" />
			<path
				d="M651.72,234.99h-20.04l-22.4-68.77h17.19l15.23,50.59l15.23-50.59h17.19L651.72,234.99z" />
		</g>

		<g class="logo">
			<path class="s1"
				d="M213.1,244.7c-2.27,1.31-4.53,2.59-6.8,3.84c-1.14,10.63-2.69,20.54-4.64,29.32
		c-4.27,19.38-9.11,27.49-11.49,29.94c-2.37-2.45-7.21-10.56-11.49-29.94c-0.97-4.39-1.84-9.07-2.62-13.97
		c-1.78-11.32-3.03-23.87-3.69-37.03c-0.36-7.14-0.54-14.47-0.54-21.87c0-0.54,0-1.09,0.01-1.63c0.05-14.58,0.81-28.8,2.21-41.93
		c1.14-10.62,2.69-20.52,4.63-29.3c4.28-19.38,9.12-27.5,11.49-29.94c2.38,2.44,7.22,10.56,11.49,29.94
		c0.97,4.39,1.85,9.06,2.62,13.97c6.47-2.97,12.81-5.66,18.94-8.04c-0.97-5.53-2.07-10.77-3.3-15.67
		c-6.86-27.44-16.59-40.78-29.75-40.78c-13.15,0-22.88,13.34-29.74,40.78c-3.65,14.6-6.22,32.29-7.55,51.54
		c-0.69,10-1.05,20.43-1.05,31.06c0,3.9,0.05,7.78,0.14,11.61c0.16,6.55,0.46,13,0.9,19.27c0.88,12.87,2.32,25.04,4.26,36.05
		c0.97,5.54,2.08,10.78,3.3,15.67c6.86,27.45,16.59,40.79,29.74,40.79c13.16,0,22.89-13.34,29.75-40.79
		c3.65-14.59,6.22-32.29,7.55-51.54C222.8,238.99,218,241.87,213.1,244.7z" />
			<path class="s2"
				d="M297.03,143.3c-6.58-11.39-23-13.15-50.2-5.37c-14.46,4.14-31.07,10.76-48.41,19.23
		c4.88,2.59,9.78,5.3,14.68,8.13c2.27,1.31,4.51,2.63,6.73,3.96c9.78-4.33,19.13-7.93,27.7-10.64
		c18.92-5.99,28.37-5.86,31.68-5.02c-0.93,3.28-5.55,11.53-20.19,24.92c-3.32,3.04-6.93,6.13-10.79,9.26
		c-8.91,7.2-19.15,14.56-30.22,21.71c-6,3.88-12.25,7.7-18.66,11.4c-0.47,0.27-0.94,0.54-1.41,0.81
		c-12.65,7.24-25.35,13.69-37.42,19.04c-9.77,4.33-19.12,7.94-27.7,10.65c-18.93,5.98-28.37,5.85-31.68,5.02
		c0.93-3.29,5.54-11.53,20.18-24.93c3.32-3.04,6.93-6.13,10.79-9.25c-5.8-4.12-11.3-8.26-16.43-12.38
		c-4.3,3.61-8.29,7.19-11.92,10.69c-15.31,14.81-22.88,27.02-22.88,37.02c0,3.28,0.81,6.32,2.44,9.14
		c3.9,6.75,11.26,10.12,22.27,10.12c7.56,0,16.85-1.59,27.92-4.76c14.47-4.14,31.07-10.76,48.41-19.23
		c9.01-4.4,18.22-9.3,27.43-14.62c3.37-1.95,6.7-3.92,9.97-5.92c5.59-3.42,11.02-6.9,16.25-10.41
		c10.7-7.2,20.52-14.53,29.09-21.73c4.3-3.61,8.29-7.18,11.92-10.69C296.92,169.79,303.61,154.69,297.03,143.3z" />
			<path class="s3"
				d="M276.58,220.53c-10.82-10.46-24.85-21.53-40.86-32.3c-8.32-5.61-17.17-11.13-26.38-16.45
		c-3.37-1.95-6.74-3.84-10.11-5.67c-5.76-3.14-11.49-6.1-17.15-8.87c-11.58-5.67-22.83-10.5-33.35-14.34
		c-5.28-1.92-10.37-3.58-15.22-4.97c-27.2-7.78-43.62-6.02-50.19,5.37c-6.58,11.39,0.11,26.49,20.44,46.15
		c10.82,10.46,24.85,21.53,40.86,32.31c-0.2-5.52-0.3-11.12-0.3-16.77c0-2.62,0.02-5.23,0.07-7.82
		c-8.64-6.3-16.43-12.59-23.07-18.66c-14.64-13.39-19.25-21.64-20.18-24.92c3.31-0.84,12.75-0.96,31.67,5.02
		c4.29,1.35,8.77,2.93,13.41,4.71c10.69,4.11,22.18,9.3,33.91,15.31c6.36,3.26,12.8,6.77,19.21,10.47
		c0.47,0.27,0.94,0.55,1.41,0.82c12.6,7.34,24.54,15.11,35.2,22.89c8.64,6.3,16.43,12.59,23.07,18.66
		c14.64,13.4,19.25,21.64,20.18,24.93c-3.3,0.83-12.75,0.96-31.67-5.02c-4.29-1.35-8.77-2.93-13.4-4.72
		c-0.67,7.08-1.51,13.92-2.52,20.42c5.28,1.92,10.37,3.58,15.22,4.97c11.07,3.17,20.36,4.76,27.92,4.76
		c5.51,0,10.1-0.84,13.8-2.53c3.71-1.69,6.53-4.21,8.48-7.59C303.6,255.29,296.91,240.2,276.58,220.53z" />
			<path class="s4"
				d="M211.12,205c-3.32,2.1-6.71,4.18-10.15,6.23c-1.78,1.07-3.57,2.12-5.37,3.16c-1.8,1.04-3.61,2.07-5.42,3.07
		c-3.49,1.95-6.99,3.84-10.47,5.67c-0.16-3.93-0.28-7.91-0.33-11.91c-0.03-2.07-0.05-4.15-0.05-6.23c0-2.08,0.02-4.15,0.05-6.22
		c0.05-4,0.17-7.98,0.33-11.91c3.48,1.82,6.98,3.71,10.47,5.67c1.81,1,3.62,2.03,5.42,3.07c1.8,1.04,3.59,2.09,5.37,3.16
		C204.41,200.8,207.8,202.89,211.12,205z" />

			<g class="s3">
				<path
					d="M360.15,172.7l17.98-6.48h13.75v68.77h-15.72v-52.16l-12.18,3.34L360.15,172.7z" />
				<path
					d="M421.16,190.39h5.6c6.74,0,12.34,2.03,16.8,6.09c4.52,4.06,6.78,9.69,6.78,16.9c0,7.2-2.42,12.84-7.27,16.9
				c-4.85,4.06-10.77,6.09-17.78,6.09c-5.83,0-10.89-1.25-15.18-3.73c-4.29-2.49-7.42-6.16-9.38-11l13.56-7.86
				c1.7,4.85,5.37,7.27,11,7.27c3.93,0.26,6.7-0.95,8.3-3.64c1.6-2.68,1.62-5.37,0.05-8.06c-1.57-2.68-4.19-3.9-7.86-3.63h-21.51
				l2.85-39.49h39.79v14.74h-25.05L421.16,190.39z" />
				<path
					d="M499.75,234.99h-46.76v-11.4l23.09-23.97c4.65-4.85,6.98-8.91,6.98-12.18c0-2.16-0.66-3.91-1.96-5.26
				c-1.31-1.34-3.11-2.01-5.4-2.01c-4.58,0-7.96,2.49-10.12,7.47l-13.26-7.76c2.1-4.78,5.21-8.48,9.33-11.1
				c4.13-2.62,8.74-3.93,13.85-3.93c6.48,0,11.95,2,16.41,5.99c4.58,3.93,6.88,9.23,6.88,15.91c0,7.27-3.57,14.47-10.71,21.61
				l-11.39,11.49h23.09V234.99z" />
				<path
					d="M550.54,178.99l-11.89,15.13c4.45,1.57,8.01,4.05,10.66,7.42c2.65,3.37,3.98,7.32,3.98,11.84
				c0,7.2-2.42,12.84-7.27,16.9c-4.85,4.06-10.77,6.09-17.78,6.09c-5.57,0-10.48-1.26-14.74-3.78c-4.26-2.52-7.37-6.17-9.33-10.95
				l13.56-7.86c1.7,4.85,5.21,7.27,10.51,7.27c3.86,0.26,6.61-0.95,8.25-3.64c1.64-2.68,1.64-5.37,0-8.06
				c-1.64-2.68-4.39-3.9-8.25-3.63H525l-5.99-8.94l12.48-15.82h-25.15v-14.74h44.21V178.99z" />
			</g>

			<g class="s4">
				<path d="M557.22,166.22h51.08v15.13h-17.68v53.64H574.9v-53.64h-17.68V166.22z" />
				<path
					d="M651.72,234.99h-20.04l-22.4-68.77h17.19l15.23,50.59l15.23-50.59h17.19L651.72,234.99z" />
			</g>
		</g>

		<g class="mnl">
			<path
				d="M190.18,328.39c-13.15,0-22.88-13.34-29.75-40.78c-5.55-22.19-8.6-51.52-8.6-82.6s3.05-60.42,8.6-82.6
		c6.86-27.44,16.59-40.78,29.75-40.78s22.88,13.34,29.75,40.78c5.55,22.19,8.6,51.52,8.6,82.6c0,31.08-3.05,60.42-8.6,82.6
		C213.06,315.05,203.33,328.39,190.18,328.39z M190.18,102.19c-2.38,2.45-7.21,10.56-11.49,29.94c-4.42,20.03-6.86,45.9-6.86,72.86
		c0,26.96,2.43,52.84,6.86,72.86c4.28,19.38,9.11,27.5,11.49,29.94c2.38-2.45,7.21-10.56,11.49-29.94
		c4.42-20.03,6.86-45.9,6.86-72.86s-2.43-52.84-6.86-72.86C197.39,112.75,192.55,104.64,190.18,102.19z" />
			<path
				d="M105.6,276.82c-11.01,0-18.37-3.37-22.27-10.12l0,0c-6.58-11.39,0.11-26.49,20.45-46.15
		c16.44-15.9,40.32-33.21,67.23-48.75c26.92-15.54,53.85-27.56,75.83-33.85c27.2-7.78,43.62-6.02,50.19,5.37
		c6.58,11.39-0.11,26.49-20.45,46.15c-16.44,15.9-40.32,33.21-67.23,48.75s-53.85,27.56-75.83,33.85
		C122.44,275.23,113.16,276.82,105.6,276.82z M101.14,256.4c3.31,0.83,12.75,0.97,31.68-5.02c19.55-6.18,43.18-17.01,66.53-30.49
		c23.35-13.48,44.54-28.53,59.67-42.37c14.64-13.4,19.25-21.64,20.19-24.92c-3.3-0.83-12.75-0.96-31.68,5.02
		c-19.55,6.18-43.18,17.01-66.53,30.5s-44.54,28.53-59.67,42.37C106.68,244.88,102.07,253.12,101.14,256.4z" />
			<path
				d="M274.76,276.81c-7.56,0-16.85-1.59-27.92-4.75c-21.99-6.29-48.92-18.31-75.83-33.85s-50.79-32.85-67.23-48.75
		c-20.34-19.66-27.03-34.76-20.45-46.15c6.58-11.39,22.99-13.15,50.19-5.37c21.99,6.29,48.92,18.31,75.83,33.85
		s50.79,32.85,67.23,48.75c20.34,19.66,27.03,34.76,20.45,46.15v0C293.13,273.45,285.77,276.81,274.76,276.81z M101.14,153.6
		c0.93,3.28,5.54,11.53,20.19,24.92c15.13,13.84,36.33,28.89,59.67,42.37c23.35,13.48,46.98,24.31,66.53,30.49
		c18.92,5.99,28.37,5.86,31.68,5.02c-0.93-3.28-5.54-11.53-20.19-24.92c-15.13-13.84-36.33-28.89-59.67-42.37
		c-23.35-13.48-46.98-24.31-66.53-30.49C113.9,152.63,104.45,152.76,101.14,153.6z" />
			<path
				d="M105.95,284.33c-11.43,0-22.91-3.12-29.13-13.89v0c-12.7-22,13.21-47.06,21.73-55.29
		c16.87-16.31,41.27-34.01,68.7-49.85s54.96-28.11,77.52-34.57c11.39-3.26,46.05-13.17,58.75,8.83c12.7,22-13.21,47.06-21.73,55.29
		c-16.87,16.31-41.27,34.02-68.7,49.85c-27.43,15.84-54.96,28.11-77.52,34.57C129.76,280.93,117.88,284.33,105.95,284.33z
			M264.96,161.83c-4.85,0.93-11.17,2.54-19.12,5.24c-18.21,6.18-39.91,16.31-61.08,28.54s-40.8,25.94-55.26,38.63
		c-6.31,5.54-10.87,10.2-14.1,13.94c4.85-0.93,11.17-2.54,19.12-5.24c18.21-6.18,39.91-16.31,61.08-28.54
		c21.17-12.23,40.8-25.94,55.26-38.63C257.17,170.23,261.72,165.56,264.96,161.83z" />
			<path
				d="M274.4,284.33c-11.93,0-23.81-3.4-29.62-5.06c-22.56-6.45-50.09-18.73-77.52-34.57s-51.83-33.54-68.7-49.85
		c-8.52-8.23-34.43-33.29-21.73-55.29c12.7-22,47.36-12.09,58.75-8.83c22.56,6.45,50.09,18.73,77.52,34.57
		c27.43,15.84,51.83,33.54,68.7,49.85c8.52,8.23,34.43,33.29,21.73,55.29v0C297.31,281.21,285.83,284.33,274.4,284.33z
			M115.4,161.83c3.23,3.74,7.79,8.4,14.1,13.94c14.46,12.68,34.08,26.4,55.26,38.63s42.87,22.36,61.08,28.54
		c7.95,2.7,14.27,4.31,19.12,5.24c-3.23-3.74-7.79-8.4-14.1-13.94c-14.46-12.68-34.08-26.4-55.26-38.63
		c-21.18-12.23-42.87-22.36-61.08-28.54C126.57,164.37,120.25,162.76,115.4,161.83z" />
			<path
				d="M190.18,335.89c-25.41,0-34.15-34.97-37.02-46.47c-5.69-22.76-8.83-52.74-8.83-84.42s3.13-61.66,8.83-84.42
		c2.87-11.49,11.62-46.47,37.02-46.47s34.15,34.97,37.02,46.47c5.69,22.76,8.83,52.74,8.83,84.42s-3.13,61.66-8.83,84.42
		C224.32,300.91,215.58,335.89,190.18,335.89z M190.18,118.65c-1.62,4.67-3.38,10.95-5.02,19.18c-3.76,18.86-5.82,42.72-5.82,67.17
		c0,24.45,2.07,48.3,5.82,67.17c1.64,8.23,3.4,14.51,5.02,19.18c1.62-4.67,3.38-10.95,5.02-19.18c3.76-18.86,5.82-42.72,5.82-67.17
		c0-24.45-2.07-48.3-5.82-67.17C193.56,129.6,191.8,123.32,190.18,118.65z" />
		</g>

		<g class="mjl">
			<line x1="4.19" y1="166.23" x2="750.81" y2="166.23" />
			<line x1="4.19" y1="81.61" x2="750.81" y2="81.61" />
			<line x1="4.19" y1="328.38" x2="750.81" y2="328.38" />
			<line x1="4.19" y1="234.99" x2="750.81" y2="234.99" />

			<line x1="80.88" y1="4.92" x2="80.88" y2="405.08" />
			<line x1="151.83" y1="4.92" x2="151.83" y2="405.08" />
			<line x1="228.52" y1="4.92" x2="228.52" y2="405.08" />
			<line x1="299.47" y1="4.92" x2="299.47" y2="405.08" />
			<line x1="376.17" y1="4.92" x2="376.17" y2="405.08" />
			<line x1="674.12" y1="4.92" x2="674.12" y2="405.08" />
		</g>
	</g>
</svg>