<svg xmlns="http://www.w3.org/2000/svg" viewBox="0 0 50 50">
<style type="text/css">
    .st0{fill:#432818;}
</style>

<path id="caramel" fill="currentColor" d="M39.46,7.23c-4.34-6.3-12.63-8.87-19.73-5.9c-3.33,1.4-7.47,4.17-6.72,8.33c0.36,1.99,1.94,3.64,3.88,4.17
	c2.09,0.57,3.88-0.27,5.42-1.62c2.55-2.25,6.64-1.64,8.4,1.29c1.35,2.26,0.88,5.02-0.93,6.86c-0.95,0.96-1.91,1.91-2.86,2.87
	c0,0,0,0,0,0c-1.91,1.92-3.82,3.85-5.74,5.76c-0.09,0.07-0.17,0.16-0.25,0.25c-2.79,2.77-5.58,5.54-8.35,8.32
	c-0.98,0.98-1.96,1.94-2.93,2.93c-0.07,0.08-0.13,0.16-0.2,0.24c-0.15,0.13-0.28,0.27-0.38,0.44c-1.35,1.76-1.77,4.04-0.59,6.11
	c1.79,3.14,5.99,3.45,8.51,1.08c0.74-0.7,1.45-1.45,2.17-2.17c0.95-0.95,1.9-1.9,2.84-2.84c0.08-0.06,0.15-0.13,0.21-0.21
	c1.88-1.88,3.77-3.77,5.65-5.65c0.08-0.06,0.15-0.13,0.21-0.21c1.88-1.88,3.77-3.77,5.65-5.65c0.08-0.06,0.15-0.13,0.21-0.21
	c1.03-1.03,2.06-2.06,3.09-3.09c0.15-0.15,0.31-0.31,0.46-0.46C42.83,22.37,43.85,13.61,39.46,7.23z M31.84,28.56
	c-1.78,0-3.57,0-5.35,0c0.79-0.79,1.59-1.59,2.38-2.38c1.78,0,3.57,0,5.35,0C33.43,26.97,32.64,27.77,31.84,28.56z M25.98,34.42
	c-1.78,0-3.57,0-5.35,0c0.79-0.79,1.59-1.59,2.38-2.38c1.78,0,3.57,0,5.35,0C27.57,32.83,26.78,33.63,25.98,34.42z M20.12,40.28
	c-1.78,0-3.57,0-5.35,0c0.79-0.79,1.59-1.59,2.38-2.38c1.78,0,3.57,0,5.35,0C21.71,38.69,20.92,39.48,20.12,40.28z M25.21,7.38
	c-1.79,0.18-3.44,0.82-4.85,1.94c-0.54,0.43-0.99,1.02-1.7,1.17c-0.69,0.14-1.44-0.13-1.88-0.68c-2.05-2.59,3.62-5.13,5.37-5.67
	c3.05-0.94,6.45-0.76,9.33,0.66c6.08,2.97,8.92,10.3,6.27,16.56c-0.2,0.47-0.43,0.91-0.69,1.35c-1.58,0-3.16,0-4.74,0
	c0.19-0.2,0.39-0.4,0.56-0.61c2.3-2.82,2.71-6.7,1.06-9.94C32.34,8.99,28.73,7.03,25.21,7.38z M14.49,45.91
	c-1.7,1.5-3.82-0.41-3-2.15c1.75,0,3.5,0,5.25,0C16,44.5,15.26,45.23,14.49,45.91z"/>
</svg>