<svg xmlns="http://www.w3.org/2000/svg" viewBox="0 0 50 50">
<style type="text/css">
    .st0{fill:#432818;}
</style>

<path id="cherry" fill="currentColor" d="M42.14,24.01c-1.28-0.49-2.63-0.71-3.98-0.72c-0.04,0-0.08-0.01-0.12-0.01c-0.17,0-0.35-0.01-0.52-0.03
	c-0.09-0.02-0.18-0.03-0.27-0.05c-0.34-0.08-0.67-0.17-0.99-0.28c-0.52-0.18-1.3-0.58-1.95-1.01c-1.31-0.85-2.56-2.1-3.42-3.48
	c-0.93-1.48-1.47-3.08-1.43-4.81c0.03-1.36,0.49-2.65,1.18-3.82c2.24,2.43,5.4,3.9,8.78,3.91c4.23,0,8.14-2.32,10.29-5.94
	c0.32-0.53,0.32-1.23,0-1.76c-2.17-3.66-6.04-5.88-10.29-5.94c-3.91,0.05-7.48,1.96-9.73,5.11c-5.34,0.29-10.35,2.68-13.84,6.79
	c-3.42,4.03-5.23,9.12-5.57,14.35c-2.87,0.42-5.58,1.85-7.45,4.13c-3.16,3.85-3.69,9.39-1.11,13.7c2.58,4.31,7.59,6.47,12.5,5.59
	c5.57-1,9.54-6.1,9.62-11.67c-0.07-4.98-3.13-9.39-7.79-11.16c-0.75-0.28-1.52-0.47-2.29-0.59c0.31-4.3,1.75-8.58,4.55-11.89
	c2.35-2.77,5.4-4.63,8.82-5.4c-0.62,1.28-1.02,2.66-1.13,4.14c-0.18,2.38,0.55,4.81,1.77,6.84c1.09,1.8,2.67,3.52,4.53,4.78
	c-1.27,0.7-2.43,1.62-3.36,2.77c-3.16,3.85-3.69,9.39-1.11,13.7c2.58,4.31,7.59,6.47,12.5,5.59c5.57-1,9.54-6.1,9.62-11.67
	C49.86,30.18,46.8,25.78,42.14,24.01z M20.35,38.07c-0.05,3.47-2.18,6.7-5.49,7.89c-3.39,1.22-7.23,0.18-9.5-2.63
	c-2.19-2.71-2.42-6.61-0.65-9.59c1.77-2.96,5.3-4.59,8.7-3.97C17.42,30.52,20.29,34.02,20.35,38.07z M39.4,3.55
	c2.67,0.03,5.09,1.26,6.69,3.34c-1.59,2.07-4.02,3.34-6.69,3.34c-2.66,0-5.1-1.27-6.69-3.33C34.31,4.81,36.73,3.59,39.4,3.55z
	 M40.96,43.06c-3.39,1.22-7.23,0.18-9.5-2.63c-2.19-2.71-2.42-6.61-0.65-9.59c1.5-2.51,4.28-4.07,7.17-4.09c0.02,0,0.03,0,0.05,0
	c0.02,0,0.04,0,0.06,0c0.47,0,0.95,0.04,1.42,0.13c4.01,0.74,6.87,4.24,6.93,8.29C46.4,38.64,44.27,41.87,40.96,43.06z"/>

</svg>