<svg xmlns="http://www.w3.org/2000/svg" viewBox="0 0 50 50">
<path id="chocolate" fill="currentColor" d="M49.45,17.19c-3.1-3.1-6.21-6.21-9.31-9.31C38.85,6.59,37.61,5.23,36.26,4c-0.1-0.09-0.22-0.16-0.34-0.23
	c-0.03-0.02-0.06-0.04-0.09-0.06c-0.03-0.02-0.05-0.04-0.08-0.05c-0.25-0.15-0.54-0.24-0.83-0.25c-1.24-0.23-2.8,0-3.82,0
	c-2.7,0-5.39,0-8.09,0c-0.4,0-0.86-0.03-1.3,0c-0.08,0-0.16,0.01-0.23,0.03c-0.24,0.04-0.47,0.09-0.67,0.21
	c-0.35,0.21-0.65,0.57-0.94,0.86c-3.36,3.36-6.72,6.72-10.09,10.09c-3.07,3.07-6.15,6.15-9.22,9.22c-0.01,0.01-0.01,0.02-0.02,0.03
	c-0.01,0.01-0.01,0.01-0.02,0.02c-0.33,0.35-0.47,0.74-0.46,1.12c0,0.02,0,0.05,0,0.07c0,0.02,0,0.04,0,0.06
	c0,0.38,0.13,0.76,0.46,1.11c0.01,0.01,0.02,0.02,0.03,0.03c0.01,0.01,0.01,0.02,0.02,0.02c5.8,5.8,11.6,11.6,17.4,17.4
	c0.83,0.83,1.67,1.67,2.5,2.5c0.01,0.01,0.03,0.02,0.04,0.03c0.28,0.29,0.67,0.48,1.19,0.48c0.51,0,0.91-0.19,1.18-0.47
	c0.02-0.01,0.03-0.02,0.05-0.04c7.75-7.75,15.5-15.5,23.25-23.25c1.09-1.09,2.18-2.18,3.27-3.27
	C50.11,18.98,50.11,17.85,49.45,17.19z M41.58,22.59c-1.39-1.39-2.78-2.78-4.17-4.17c0.71-0.71,1.42-1.42,2.13-2.13
	c0.68-0.68,1.36-1.36,2.04-2.04c1.39,1.39,2.78,2.78,4.17,4.17C44.36,19.81,42.97,21.2,41.58,22.59z M34.95,29.22
	c-1.39-1.39-2.78-2.78-4.17-4.17c1.39-1.39,2.78-2.78,4.17-4.17c0.97,0.97,1.95,1.95,2.92,2.92c0.42,0.42,0.83,0.83,1.25,1.25
	C37.73,26.44,36.34,27.83,34.95,29.22z M28.32,35.85c-1.39-1.39-2.78-2.78-4.17-4.17c1.39-1.39,2.78-2.78,4.17-4.17
	c0.97,0.97,1.95,1.95,2.92,2.92c0.42,0.42,0.83,0.83,1.25,1.25C31.1,33.07,29.71,34.46,28.32,35.85z M15.06,35.85
	c-1.39-1.39-2.78-2.78-4.17-4.17c1.39-1.39,2.78-2.78,4.17-4.17c1.39,1.39,2.78,2.78,4.17,4.17c-0.71,0.71-1.42,1.42-2.13,2.13
	C16.42,34.49,15.74,35.17,15.06,35.85z M17.52,25.05c1.39-1.39,2.78-2.78,4.17-4.17c1.39,1.39,2.78,2.78,4.17,4.17
	c-1.39,1.39-2.78,2.78-4.17,4.17C20.3,27.83,18.91,26.44,17.52,25.05z M15.06,14.25c1.39,1.39,2.78,2.78,4.17,4.17
	c-1.39,1.39-2.78,2.78-4.17,4.17c-0.97-0.97-1.95-1.95-2.92-2.92c-0.42-0.42-0.83-0.83-1.25-1.25
	C12.28,17.03,13.67,15.64,15.06,14.25z M24.15,18.42c1.39-1.39,2.78-2.78,4.17-4.17c1.39,1.39,2.78,2.78,4.17,4.17
	c-1.39,1.39-2.78,2.78-4.17,4.17C26.93,21.2,25.54,19.81,24.15,18.42z M39.12,11.79c-1.39,1.39-2.78,2.78-4.17,4.17
	c-1.39-1.39-2.78-2.78-4.17-4.17c0.71-0.71,1.42-1.42,2.13-2.13c0.68-0.68,1.36-1.36,2.04-2.04C36.34,9,37.73,10.4,39.12,11.79z
	 M28.32,9.32c-0.81-0.81-1.62-1.62-2.43-2.43c1.62,0,3.24,0,4.86,0C29.94,7.7,29.13,8.51,28.32,9.32z M20.42,8.88
	c0.42-0.42,0.85-0.85,1.27-1.27c1.39,1.39,2.78,2.78,4.17,4.17c-1.39,1.39-2.78,2.78-4.17,4.17c-0.97-0.97-1.95-1.95-2.92-2.92
	c-0.42-0.42-0.83-0.83-1.25-1.25C18.48,10.82,19.45,9.85,20.42,8.88z M4.25,25.05c1.39-1.39,2.78-2.78,4.17-4.17
	c1.39,1.39,2.78,2.78,4.17,4.17c-0.71,0.71-1.42,1.42-2.13,2.13c-0.68,0.68-1.36,1.36-2.04,2.04c-0.97-0.97-1.94-1.94-2.9-2.9
	C5.1,25.89,4.68,25.47,4.25,25.05z M21.69,42.48c-1.39-1.39-2.78-2.78-4.17-4.17c1.39-1.39,2.78-2.78,4.17-4.17
	c0.97,0.97,1.95,1.95,2.92,2.92c0.42,0.42,0.83,0.83,1.25,1.25c-0.71,0.71-1.42,1.42-2.13,2.13C23.05,41.12,22.37,41.8,21.69,42.48z
	"/>
</svg>