<svg xmlns="http://www.w3.org/2000/svg" viewBox="0 0 50 50">
<style type="text/css">
    .st0{fill:#432818;}
</style>

<g id="coffee" fill="currentColor">
	<path d="M11.44,24.12c2.27,0.42,4.53,0.05,6.59-0.98c3.89-1.93,6.71-6.36,6.21-10.76c-0.31-2.71-1.74-5.11-3.5-7.15
		c-1.82-2.11-4.33-4.01-7.03-4.79C10.04-0.62,6.25,0.68,3.58,3.21C3.42,3.32,3.29,3.45,3.18,3.6C2.77,4.02,2.4,4.47,2.06,4.94
		C0.65,6.91-0.13,9.43,0.1,11.85c0.3,3.14,2.1,5.89,4.27,8.11C6.28,21.83,8.76,23.62,11.44,24.12z M11.73,3.57
		c1.87,0.2,3.64,1.35,5.03,2.57c1.58,1.39,3.12,3.25,3.76,5.29c0.3,0.97,0.35,1.96,0.19,2.92c-0.35-0.66-0.79-1.27-1.33-1.81
		c-2-2-4.95-2.75-7.67-2.05c-0.13,0.03-0.26,0.06-0.39,0.09c-0.02,0-0.05,0.01-0.07,0.01c-0.11-0.04-0.53,0.04-0.65,0.05
		c-0.13,0-0.27,0-0.4-0.01c-0.07,0-0.26-0.05-0.35-0.04c-0.01,0-0.02,0-0.03-0.01c-0.11-0.02-0.22-0.05-0.33-0.08
		c-0.23-0.06-0.45-0.14-0.67-0.22c-0.03-0.02-0.07-0.03-0.1-0.05c-0.1-0.05-0.21-0.11-0.31-0.16c-0.1-0.06-0.2-0.12-0.3-0.18
		C8.06,9.88,7.65,9.63,7.89,9.77C8.12,9.91,7.74,9.64,7.7,9.6C7.61,9.52,7.52,9.44,7.43,9.35C7.28,9.2,7.07,9.02,6.97,8.83
		C6.94,8.79,6.92,8.75,6.91,8.73C6.83,8.61,6.76,8.5,6.69,8.38c-0.06-0.1-0.11-0.2-0.16-0.31C6.49,8,6.46,7.93,6.43,7.86
		c0.03,0.07,0.06,0.14,0.09,0.2C6.41,8.02,6.29,7.4,6.26,7.3C6.23,7.19,6.21,7.07,6.19,6.96c0-0.02-0.01-0.04-0.01-0.07
		c0-0.09-0.03-0.19-0.03-0.26c-0.01-0.15-0.02-0.3-0.01-0.45c0-0.22,0.04-0.43,0.04-0.65c0,0,0,0,0,0c0,0.01,0,0.02,0,0.03
		c0-0.01,0-0.02,0-0.03C7.68,4.16,9.67,3.35,11.73,3.57z M3.63,10c0.35,0.66,0.8,1.27,1.34,1.81c2,2,4.94,2.75,7.67,2.05
		c0.13-0.03,0.26-0.06,0.39-0.09c0.02,0,0.05-0.01,0.07-0.01c0.1,0.04,0.54-0.04,0.66-0.04c0.13,0,0.27,0,0.4,0.01
		c0.08,0,0.26,0.05,0.35,0.04c0.01,0,0.02,0,0.03,0.01c0.11,0.02,0.22,0.05,0.33,0.08c0.23,0.06,0.45,0.14,0.67,0.22
		c0.03,0.02,0.07,0.03,0.1,0.05c0.1,0.05,0.21,0.11,0.31,0.16c0.1,0.06,0.2,0.12,0.3,0.18c0.04,0.03,0.45,0.28,0.21,0.14
		c-0.23-0.14,0.15,0.13,0.2,0.17c0.09,0.08,0.18,0.16,0.27,0.25c0.15,0.15,0.35,0.33,0.46,0.52c0.02,0.04,0.05,0.08,0.06,0.11
		c0.08,0.11,0.15,0.23,0.21,0.35c0.06,0.1,0.11,0.2,0.16,0.31c0.03,0.07,0.07,0.14,0.1,0.21c-0.03-0.07-0.06-0.14-0.09-0.2
		c0.1,0.04,0.22,0.66,0.25,0.76c0.03,0.11,0.05,0.22,0.08,0.33c0,0.02,0.01,0.04,0.01,0.07c0,0.09,0.03,0.19,0.03,0.26
		c0.01,0.15,0.02,0.3,0.01,0.45c0,0.22-0.04,0.45-0.04,0.67c0,0,0,0,0,0c0-0.02,0-0.04,0-0.05c0,0.02,0,0.03-0.01,0.05
		c0,0.01,0,0.01,0,0.02c-0.2,0.18-0.4,0.35-0.62,0.5c-1.43,1.04-3.19,1.63-4.95,1.43c-2.21-0.25-4.23-1.79-5.78-3.3
		C4.79,15.42,3.24,12.77,3.63,10z"/>
	<path d="M6.17,5.56C6.15,5.7,6.17,5.89,6.17,5.56L6.17,5.56z"/>
	<path d="M18.18,18.8C18.2,18.66,18.18,18.47,18.18,18.8L18.18,18.8z"/>
	<path d="M46.81,14.99c-0.1-0.14-0.23-0.27-0.37-0.38c-0.44-0.42-0.9-0.82-1.39-1.17c-1.97-1.41-4.49-2.2-6.92-1.96
		c-3.13,0.31-5.91,2.14-8.12,4.3c-1.87,1.91-3.65,4.37-4.12,7.06c-0.4,2.27-0.04,4.52,0.99,6.59c1.93,3.88,6.35,6.68,10.74,6.2
		c5.3-0.58,10.46-5.48,11.95-10.52C50.64,21.45,49.34,17.67,46.81,14.99z M29.21,24c0.24-2.22,1.75-4.22,3.26-5.76
		c2.58-2.53,6.07-4.37,9.55-2.58c0.65,0.33,1.25,0.75,1.8,1.24c0,0,0,0,0,0c-0.04,0.11,0.04,0.54,0.04,0.65c0,0.13,0,0.27-0.01,0.4
		c0,0.08-0.05,0.26-0.04,0.35c0,0.01,0,0.02-0.01,0.03c-0.02,0.11-0.05,0.22-0.08,0.33c-0.06,0.23-0.14,0.45-0.22,0.67
		c-0.02,0.03-0.03,0.07-0.05,0.1c-0.05,0.1-0.11,0.21-0.16,0.31c-0.06,0.1-0.12,0.2-0.18,0.3c-0.03,0.04-0.28,0.45-0.14,0.21
		c0.14-0.23-0.13,0.15-0.17,0.2c-0.08,0.09-0.16,0.18-0.25,0.27c-0.15,0.15-0.33,0.36-0.52,0.46c-0.04,0.02-0.08,0.05-0.11,0.06
		c-0.11,0.08-0.23,0.15-0.35,0.21c-0.1,0.06-0.2,0.11-0.31,0.16c-0.07,0.03-0.14,0.07-0.21,0.1c0.07-0.03,0.14-0.06,0.2-0.09
		c-0.04,0.1-0.66,0.22-0.76,0.25c-0.11,0.03-0.22,0.05-0.33,0.08c-0.02,0-0.04,0.01-0.07,0.01c-0.09,0-0.19,0.03-0.26,0.03
		c-0.15,0.01-0.3,0.02-0.45,0.01c-0.23,0-0.46-0.04-0.68-0.04c0.02,0,0.04,0,0.06,0c-0.02,0-0.03,0-0.04-0.01
		c-0.15-0.03-0.3-0.06-0.45-0.1c-2.72-0.7-5.67,0.05-7.67,2.05c-0.54,0.54-0.98,1.16-1.34,1.82C29.18,25.17,29.15,24.59,29.21,24z
		 M46.43,23.13c-0.22,1.87-1.4,3.66-2.62,5.05c-1.39,1.57-3.23,3.11-5.27,3.73c-2.38,0.72-4.9-0.05-6.73-1.66
		c0-0.01,0-0.02-0.01-0.03c0.04-0.11-0.04-0.54-0.04-0.65c0-0.13,0-0.27,0.01-0.4c0-0.08,0.05-0.26,0.04-0.35
		c0-0.01,0-0.02,0.01-0.03c0.02-0.11,0.05-0.22,0.08-0.33c0.06-0.23,0.14-0.45,0.22-0.67c0.02-0.03,0.03-0.07,0.05-0.1
		c0.05-0.1,0.11-0.21,0.16-0.31c0.06-0.1,0.12-0.2,0.18-0.3c0.03-0.04,0.28-0.45,0.14-0.21c-0.14,0.23,0.13-0.15,0.17-0.2
		c0.08-0.09,0.16-0.18,0.25-0.27c0.15-0.15,0.33-0.36,0.52-0.46c0.04-0.02,0.08-0.05,0.11-0.06c0.11-0.08,0.23-0.15,0.35-0.21
		c0.1-0.06,0.2-0.11,0.31-0.16c0.07-0.03,0.14-0.07,0.21-0.1c-0.07,0.03-0.14,0.06-0.2,0.09c0.04-0.1,0.66-0.22,0.76-0.25
		c0.11-0.03,0.22-0.05,0.33-0.08c0.02,0,0.04-0.01,0.07-0.01c0.09,0,0.19-0.03,0.26-0.03c0.15-0.01,0.3-0.02,0.45-0.01
		c0.23,0,0.46,0.04,0.68,0.04c-0.03,0-0.04,0-0.06,0c0.02,0,0.03,0,0.05,0.01c0.15,0.03,0.3,0.06,0.45,0.1
		c2.72,0.7,5.67-0.05,7.67-2.05c0.55-0.55,1-1.18,1.35-1.84C46.48,21.93,46.5,22.53,46.43,23.13z"/>
	<path d="M36.86,25.13C36.72,25.11,36.53,25.13,36.86,25.13L36.86,25.13z"/>
	<path d="M38.77,21.99C38.91,22,39.11,21.99,38.77,21.99L38.77,21.99z"/>
	<path d="M17.27,26.1c-3.66-1.09-7.44,0.22-10.12,2.74c-0.14,0.1-0.27,0.23-0.38,0.37c-0.42,0.44-0.82,0.9-1.17,1.39
		c-1.41,1.97-2.2,4.49-1.96,6.92c0.31,3.13,2.14,5.91,4.3,8.12c1.91,1.87,4.37,3.65,7.06,4.12c2.27,0.4,4.52,0.04,6.59-0.99
		c3.88-1.93,6.68-6.35,6.2-10.74C27.21,32.75,22.31,27.59,17.27,26.1z M15.3,29.22c1.87,0.22,3.66,1.4,5.05,2.62
		c1.57,1.39,3.11,3.23,3.73,5.27c0.72,2.38-0.05,4.9-1.66,6.73c-0.01,0-0.02,0-0.03,0.01c-0.11-0.04-0.54,0.04-0.65,0.04
		c-0.13,0-0.27,0-0.4-0.01c-0.08,0-0.26-0.05-0.35-0.04c-0.01,0-0.02,0-0.03-0.01c-0.11-0.02-0.22-0.05-0.33-0.08
		c-0.23-0.06-0.45-0.14-0.67-0.22c-0.03-0.02-0.07-0.03-0.1-0.05c-0.1-0.05-0.21-0.11-0.31-0.16c-0.1-0.06-0.2-0.12-0.3-0.18
		c-0.04-0.03-0.45-0.28-0.21-0.14c0.23,0.14-0.15-0.13-0.2-0.17c-0.09-0.08-0.18-0.16-0.27-0.25c-0.15-0.15-0.36-0.33-0.46-0.52
		c-0.02-0.04-0.05-0.08-0.06-0.11c-0.08-0.11-0.15-0.23-0.21-0.35c-0.06-0.1-0.11-0.2-0.16-0.31c-0.03-0.07-0.07-0.14-0.1-0.21
		c0.03,0.07,0.06,0.14,0.08,0.2c-0.1-0.04-0.22-0.66-0.25-0.76c-0.03-0.11-0.05-0.22-0.08-0.33c0-0.02-0.01-0.04-0.01-0.06
		c0-0.09-0.03-0.19-0.03-0.26c-0.01-0.15-0.02-0.3-0.01-0.45c0-0.23,0.04-0.46,0.04-0.68c0,0.03,0,0.04,0,0.06
		c0-0.02,0-0.03,0.01-0.05c0.03-0.15,0.06-0.3,0.1-0.45c0.7-2.72-0.05-5.67-2.05-7.67c-0.55-0.55-1.18-1-1.84-1.35
		C14.09,29.18,14.69,29.15,15.3,29.22z M16.17,46.44c-2.22-0.24-4.22-1.75-5.76-3.26c-2.53-2.58-4.37-6.07-2.58-9.55
		c0.33-0.65,0.75-1.25,1.24-1.8c0,0,0,0,0,0c0.11,0.04,0.54-0.04,0.65-0.04c0.13,0,0.27,0,0.4,0.01c0.08,0,0.26,0.05,0.35,0.04
		c0.01,0,0.02,0,0.03,0.01c0.11,0.02,0.22,0.05,0.33,0.08c0.23,0.06,0.45,0.14,0.67,0.22c0.03,0.02,0.07,0.03,0.1,0.05
		c0.1,0.05,0.21,0.11,0.31,0.16c0.1,0.06,0.2,0.12,0.3,0.18c0.04,0.03,0.45,0.28,0.21,0.14c-0.23-0.14,0.15,0.13,0.2,0.17
		c0.09,0.08,0.18,0.16,0.27,0.25c0.15,0.15,0.36,0.33,0.46,0.52c0.02,0.04,0.05,0.08,0.06,0.11c0.08,0.11,0.15,0.23,0.21,0.35
		c0.06,0.1,0.11,0.2,0.16,0.31c0.03,0.07,0.07,0.14,0.1,0.21c-0.03-0.07-0.06-0.14-0.08-0.2c0.1,0.04,0.22,0.66,0.25,0.76
		c0.03,0.11,0.05,0.22,0.08,0.33c0,0.02,0.01,0.04,0.01,0.07c0,0.09,0.03,0.19,0.03,0.26c0.01,0.15,0.02,0.3,0.01,0.45
		c0,0.23-0.04,0.46-0.04,0.68c0-0.02,0-0.04,0-0.05c0,0.02,0,0.03-0.01,0.04c-0.03,0.15-0.06,0.3-0.1,0.45
		c-0.7,2.72,0.05,5.67,2.05,7.67c0.54,0.54,1.16,0.98,1.82,1.34C17.34,46.48,16.75,46.51,16.17,46.44z"/>
	<path d="M17.29,38.79C17.28,38.93,17.29,39.12,17.29,38.79L17.29,38.79z"/>
	<path d="M14.15,36.89C14.17,36.74,14.15,36.54,14.15,36.89L14.15,36.89z"/>
</g>

</svg>