<svg xmlns="http://www.w3.org/2000/svg" viewBox="0 0 50 50">
<style type="text/css">
    .st0{fill:#432818;}
</style>

<g id="currant" fill="currentColor">
	<path d="M26.83,29.48c3.4-0.61,5.81-3.78,5.86-7.16c-0.04-3.1-1.96-5.79-4.85-6.88c-2.76-1.04-6.15-0.15-8.02,2.14
		c-1.96,2.39-2.34,5.78-0.73,8.48C20.69,28.74,23.79,30.03,26.83,29.48z M22.33,24.66L22.33,24.66
		C22.53,24.87,22.37,24.73,22.33,24.66z M23.88,25.86C23.8,25.83,23.69,25.76,23.88,25.86L23.88,25.86z M29.18,22.89
		C29.18,22.97,29.18,22.95,29.18,22.89L29.18,22.89z M29.19,21.84C29.19,21.88,29.19,21.89,29.19,21.84L29.19,21.84z M23.86,18.78
		C23.78,18.81,23.68,18.84,23.86,18.78L23.86,18.78z M22.4,19.89C22.42,19.86,22.43,19.86,22.4,19.89L22.4,19.89z M21.55,21.86
		c0.02-0.1,0.04-0.2,0.06-0.3c0.05-0.24,0.13-0.48,0.21-0.71c0.01-0.03,0.01-0.04,0.02-0.06c0.01-0.02,0.02-0.03,0.04-0.07
		c0.07-0.13,0.13-0.26,0.21-0.39c0.06-0.1,0.13-0.2,0.2-0.31c0.01-0.02,0.04-0.05,0.06-0.08c0.15-0.17,0.3-0.34,0.47-0.5
		c0,0,0.1-0.08,0.16-0.14c0.07-0.05,0.17-0.13,0.17-0.13c0.24-0.16,0.49-0.29,0.75-0.42c0,0,0,0,0.01,0
		c0.14-0.05,0.28-0.1,0.42-0.14c0.1-0.03,0.19-0.05,0.29-0.07c0,0,0.11-0.02,0.2-0.04c0.09-0.01,0.24-0.03,0.24-0.03
		c0.13-0.01,0.26-0.01,0.39-0.01c0.13,0,0.26,0.01,0.39,0.02c0.03,0,0.05,0,0.07,0c0.02,0.01,0.04,0.01,0.07,0.02
		c0.29,0.07,0.58,0.15,0.86,0.24c0.02,0.01,0.03,0.01,0.04,0.01c0.01,0,0.01,0.01,0.01,0.01c0.13,0.1,0.31,0.16,0.45,0.24
		c0.08,0.05,0.17,0.1,0.25,0.16c0.04,0.03,0.09,0.06,0.13,0.09c0.02,0.01,0.04,0.04,0.09,0.08c0.17,0.17,0.34,0.34,0.51,0.51
		c0.03,0.03,0.04,0.04,0.06,0.05c0.01,0.02,0.02,0.03,0.03,0.05c0.08,0.12,0.16,0.24,0.24,0.37c0.08,0.13,0.14,0.26,0.21,0.39
		c0.02,0.03,0.03,0.05,0.04,0.06c0.01,0.02,0.01,0.03,0.02,0.06c0.09,0.29,0.17,0.57,0.24,0.86c0,0.01,0.01,0.03,0.01,0.05
		c0.02,0.18,0.03,0.37,0.03,0.55c0,0.16-0.01,0.31-0.02,0.46c0,0.01,0,0.01,0,0.02c-0.04,0.24-0.09,0.47-0.17,0.7
		c-0.04,0.12-0.08,0.24-0.13,0.36c-0.01,0.02-0.01,0.02-0.03,0.05c-0.14,0.26-0.29,0.51-0.45,0.75c-0.01,0.02-0.02,0.02-0.02,0.04
		c-0.01,0-0.01,0-0.02,0.01c-0.09,0.07-0.16,0.19-0.24,0.27c-0.07,0.07-0.14,0.14-0.21,0.2c-0.02,0.02-0.13,0.11-0.19,0.16
		c-0.17,0.12-0.34,0.23-0.51,0.33c-0.09,0.05-0.17,0.09-0.26,0.14c-0.04,0.02-0.08,0.04-0.1,0.05c-0.03,0.01-0.06,0.02-0.09,0.04
		c-0.24,0.08-0.47,0.15-0.72,0.2c-0.05,0.01-0.14,0.02-0.2,0.03c-0.08,0.01-0.17,0.02-0.25,0.02c-0.26,0.01-0.52-0.01-0.77-0.02
		c0,0,0,0-0.01,0c-0.02,0-0.03-0.01-0.06-0.01c-0.15-0.03-0.29-0.06-0.44-0.1c-0.14-0.04-0.28-0.09-0.42-0.14
		c0,0-0.01-0.01-0.02-0.01c-0.21-0.11-0.42-0.21-0.62-0.34c-0.1-0.06-0.2-0.14-0.3-0.21c0,0,0,0,0,0c-0.01-0.01-0.02-0.02-0.04-0.04
		c-0.2-0.2-0.4-0.41-0.6-0.62c-0.08-0.12-0.16-0.24-0.24-0.37c-0.05-0.08-0.1-0.17-0.14-0.25c-0.01-0.03-0.07-0.16-0.11-0.23
		c-0.07-0.2-0.14-0.39-0.19-0.6c-0.02-0.1-0.04-0.2-0.07-0.29c-0.01-0.04-0.01-0.06-0.01-0.09c0-0.04-0.01-0.09-0.01-0.13
		c-0.02-0.23-0.02-0.47-0.01-0.7C21.55,21.94,21.63,21.45,21.55,21.86z"/>
	<path d="M42.7,34.03c-2.76-1.04-6.15-0.15-8.02,2.14c-1.96,2.39-2.34,5.78-0.73,8.48c1.61,2.69,4.7,3.98,7.75,3.43
		c3.4-0.61,5.81-3.78,5.86-7.16C47.51,37.81,45.59,35.12,42.7,34.03z M44.05,40.44C44.05,40.47,44.06,40.49,44.05,40.44L44.05,40.44
		z M38.72,37.38C38.64,37.41,38.54,37.44,38.72,37.38L38.72,37.38z M37.26,38.49C37.29,38.46,37.29,38.46,37.26,38.49L37.26,38.49z
		 M37.19,43.26C37.39,43.47,37.24,43.33,37.19,43.26L37.19,43.26z M38.74,44.46C38.66,44.42,38.55,44.35,38.74,44.46L38.74,44.46z
		 M44.05,41.49C44.04,41.57,44.04,41.54,44.05,41.49L44.05,41.49z M44.05,41.38c0,0.01,0,0.01,0,0.02c-0.04,0.24-0.09,0.47-0.17,0.7
		c-0.04,0.12-0.08,0.24-0.13,0.36c-0.01,0.02-0.01,0.02-0.03,0.05c-0.14,0.26-0.29,0.51-0.45,0.75c-0.01,0.02-0.01,0.02-0.02,0.04
		c-0.01,0-0.01,0-0.02,0.01c-0.09,0.07-0.16,0.19-0.24,0.27c-0.07,0.07-0.14,0.14-0.21,0.2c-0.02,0.02-0.13,0.11-0.19,0.16
		c-0.17,0.12-0.34,0.23-0.51,0.33c-0.09,0.05-0.17,0.09-0.26,0.14c-0.04,0.02-0.08,0.04-0.1,0.05c-0.03,0.01-0.06,0.02-0.09,0.04
		c-0.24,0.08-0.47,0.15-0.72,0.2c-0.05,0.01-0.14,0.02-0.2,0.03c-0.08,0.01-0.17,0.02-0.25,0.02c-0.26,0.01-0.52-0.01-0.77-0.02
		c0,0,0,0-0.01,0c-0.02,0-0.03-0.01-0.06-0.01c-0.15-0.03-0.29-0.06-0.44-0.1c-0.14-0.04-0.28-0.09-0.42-0.14
		c0,0-0.01-0.01-0.02-0.01c-0.21-0.11-0.42-0.21-0.62-0.34c-0.1-0.06-0.2-0.14-0.3-0.21c0,0,0,0,0,0c-0.01-0.01-0.02-0.02-0.04-0.04
		c-0.2-0.2-0.4-0.41-0.6-0.62c-0.08-0.12-0.16-0.24-0.24-0.37c-0.05-0.08-0.1-0.17-0.14-0.25c-0.01-0.03-0.08-0.16-0.11-0.23
		c-0.07-0.2-0.14-0.39-0.19-0.59c-0.02-0.1-0.04-0.2-0.07-0.29c-0.01-0.04-0.01-0.06-0.01-0.09c0-0.04-0.01-0.09-0.01-0.13
		c-0.02-0.23-0.02-0.47-0.01-0.7c0-0.07,0.08-0.55,0-0.15c0.02-0.1,0.04-0.2,0.06-0.3c0.05-0.24,0.13-0.48,0.21-0.71
		c0.01-0.03,0.01-0.04,0.02-0.06c0.01-0.02,0.02-0.03,0.04-0.07c0.07-0.13,0.13-0.26,0.21-0.39c0.06-0.1,0.13-0.2,0.2-0.31
		c0.01-0.02,0.04-0.05,0.06-0.08c0.15-0.17,0.3-0.34,0.47-0.5c0,0,0.1-0.08,0.16-0.14c0.07-0.05,0.17-0.13,0.17-0.13
		c0.24-0.16,0.49-0.29,0.75-0.42c0,0,0,0,0.01,0c0.14-0.05,0.28-0.1,0.42-0.14c0.1-0.03,0.19-0.05,0.29-0.07c0,0,0.11-0.02,0.2-0.04
		c0.09-0.01,0.24-0.03,0.24-0.03c0.13-0.01,0.26-0.01,0.39-0.01c0.13,0,0.26,0.01,0.39,0.02c0.03,0,0.05,0,0.07,0
		c0.02,0.01,0.04,0.01,0.07,0.02c0.29,0.07,0.58,0.15,0.86,0.24c0.02,0.01,0.03,0.01,0.05,0.01c0.01,0,0.01,0.01,0.01,0.01
		c0.13,0.1,0.31,0.16,0.45,0.24c0.08,0.05,0.17,0.1,0.25,0.16c0.04,0.03,0.09,0.06,0.13,0.09c0.02,0.01,0.04,0.04,0.09,0.08
		c0.17,0.17,0.34,0.34,0.51,0.51c0.03,0.03,0.04,0.04,0.06,0.05c0.01,0.02,0.02,0.03,0.03,0.05c0.08,0.12,0.16,0.24,0.24,0.37
		c0.08,0.13,0.14,0.26,0.21,0.39c0.02,0.03,0.03,0.05,0.04,0.06c0.01,0.02,0.01,0.03,0.02,0.06c0.09,0.29,0.17,0.57,0.24,0.86
		c0,0.01,0.01,0.03,0.01,0.05c0.02,0.18,0.03,0.37,0.03,0.55C44.07,41.07,44.06,41.22,44.05,41.38z"/>
	<path d="M11.5,27.62c-2.76-1.04-6.15-0.15-8.02,2.14c-1.96,2.39-2.34,5.78-0.73,8.48c1.61,2.69,4.7,3.98,7.75,3.43
		c3.4-0.61,5.81-3.78,5.86-7.16C16.31,31.4,14.39,28.72,11.5,27.62z M12.86,34.03C12.86,34.07,12.86,34.08,12.86,34.03L12.86,34.03z
		 M7.53,30.97C7.45,31,7.35,31.03,7.53,30.97L7.53,30.97z M6.06,32.08C6.09,32.05,6.09,32.05,6.06,32.08L6.06,32.08z M5.99,36.85
		L5.99,36.85C6.19,37.06,6.04,36.92,5.99,36.85z M7.55,38.05C7.47,38.02,7.35,37.95,7.55,38.05L7.55,38.05z M12.85,35.08
		C12.84,35.17,12.85,35.14,12.85,35.08L12.85,35.08z M12.86,34.97c0,0.01,0,0.01,0,0.02c-0.04,0.24-0.09,0.47-0.17,0.7
		c-0.04,0.12-0.08,0.24-0.13,0.36c-0.01,0.02-0.01,0.02-0.03,0.05c-0.14,0.26-0.29,0.51-0.45,0.75c-0.01,0.02-0.01,0.02-0.02,0.04
		c-0.01,0-0.01,0-0.02,0.01c-0.09,0.07-0.16,0.19-0.24,0.27c-0.07,0.07-0.14,0.14-0.21,0.2c-0.02,0.02-0.13,0.11-0.19,0.16
		c-0.17,0.12-0.34,0.23-0.51,0.33c-0.09,0.05-0.17,0.09-0.26,0.14c-0.04,0.02-0.08,0.04-0.1,0.05c-0.03,0.01-0.06,0.02-0.1,0.04
		c-0.24,0.08-0.47,0.15-0.72,0.2c-0.05,0.01-0.14,0.02-0.2,0.03c-0.08,0.01-0.17,0.02-0.25,0.02c-0.26,0.01-0.52-0.01-0.77-0.02
		c0,0,0,0-0.01,0c-0.02,0-0.03-0.01-0.06-0.01C8.29,38.27,8.14,38.24,8,38.2c-0.14-0.04-0.28-0.09-0.42-0.14
		c0,0-0.01-0.01-0.02-0.01c-0.21-0.11-0.42-0.21-0.62-0.34c-0.1-0.06-0.2-0.14-0.3-0.21c0,0,0,0,0,0c-0.01-0.01-0.02-0.02-0.04-0.04
		c-0.2-0.2-0.4-0.41-0.6-0.62c-0.08-0.12-0.16-0.24-0.24-0.37c-0.05-0.08-0.1-0.17-0.14-0.25C5.6,36.2,5.54,36.07,5.5,36
		c-0.07-0.2-0.14-0.39-0.19-0.6c-0.02-0.1-0.04-0.2-0.07-0.29c-0.01-0.04-0.01-0.06-0.01-0.09c0-0.04-0.01-0.09-0.01-0.13
		c-0.02-0.23-0.02-0.47-0.01-0.7c0-0.07,0.08-0.55,0-0.15c0.02-0.1,0.04-0.2,0.06-0.3c0.05-0.24,0.13-0.48,0.21-0.71
		C5.5,33.01,5.5,33,5.5,32.98c0.01-0.02,0.02-0.03,0.04-0.07c0.07-0.13,0.13-0.26,0.21-0.39c0.06-0.1,0.13-0.2,0.2-0.31
		c0.01-0.02,0.04-0.05,0.06-0.08c0.15-0.17,0.3-0.34,0.47-0.5c0,0,0.1-0.08,0.16-0.14c0.07-0.05,0.17-0.13,0.17-0.13
		c0.24-0.16,0.49-0.29,0.75-0.42c0,0,0,0,0.01,0c0.14-0.05,0.28-0.1,0.42-0.14c0.1-0.03,0.19-0.05,0.29-0.07c0,0,0.11-0.02,0.2-0.04
		c0.09-0.01,0.24-0.03,0.24-0.03c0.13-0.01,0.26-0.01,0.39-0.01c0.13,0,0.26,0.01,0.39,0.02c0.03,0,0.05,0,0.07,0
		c0.02,0.01,0.04,0.01,0.07,0.02c0.29,0.07,0.58,0.15,0.86,0.24c0.02,0.01,0.03,0.01,0.05,0.01c0.01,0,0.01,0.01,0.01,0.01
		c0.13,0.1,0.31,0.16,0.45,0.24c0.08,0.05,0.17,0.1,0.25,0.16c0.04,0.03,0.09,0.06,0.13,0.09c0.02,0.01,0.04,0.04,0.09,0.08
		c0.17,0.17,0.34,0.34,0.51,0.51c0.03,0.03,0.04,0.04,0.06,0.05c0.01,0.02,0.02,0.03,0.03,0.05c0.08,0.12,0.16,0.24,0.24,0.37
		c0.08,0.13,0.14,0.26,0.21,0.39c0.02,0.03,0.03,0.05,0.04,0.06c0.01,0.02,0.01,0.03,0.02,0.06c0.09,0.29,0.17,0.57,0.24,0.86
		c0,0.01,0.01,0.03,0.01,0.05c0.02,0.18,0.03,0.37,0.03,0.55C12.87,34.66,12.87,34.82,12.86,34.97z"/>
	<path d="M26.03,35.79c-2.76-1.04-6.15-0.15-8.02,2.14c-1.96,2.39-2.34,5.78-0.73,8.48c1.61,2.69,4.7,3.98,7.75,3.43
		c3.4-0.61,5.81-3.78,5.86-7.16C30.84,39.57,28.92,36.89,26.03,35.79z M27.38,42.2C27.38,42.24,27.38,42.25,27.38,42.2L27.38,42.2z
		 M22.05,39.14C21.97,39.17,21.87,39.2,22.05,39.14L22.05,39.14z M20.59,40.25C20.61,40.22,20.62,40.22,20.59,40.25L20.59,40.25z
		 M20.52,45.02L20.52,45.02C20.72,45.23,20.56,45.09,20.52,45.02z M22.07,46.22C21.99,46.19,21.88,46.12,22.07,46.22L22.07,46.22z
		 M27.37,43.25C27.37,43.33,27.37,43.31,27.37,43.25L27.37,43.25z M27.38,43.14c0,0.01,0,0.01,0,0.02c-0.04,0.24-0.09,0.47-0.17,0.7
		c-0.04,0.12-0.08,0.24-0.13,0.36c-0.01,0.02-0.01,0.02-0.03,0.05c-0.14,0.26-0.29,0.51-0.45,0.75c-0.01,0.02-0.02,0.02-0.02,0.04
		c-0.01,0-0.01,0-0.02,0.01c-0.09,0.07-0.16,0.19-0.24,0.27c-0.07,0.07-0.14,0.14-0.21,0.2c-0.02,0.02-0.13,0.11-0.19,0.16
		c-0.17,0.12-0.34,0.23-0.51,0.33c-0.08,0.05-0.17,0.09-0.26,0.14c-0.04,0.02-0.08,0.04-0.1,0.05c-0.03,0.01-0.06,0.02-0.09,0.04
		c-0.24,0.08-0.47,0.15-0.72,0.2c-0.05,0.01-0.14,0.02-0.2,0.03c-0.08,0.01-0.17,0.02-0.25,0.02c-0.26,0.01-0.52-0.01-0.77-0.02
		c0,0,0,0-0.01,0c-0.02,0-0.03-0.01-0.06-0.01c-0.15-0.03-0.29-0.06-0.44-0.1c-0.14-0.04-0.28-0.09-0.42-0.14
		c0,0-0.01-0.01-0.02-0.01c-0.21-0.11-0.42-0.21-0.62-0.34c-0.1-0.06-0.2-0.14-0.3-0.21c0,0,0,0,0,0c-0.01-0.01-0.02-0.02-0.04-0.04
		c-0.2-0.2-0.4-0.41-0.6-0.62c-0.08-0.12-0.16-0.24-0.24-0.37c-0.05-0.08-0.1-0.17-0.14-0.25c-0.01-0.03-0.08-0.16-0.11-0.23
		c-0.07-0.2-0.14-0.39-0.19-0.59c-0.02-0.1-0.04-0.2-0.07-0.29c-0.01-0.04-0.01-0.06-0.01-0.09c0-0.04-0.01-0.09-0.01-0.13
		c-0.02-0.23-0.02-0.47-0.01-0.7c0-0.07,0.08-0.55,0-0.15c0.02-0.1,0.04-0.2,0.06-0.3c0.05-0.24,0.13-0.48,0.21-0.71
		c0.01-0.03,0.01-0.04,0.02-0.06c0.01-0.02,0.02-0.03,0.04-0.07c0.07-0.13,0.13-0.26,0.21-0.39c0.06-0.1,0.13-0.2,0.2-0.31
		c0.01-0.02,0.04-0.05,0.06-0.08c0.15-0.17,0.3-0.34,0.47-0.5c0,0,0.1-0.08,0.16-0.14c0.07-0.05,0.17-0.13,0.17-0.13
		c0.24-0.16,0.49-0.29,0.75-0.42c0,0,0,0,0.01,0c0.14-0.05,0.28-0.1,0.42-0.14c0.1-0.03,0.19-0.05,0.29-0.07c0,0,0.11-0.02,0.2-0.04
		c0.09-0.01,0.24-0.03,0.24-0.03c0.13-0.01,0.26-0.01,0.39-0.01c0.13,0,0.26,0.01,0.39,0.02c0.03,0,0.05,0,0.07,0
		c0.02,0.01,0.04,0.01,0.07,0.02c0.29,0.07,0.58,0.15,0.86,0.24c0.02,0.01,0.03,0.01,0.05,0.01c0.01,0,0.01,0.01,0.01,0.01
		c0.13,0.1,0.31,0.16,0.45,0.24c0.08,0.05,0.17,0.1,0.25,0.16c0.04,0.03,0.09,0.06,0.13,0.09c0.02,0.01,0.04,0.04,0.09,0.08
		c0.17,0.17,0.34,0.34,0.51,0.51c0.03,0.03,0.04,0.04,0.06,0.05c0.01,0.02,0.02,0.03,0.03,0.05c0.08,0.12,0.16,0.24,0.24,0.37
		c0.08,0.13,0.14,0.26,0.21,0.39c0.02,0.03,0.03,0.05,0.04,0.06c0.01,0.02,0.01,0.03,0.02,0.06c0.09,0.29,0.17,0.57,0.24,0.86
		c0,0.01,0.01,0.03,0.01,0.05c0.02,0.18,0.03,0.37,0.03,0.55C27.4,42.83,27.39,42.99,27.38,43.14z"/>
	<path d="M8.76,25.13c3.4-0.61,5.81-3.78,5.86-7.16c-0.04-3.1-1.96-5.79-4.85-6.88C7,10.03,3.61,10.93,1.74,13.22
		C-0.22,15.61-0.6,19,1.01,21.7C2.61,24.38,5.71,25.67,8.76,25.13z M4.25,20.31C4.45,20.52,4.3,20.38,4.25,20.31L4.25,20.31z
		 M5.81,21.51C5.73,21.47,5.61,21.4,5.81,21.51L5.81,21.51z M11.11,18.54C11.1,18.62,11.11,18.59,11.11,18.54L11.11,18.54z
		 M11.11,17.49C11.12,17.52,11.12,17.53,11.11,17.49L11.11,17.49z M5.79,14.42C5.71,14.45,5.61,14.49,5.79,14.42L5.79,14.42z
		 M4.32,15.54C4.35,15.51,4.35,15.5,4.32,15.54L4.32,15.54z M3.48,17.51c0.02-0.1,0.04-0.2,0.06-0.3c0.05-0.24,0.13-0.48,0.21-0.71
		c0.01-0.03,0.01-0.04,0.02-0.06c0.01-0.02,0.02-0.03,0.04-0.07c0.07-0.13,0.13-0.26,0.21-0.39c0.06-0.1,0.13-0.2,0.2-0.31
		c0.01-0.02,0.04-0.05,0.06-0.08c0.15-0.17,0.3-0.34,0.47-0.5c0,0,0.1-0.08,0.16-0.14c0.07-0.05,0.17-0.13,0.17-0.13
		c0.24-0.16,0.49-0.29,0.75-0.42c0,0,0,0,0.01,0c0.14-0.05,0.28-0.1,0.42-0.14c0.1-0.03,0.19-0.05,0.29-0.07c0,0,0.11-0.02,0.2-0.04
		c0.09-0.01,0.24-0.03,0.24-0.03c0.13-0.01,0.26-0.01,0.39-0.01c0.13,0,0.26,0.01,0.39,0.02c0.03,0,0.05,0,0.07,0
		c0.02,0.01,0.04,0.01,0.07,0.02c0.29,0.07,0.58,0.15,0.86,0.24c0.02,0.01,0.03,0.01,0.05,0.01c0.01,0,0.01,0.01,0.01,0.01
		c0.13,0.1,0.31,0.16,0.45,0.24c0.08,0.05,0.17,0.1,0.25,0.16c0.04,0.03,0.09,0.06,0.13,0.09C9.67,14.94,9.7,14.96,9.75,15
		c0.17,0.17,0.34,0.34,0.51,0.51c0.03,0.03,0.04,0.04,0.06,0.05c0.01,0.02,0.02,0.03,0.03,0.05c0.08,0.12,0.16,0.24,0.24,0.37
		c0.08,0.13,0.14,0.26,0.21,0.39c0.02,0.03,0.03,0.05,0.04,0.06c0.01,0.02,0.01,0.03,0.02,0.06c0.09,0.29,0.17,0.57,0.24,0.86
		c0,0.01,0.01,0.03,0.01,0.05c0.02,0.18,0.03,0.37,0.03,0.55c0,0.16-0.01,0.31-0.02,0.46c0,0.01,0,0.01,0,0.02
		c-0.04,0.24-0.09,0.47-0.17,0.7c-0.04,0.12-0.08,0.24-0.13,0.36c-0.01,0.02-0.01,0.02-0.03,0.05c-0.14,0.26-0.29,0.51-0.45,0.75
		c-0.01,0.02-0.01,0.02-0.02,0.04c-0.01,0-0.01,0-0.02,0.01c-0.09,0.07-0.16,0.19-0.24,0.27c-0.07,0.07-0.14,0.14-0.21,0.2
		c-0.02,0.02-0.13,0.11-0.19,0.16c-0.17,0.12-0.34,0.23-0.51,0.33c-0.09,0.05-0.17,0.09-0.26,0.14c-0.04,0.02-0.08,0.04-0.1,0.05
		c-0.03,0.01-0.06,0.02-0.09,0.04c-0.24,0.08-0.47,0.15-0.72,0.2c-0.05,0.01-0.14,0.02-0.2,0.03c-0.08,0.01-0.17,0.02-0.25,0.02
		c-0.26,0.01-0.52-0.01-0.77-0.02c0,0,0,0-0.01,0c-0.02,0-0.03-0.01-0.06-0.01c-0.15-0.03-0.29-0.06-0.44-0.1
		c-0.14-0.04-0.28-0.09-0.42-0.14c0,0-0.01-0.01-0.02-0.01C5.61,21.4,5.4,21.3,5.2,21.17c-0.1-0.06-0.2-0.14-0.3-0.21c0,0,0,0,0,0
		c-0.01-0.01-0.02-0.02-0.04-0.04c-0.2-0.2-0.4-0.41-0.6-0.62c-0.08-0.12-0.16-0.24-0.24-0.37c-0.05-0.08-0.1-0.17-0.14-0.25
		c-0.01-0.03-0.08-0.16-0.11-0.23c-0.07-0.2-0.14-0.39-0.19-0.6c-0.02-0.1-0.04-0.2-0.07-0.29c-0.01-0.04-0.01-0.06-0.01-0.09
		c0-0.04-0.01-0.09-0.01-0.13c-0.02-0.23-0.02-0.47-0.01-0.7C3.48,17.58,3.56,17.1,3.48,17.51z"/>
	<path d="M49.61,4.25c-0.01-0.03-0.02-0.05-0.03-0.08c-0.08-0.32-0.25-0.61-0.53-0.82c-0.04-0.03-0.09-0.05-0.13-0.08
		c-0.15-0.1-0.32-0.18-0.52-0.23c-1.73-0.44-3.48-0.48-5.21-0.18c-2.99-2.49-6.95-3.41-10.76-2.44c-0.58,0.15-1.07,0.64-1.22,1.22
		c-0.97,3.8-0.05,7.76,2.43,10.74c-0.31,1.74-0.26,3.52,0.2,5.23c0.15,0.58,0.64,1.07,1.22,1.22c3.44,0.89,7.13,0.22,9.99-1.8
		c-0.08,5.09-3.52,9.44-8.16,11.86c-2.24,1.17-4.84,1.77-7.25,2.1c-2.28,0.31-4.65,0.34-6.86-0.37c-3.16-1.02-5.17-3.62-6.5-6.54
		c-0.39-0.86-1.62-1.06-2.38-0.62c-0.88,0.5-1.01,1.53-0.62,2.38c1.48,3.23,3.82,6.11,7.13,7.58c2.66,1.18,5.58,1.44,8.45,1.15
		c6.8-0.68,13.42-3.43,17.27-9.36c2.24-3.45,2.89-7.56,2.06-11.54C49.9,10.88,50.44,7.48,49.61,4.25z M36.99,15.66
		c-0.13-1.01-0.07-2.01,0.13-3.03c0.11-0.58,0.21-1.07-0.11-1.62c-0.2-0.33-0.52-0.59-0.77-0.89c-0.34-0.4-0.63-0.83-0.89-1.29
		c-0.92-1.62-1.23-3.46-0.98-5.26c1.8-0.24,3.64,0.06,5.26,0.98c0.46,0.26,0.89,0.55,1.29,0.89c0.29,0.25,0.55,0.57,0.89,0.77
		c0.54,0.32,1.04,0.22,1.61,0.11c1.03-0.2,2.03-0.26,3.03-0.13c0.33,2.48-0.41,5.05-2.2,6.92C42.36,15.11,39.66,16.02,36.99,15.66z"
		/>
</g>

</svg>