<svg xmlns="http://www.w3.org/2000/svg" viewBox="0 0 50 50">
<style type="text/css">
    .st0{fill:#432818;}
</style>

<path id="grape" fill="currentColor" d="M44.18,13.52c-2.76-1.04-6.15-0.15-8.02,2.14c-0.01,0.02-0.02,0.04-0.04,0.05c-0.72-0.85-1.64-1.54-2.7-2.02
	c0.22-0.19,0.44-0.37,0.65-0.57c2.98-3.04,4.13-7.38,3.07-11.5c-0.15-0.58-0.64-1.07-1.22-1.22c-2.23-0.57-4.64-0.55-6.83,0.2
	c-1.7,0.58-3.16,1.5-4.42,2.7c-0.04-0.03-0.07-0.07-0.11-0.1c-3.01-2.79-7.24-3.81-11.21-2.79c-0.58,0.15-1.07,0.64-1.22,1.22
	c-1.03,4,0.03,8.27,2.86,11.28c0.34,0.36,0.7,0.69,1.08,1c-0.85,0.43-1.62,1.01-2.22,1.74c-0.01,0.02-0.02,0.04-0.04,0.05
	c-0.81-0.96-1.85-1.73-3.09-2.2c-2.76-1.04-6.15-0.15-8.02,2.14c-1.96,2.39-2.34,5.78-0.73,8.48c1.18,1.98,3.17,3.19,5.35,3.48
	c-1.44,2.31-1.6,5.27-0.17,7.67c1.25,2.09,3.4,3.32,5.72,3.51c-1.42,2.3-1.57,5.24-0.14,7.64c1.61,2.69,4.7,3.98,7.75,3.43
	c1.66-0.3,3.08-1.21,4.11-2.45c1.71,2.01,4.4,2.93,7.04,2.45c3.4-0.61,5.81-3.78,5.86-7.16c-0.02-1.43-0.45-2.76-1.18-3.89
	c0.3-0.02,0.59-0.04,0.89-0.09c3.4-0.61,5.81-3.78,5.86-7.16c-0.02-1.42-0.45-2.74-1.16-3.87c0.42-0.01,0.85-0.04,1.27-0.11
	c3.4-0.61,5.81-3.78,5.86-7.16C48.99,17.29,47.07,14.61,44.18,13.52z M45.53,19.92C45.53,19.96,45.53,19.97,45.53,19.92L45.53,19.92
	z M40.2,16.86C40.12,16.89,40.02,16.92,40.2,16.86L40.2,16.86z M38.74,17.97C38.76,17.94,38.77,17.94,38.74,17.97L38.74,17.97z
	 M38.67,22.74C38.87,22.95,38.72,22.81,38.67,22.74L38.67,22.74z M40.22,23.94C40.14,23.91,40.03,23.84,40.22,23.94L40.22,23.94z
	 M34.24,28.01C34.16,28.04,34.05,28.07,34.24,28.01L34.24,28.01z M32.77,29.12C32.8,29.09,32.8,29.09,32.77,29.12L32.77,29.12z
	 M32.7,33.89C32.9,34.1,32.75,33.96,32.7,33.89L32.7,33.89z M34.26,35.09C34.17,35.06,34.06,34.99,34.26,35.09L34.26,35.09z
	 M33.99,42.22C33.99,42.26,33.99,42.27,33.99,42.22L33.99,42.22z M28.66,39.16C28.58,39.19,28.48,39.22,28.66,39.16L28.66,39.16z
	 M27.2,40.27C27.22,40.24,27.22,40.24,27.2,40.27L27.2,40.27z M22.84,42.22C22.84,42.26,22.84,42.27,22.84,42.22L22.84,42.22z
	 M17.51,39.16C17.43,39.19,17.33,39.22,17.51,39.16L17.51,39.16z M16.05,40.27C16.07,40.24,16.07,40.24,16.05,40.27L16.05,40.27z
	 M17.26,32.13C17.25,32.21,17.25,32.18,17.26,32.13L17.26,32.13z M17.26,31.07C17.27,31.11,17.27,31.12,17.26,31.07L17.26,31.07z
	 M11.94,28.01C11.86,28.04,11.75,28.07,11.94,28.01L11.94,28.01z M10.47,29.12C10.5,29.09,10.5,29.09,10.47,29.12L10.47,29.12z
	 M12.08,20.97C12.07,21.06,12.07,21.03,12.08,20.97L12.08,20.97z M16.37,22.74C16.57,22.95,16.42,22.81,16.37,22.74L16.37,22.74z
	 M17.92,23.94C17.84,23.91,17.73,23.84,17.92,23.94L17.92,23.94z M23.22,20.97C23.22,21.06,23.22,21.03,23.22,20.97L23.22,20.97z
	 M27.52,22.74C27.72,22.95,27.57,22.81,27.52,22.74L27.52,22.74z M29.07,23.94C28.99,23.91,28.88,23.84,29.07,23.94L29.07,23.94z
	 M34.37,20.97C34.37,21.06,34.37,21.03,34.37,20.97L34.37,20.97z M28.41,32.01c0,0.01,0,0.01,0,0.02c-0.04,0.24-0.09,0.47-0.17,0.7
	c-0.04,0.12-0.08,0.24-0.13,0.36c-0.01,0.02-0.01,0.02-0.03,0.05c-0.14,0.26-0.29,0.51-0.45,0.75c-0.01,0.02-0.02,0.02-0.02,0.04
	c-0.01,0-0.01,0-0.02,0.01c-0.09,0.07-0.16,0.19-0.24,0.27c-0.07,0.07-0.14,0.14-0.21,0.2c-0.02,0.02-0.13,0.11-0.19,0.16
	c-0.17,0.12-0.34,0.23-0.51,0.33c-0.09,0.05-0.17,0.09-0.26,0.14c-0.04,0.02-0.08,0.04-0.1,0.05c-0.03,0.01-0.06,0.02-0.1,0.04
	c-0.24,0.08-0.47,0.15-0.72,0.2c-0.05,0.01-0.14,0.02-0.2,0.03c-0.08,0.01-0.17,0.02-0.25,0.02c-0.26,0.01-0.52-0.01-0.77-0.02
	c0,0,0,0-0.01,0c-0.02,0-0.03-0.01-0.06-0.01c-0.15-0.03-0.29-0.06-0.44-0.1c-0.14-0.04-0.28-0.09-0.42-0.14
	c0,0-0.01-0.01-0.02-0.01c-0.21-0.11-0.42-0.21-0.62-0.34c-0.1-0.06-0.2-0.14-0.3-0.21c0,0,0,0,0,0c-0.01-0.01-0.02-0.02-0.04-0.04
	c-0.2-0.2-0.4-0.41-0.6-0.62c-0.08-0.12-0.16-0.24-0.24-0.37c-0.05-0.08-0.1-0.17-0.14-0.25c-0.01-0.03-0.08-0.16-0.11-0.23
	c-0.07-0.2-0.14-0.39-0.19-0.59c-0.02-0.1-0.04-0.2-0.07-0.29c-0.01-0.04-0.01-0.06-0.01-0.09c0-0.04-0.01-0.09-0.01-0.13
	c-0.02-0.23-0.02-0.47-0.01-0.7c0-0.07,0.08-0.55,0-0.15c0.02-0.1,0.04-0.2,0.06-0.3c0.05-0.24,0.13-0.48,0.21-0.71
	c0.01-0.03,0.01-0.04,0.02-0.06c0.01-0.02,0.02-0.03,0.04-0.07c0.07-0.13,0.13-0.26,0.21-0.39c0.06-0.1,0.13-0.2,0.2-0.31
	c0.01-0.02,0.04-0.05,0.06-0.08c0.15-0.17,0.3-0.34,0.47-0.5c0,0,0.1-0.08,0.16-0.14c0.07-0.05,0.17-0.13,0.17-0.13
	c0.24-0.16,0.49-0.29,0.75-0.42c0,0,0,0,0.01,0c0.14-0.05,0.28-0.1,0.42-0.14c0.1-0.03,0.19-0.05,0.29-0.07c0,0,0.11-0.02,0.2-0.04
	c0.09-0.01,0.24-0.03,0.24-0.03c0.13-0.01,0.26-0.01,0.39-0.01c0.13,0,0.26,0.01,0.39,0.02c0.03,0,0.05,0,0.07,0
	c0.02,0.01,0.04,0.01,0.07,0.02c0.29,0.07,0.58,0.15,0.86,0.24c0.02,0.01,0.03,0.01,0.05,0.01c0.01,0,0.01,0.01,0.01,0.01
	c0.13,0.1,0.31,0.16,0.45,0.24c0.08,0.05,0.17,0.1,0.25,0.16c0.04,0.03,0.09,0.06,0.13,0.09c0.02,0.01,0.04,0.04,0.09,0.08
	c0.17,0.17,0.34,0.34,0.51,0.51c0.03,0.03,0.04,0.04,0.06,0.05c0.01,0.02,0.02,0.03,0.03,0.05c0.08,0.12,0.16,0.24,0.24,0.37
	c0.08,0.13,0.14,0.26,0.21,0.39c0.02,0.03,0.03,0.05,0.04,0.06c0.01,0.02,0.01,0.03,0.02,0.06c0.09,0.29,0.17,0.57,0.24,0.86
	c0,0.01,0.01,0.03,0.01,0.05c0.02,0.18,0.03,0.37,0.03,0.55C28.43,31.7,28.42,31.86,28.41,32.01z M28.41,32.12
	C28.4,32.21,28.4,32.18,28.41,32.12L28.41,32.12z M23.11,35.09C23.02,35.06,22.91,34.99,23.11,35.09L23.11,35.09z M21.55,33.89
	L21.55,33.89C21.75,34.1,21.6,33.96,21.55,33.89z M21.62,29.12C21.65,29.09,21.65,29.09,21.62,29.12L21.62,29.12z M23.09,28.01
	C23.01,28.04,22.9,28.07,23.09,28.01L23.09,28.01z M28.41,31.07C28.42,31.11,28.42,31.12,28.41,31.07L28.41,31.07z M34.38,19.92
	C34.38,19.96,34.38,19.97,34.38,19.92L34.38,19.92z M33.58,18.01c0.01,0.02,0.02,0.03,0.03,0.05c0.08,0.12,0.16,0.24,0.24,0.37
	c0.08,0.13,0.14,0.26,0.21,0.39c0.02,0.03,0.03,0.05,0.04,0.06c0.01,0.02,0.01,0.03,0.02,0.06c0.09,0.29,0.17,0.57,0.24,0.86
	c0,0.01,0.01,0.03,0.01,0.05c0.02,0.18,0.03,0.37,0.03,0.55c0,0.16-0.01,0.31-0.02,0.46c0,0.01,0,0.01,0,0.02
	c-0.04,0.24-0.09,0.47-0.17,0.7c-0.04,0.12-0.08,0.24-0.13,0.36c-0.01,0.02-0.01,0.02-0.03,0.05c-0.14,0.26-0.29,0.51-0.45,0.75
	c-0.01,0.02-0.01,0.02-0.02,0.04c-0.01,0-0.01,0-0.02,0.01c-0.09,0.07-0.16,0.19-0.24,0.27c-0.07,0.07-0.14,0.14-0.21,0.2
	c-0.02,0.02-0.13,0.11-0.19,0.16c-0.17,0.12-0.34,0.23-0.51,0.33c-0.08,0.05-0.17,0.09-0.26,0.14c-0.04,0.02-0.08,0.04-0.1,0.05
	c-0.03,0.01-0.06,0.02-0.1,0.04c-0.24,0.08-0.47,0.15-0.72,0.2c-0.05,0.01-0.14,0.02-0.2,0.03c-0.08,0.01-0.17,0.02-0.25,0.02
	c-0.26,0.01-0.52-0.01-0.77-0.02c0,0,0,0-0.01,0c-0.02,0-0.03-0.01-0.06-0.01c-0.15-0.03-0.29-0.06-0.44-0.1
	c-0.14-0.04-0.28-0.09-0.42-0.14c0,0-0.01-0.01-0.02-0.01c-0.21-0.11-0.42-0.21-0.62-0.34c-0.1-0.06-0.2-0.14-0.3-0.21c0,0,0,0,0,0
	c-0.01-0.01-0.02-0.02-0.04-0.04c-0.2-0.2-0.4-0.41-0.6-0.62c-0.08-0.12-0.16-0.24-0.24-0.37c-0.05-0.08-0.1-0.17-0.14-0.25
	c-0.01-0.03-0.07-0.16-0.11-0.23c-0.07-0.2-0.14-0.39-0.19-0.6c-0.02-0.1-0.04-0.2-0.07-0.29c-0.01-0.04-0.01-0.06-0.01-0.09
	c0-0.04-0.01-0.09-0.01-0.13c-0.02-0.23-0.02-0.47-0.01-0.7c0-0.07,0.08-0.55,0-0.15c0.02-0.1,0.04-0.2,0.06-0.3
	c0.05-0.24,0.13-0.48,0.21-0.71c0.01-0.03,0.01-0.04,0.02-0.06c0.01-0.02,0.02-0.03,0.04-0.07c0.07-0.13,0.13-0.26,0.21-0.39
	c0.06-0.1,0.13-0.2,0.2-0.31c0.01-0.02,0.04-0.05,0.06-0.08c0.15-0.17,0.3-0.34,0.47-0.5c0,0,0.1-0.08,0.16-0.14
	c0.07-0.05,0.17-0.13,0.17-0.13c0.24-0.16,0.49-0.29,0.75-0.42c0,0,0,0,0.01,0c0.14-0.05,0.28-0.1,0.42-0.14
	c0.1-0.03,0.19-0.05,0.29-0.07c0,0,0.11-0.02,0.2-0.04c0.09-0.01,0.24-0.03,0.24-0.03c0.13-0.01,0.26-0.01,0.39-0.01
	c0.13,0,0.26,0.01,0.39,0.02c0.03,0,0.05,0,0.07,0c0.02,0.01,0.04,0.01,0.07,0.02c0.29,0.07,0.58,0.15,0.86,0.24
	c0.02,0.01,0.03,0.01,0.04,0.01c0.01,0,0.01,0.01,0.01,0.01c0.13,0.1,0.31,0.16,0.45,0.24c0.08,0.05,0.17,0.1,0.25,0.16
	c0.04,0.03,0.09,0.06,0.13,0.09c0.02,0.01,0.04,0.04,0.09,0.08c0.17,0.17,0.34,0.34,0.51,0.51C33.55,17.98,33.57,17.99,33.58,18.01z
	 M27.59,17.97C27.61,17.94,27.62,17.94,27.59,17.97L27.59,17.97z M29.05,16.86C28.97,16.89,28.87,16.92,29.05,16.86L29.05,16.86z
	 M30.19,3.91c1.3-0.41,2.53-0.51,3.78-0.33c0.34,2.54-0.46,5.14-2.37,7.09c-0.99,0.97-2.11,1.64-3.32,2.03
	c0-0.06,0.01-0.12,0.01-0.18c0.01-0.13,0.01-0.25,0.01-0.38c0-0.24,0-0.48-0.01-0.72c-0.01-0.22-0.02-0.44-0.05-0.67
	c-0.02-0.22-0.05-0.44-0.08-0.66c-0.03-0.2-0.07-0.4-0.11-0.6c-0.03-0.14-0.06-0.29-0.1-0.43c-0.08-0.32-0.17-0.63-0.27-0.95
	c-0.05-0.15-0.1-0.3-0.16-0.45c-0.06-0.17-0.13-0.35-0.2-0.51c-0.13-0.3-0.27-0.59-0.42-0.88c-0.04-0.07-0.08-0.15-0.12-0.22
	C27.76,5.05,28.98,4.3,30.19,3.91z M15.29,3.57c1.03-0.14,2.07-0.1,3.05,0.13c1.42,0.34,2.7,0.99,3.75,1.96
	c0.52,0.48,0.97,1.02,1.35,1.6c0.07,0.11,0.15,0.23,0.22,0.34c0.02,0.03,0.03,0.07,0.05,0.1c0.44,0.78,0.75,1.6,0.93,2.43
	c0.02,0.09,0.04,0.17,0.06,0.26c0.04,0.2,0.06,0.41,0.09,0.62c0.02,0.16,0.03,0.33,0.04,0.49c0.01,0.16,0.01,0.33,0.01,0.49
	c0,0.22-0.02,0.44-0.04,0.66c-0.01,0.12-0.02,0.24-0.03,0.36c0,0.01,0,0.01,0,0.02c-1.23,0.17-2.4,0.08-3.54-0.26
	c-1.42-0.41-2.7-1.21-3.76-2.33C15.68,8.56,14.97,6,15.29,3.57z M23.23,19.92C23.23,19.96,23.23,19.97,23.23,19.92L23.23,19.92z
	 M17.9,16.86C17.82,16.89,17.72,16.92,17.9,16.86L17.9,16.86z M16.44,17.97C16.46,17.94,16.47,17.94,16.44,17.97L16.44,17.97z
	 M15.59,19.94c0.02-0.1,0.04-0.2,0.06-0.3c0.05-0.24,0.13-0.48,0.21-0.71c0.01-0.03,0.01-0.04,0.02-0.06
	c0.01-0.02,0.02-0.03,0.04-0.06c0.07-0.13,0.13-0.26,0.21-0.39c0.06-0.1,0.13-0.2,0.2-0.31c0.01-0.02,0.04-0.05,0.06-0.08
	c0.15-0.17,0.3-0.34,0.47-0.5c0,0,0.1-0.08,0.16-0.14c0.07-0.05,0.17-0.13,0.17-0.13c0.24-0.16,0.49-0.29,0.75-0.42c0,0,0,0,0.01,0
	c0.14-0.05,0.28-0.1,0.42-0.14c0.1-0.03,0.19-0.05,0.29-0.07c0,0,0.11-0.02,0.2-0.04c0.09-0.01,0.24-0.03,0.24-0.03
	c0.13-0.01,0.26-0.01,0.39-0.01c0.13,0,0.26,0.01,0.39,0.02c0.03,0,0.05,0,0.07,0c0.02,0.01,0.04,0.01,0.07,0.02
	c0.29,0.07,0.58,0.15,0.86,0.24c0.02,0.01,0.03,0.01,0.04,0.01c0.01,0,0.01,0.01,0.01,0.01c0.13,0.1,0.31,0.16,0.45,0.24
	c0.08,0.05,0.17,0.1,0.25,0.16c0.04,0.03,0.09,0.06,0.13,0.09c0.02,0.01,0.04,0.04,0.09,0.08c0.17,0.17,0.34,0.34,0.51,0.51
	c0.03,0.03,0.04,0.04,0.06,0.05c0.01,0.02,0.02,0.03,0.03,0.05c0.08,0.12,0.16,0.24,0.24,0.37c0.08,0.13,0.14,0.26,0.21,0.39
	c0.02,0.03,0.03,0.05,0.04,0.06c0.01,0.02,0.01,0.03,0.02,0.06c0.09,0.29,0.17,0.57,0.24,0.86c0,0.01,0.01,0.03,0.01,0.05
	c0.02,0.18,0.03,0.37,0.03,0.55c0,0.16-0.01,0.31-0.02,0.46c0,0.01,0,0.01,0,0.02c-0.04,0.24-0.09,0.47-0.17,0.7
	c-0.04,0.12-0.08,0.24-0.13,0.36c-0.01,0.02-0.01,0.02-0.03,0.05c-0.14,0.26-0.29,0.51-0.45,0.75c-0.01,0.02-0.02,0.02-0.02,0.04
	c-0.01,0-0.01,0-0.02,0.01c-0.09,0.07-0.16,0.19-0.24,0.27c-0.07,0.07-0.14,0.14-0.21,0.2c-0.02,0.02-0.13,0.11-0.19,0.16
	c-0.17,0.12-0.34,0.23-0.51,0.33c-0.09,0.05-0.17,0.09-0.26,0.14c-0.04,0.02-0.08,0.04-0.1,0.05c-0.03,0.01-0.06,0.02-0.1,0.04
	c-0.24,0.08-0.47,0.15-0.72,0.2c-0.05,0.01-0.14,0.02-0.2,0.03c-0.08,0.01-0.17,0.02-0.25,0.02c-0.26,0.01-0.52-0.01-0.77-0.02
	c0,0,0,0-0.01,0c-0.02,0-0.03-0.01-0.06-0.01c-0.15-0.03-0.29-0.06-0.44-0.1c-0.14-0.04-0.28-0.09-0.42-0.14
	c0,0-0.01-0.01-0.02-0.01c-0.21-0.11-0.42-0.21-0.62-0.34c-0.1-0.06-0.2-0.14-0.3-0.21c0,0,0,0,0,0c-0.01-0.01-0.02-0.02-0.04-0.04
	c-0.2-0.2-0.4-0.41-0.6-0.62c-0.08-0.12-0.16-0.24-0.24-0.37c-0.05-0.08-0.1-0.17-0.14-0.25c-0.01-0.03-0.07-0.16-0.11-0.23
	c-0.07-0.2-0.14-0.39-0.19-0.6c-0.02-0.1-0.04-0.2-0.07-0.29c-0.01-0.04-0.01-0.06-0.01-0.09c0-0.04-0.01-0.09-0.01-0.13
	c-0.02-0.23-0.02-0.47-0.01-0.7C15.59,20.02,15.67,19.53,15.59,19.94z M12.08,19.92C12.08,19.96,12.08,19.97,12.08,19.92
	L12.08,19.92z M6.75,16.86C6.67,16.89,6.57,16.92,6.75,16.86L6.75,16.86z M5.29,17.97C5.31,17.94,5.32,17.94,5.29,17.97L5.29,17.97z
	 M5.22,22.74L5.22,22.74C5.42,22.95,5.27,22.81,5.22,22.74z M6.77,23.94C6.69,23.91,6.58,23.84,6.77,23.94L6.77,23.94z M6.8,23.95
	c0,0-0.01-0.01-0.02-0.01c-0.21-0.11-0.42-0.21-0.62-0.34c-0.1-0.06-0.2-0.14-0.3-0.21c0,0,0,0,0,0c-0.01-0.01-0.02-0.02-0.04-0.04
	c-0.2-0.2-0.4-0.41-0.6-0.62c-0.08-0.12-0.16-0.24-0.24-0.37c-0.05-0.08-0.1-0.17-0.14-0.25c-0.01-0.03-0.07-0.16-0.11-0.23
	c-0.07-0.2-0.14-0.39-0.19-0.6C4.51,21.2,4.49,21.1,4.47,21c-0.01-0.04-0.01-0.06-0.01-0.09c0-0.04-0.01-0.09-0.01-0.13
	c-0.02-0.23-0.02-0.47-0.01-0.7c0-0.07,0.08-0.55,0-0.15c0.02-0.1,0.04-0.2,0.06-0.3c0.05-0.24,0.13-0.48,0.21-0.71
	c0.01-0.03,0.01-0.04,0.02-0.06c0.01-0.02,0.02-0.03,0.04-0.06c0.07-0.13,0.13-0.26,0.21-0.39c0.06-0.1,0.13-0.2,0.2-0.31
	c0.01-0.02,0.04-0.05,0.06-0.08c0.15-0.17,0.3-0.34,0.47-0.5c0,0,0.1-0.08,0.16-0.14c0.07-0.05,0.17-0.13,0.17-0.13
	c0.24-0.16,0.49-0.29,0.75-0.42c0,0,0,0,0.01,0c0.14-0.05,0.28-0.1,0.42-0.14c0.1-0.03,0.19-0.05,0.29-0.07c0,0,0.11-0.02,0.2-0.04
	c0.09-0.01,0.24-0.03,0.24-0.03c0.13-0.01,0.26-0.01,0.39-0.01c0.13,0,0.26,0.01,0.39,0.02c0.03,0,0.05,0,0.07,0
	c0.02,0.01,0.04,0.01,0.07,0.02c0.29,0.07,0.58,0.15,0.86,0.24c0.02,0.01,0.03,0.01,0.05,0.01c0.01,0,0.01,0.01,0.01,0.01
	c0.13,0.1,0.31,0.16,0.45,0.24c0.08,0.05,0.17,0.1,0.25,0.16c0.04,0.03,0.09,0.06,0.13,0.09c0.02,0.01,0.04,0.04,0.09,0.08
	c0.17,0.17,0.34,0.34,0.51,0.51c0.03,0.03,0.04,0.04,0.06,0.05c0.01,0.02,0.02,0.03,0.03,0.05c0.08,0.12,0.16,0.24,0.24,0.37
	c0.08,0.13,0.14,0.26,0.21,0.39c0.02,0.03,0.03,0.05,0.04,0.06c0.01,0.02,0.01,0.03,0.02,0.06c0.09,0.29,0.17,0.57,0.24,0.86
	c0,0.01,0.01,0.03,0.01,0.05c0.02,0.18,0.03,0.37,0.03,0.55c0,0.16-0.01,0.31-0.02,0.46c0,0.01,0,0.01,0,0.02
	c-0.04,0.24-0.09,0.47-0.17,0.7c-0.04,0.12-0.08,0.24-0.13,0.36c-0.01,0.02-0.01,0.02-0.03,0.05c-0.14,0.26-0.29,0.51-0.45,0.75
	c-0.01,0.02-0.02,0.02-0.02,0.04c-0.01,0-0.01,0-0.02,0.01c-0.09,0.07-0.16,0.19-0.24,0.27c-0.07,0.07-0.14,0.14-0.21,0.2
	c-0.02,0.02-0.13,0.11-0.19,0.16c-0.17,0.12-0.34,0.23-0.51,0.33c-0.08,0.05-0.17,0.09-0.26,0.14c-0.04,0.02-0.08,0.04-0.1,0.05
	c-0.03,0.01-0.06,0.02-0.09,0.04c-0.24,0.08-0.47,0.15-0.72,0.2c-0.05,0.01-0.14,0.02-0.2,0.03c-0.08,0.01-0.17,0.02-0.25,0.02
	c-0.26,0.01-0.52-0.01-0.77-0.02c0,0,0,0-0.01,0c-0.02,0-0.03-0.01-0.06-0.01c-0.15-0.03-0.29-0.06-0.44-0.1
	C7.08,24.05,6.94,24,6.8,23.95z M10.4,33.89L10.4,33.89C10.6,34.1,10.45,33.96,10.4,33.89z M11.96,35.09
	C11.87,35.06,11.76,34.99,11.96,35.09L11.96,35.09z M11.98,35.1c0,0-0.01-0.01-0.02-0.01c-0.21-0.11-0.42-0.21-0.62-0.34
	c-0.1-0.06-0.2-0.14-0.3-0.21c0,0,0,0,0,0c-0.01-0.01-0.02-0.02-0.04-0.04c-0.2-0.2-0.4-0.41-0.6-0.62
	c-0.08-0.12-0.16-0.24-0.24-0.37c-0.05-0.08-0.1-0.17-0.14-0.25c-0.01-0.03-0.08-0.16-0.11-0.23c-0.07-0.2-0.14-0.39-0.19-0.59
	c-0.02-0.1-0.04-0.2-0.07-0.29c-0.01-0.04-0.01-0.06-0.01-0.09c0-0.04-0.01-0.09-0.01-0.13c-0.02-0.23-0.02-0.47-0.01-0.7
	c0-0.07,0.08-0.55,0-0.15c0.02-0.1,0.04-0.2,0.06-0.3c0.05-0.24,0.13-0.48,0.21-0.71c0.01-0.03,0.01-0.04,0.02-0.06
	c0.01-0.02,0.02-0.03,0.04-0.07c0.07-0.13,0.13-0.26,0.21-0.39c0.06-0.1,0.13-0.2,0.2-0.31c0.01-0.02,0.04-0.05,0.06-0.08
	c0.15-0.17,0.3-0.34,0.47-0.5c0,0,0.1-0.08,0.16-0.14c0.07-0.05,0.17-0.13,0.17-0.13c0.24-0.16,0.49-0.29,0.75-0.42c0,0,0,0,0.01,0
	c0.14-0.05,0.28-0.1,0.42-0.14c0.1-0.03,0.19-0.05,0.29-0.07c0,0,0.11-0.02,0.2-0.04c0.09-0.01,0.24-0.03,0.24-0.03
	c0.13-0.01,0.26-0.01,0.39-0.01c0.13,0,0.26,0.01,0.39,0.02c0.03,0,0.05,0,0.07,0c0.02,0.01,0.04,0.01,0.07,0.02
	c0.29,0.07,0.58,0.15,0.86,0.24c0.02,0.01,0.03,0.01,0.04,0.01c0.01,0,0.01,0.01,0.01,0.01c0.13,0.1,0.31,0.16,0.45,0.24
	c0.08,0.05,0.17,0.1,0.25,0.16c0.04,0.03,0.09,0.06,0.13,0.09c0.02,0.01,0.04,0.04,0.09,0.08c0.17,0.17,0.34,0.34,0.51,0.51
	c0.03,0.03,0.04,0.04,0.06,0.05c0.01,0.02,0.02,0.03,0.03,0.05c0.08,0.12,0.16,0.24,0.24,0.37c0.08,0.13,0.14,0.26,0.21,0.39
	c0.02,0.03,0.03,0.05,0.04,0.06c0.01,0.02,0.01,0.03,0.02,0.06c0.09,0.29,0.17,0.57,0.24,0.86c0,0.01,0.01,0.03,0.01,0.05
	c0.02,0.18,0.03,0.37,0.03,0.55c0,0.16-0.01,0.31-0.02,0.46c0,0.01,0,0.01,0,0.02c-0.04,0.24-0.09,0.47-0.17,0.7
	c-0.04,0.12-0.08,0.24-0.13,0.36c-0.01,0.02-0.01,0.02-0.03,0.05c-0.14,0.26-0.29,0.51-0.45,0.75c-0.01,0.02-0.02,0.02-0.02,0.04
	c-0.01,0-0.01,0-0.02,0.01c-0.09,0.07-0.16,0.19-0.24,0.27c-0.07,0.07-0.14,0.14-0.21,0.2c-0.02,0.02-0.13,0.11-0.19,0.16
	c-0.17,0.12-0.34,0.23-0.51,0.33c-0.09,0.05-0.17,0.09-0.26,0.14c-0.04,0.02-0.08,0.04-0.1,0.05c-0.03,0.01-0.06,0.02-0.09,0.04
	c-0.24,0.08-0.47,0.15-0.72,0.2c-0.05,0.01-0.14,0.02-0.2,0.03c-0.08,0.01-0.17,0.02-0.25,0.02c-0.26,0.01-0.52-0.01-0.77-0.02
	c0,0,0,0-0.01,0c-0.02,0-0.03-0.01-0.06-0.01c-0.15-0.03-0.29-0.06-0.44-0.1C12.26,35.2,12.12,35.15,11.98,35.1z M15.98,45.04
	L15.98,45.04C16.18,45.25,16.02,45.11,15.98,45.04z M17.53,46.24C17.45,46.21,17.34,46.14,17.53,46.24L17.53,46.24z M22.83,43.27
	C22.83,43.36,22.83,43.33,22.83,43.27L22.83,43.27z M22.84,43.16c0,0.01,0,0.01,0,0.02c-0.04,0.24-0.09,0.47-0.17,0.7
	c-0.04,0.12-0.08,0.24-0.13,0.36c-0.01,0.02-0.01,0.02-0.03,0.05c-0.14,0.26-0.29,0.51-0.45,0.75c-0.01,0.02-0.02,0.02-0.02,0.04
	c-0.01,0-0.01,0-0.02,0.01c-0.09,0.07-0.16,0.19-0.24,0.27c-0.07,0.07-0.14,0.14-0.21,0.2c-0.02,0.02-0.13,0.11-0.19,0.16
	c-0.17,0.12-0.34,0.23-0.51,0.33c-0.08,0.05-0.17,0.09-0.26,0.14c-0.04,0.02-0.08,0.04-0.1,0.05c-0.03,0.01-0.06,0.02-0.09,0.04
	c-0.24,0.08-0.47,0.15-0.72,0.2c-0.05,0.01-0.14,0.02-0.2,0.03c-0.08,0.01-0.17,0.02-0.25,0.02c-0.26,0.01-0.52-0.01-0.77-0.02
	c0,0,0,0-0.01,0c-0.02,0-0.03-0.01-0.06-0.01c-0.15-0.03-0.29-0.06-0.44-0.1c-0.14-0.04-0.28-0.09-0.42-0.14
	c0,0-0.01-0.01-0.02-0.01c-0.21-0.11-0.42-0.21-0.62-0.34c-0.1-0.06-0.2-0.14-0.3-0.21c0,0,0,0,0,0c-0.01-0.01-0.02-0.02-0.04-0.04
	c-0.2-0.2-0.4-0.41-0.6-0.62c-0.08-0.12-0.16-0.24-0.24-0.37c-0.05-0.08-0.1-0.17-0.14-0.25c-0.01-0.03-0.07-0.16-0.11-0.23
	c-0.07-0.2-0.14-0.39-0.19-0.6c-0.02-0.1-0.04-0.2-0.07-0.29c-0.01-0.04-0.01-0.06-0.01-0.09c0-0.04-0.01-0.09-0.01-0.13
	c-0.02-0.23-0.02-0.47-0.01-0.7c0-0.07,0.08-0.55,0-0.15c0.02-0.1,0.04-0.2,0.06-0.3c0.05-0.24,0.13-0.48,0.21-0.71
	c0.01-0.03,0.01-0.04,0.02-0.06c0.01-0.02,0.02-0.03,0.04-0.06c0.07-0.13,0.13-0.26,0.21-0.39c0.06-0.1,0.13-0.2,0.2-0.31
	c0.01-0.02,0.04-0.05,0.06-0.08c0.15-0.17,0.3-0.34,0.47-0.5c0,0,0.1-0.08,0.16-0.14c0.07-0.05,0.17-0.13,0.17-0.13
	c0.24-0.16,0.49-0.29,0.75-0.42c0,0,0,0,0.01,0c0.14-0.05,0.28-0.1,0.42-0.14c0.1-0.03,0.19-0.05,0.29-0.07c0,0,0.11-0.02,0.2-0.04
	c0.09-0.01,0.24-0.03,0.24-0.03c0.13-0.01,0.26-0.01,0.39-0.01c0.13,0,0.26,0.01,0.39,0.02c0.03,0,0.05,0,0.07,0
	c0.02,0.01,0.04,0.01,0.07,0.02c0.29,0.07,0.58,0.15,0.86,0.24c0.02,0.01,0.03,0.01,0.04,0.01c0.01,0,0.01,0.01,0.01,0.01
	c0.13,0.1,0.31,0.16,0.45,0.24c0.08,0.05,0.17,0.1,0.25,0.16c0.04,0.03,0.09,0.06,0.13,0.09c0.02,0.01,0.04,0.04,0.09,0.08
	c0.17,0.17,0.34,0.34,0.51,0.51c0.03,0.03,0.04,0.04,0.06,0.05c0.01,0.02,0.02,0.03,0.03,0.05c0.08,0.12,0.16,0.24,0.24,0.37
	c0.08,0.13,0.14,0.26,0.21,0.39c0.02,0.03,0.03,0.05,0.04,0.06c0.01,0.02,0.01,0.03,0.02,0.06c0.09,0.29,0.17,0.57,0.24,0.86
	c0,0.01,0.01,0.03,0.01,0.05c0.02,0.18,0.03,0.37,0.03,0.55C22.86,42.85,22.85,43.01,22.84,43.16z M27.13,45.04
	C27.33,45.25,27.17,45.11,27.13,45.04L27.13,45.04z M28.68,46.24C28.6,46.21,28.49,46.14,28.68,46.24L28.68,46.24z M33.98,43.27
	C33.98,43.36,33.98,43.33,33.98,43.27L33.98,43.27z M33.99,43.16c0,0.01,0,0.01,0,0.02c-0.04,0.24-0.09,0.47-0.17,0.7
	c-0.04,0.12-0.08,0.24-0.13,0.36c-0.01,0.02-0.01,0.02-0.03,0.05c-0.14,0.26-0.29,0.51-0.45,0.75c-0.01,0.02-0.01,0.02-0.02,0.04
	c-0.01,0-0.01,0-0.02,0.01c-0.09,0.07-0.17,0.19-0.24,0.27c-0.07,0.07-0.14,0.14-0.21,0.2c-0.02,0.02-0.13,0.11-0.19,0.16
	c-0.17,0.12-0.34,0.23-0.51,0.33c-0.08,0.05-0.17,0.09-0.26,0.14c-0.04,0.02-0.08,0.04-0.1,0.05c-0.03,0.01-0.06,0.02-0.09,0.04
	c-0.24,0.08-0.47,0.15-0.72,0.2c-0.05,0.01-0.14,0.02-0.2,0.03c-0.08,0.01-0.17,0.02-0.25,0.02c-0.26,0.01-0.52-0.01-0.77-0.02
	c0,0,0,0-0.01,0c-0.02,0-0.03-0.01-0.06-0.01c-0.15-0.03-0.29-0.06-0.44-0.1c-0.14-0.04-0.28-0.09-0.42-0.14
	c0,0-0.01-0.01-0.02-0.01c-0.21-0.11-0.42-0.21-0.62-0.34c-0.1-0.06-0.2-0.14-0.3-0.21c0,0,0,0,0,0c-0.01-0.01-0.02-0.02-0.04-0.04
	c-0.2-0.2-0.4-0.41-0.6-0.62c-0.08-0.12-0.16-0.24-0.24-0.37c-0.05-0.08-0.1-0.17-0.14-0.25c-0.01-0.03-0.08-0.16-0.11-0.23
	c-0.07-0.2-0.14-0.39-0.19-0.59c-0.02-0.1-0.04-0.2-0.07-0.29c-0.01-0.04-0.01-0.06-0.01-0.09c0-0.04-0.01-0.09-0.01-0.13
	c-0.02-0.23-0.02-0.47-0.01-0.7c0-0.07,0.08-0.55,0-0.15c0.02-0.1,0.04-0.2,0.06-0.3c0.05-0.24,0.13-0.48,0.21-0.71
	c0.01-0.03,0.01-0.04,0.02-0.06c0.01-0.02,0.02-0.03,0.04-0.06c0.07-0.13,0.13-0.26,0.21-0.39c0.06-0.1,0.13-0.2,0.2-0.31
	c0.01-0.02,0.04-0.05,0.06-0.08c0.15-0.17,0.3-0.34,0.47-0.5c0,0,0.1-0.08,0.16-0.14c0.07-0.05,0.17-0.13,0.17-0.13
	c0.24-0.16,0.49-0.29,0.75-0.42c0,0,0,0,0.01,0c0.14-0.05,0.28-0.1,0.42-0.14c0.1-0.03,0.19-0.05,0.29-0.07c0,0,0.11-0.02,0.2-0.04
	c0.09-0.01,0.24-0.03,0.24-0.03c0.13-0.01,0.26-0.01,0.39-0.01c0.13,0,0.26,0.01,0.39,0.02c0.03,0,0.05,0,0.07,0
	c0.02,0.01,0.04,0.01,0.07,0.02c0.29,0.07,0.58,0.15,0.86,0.24c0.02,0.01,0.03,0.01,0.05,0.01c0.01,0,0.01,0.01,0.01,0.01
	c0.13,0.1,0.31,0.16,0.45,0.24c0.08,0.05,0.17,0.1,0.25,0.16c0.04,0.03,0.09,0.06,0.13,0.09c0.02,0.01,0.04,0.04,0.09,0.08
	c0.17,0.17,0.34,0.34,0.51,0.51c0.03,0.03,0.04,0.04,0.06,0.05c0.01,0.02,0.02,0.03,0.03,0.05c0.08,0.12,0.16,0.24,0.24,0.37
	c0.08,0.13,0.14,0.26,0.21,0.39c0.02,0.03,0.03,0.05,0.04,0.06c0.01,0.02,0.01,0.03,0.02,0.06c0.09,0.29,0.17,0.57,0.24,0.86
	c0,0.01,0.01,0.03,0.01,0.05c0.02,0.18,0.03,0.37,0.03,0.55C34.01,42.85,34,43.01,33.99,43.16z M39.56,32.13
	C39.55,32.21,39.55,32.18,39.56,32.13L39.56,32.13z M39.56,32.01c0,0.01,0,0.01,0,0.02c-0.04,0.24-0.09,0.47-0.17,0.7
	c-0.04,0.12-0.08,0.24-0.13,0.36c-0.01,0.02-0.01,0.02-0.03,0.05c-0.14,0.26-0.29,0.51-0.45,0.75c-0.01,0.02-0.02,0.02-0.02,0.04
	c-0.01,0-0.01,0-0.02,0.01c-0.09,0.07-0.16,0.19-0.24,0.27c-0.07,0.07-0.14,0.14-0.21,0.2c-0.02,0.02-0.13,0.11-0.19,0.16
	c-0.17,0.12-0.34,0.23-0.51,0.33c-0.09,0.05-0.17,0.09-0.26,0.14c-0.04,0.02-0.08,0.04-0.1,0.05c-0.03,0.01-0.06,0.02-0.09,0.04
	c-0.24,0.08-0.47,0.15-0.72,0.2c-0.05,0.01-0.14,0.02-0.2,0.03c-0.08,0.01-0.17,0.02-0.25,0.02c-0.26,0.01-0.52-0.01-0.77-0.02
	c0,0,0,0-0.01,0c-0.02,0-0.03-0.01-0.06-0.01c-0.15-0.03-0.29-0.06-0.44-0.1c-0.14-0.04-0.28-0.09-0.42-0.14
	c0,0-0.01-0.01-0.02-0.01c-0.21-0.11-0.42-0.21-0.62-0.34c-0.1-0.06-0.2-0.14-0.3-0.21c0,0,0,0,0,0c-0.01-0.01-0.02-0.02-0.04-0.04
	c-0.2-0.2-0.4-0.41-0.6-0.62c-0.08-0.12-0.16-0.24-0.24-0.37c-0.05-0.08-0.1-0.17-0.14-0.25c-0.01-0.03-0.07-0.16-0.11-0.23
	c-0.07-0.2-0.14-0.39-0.19-0.59c-0.02-0.1-0.04-0.2-0.07-0.29c-0.01-0.04-0.01-0.06-0.01-0.09c0-0.04-0.01-0.09-0.01-0.13
	c-0.02-0.23-0.02-0.47-0.01-0.7c0-0.07,0.08-0.55,0-0.15c0.02-0.1,0.04-0.2,0.06-0.3c0.05-0.24,0.13-0.48,0.21-0.71
	c0.01-0.03,0.01-0.04,0.02-0.06c0.01-0.02,0.02-0.03,0.04-0.07c0.07-0.13,0.13-0.26,0.21-0.39c0.06-0.1,0.13-0.2,0.2-0.31
	c0.01-0.02,0.04-0.05,0.06-0.08c0.15-0.17,0.3-0.34,0.47-0.5c0,0,0.1-0.08,0.16-0.14c0.07-0.05,0.17-0.13,0.17-0.13
	c0.24-0.16,0.49-0.29,0.75-0.42c0,0,0,0,0.01,0c0.14-0.05,0.28-0.1,0.42-0.14c0.1-0.03,0.19-0.05,0.29-0.07c0,0,0.11-0.02,0.2-0.04
	c0.09-0.01,0.24-0.03,0.24-0.03c0.13-0.01,0.26-0.01,0.39-0.01c0.13,0,0.26,0.01,0.39,0.02c0.03,0,0.05,0,0.07,0
	c0.02,0.01,0.04,0.01,0.07,0.02c0.29,0.07,0.58,0.15,0.86,0.24c0.02,0.01,0.03,0.01,0.04,0.01c0.01,0,0.01,0.01,0.01,0.01
	c0.13,0.1,0.31,0.16,0.45,0.24c0.08,0.05,0.17,0.1,0.25,0.16c0.04,0.03,0.09,0.06,0.13,0.09c0.02,0.01,0.04,0.04,0.09,0.08
	c0.17,0.17,0.34,0.34,0.51,0.51c0.03,0.03,0.04,0.04,0.06,0.05c0.01,0.02,0.02,0.03,0.03,0.05c0.08,0.12,0.16,0.24,0.24,0.37
	c0.08,0.13,0.14,0.26,0.21,0.39c0.02,0.03,0.03,0.05,0.04,0.06c0.01,0.02,0.01,0.03,0.02,0.06c0.09,0.29,0.17,0.57,0.24,0.86
	c0,0.01,0.01,0.03,0.01,0.05c0.02,0.18,0.03,0.37,0.03,0.55C39.58,31.7,39.57,31.86,39.56,32.01z M39.56,31.07
	C39.57,31.11,39.57,31.12,39.56,31.07L39.56,31.07z M45.52,20.97C45.52,21.06,45.52,21.03,45.52,20.97L45.52,20.97z M45.53,20.86
	c0,0.01,0,0.01,0,0.02c-0.04,0.24-0.09,0.47-0.17,0.7c-0.04,0.12-0.08,0.24-0.13,0.36c-0.01,0.02-0.01,0.02-0.03,0.05
	c-0.14,0.26-0.29,0.51-0.45,0.75c-0.01,0.02-0.02,0.02-0.02,0.04c-0.01,0-0.01,0-0.02,0.01c-0.09,0.07-0.17,0.19-0.24,0.27
	c-0.07,0.07-0.14,0.14-0.21,0.2c-0.02,0.02-0.13,0.11-0.19,0.16c-0.17,0.12-0.34,0.23-0.51,0.33c-0.09,0.05-0.17,0.09-0.26,0.14
	c-0.04,0.02-0.08,0.04-0.1,0.05c-0.03,0.01-0.06,0.02-0.09,0.04c-0.24,0.08-0.47,0.15-0.72,0.2c-0.05,0.01-0.14,0.02-0.2,0.03
	c-0.08,0.01-0.17,0.02-0.25,0.02c-0.26,0.01-0.52-0.01-0.77-0.02c0,0,0,0-0.01,0c-0.02,0-0.03-0.01-0.06-0.01
	c-0.15-0.03-0.29-0.06-0.44-0.1c-0.14-0.04-0.28-0.09-0.42-0.14c0,0-0.01-0.01-0.02-0.01c-0.21-0.11-0.42-0.21-0.62-0.34
	c-0.1-0.06-0.2-0.14-0.3-0.21c0,0,0,0,0,0c-0.01-0.01-0.02-0.02-0.04-0.04c-0.2-0.2-0.4-0.41-0.6-0.62
	c-0.08-0.12-0.16-0.24-0.24-0.37c-0.05-0.08-0.1-0.17-0.14-0.25c-0.01-0.03-0.07-0.16-0.11-0.23c-0.07-0.2-0.14-0.39-0.19-0.6
	c-0.02-0.1-0.04-0.2-0.07-0.29c-0.01-0.04-0.01-0.06-0.01-0.09c0-0.04-0.01-0.09-0.01-0.13c-0.02-0.23-0.02-0.47-0.01-0.7
	c0-0.07,0.08-0.55,0-0.15c0.02-0.1,0.04-0.2,0.06-0.3c0.05-0.24,0.13-0.48,0.21-0.71c0.01-0.03,0.01-0.04,0.02-0.06
	c0.01-0.02,0.02-0.03,0.04-0.06c0.07-0.13,0.13-0.26,0.21-0.39c0.06-0.1,0.13-0.2,0.2-0.31c0.01-0.02,0.04-0.05,0.06-0.08
	c0.15-0.17,0.3-0.34,0.47-0.5c0,0,0.1-0.08,0.16-0.14c0.07-0.05,0.17-0.13,0.17-0.13c0.24-0.16,0.49-0.29,0.75-0.42c0,0,0,0,0.01,0
	c0.14-0.05,0.28-0.1,0.42-0.14c0.1-0.03,0.19-0.05,0.29-0.07c0,0,0.11-0.02,0.2-0.04c0.09-0.01,0.24-0.03,0.24-0.03
	c0.13-0.01,0.26-0.01,0.39-0.01c0.13,0,0.26,0.01,0.39,0.02c0.03,0,0.05,0,0.07,0c0.02,0.01,0.04,0.01,0.07,0.02
	c0.29,0.07,0.58,0.15,0.86,0.24c0.02,0.01,0.03,0.01,0.04,0.01c0.01,0,0.01,0.01,0.01,0.01c0.13,0.1,0.31,0.16,0.45,0.24
	c0.08,0.05,0.17,0.1,0.25,0.16c0.04,0.03,0.09,0.06,0.13,0.09c0.02,0.01,0.04,0.04,0.09,0.08c0.17,0.17,0.34,0.34,0.51,0.51
	c0.03,0.03,0.04,0.04,0.06,0.05c0.01,0.02,0.02,0.03,0.03,0.05c0.08,0.12,0.16,0.24,0.24,0.37c0.08,0.13,0.14,0.26,0.21,0.39
	c0.02,0.03,0.03,0.05,0.04,0.06c0.01,0.02,0.01,0.03,0.02,0.06c0.09,0.29,0.17,0.57,0.24,0.86c0,0.01,0.01,0.03,0.01,0.05
	c0.02,0.18,0.03,0.37,0.03,0.55C45.55,20.55,45.54,20.71,45.53,20.86z"/>
</svg>