<svg xmlns="http://www.w3.org/2000/svg" viewBox="0 0 50 50">
<style type="text/css">
    .st0{fill:#432818;}
</style>

<path id="mango" fill="currentColor" d="M49.51,2.79c-3.32-2.64-7.67-3.55-11.71-2.08c-3.2,1.26-5.75,3.68-7,6.81c-3.49-2.08-7.65-3.15-11.69-2.64
	C14.16,5.51,9.94,8.3,7.09,12.36c-3.37,4.79-1.27,10.34-2.13,15.7c-0.75,4.69-4.15,8.5-4.86,13.19c-0.61,4.01,1.78,7.38,5.67,8.36
	c3.4,0.85,7.09,0.11,10.35-0.96c4.46-1.46,8.7-3.7,12.54-6.38c3.28-2.29,6.58-4.95,8.75-8.36c3.76-6.15,3.6-13.76,0.12-19.68
	c1.76,0.13,3.55-0.14,5.27-0.85c3.72-1.55,6.48-4.91,7.17-8.89C50.06,3.91,50.01,3.19,49.51,2.79z M28.22,38.32
	c-2.99,2.23-6.24,4.15-9.64,5.68c-2.84,1.27-5.98,2.35-9.1,2.49c-2.3,0.1-5.14-0.26-5.9-2.78c-0.5-1.64,0.3-3.57,0.92-5.06
	c0.84-2.01,1.87-3.93,2.7-5.94c0.9-2.19,1.35-4.45,1.43-6.82c0.08-2.43-0.25-4.87-0.11-7.3c0.23-4.17,3.76-7.71,7.45-9.31
	c3.65-1.58,7.9-1.27,11.46,0.39c4.1,1.92,7.32,5.31,8.66,9.68c1.33,4.34,0.68,8.95-1.69,12.81C32.92,34.48,30.53,36.59,28.22,38.32z
	 M41.67,10.09c-2.5,1.13-5.54,0.89-7.86-0.56c0.76-2.44,2.47-4.5,4.92-5.46c2.52-0.92,5.32-0.74,7.58,0.68
	C45.58,7.1,43.98,9.05,41.67,10.09z"/>

</svg>