<svg xmlns="http://www.w3.org/2000/svg" viewBox="0 0 50 50">
<style type="text/css">
    .st0{fill:#432818;}
</style>

<g id="pear" fill="currentColor">
	<path d="M49.68,5.37c-1.92-3.24-5.41-5.3-9.2-5.3c-3.45,0-6.65,1.74-8.64,4.49c-0.2-0.1-0.4-0.19-0.6-0.27
		c-3.94-1.53-8.83-0.14-11.49,3.1c-1.68,2.05-2.89,4.51-4.16,6.82c-0.7,1.27-1.51,2.87-2.57,3.56c-0.65,0.43-1.4,0.51-2.24,0.79
		c-1.12,0.37-2.2,0.88-3.19,1.52c-1.61,1.05-3.01,2.38-4.19,3.89c-2.46,3.15-3.67,7.19-3.23,11.19c0.59,5.4,3.82,10.08,8.55,12.71
		c4.14,2.2,9.11,2.78,13.55,1.13c3.75-1.4,7.14-4.21,8.81-7.9c0.87-1.91,1.41-3.92,1.6-6.01c0.12-1.33,0.04-2.66-0.2-3.97
		c-0.17-0.93-0.71-2.17-0.75-2.89c-0.07-1.37,0.74-2.79,1.46-4.14c1.27-2.38,2.71-4.8,3.62-7.35c0.56-1.56,0.64-3.24,0.34-4.87
		c1.05,0.35,2.16,0.56,3.3,0.58c3.8-0.05,7.25-2.04,9.2-5.3C50,6.59,50,5.9,49.68,5.37z M33.87,14.11c-0.1,1.27-0.71,2.39-1.25,3.53
		c-0.53,1.12-1.1,2.22-1.69,3.32c-0.83,1.54-1.75,3.09-2.29,4.76c-0.47,1.43-0.48,2.93-0.05,4.36c0.7,2.29,0.87,4.44,0.3,6.79
		c-0.81,3.3-2.81,6.27-6.05,8.06c-3.84,2.12-8.52,1.95-12.36-0.08C4.25,41.39,1.37,33.23,5.47,27c1.69-2.57,4.26-4.53,7.4-5.42
		c3.36-0.95,4.83-4.01,6.39-6.85c1.91-3.46,3.83-7.47,8.33-7.58C31.31,7.06,34.16,10.43,33.87,14.11z M40.48,8.95
		c-2.21-0.03-4.21-1.02-5.57-2.7c1.35-1.68,3.37-2.7,5.57-2.7c2.21,0,4.22,1.03,5.57,2.7C44.7,7.92,42.7,8.92,40.48,8.95z"/>
	<path d="M13.98,30.01c-0.4-0.21-0.89-0.32-1.34-0.18c-0.42,0.14-0.82,0.4-1.04,0.8c-0.39,0.71-0.77,1.42-1.16,2.13
		c-0.06,0.1-0.11,0.21-0.17,0.31c-0.22,0.4-0.3,0.89-0.18,1.34c0.11,0.4,0.42,0.84,0.8,1.04c0.4,0.21,0.89,0.32,1.34,0.18
		c0.42-0.14,0.82-0.4,1.04-0.8c0.39-0.71,0.77-1.42,1.16-2.13c0.06-0.1,0.11-0.21,0.17-0.31c0.22-0.4,0.3-0.89,0.18-1.34
		C14.67,30.64,14.36,30.2,13.98,30.01z"/>
	<path d="M21.04,33.84c-0.4-0.21-0.89-0.32-1.34-0.18c-0.42,0.14-0.82,0.4-1.04,0.8c-0.39,0.71-0.77,1.42-1.16,2.13
		c-0.06,0.1-0.11,0.21-0.17,0.31c-0.22,0.4-0.3,0.89-0.18,1.34c0.11,0.4,0.42,0.84,0.8,1.04c0.4,0.21,0.89,0.32,1.34,0.18
		c0.42-0.14,0.82-0.4,1.04-0.8c0.39-0.71,0.77-1.42,1.16-2.13c0.06-0.1,0.11-0.21,0.17-0.31c0.22-0.4,0.3-0.89,0.18-1.34
		C21.72,34.48,21.41,34.04,21.04,33.84z"/>
</g>

</svg>