<svg xmlns="http://www.w3.org/2000/svg" viewBox="0 0 50 50">
<style type="text/css">
    .st0{fill:#432818;}
</style>

<g id="strawberry" fill="currentColor">
	<path d="M4.13,45.84c0.01,0.01,0.01,0.02,0.01,0.03c0.03,0.02,0.07,0.03,0.1,0.05C4.4,45.97,4.62,46.02,4.13,45.84z"/>
	<path d="M14.82,24.49c0.33,0.3,0.77,0.53,1.23,0.51c0.46-0.02,0.9-0.18,1.23-0.51c0.56-0.56,1.12-1.12,1.67-1.67
		c0.08-0.08,0.16-0.16,0.24-0.24c0.17-0.16,0.29-0.34,0.36-0.56c0.11-0.21,0.16-0.43,0.15-0.67c0.01-0.24-0.04-0.46-0.15-0.67
		c-0.07-0.22-0.19-0.4-0.36-0.56c-0.33-0.3-0.77-0.53-1.23-0.51c-0.46,0.02-0.9,0.18-1.23,0.51c-0.56,0.56-1.12,1.12-1.67,1.67
		c-0.08,0.08-0.16,0.16-0.24,0.24c-0.17,0.16-0.29,0.34-0.36,0.56c-0.11,0.21-0.16,0.43-0.15,0.67c-0.01,0.24,0.04,0.46,0.15,0.67
		C14.53,24.15,14.65,24.33,14.82,24.49z"/>
	<path d="M24.72,25.65c-0.33-0.3-0.77-0.53-1.23-0.51c-0.46,0.02-0.9,0.18-1.23,0.51c-0.56,0.56-1.12,1.12-1.67,1.67
		c-0.08,0.08-0.16,0.16-0.24,0.24c-0.17,0.16-0.29,0.34-0.36,0.56c-0.11,0.21-0.16,0.43-0.15,0.67c-0.01,0.24,0.04,0.46,0.15,0.67
		c0.07,0.22,0.19,0.4,0.36,0.56c0.33,0.3,0.77,0.53,1.23,0.51c0.46-0.02,0.9-0.18,1.23-0.51c0.56-0.56,1.12-1.12,1.67-1.67
		c0.08-0.08,0.16-0.16,0.24-0.24c0.17-0.16,0.29-0.34,0.36-0.56c0.11-0.21,0.16-0.43,0.15-0.67c0.01-0.24-0.04-0.46-0.15-0.67
		C25.01,25.99,24.89,25.8,24.72,25.65z"/>
	<path d="M30.25,31.18c-0.33-0.3-0.77-0.53-1.23-0.51c-0.46,0.02-0.9,0.18-1.23,0.51c-0.56,0.56-1.12,1.12-1.67,1.67
		c-0.08,0.08-0.16,0.16-0.24,0.24c-0.17,0.16-0.29,0.34-0.36,0.56c-0.11,0.21-0.16,0.43-0.15,0.67c-0.01,0.24,0.04,0.46,0.15,0.67
		c0.07,0.22,0.19,0.4,0.36,0.56c0.33,0.3,0.77,0.53,1.23,0.51c0.46-0.02,0.9-0.18,1.23-0.51c0.56-0.56,1.12-1.12,1.67-1.67
		c0.08-0.08,0.16-0.16,0.24-0.24c0.17-0.16,0.29-0.34,0.36-0.56c0.11-0.21,0.16-0.43,0.15-0.67c0.01-0.24-0.04-0.46-0.15-0.67
		C30.54,31.52,30.42,31.33,30.25,31.18z"/>
	<path d="M16.95,27.89c-0.33-0.3-0.77-0.53-1.23-0.51c-0.46,0.02-0.9,0.18-1.23,0.51c-0.56,0.56-1.12,1.12-1.67,1.67
		c-0.08,0.08-0.16,0.16-0.24,0.24c-0.17,0.16-0.29,0.34-0.36,0.56c-0.11,0.21-0.16,0.43-0.15,0.67c-0.01,0.24,0.04,0.46,0.15,0.67
		c0.07,0.22,0.19,0.4,0.36,0.56c0.33,0.3,0.77,0.53,1.23,0.51c0.46-0.02,0.9-0.18,1.23-0.51c0.56-0.56,1.12-1.12,1.67-1.67
		c0.08-0.08,0.16-0.16,0.24-0.24c0.17-0.16,0.29-0.34,0.36-0.56c0.11-0.21,0.16-0.43,0.15-0.67c0.01-0.24-0.04-0.46-0.15-0.67
		C17.24,28.23,17.12,28.05,16.95,27.89z"/>
	<path d="M22.48,33.42c-0.33-0.3-0.77-0.53-1.23-0.51c-0.46,0.02-0.9,0.18-1.23,0.51c-0.56,0.56-1.12,1.12-1.67,1.67
		c-0.08,0.08-0.16,0.16-0.24,0.24c-0.17,0.16-0.29,0.34-0.36,0.56c-0.11,0.21-0.16,0.43-0.15,0.67c-0.01,0.24,0.04,0.46,0.15,0.67
		c0.07,0.22,0.19,0.4,0.36,0.56c0.33,0.3,0.77,0.53,1.23,0.51c0.46-0.02,0.9-0.18,1.23-0.51c0.56-0.56,1.12-1.12,1.67-1.67
		c0.08-0.08,0.16-0.16,0.24-0.24c0.17-0.16,0.29-0.34,0.36-0.56c0.11-0.21,0.16-0.43,0.15-0.67c0.01-0.24-0.04-0.46-0.15-0.67
		C22.77,33.76,22.65,33.58,22.48,33.42z"/>
	<path d="M14.7,35.66c-0.33-0.3-0.77-0.53-1.23-0.51c-0.46,0.02-0.9,0.18-1.23,0.51c-0.56,0.56-1.12,1.12-1.67,1.67
		c-0.08,0.08-0.16,0.16-0.24,0.24c-0.17,0.16-0.29,0.34-0.36,0.56c-0.11,0.21-0.16,0.43-0.15,0.67c-0.01,0.24,0.04,0.46,0.15,0.67
		c0.07,0.22,0.19,0.4,0.36,0.56c0.33,0.3,0.77,0.53,1.23,0.51c0.46-0.02,0.9-0.18,1.23-0.51c0.56-0.56,1.12-1.12,1.67-1.67
		c0.08-0.08,0.16-0.16,0.24-0.24c0.17-0.16,0.29-0.34,0.36-0.56c0.11-0.21,0.16-0.43,0.15-0.67c0.01-0.24-0.04-0.46-0.15-0.67
		C14.99,36.01,14.87,35.82,14.7,35.66z"/>
	<path d="M49.71,16.23c-2.18-3.66-5.91-5.72-9.99-5.87c0-0.01,0-0.02,0-0.03c-0.1-4.14-2.39-7.92-5.94-10.03
		c-0.53-0.32-1.23-0.32-1.76,0c-3.55,2.11-5.82,5.88-5.94,10.03c-0.02,0.69,0.03,1.38,0.14,2.05c-2.11-1.01-4.38-1.57-6.77-1.35
		c-4.42,0.41-8.13,3.05-11.21,6.08c-2.7,2.67-4.28,6.32-5.47,9.86C1.46,30.89,0.62,35,0.25,39.11c-0.23,2.63-0.55,6.13,0.88,8.5
		c1.37,2.28,4.71,2.34,7.05,2.32c4.43-0.03,8.94-0.87,13.19-2.13c4.01-1.18,8.31-2.81,11.35-5.79c3.12-3.15,5.88-6.89,6.3-11.43
		c0.22-2.41-0.35-4.71-1.38-6.83c0.59,0.09,1.18,0.16,1.79,0.17c4.25-0.05,8.12-2.29,10.29-5.94
		C50.03,17.45,50.03,16.76,49.71,16.23z M29.57,10.33c0.07-2.56,1.34-4.89,3.33-6.43c1.99,1.53,3.27,3.87,3.33,6.43
		c0.02,0.74-0.06,1.46-0.23,2.16c-0.01,0.05-0.02,0.11-0.03,0.16c-0.01,0.04-0.03,0.07-0.04,0.11c-0.15,0.54-0.35,1.05-0.59,1.54
		c-0.03,0.06-0.06,0.12-0.09,0.18c-0.1,0.19-0.21,0.37-0.32,0.55c-0.08,0.13-0.16,0.26-0.25,0.38c-0.09,0.14-0.19,0.27-0.3,0.4
		c-0.13,0.17-0.27,0.33-0.41,0.48c-0.09,0.09-0.17,0.19-0.26,0.27c-0.18,0.18-0.38,0.36-0.58,0.52c-0.07,0.06-0.14,0.12-0.21,0.18
		c-0.01,0.01-0.02,0.01-0.02,0.02c-0.15-0.11-0.28-0.24-0.42-0.36c-0.2-0.2-0.41-0.39-0.62-0.59C30.37,14.73,29.51,12.6,29.57,10.33
		z M33.02,22.78c1.3,1.83,2.41,3.95,2.54,6.23c0.25,4.21-2.5,7.72-5.31,10.55c-2.18,2.14-5.32,3.43-8.24,4.4
		c-3.35,1.11-6.84,1.91-10.35,2.28c-1.56,0.17-3.14,0.26-4.71,0.19c-0.28-0.01-0.56-0.03-0.84-0.06C6,46.37,5.88,46.36,5.76,46.34
		c-0.06-0.01-0.15-0.02-0.19-0.03c-0.22-0.04-0.44-0.08-0.66-0.14c-0.12-0.03-0.52-0.19-0.56-0.19c-0.03-0.02-0.07-0.04-0.1-0.06
		c-0.05-0.02-0.09-0.03-0.09-0.03c0-0.01-0.01-0.02-0.01-0.03c-0.04-0.02-0.09-0.05-0.13-0.07c0.05,0.02,0.08,0.03,0.11,0.04
		c-0.03-0.06-0.07-0.13-0.09-0.18c-0.03-0.11-0.14-0.43-0.17-0.53c-0.26-1.01-0.3-2.06-0.28-3.38c0.04-3.38,0.61-6.74,1.42-10.01
		c0.83-3.35,1.94-6.73,3.75-9.69c1.7-2.77,4.57-5.22,7.57-6.64c3.53-1.67,7.17-0.89,10.34,1.2c0.86,0.56,1.69,1.21,2.48,1.9
		c0.36,0.41,0.75,0.79,1.17,1.14c0.01,0.01,0.01,0.02,0.02,0.03c0.36,0.44,0.77,0.83,1.19,1.2C32.06,21.5,32.56,22.13,33.02,22.78z
		 M39.42,20.45c-1.36-0.02-2.63-0.34-3.77-0.92c0.04-0.04,0.08-0.07,0.12-0.11c0.1-0.09,0.19-0.18,0.29-0.28
		c0.17-0.16,0.33-0.33,0.48-0.5c0.17-0.18,0.33-0.37,0.48-0.56c0.12-0.15,0.24-0.3,0.35-0.45c0.12-0.17,0.24-0.33,0.36-0.51
		c0.07-0.11,0.14-0.23,0.21-0.34c0.18-0.29,0.35-0.58,0.5-0.89c0.07-0.13,0.13-0.26,0.19-0.4c0.1-0.21,0.19-0.42,0.27-0.64
		c0.1-0.25,0.19-0.51,0.27-0.77c0.03-0.1,0.06-0.2,0.09-0.31c2.67-0.05,5.2,1.24,6.82,3.34C44.51,19.19,42.09,20.41,39.42,20.45z"/>
</g>

</svg>