<svg xmlns="http://www.w3.org/2000/svg" viewBox="0 0 50 50">
<style type="text/css">
    .st0{fill:#432818;}
</style>

<path id="sweet" fill="currentColor" d="M48.67,36.96c-3.96-1.44-7.93-2.87-11.89-4.31c-0.23-0.08-0.46-0.17-0.69-0.25c3.55-5.22,2.7-12.36-1.66-16.82
	c-4.03-3.95-10.02-4.96-15.14-2.61c-0.59,0.27-1.15,0.59-1.69,0.95c-1.14-3.15-2.29-6.3-3.43-9.45c-0.38-1.04-0.75-2.08-1.13-3.12
	c-0.44-1.2-1.93-1.75-2.91-0.77C7.6,3.1,5.07,5.63,2.54,8.16c-0.66,0.66-1.31,1.31-1.97,1.97c-0.98,0.98-0.43,2.47,0.77,2.91
	c3.96,1.44,7.93,2.87,11.89,4.31c0.24,0.09,0.47,0.17,0.71,0.26c-1.67,2.52-2.51,5.59-2.19,8.63c0.58,5.55,4.54,10.33,10.01,11.69
	c3.72,0.92,7.57,0.16,10.64-1.88c1.15,3.16,2.3,6.33,3.44,9.49c0.38,1.04,0.75,2.08,1.13,3.12c0.44,1.2,1.93,1.75,2.91,0.77
	c2.53-2.53,5.06-5.06,7.59-7.59c0.66-0.66,1.31-1.31,1.97-1.97C50.42,38.89,49.87,37.4,48.67,36.96z M5.38,10.82
	c-0.14-0.05-0.28-0.1-0.42-0.15C6.85,8.78,8.73,6.89,10.62,5c0.01-0.01,0.03-0.03,0.04-0.04c1.08,2.98,2.16,5.97,3.25,8.95
	C11.07,12.88,8.22,11.85,5.38,10.82z M23.99,34.81c-4.07-0.37-7.57-3.49-8.56-7.47c-0.96-3.9,0.65-8.26,4.1-10.52
	c3.92-2.58,9.07-2.07,12.44,1.23c2.85,2.91,3.73,7.33,2.02,11.02C32.19,32.92,28.17,35.19,23.99,34.81z M36.09,36.09
	c2.84,1.03,5.69,2.06,8.53,3.09c0.14,0.05,0.28,0.1,0.42,0.15c-1.89,1.89-3.78,3.78-5.66,5.66c-0.01,0.01-0.03,0.03-0.04,0.04
	C38.25,42.06,37.17,39.07,36.09,36.09z"/>

</svg>