<svg xmlns="http://www.w3.org/2000/svg" viewBox="0 0 1920 1080" style="background-color:#FFF;fill:#000;">
<path d="M1163.5,421.1c-9.1,2.2-13-11.9-3.9-14c16.4-4,32-13.1,41.4-27.5c8.8-13.4,10.8-29.4,4.2-44.1c-6.8-15-19.8-26.6-34.3-34
	c-14.4-7.3-29.7-9.7-45.2-4.9c-17.1,5.4-31.6,17.7-42.7,31.4c-11.7,14.4-20.2,31.8-23.4,50.1c-0.1,0.7-0.2,1.5-0.4,2.2
	c0,0.1-0.2,1.2-0.1,0.4c0.1-0.7-0.1,1.1-0.1,1.4c-0.1,1.4-0.3,2.8-0.3,4.3c-0.1,2.7-0.1,5.5,0.1,8.3c0.1,0.8,0.1,1.6,0.2,2.5
	c0.1,0.6,0.2,1.8,0,0.5c0.2,1.2,0.4,2.4,0.6,3.6c0.5,2.6,1.2,5.3,2,7.8c0.4,1.3,0.9,2.6,1.4,3.9c0.2,0.6,0.4,1.1,0.6,1.7
	c0.5,1.3,0,0.1,0.2,0.5c1.1,2.5,2.3,4.9,3.6,7.3c2.6,4.7,5.6,9.2,8.8,13.5c0.3,0.4,1.6,2.1,0.8,1.1c0.4,0.5,0.8,1,1.2,1.5
	c0.9,1.1,1.8,2.2,2.7,3.3c1.8,2.2,3.7,4.4,5.6,6.5c4,4.5,8.2,8.8,12.5,13.1c18.7,18.9,38,37,53.9,58.4
	c18.2,24.5,29.8,52.7,33.3,83.1c3.9,33.8-2.5,68.6-14.4,100.2c-12.5,33.1-31.3,64.2-56.3,89.4c-22.8,22.9-51.9,41.5-84.4,46.3
	c-34.3,5-68.5-5.3-97.5-23.6c-30.1-19-55.8-46.3-72.3-77.9c-15.3-29.2-23.1-63.3-14.5-95.7c8.4-31.5,29.2-62.3,58.1-78.1
	c30.3-16.6,68.4-13.3,98.3,2.7c14.3,7.6,27.3,19.2,33.9,34.2c7,15.8,7.2,33.9,2.1,50.4c-5,16.2-15.3,31.6-30.6,39.7
	c-17.4,9.3-37.7,7.2-54.9-1.3c-16.9-8.4-31.6-23.4-37.9-41.4c-6.2-17.5-2.2-35.9,2.6-53.1c2.1-7.6,4.7-16,5.7-23.3
	c1-7.3,0.8-14.5-2.3-20.8c-7.3-14.8-24.6-18.3-34.4-30.8c-6.1-7.8-8.9-17.8-7.6-27.6c0.5-3.8,1.6-7.5,2.4-11.2
	c0.7-3,0.6-6.6-0.7-10.2c-2.5-6.6-7.7-9.7-13.6-13.2c-7.1-4.1-13.9-8.3-18.7-15.2c-5.6-7.9-7.1-17.6-4.9-27
	c1.7-7.5,3.7-13-0.5-20.3c-3.6-6.2-9.9-9.3-16.1-13.2c-7.5-4.8-14.2-10.6-18.2-18.7c-4.2-8.4,8.4-15.7,12.6-7.4
	c7,14.1,24.2,17.2,33.1,30c5.4,7.9,7,17.4,5,26.6c-1.6,7.3-3.9,12.6,0,19.8c3.4,6.2,9,9.1,15.2,12.7c6.9,4,13.5,8.7,17.6,15.7
	c4.7,8.2,5.3,17.1,3,26.1c-1.8,7.4-3,14,1.1,21.2c3.4,6,9.3,9.3,15.3,13.1c7.6,4.8,14.4,10.2,19.5,17.7
	c20.7,30.4-8.7,64.1-4.2,96.2c4.5,31.7,46.8,59.5,76.1,41.6c13-7.9,20.6-22.7,23.4-37.4c2.8-14.5,0.5-29.2-8.3-41.4
	c-8.4-11.8-22.4-20-36.1-24.7c-14.4-5-29.5-7.4-44.7-5.4c-32.6,4.1-57.2,30.7-70.4,59.2c-5.8,12.5-9.5,26.7-9.9,40.4
	c-0.4,15.7,2.8,30.8,8.4,45.7c11.8,31.4,34.1,59.3,60.5,79.8c25.4,19.7,57,33.9,89.4,33.1c30.2-0.8,58.7-15.5,81.3-35.9
	c25-22.5,44.1-51.3,57.1-82.1c12.8-30.4,20.2-63.6,18-96.6c-1.9-29.3-12.4-56.1-29.3-80.1c-7.1-10-15.6-19.9-24.6-29.3
	c-8.7-9.2-17.8-18-26.8-26.9c-16.3-16.3-32.8-33.6-41.7-55.3c-11.1-26.9-4.8-56.5,8.9-81.3c17-30.8,50.6-61.9,88.4-58.4
	c33,3,68,28.4,75.2,61.9C1230.7,379.9,1198.9,412.6,1163.5,421.1L1163.5,421.1z M1107,348.6c9.4,0,9.4-14.6,0-14.6
	C1097.6,334,1097.6,348.6,1107,348.6L1107,348.6z M1150.6,330.4c9.4,0,9.4-14.6,0-14.6C1141.2,315.8,1141.2,330.4,1150.6,330.4
	L1150.6,330.4z M820.8,364.6c3.4-3.6,4.5-8.6,5.2-13.4c0.9-6.7,1.2-13.5,1.1-20.2c-0.1-13.2-1.1-26.6-3-39.6
	c-1.5-10.3-7.6-19.5-14-27.6c-12.8-16-32.8-25.2-53.3-23.6c-27,2.1-51.4,21.5-58.4,48c-5.3,20-0.7,41.3,12.7,57.2
	c5.2,6.1,11.7,11.2,18.6,15.4c3.9,2.4,8.4,5.1,12.9,6.3c10.8,2.8,22.8,3.1,34,3.6c6.9,0.3,13.9,0.5,20.8,0.2
	c5.6-0.3,11.5-0.6,16.9-2.4C816.7,367.6,818.9,366.5,820.8,364.6c6.8-6.4-3.5-16.7-10.3-10.3c-0.9,0.8,1.5-1.3,0.5-0.4
	c-0.2,0.2-0.6,0.4-0.9,0.5c-1.3,0.5,1.8-0.4,0.3-0.1c-0.4,0.1-0.9,0.3-1.3,0.4c-1,0.3-1.9,0.5-2.9,0.7c-0.5,0.1-1.1,0.2-1.6,0.3
	c-1.1,0.2,1.1-0.1-1,0.1c-6,0.5-12,0.7-18.1,0.6c-6.3-0.1-12.6-0.4-18.9-0.9c-2.9-0.2-5.7-0.5-8.6-0.8c-1.3-0.1-2.5-0.3-3.8-0.4
	c-0.6-0.1-1.2-0.1-1.8-0.2c-1.4-0.2,1.4,0.2-0.7-0.1c-1.6-0.2-3.3-0.5-4.9-0.8c-0.4-0.1-0.9-0.3-1.3-0.3c0,0-0.6-0.2-0.6-0.2
	c0,0,2.5,1.2,0.2,0c-5.1-2.6-10.2-5.3-14.8-8.8c-13-9.9-20.7-25.7-19.6-42.6c0.9-13.2,7.5-25.6,17.8-34.3c3.3-2.8,8.2-6,13-8.2
	c0.6-0.3,3.4-1.3,0.9-0.4c0.5-0.2,0.9-0.4,1.4-0.5c1.5-0.5,2.9-1,4.4-1.4c15.7-4.1,33-0.5,45.2,10.8c5.1,4.7,8.6,9.5,12,15.6
	c1.2,2.1,2.3,4.3,3.3,6.4c0.1,0.3,0.6,1,0.6,1.3c0-1.5-0.6-2-0.5-1.1c0,0.5,0.3,1,0.4,1.5c0.4,2,0.7,4,1,6c-0.3-2,0.2,2,0.3,2.7
	c0.2,1.5,0.3,3.1,0.5,4.6c0.7,6.9,1.1,13.7,1.4,20.6c0.2,7,0.3,14-0.3,20.9c-0.1,0.6-0.1,1.3-0.2,1.9c-0.2,2.1,0.1-0.1-0.1,1
	c-0.2,1.2-0.4,2.4-0.7,3.6c-0.1,0.5-0.3,0.9-0.4,1.3c-0.2,0.8-1.1,2,0,0.2c-0.2,0.3-0.3,0.7-0.5,0.9c-1.1,1.4,1-1.1,0.2-0.3
	C804.1,361.2,814.4,371.5,820.8,364.6z"/>
</svg>
