<svg xmlns="http://www.w3.org/2000/svg" viewBox="0 0 24 24" style="background-color:#22004F;fill:#D291FF;">
<path d="M10.07,14.23h-3.3L6.1,16.41c-0.01,0.04-0.03,0.07-0.06,0.1c-0.03,0.02-0.07,0.04-0.11,0.03H4.26
	c-0.1,0-0.13-0.05-0.1-0.16l2.86-8.11C7.04,8.18,7.07,8.09,7.1,7.98C7.14,7.79,7.16,7.59,7.16,7.4c0-0.01,0-0.03,0-0.04
	c0-0.01,0.01-0.02,0.02-0.03C7.19,7.31,7.2,7.31,7.22,7.3c0.01,0,0.03-0.01,0.04,0h2.27c0.07,0,0.1,0.02,0.11,0.07l3.24,9.02
	c0.03,0.1,0,0.14-0.09,0.14h-1.86c-0.03,0-0.06,0-0.09-0.02c-0.03-0.02-0.04-0.05-0.05-0.08L10.07,14.23z M7.28,12.71h2.26
	c-0.06-0.19-0.12-0.58-0.2-0.82c-0.08-0.24-0.16-0.49-0.24-0.76c-0.09-0.27-0.17-0.54-0.26-0.81c-0.09-0.27-0.16-0.53-0.24-0.79
	C8.53,9.28,8.47,9.05,8.41,8.84H8.4C8.32,9.22,8.22,9.61,8.1,9.98c-0.13,0.43-0.27,0.87-0.41,1.31C7.55,11.74,7.42,12.33,7.28,12.71
	z M18.12,13.45H15.3c0.04,0.29,0.14,0.57,0.29,0.82c0.16,0.24,0.39,0.42,0.65,0.54c0.36,0.16,0.76,0.25,1.16,0.25
	c0.27,0.01,0.53-0.01,0.8-0.06c0.29-0.05,0.57-0.14,0.84-0.25c0.05-0.04,0.07-0.01,0.07,0.07v1.36c0,0.04-0.01,0.07-0.02,0.11
	c-0.02,0.03-0.04,0.05-0.06,0.06c-0.3,0.14-0.61,0.24-0.93,0.31c-0.38,0.05-0.77,0.07-1.16,0.05c-0.58,0.02-1.16-0.09-1.7-0.31
	c-0.43-0.19-0.81-0.48-1.11-0.84c-0.28-0.34-0.49-0.74-0.61-1.16c-0.12-0.42-0.19-0.85-0.19-1.29c0-0.48,0.07-0.95,0.22-1.41
	c0.14-0.44,0.37-0.85,0.66-1.21c0.29-0.35,0.66-0.64,1.07-0.84c0.46-0.21,0.97-0.32,1.48-0.31c0.5-0.01,0.99,0.09,1.45,0.29
	c0.37,0.17,0.69,0.42,0.94,0.74c0.23,0.3,0.41,0.64,0.53,1.01c0.11,0.35,0.17,0.72,0.17,1.09c0,0.21-0.01,0.4-0.02,0.57
	c-0.01,0.1-0.03,0.2-0.06,0.3c0,0.03-0.02,0.06-0.04,0.08c-0.02,0.02-0.05,0.03-0.09,0.03c-0.06,0-0.15,0.01-0.29,0.02
	c-0.14,0.01-0.38,0.01-0.59,0.01C18.56,13.45,18.34,13.45,18.12,13.45z M15.3,12.32h1.87c0.23,0,0.4,0,0.51-0.01
	c0.07,0,0.14-0.01,0.21-0.02V12.2c0.01-0.17,0-0.34-0.03-0.51c-0.08-0.24-0.23-0.46-0.44-0.6c-0.21-0.15-0.46-0.22-0.72-0.21
	c-0.24-0.01-0.48,0.04-0.69,0.16c-0.21,0.12-0.38,0.3-0.49,0.51C15.41,11.8,15.33,12.05,15.3,12.32z"/>
</svg>
