<svg xmlns="http://www.w3.org/2000/svg" viewBox="0 0 24 24" style="background-color:#300;fill:#FF9A00;">
<path d="M12.03,14.67h-3.3l-0.67,2.2c-0.01,0.04-0.03,0.07-0.06,0.1C7.96,16.99,7.92,17,7.88,17H6.21
	c-0.1,0-0.13-0.05-0.1-0.16l2.85-8.22c0.03-0.09,0.06-0.18,0.09-0.29C9.09,8.17,9.1,8,9.1,7.84c0-0.01,0-0.03,0-0.04
	c0-0.01,0.01-0.02,0.02-0.03c0.01-0.01,0.02-0.02,0.03-0.02c0.01,0,0.03-0.01,0.04,0h2.27c0.07,0,0.1,0.02,0.11,0.07l3.25,9.05
	c0.03,0.1,0,0.14-0.09,0.14h-1.86c-0.03,0-0.06,0-0.09-0.02c-0.03-0.02-0.04-0.05-0.05-0.08L12.03,14.67z M9.22,13.15h2.42
	c-0.06-0.19-0.25-0.63-0.33-0.87c-0.08-0.24-0.18-0.43-0.27-0.7c-0.09-0.27-0.17-0.54-0.26-0.81c-0.09-0.27-0.16-0.53-0.24-0.79
	c-0.07-0.25-0.14-0.48-0.19-0.69h-0.01c-0.08,0.39-0.18,0.77-0.3,1.14c-0.13,0.43-0.27,0.87-0.41,1.31
	C9.5,12.19,9.36,12.77,9.22,13.15z M16.77,9.23c-0.15,0.01-0.29-0.02-0.43-0.07c-0.14-0.05-0.26-0.14-0.36-0.24
	c-0.1-0.11-0.18-0.24-0.23-0.38C15.7,8.4,15.68,8.25,15.68,8.1c-0.01-0.15,0.02-0.29,0.08-0.43C15.81,7.53,15.9,7.41,16,7.31
	c0.11-0.1,0.23-0.18,0.37-0.23C16.51,7.02,16.65,7,16.8,7c0.15-0.01,0.3,0.01,0.44,0.07c0.14,0.05,0.27,0.13,0.37,0.24
	c0.1,0.11,0.18,0.23,0.23,0.37c0.05,0.14,0.07,0.28,0.07,0.43c0.01,0.15-0.02,0.3-0.07,0.44s-0.13,0.27-0.24,0.38
	c-0.11,0.11-0.24,0.19-0.38,0.24C17.07,9.21,16.92,9.24,16.77,9.23z M15.84,16.86v-6.53c0-0.09,0.04-0.13,0.11-0.13h1.62
	c0.08,0,0.11,0.04,0.11,0.13v6.53c0,0.1-0.04,0.14-0.11,0.14h-1.61C15.89,17,15.84,16.95,15.84,16.86z"/>
</svg>
