<svg xmlns="http://www.w3.org/2000/svg" viewBox="0 0 24 24" style="background-color:#002620;fill:#00E4BB;">
<path d="M12.5,16.22L9.6,7.54C9.59,7.49,9.57,7.45,9.53,7.42C9.48,7.39,9.44,7.39,9.4,7.39H7.51
	c-0.04,0-0.1,0.01-0.14,0.05c-0.04,0.04-0.05,0.1-0.05,0.14c-0.01,0.32-0.04,0.55-0.1,0.7l0,0l-2.6,7.93l0,0
	c-0.02,0.06-0.03,0.13,0.02,0.2c0.05,0.07,0.13,0.08,0.18,0.08h1.35c0.06,0,0.12-0.01,0.17-0.05c0.05-0.04,0.07-0.09,0.08-0.14
	l0.71-2.28h2.7l0.76,2.32l0,0.01c0.02,0.04,0.05,0.08,0.1,0.11c0.04,0.03,0.09,0.04,0.14,0.04h1.51c0.05,0,0.13-0.02,0.17-0.09
	C12.54,16.34,12.52,16.27,12.5,16.22z M9.45,12.51H7.52C7.99,10.98,8.3,9.9,8.47,9.29C8.53,9.5,8.6,9.74,8.68,10.02
	c0.14,0.48,0.3,0.99,0.47,1.53C9.29,11.99,9.38,12.3,9.45,12.51z M17.68,16.34c-0.02-0.07-0.04-0.15-0.06-0.25
	c-0.46,0.35-1.02,0.52-1.69,0.52c-0.74,0-1.32-0.21-1.71-0.65c-0.39-0.44-0.57-1.08-0.57-1.91V9.93c0-0.05,0.01-0.11,0.06-0.16
	c0.05-0.05,0.11-0.06,0.16-0.06h1.44c0.05,0,0.11,0.02,0.16,0.07c0.04,0.05,0.05,0.11,0.05,0.16v4.01c0,0.42,0.09,0.71,0.24,0.9
	c0.15,0.18,0.37,0.28,0.7,0.28c0.41,0,0.74-0.14,1-0.43V9.93c0-0.05,0.01-0.11,0.06-0.16c0.05-0.05,0.11-0.06,0.16-0.06h1.43
	c0.05,0,0.11,0.01,0.16,0.05c0.05,0.04,0.07,0.1,0.07,0.16v5.02c0,0.42,0.02,0.86,0.07,1.33c0.01,0.05,0.01,0.12-0.05,0.18
	l-0.01,0.01l-0.02,0.01c-0.04,0.02-0.1,0.03-0.15,0.03h-1.25c-0.05,0-0.1-0.01-0.15-0.04C17.73,16.43,17.69,16.39,17.68,16.34z"/>
</svg>
