<svg xmlns="http://www.w3.org/2000/svg" viewBox="0 0 24 24" style="background-color:#0F2133;">
<style type="text/css">
	.s1{fill:#E8E4C6;}
	.s2{fill:#FFFFFF;}
	.s3{fill:#63625E;}
	.s4{fill:#FC4002;}
	.s5{fill:#919397;}
	.s6{fill:#FF5C01;}
</style>
<polygon class="s1" points="11.52,11.23 11.52,11.75 12.19,11.74 12.19,12.41 12.7,12.41 12.7,11.74 14.75,11.74 15.06,10.81 
15.85,11 15.59,13.87 14.81,13.87 14.76,13 12.19,13 12.19,16.32 13.87,16.47 13.87,17.45 8.63,17.45 8.43,16.13 9.98,12.86 
9.98,11.23 8.25,7.79 8.39,6.56 16.55,6.56 16.55,9.27 15.43,9.4 14.87,8.07 12.19,8.07 12.19,11.23 	"/>
<polygon class="s2" points="17.1,6 17.1,9.76 15.09,10 14.5,8.62 12.75,8.62 12.75,11.18 14.36,11.18 14.69,10.15 16.45,10.57 
16.1,14.42 14.29,14.42 14.24,13.55 12.75,13.55 12.75,15.8 14.43,15.95 14.43,18 8.16,18 8.02,17.14 8.52,16.71 8.63,17.45 
13.87,17.45 13.87,16.47 12.19,16.32 12.19,13 14.76,13 14.81,13.87 15.59,13.87 15.85,11 15.06,10.81 14.75,11.74 12.7,11.74 
12.7,12.41 12.19,12.41 12.19,11.74 11.52,11.75 11.52,11.23 12.19,11.23 12.19,8.07 14.87,8.07 15.43,9.4 16.55,9.27 16.55,6.56 
8.39,6.56 8.32,7.17 7.8,6.73 7.89,6"/>
<rect class="s3" x="9.78" y="8.83" width="0.39" height="6.42"/>
<path class="s4" d="M10.33,12.04c0,1.6-0.67,3.05-1.74,4.09l-0.36-0.42c0.96-0.93,1.55-2.23,1.55-3.67c0-1.44-0.6-2.75-1.56-3.68
l0.36-0.42C9.65,8.98,10.33,10.44,10.33,12.04z"/>

<g class="s5">
<rect x="9.53" y="8.38" transform="matrix(0.7071 -0.7071 0.7071 0.7071 -3.3234 9.6424)" width="0.9" height="0.9"/>
<rect x="9.53" y="14.8" transform="matrix(0.7071 -0.7071 0.7071 0.7071 -7.8608 11.5214)" width="0.9" height="0.9"/>
</g>
<g class="s6">
<polygon points="8.85,7.63 7.94,8.68 6.9,7.77 7.8,6.73 7.81,6.73 		"/>
<rect x="7.18" y="15.67" transform="matrix(0.7547 -0.6561 0.6561 0.7547 -8.8019 9.1768)" width="1.38" height="1.38"/>
<circle cx="9.98" cy="12.04" r="0.81"/>
</g>
</svg>
