<svg xmlns="http://www.w3.org/2000/svg" viewBox="0 0 24 24" style="fill:#F03C2E;">
<path d="M17.9,11.45L12.55,6.1c-0.31-0.31-0.81-0.31-1.12,0c0,0,0,0,0,0l-1.11,1.11l1.41,1.41
	c0.34-0.11,0.71-0.03,0.96,0.22c0.25,0.25,0.34,0.63,0.22,0.97l1.36,1.36c0.34-0.12,0.72-0.03,0.97,0.22c0.37,0.37,0.37,0.96,0,1.33
	c0,0,0,0,0,0c-0.37,0.37-0.96,0.37-1.33,0c-0.27-0.27-0.35-0.67-0.2-1.02l-1.27-1.27v3.33c0.46,0.23,0.66,0.79,0.43,1.26
	c-0.05,0.09-0.11,0.18-0.18,0.25c-0.37,0.37-0.96,0.37-1.33,0c0,0,0,0,0,0c-0.37-0.37-0.37-0.96,0-1.33c0,0,0,0,0,0
	c0.09-0.09,0.19-0.16,0.31-0.21v-3.36c-0.48-0.2-0.71-0.75-0.51-1.23c0,0,0,0,0,0L9.77,7.76L6.1,11.43c-0.31,0.31-0.31,0.81,0,1.12
	l5.35,5.35c0.31,0.31,0.81,0.31,1.12,0l5.33-5.33C18.2,12.26,18.2,11.76,17.9,11.45"/>
</svg>
