<svg xmlns="http://www.w3.org/2000/svg" viewBox="0 0 24 24" style="background-color:#370044;fill:#EA77FF;">
<path d="M5.88,16.51V7.41c0-0.08,0.04-0.12,0.08-0.12c0.15,0,0.35,0,0.54,0c0.19,0,0.42,0,0.69,0c0.23,0,0.5,0,0.77,0
	c0.27,0,0.62,0.08,0.89,0.08c0.62,0,1.23,0.08,1.81,0.27c0.46,0.15,0.85,0.39,1.2,0.73c0.27,0.27,0.5,0.62,0.66,1
	c0.12,0.39,0.19,0.77,0.19,1.16c0.04,0.66-0.15,1.31-0.54,1.89c-0.35,0.5-0.85,0.89-1.43,1.08c-0.66,0.23-1.31,0.35-2.01,0.35
	c-0.19,0-0.35,0-0.42,0s-0.42-0.08-0.62-0.08v2.82c0,0.08-0.04,0.12-0.12,0.12H5.96C5.92,16.63,5.88,16.59,5.88,16.51z M7.74,8.99
	v2.97c0.12,0,0.46,0.08,0.58,0.08h0.46c0.35,0,0.69-0.04,1-0.15c0.27-0.08,0.54-0.23,0.73-0.46c0.19-0.27,0.31-0.58,0.27-0.93
	c0-0.27-0.08-0.54-0.19-0.77c-0.15-0.23-0.39-0.42-0.62-0.5C9.63,9.11,9.28,9.03,8.93,9.03c-0.23,0-0.42,0-0.62,0
	C8.12,9.07,7.77,8.99,7.74,8.99z M13.87,9.65c-0.04,0.04-0.04,0.04-0.04,0.08c0,0.19,0.04,0.39,0.04,0.58
	c0.04,0.23,0.04,0.46,0.04,0.69c0,0.23,0,0.46,0,0.66v4.94c0.04,0.08,0.08,0.12,0.15,0.12h1.62c0.08,0,0.12-0.04,0.12-0.12v-4.51
	c0.15-0.15,0.39-0.27,0.58-0.35c0.23-0.12,0.46-0.19,0.73-0.23c0.27-0.08,0.54-0.12,0.85-0.08c0.12,0,0.15-0.04,0.15-0.12V9.53
	c0-0.04-0.04-0.08-0.12-0.08c-0.42-0.04-0.85,0.08-1.23,0.31c-0.39,0.19-0.69,0.46-0.96,0.77c0-0.12,0-0.19,0-0.31
	c0-0.08,0-0.19-0.04-0.27c0-0.08-0.04-0.12-0.08-0.19c-0.04-0.08-0.12-0.15-0.19-0.15h-1.54C13.91,9.61,13.87,9.61,13.87,9.65z"/>
</svg>
