<svg xmlns="http://www.w3.org/2000/svg" viewBox="0 0 24 24" style="background-color:#000026;fill:#00C8FF;">
<path d="M5.66,16.5V7.38c0-0.07,0.03-0.1,0.09-0.1c0.15,0,0.33,0,0.54-0.01c0.21,0,0.44-0.01,0.68-0.01
	c0.24,0,0.5-0.01,0.77-0.01c0.27,0,0.54-0.01,0.81-0.01c0.62-0.02,1.24,0.08,1.83,0.27c0.45,0.15,0.85,0.4,1.19,0.73
	c0.29,0.28,0.51,0.63,0.65,1.01c0.13,0.37,0.2,0.76,0.2,1.15c0.03,0.67-0.16,1.33-0.53,1.88c-0.35,0.5-0.85,0.87-1.43,1.08
	c-0.64,0.23-1.32,0.34-2,0.34c-0.21,0-0.36,0-0.44-0.01c-0.09,0-0.21-0.01-0.39-0.01v2.81c0,0.02,0,0.04,0,0.05
	c-0.01,0.02-0.01,0.03-0.03,0.04c-0.01,0.01-0.03,0.02-0.04,0.03c-0.02,0.01-0.03,0.01-0.05,0H5.76C5.69,16.62,5.66,16.58,5.66,16.5
	z M7.63,8.99v2.96c0.12,0.01,0.24,0.01,0.34,0.01h0.47c0.35,0.01,0.69-0.04,1.02-0.14c0.28-0.08,0.54-0.25,0.73-0.47
	c0.2-0.26,0.3-0.59,0.28-0.91c0.01-0.28-0.06-0.55-0.21-0.79c-0.15-0.23-0.37-0.41-0.62-0.51C9.31,9.02,8.95,8.95,8.6,8.97
	c-0.23,0-0.43,0-0.61,0.01C7.81,8.98,7.69,8.99,7.63,8.99z M18.02,11.39c0.02,0,0.04-0.01,0.05-0.01c0.01-0.01,0.03-0.02,0.03-0.04
	c0.01-0.02,0.01-0.03,0.01-0.05V9.85c0-0.04,0-0.07-0.01-0.11c-0.01-0.02-0.02-0.04-0.03-0.05c-0.01-0.01-0.03-0.02-0.05-0.03
	c-0.3-0.14-0.62-0.25-0.94-0.31c-0.4-0.03-0.8-0.04-1.2-0.02c-0.5-0.01-1,0.12-1.44,0.36c-0.38,0.18-0.7,0.46-0.93,0.81
	c-0.2,0.32-0.3,0.69-0.3,1.07c0,0.31,0.07,0.63,0.21,0.91c0.16,0.3,0.39,0.56,0.67,0.75c0.39,0.27,0.82,0.49,1.26,0.64
	c0.31,0.1,0.6,0.24,0.87,0.41c0.06,0.04,0.11,0.09,0.15,0.15c0.04,0.06,0.06,0.13,0.07,0.2c0,0.08-0.02,0.15-0.06,0.22
	c-0.04,0.07-0.1,0.12-0.17,0.15c-0.23,0.1-0.48,0.14-0.74,0.13c-0.35,0-0.7-0.05-1.04-0.14c-0.41-0.09-0.79-0.23-1.16-0.44
	c-0.01-0.01-0.02-0.01-0.04-0.02c-0.01,0-0.03,0-0.04,0.01c-0.01,0.01-0.02,0.02-0.03,0.03c-0.01,0.01-0.01,0.03-0.01,0.04v1.54
	c0,0.04,0.01,0.07,0.02,0.1c0.02,0.03,0.04,0.06,0.07,0.07c0.31,0.13,0.63,0.23,0.96,0.29c0.4,0.08,0.8,0.12,1.21,0.11
	c0.55,0.02,1.1-0.08,1.61-0.29c0.4-0.16,0.74-0.44,0.99-0.79c0.23-0.35,0.35-0.76,0.34-1.18c0.01-0.32-0.07-0.63-0.21-0.91
	c-0.17-0.3-0.41-0.55-0.7-0.74c-0.43-0.27-0.88-0.49-1.36-0.65c-0.21-0.09-0.42-0.18-0.63-0.29c-0.11-0.06-0.22-0.14-0.3-0.24
	c-0.05-0.06-0.08-0.14-0.09-0.23c0-0.09,0.02-0.17,0.07-0.24c0.07-0.09,0.17-0.15,0.28-0.18c0.17-0.05,0.35-0.07,0.54-0.06
	c0.33,0,0.67,0.04,0.99,0.11c0.35,0.06,0.7,0.16,1.03,0.3C17.98,11.39,18,11.39,18.02,11.39z"/>
</svg>
