<svg xmlns="http://www.w3.org/2000/svg" viewBox="0 0 24 24" style="fill:#3874A6;">
<path d="M13.47,6.12c-1.02-0.16-2.1-0.15-2.95,0C9.26,6.33,9.04,6.78,9.04,7.61l0,0V8.7h2.96v0.36H7.93
	c-0.86,0-1.61,0.5-1.85,1.45c-0.27,1.09-0.28,1.77,0,2.91c0.21,0.85,0.71,1.45,1.57,1.45h1.02v-1.31c0-0.94,0.85-1.78,1.85-1.78
	h2.95c0.82,0,1.48-0.65,1.48-1.45V7.61C14.95,6.83,14.27,6.25,13.47,6.12z M10.33,7.97c-0.31,0-0.55-0.24-0.55-0.54
	c0-0.3,0.25-0.55,0.55-0.55c0.31,0,0.55,0.24,0.55,0.55C10.88,7.73,10.63,7.97,10.33,7.97z"/>
<path style="fill:#FFD445;" d="M17.9,10.51c-0.21-0.83-0.62-1.45-1.48-1.45h-1.11v1.27c0,0.99-0.86,1.82-1.85,1.82h-2.95
	c-0.81,0-1.48,0.67-1.48,1.45v2.73c0,0.78,0.7,1.23,1.48,1.45c0.94,0.27,1.83,0.31,2.95,0c0.74-0.21,1.48-0.63,1.48-1.45l0,0v-1.09
	h-2.95v-0.36h4.43c0.86,0,1.18-0.58,1.48-1.45C18.21,12.52,18.2,11.66,17.9,10.51z M13.65,15.96c0.31,0,0.55,0.24,0.55,0.54
	c0,0.3-0.25,0.55-0.55,0.55c-0.31,0-0.55-0.24-0.55-0.55C13.1,16.21,13.35,15.96,13.65,15.96z"/>
</svg>
