<svg xmlns="http://www.w3.org/2000/svg" viewBox="0 0 800 800">
<style type="text/css">
    @import url("/styles/logos-draft.css");
    .d{fill:url(#d);}
</style>

<g class="main">
<defs>
	<pattern id="d" width="6" height="6" patternUnits="userSpaceOnUse" patternTransform="rotate(45 50 50)">
		<line class="h" x1="0" y1="0" x2="0" y2="10"></line>
	</pattern>
  	<linearGradient id="grad1" gradientUnits="userSpaceOnUse" x1="346.784" y1="346.5973" x2="613.4506" y2="346.5973" gradientTransform="matrix(1 0 0 -1 0 800)">
		<stop offset="0" style="stop-color:#95C58B"/>
		<stop offset="0.828" style="stop-color:#177366"/>
		<stop offset="0.9355" style="stop-color:#1D7467"/>
		<stop offset="0.9355" style="stop-color:#227567"/>
	</linearGradient>
		<linearGradient id="grad2" gradientUnits="userSpaceOnUse" x1="399.1704" y1="346.5973" x2="666.6667" y2="346.5973" gradientTransform="matrix(1 0 0 -1 0 800)">
		<stop offset="0" style="stop-color:#95C58B"/>
		<stop offset="0.828" style="stop-color:#177366"/>
		<stop offset="0.9355" style="stop-color:#1D7467"/>
		<stop offset="0.9355" style="stop-color:#227567"/>
	</linearGradient>
	<linearGradient id="grad3" gradientUnits="userSpaceOnUse" x1="1358.6813" y1="346.6" x2="1625.3427" y2="346.6" gradientTransform="matrix(-1 0 0 -1 1811.8973 800)">
		<stop offset="0" style="stop-color:#177366"/>
		<stop offset="1" style="stop-color:#12494D"/>
	</linearGradient>
	<linearGradient id="grad4" gradientUnits="userSpaceOnUse" x1="1411.0656" y1="346.5973" x2="1678.564" y2="346.5973" gradientTransform="matrix(-1 0 0 -1 1811.8973 800)">
		<stop offset="0" style="stop-color:#177366"/>
		<stop offset="1" style="stop-color:#12494D"/>
	</linearGradient>
	<linearGradient id="grad5" gradientUnits="userSpaceOnUse" x1="362.752" y1="282.6213" x2="549.424" y2="282.6213" gradientTransform="matrix(1 0 0 -1 0 800)">
		<stop offset="0" style="stop-color:#177366"/>
		<stop offset="1" style="stop-color:#12494D"/>
	</linearGradient>
	<linearGradient id="grad6" gradientUnits="userSpaceOnUse" x1="399.4198" y1="282.6187" x2="586.6667" y2="282.6187" gradientTransform="matrix(1 0 0 -1 0 800)">
		<stop offset="0" style="stop-color:#177366"/>
		<stop offset="1" style="stop-color:#12494D"/>
	</linearGradient>
	<linearGradient id="grad7" gradientUnits="userSpaceOnUse" x1="1374.644" y1="282.6213" x2="1561.316" y2="282.6213" gradientTransform="matrix(-1 0 0 -1 1811.8973 800)">
		<stop offset="0" style="stop-color:#95C58B"/>
		<stop offset="0.828" style="stop-color:#177366"/>
		<stop offset="0.9355" style="stop-color:#1D7467"/>
		<stop offset="0.9355" style="stop-color:#227567"/>
	</linearGradient>
	<linearGradient id="grad8" gradientUnits="userSpaceOnUse" x1="1411.3149" y1="282.6187" x2="1598.564" y2="282.6187" gradientTransform="matrix(-1 0 0 -1 1811.8973 800)">
		<stop offset="0" style="stop-color:#95C58B"/>
		<stop offset="0.828" style="stop-color:#177366"/>
		<stop offset="0.9355" style="stop-color:#1D7467"/>
		<stop offset="0.9355" style="stop-color:#227567"/>
	</linearGradient>

	<linearGradient id="grad21" gradientUnits="userSpaceOnUse" x1="346.784" y1="346.5973" x2="613.4506" y2="346.5973" gradientTransform="matrix(1 0 0 -1 0 800)">
		<stop offset="0" style="stop-color:var(--draft-color); stop-opacity:0.55"/>
		<stop offset="0.828" style="stop-color:var(--draft-color); stop-opacity:0.55"/>
		<stop offset="0.9355" style="stop-color:var(--draft-color); stop-opacity:1"/>
		<stop offset="0.9355" style="stop-color:var(--draft-color); stop-opacity:1"/>
	</linearGradient>
		<linearGradient id="grad22" gradientUnits="userSpaceOnUse" x1="399.1704" y1="346.5973" x2="666.6667" y2="346.5973" gradientTransform="matrix(1 0 0 -1 0 800)">
		<stop offset="0" style="stop-color:var(--draft-color); stop-opacity:0.55"/>
		<stop offset="0.828" style="stop-color:var(--draft-color); stop-opacity:0.55"/>
		<stop offset="0.9355" style="stop-color:var(--draft-color); stop-opacity:1"/>
		<stop offset="0.9355" style="stop-color:var(--draft-color); stop-opacity:1"/>
	</linearGradient>
	<linearGradient id="grad23" gradientUnits="userSpaceOnUse" x1="1374.644" y1="282.6213" x2="1561.316" y2="282.6213" gradientTransform="matrix(-1 0 0 -1 1811.8973 800)">
		<stop offset="0" style="stop-color:var(--draft-color); stop-opacity:0.55"/>
		<stop offset="0.828" style="stop-color:var(--draft-color); stop-opacity:0.55"/>
		<stop offset="0.9355" style="stop-color:var(--draft-color); stop-opacity:1"/>
		<stop offset="0.9355" style="stop-color:var(--draft-color); stop-opacity:1"/>
	</linearGradient>
	<linearGradient id="grad24" gradientUnits="userSpaceOnUse" x1="1411.3149" y1="282.6187" x2="1598.564" y2="282.6187" gradientTransform="matrix(-1 0 0 -1 1811.8973 800)">
		<stop offset="0" style="stop-color:var(--draft-color); stop-opacity:0.55"/>
		<stop offset="0.828" style="stop-color:var(--draft-color); stop-opacity:0.55"/>
		<stop offset="0.9355" style="stop-color:var(--draft-color); stop-opacity:1"/>
		<stop offset="0.9355" style="stop-color:var(--draft-color); stop-opacity:1"/>
	</linearGradient>

</defs>
	<rect class="bg" width="800" height="800"/>

	<g class="logo">
		<circle fill="#F9B2A2" cx="400" cy="400" r="266.67"/>
		<path fill="url(#grad1)" d="M346.78,506.8c0,59.97,19.8,115.32,53.22,159.87c-0.05-0.33-12.73-84.34,62.79-235.25
			c75.59-151.07,150.52-191.21,150.66-191.28l0,0C466.17,240.13,346.78,359.53,346.78,506.8z"/>
		<path fill="url(#grad2)" d="M666.67,400
			c0-59.97-19.8-115.32-53.22-159.87c-0.14,0.07-75.06,40.22-150.66,191.28C387.27,582.33,399.95,666.34,400,666.67
			c0,0,0,0,0.01,0.01C547.28,666.67,666.67,547.27,666.67,400z"/>
		<path fill="url(#grad3)" d="M453.22,506.8
			c0,59.97-19.8,115.32-53.22,159.87c0.05-0.33,12.73-84.34-62.79-235.25c-75.59-151.07-150.51-191.21-150.65-191.29l0,0
			C333.83,240.13,453.22,359.53,453.22,506.8z"/>
		<path fill="url(#grad3)" d="M133.33,400
			c0-59.97,19.8-115.32,53.22-159.87c0.14,0.07,75.06,40.22,150.66,191.28c75.53,150.92,62.85,234.92,62.79,235.25c0,0,0,0-0.01,0.01
			C252.73,666.67,133.33,547.27,133.33,400z"/>
		<path fill="url(#grad4)" d="M362.75,554.76
			c0,41.98,13.86,80.73,37.25,111.91c-0.04-0.23-8.91-59.03,43.96-164.68c52.92-105.74,105.36-133.85,105.46-133.9l0,0
			C446.32,368.09,362.75,451.66,362.75,554.76z"/>
		<path fill="url(#grad5)" d="M586.67,480
			c0-41.98-13.86-80.73-37.25-111.91c-0.1,0.05-52.54,28.15-105.46,133.9C391.09,607.63,399.97,666.44,400,666.67c0,0,0,0,0,0.01
			C503.09,666.67,586.67,583.09,586.67,480z"/>
		<path fill="url(#grad7)" d="M437.25,554.76
			c0,41.98-13.86,80.73-37.25,111.91c0.04-0.23,8.91-59.03-43.96-164.68c-52.92-105.74-105.36-133.85-105.46-133.9l0,0
			C353.68,368.09,437.25,451.66,437.25,554.76z"/>
		<path fill="url(#grad8)" d="M213.33,480
			c0-41.98,13.86-80.73,37.25-111.91c0.1,0.05,52.54,28.15,105.46,133.9c52.86,105.64,43.99,164.45,43.95,164.68c0,0,0,0,0,0.01
			C296.91,666.67,213.33,583.09,213.33,480z"/>
	</g>
	<g class="logo-draft">
		<path fill="url(#grad21)" d="M346.78,506.8c0,59.97,19.8,115.32,53.22,159.87c-0.05-0.33-12.73-84.34,62.79-235.25
			c75.59-151.07,150.52-191.21,150.66-191.28l0,0C466.17,240.13,346.78,359.53,346.78,506.8z"/>
		<path fill="url(#grad22)" d="M666.67,400
			c0-59.97-19.8-115.32-53.22-159.87c-0.14,0.07-75.06,40.22-150.66,191.28C387.27,582.33,399.95,666.34,400,666.67
			c0,0,0,0,0.01,0.01C547.28,666.67,666.67,547.27,666.67,400z"/>
		<path fill="url(#grad23)" d="M437.25,554.76
			c0,41.98-13.86,80.73-37.25,111.91c0.04-0.23,8.91-59.03-43.96-164.68c-52.92-105.74-105.36-133.85-105.46-133.9l0,0
			C353.68,368.09,437.25,451.66,437.25,554.76z"/>
		<path fill="url(#grad24)" d="M213.33,480
			c0-41.98,13.86-80.73,37.25-111.91c0.1,0.05,52.54,28.15,105.46,133.9c52.86,105.64,43.99,164.45,43.95,164.68c0,0,0,0,0,0.01
			C296.91,666.67,213.33,583.09,213.33,480z"/>
	</g>

	<g class="d">
		<rect x="374.92" y="365.49" width="43.94" height="43.94"/>
		<rect x="418.86" y="398.45" width="43.94" height="43.94"/>
		<rect x="462.79" y="431.41" width="43.94" height="43.94"/>
	</g>
	<g class="mnl">
		<circle cx="400" cy="480.01" r="186.66"/>
		<line x1="400" y1="666.67" x2="613.45" y2="240.13"/>
		<line x1="356.06" y1="644.68" x2="569.51" y2="218.14"/>
		<line x1="374.92" y1="387.44" x2="638.53" y2="519.35"/>
	</g>
	<g class="dl">
		<circle cx="400" cy="400" r="266.67"/>
		<circle cx="613.45" cy="506.79" r="266.67"/>
	</g>
</g>
</svg>