<svg xmlns="http://www.w3.org/2000/svg" viewBox="340 110 1290 970">
<style type="text/css">
    @import url("../../../styles/base-items/const.css");

	.bg{opacity:0}
	.bs{opacity:1}
	.grad{fill:url(#grad);stroke:var(--black);stroke-opacity:.25;stroke-width:.5;}
	.shw{fill:#2C191C;filter:blur(10px);opacity:0.13;}
	
	.img-draft,.img,.bg,.bs,.mjl,.mnl,.dl,.logo{transition:all .5s cubic-bezier(0.75, 0.35, 0.4, 0.99);}
	
	.mjl,.mnl,.dl{opacity:0;stroke-width:1.5;fill:none;stroke:var(--black);stroke-miterlimit:10;}

	.dl{stroke:var(--draft-color);stroke-dasharray:12;animation: tm linear 60s infinite;}

	.card {
		fill:#2C191C;
		opacity: 0;
		animation: fadeCycle 26s infinite;
	}

	.card-1 { animation-delay: 0s; }
	.card-2 { animation-delay: 2s; }
	.card-3 { animation-delay: 4s; }
	.card-4 { animation-delay: 6s; }
	.card-5 { animation-delay: 8s; }
	.card-6 { animation-delay: 10s; }
	.card-7 { animation-delay: 12s; }
	.card-8 { animation-delay: 14s; }
	.card-9 { animation-delay: 16s; }
	.card-10 { animation-delay: 18s; }
	.card-11 { animation-delay: 20s; }
	.card-12 { animation-delay: 22s; }
	.card-13 { animation-delay: 24s; }

	@keyframes fadeCycle {
		0% { opacity: 0; }
		0.7692% { opacity: 1; }
		6.9231% { opacity: 1; }
		7.6923% { opacity: 0; }
		100% { opacity: 0; }
	}

	.logo{opacity:1;}

	.main:hover{
		.bs{opacity:0;}
		.mjl{opacity:0.5;}
		.mnl{opacity:0.13;}
		.dl{opacity:0.13;}
		.logo{opacity:0.5;}
		.card {fill:var(--black);}
	}

	@keyframes tm {0%{stroke-dashoffset:0;}100%{stroke-dashoffset:2000;}}
</style>

<defs>
	<linearGradient id="grad" gradientUnits="userSpaceOnUse" x1="448.9368" y1="76.3891" x2="704.4977" y2="508.003" gradientTransform="matrix(0.9596 -0.2813 0.2813 0.9596 -79.4452 214.6346)">
		<stop offset="0" style="stop-color:#FAFAFA" />
		<stop offset="1" style="stop-color:#EAEAEA" />
	</linearGradient>
</defs>

<!-- <rect x="0" y="0" width="2000" height="2000" /> -->

<g class="main">
<polyline class="bg" points="370,1080 370,140 1603.1,140 1603.1,1080 "/>
<polyline class="dl" points="370,1080 370,140 1603.1,140 1603.1,1080 "/>

<path class="shw" d="M370,1080V321.9C370,221.4,451.4,140,551.9,140h869.3c100.5,0,181.9,81.5,181.9,181.9V1080"/>
<path fill="#FFFFFF" d="M370,1080V321.9C370,221.4,451.4,140,551.9,140h869.3c100.5,0,181.9,81.5,181.9,181.9V1080"/>
<path class="grad" d="M370,1080V321.9C370,221.4,451.4,140,551.9,140h869.3c100.5,0,181.9,81.5,181.9,181.9V1080"/>
<path class="bs" fill="#E7E6D0" d="M491.2,1080V321.9c0-33.5,27.1-60.6,60.6-60.6h869.3c33.5,0,60.7,27.1,60.7,60.6V1080"/>

<g class="mjl">
	<polyline points="491.2,1080 491.2,261.3 1481.8,261.3 1481.8,1080" />
	<rect x="551.9" y="321.9" width="166.2" height="198.6" />
</g>

<g class="mnl">
	<polyline points="551.9,1080 551.9,321.9 1421.2,321.9 1421.2,1080" />
	<line x1="1421.2" y1="403.4" x2="718.1" y2="403.4" />
	<line x1="718.1" y1="471.3" x2="551.9" y2="471.3" />
</g>

<g class="logo">
	<g class="card card-1">
		<path d="M598.3,775.3h20.6v7.5l-12.4,1.3V814l12.4,1.3v7.5h-20.6V819c-3.9-3.7-9.5-4.7-29.7-7.3l-16.4-2V780h46.1
			L598.3,775.3L598.3,775.3z M560.2,790.2v10.7l8.1,0.9c19.4,2.1,25.9,3.7,30,8.9v-20.4L560.2,790.2L560.2,790.2z"/>
		<path d="M552.3,728h54.2v10.4h-46.1v13.8l20.6,2.3c18.4,2.1,23.8,5.1,26.6,15.6l-7.6,2.4c-2.2-5.7-5.7-6.5-19.1-8.1
			l-28.7-3.4L552.3,728L552.3,728z"/>
		<path d="M606.5,675.2v10.3h-23.1c-9,0-16.1-0.9-20.5-1.5l43.5,18.4v12.8h-54.2V705h23.3c9.8,0,15.3,0.8,20.2,1.5
			l-43.5-18.8v-12.5L606.5,675.2L606.5,675.2z"/>
		<path d="M582.2,632.9v19.3h24.2v10.4h-54.2v-10.4H574v-19.3h-21.7v-10.4h54.2v10.4H582.2z"/>
		<path d="M593.9,584.5v18l12.6,3.4v10.8l-54.2-16.9v-12.8l54.2-16.8v11L593.9,584.5z M586.1,586.6l-25.9,6.9l25.9,6.9
			V586.6z"/>
		<path d="M601.3,433.8h55.4l-5.1,37.4h-99.7V322h49.4L601.3,433.8L601.3,433.8z"/>
		<path d="M1420.9,403.4h-6.8l-3.2-36.1c-0.6-6.8-0.8-12.2-0.9-18.8l-17.3,47.2h-6.5l-16.8-47.2
			c-0.1,5.9-0.4,12.2-0.8,18.8l-3,36.1h-6.6l5.4-61.9h8.8l16.3,47.2l16.9-47.2h8.9L1420.9,403.4z"/>
	</g>
</g>

<g class="logo">
	<g class="card card-2">
		<path d="M579.3,775.2c17.9,0,28.3,9.2,28.3,23.7s-10.1,23.8-28.2,23.8c-17.8,0-28.3-9.3-28.3-23.8
			S561.2,775.2,579.3,775.2z M579.4,811.7c14.6,0,20.3-4.9,20.3-12.9c0-8.1-5.7-12.8-20.4-12.8c-14.5,0-20.3,4.6-20.3,12.8
			C559,807,564.8,811.7,579.4,811.7z"/>
		<path d="M588.8,727.5c12.4,0,17.7,8.9,17.7,21.2v16.8h-54.2v-31.8l8.1,1.1v20.4H572v-6.4
			C572,735.5,577.5,727.5,588.8,727.5z M589,738.4c-6.6,0-9.4,3.8-9.4,10.8v5.9h19.2V749C598.7,742.6,596.4,738.4,589,738.4z"/>
		<path d="M588.5,674.9c12.7,0,18,8.9,18,21.2v16.8h-46.1l0.1,0.1v14.6h-8.2v-25h19.2v-6.4
			C571.4,682.9,576.9,674.9,588.5,674.9z M588.7,685.8c-6.9,0-9.7,3.8-9.7,10.8v5.9h19.8v-6.1C598.7,690.1,596.4,685.8,588.7,685.8z
			"/>
		<path d="M540.4,637c3.1,0,5.4,2.3,5.4,5.5c0,3.1-2.3,5.5-5.4,5.5c-3.1,0-5.4-2.4-5.4-5.5
			C535,639.3,537.4,637,540.4,637z M540.4,654.4c3.1,0,5.4,2.3,5.4,5.4c0,3.1-2.3,5.6-5.4,5.6c-3.1,0-5.4-2.4-5.4-5.6
			C535,656.7,537.4,654.4,540.4,654.4z M560,636.6v20h15.2v-17.4h7.7v17.4h15.9v-21.4h7.8V667h-54.2v-31.5L560,636.6z"/>
		<path d="M606.5,574v10.1l-22.7,1.4c-8,0.5-16.4,0.9-22.1,0.7l38.9,9.9v9.8l-39,10.5c7.3-0.3,14.8-0.2,22.5,0.3
			l22.4,1.3v10l-54.2-4.3v-13.3l38-9.7l-38-9.1v-13.5L606.5,574z"/>

		<path d="M1380.5,403.4h-6.8l-3.2-36.1c-0.6-6.8-0.8-12.2-0.9-18.8l-17.3,47.2h-6.5l-16.8-47.2
			c-0.1,5.9-0.4,12.2-0.8,18.8l-3,36.1h-6.6l5.4-61.9h8.8l16.3,47.2l16.9-47.2h8.9L1380.5,403.4z"/>
		<path d="M1420,346.4c0,5.1-3.4,8.4-8.3,9.4c5.2,0.3,9.4,3.7,9.4,10c0,7-5.3,12.1-14,12.1c-5.2,0-9.3-1.9-12.5-5.4
			l3-2.7c2.9,3,5.9,4.1,9.2,4.1c5.9,0,9.1-3.3,9.1-8.1c0-5.6-3.5-7.8-8.8-7.8h-2.9l0.7-3.8h1.9c4.2,0,8.2-2.2,8.2-7.3
			c0-4.2-3-6.6-7.5-6.6c-3.5,0-6.1,1.1-9.2,3.7l-2.6-3c3.5-3,7.2-4.7,12.1-4.7C1415.4,336.3,1420,340.5,1420,346.4z"/>
		<path d="M655.3,471.5h-64.8l-38.3-149.3h52l19.5,116.8l16.5-116.8h50.7L655.3,471.5z"/>
	</g>
</g>

<g class="logo">
	<g class="card card-3">
		<path d="M718,386.3v85.1h-47.5v-76.2c0-7.3-1.5-8.8-3.4-8.8c-2.1,0-6,2.6-8.3,9.4v75.5h-47.5v-76.2
			c0-7.3-1.5-8.8-3.6-8.8s-5.8,2.6-8.3,9.4v75.5h-47.5V356.8h41.5l3.2,10.7c9.8-11.1,20.1-15.2,33.4-15.2c11.3,0,20.3,5.4,25.2,15.6
			c9.8-11.5,20.3-15.6,34.2-15.6C706.3,352.3,718,364.5,718,386.3z"/>
		<path d="M606.5,752.3v10.1l-22.7,1.4c-8,0.5-16.4,0.9-22.1,0.7l38.9,9.9v9.8l-39,10.5c7.3-0.3,14.8-0.2,22.5,0.3
			l22.4,1.3v10l-54.2-4.3v-13.3l38-9.7l-38-9.1v-13.5L606.5,752.3z"/>
		<path d="M593.9,717v18l12.6,3.4V749l-54.2-16.9v-12.8l54.2-16.8v11L593.9,717z M586.1,719.1l-25.9,6.9l25.9,6.9V719.1
			z"/>
		<path d="M556.8,660.8l6.1,5.3c-2.5,3.1-3.8,6.3-3.8,10c0,7.5,5.5,13.3,20.2,13.3c14.3,0,20.1-5.7,20.1-13.3
			c0-4.7-2-7.9-4.4-11.1l6.1-4.9c3.4,3.3,6.6,9,6.6,16.3c0,14-10,23.8-28.4,23.8c-18.2,0-28.2-10.4-28.2-23.7
			C551.1,669.7,553.1,665.3,556.8,660.8z"/>
		<path d="M556.8,617.8l6.1,5.3c-2.5,3.1-3.8,6.3-3.8,10c0,7.5,5.5,13.3,20.2,13.3c14.3,0,20.1-5.7,20.1-13.3
			c0-4.7-2-7.9-4.4-11.1l6.1-4.9c3.4,3.3,6.6,9,6.6,16.3c0,14-10,23.8-28.4,23.8c-18.2,0-28.2-10.4-28.2-23.7
			C551.1,626.8,553.1,622.3,556.8,617.8z"/>
		<path d="M593.9,584.5v18l12.6,3.4v10.8l-54.2-16.9v-12.8l54.2-16.8v11L593.9,584.5z M586.1,586.6l-25.9,6.9l25.9,6.9
			V586.6z"/>
		<path d="M1360.7,376.1l18.3,27.2h-6.6l-16.5-24.7h-7.6v24.7h-5.6v-50.7h5.6v21.5h7.7l14.3-21.5h6.2L1360.7,376.1z"/>
		<path d="M1391.1,403.4v-50.7h30l-0.7,4.9h-23.7v45.9H1391.1z"/>
	</g>
</g>

<g class="logo">
	<g class="card card-4">
		<path d="M590.9,770.1c11.9,0,15.6,9.5,15.6,22.7v16.3h-54.2v-14.2c0-14,3.9-22.4,13.8-22.4c6.8,0,10.6,4.9,11.7,10
			C578.9,776.3,581.8,770.1,590.9,770.1z M559.9,798.7h14.7v-6.3c0-5.7-2.5-9.3-7.6-9.3c-5.5,0-7.1,3.8-7.1,10.8V798.7z
				M590.5,780.9c-6.5,0-8.7,4.6-8.7,10.7v7.1h17v-6C598.7,785.8,597.3,780.9,590.5,780.9z"/>
		<path d="M569.5,723c12.5,0,18,9,18,21.3v6.3h18.9V761h-54.2v-16C552.3,731.3,557.8,723,569.5,723z M569.5,733.8
			c-6.8,0-9.7,4.2-9.7,11.2v5.6h19.9V745C579.8,738.1,577.5,733.8,569.5,733.8z"/>
		<path d="M560,684.2v20h15.2v-17.4h7.7v17.4h15.9v-21.4h7.8v31.8h-54.2v-31.5L560,684.2z"/>
		<path d="M606.5,621.6v10.1l-22.7,1.4c-8,0.5-16.4,0.9-22.1,0.7l38.9,9.9v9.8l-39,10.5c7.3-0.3,14.8-0.2,22.5,0.3
			l22.4,1.3v10l-54.2-4.3v-13.3l38-9.7l-38-9.1v-13.5L606.5,621.6z"/>
		<path d="M552.3,576.8h54.2v10.4h-20.3v8.5l20.3,9.7v11.5l-22.2-11.7c-2.7,6.5-7.7,10-15,10c-11,0-17-7.3-17-21.6
			L552.3,576.8L552.3,576.8z M578.5,587.1h-18.8v5.9c0,7.8,3.3,11.1,9.7,11.1c6.2,0,9.1-3.9,9.1-9.4V587.1z"/>
		<path d="M644.7,465.7c-9.8,6.9-25.2,10.3-36.2,10.3c-30.8-0.2-44.1-17.5-44.1-49.6v-37.9h-12.2v-31.9h12.2v-23.5
			l47.5-5.6v29.1h25.5l-4.7,31.9H612v37.4c0,10.5,3.6,13,7.9,13c3,0,6.4-0.6,9.8-2.6L644.7,465.7z"/>
		<path d="M1420.6,356.7l-2.8,3.7c-3.3-2.6-6.6-4-11.2-4c-9.2,0-15.7,7.2-15.7,21.8c0,14.5,6.4,21.2,15.6,21.2
			c4.8,0,8.1-1.5,11.7-4.3l2.7,3.8c-4,3.4-8.8,5.4-14.5,5.4c-13,0-21.5-9.6-21.5-26.1c0-16.3,8.4-26.8,21.4-26.8
			C1412,351.6,1416.3,353,1420.6,356.7z"/>
	</g>
</g>

<g class="logo">
	<g class="card card-5">
		<path d="M556.8,904.5l6.1,5.3c-2.5,3.1-3.8,6.3-3.8,10c0,7.5,5.5,13.3,20.2,13.3c14.3,0,20.1-5.7,20.1-13.3
			c0-4.7-2-7.9-4.4-11.1l6.1-4.9c3.4,3.3,6.6,9,6.6,16.3c0,14-10,23.8-28.4,23.8c-18.2,0-28.2-10.4-28.2-23.7
			C551.1,913.5,553.1,909,556.8,904.5z"/>
		<path d="M577.2,871l29.3-15.6V867l-24.4,12.7v6.5h24.4v10.4h-54.2v-10.4h21.9v-6.7l-21.9-12.2v-10.5L577.2,871z"/>
		<path d="M579.3,805.6c17.9,0,28.3,9.2,28.3,23.7s-10.1,23.8-28.2,23.8c-17.8,0-28.3-9.3-28.3-23.8
			S561.2,805.6,579.3,805.6z M579.4,842.2c14.6,0,20.3-4.9,20.3-12.9c0-8.1-5.7-12.8-20.4-12.8c-14.5,0-20.3,4.6-20.3,12.8
			C559,837.4,564.8,842.2,579.4,842.2z"/>
		<path d="M569.5,757.9c12.5,0,18,9,18,21.3v6.3h18.9v10.4h-54.2v-16C552.3,766.2,557.8,757.9,569.5,757.9z
				M569.5,768.7c-6.8,0-9.7,4.2-9.7,11.2v5.6h19.9V780C579.8,773,577.5,768.7,569.5,768.7z"/>
		<path d="M579.3,705c17.9,0,28.3,9.2,28.3,23.7s-10.1,23.8-28.2,23.8c-17.8,0-28.3-9.3-28.3-23.8S561.2,705,579.3,705z
				M579.4,741.6c14.6,0,20.3-4.9,20.3-12.9c0-8.1-5.7-12.8-20.4-12.8c-14.5,0-20.3,4.6-20.3,12.8C559,736.8,564.8,741.6,579.4,741.6
			z"/>
		<path d="M556.8,658.8l6.1,5.3c-2.5,3.1-3.8,6.3-3.8,10c0,7.5,5.5,13.3,20.2,13.3c14.3,0,20.1-5.7,20.1-13.3
			c0-4.7-2-7.9-4.4-11.1l6.1-4.9c3.4,3.3,6.6,9,6.6,16.3c0,14-10,23.8-28.4,23.8c-18.2,0-28.2-10.4-28.2-23.7
			C551.1,667.7,553.1,663.2,556.8,658.8z"/>
		<path d="M560.5,617.8v14.1h46v10.4h-46V657h-8.2v-40.2L560.5,617.8z"/>
		<path d="M588.5,572c12.7,0,18,8.9,18,21.2V610h-54.2v-10.4h19.2v-6.4C571.4,580,576.9,572,588.5,572z M588.7,582.9
			c-6.9,0-9.7,3.8-9.7,10.8v5.9h19.8v-6.1C598.7,587.1,596.4,582.9,588.7,582.9z"/>
		<path d="M646.5,471.3h-62.5l-31.9-122.6h49.6l13.9,93.3l11.5-93.3h48.3L646.5,471.3z"/>
		<path d="M1305.8,403.4h-6.8l-3.2-36.1c-0.6-6.8-0.8-12.2-0.9-18.8l-17.3,47.2h-6.5l-16.8-47.2
			c-0.1,5.9-0.4,12.2-0.8,18.8l-3,36.1h-6.6l5.4-61.9h8.8l16.3,47.2l16.9-47.2h8.9L1305.8,403.4z"/>
		<path d="M1361.4,309.9l-27.5,105.4l-5.9-1.5l27.5-105.4L1361.4,309.9z"/>
		<path d="M1420.8,346.4l-3.4,4.5c-4-3.2-8.1-4.9-13.7-4.9c-11.2,0-19.2,8.8-19.2,26.6c0,17.8,7.8,25.9,19.1,25.9
			c5.8,0,9.9-1.9,14.3-5.2l3.3,4.6c-4.8,4.1-10.8,6.6-17.8,6.6c-15.9,0-26.3-11.7-26.3-31.9c0-19.9,10.3-32.7,26.2-32.7
			C1410.2,340.1,1415.6,341.9,1420.8,346.4z"/>
	</g>
</g>

<g class="logo">
	<g class="card card-6">
		<path d="M591,963.9c11.7,4.5,15.3,9.8,16.6,21l-7.2,1.4c-1.1-7-3-10.1-8.5-12.5v3.5l-39.6,17v-10.8l33.6-12.8
			l-33.6-11.3v-10.6L591,963.9z"/>
		<path d="M556.8,907.7l6.1,5.2c-2.5,3.1-3.8,6.4-3.8,10c0,7.5,5.5,13.3,20.2,13.3c14.3,0,20.1-5.7,20.1-13.3
			c0-4.7-2-7.9-4.4-11.1l6.1-4.9c3.4,3.3,6.6,8.9,6.6,16.3c0,14-10,23.8-28.4,23.8c-18.2,0-28.2-10.4-28.2-23.7
			C551.1,916.6,553.1,912.1,556.8,907.7z"/>
		<path d="M577.2,874.1l29.3-15.6v11.6l-24.4,12.7v6.5h24.4v10.4h-54.2v-10.4h21.9v-6.7l-21.9-12.2v-10.5L577.2,874.1z"
			/>
		<path d="M579.3,808.7c17.9,0,28.3,9.2,28.3,23.7s-10.1,23.8-28.2,23.8c-17.8,0-28.3-9.3-28.3-23.8
			S561.2,808.7,579.3,808.7z M579.4,845.3c14.6,0,20.3-4.9,20.3-12.9c0-8.1-5.7-12.8-20.4-12.8c-14.5,0-20.3,4.6-20.3,12.8
			C559,840.5,564.8,845.3,579.4,845.3z"/>
		<path d="M569.5,761c12.5,0,18,9,18,21.3v6.4h18.9V799h-54.2v-16C552.3,769.4,557.8,761,569.5,761z M569.5,771.9
			c-6.8,0-9.7,4.2-9.7,11.2v5.6h19.9v-5.6C579.8,776.2,577.5,771.9,569.5,771.9z"/>
		<path d="M560,722.3v20h15.2v-17.4h7.7v17.4h15.9v-21.4h7.8v31.8h-54.2v-31.5L560,722.3z"/>
		<path d="M582.2,681.4v19.3h24.2v10.4h-54.2v-10.4H574v-19.3h-21.7V671h54.2v10.4H582.2z"/>
		<path d="M606.5,618.3v10.3h-23.1c-9,0-16.1-0.9-20.5-1.5l43.5,18.4v12.8h-54.2v-10.3h23.3c9.8,0,15.3,0.8,20.2,1.5
			l-43.5-18.8v-12.5H606.5z"/>
		<path d="M560,575.3v20h15.2v-17.4h7.7v17.4h15.9v-21.4h7.8v31.8h-54.2v-31.5L560,575.3z"/>
		<path d="M1269.7,403.4h-6.8l-3.2-36.1c-0.6-6.8-0.8-12.2-0.9-18.8l-17.3,47.2h-6.5l-16.8-47.2
			c-0.1,5.9-0.3,12.2-0.8,18.8l-3,36.1h-6.6l5.4-61.9h8.8l16.3,47.2l16.9-47.2h8.9L1269.7,403.4z"/>
		<path d="M1325.2,309.9l-27.5,105.4l-5.9-1.5l27.5-105.4L1325.2,309.9z"/>
		<path d="M1384.6,346.4l-3.4,4.5c-4-3.2-8.1-4.9-13.7-4.9c-11.2,0-19.2,8.8-19.2,26.6c0,17.8,7.8,25.9,19.1,25.9
			c5.8,0,9.9-1.9,14.3-5.2l3.3,4.6c-4.9,4.1-10.8,6.6-17.8,6.6c-15.9,0-26.3-11.7-26.3-31.9c0-19.9,10.3-32.7,26.2-32.7
			C1374.1,340.1,1379.4,341.9,1384.6,346.4z"/>
		<path d="M1420.1,347.3c0,7.5-4.4,12.2-18.1,25.6h19.3l-0.7,4.2h-24.4v-4c15.3-15.2,18.8-19.2,18.8-25.4
			c0-4.6-2.9-7.2-7.4-7.2c-3.9,0-6.5,1.5-8.9,4.4l-3.4-2.5c3.5-4.1,7.5-6,12.7-6C1415.6,336.4,1420.1,341.1,1420.1,347.3z"/>
		<path d="M679.3,442.4L666,476c-17.5-2.1-28.7-7.5-35.5-17.3c-8.1,9.4-19.2,17.3-34.2,17.3c-30,0-44.1-24.6-44.1-62.9
			c0-35.7,18.6-61,49-61c8.8,0,18.4,3,25.9,11.3l1.9-6.9h41.7v68.5C670.7,434.3,672.7,438.8,679.3,442.4z M623.2,433.8v-43.4
			c-3.2-3.2-6-4.9-10.1-4.9c-7.1,0-12.6,6.4-12.6,28.2c0,26.7,6.2,28.5,11.1,28.5C615.5,442.2,619.8,439.8,623.2,433.8z"/>
	</g>
</g>

<g class="logo">
	<g class="card card-7">
		<path d="M606.5,874.2v10.3h-23.1c-9,0-16.1-0.9-20.5-1.5l43.5,18.4v12.8h-54.2V904h23.3c9.8,0,15.3,0.8,20.2,1.5
			l-43.5-18.8v-12.5H606.5z"/>
		<path d="M606.5,810.2v10.1l-22.7,1.4c-8,0.5-16.4,0.9-22.1,0.7l38.9,9.9v9.8l-39,10.5c7.3-0.3,14.8-0.2,22.5,0.3
			l22.4,1.3v10l-54.2-4.3v-13.3l38-9.7l-38-9.1v-13.5L606.5,810.2z"/>
		<path d="M606.5,760.4v10.4h-46v19.1h46v10.4h-54.2v-39.8L606.5,760.4L606.5,760.4z"/>
		<path d="M591,724.2c11.7,4.5,15.3,9.8,16.6,21l-7.2,1.4c-1.1-7-3-10.1-8.5-12.5v3.5l-39.6,17v-10.8l33.6-12.8
			l-33.6-11.3v-10.6L591,724.2z"/>
		<path d="M552.3,667.2h54.2v10.4h-46.1v13.8l20.6,2.3c18.4,2.1,23.8,5.1,26.6,15.6l-7.6,2.4c-2.2-5.7-5.7-6.5-19.1-8.1
			l-28.7-3.4L552.3,667.2L552.3,667.2z"/>
		<path d="M588.5,616.5c12.7,0,18,8.9,18,21.2v16.8h-54.2v-10.4h19.2v-6.4C571.4,624.5,576.9,616.5,588.5,616.5z
				M588.7,627.5c-6.9,0-9.7,3.8-9.7,10.8v5.9h19.8V638C598.7,631.7,596.4,627.5,588.7,627.5z"/>
		<path d="M556.8,572.1l6.1,5.3c-2.5,3.1-3.8,6.3-3.8,10c0,7.5,5.5,13.3,20.2,13.3c14.3,0,20.1-5.7,20.1-13.3
			c0-4.7-2-7.9-4.4-11.1l6.1-4.9c3.4,3.3,6.6,8.9,6.6,16.3c0,14-10,23.8-28.4,23.8c-18.2,0-28.2-10.4-28.2-23.7
			C551.1,581,553.1,576.5,556.8,572.1z"/>
		<path d="M1141.7,370.1l22.4,33.3h-8.1l-20.1-30.2h-9.2v30.2h-6.9v-61.9h6.9v26.3h9.3l17.5-26.3h7.6L1141.7,370.1z"/>
		<path d="M1178.8,403.4v-61.9h36.6l-0.8,5.9h-28.9v56L1178.8,403.4L1178.8,403.4z"/>
		<path d="M1228.9,365.6c0,3.2-2.2,5.7-5.7,5.7c-3.2,0-5.7-2.5-5.7-5.7c0-3.1,2.5-5.6,5.7-5.6
			C1226.6,360,1228.9,362.5,1228.9,365.6z"/>
		<path d="M1305.5,403.4h-6.8l-3.2-36.1c-0.6-6.7-0.8-12.2-0.9-18.8l-17.3,47.2h-6.5l-16.8-47.2
			c-0.1,5.9-0.4,12.2-0.8,18.8l-3,36.1h-6.6l5.4-61.9h8.8l16.3,47.2l16.9-47.2h8.9L1305.5,403.4z"/>
		<path d="M1361,309.8l-27.5,105.4l-5.9-1.5l27.5-105.4L1361,309.8z"/>
		<path d="M1420.4,346.4l-3.4,4.5c-4-3.2-8.1-4.9-13.7-4.9c-11.2,0-19.2,8.8-19.2,26.6c0,17.8,7.8,25.9,19.1,25.9
			c5.8,0,9.9-1.9,14.3-5.2l3.3,4.6c-4.8,4.1-10.8,6.6-17.8,6.6c-15.9,0-26.3-11.7-26.3-31.8c0-19.9,10.3-32.7,26.2-32.7
			C1409.9,340.1,1415.2,341.9,1420.4,346.4z"/>
		<path d="M671.3,413.5c0,35.7-18.8,62.5-45.8,62.5c-10.5,0-19-3.9-25.9-11.3v51.1l-47.5,4.7V356.6h42.4l1.7,10.5
			c10-12.2,22.5-15,32.1-15C657,352.1,671.3,375.4,671.3,413.5z M623,414.4c0-27.4-5.6-28.7-11.1-28.7c-4.1,0-8.3,1.9-12.2,8.8v41.7
			c3.2,4.9,6,6.4,9.8,6.4C617,442.6,623,436,623,414.4z"/>
	</g>
</g>

<g class="logo">
	<g class="card card-8">
		<path d="M556.8,722.1l6.1,5.3c-2.5,3.1-3.8,6.3-3.8,10c0,7.5,5.5,13.3,20.2,13.3c14.3,0,20.1-5.7,20.1-13.3
			c0-4.7-2-7.9-4.4-11.1l6.1-4.9c3.4,3.3,6.6,8.9,6.6,16.3c0,14-10,23.8-28.4,23.8c-18.2,0-28.2-10.4-28.2-23.7
			C551.1,731,553.1,726.5,556.8,722.1z"/>
		<path d="M606.5,674v10.3h-23.1c-9,0-16.1-0.9-20.5-1.5l43.5,18.4v12.8h-54.2v-10.3h23.3c9.8,0,15.3,0.8,20.2,1.5
			l-43.5-18.8V674L606.5,674L606.5,674z"/>
		<path d="M552.3,622.5h54.2v10.4h-46.1v13.8l20.6,2.3c18.4,2.1,23.8,5.1,26.6,15.6l-7.6,2.4c-2.2-5.7-5.7-6.5-19.1-8.1
			l-28.7-3.4L552.3,622.5L552.3,622.5z"/>
		<path d="M593.9,584.5v18l12.6,3.4v10.8l-54.2-16.9v-12.8l54.2-16.8v11L593.9,584.5z M586.1,586.6l-25.9,6.9l25.9,6.9
			V586.6z"/>
		<path d="M552.3,322h98.2l-4.9,34h-43.8v28.5h38.7v33.8h-38.7v53h-49.4L552.3,322L552.3,322z"/>
		<path d="M1250.1,363.7h-38.8v39.7h-7.1v-81.1h7.1v35.4h38.8v-35.4h7.1v81.1h-7.1V363.7z"/>
		<path d="M1318.5,337.7l12.1,18h-4.4l-10.9-16.4h-5v16.4h-3.7v-33.6h3.7v14.3h5.1l9.5-14.3h4.1L1318.5,337.7z"/>
		<path d="M1338.7,355.7v-33.6h19.8l-0.4,3.2h-15.7v30.4H1338.7z"/>
		<path d="M1365.8,335.2c0,1.7-1.2,3.1-3.1,3.1c-1.7,0-3.1-1.3-3.1-3.1c0-1.7,1.3-3,3.1-3
			C1364.6,332.2,1365.8,333.6,1365.8,335.2z"/>
		<path d="M1407.4,355.7h-3.7l-1.7-19.6c-0.3-3.7-0.4-6.6-0.5-10.2l-9.4,25.6h-3.5l-9.1-25.6c-0.1,3.2-0.2,6.6-0.4,10.2
			l-1.6,19.6h-3.6l2.9-33.6h4.8l8.9,25.6l9.2-25.6h4.8L1407.4,355.7z"/>
		<rect x="1290.4" y="361" width="130.7" height="2.9"/>
		<path d="M1358.6,372.5l-1.9,2.4c-2.2-1.7-4.4-2.6-7.4-2.6c-6.1,0-10.4,4.8-10.4,14.4c0,9.6,4.2,14.1,10.3,14.1
			c3.2,0,5.4-1,7.8-2.8l1.8,2.5c-2.6,2.2-5.8,3.6-9.6,3.6c-8.6,0-14.3-6.4-14.3-17.3c0-10.8,5.6-17.7,14.2-17.7
			C1352.8,369.1,1355.7,370.1,1358.6,372.5z"/>
		<path d="M1376.9,374.5c0,3.9-2.2,6.3-9.3,13.2h9.9l-0.3,2.1h-12.6v-2c7.9-7.8,9.7-9.9,9.7-13.1c0-2.4-1.5-3.7-3.8-3.7
			c-2,0-3.3,0.8-4.6,2.3l-1.8-1.3c1.8-2.1,3.8-3.1,6.6-3.1C1374.6,368.9,1376.9,371.3,1376.9,374.5z"/>
	</g>
</g>

<g class="logo">
	<g class="card card-9">
		<path d="M606.5,959.5v10.4h-46v19.1h46v10.4h-54.2v-39.8L606.5,959.5L606.5,959.5z"/>
		<path d="M552.3,908h54.2v10.4h-46.1v13.8l20.6,2.3c18.4,2.1,23.8,5.1,26.6,15.6l-7.6,2.4c-2.2-5.7-5.7-6.5-19.1-8.1
			l-28.7-3.4L552.3,908L552.3,908z"/>
		<path d="M579.3,850.8c17.9,0,28.3,9.2,28.3,23.7s-10.1,23.8-28.2,23.8c-17.8,0-28.3-9.3-28.3-23.8
			C551.1,860,561.2,850.8,579.3,850.8z M579.4,887.3c14.6,0,20.3-4.9,20.3-12.9c0-8.1-5.7-12.8-20.4-12.8
			c-14.5,0-20.3,4.6-20.3,12.8C559,882.6,564.8,887.3,579.4,887.3z"/>
		<path d="M560.5,810.1v14.1h46v10.4h-46v14.6h-8.2V809L560.5,810.1z"/>
		<path d="M582.2,772.6v19.3h24.2v10.4h-54.2v-10.4H574v-19.3h-21.7v-10.4h54.2v10.4H582.2z"/>
		<path d="M579.3,705c17.9,0,28.3,9.2,28.3,23.7s-10.1,23.8-28.2,23.8c-17.8,0-28.3-9.3-28.3-23.8S561.2,705,579.3,705z
				M579.4,741.6c14.6,0,20.3-4.9,20.3-12.9c0-8.1-5.7-12.8-20.4-12.8c-14.5,0-20.3,4.6-20.3,12.8C559,736.8,564.8,741.6,579.4,741.6
			z"/>
		<path d="M556.8,658.8l6.1,5.3c-2.5,3.1-3.8,6.3-3.8,10c0,7.5,5.5,13.3,20.2,13.3c14.3,0,20.1-5.7,20.1-13.3
			c0-4.7-2-7.9-4.4-11.1l6.1-4.9c3.4,3.3,6.6,8.9,6.6,16.3c0,14-10,23.8-28.4,23.8c-18.2,0-28.2-10.4-28.2-23.7
			C551.1,667.7,553.1,663.2,556.8,658.8z"/>
		<path d="M560.5,617.8v14.1h46v10.4h-46V657h-8.2v-40.2L560.5,617.8z"/>
		<path d="M588.5,572c12.7,0,18,8.9,18,21.2V610h-54.2v-10.4h19.2v-6.4C571.4,580,576.9,572,588.5,572z M588.7,582.9
			c-6.9,0-9.7,3.8-9.7,10.8v5.9h19.8v-6.1C598.7,587.1,596.4,582.9,588.7,582.9z"/>
		<path d="M1180.1,370.1l22.4,33.3h-8.1l-20.1-30.2h-9.2v30.2h-6.9v-61.9h6.9v26.3h9.3l17.5-26.3h7.6L1180.1,370.1z"/>
		<path d="M1217.3,403.4v-61.9h36.6l-0.8,5.9h-28.9v56L1217.3,403.4L1217.3,403.4z"/>
		<path d="M1296.4,309.8l-27.5,105.4l-5.9-1.5l27.5-105.4L1296.4,309.8z"/>
		<path d="M1380.4,403.4h-6.8l-3.2-36.1c-0.6-6.8-0.8-12.2-0.9-18.8l-17.3,47.2h-6.5l-16.8-47.2
			c-0.1,5.9-0.4,12.2-0.8,18.8l-3,36.1h-6.6l5.4-61.9h8.8l16.3,47.2l16.9-47.2h8.9L1380.4,403.4z"/>
		<path d="M1420,346.4c0,5.1-3.4,8.4-8.3,9.4c5.2,0.3,9.4,3.7,9.4,10c0,7-5.3,12.1-14,12.1c-5.2,0-9.3-1.9-12.5-5.4
			l3-2.7c2.9,3,5.9,4.1,9.2,4.1c5.9,0,9.1-3.3,9.1-8.1c0-5.6-3.5-7.8-8.8-7.8h-2.9l0.7-3.8h1.9c4.2,0,8.2-2.2,8.2-7.3
			c0-4.2-3-6.6-7.5-6.6c-3.5,0-6.1,1.1-9.2,3.7l-2.6-3c3.5-3,7.2-4.7,12.1-4.7C1415.3,336.3,1420,340.5,1420,346.4z"/>
		<path d="M671.2,413.5c0,36.4-18.8,62.5-45.8,62.5c-9.6,0-18.2-3.2-25.9-12.8v52.6l-47.5,4.7V411.8
			c0-37.4,18.4-59.7,58.8-59.7C649.2,352.1,671.2,372.4,671.2,413.5z M622.9,414.4c0-26.1-6-28.9-12-28.9c-8.1,0-11.3,6.9-11.3,29.1
			v20.3c3.4,6,6.2,7.7,10.9,7.7C617.1,442.6,622.9,436.2,622.9,414.4z"/>
	</g>
</g>

<g class="logo">
	<g class="card card-10">
		<path d="M579,854.7c18.7,0,28.6,8.3,28.6,22c0,7.4-2.6,12.2-6.1,15.9l-6-4.9c2.3-3,3.9-5.8,3.9-10.5
			c0-7.2-5.1-11.4-17-11.8V885h-7.7v-19.5c-11.7,0.5-15.8,4.9-15.8,10.8c0,4.5,1.3,7.3,3.9,10.8l-6,5.1c-3.7-4.4-5.9-9.2-5.9-16.4
			C551.1,863.2,559.3,854.7,579,854.7z"/>
		<path d="M582.2,815.3v19.3h24.2V845h-54.2v-10.4H574v-19.3h-21.7v-10.4h54.2v10.4H582.2z"/>
		<path d="M560,761.9v20h15.2v-17.4h7.7v17.4h15.9v-21.4h7.8v31.8h-54.2v-31.5L560,761.9z"/>
		<path d="M569.5,712.7c12.5,0,18,9,18,21.3v6.4h18.9v10.4h-54.2v-16C552.3,721,557.8,712.7,569.5,712.7z M569.5,723.5
			c-6.8,0-9.7,4.2-9.7,11.2v5.6h19.9v-5.6C579.8,727.9,577.5,723.5,569.5,723.5z"/>
		<path d="M560.7,672.4V694h45.8v10.4h-54.2v-33.2L560.7,672.4z"/>
		<path d="M606.5,624.4v10.3h-23.1c-9,0-16.1-0.9-20.5-1.5l43.5,18.4v12.8h-54.2v-10.3h23.3c9.8,0,15.3,0.8,20.2,1.5
			l-43.5-18.8v-12.5L606.5,624.4L606.5,624.4z"/>
		<path d="M552.3,576.8h54.2v10.4h-20.3v8.5l20.3,9.7v11.5l-22.2-11.7c-2.7,6.5-7.7,10-15,10c-11,0-17-7.3-17-21.6
			L552.3,576.8L552.3,576.8z M578.5,587.1h-18.8v5.9c0,7.8,3.3,11.1,9.7,11.1c6.2,0,9.1-3.9,9.1-9.4V587.1z"/>
		<path d="M1171.2,397.3v23.2h-5.4l-1.4-17.2h-51l-1.4,17.2h-5.4v-23.2h5.2c5.6-5.6,7.9-12.5,12.1-45l3.7-30.1h37.9
			v75.1H1171.2z M1158.2,328.3h-24.5l-3,24.1c-3.7,30.9-6.3,39.2-12.8,44.9h40.2L1158.2,328.3L1158.2,328.3z"/>
		<path d="M1238.8,370.3l18.5,33h-7.6l-16.5-30h-10.5v30h-6.5v-30h-10.4l-16.7,30h-7.3l18.5-33l-15.8-28.9h7.1
			l14.2,26.5h10.4v-26.5h6.5V368h10.5l14.3-26.5h7L1238.8,370.3z"/>
		<path d="M1308.6,337.7l12.1,18h-4.4l-10.9-16.4h-5v16.4h-3.7v-33.6h3.7v14.2h5.1l9.5-14.2h4.1L1308.6,337.7z"/>
		<path d="M1328.7,355.7v-33.6h19.8l-0.4,3.2h-15.7v30.4L1328.7,355.7L1328.7,355.7z"/>
		<path d="M1355.8,335.2c0,1.7-1.2,3.1-3.1,3.1c-1.7,0-3.1-1.4-3.1-3.1c0-1.7,1.3-3,3.1-3
			C1354.6,332.2,1355.8,333.6,1355.8,335.2z"/>
		<path d="M1397.4,355.7h-3.7l-1.7-19.6c-0.3-3.7-0.4-6.6-0.5-10.2l-9.4,25.6h-3.5l-9.1-25.6c-0.1,3.2-0.2,6.6-0.4,10.2
			l-1.6,19.6h-3.6l2.9-33.6h4.8l8.9,25.6l9.2-25.6h4.8L1397.4,355.7z"/>
		<path d="M1417.8,326.9c0,3.8-2.2,6.3-9.3,13.2h9.9l-0.3,2.1h-12.6v-2c7.9-7.8,9.7-9.9,9.7-13.1c0-2.4-1.5-3.7-3.8-3.7
			c-2,0-3.3,0.8-4.6,2.2l-1.8-1.3c1.8-2.1,3.8-3.1,6.6-3.1C1415.5,321.2,1417.8,323.7,1417.8,326.9z"/>
		<rect x="1290.4" y="361" width="130.7" height="2.9"/>
		<path d="M1358.6,372.5l-1.9,2.4c-2.2-1.7-4.4-2.6-7.4-2.6c-6.1,0-10.4,4.8-10.4,14.4c0,9.6,4.2,14.1,10.3,14.1
			c3.2,0,5.4-1,7.8-2.8l1.8,2.5c-2.6,2.3-5.8,3.6-9.6,3.6c-8.6,0-14.3-6.4-14.3-17.3c0-10.8,5.6-17.7,14.2-17.7
			C1352.8,369.1,1355.7,370,1358.6,372.5z"/>
		<path d="M1376.9,374.5c0,3.8-2.2,6.3-9.3,13.2h9.9l-0.3,2.1h-12.6v-2c7.9-7.8,9.7-9.9,9.7-13.1c0-2.4-1.5-3.7-3.8-3.7
			c-2,0-3.3,0.8-4.6,2.2l-1.8-1.3c1.8-2.1,3.8-3.1,6.6-3.1C1374.6,368.9,1376.9,371.3,1376.9,374.5z"/>
		<path d="M648.8,356h-47.5v23.1H643v32.7h-41.7v25.5H652v34H551.9V321.9h101.8L648.8,356z"/>
	</g>
</g>

<g class="logo">
	<g class="card card-11">
		<path d="M598.3,906.6h20.6v7.5l-12.4,1.3v29.8l12.4,1.3v7.5h-20.6v-3.8c-3.9-3.7-9.5-4.7-29.7-7.3l-16.4-2v-29.7h46.1
			L598.3,906.6L598.3,906.6z M560.2,921.4v10.7l8.1,0.9c19.4,2.1,25.9,3.7,30,8.9v-20.4L560.2,921.4L560.2,921.4z"/>
		<path d="M593.9,872.7v18l12.6,3.4v10.8l-54.2-16.9v-12.8l54.2-16.8v11L593.9,872.7z M586.1,874.8l-25.9,6.9l25.9,6.9
			V874.8z"/>
		<path d="M590.9,813.3c11.9,0,15.6,9.5,15.6,22.7v16.3h-54.2v-14.2c0-14,3.9-22.4,13.8-22.4c6.8,0,10.6,4.9,11.7,10
			C578.9,819.5,581.8,813.3,590.9,813.3z M559.9,841.9h14.7v-6.3c0-5.7-2.5-9.3-7.6-9.3c-5.5,0-7.1,3.8-7.1,10.8V841.9z
				M590.5,824.1c-6.5,0-8.7,4.6-8.7,10.7v7.1h17v-6C598.7,829.1,597.3,824.1,590.5,824.1z"/>
		<path d="M552.3,765.4h54.2v10.4h-46.1v13.8l20.6,2.3c18.4,2.1,23.8,5.1,26.6,15.6l-7.6,2.4c-2.2-5.7-5.7-6.5-19.1-8.1
			l-28.7-3.4L552.3,765.4L552.3,765.4z"/>
		<path d="M560,722.3v20h15.2v-17.4h7.7v17.4h15.9v-21.4h7.8v31.8h-54.2v-31.5L560,722.3z"/>
		<path d="M582.2,681.4v19.3h24.2v10.3h-54.2v-10.3H574v-19.3h-21.7V671h54.2v10.4H582.2z"/>
		<path d="M606.5,618.3v10.3h-23.1c-9,0-16.1-0.9-20.5-1.5l43.5,18.4v12.8h-54.2v-10.3h23.3c9.8,0,15.3,0.8,20.2,1.5
			l-43.5-18.8v-12.5L606.5,618.3L606.5,618.3z"/>
		<path d="M560,575.3v20h15.2v-17.4h7.7v17.4h15.9v-21.4h7.8v31.8h-54.2v-31.5L560,575.3z"/>
		<path d="M1187.9,403.7h-7.1v-74.9h-38.2v74.9h-7.1v-81.1h52.4L1187.9,403.7L1187.9,403.7z"/>
		<path d="M1257.2,400.2l-1.5,4.9c-5.4-1.1-8.6-3.8-9.6-10.4c-4.4,7.1-11,10.4-19.3,10.4c-12,0-19.2-7.5-19.2-18.5
			c0-13,9.8-20,25.7-20h11.8v-6c0-9.8-4-14.2-14.3-14.2c-5,0-10.7,1.3-16.8,3.5l-1.8-5.2c6.9-2.7,13-4.1,19.5-4.1
			c14.1,0,20.2,7,20.2,19.6V390C1252,396.9,1253.9,398.9,1257.2,400.2z M1245.2,388.6v-17h-10.8c-12.4,0-19.4,4.9-19.4,14.7
			c0,8.5,4.8,13.3,13,13.3C1235.8,399.5,1241.3,395.5,1245.2,388.6z"/>
		<path d="M1344.9,338l12.1,18h-4.4l-10.9-16.4h-5v16.4h-3.7v-33.6h3.7v14.2h5.1l9.5-14.2h4.1L1344.9,338z"/>
		<path d="M1365,356.1v-33.6h19.8l-0.4,3.2h-15.7v30.4L1365,356.1L1365,356.1z"/>
		<rect x="1290.4" y="361.3" width="130.7" height="2.9"/>
		<path d="M1340.9,403.7h-3.7l-1.7-19.6c-0.3-3.7-0.4-6.6-0.5-10.2l-9.4,25.6h-3.5l-9.1-25.6c-0.1,3.2-0.2,6.6-0.4,10.2
			l-1.6,19.6h-3.6l2.9-33.6h4.8l8.9,25.6l9.2-25.6h4.8L1340.9,403.7z"/>
		<path d="M1354.9,383.2c0,1.7-1.2,3.1-3.1,3.1c-1.7,0-3.1-1.4-3.1-3.1c0-1.7,1.3-3,3.1-3
			C1353.7,380.2,1354.9,381.6,1354.9,383.2z"/>
		<path d="M1386.3,372.8l-1.9,2.4c-2.2-1.7-4.4-2.6-7.4-2.6c-6.1,0-10.4,4.8-10.4,14.5c0,9.6,4.2,14.1,10.3,14.1
			c3.1,0,5.4-1,7.8-2.8l1.8,2.5c-2.6,2.2-5.8,3.6-9.6,3.6c-8.6,0-14.3-6.4-14.3-17.3c0-10.8,5.6-17.7,14.2-17.7
			C1380.6,369.4,1383.5,370.4,1386.3,372.8z"/>
		<path d="M1404.7,374.8c0,3.9-2.2,6.3-9.3,13.2h9.9l-0.3,2.1h-12.6v-2c7.9-7.8,9.7-9.9,9.7-13.1c0-2.4-1.5-3.7-3.8-3.7
			c-2,0-3.3,0.8-4.6,2.2l-1.8-1.3c1.8-2.1,3.8-3.1,6.6-3.1C1402.4,369.2,1404.7,371.6,1404.7,374.8z"/>
		<path d="M675.6,373.4c0,35.1-24.4,53.5-60.3,53.5h-13.7v44.7h-49.4V322.3h57.1C650.3,322.3,675.6,339.6,675.6,373.4z
			M625.3,373.4c0-10.1-3.8-17.1-16.9-17.1h-6.8v36.1h8.5C620.4,392.5,625.3,385.6,625.3,373.4z"/>
	</g>
</g>

<g class="logo">
	<g class="card card-12">
		<path d="M606.5,938.7v10.1l-22.7,1.4c-8,0.5-16.4,0.9-22.1,0.7l38.9,9.9v9.8l-39,10.5c7.3-0.3,14.8-0.2,22.5,0.3
			l22.4,1.3v10l-54.2-4.3v-13.3l38-9.7l-38-9.1V943L606.5,938.7z"/>
		<path d="M579.3,885.1c17.9,0,28.3,9.2,28.3,23.7s-10.1,23.8-28.2,23.8c-17.8,0-28.3-9.3-28.3-23.8
			S561.2,885.1,579.3,885.1z M579.4,921.6c14.6,0,20.3-4.9,20.3-12.9c0-8.1-5.7-12.8-20.4-12.8c-14.5,0-20.3,4.6-20.3,12.8
			C559,916.8,564.8,921.6,579.4,921.6z"/>
		<path d="M598.3,809.8h20.6v7.5l-12.4,1.3v56.7h-54.2v-10.2h46v-14.5h-46v-9.7h46v-14.6h-46v-10.2h46.1V809.8z"/>
		<path d="M582.2,772.6v19.3h24.2v10.4h-54.2v-10.4H574v-19.3h-21.7v-10.4h54.2v10.4H582.2z"/>
		<path d="M579.3,705c17.9,0,28.3,9.2,28.3,23.7s-10.1,23.8-28.2,23.8c-17.8,0-28.3-9.3-28.3-23.8S561.2,705,579.3,705z
				M579.4,741.6c14.6,0,20.3-4.9,20.3-12.9c0-8.1-5.7-12.8-20.4-12.8c-14.5,0-20.3,4.6-20.3,12.8C559,736.8,564.8,741.6,579.4,741.6
			z"/>
		<path d="M556.8,658.8l6.1,5.3c-2.5,3.1-3.8,6.3-3.8,10c0,7.5,5.5,13.3,20.2,13.3c14.3,0,20.1-5.7,20.1-13.3
			c0-4.7-2-7.9-4.4-11.1l6.1-4.9c3.4,3.3,6.6,9,6.6,16.3c0,14-10,23.8-28.4,23.8c-18.2,0-28.2-10.4-28.2-23.7
			C551.1,667.7,553.1,663.2,556.8,658.8z"/>
		<path d="M560.5,617.8v14.1h46v10.4h-46V657h-8.2v-40.2L560.5,617.8z"/>
		<path d="M588.5,572c12.7,0,18,8.9,18,21.2V610h-54.2v-10.4h19.2v-6.4C571.4,580,576.9,572,588.5,572z M588.7,582.9
			c-6.9,0-9.7,3.8-9.7,10.8v5.9h19.8v-6.1C598.7,587.1,596.4,582.9,588.7,582.9z"/>
		<path d="M1201.5,380.9c0,15.5-11.4,22.5-29.1,22.5h-22.1v-81.1h18.1c18.5,0,29.4,6.5,29.4,20.2
			c0,10.4-6.4,16.3-14.9,17.9C1192.6,361.5,1201.5,366.9,1201.5,380.9z M1157.3,328.2v29.7h16.3c9.8,0,16.8-5.5,16.8-14.9
			c0-10.9-7.8-14.8-21.4-14.8H1157.3z M1194.2,380.9c0-12.3-8.6-17.3-19.7-17.3h-17.2v33.9h15C1185.5,397.5,1194.2,393,1194.2,380.9
			z"/>
		<path d="M1255.8,347.4h-20.6v56h-6.9v-56H1207v-5.9h49.6L1255.8,347.4z"/>
		<path d="M1308.6,337.7l12.1,18h-4.4l-10.9-16.4h-5v16.4h-3.7v-33.6h3.7v14.2h5.1l9.5-14.2h4.1L1308.6,337.7z"/>
		<path d="M1328.7,355.7v-33.6h19.8l-0.4,3.2h-15.7v30.4H1328.7z"/>
		<path d="M1355.8,335.2c0,1.7-1.2,3.1-3.1,3.1c-1.7,0-3.1-1.4-3.1-3.1c0-1.7,1.3-3,3.1-3
			C1354.6,332.2,1355.8,333.6,1355.8,335.2z"/>
		<path d="M1397.4,355.7h-3.7l-1.7-19.6c-0.3-3.7-0.4-6.6-0.5-10.2l-9.4,25.6h-3.5l-9.1-25.6c-0.1,3.2-0.2,6.6-0.4,10.2
			l-1.6,19.6h-3.6l2.9-33.6h4.8l8.9,25.6l9.2-25.6h4.8L1397.4,355.7z"/>
		<path d="M1417.8,326.9c0,3.9-2.2,6.3-9.3,13.2h9.9l-0.3,2.1h-12.6v-2c7.9-7.8,9.7-9.9,9.7-13.1c0-2.4-1.5-3.7-3.8-3.7
			c-2,0-3.3,0.8-4.6,2.2l-1.8-1.3c1.8-2.1,3.8-3.1,6.6-3.1C1415.5,321.2,1417.8,323.7,1417.8,326.9z"/>
		<rect x="1290.4" y="361" width="130.7" height="2.9"/>
		<path d="M1358.5,372.5l-1.9,2.4c-2.2-1.7-4.4-2.6-7.4-2.6c-6.1,0-10.4,4.8-10.4,14.5c0,9.6,4.2,14.1,10.3,14.1
			c3.2,0,5.4-1,7.8-2.8l1.8,2.5c-2.6,2.2-5.8,3.6-9.6,3.6c-8.6,0-14.3-6.4-14.3-17.3c0-10.8,5.6-17.7,14.2-17.7
			C1352.8,369.1,1355.7,370,1358.5,372.5z"/>
		<path d="M1377.1,374c0,2.6-1.8,4.4-4.3,4.8c2.7,0.1,4.8,1.9,4.8,5.1c0,3.6-2.8,6.2-7.2,6.2c-2.7,0-4.8-1-6.4-2.8
			l1.6-1.4c1.5,1.5,3.1,2.1,4.7,2.1c3.1,0,4.7-1.7,4.7-4.2c0-2.9-1.8-4-4.6-4h-1.5l0.3-2h1c2.2,0,4.2-1.1,4.2-3.7
			c0-2.1-1.6-3.4-3.8-3.4c-1.8,0-3.2,0.5-4.8,1.9l-1.3-1.5c1.8-1.5,3.7-2.4,6.2-2.4C1374.7,368.8,1377.1,371,1377.1,374z"/>
		<path d="M677.3,471.3h-61.6l-26.3-105c2.3,15,6.4,35.9,6.4,63.8v41.3h-43.4V322h60.3l27.8,105.5
			c-3.2-20.5-6.6-36.2-6.6-65V322h43.4L677.3,471.3L677.3,471.3z"/>
	</g>
</g>

<g class="logo">
	<g class="card card-13">
		<path d="M606.5,896v10.4h-46v19.1h46v10.4h-54.2V896L606.5,896L606.5,896z"/>
		<path d="M552.3,844.5h54.2v10.4h-46.1v13.8l20.6,2.3c18.4,2.1,23.8,5.1,26.6,15.6l-7.6,2.4c-2.2-5.7-5.7-6.5-19.1-8.1
			l-28.7-3.4L552.3,844.5L552.3,844.5z"/>
		<path d="M579.3,787.3c17.9,0,28.3,9.2,28.3,23.7s-10.1,23.8-28.2,23.8c-17.8,0-28.3-9.3-28.3-23.8
			S561.2,787.3,579.3,787.3z M579.4,823.9c14.6,0,20.3-4.9,20.3-12.9c0-8.1-5.7-12.8-20.4-12.8c-14.5,0-20.3,4.6-20.3,12.8
			C559,819.1,564.8,823.9,579.4,823.9z"/>
		<path d="M598.3,712.1h20.6v7.5l-12.4,1.3v56.7h-54.2v-10.2h46v-14.5h-46v-9.7h46v-14.6h-46v-10.2h46.1V712.1z"/>
		<path d="M593.9,679.2v18l12.6,3.4v10.8l-54.2-16.9v-12.8l54.2-16.8v11L593.9,679.2z M586.1,681.3l-25.9,6.9l25.9,6.9
			V681.3z"/>
		<path d="M598.3,618.5h20.6v7.5l-12.4,1.3v29.8l12.4,1.3v7.5h-20.6v-3.8c-3.9-3.7-9.5-4.7-29.7-7.3l-16.4-2v-29.7h46.1
			L598.3,618.5L598.3,618.5z M560.2,633.3V644l8.1,0.9c19.4,2.1,25.9,3.7,30,8.9v-20.4L560.2,633.3L560.2,633.3z"/>
		<path d="M588.5,572c12.7,0,18,8.9,18,21.2V610h-54.2v-10.4h19.2v-6.4C571.4,580,576.9,572,588.5,572z M588.7,582.9
			c-6.9,0-9.7,3.8-9.7,10.8v5.9h19.8v-6.1C598.7,587.1,596.4,582.9,588.7,582.9z"/>
		<path d="M676.1,338.4l-21.4,25.2c-9.6-7.7-19.9-11.8-31.5-11.8c-9.8,0-13.7,3.4-13.7,8.3c0,6.6,5.3,8.1,25.5,14.8
			c32.1,10.5,44.3,24.6,44.3,50.9c0,29.5-24.4,50.1-64.8,50.1c-30.2,0-50.1-11.5-62.2-23.3l24-26.3c10.7,9.2,22.7,14.5,36.2,14.5
			c11.8,0,15.6-5.1,15.6-10.5c0-7.7-4.1-10.9-22.3-16.5c-37.7-12-47.1-28-47.1-49.4c0-29.5,25.9-47.1,60.3-47.1
			C643.6,317.5,662.2,325,676.1,338.4z"/>
		<path d="M1380.6,403.4h-6.8l-3.2-36.1c-0.6-6.8-0.8-12.2-0.9-18.8l-17.3,47.2h-6.5l-16.8-47.2
			c-0.1,5.9-0.4,12.2-0.8,18.8l-3,36.1h-6.6l5.4-61.9h8.8l16.3,47.2l16.9-47.2h8.9L1380.6,403.4z"/>
		<path d="M1419.8,347.3c0,7.5-4.4,12.2-18.1,25.6h19.3l-0.7,4.2h-24.4v-4c15.3-15.2,18.8-19.2,18.8-25.4
			c0-4.7-2.9-7.2-7.4-7.2c-3.9,0-6.5,1.5-8.9,4.4l-3.4-2.5c3.5-4.1,7.5-6,12.7-6C1415.3,336.4,1419.8,341.1,1419.8,347.3z"/>
	</g>
</g>
</g>
</svg>