<svg xmlns="http://www.w3.org/2000/svg" viewBox="0 0 1920 1080" style="background-color:#FFF">
<rect fill="#3C8EFF" x="508.5" y="491.3" width="96.6" height="193.4"/>
<rect fill="#FFB93E" x="508.5" y="394.7" width="96.6" height="96.6"/>
<rect fill="#FFB93E" x="605.3" y="491.3" width="96.6" height="193.4"/>
<path fill="#E1005A" d="M701.9,491.3h-96.6v-96.6c8.2,0,16.5,3.2,22.8,9.4l64.5,64.5C698.7,474.8,701.9,483.1,701.9,491.3z"/>
<g fill="#231F20">
	<path d="M872,443v80.6h-18.5v-65.4H817v65.4h-18.5V443L872,443L872,443z"/>
	<path d="M950.4,497.6h-46.9c0.8,3.8,2.8,6.9,6,9.1c3.2,2.3,7,3.3,11.7,3.3c3.3,0,6.1-0.5,8.6-1.4s4.8-2.4,7-4.5
		l9.6,10.4c-5.9,6.7-14.4,10-25.6,10c-7,0-13.2-1.4-18.5-4.1c-5.3-2.7-9.5-6.5-12.5-11.3c-2.9-4.9-4.3-10.3-4.3-16.4
		c0-6.1,1.4-11.6,4.3-16.4c2.9-4.9,6.9-8.7,11.8-11.4c5.1-2.7,10.7-4.1,16.9-4.1c6.1,0,11.6,1.3,16.4,3.9s8.8,6.3,11.6,11.2
		s4.2,10.6,4.2,17C950.8,493,950.6,494.6,950.4,497.6z M908.4,477.7c-2.8,2.3-4.4,5.4-5.1,9.4h30.4c-0.6-3.9-2.3-7-5.1-9.4
		c-2.8-2.3-6.1-3.5-10.1-3.5C914.6,474.2,911.1,475.4,908.4,477.7z"/>
	<path d="M1016.7,464.6c4.7,2.6,8.4,6.4,11.1,11.2c2.7,4.8,4.1,10.4,4.1,16.7c0,6.4-1.4,11.9-4.1,16.7
		c-2.7,4.8-6.4,8.5-11.1,11.2c-4.7,2.6-9.9,4-15.7,4c-7.9,0-14.1-2.5-18.6-7.5v28.9h-18v-84.3h17.2v7.1c4.4-5.3,10.9-8,19.4-8
		C1006.8,460.7,1012,462,1016.7,464.6z M1009.3,505c3-3.1,4.4-7.2,4.4-12.5s-1.4-9.4-4.4-12.5c-3-3.1-6.8-4.7-11.3-4.7
		c-4.6,0-8.4,1.5-11.3,4.7c-3,3.1-4.4,7.2-4.4,12.5s1.4,9.4,4.4,12.5c3,3.1,6.8,4.7,11.3,4.7C1002.5,509.7,1006.3,508.2,1009.3,505
		z"/>
	<path d="M1102.6,505.9c0,5.6-2.1,9.9-6.3,13c-4.2,3.1-10.5,4.6-18.9,4.6h-33.1v-61.9h31.6c7.8,0,13.8,1.4,18.2,4.2
		c4.3,2.8,6.6,6.8,6.6,11.8c0,3.1-0.8,5.8-2.3,8.1c-1.5,2.3-3.8,4.2-6.8,5.5C1099,493.6,1102.6,498.5,1102.6,505.9z M1060.9,487
		h13.5c6.3,0,9.4-2.3,9.4-6.7c0-4.3-3.2-6.6-9.4-6.6h-13.5V487z M1085.8,504.6c0-2.3-0.8-4.2-2.3-5.2c-1.5-1.1-4-1.6-7.2-1.6h-15.4
		v13.7h15.1C1082.6,511.3,1085.8,509.1,1085.8,504.6z"/>
	<path d="M1166.8,486.8c4.2,3.5,6.2,8.6,6.2,15.2c0,6.9-2.3,12.2-7,16c-4.7,3.8-11.3,5.6-19.9,5.6l-30.2-0.1v-61.9
		h17.8v19.8h14.7C1156.6,481.4,1162.7,483.2,1166.8,486.8z M1152.5,508.6c1.8-1.5,2.8-3.8,2.8-6.9c0-3-0.9-5.1-2.7-6.6
		c-1.8-1.4-4.4-2.1-8-2.2l-10.7-0.1v18h10.7C1148,510.9,1150.7,510.2,1152.5,508.6z M1179.7,461.6h17.8v61.9h-17.8V461.6z"/>
	<path d="M1214.8,461.6h17.8v36.8l30.2-36.8h16.4v61.9h-17.8v-36.8l-30.1,36.8h-16.5L1214.8,461.6L1214.8,461.6z
			M1225.5,437.1h11.7c0.1,2.7,0.8,4.8,2.3,6.2c1.4,1.5,3.5,2.3,6.2,2.3c2.8,0,4.9-0.7,6.4-2.3c1.5-1.5,2.3-3.6,2.3-6.2h11.9
		c-0.1,11.9-6.9,17.8-20.5,17.8C1232.4,454.9,1225.6,449,1225.5,437.1z"/>
	<path d="M872,555.8v80.6h-18.5v-65.4H817v65.4h-18.5v-80.6H872z"/>
	<path d="M950.4,610.4h-46.9c0.8,3.8,2.8,6.9,6,9.1c3.2,2.3,7,3.3,11.7,3.3c3.3,0,6.1-0.5,8.6-1.4c2.5-1,4.8-2.4,7-4.5
		l9.6,10.4c-5.9,6.7-14.4,10-25.6,10c-7,0-13.2-1.4-18.5-4.1c-5.3-2.7-9.5-6.5-12.5-11.3c-2.9-4.9-4.3-10.3-4.3-16.4
		c0-6.1,1.4-11.6,4.3-16.4s6.9-8.7,11.8-11.4c5.1-2.7,10.7-4.1,16.9-4.1c6.1,0,11.6,1.3,16.4,3.9c4.9,2.6,8.8,6.3,11.6,11.2
		s4.2,10.6,4.2,17C950.8,605.8,950.6,607.4,950.4,610.4z M908.4,590.5c-2.8,2.3-4.4,5.4-5.1,9.4h30.4c-0.6-3.9-2.3-7-5.1-9.4
		c-2.8-2.3-6.1-3.5-10.1-3.5C914.6,587,911.1,588.2,908.4,590.5z"/>
	<path d="M1020.2,574.4v61.9h-18v-23c-5.2,2.6-10.9,3.9-17.2,3.9c-8.4,0-14.6-1.9-19-5.7c-4.2-3.8-6.4-9.7-6.4-17.7
		v-19.4h18v18.3c0,3.8,1,6.5,2.9,8.1c2,1.7,4.8,2.5,8.5,2.5c4.7,0,9.1-1,13.3-3v-26L1020.2,574.4L1020.2,574.4z"/>
	<path d="M1083.7,580.3c5.1,4.6,7.7,11.5,7.7,20.7v35.3h-16.8v-7.7c-3.3,5.8-9.7,8.7-18.9,8.7c-4.8,0-8.9-0.8-12.4-2.4
		c-3.5-1.6-6.1-3.8-8-6.7c-1.8-2.8-2.8-6.1-2.8-9.7c0-5.8,2.2-10.3,6.5-13.5c4.3-3.3,11-5,20-5h14.3c0-3.9-1.2-7-3.5-9
		s-6-3.2-10.7-3.2c-3.3,0-6.5,0.5-9.8,1.5c-3.2,1-5.9,2.4-8.1,4.2l-6.4-12.6c3.3-2.3,7.4-4.2,12.1-5.5c4.7-1.3,9.6-2,14.5-2
		C1071.2,573.5,1078.5,575.7,1083.7,580.3z M1068.4,623c2.3-1.4,4.1-3.5,5.1-6.2v-6.3h-12.3c-7.4,0-11,2.4-11,7.2
		c0,2.3,0.9,4.2,2.7,5.5c1.8,1.4,4.2,2,7.4,2C1063.2,625.1,1065.9,624.4,1068.4,623z"/>
	<path d="M1159.1,589.1h-21v47.1h-17.8v-47.1h-21v-14.7h59.7L1159.1,589.1L1159.1,589.1z"/>
	<path d="M1168.5,574.4h17.8v24.2h26.9v-24.2h18v61.9h-18v-23.1h-26.9v23.1h-17.8V574.4z"/>
	<path d="M1299.3,599.6c4.2,3.5,6.2,8.6,6.2,15.2c0,6.9-2.3,12.2-7,16c-4.7,3.8-11.3,5.6-19.9,5.6l-30.2-0.1v-61.9
		h17.8v19.8h14.7C1289,594.2,1295.2,596.1,1299.3,599.6z M1284.9,621.4c1.8-1.5,2.8-3.8,2.8-6.9c0-3-0.9-5.1-2.7-6.6
		c-1.8-1.4-4.4-2.1-8-2.2l-10.7-0.1v18h10.7C1280.4,623.7,1283.1,623,1284.9,621.4z M1312.1,574.4h17.8v61.9h-17.8V574.4z"/>
	<path d="M1347.3,574.4h17.8v36.8l30.2-36.8h16.4v61.9h-17.8v-36.8l-30.1,36.8h-16.5L1347.3,574.4L1347.3,574.4z
			M1357.9,549.9h11.7c0.1,2.7,0.8,4.8,2.3,6.2c1.4,1.5,3.5,2.3,6.2,2.3c2.8,0,4.9-0.7,6.4-2.3c1.5-1.5,2.3-3.6,2.3-6.2h11.9
		c-0.1,11.9-6.9,17.8-20.5,17.8C1364.8,567.7,1358,561.7,1357.9,549.9z"/>
</g>
</svg>
