<svg xmlns="http://www.w3.org/2000/svg" viewBox="0 0 1000 1000" style="background-color: #f2f3f5; background-color: var(--bg-accent-color)">

<style type="text/css">
	@import url("../../../styles/logos-draft.css");
	.st0{fill:var(--txt-color);}
	.st1{fill:#E4007D;}
	.st2{fill:#FFEC00;}
	.st3{fill:#009DE2;}
</style>

<path class="st0" d="M748.46,800.38h-4.02v-19.7h-10.91v19.7h-4.02v-22.75h18.96V800.38z M711.66,777.62v22.75h-4v-15.45
	c0-0.3,0.01-0.62,0.04-0.96c0.03-0.34,0.07-0.69,0.11-1.03c-0.13,0.3-0.27,0.58-0.4,0.83c-0.13,0.25-0.28,0.49-0.43,0.69
	l-10.98,14.94c-0.16,0.24-0.37,0.46-0.62,0.68c-0.25,0.22-0.52,0.33-0.82,0.33h-2.43v-22.75h4.02v15.45c0,0.28-0.01,0.59-0.04,0.93
	c-0.03,0.34-0.07,0.68-0.11,1.03c0.13-0.29,0.27-0.55,0.4-0.8c0.13-0.25,0.27-0.47,0.4-0.68l10.98-14.94
	c0.17-0.24,0.37-0.47,0.63-0.69c0.25-0.22,0.53-0.32,0.83-0.32H711.66z M674.31,777.62v22.75h-3.99v-15.45
	c0-0.3,0.01-0.62,0.04-0.96c0.03-0.34,0.07-0.69,0.11-1.03c-0.13,0.3-0.27,0.58-0.4,0.83c-0.13,0.25-0.28,0.49-0.43,0.69
	l-10.98,14.94c-0.16,0.24-0.37,0.46-0.61,0.68c-0.25,0.22-0.53,0.33-0.82,0.33h-2.42v-22.75h4.02v15.45c0,0.28-0.02,0.59-0.04,0.93
	c-0.03,0.34-0.07,0.68-0.11,1.03c0.13-0.29,0.27-0.55,0.4-0.8c0.13-0.25,0.27-0.47,0.4-0.68l10.98-14.94
	c0.16-0.24,0.37-0.47,0.63-0.69c0.25-0.22,0.53-0.32,0.83-0.32H674.31z M645.37,778.74c0.21-0.33,0.49-0.6,0.83-0.81
	c0.34-0.21,0.71-0.31,1.1-0.31h3.12l-5.91,8.67c-0.36,0.56-0.73,1-1.12,1.36c-0.39,0.35-0.87,0.63-1.44,0.82
	c0.72,0.19,1.33,0.49,1.82,0.9c0.49,0.41,0.94,0.94,1.32,1.59l5.97,9.41h-2.78c-0.72,0-1.27-0.12-1.66-0.36
	c-0.39-0.24-0.73-0.58-1.01-1.03l-4.42-7.07c-0.71-1.17-1.76-1.75-3.17-1.75h-2.45v10.24h-4.02v-22.77h4.02v9.84h2.16
	c1.2,0,2.13-0.51,2.81-1.53L645.37,778.74z M627.76,780.68h-8.74v19.7h-4v-19.7h-8.74v-3.05h21.47V780.68z M593.89,797.57
	c2.25,0,3.92-0.76,5.03-2.26c1.11-1.5,1.66-3.6,1.66-6.3c0-2.71-0.55-4.82-1.66-6.33c-1.11-1.51-2.78-2.27-5.03-2.27
	c-1.14,0-2.12,0.2-2.97,0.58c-0.85,0.39-1.55,0.95-2.11,1.69c-0.56,0.73-0.98,1.63-1.26,2.7c-0.28,1.07-0.42,2.28-0.42,3.63
	c0,2.7,0.56,4.79,1.68,6.3C589.92,796.81,591.61,797.57,593.89,797.57z M593.89,777.26c1.66,0,3.16,0.28,4.49,0.83
	c1.33,0.55,2.47,1.34,3.41,2.36c0.94,1.02,1.67,2.25,2.17,3.69c0.5,1.44,0.75,3.06,0.75,4.84c0,1.8-0.25,3.42-0.75,4.85
	c-0.5,1.44-1.23,2.66-2.17,3.68c-0.94,1.02-2.08,1.8-3.41,2.34c-1.33,0.55-2.83,0.82-4.49,0.82c-1.68,0-3.18-0.28-4.52-0.82
	c-1.34-0.55-2.49-1.32-3.43-2.34c-0.94-1.02-1.66-2.25-2.16-3.68c-0.5-1.44-0.76-3.05-0.76-4.85c0-1.78,0.25-3.4,0.76-4.84
	c0.5-1.44,1.22-2.67,2.16-3.69s2.09-1.81,3.43-2.36C590.71,777.54,592.21,777.26,593.89,777.26z M569.84,772.28
	c-1.53,0.13-2.83,0.47-3.92,1.01c-1.08,0.54-1.99,1.27-2.71,2.19c-0.72,0.92-1.26,2.03-1.62,3.32c-0.36,1.29-0.57,2.74-0.63,4.36
	c0.36-0.72,0.82-1.37,1.39-1.95c0.57-0.58,1.22-1.07,1.95-1.48c0.73-0.41,1.54-0.73,2.4-0.94c0.86-0.22,1.77-0.32,2.75-0.32
	c1.51,0,2.88,0.26,4.08,0.8c1.2,0.53,2.23,1.29,3.07,2.26c0.85,0.97,1.49,2.14,1.94,3.51c0.45,1.37,0.67,2.89,0.67,4.55
	c0,1.69-0.25,3.22-0.77,4.59c-0.52,1.37-1.26,2.54-2.22,3.51c-0.96,0.97-2.1,1.72-3.44,2.24c-1.34,0.53-2.85,0.79-4.51,0.79
	c-1.53,0-2.96-0.25-4.29-0.76c-1.33-0.51-2.49-1.35-3.46-2.51c-0.97-1.17-1.74-2.71-2.3-4.62c-0.56-1.91-0.85-4.26-0.85-7.06
	c0-2.39,0.22-4.6,0.65-6.6c0.43-2.01,1.14-3.75,2.1-5.23c0.96-1.48,2.22-2.68,3.75-3.59c1.53-0.91,3.4-1.45,5.6-1.65l8.13-0.7
	l0.22,2.07c0.05,0.46-0.02,0.85-0.2,1.17c-0.18,0.31-0.5,0.49-0.96,0.52L569.84,772.28z M568.29,797.72c2.25,0,3.95-0.72,5.09-2.15
	c1.14-1.43,1.71-3.43,1.71-6c0-2.56-0.54-4.56-1.64-6c-1.1-1.44-2.76-2.16-4.96-2.16c-1.06,0-2.02,0.17-2.88,0.5
	c-0.85,0.34-1.57,0.83-2.16,1.48c-0.59,0.64-1.05,1.44-1.37,2.38c-0.32,0.94-0.48,2.02-0.48,3.24c0,1.36,0.14,2.58,0.43,3.66
	c0.29,1.08,0.71,1.99,1.27,2.74c0.56,0.75,1.26,1.32,2.09,1.72C566.21,797.52,567.18,797.72,568.29,797.72z M535.11,780.84
	c1.26-1.21,2.61-2.12,4.07-2.72c1.45-0.6,3.06-0.9,4.83-0.9c1.27,0,2.4,0.21,3.39,0.63c0.99,0.42,1.82,1,2.49,1.75
	s1.18,1.66,1.53,2.72c0.34,1.06,0.52,2.23,0.52,3.5v14.55h-1.77c-0.39,0-0.69-0.07-0.9-0.2c-0.21-0.13-0.38-0.37-0.49-0.75
	l-0.45-2.16c-0.6,0.56-1.18,1.04-1.75,1.47c-0.57,0.43-1.17,0.79-1.8,1.08c-0.63,0.29-1.3,0.52-2.01,0.67
	c-0.71,0.16-1.5,0.24-2.37,0.24c-0.88,0-1.71-0.13-2.49-0.38c-0.78-0.25-1.45-0.61-2.03-1.11c-0.58-0.49-1.03-1.12-1.37-1.88
	c-0.34-0.76-0.51-1.65-0.51-2.68c0-0.9,0.25-1.77,0.74-2.6c0.49-0.83,1.3-1.57,2.4-2.21c1.11-0.64,2.55-1.18,4.33-1.59
	c1.78-0.41,3.97-0.64,6.56-0.7v-1.77c0-1.77-0.38-3.11-1.14-4.01c-0.76-0.91-1.88-1.36-3.35-1.36c-0.99,0-1.81,0.12-2.48,0.37
	c-0.67,0.25-1.24,0.53-1.73,0.83c-0.48,0.31-0.9,0.58-1.26,0.83c-0.35,0.25-0.7,0.37-1.05,0.37c-0.27,0-0.5-0.07-0.7-0.22
	c-0.2-0.14-0.36-0.31-0.49-0.52L535.11,780.84z M548.03,790.13c-1.84,0.06-3.4,0.2-4.7,0.43c-1.3,0.23-2.35,0.54-3.17,0.91
	c-0.82,0.38-1.41,0.82-1.77,1.33c-0.37,0.51-0.55,1.08-0.55,1.7c0,0.6,0.1,1.12,0.29,1.55c0.19,0.43,0.46,0.79,0.8,1.06
	c0.34,0.28,0.73,0.48,1.19,0.61c0.46,0.13,0.94,0.2,1.47,0.2c0.71,0,1.35-0.07,1.93-0.22c0.58-0.14,1.14-0.34,1.66-0.61
	c0.52-0.27,1.01-0.59,1.48-0.97c0.47-0.38,0.93-0.8,1.37-1.28V790.13z M514.36,781.15c0.96-1.18,2.07-2.13,3.33-2.85
	c1.26-0.72,2.69-1.08,4.31-1.08c1.32,0,2.51,0.25,3.57,0.75c1.07,0.5,1.97,1.24,2.72,2.22c0.75,0.98,1.32,2.2,1.73,3.65
	c0.4,1.45,0.61,3.12,0.61,5.01c0,1.68-0.22,3.23-0.67,4.68c-0.45,1.44-1.09,2.69-1.94,3.75c-0.85,1.06-1.88,1.89-3.1,2.49
	c-1.22,0.61-2.6,0.91-4.12,0.91c-1.39,0-2.58-0.24-3.58-0.71c-1-0.47-1.88-1.12-2.64-1.96v10.06h-4.02v-30.46h2.4
	c0.57,0,0.92,0.28,1.06,0.83L514.36,781.15z M514.56,794.89c0.73,0.99,1.53,1.68,2.4,2.09c0.87,0.41,1.84,0.61,2.92,0.61
	c2.13,0,3.76-0.76,4.9-2.27c1.14-1.51,1.71-3.67,1.71-6.47c0-1.48-0.13-2.76-0.39-3.82c-0.26-1.06-0.65-1.94-1.14-2.62
	c-0.49-0.68-1.1-1.17-1.82-1.49c-0.72-0.32-1.54-0.47-2.45-0.47c-1.3,0-2.44,0.3-3.42,0.9c-0.98,0.6-1.89,1.44-2.71,2.54V794.89z
	 M496.08,772.28c-1.53,0.13-2.83,0.47-3.92,1.01c-1.08,0.54-1.99,1.27-2.71,2.19c-0.72,0.92-1.26,2.03-1.62,3.32
	c-0.36,1.29-0.57,2.74-0.63,4.36c0.36-0.72,0.82-1.37,1.39-1.95c0.57-0.58,1.22-1.07,1.95-1.48c0.74-0.41,1.53-0.73,2.4-0.94
	c0.86-0.22,1.77-0.32,2.75-0.32c1.51,0,2.88,0.26,4.08,0.8c1.21,0.53,2.23,1.29,3.08,2.26c0.85,0.97,1.49,2.14,1.94,3.51
	c0.45,1.37,0.67,2.89,0.67,4.55c0,1.69-0.25,3.22-0.77,4.59c-0.52,1.37-1.26,2.54-2.22,3.51c-0.96,0.97-2.1,1.72-3.44,2.24
	c-1.34,0.53-2.85,0.79-4.51,0.79c-1.53,0-2.96-0.25-4.29-0.76c-1.33-0.51-2.49-1.35-3.46-2.51c-0.97-1.17-1.74-2.71-2.3-4.62
	c-0.56-1.91-0.85-4.26-0.85-7.06c0-2.39,0.22-4.6,0.65-6.6c0.43-2.01,1.14-3.75,2.1-5.23c0.96-1.48,2.22-2.68,3.75-3.59
	c1.54-0.91,3.4-1.45,5.6-1.65l8.13-0.7l0.22,2.07c0.05,0.46-0.02,0.85-0.2,1.17c-0.18,0.31-0.5,0.49-0.96,0.52L496.08,772.28z
	 M494.53,797.72c2.25,0,3.95-0.72,5.09-2.15c1.14-1.43,1.71-3.43,1.71-6c0-2.56-0.55-4.56-1.65-6c-1.1-1.44-2.76-2.16-4.96-2.16
	c-1.06,0-2.02,0.17-2.87,0.5c-0.85,0.34-1.57,0.83-2.17,1.48c-0.59,0.64-1.05,1.44-1.37,2.38c-0.32,0.94-0.49,2.02-0.49,3.24
	c0,1.36,0.14,2.58,0.43,3.66c0.29,1.08,0.71,1.99,1.27,2.74c0.56,0.75,1.26,1.32,2.09,1.72
	C492.46,797.52,493.42,797.72,494.53,797.72z M468.39,797.57c2.25,0,3.92-0.76,5.03-2.26c1.11-1.5,1.66-3.6,1.66-6.3
	c0-2.71-0.55-4.82-1.66-6.33c-1.11-1.51-2.79-2.27-5.03-2.27c-1.14,0-2.13,0.2-2.97,0.58c-0.85,0.39-1.55,0.95-2.11,1.69
	c-0.56,0.73-0.98,1.63-1.26,2.7c-0.28,1.07-0.42,2.28-0.42,3.63c0,2.7,0.56,4.79,1.68,6.3
	C464.42,796.81,466.11,797.57,468.39,797.57z M468.39,777.26c1.66,0,3.16,0.28,4.49,0.83c1.33,0.55,2.47,1.34,3.41,2.36
	c0.94,1.02,1.67,2.25,2.17,3.69c0.5,1.44,0.75,3.06,0.75,4.84c0,1.8-0.25,3.42-0.75,4.85c-0.5,1.44-1.23,2.66-2.17,3.68
	c-0.94,1.02-2.08,1.8-3.41,2.34c-1.33,0.55-2.83,0.82-4.49,0.82c-1.68,0-3.18-0.28-4.52-0.82c-1.34-0.55-2.49-1.32-3.43-2.34
	c-0.94-1.02-1.66-2.25-2.16-3.68c-0.5-1.44-0.76-3.05-0.76-4.85c0-1.78,0.25-3.4,0.76-4.84c0.5-1.44,1.22-2.67,2.16-3.69
	c0.94-1.02,2.09-1.81,3.43-2.36C465.21,777.54,466.71,777.26,468.39,777.26z M442.04,797.18c-0.5,0.6-1.09,1.12-1.78,1.56
	c-0.69,0.44-1.42,0.81-2.2,1.09c-0.79,0.28-1.6,0.49-2.44,0.64c-0.84,0.14-1.67,0.22-2.49,0.22c-1.57,0-3.02-0.27-4.34-0.8
	c-1.33-0.53-2.47-1.31-3.44-2.34c-0.97-1.03-1.72-2.29-2.26-3.8c-0.54-1.51-0.81-3.25-0.81-5.21c0-1.59,0.25-3.07,0.73-4.44
	c0.49-1.38,1.18-2.58,2.1-3.59c0.91-1.01,2.03-1.81,3.35-2.38c1.32-0.57,2.8-0.86,4.44-0.86c1.36,0,2.63,0.23,3.79,0.68
	c1.16,0.46,2.16,1.12,3.01,1.98c0.85,0.86,1.5,1.92,1.98,3.19c0.48,1.26,0.72,2.71,0.72,4.33c0,0.63-0.07,1.05-0.2,1.26
	c-0.13,0.21-0.39,0.31-0.76,0.31h-15.2c0.05,1.44,0.25,2.69,0.6,3.75c0.35,1.06,0.84,1.95,1.47,2.66c0.63,0.71,1.38,1.24,2.25,1.59
	c0.87,0.35,1.84,0.53,2.92,0.53c1,0,1.87-0.12,2.6-0.35c0.73-0.23,1.35-0.48,1.87-0.75c0.52-0.27,0.96-0.53,1.32-0.76
	c0.35-0.23,0.65-0.34,0.9-0.34c0.33,0,0.58,0.13,0.76,0.38L442.04,797.18z M438.81,786.52c0-0.93-0.13-1.78-0.39-2.55
	c-0.26-0.77-0.64-1.44-1.14-2c-0.5-0.56-1.12-1-1.84-1.3c-0.72-0.31-1.53-0.46-2.45-0.46c-1.92,0-3.43,0.56-4.54,1.67
	c-1.12,1.12-1.81,2.66-2.08,4.64H438.81z M402.25,781.15c0.96-1.18,2.06-2.13,3.32-2.85c1.26-0.72,2.7-1.08,4.31-1.08
	c1.32,0,2.51,0.25,3.57,0.75c1.07,0.5,1.97,1.24,2.72,2.22c0.75,0.98,1.33,2.2,1.73,3.65c0.4,1.45,0.61,3.12,0.61,5.01
	c0,1.68-0.22,3.23-0.67,4.68c-0.45,1.44-1.09,2.69-1.94,3.75c-0.85,1.06-1.88,1.89-3.1,2.49c-1.22,0.61-2.6,0.91-4.12,0.91
	c-1.39,0-2.59-0.24-3.58-0.71c-1-0.47-1.88-1.12-2.64-1.96v10.06h-4.02v-30.46h2.4c0.57,0,0.92,0.28,1.05,0.83L402.25,781.15z
	 M402.45,794.89c0.73,0.99,1.53,1.68,2.4,2.09c0.87,0.41,1.84,0.61,2.92,0.61c2.13,0,3.76-0.76,4.89-2.27
	c1.14-1.51,1.71-3.67,1.71-6.47c0-1.48-0.13-2.76-0.39-3.82c-0.26-1.06-0.65-1.94-1.14-2.62c-0.49-0.68-1.1-1.17-1.82-1.49
	c-0.72-0.32-1.53-0.47-2.45-0.47c-1.3,0-2.44,0.3-3.42,0.9c-0.98,0.6-1.89,1.44-2.71,2.54V794.89z M393.17,797.18
	c-0.49,0.6-1.09,1.12-1.77,1.56c-0.69,0.44-1.42,0.81-2.21,1.09c-0.79,0.28-1.6,0.49-2.44,0.64c-0.84,0.14-1.67,0.22-2.49,0.22
	c-1.57,0-3.02-0.27-4.34-0.8c-1.33-0.53-2.47-1.31-3.44-2.34c-0.97-1.03-1.72-2.29-2.26-3.8c-0.54-1.51-0.81-3.25-0.81-5.21
	c0-1.59,0.25-3.07,0.73-4.44c0.49-1.38,1.18-2.58,2.1-3.59c0.91-1.01,2.03-1.81,3.35-2.38c1.32-0.57,2.8-0.86,4.45-0.86
	c1.36,0,2.63,0.23,3.79,0.68c1.16,0.46,2.16,1.12,3.01,1.98c0.85,0.86,1.51,1.92,1.99,3.19c0.48,1.26,0.72,2.71,0.72,4.33
	c0,0.63-0.07,1.05-0.2,1.26c-0.14,0.21-0.39,0.31-0.76,0.31h-15.21c0.05,1.44,0.25,2.69,0.6,3.75c0.35,1.06,0.84,1.95,1.47,2.66
	c0.63,0.71,1.38,1.24,2.25,1.59c0.87,0.35,1.84,0.53,2.92,0.53c1,0,1.87-0.12,2.6-0.35c0.73-0.23,1.35-0.48,1.87-0.75
	c0.52-0.27,0.96-0.53,1.32-0.76c0.35-0.23,0.65-0.34,0.9-0.34c0.33,0,0.58,0.13,0.76,0.38L393.17,797.18z M389.94,786.52
	c0-0.93-0.13-1.78-0.39-2.55c-0.26-0.77-0.64-1.44-1.14-2c-0.5-0.56-1.12-1-1.84-1.3c-0.72-0.31-1.54-0.46-2.45-0.46
	c-1.92,0-3.43,0.56-4.54,1.67c-1.12,1.12-1.81,2.66-2.08,4.64H389.94z M357.6,777.29c1.87,0.08,3.56,0.4,5.05,0.99
	c1.5,0.58,2.77,1.38,3.82,2.4c1.05,1.02,1.86,2.22,2.42,3.62c0.56,1.4,0.84,2.96,0.84,4.69c0,1.72-0.28,3.28-0.84,4.68
	c-0.56,1.4-1.37,2.6-2.42,3.61c-1.05,1.01-2.32,1.81-3.82,2.4c-1.5,0.58-3.18,0.91-5.05,0.99v7.55h-3.77v-7.55
	c-1.87-0.08-3.56-0.4-5.05-0.99c-1.5-0.58-2.77-1.39-3.82-2.4c-1.05-1.01-1.85-2.22-2.41-3.61c-0.56-1.4-0.85-2.96-0.85-4.68
	c0-1.72,0.28-3.29,0.85-4.69c0.56-1.4,1.36-2.6,2.41-3.62c1.05-1.02,2.32-1.82,3.82-2.4c1.5-0.58,3.18-0.91,5.05-0.99v-9.1h3.77
	V777.29z M353.93,780.3c-1.35,0.07-2.53,0.32-3.55,0.75c-1.02,0.43-1.87,1.02-2.57,1.77c-0.69,0.75-1.22,1.65-1.57,2.69
	c-0.35,1.05-0.53,2.22-0.53,3.5c0,1.29,0.18,2.45,0.53,3.48c0.35,1.03,0.87,1.92,1.56,2.66c0.69,0.74,1.55,1.33,2.57,1.77
	c1.02,0.43,2.2,0.68,3.53,0.74l0.02-0.13V780.3z M357.48,797.66c1.33-0.06,2.51-0.31,3.54-0.74c1.03-0.43,1.89-1.03,2.59-1.77
	c0.7-0.74,1.22-1.62,1.57-2.66c0.35-1.03,0.52-2.19,0.52-3.48c0-1.3-0.17-2.48-0.52-3.52c-0.35-1.04-0.88-1.93-1.57-2.68
	c-0.7-0.75-1.56-1.34-2.59-1.77c-1.03-0.43-2.22-0.67-3.56-0.75v17.16L357.48,797.66z M337.83,781.67
	c-0.12,0.16-0.24,0.29-0.36,0.38c-0.12,0.09-0.28,0.14-0.49,0.14c-0.22,0-0.47-0.1-0.74-0.29c-0.27-0.19-0.6-0.39-1-0.62
	c-0.4-0.22-0.88-0.43-1.46-0.62c-0.57-0.19-1.29-0.28-2.13-0.28c-1.12,0-2.11,0.2-2.96,0.59c-0.85,0.4-1.57,0.97-2.14,1.72
	c-0.58,0.75-1.01,1.65-1.3,2.72c-0.29,1.06-0.44,2.25-0.44,3.57c0,1.38,0.16,2.6,0.47,3.67c0.31,1.07,0.76,1.97,1.34,2.69
	c0.58,0.73,1.27,1.28,2.09,1.66c0.82,0.38,1.73,0.58,2.75,0.58c0.97,0,1.77-0.12,2.4-0.35c0.63-0.23,1.15-0.48,1.57-0.77
	c0.41-0.28,0.76-0.55,1.03-0.78c0.28-0.23,0.55-0.34,0.82-0.34c0.33,0,0.58,0.13,0.76,0.38l1.12,1.46
	c-0.49,0.62-1.06,1.14-1.69,1.58c-0.63,0.43-1.3,0.79-2.03,1.08c-0.73,0.29-1.49,0.51-2.28,0.64c-0.79,0.14-1.6,0.2-2.42,0.2
	c-1.42,0-2.74-0.26-3.96-0.79c-1.22-0.52-2.28-1.29-3.18-2.28c-0.9-0.99-1.6-2.22-2.11-3.67c-0.51-1.45-0.76-3.11-0.76-4.96
	c0-1.69,0.24-3.26,0.71-4.69c0.47-1.44,1.16-2.68,2.06-3.72c0.91-1.04,2.02-1.85,3.35-2.43c1.33-0.58,2.85-0.88,4.57-0.88
	c1.6,0,3.02,0.25,4.24,0.77c1.22,0.52,2.3,1.25,3.24,2.19L337.83,781.67z M296.53,777.62c1.41,0,2.61,0.14,3.62,0.43
	c1,0.29,1.83,0.67,2.47,1.15c0.64,0.49,1.11,1.07,1.41,1.72c0.3,0.66,0.45,1.36,0.45,2.11c0,0.49-0.07,1.01-0.2,1.55
	c-0.13,0.54-0.37,1.05-0.7,1.55c-0.34,0.49-0.79,0.94-1.37,1.33c-0.58,0.4-1.3,0.71-2.17,0.94c1.74,0.3,3.08,0.9,4.02,1.81
	c0.94,0.9,1.41,2.1,1.41,3.58c0,1.11-0.22,2.07-0.66,2.88c-0.44,0.82-1.05,1.5-1.82,2.06c-0.77,0.56-1.68,0.97-2.71,1.24
	c-1.03,0.27-2.14,0.4-3.32,0.4h-8.76v-22.75H296.53z M292.04,780.32v7.14h4.38c0.66,0,1.27-0.1,1.83-0.28
	c0.56-0.19,1.04-0.45,1.45-0.79c0.4-0.34,0.72-0.74,0.94-1.21c0.22-0.47,0.34-0.99,0.34-1.56c0-0.42-0.08-0.83-0.23-1.23
	c-0.15-0.4-0.4-0.75-0.76-1.06c-0.36-0.31-0.83-0.55-1.42-0.74c-0.58-0.19-1.3-0.28-2.16-0.28H292.04z M296.93,797.57
	c1.5,0,2.68-0.35,3.55-1.05c0.87-0.7,1.3-1.65,1.3-2.86c0-0.54-0.08-1.03-0.25-1.47c-0.17-0.44-0.43-0.82-0.81-1.15
	c-0.37-0.33-0.87-0.58-1.49-0.76c-0.62-0.18-1.39-0.27-2.28-0.27h-4.92v7.57H296.93z M270.36,777.62v22.75h-4v-15.45
	c0-0.3,0.02-0.62,0.05-0.96c0.03-0.34,0.07-0.69,0.11-1.03c-0.14,0.3-0.27,0.58-0.4,0.83c-0.14,0.25-0.28,0.49-0.43,0.69
	l-10.98,14.94c-0.17,0.24-0.37,0.46-0.62,0.68c-0.25,0.22-0.53,0.33-0.82,0.33h-2.43v-22.75h4.02v15.45c0,0.28-0.02,0.59-0.04,0.93
	c-0.03,0.34-0.07,0.68-0.11,1.03c0.13-0.29,0.27-0.55,0.4-0.8c0.13-0.25,0.27-0.47,0.4-0.68l10.98-14.94
	c0.17-0.24,0.38-0.47,0.63-0.69c0.25-0.22,0.53-0.32,0.83-0.32H270.36z M247.05,780.68h-10.74v19.7h-4.02v-22.75h14.76V780.68z
	 M228.77,777.62l-12.69,29.47c-0.13,0.3-0.3,0.54-0.5,0.72c-0.2,0.18-0.52,0.27-0.94,0.27h-2.96l4.16-9.03l-9.39-21.43h3.46
	c0.34,0,0.62,0.08,0.82,0.25c0.2,0.17,0.34,0.37,0.41,0.57l6.09,14.33c0.24,0.63,0.44,1.29,0.61,1.97c0.21-0.7,0.44-1.37,0.67-2
	l5.91-14.31c0.09-0.24,0.25-0.44,0.46-0.6c0.22-0.16,0.46-0.23,0.73-0.23H228.77z M202.81,800.38h-4v-19.61h-7.19
	c-0.18,2.89-0.45,5.38-0.81,7.49c-0.36,2.1-0.79,3.89-1.29,5.37c-0.5,1.47-1.06,2.67-1.69,3.59c-0.62,0.92-1.27,1.64-1.95,2.15
	c-0.68,0.51-1.38,0.85-2.11,1.03c-0.72,0.18-1.45,0.27-2.17,0.27c-1.27,0-1.91-0.2-1.91-0.61v-2.54h1.17c0.51,0,1.02-0.09,1.55-0.27
	c0.52-0.18,1.04-0.52,1.54-1.03c0.5-0.51,0.98-1.23,1.44-2.15c0.47-0.92,0.89-2.12,1.27-3.59c0.38-1.47,0.71-3.26,0.99-5.37
	c0.28-2.1,0.49-4.6,0.64-7.49h14.51V800.38z M177.25,781.67c-0.12,0.16-0.24,0.29-0.36,0.38c-0.12,0.09-0.28,0.14-0.49,0.14
	c-0.23,0-0.47-0.1-0.74-0.29c-0.27-0.19-0.6-0.39-0.99-0.62c-0.4-0.22-0.88-0.43-1.46-0.62c-0.58-0.19-1.29-0.28-2.13-0.28
	c-1.12,0-2.11,0.2-2.97,0.59c-0.85,0.4-1.56,0.97-2.14,1.72c-0.57,0.75-1.01,1.65-1.3,2.72c-0.29,1.06-0.44,2.25-0.44,3.57
	c0,1.38,0.16,2.6,0.47,3.67c0.31,1.07,0.76,1.97,1.34,2.69c0.58,0.73,1.27,1.28,2.09,1.66c0.82,0.38,1.73,0.58,2.75,0.58
	c0.97,0,1.77-0.12,2.4-0.35c0.63-0.23,1.15-0.48,1.57-0.77c0.41-0.28,0.76-0.55,1.03-0.78c0.28-0.23,0.55-0.34,0.81-0.34
	c0.33,0,0.58,0.13,0.76,0.38l1.12,1.46c-0.49,0.62-1.06,1.14-1.68,1.58c-0.63,0.43-1.3,0.79-2.03,1.08
	c-0.73,0.29-1.49,0.51-2.28,0.64c-0.79,0.14-1.6,0.2-2.43,0.2c-1.42,0-2.74-0.26-3.96-0.79c-1.22-0.52-2.28-1.29-3.18-2.28
	c-0.9-0.99-1.6-2.22-2.11-3.67c-0.51-1.45-0.76-3.11-0.76-4.96c0-1.69,0.24-3.26,0.71-4.69c0.47-1.44,1.16-2.68,2.07-3.72
	c0.91-1.04,2.02-1.85,3.35-2.43c1.32-0.58,2.84-0.88,4.57-0.88c1.6,0,3.02,0.25,4.24,0.77c1.22,0.52,2.3,1.25,3.24,2.19
	L177.25,781.67z M162.31,768.19l-13.07,27.98c-0.4,0.89-0.84,1.61-1.31,2.19c-0.47,0.58-0.98,1.03-1.52,1.37
	c-0.54,0.34-1.12,0.58-1.75,0.72c-0.63,0.14-1.3,0.22-2.02,0.22c-0.81,0-1.43-0.08-1.86-0.22c-0.43-0.14-0.65-0.35-0.65-0.64v-2.76
	h1.57c0.38,0,0.75-0.04,1.12-0.13c0.37-0.08,0.73-0.22,1.08-0.43c0.34-0.21,0.67-0.49,0.99-0.85c0.31-0.35,0.6-0.79,0.85-1.33
	l1.57-3.28l-12.94-22.84h4.07c0.39,0,0.7,0.09,0.92,0.28c0.23,0.19,0.42,0.44,0.58,0.73l7.95,14.6c0.56,1.06,1,2.14,1.35,3.23
	c0.16-0.54,0.35-1.08,0.55-1.62c0.2-0.54,0.43-1.08,0.68-1.62l6.76-14.6c0.12-0.25,0.31-0.48,0.55-0.7
	c0.25-0.21,0.55-0.31,0.93-0.31H162.31z M865.62,777.62v22.75h-4v-15.45c0-0.3,0.01-0.62,0.04-0.96c0.03-0.34,0.07-0.69,0.11-1.03
	c-0.13,0.3-0.27,0.58-0.4,0.83c-0.13,0.25-0.28,0.49-0.43,0.69l-10.98,14.94c-0.16,0.24-0.37,0.46-0.62,0.68
	c-0.25,0.22-0.52,0.33-0.82,0.33h-2.43v-22.75h4.02v15.45c0,0.28-0.01,0.59-0.04,0.93c-0.03,0.34-0.07,0.68-0.11,1.03
	c0.13-0.29,0.27-0.55,0.4-0.8c0.13-0.25,0.27-0.47,0.4-0.68l10.98-14.94c0.16-0.24,0.37-0.47,0.63-0.69
	c0.25-0.22,0.53-0.32,0.83-0.32H865.62z M842.31,780.68h-8.74v19.7h-4v-19.7h-8.74v-3.05h21.47V780.68z M801.05,780.84
	c1.26-1.21,2.61-2.12,4.07-2.72c1.45-0.6,3.06-0.9,4.83-0.9c1.27,0,2.4,0.21,3.39,0.63c0.99,0.42,1.82,1,2.49,1.75
	c0.67,0.75,1.18,1.66,1.53,2.72c0.34,1.06,0.52,2.23,0.52,3.5v14.55h-1.77c-0.39,0-0.69-0.07-0.9-0.2
	c-0.21-0.13-0.38-0.37-0.49-0.75l-0.45-2.16c-0.6,0.56-1.18,1.04-1.75,1.47c-0.57,0.43-1.17,0.79-1.8,1.08
	c-0.63,0.29-1.3,0.52-2.01,0.67c-0.71,0.16-1.5,0.24-2.37,0.24c-0.88,0-1.72-0.13-2.49-0.38c-0.78-0.25-1.45-0.61-2.03-1.11
	c-0.58-0.49-1.03-1.12-1.37-1.88c-0.34-0.76-0.51-1.65-0.51-2.68c0-0.9,0.25-1.77,0.74-2.6c0.49-0.83,1.3-1.57,2.4-2.21
	c1.11-0.64,2.55-1.18,4.34-1.59c1.78-0.41,3.97-0.64,6.56-0.7v-1.77c0-1.77-0.38-3.11-1.15-4.01c-0.76-0.91-1.88-1.36-3.35-1.36
	c-0.99,0-1.81,0.12-2.48,0.37c-0.67,0.25-1.24,0.53-1.73,0.83c-0.49,0.31-0.91,0.58-1.26,0.83c-0.35,0.25-0.7,0.37-1.05,0.37
	c-0.27,0-0.5-0.07-0.7-0.22c-0.2-0.14-0.36-0.31-0.49-0.52L801.05,780.84z M813.97,790.13c-1.84,0.06-3.41,0.2-4.7,0.43
	c-1.3,0.23-2.35,0.54-3.17,0.91c-0.81,0.38-1.41,0.82-1.77,1.33c-0.37,0.51-0.55,1.08-0.55,1.7c0,0.6,0.1,1.12,0.29,1.55
	c0.2,0.43,0.46,0.79,0.8,1.06c0.34,0.28,0.73,0.48,1.19,0.61c0.46,0.13,0.94,0.2,1.47,0.2c0.7,0,1.35-0.07,1.93-0.22
	c0.58-0.14,1.14-0.34,1.66-0.61c0.52-0.27,1.01-0.59,1.48-0.97c0.47-0.38,0.93-0.8,1.38-1.28V790.13z M795.28,777.62v22.75h-4v-9.66
	c-1.95,0.51-3.77,0.82-5.49,0.95c-1.72,0.13-3.21,0-4.49-0.39c-1.28-0.39-2.29-1.08-3.03-2.06c-0.74-0.98-1.12-2.34-1.12-4.07v-7.52
	h4.02v6.92c0,1.09,0.22,1.95,0.67,2.58c0.44,0.63,1.08,1.06,1.94,1.3c0.85,0.24,1.91,0.31,3.17,0.2c1.26-0.11,2.7-0.35,4.34-0.74
	v-10.26H795.28z M773.25,797.18c-0.49,0.6-1.09,1.12-1.77,1.56c-0.69,0.44-1.42,0.81-2.21,1.09c-0.79,0.28-1.6,0.49-2.44,0.64
	c-0.84,0.14-1.67,0.22-2.49,0.22c-1.57,0-3.02-0.27-4.34-0.8c-1.33-0.53-2.47-1.31-3.44-2.34c-0.97-1.03-1.72-2.29-2.26-3.8
	c-0.54-1.51-0.81-3.25-0.81-5.21c0-1.59,0.25-3.07,0.73-4.44c0.49-1.38,1.18-2.58,2.1-3.59c0.91-1.01,2.03-1.81,3.35-2.38
	c1.32-0.57,2.8-0.86,4.44-0.86c1.36,0,2.63,0.23,3.79,0.68c1.16,0.46,2.16,1.12,3.01,1.98c0.85,0.86,1.5,1.92,1.98,3.19
	c0.48,1.26,0.72,2.71,0.72,4.33c0,0.63-0.07,1.05-0.2,1.26c-0.13,0.21-0.39,0.31-0.76,0.31h-15.2c0.05,1.44,0.25,2.69,0.6,3.75
	c0.35,1.06,0.84,1.95,1.47,2.66c0.63,0.71,1.38,1.24,2.25,1.59c0.87,0.35,1.84,0.53,2.92,0.53c1,0,1.87-0.12,2.6-0.35
	c0.73-0.23,1.35-0.48,1.87-0.75c0.52-0.27,0.96-0.53,1.32-0.76c0.35-0.23,0.65-0.34,0.9-0.34c0.33,0,0.58,0.13,0.76,0.38
	L773.25,797.18z M770.02,786.52c0-0.93-0.13-1.78-0.39-2.55c-0.26-0.77-0.64-1.44-1.14-2c-0.5-0.56-1.12-1-1.84-1.3
	c-0.72-0.31-1.53-0.46-2.45-0.46c-1.91,0-3.43,0.56-4.54,1.67s-1.81,2.66-2.08,4.64H770.02z M800.53,831.59v22.75h-3.99v-15.45
	c0-0.3,0.01-0.62,0.04-0.96c0.03-0.34,0.07-0.69,0.11-1.03c-0.13,0.3-0.27,0.57-0.4,0.83c-0.13,0.25-0.28,0.49-0.43,0.7
	l-10.98,14.94c-0.17,0.24-0.37,0.46-0.62,0.68c-0.25,0.22-0.52,0.33-0.82,0.33h-2.42v-22.75h4.02v15.45c0,0.28-0.02,0.59-0.04,0.93
	c-0.03,0.34-0.07,0.68-0.11,1.03c0.13-0.29,0.27-0.56,0.4-0.8c0.13-0.25,0.27-0.47,0.4-0.68l10.98-14.94
	c0.16-0.24,0.37-0.47,0.63-0.69c0.25-0.22,0.53-0.32,0.83-0.32H800.53z M771.59,832.71c0.21-0.33,0.48-0.6,0.83-0.81
	c0.34-0.21,0.71-0.31,1.1-0.31h3.12l-5.91,8.67c-0.36,0.56-0.73,1-1.12,1.36c-0.39,0.35-0.87,0.63-1.44,0.82
	c0.72,0.19,1.33,0.49,1.82,0.9c0.49,0.41,0.94,0.94,1.32,1.59l5.97,9.41h-2.79c-0.72,0-1.27-0.12-1.66-0.36
	c-0.39-0.24-0.72-0.58-1.01-1.03l-4.42-7.08c-0.7-1.17-1.76-1.75-3.17-1.75h-2.45v10.24h-4.02v-22.77h4.02v9.84h2.15
	c1.2,0,2.13-0.51,2.81-1.53L771.59,832.71z M741.9,851.53c2.25,0,3.92-0.76,5.03-2.26c1.11-1.51,1.66-3.6,1.66-6.3
	c0-2.71-0.55-4.82-1.66-6.33c-1.11-1.51-2.78-2.27-5.03-2.27c-1.14,0-2.13,0.2-2.97,0.58c-0.85,0.39-1.55,0.95-2.11,1.68
	c-0.56,0.73-0.98,1.63-1.26,2.7c-0.28,1.07-0.42,2.28-0.42,3.63c0,2.7,0.56,4.79,1.67,6.3C737.93,850.78,739.62,851.53,741.9,851.53
	z M741.9,831.23c1.66,0,3.16,0.28,4.49,0.83c1.33,0.55,2.47,1.34,3.42,2.36c0.94,1.02,1.67,2.24,2.17,3.69
	c0.5,1.44,0.75,3.06,0.75,4.84c0,1.8-0.25,3.41-0.75,4.85c-0.5,1.44-1.23,2.67-2.17,3.69c-0.94,1.02-2.08,1.8-3.42,2.34
	c-1.33,0.55-2.83,0.82-4.49,0.82c-1.68,0-3.18-0.28-4.52-0.82c-1.34-0.55-2.48-1.32-3.43-2.34c-0.94-1.02-1.66-2.25-2.16-3.69
	c-0.5-1.44-0.76-3.05-0.76-4.85c0-1.78,0.25-3.4,0.76-4.84c0.5-1.44,1.22-2.67,2.16-3.69c0.94-1.02,2.09-1.81,3.43-2.36
	C738.71,831.51,740.22,831.23,741.9,831.23z M710.97,835.11c0.96-1.18,2.07-2.13,3.33-2.85c1.26-0.72,2.69-1.08,4.31-1.08
	c1.32,0,2.51,0.25,3.57,0.75c1.07,0.5,1.97,1.24,2.72,2.22c0.75,0.98,1.32,2.2,1.73,3.65c0.4,1.45,0.61,3.12,0.61,5.01
	c0,1.68-0.22,3.23-0.67,4.68c-0.45,1.44-1.09,2.69-1.94,3.75c-0.85,1.06-1.88,1.89-3.1,2.49c-1.22,0.61-2.6,0.91-4.12,0.91
	c-1.39,0-2.58-0.24-3.58-0.71c-1-0.47-1.88-1.12-2.64-1.96v10.06h-4.02v-30.46h2.4c0.57,0,0.92,0.28,1.06,0.83L710.97,835.11z
	 M711.17,848.86c0.73,0.99,1.53,1.69,2.4,2.09c0.87,0.41,1.84,0.61,2.92,0.61c2.13,0,3.76-0.76,4.9-2.27
	c1.14-1.51,1.71-3.67,1.71-6.47c0-1.48-0.13-2.76-0.39-3.82c-0.26-1.07-0.65-1.94-1.14-2.62c-0.49-0.68-1.1-1.17-1.82-1.49
	c-0.72-0.32-1.54-0.47-2.45-0.47c-1.3,0-2.44,0.3-3.42,0.9c-0.98,0.6-1.89,1.44-2.71,2.54V848.86z M701.54,835.63
	c-0.12,0.17-0.24,0.29-0.36,0.38c-0.12,0.09-0.28,0.13-0.49,0.13c-0.22,0-0.47-0.1-0.74-0.28c-0.27-0.19-0.6-0.39-0.99-0.62
	c-0.4-0.22-0.88-0.43-1.46-0.62c-0.57-0.19-1.29-0.28-2.13-0.28c-1.12,0-2.11,0.2-2.97,0.59c-0.85,0.4-1.57,0.97-2.14,1.72
	c-0.58,0.75-1.01,1.65-1.3,2.72c-0.29,1.07-0.44,2.26-0.44,3.57c0,1.38,0.16,2.6,0.47,3.67c0.31,1.07,0.76,1.97,1.34,2.69
	c0.57,0.73,1.27,1.28,2.09,1.66c0.82,0.38,1.73,0.58,2.75,0.58c0.97,0,1.77-0.12,2.4-0.35c0.63-0.23,1.15-0.48,1.57-0.77
	c0.41-0.28,0.76-0.55,1.03-0.78c0.28-0.23,0.54-0.34,0.82-0.34c0.33,0,0.58,0.13,0.76,0.38l1.12,1.46
	c-0.49,0.62-1.06,1.14-1.69,1.57c-0.63,0.43-1.3,0.79-2.03,1.09c-0.73,0.29-1.49,0.51-2.28,0.64c-0.79,0.13-1.6,0.2-2.43,0.2
	c-1.42,0-2.74-0.26-3.96-0.79c-1.22-0.52-2.28-1.29-3.18-2.28c-0.9-0.99-1.6-2.22-2.11-3.67c-0.51-1.45-0.76-3.11-0.76-4.96
	c0-1.69,0.24-3.26,0.71-4.7c0.47-1.44,1.16-2.68,2.07-3.72c0.91-1.04,2.02-1.85,3.35-2.43c1.32-0.58,2.84-0.88,4.57-0.88
	c1.6,0,3.02,0.25,4.24,0.77c1.22,0.52,2.3,1.25,3.24,2.19L701.54,835.63z M668.95,851.15c-0.5,0.6-1.09,1.12-1.78,1.56
	c-0.69,0.44-1.42,0.81-2.21,1.09c-0.79,0.28-1.6,0.49-2.44,0.63c-0.84,0.14-1.67,0.22-2.49,0.22c-1.57,0-3.02-0.27-4.34-0.8
	c-1.32-0.53-2.47-1.31-3.43-2.33c-0.97-1.03-1.72-2.29-2.26-3.81c-0.54-1.51-0.81-3.25-0.81-5.21c0-1.59,0.25-3.07,0.73-4.45
	c0.49-1.38,1.18-2.57,2.1-3.58c0.91-1.01,2.03-1.81,3.34-2.38c1.32-0.58,2.8-0.86,4.45-0.86c1.36,0,2.63,0.23,3.79,0.68
	c1.16,0.46,2.16,1.12,3.01,1.98c0.85,0.86,1.51,1.92,1.99,3.19c0.48,1.26,0.72,2.71,0.72,4.33c0,0.63-0.07,1.05-0.2,1.26
	c-0.13,0.21-0.39,0.31-0.76,0.31h-15.2c0.05,1.44,0.25,2.69,0.6,3.75c0.35,1.07,0.84,1.95,1.47,2.66c0.63,0.71,1.38,1.24,2.25,1.59
	c0.87,0.35,1.84,0.53,2.92,0.53c1,0,1.87-0.12,2.6-0.35c0.73-0.23,1.35-0.48,1.87-0.75c0.52-0.27,0.96-0.53,1.32-0.76
	c0.35-0.23,0.65-0.34,0.9-0.34c0.33,0,0.58,0.13,0.76,0.38L668.95,851.15z M665.71,840.48c0-0.93-0.13-1.78-0.39-2.55
	c-0.26-0.77-0.64-1.44-1.14-2c-0.5-0.56-1.12-1-1.83-1.3c-0.72-0.31-1.53-0.46-2.45-0.46c-1.92,0-3.43,0.56-4.54,1.67
	c-1.12,1.11-1.81,2.66-2.08,4.64H665.71z M644.15,831.59v22.75h-4v-15.45c0-0.3,0.01-0.62,0.04-0.96c0.03-0.34,0.07-0.69,0.11-1.03
	c-0.13,0.3-0.27,0.57-0.4,0.83c-0.13,0.25-0.28,0.49-0.43,0.7l-10.98,14.94c-0.16,0.24-0.37,0.46-0.61,0.68
	c-0.25,0.22-0.53,0.33-0.82,0.33h-2.43v-22.75h4.02v15.45c0,0.28-0.01,0.59-0.04,0.93c-0.03,0.34-0.07,0.68-0.11,1.03
	c0.13-0.29,0.27-0.56,0.4-0.8c0.13-0.25,0.27-0.47,0.4-0.68l10.98-14.94c0.16-0.24,0.37-0.47,0.63-0.69
	c0.25-0.22,0.53-0.32,0.83-0.32H644.15z M615.2,832.71c0.21-0.33,0.49-0.6,0.83-0.81c0.34-0.21,0.71-0.31,1.1-0.31h3.12l-5.91,8.67
	c-0.36,0.56-0.73,1-1.12,1.36c-0.39,0.35-0.87,0.63-1.44,0.82c0.72,0.19,1.33,0.49,1.82,0.9c0.49,0.41,0.94,0.94,1.32,1.59
	l5.97,9.41h-2.78c-0.72,0-1.27-0.12-1.66-0.36c-0.39-0.24-0.73-0.58-1.01-1.03l-4.43-7.08c-0.71-1.17-1.76-1.75-3.17-1.75h-2.45
	v10.24h-4.02v-22.77h4.02v9.84h2.16c1.2,0,2.14-0.51,2.81-1.53L615.2,832.71z M597.59,834.64h-8.74v19.7h-4v-19.7h-8.74v-3.05h21.47
	V834.64z M563.73,851.53c2.24,0,3.92-0.76,5.03-2.26c1.11-1.51,1.66-3.6,1.66-6.3c0-2.71-0.55-4.82-1.66-6.33
	c-1.11-1.51-2.79-2.27-5.03-2.27c-1.14,0-2.13,0.2-2.97,0.58c-0.85,0.39-1.55,0.95-2.11,1.68c-0.56,0.73-0.98,1.63-1.26,2.7
	c-0.28,1.07-0.42,2.28-0.42,3.63c0,2.7,0.56,4.79,1.68,6.3C559.76,850.78,561.45,851.53,563.73,851.53z M563.73,831.23
	c1.66,0,3.16,0.28,4.49,0.83c1.33,0.55,2.47,1.34,3.42,2.36c0.94,1.02,1.67,2.24,2.17,3.69c0.5,1.44,0.75,3.06,0.75,4.84
	c0,1.8-0.25,3.41-0.75,4.85c-0.5,1.44-1.23,2.67-2.17,3.69c-0.94,1.02-2.08,1.8-3.42,2.34c-1.33,0.55-2.83,0.82-4.49,0.82
	c-1.68,0-3.18-0.28-4.52-0.82c-1.34-0.55-2.49-1.32-3.43-2.34c-0.94-1.02-1.66-2.25-2.16-3.69c-0.5-1.44-0.76-3.05-0.76-4.85
	c0-1.78,0.25-3.4,0.76-4.84c0.5-1.44,1.22-2.67,2.16-3.69c0.94-1.02,2.09-1.81,3.43-2.36C560.54,831.51,562.05,831.23,563.73,831.23
	z M532.8,835.11c0.96-1.18,2.07-2.13,3.32-2.85c1.26-0.72,2.7-1.08,4.31-1.08c1.32,0,2.51,0.25,3.57,0.75
	c1.07,0.5,1.97,1.24,2.72,2.22c0.75,0.98,1.33,2.2,1.73,3.65c0.4,1.45,0.61,3.12,0.61,5.01c0,1.68-0.22,3.23-0.67,4.68
	c-0.45,1.44-1.09,2.69-1.94,3.75c-0.85,1.06-1.88,1.89-3.1,2.49c-1.22,0.61-2.6,0.91-4.12,0.91c-1.39,0-2.58-0.24-3.58-0.71
	c-1-0.47-1.88-1.12-2.64-1.96v10.06h-4.02v-30.46h2.4c0.57,0,0.92,0.28,1.06,0.83L532.8,835.11z M533,848.86
	c0.73,0.99,1.53,1.69,2.4,2.09c0.87,0.41,1.84,0.61,2.92,0.61c2.13,0,3.76-0.76,4.89-2.27c1.14-1.51,1.71-3.67,1.71-6.47
	c0-1.48-0.13-2.76-0.39-3.82c-0.26-1.07-0.65-1.94-1.14-2.62c-0.49-0.68-1.1-1.17-1.82-1.49c-0.72-0.32-1.54-0.47-2.45-0.47
	c-1.3,0-2.44,0.3-3.42,0.9c-0.98,0.6-1.89,1.44-2.71,2.54V848.86z M513.1,851.53c2.25,0,3.92-0.76,5.03-2.26
	c1.11-1.51,1.66-3.6,1.66-6.3c0-2.71-0.55-4.82-1.66-6.33c-1.11-1.51-2.78-2.27-5.03-2.27c-1.14,0-2.13,0.2-2.97,0.58
	c-0.85,0.39-1.55,0.95-2.11,1.68c-0.56,0.73-0.98,1.63-1.26,2.7c-0.28,1.07-0.42,2.28-0.42,3.63c0,2.7,0.56,4.79,1.68,6.3
	C509.14,850.78,510.83,851.53,513.1,851.53z M513.1,831.23c1.66,0,3.16,0.28,4.49,0.83c1.33,0.55,2.47,1.34,3.41,2.36
	c0.94,1.02,1.67,2.24,2.17,3.69c0.5,1.44,0.75,3.06,0.75,4.84c0,1.8-0.25,3.41-0.75,4.85c-0.5,1.44-1.23,2.67-2.17,3.69
	c-0.94,1.02-2.08,1.8-3.41,2.34c-1.33,0.55-2.83,0.82-4.49,0.82c-1.68,0-3.18-0.28-4.52-0.82c-1.34-0.55-2.49-1.32-3.43-2.34
	c-0.94-1.02-1.66-2.25-2.16-3.69c-0.5-1.44-0.76-3.05-0.76-4.85c0-1.78,0.25-3.4,0.76-4.84c0.5-1.44,1.22-2.67,2.16-3.69
	c0.94-1.02,2.09-1.81,3.43-2.36C509.92,831.51,511.42,831.23,513.1,831.23z M494.98,832.71c0.21-0.33,0.49-0.6,0.83-0.81
	c0.34-0.21,0.71-0.31,1.1-0.31h3.12l-5.91,8.67c-0.36,0.56-0.73,1-1.12,1.36c-0.39,0.35-0.87,0.63-1.44,0.82
	c0.72,0.19,1.32,0.49,1.82,0.9c0.49,0.41,0.94,0.94,1.32,1.59l5.98,9.41h-2.78c-0.72,0-1.27-0.12-1.66-0.36
	c-0.39-0.24-0.73-0.58-1.01-1.03l-4.42-7.08c-0.7-1.17-1.76-1.75-3.17-1.75h-2.45v10.24h-4.02v-22.77h4.02v9.84h2.16
	c1.2,0,2.14-0.51,2.81-1.53L494.98,832.71z M455.7,831.59c1.41,0,2.61,0.14,3.62,0.43c1,0.29,1.83,0.67,2.47,1.15
	c0.65,0.49,1.12,1.07,1.42,1.72c0.3,0.66,0.45,1.36,0.45,2.11c0,0.49-0.07,1.01-0.2,1.55c-0.13,0.54-0.37,1.06-0.7,1.55
	c-0.34,0.49-0.79,0.94-1.37,1.33c-0.58,0.4-1.3,0.71-2.17,0.94c1.74,0.3,3.08,0.9,4.02,1.81c0.94,0.9,1.41,2.1,1.41,3.58
	c0,1.11-0.22,2.07-0.66,2.88c-0.44,0.82-1.05,1.5-1.82,2.06c-0.77,0.56-1.68,0.97-2.71,1.24c-1.03,0.27-2.14,0.4-3.32,0.4h-8.76
	v-22.75H455.7z M451.21,834.28v7.14h4.38c0.66,0,1.27-0.1,1.83-0.28c0.56-0.19,1.04-0.45,1.45-0.79c0.4-0.34,0.72-0.74,0.94-1.21
	c0.22-0.47,0.34-0.99,0.34-1.56c0-0.42-0.08-0.83-0.23-1.22c-0.15-0.4-0.4-0.75-0.76-1.06c-0.36-0.31-0.83-0.55-1.42-0.74
	c-0.58-0.19-1.3-0.28-2.16-0.28H451.21z M456.1,851.53c1.5,0,2.68-0.35,3.55-1.05c0.87-0.7,1.3-1.65,1.3-2.86
	c0-0.54-0.08-1.03-0.25-1.48c-0.17-0.44-0.43-0.82-0.81-1.15c-0.37-0.33-0.87-0.58-1.49-0.76c-0.62-0.18-1.39-0.27-2.28-0.27h-4.92
	v7.57H456.1z M421.9,831.59c1.41,0,2.61,0.14,3.62,0.43c1,0.29,1.82,0.67,2.47,1.15c0.65,0.49,1.12,1.07,1.42,1.72
	c0.3,0.66,0.45,1.36,0.45,2.11c0,0.49-0.07,1.01-0.2,1.55c-0.13,0.54-0.37,1.06-0.7,1.55c-0.34,0.49-0.79,0.94-1.37,1.33
	c-0.58,0.4-1.3,0.71-2.17,0.94c1.73,0.3,3.07,0.9,4.02,1.81c0.94,0.9,1.41,2.1,1.41,3.58c0,1.11-0.22,2.07-0.66,2.88
	c-0.44,0.82-1.05,1.5-1.82,2.06c-0.77,0.56-1.68,0.97-2.71,1.24c-1.03,0.27-2.14,0.4-3.32,0.4h-8.76v-22.75H421.9z M417.41,834.28
	v7.14h4.38c0.66,0,1.27-0.1,1.83-0.28c0.56-0.19,1.04-0.45,1.45-0.79c0.4-0.34,0.72-0.74,0.94-1.21c0.22-0.47,0.34-0.99,0.34-1.56
	c0-0.42-0.07-0.83-0.22-1.22c-0.15-0.4-0.4-0.75-0.76-1.06c-0.36-0.31-0.83-0.55-1.42-0.74c-0.58-0.19-1.3-0.28-2.16-0.28H417.41z
	 M422.3,851.53c1.5,0,2.68-0.35,3.55-1.05c0.87-0.7,1.3-1.65,1.3-2.86c0-0.54-0.08-1.03-0.25-1.48c-0.17-0.44-0.44-0.82-0.81-1.15
	c-0.37-0.33-0.87-0.58-1.49-0.76c-0.62-0.18-1.39-0.27-2.28-0.27h-4.92v7.57H422.3z M397.69,851.53c2.25,0,3.92-0.76,5.03-2.26
	c1.11-1.51,1.66-3.6,1.66-6.3c0-2.71-0.55-4.82-1.66-6.33c-1.11-1.51-2.78-2.27-5.03-2.27c-1.14,0-2.13,0.2-2.97,0.58
	c-0.85,0.39-1.55,0.95-2.11,1.68c-0.56,0.73-0.98,1.63-1.26,2.7c-0.28,1.07-0.42,2.28-0.42,3.63c0,2.7,0.56,4.79,1.68,6.3
	C393.72,850.78,395.41,851.53,397.69,851.53z M397.69,831.23c1.66,0,3.16,0.28,4.49,0.83c1.33,0.55,2.47,1.34,3.41,2.36
	c0.94,1.02,1.67,2.24,2.17,3.69c0.5,1.44,0.75,3.06,0.75,4.84c0,1.8-0.25,3.41-0.75,4.85c-0.5,1.44-1.23,2.67-2.17,3.69
	c-0.94,1.02-2.08,1.8-3.41,2.34c-1.33,0.55-2.83,0.82-4.49,0.82c-1.68,0-3.18-0.28-4.52-0.82c-1.34-0.55-2.49-1.32-3.43-2.34
	c-0.94-1.02-1.66-2.25-2.16-3.69c-0.5-1.44-0.76-3.05-0.76-4.85c0-1.78,0.25-3.4,0.76-4.84c0.5-1.44,1.22-2.67,2.16-3.69
	c0.94-1.02,2.09-1.81,3.43-2.36C394.5,831.51,396.01,831.23,397.69,831.23z M385.22,834.64h-8.74v19.7h-4v-19.7h-8.74v-3.05h21.47
	V834.64z M359.98,831.59v22.75h-4.02v-10.65h-10.92v10.65h-4.02v-22.75h4.02v9.07h10.92v-9.07H359.98z M335.77,851.15
	c-0.5,0.6-1.09,1.12-1.78,1.56c-0.69,0.44-1.42,0.81-2.21,1.09c-0.79,0.28-1.6,0.49-2.44,0.63c-0.84,0.14-1.67,0.22-2.49,0.22
	c-1.57,0-3.02-0.27-4.34-0.8c-1.33-0.53-2.47-1.31-3.44-2.33c-0.96-1.03-1.72-2.29-2.26-3.81c-0.54-1.51-0.81-3.25-0.81-5.21
	c0-1.59,0.25-3.07,0.73-4.45c0.49-1.38,1.18-2.57,2.09-3.58c0.91-1.01,2.03-1.81,3.35-2.38c1.32-0.58,2.8-0.86,4.45-0.86
	c1.36,0,2.63,0.23,3.79,0.68c1.16,0.46,2.16,1.12,3.01,1.98c0.85,0.86,1.51,1.92,1.99,3.19c0.48,1.26,0.72,2.71,0.72,4.33
	c0,0.63-0.07,1.05-0.2,1.26c-0.13,0.21-0.39,0.31-0.76,0.31h-15.21c0.05,1.44,0.25,2.69,0.6,3.75c0.35,1.07,0.84,1.95,1.47,2.66
	c0.63,0.71,1.38,1.24,2.25,1.59c0.87,0.35,1.84,0.53,2.92,0.53c1,0,1.87-0.12,2.6-0.35c0.73-0.23,1.35-0.48,1.87-0.75
	c0.52-0.27,0.96-0.53,1.32-0.76c0.35-0.23,0.65-0.34,0.9-0.34c0.33,0,0.58,0.13,0.76,0.38L335.77,851.15z M332.53,840.48
	c0-0.93-0.13-1.78-0.39-2.55c-0.26-0.77-0.64-1.44-1.14-2c-0.5-0.56-1.12-1-1.84-1.3c-0.72-0.31-1.53-0.46-2.45-0.46
	c-1.92,0-3.43,0.56-4.54,1.67c-1.12,1.11-1.81,2.66-2.08,4.64H332.53z M310.97,831.52v22.82h-3.62v-15.12
	c0-0.42,0.03-0.89,0.08-1.41c0.05-0.52,0.12-0.99,0.21-1.44l-7.91,13.86c-0.12,0.22-0.28,0.4-0.47,0.54c-0.2,0.13-0.42,0.2-0.67,0.2
	h-0.45c-0.25,0-0.48-0.07-0.68-0.2c-0.2-0.14-0.37-0.32-0.49-0.54l-8.04-13.9c0.07,0.45,0.14,0.94,0.2,1.47
	c0.06,0.53,0.09,1.01,0.09,1.43v15.12h-3.62v-22.82h3.21c0.29,0,0.56,0.06,0.83,0.19c0.27,0.13,0.5,0.37,0.7,0.71l7.1,11.86
	c0.34,0.69,0.65,1.41,0.92,2.18c0.25-0.79,0.56-1.52,0.9-2.18l6.96-11.86c0.19-0.36,0.43-0.6,0.7-0.72
	c0.27-0.12,0.55-0.18,0.83-0.18H310.97z M282.09,831.59l-12.69,29.47c-0.13,0.3-0.3,0.54-0.5,0.72c-0.2,0.18-0.52,0.27-0.94,0.27
	H265l4.16-9.03l-9.39-21.43h3.46c0.34,0,0.62,0.08,0.82,0.25c0.2,0.17,0.34,0.37,0.41,0.57l6.09,14.33
	c0.24,0.63,0.44,1.29,0.61,1.98c0.21-0.71,0.43-1.37,0.67-2l5.91-14.31c0.09-0.24,0.25-0.44,0.46-0.6c0.22-0.16,0.46-0.23,0.73-0.23
	H282.09z M253.03,832.71c0.21-0.33,0.49-0.6,0.83-0.81c0.34-0.21,0.71-0.31,1.1-0.31h3.12l-5.91,8.67c-0.36,0.56-0.73,1-1.12,1.36
	c-0.39,0.35-0.87,0.63-1.44,0.82c0.72,0.19,1.33,0.49,1.82,0.9c0.49,0.41,0.94,0.94,1.32,1.59l5.97,9.41h-2.78
	c-0.72,0-1.27-0.12-1.66-0.36c-0.39-0.24-0.73-0.58-1.01-1.03l-4.43-7.08c-0.71-1.17-1.76-1.75-3.17-1.75h-2.45v10.24h-4.02v-22.77
	h4.02v9.84h2.16c1.2,0,2.13-0.51,2.81-1.53L253.03,832.71z M223.34,851.53c2.25,0,3.92-0.76,5.03-2.26c1.11-1.51,1.66-3.6,1.66-6.3
	c0-2.71-0.55-4.82-1.66-6.33c-1.11-1.51-2.78-2.27-5.03-2.27c-1.14,0-2.13,0.2-2.97,0.58c-0.85,0.39-1.55,0.95-2.11,1.68
	c-0.56,0.73-0.98,1.63-1.26,2.7c-0.28,1.07-0.42,2.28-0.42,3.63c0,2.7,0.56,4.79,1.68,6.3
	C219.37,850.78,221.06,851.53,223.34,851.53z M223.34,831.23c1.66,0,3.16,0.28,4.49,0.83c1.33,0.55,2.47,1.34,3.41,2.36
	c0.94,1.02,1.67,2.24,2.17,3.69c0.5,1.44,0.75,3.06,0.75,4.84c0,1.8-0.25,3.41-0.75,4.85c-0.5,1.44-1.23,2.67-2.17,3.69
	c-0.94,1.02-2.08,1.8-3.41,2.34c-1.33,0.55-2.83,0.82-4.49,0.82c-1.68,0-3.18-0.28-4.52-0.82c-1.34-0.55-2.49-1.32-3.43-2.34
	c-0.94-1.02-1.66-2.25-2.16-3.69c-0.5-1.44-0.76-3.05-0.76-4.85c0-1.78,0.25-3.4,0.76-4.84c0.5-1.44,1.22-2.67,2.16-3.69
	c0.94-1.02,2.09-1.81,3.43-2.36C220.15,831.51,221.66,831.23,223.34,831.23z M210.09,851.31v9.63c0,0.39-0.11,0.69-0.32,0.91
	c-0.22,0.22-0.5,0.33-0.85,0.33h-2.45v-7.84h-19.14v6.69c0,0.29-0.08,0.55-0.25,0.79c-0.17,0.24-0.46,0.36-0.85,0.36h-2.51v-10.76
	h0.74c0.53,0,1.05-0.09,1.56-0.27c0.52-0.18,1.01-0.52,1.49-1.03c0.48-0.5,0.94-1.21,1.36-2.12c0.43-0.91,0.81-2.1,1.15-3.57
	c0.34-1.47,0.64-3.26,0.9-5.36c0.25-2.1,0.46-4.6,0.61-7.49h14.4v19.72H210.09z M202.04,851.42v-16.69h-7.21
	c-0.15,2.33-0.36,4.4-0.63,6.2c-0.27,1.8-0.57,3.37-0.93,4.72c-0.35,1.36-0.74,2.51-1.17,3.45c-0.43,0.94-0.87,1.71-1.34,2.31
	H202.04z"/>
<path class="st0" d="M734.29,649.68c-3.99,0-7.19-0.61-9.62-1.82c-2.43-1.21-4.19-2.83-5.28-4.86c-1.09-2.02-1.63-4.25-1.63-6.68
	c0-0.5,0.14-0.92,0.42-1.26c0.28-0.34,0.73-0.51,1.36-0.51H727c0.56,0,1,0.17,1.31,0.51c0.31,0.34,0.47,0.76,0.47,1.26
	c0,0.81,0.16,1.61,0.47,2.38c0.31,0.78,0.86,1.4,1.64,1.87c0.78,0.47,1.92,0.7,3.41,0.7c1.49,0,2.65-0.23,3.46-0.7
	c0.81-0.47,1.37-1.09,1.68-1.87c0.31-0.78,0.47-1.57,0.47-2.38c0-0.5,0.16-0.92,0.47-1.26c0.31-0.34,0.75-0.51,1.31-0.51h7.48
	c0.56,0,0.99,0.17,1.31,0.51c0.31,0.34,0.47,0.76,0.47,1.26c0,2.43-0.56,4.66-1.68,6.68c-1.12,2.03-2.9,3.64-5.33,4.86
	C741.48,649.07,738.27,649.68,734.29,649.68 M706.44,718.91c-0.69,0-1.25-0.23-1.68-0.7c-0.43-0.47-0.65-1.04-0.65-1.73v-60.63
	c0-0.68,0.23-1.25,0.7-1.68c0.47-0.44,1.01-0.65,1.63-0.65h12.05c0.69,0,1.26,0.22,1.73,0.65c0.47,0.43,0.7,1,0.7,1.68v37.56
	l26.53-38.12c0.31-0.5,0.72-0.92,1.21-1.26c0.5-0.34,1.15-0.51,1.96-0.51h10.84c0.62,0,1.17,0.22,1.64,0.65
	c0.47,0.43,0.7,1,0.7,1.68v60.73c0,0.62-0.23,1.17-0.7,1.63c-0.47,0.47-1.01,0.7-1.64,0.7h-12.05c-0.69,0-1.26-0.23-1.73-0.7
	c-0.47-0.47-0.7-1.01-0.7-1.63v-36.25l-26.53,36.81c-0.25,0.37-0.61,0.76-1.07,1.17c-0.47,0.4-1.17,0.61-2.1,0.61H706.44z
	 M675.39,718.91c-0.68,0-1.25-0.23-1.68-0.7c-0.44-0.47-0.65-1.01-0.65-1.63v-60.73c0-0.68,0.22-1.25,0.65-1.68
	c0.44-0.44,1-0.65,1.68-0.65h12.52c0.69,0,1.26,0.22,1.73,0.65c0.47,0.43,0.7,1,0.7,1.68v60.73c0,0.62-0.23,1.17-0.7,1.63
	c-0.47,0.47-1.04,0.7-1.73,0.7H675.39z M631.94,705.92h8.41c2.68,0,4.72-0.83,6.12-2.48c1.4-1.65,2.1-3.75,2.1-6.31
	c0-2.8-0.73-4.89-2.2-6.26c-1.47-1.37-3.47-2.06-6.03-2.06h-8.41V705.92z M617.46,718.91c-0.68,0-1.25-0.23-1.68-0.7
	c-0.43-0.47-0.65-1.01-0.65-1.63v-60.73c0-0.68,0.22-1.25,0.65-1.68c0.44-0.44,1-0.65,1.68-0.65h12.05c0.68,0,1.26,0.22,1.73,0.65
	c0.47,0.43,0.7,1,0.7,1.68v20.09h8.78c7.97,0,14.17,1.76,18.59,5.28c4.42,3.52,6.63,8.83,6.63,15.93c0,4.3-0.96,8.1-2.9,11.4
	c-1.93,3.3-4.78,5.85-8.55,7.66c-3.77,1.81-8.36,2.71-13.78,2.71H617.46z M547.07,718.91c-0.68,0-1.25-0.22-1.68-0.65
	c-0.43-0.44-0.65-1-0.65-1.68v-60.73c0-0.68,0.22-1.25,0.65-1.68c0.44-0.44,1-0.65,1.68-0.65h12.05c0.68,0,1.26,0.22,1.73,0.65
	c0.47,0.43,0.7,1,0.7,1.68v22.52h22.98v-22.52c0-0.68,0.22-1.25,0.65-1.68c0.44-0.44,1-0.65,1.68-0.65h12.05
	c0.68,0,1.25,0.22,1.68,0.65c0.44,0.43,0.65,1,0.65,1.68v60.73c0,0.62-0.22,1.17-0.65,1.63c-0.44,0.47-1,0.7-1.68,0.7h-12.05
	c-0.68,0-1.25-0.23-1.68-0.7c-0.43-0.47-0.65-1.01-0.65-1.63v-23.26h-22.98v23.26c0,0.62-0.23,1.17-0.7,1.63
	c-0.47,0.47-1.04,0.7-1.73,0.7H547.07z M501.82,718.91c-0.69,0-1.25-0.23-1.68-0.7c-0.44-0.47-0.65-1.01-0.65-1.63v-48.4h-16.63
	c-0.69,0-1.25-0.23-1.68-0.7c-0.44-0.47-0.65-1.01-0.65-1.63v-10c0-0.68,0.22-1.25,0.65-1.68c0.44-0.44,1-0.65,1.68-0.65h50.26
	c0.69,0,1.24,0.22,1.68,0.65c0.44,0.43,0.65,1,0.65,1.68v10c0,0.62-0.22,1.17-0.65,1.63c-0.44,0.47-1,0.7-1.68,0.7h-16.63v48.4
	c0,0.62-0.22,1.17-0.65,1.63c-0.44,0.47-1,0.7-1.68,0.7H501.82z M435.63,693.96h17.38l-8.69-24.67L435.63,693.96z M413.68,718.91
	c-0.5,0-0.95-0.2-1.36-0.61c-0.41-0.4-0.61-0.86-0.61-1.35c0-0.31,0.03-0.59,0.09-0.84l21.96-59.98c0.19-0.68,0.58-1.29,1.17-1.82
	c0.59-0.53,1.42-0.79,2.47-0.79h13.83c1.06,0,1.88,0.27,2.48,0.79c0.59,0.53,0.98,1.14,1.17,1.82l21.86,59.98
	c0.12,0.25,0.19,0.53,0.19,0.84c0,0.5-0.2,0.95-0.61,1.35c-0.4,0.4-0.89,0.61-1.45,0.61h-11.49c-0.93,0-1.64-0.23-2.1-0.7
	c-0.47-0.47-0.76-0.89-0.89-1.26l-3.65-9.53H431.8l-3.55,9.53c-0.13,0.37-0.4,0.79-0.84,1.26c-0.43,0.47-1.18,0.7-2.24,0.7H413.68z
	 M388.6,718.91c-0.68,0-1.25-0.23-1.68-0.7c-0.44-0.47-0.65-1.01-0.65-1.63v-20.09c-1,0.81-2.24,1.5-3.74,2.06
	c-1.49,0.56-3.1,0.97-4.81,1.21c-1.71,0.25-3.44,0.37-5.19,0.37c-7.91,0-13.8-1.95-17.66-5.84c-3.86-3.89-5.79-9.86-5.79-17.89
	v-20.55c0-0.68,0.23-1.25,0.7-1.68c0.47-0.44,1.01-0.65,1.64-0.65h12.14c0.69,0,1.25,0.22,1.68,0.65c0.43,0.43,0.65,1,0.65,1.68
	v19.81c0,3.11,0.78,5.4,2.34,6.87c1.56,1.46,4.14,2.2,7.75,2.2c1,0,2.09-0.09,3.27-0.28c1.18-0.19,2.31-0.5,3.36-0.93
	c1.06-0.44,1.93-1.03,2.62-1.77c0.69-0.75,1.03-1.65,1.03-2.71v-23.17c0-0.68,0.22-1.25,0.65-1.68c0.43-0.44,0.99-0.65,1.68-0.65
	h12.05c0.68,0,1.26,0.22,1.73,0.65c0.47,0.43,0.7,1,0.7,1.68v60.73c0,0.62-0.23,1.17-0.7,1.63c-0.47,0.47-1.04,0.7-1.73,0.7H388.6z
	 M293.17,718.91c-0.68,0-1.25-0.23-1.68-0.7c-0.43-0.47-0.65-1.01-0.65-1.63v-60.73c0-0.68,0.22-1.25,0.65-1.68
	c0.44-0.44,1-0.65,1.68-0.65h43.63c0.68,0,1.25,0.22,1.68,0.65c0.44,0.43,0.65,1,0.65,1.68v8.78c0,0.68-0.22,1.25-0.65,1.68
	c-0.44,0.44-1,0.65-1.68,0.65H307v12.61h27.75c0.68,0,1.25,0.24,1.68,0.7c0.43,0.47,0.65,1.04,0.65,1.73v8.13
	c0,0.62-0.22,1.17-0.65,1.63c-0.44,0.47-1,0.7-1.68,0.7H307v12.99h30.55c0.68,0,1.25,0.22,1.68,0.65c0.44,0.44,0.65,1,0.65,1.68
	v8.78c0,0.62-0.22,1.17-0.65,1.63c-0.43,0.47-1,0.7-1.68,0.7H293.17z M222.78,718.91c-0.69,0-1.25-0.22-1.68-0.65
	c-0.44-0.44-0.65-1-0.65-1.68v-60.73c0-0.68,0.22-1.25,0.65-1.68c0.44-0.44,1-0.65,1.68-0.65h51.85c0.68,0,1.25,0.22,1.68,0.65
	c0.44,0.43,0.65,1,0.65,1.68v60.73c0,0.62-0.22,1.17-0.65,1.63c-0.43,0.47-0.99,0.7-1.68,0.7h-12.05c-0.68,0-1.25-0.23-1.68-0.7
	c-0.43-0.47-0.65-1.01-0.65-1.63v-48.12h-22.98v48.12c0,0.62-0.23,1.17-0.7,1.63c-0.47,0.47-1.04,0.7-1.73,0.7H222.78z
	 M667.63,552.31c-3.99,0-7.19-0.61-9.62-1.82c-2.43-1.22-4.19-2.83-5.28-4.86c-1.09-2.02-1.64-4.25-1.64-6.68
	c0-0.5,0.14-0.92,0.42-1.26c0.28-0.34,0.73-0.51,1.36-0.51h7.47c0.56,0,1,0.17,1.31,0.51c0.31,0.34,0.47,0.76,0.47,1.26
	c0,0.81,0.16,1.6,0.47,2.38c0.31,0.78,0.86,1.4,1.63,1.87c0.78,0.47,1.92,0.7,3.41,0.7c1.5,0,2.65-0.23,3.46-0.7
	c0.81-0.47,1.37-1.09,1.68-1.87c0.31-0.78,0.47-1.57,0.47-2.38c0-0.5,0.16-0.92,0.47-1.26c0.31-0.34,0.75-0.51,1.31-0.51h7.47
	c0.56,0,1,0.17,1.31,0.51c0.31,0.34,0.47,0.76,0.47,1.26c0,2.43-0.56,4.66-1.68,6.68c-1.12,2.03-2.9,3.64-5.33,4.86
	C674.83,551.71,671.62,552.31,667.63,552.31z M639.79,621.55c-0.68,0-1.25-0.23-1.68-0.7c-0.44-0.47-0.65-1.04-0.65-1.73v-60.64
	c0-0.69,0.23-1.25,0.7-1.68c0.47-0.43,1.01-0.65,1.64-0.65h12.05c0.68,0,1.26,0.22,1.73,0.65c0.47,0.44,0.7,1,0.7,1.68v37.56
	l26.53-38.12c0.31-0.5,0.72-0.92,1.21-1.26c0.5-0.34,1.15-0.51,1.96-0.51h10.84c0.62,0,1.17,0.22,1.63,0.65
	c0.47,0.44,0.7,1,0.7,1.68v60.73c0,0.62-0.23,1.17-0.7,1.64c-0.47,0.47-1.01,0.7-1.63,0.7h-12.05c-0.68,0-1.26-0.23-1.73-0.7
	c-0.47-0.47-0.7-1.01-0.7-1.64v-36.25l-26.53,36.81c-0.25,0.38-0.61,0.76-1.07,1.17c-0.47,0.4-1.17,0.61-2.1,0.61H639.79z
	 M608.74,621.55c-0.68,0-1.24-0.23-1.68-0.7c-0.44-0.47-0.65-1.01-0.65-1.64v-60.73c0-0.69,0.22-1.25,0.65-1.68
	c0.44-0.43,1-0.65,1.68-0.65h12.52c0.68,0,1.26,0.22,1.73,0.65c0.47,0.44,0.7,1,0.7,1.68v60.73c0,0.62-0.23,1.17-0.7,1.64
	c-0.47,0.47-1.04,0.7-1.73,0.7H608.74z M565.29,608.56h8.41c2.68,0,4.72-0.82,6.12-2.47c1.4-1.65,2.1-3.75,2.1-6.31
	c0-2.8-0.73-4.89-2.2-6.26c-1.46-1.37-3.47-2.06-6.02-2.06h-8.41V608.56z M550.81,621.55c-0.69,0-1.25-0.23-1.68-0.7
	c-0.44-0.47-0.65-1.01-0.65-1.64v-60.73c0-0.69,0.22-1.25,0.65-1.68c0.44-0.43,1-0.65,1.68-0.65h12.05c0.69,0,1.26,0.22,1.73,0.65
	c0.47,0.44,0.7,1,0.7,1.68v20.09h8.78c7.97,0,14.17,1.76,18.59,5.28c4.42,3.52,6.63,8.83,6.63,15.93c0,4.3-0.97,8.1-2.9,11.4
	c-1.93,3.3-4.78,5.85-8.55,7.66c-3.77,1.81-8.36,2.71-13.78,2.71H550.81z M498.73,582.12h12.14c2.55,0,4.47-0.67,5.75-2.01
	c1.28-1.34,1.91-3,1.91-5c0-1.99-0.64-3.63-1.91-4.9c-1.28-1.28-3.19-1.92-5.75-1.92h-12.14V582.12z M498.73,609.4h12.99
	c2.68,0,4.7-0.78,6.07-2.33c1.37-1.56,2.06-3.33,2.06-5.33c0-2.18-0.7-4.02-2.1-5.51c-1.4-1.5-3.41-2.24-6.03-2.24h-12.99V609.4z
	 M484.25,621.55c-0.68,0-1.25-0.23-1.68-0.7c-0.43-0.47-0.65-1.01-0.65-1.64v-60.73c0-0.69,0.22-1.25,0.65-1.68
	c0.44-0.43,1-0.65,1.68-0.65h28.5c5.36,0,9.75,0.75,13.17,2.24c3.42,1.5,5.96,3.63,7.61,6.4c1.65,2.77,2.48,6.06,2.48,9.86
	c0,2.24-0.42,4.22-1.26,5.93c-0.84,1.71-1.87,3.13-3.08,4.25c-1.21,1.12-2.35,1.93-3.41,2.43c2.37,1.12,4.47,2.96,6.31,5.51
	c1.84,2.55,2.76,5.54,2.76,8.97c0,4.11-0.92,7.64-2.76,10.6c-1.84,2.96-4.52,5.23-8.04,6.82c-3.52,1.59-7.83,2.38-12.94,2.38H484.25
	z M435.07,585.86H446c2.68,0,4.81-0.69,6.4-2.06c1.59-1.37,2.38-3.46,2.38-6.26c0-2.37-0.69-4.36-2.06-5.98
	c-1.37-1.62-3.61-2.43-6.73-2.43h-10.93V585.86z M420.31,621.55c-0.69,0-1.25-0.23-1.68-0.7c-0.43-0.47-0.65-1.01-0.65-1.64v-60.73
	c0-0.69,0.22-1.25,0.65-1.68c0.44-0.43,1-0.65,1.68-0.65h26.16c5.17,0,9.67,0.79,13.5,2.38c3.83,1.59,6.82,3.97,8.97,7.15
	c2.15,3.18,3.22,7.19,3.22,12.05c0,4.79-1.07,8.75-3.22,11.86c-2.15,3.11-5.14,5.42-8.97,6.91c-3.83,1.5-8.33,2.24-13.5,2.24h-11.12
	v20.46c0,0.62-0.23,1.17-0.7,1.64c-0.47,0.47-1.04,0.7-1.73,0.7H420.31z M359.82,621.55c-0.69,0-1.25-0.23-1.68-0.7
	c-0.44-0.47-0.65-1.01-0.65-1.64v-60.73c0-0.69,0.22-1.25,0.65-1.68c0.44-0.43,0.99-0.65,1.68-0.65h43.63
	c0.68,0,1.25,0.22,1.68,0.65c0.44,0.44,0.65,1,0.65,1.68v8.78c0,0.69-0.22,1.25-0.65,1.68c-0.43,0.43-0.99,0.65-1.68,0.65h-29.8
	v12.61h27.75c0.69,0,1.25,0.23,1.68,0.7c0.44,0.47,0.65,1.04,0.65,1.73v8.13c0,0.62-0.22,1.17-0.65,1.63
	c-0.43,0.47-0.99,0.7-1.68,0.7h-27.75v12.99h30.55c0.69,0,1.25,0.22,1.68,0.65c0.43,0.44,0.65,1,0.65,1.68v8.78
	c0,0.62-0.22,1.17-0.65,1.64c-0.44,0.47-1,0.7-1.68,0.7H359.82z M289.43,621.55c-0.69,0-1.25-0.22-1.68-0.65
	c-0.44-0.44-0.65-1-0.65-1.68v-60.73c0-0.69,0.22-1.25,0.65-1.68c0.43-0.43,0.99-0.65,1.68-0.65h51.85c0.69,0,1.25,0.22,1.68,0.65
	c0.43,0.44,0.65,1,0.65,1.68v60.73c0,0.62-0.22,1.17-0.65,1.64c-0.44,0.47-1,0.7-1.68,0.7h-12.05c-0.69,0-1.25-0.23-1.68-0.7
	c-0.43-0.47-0.65-1.01-0.65-1.64v-48.12h-22.99v48.12c0,0.62-0.23,1.17-0.7,1.64c-0.47,0.47-1.04,0.7-1.73,0.7H289.43z"/>
<path class="st1" d="M351.45,310.27c3.55,58.25,42.43,106.95,95.48,124.96l-20.7,16.14c-50.18-22.17-87.12-68.8-95.72-124.78
	L351.45,310.27z M556.09,150.7c50.6,21.42,88.2,67.55,97.66,123.27l-20.72,16.16c-4.64-57.98-44.33-106.08-97.86-123.11
	L556.09,150.7z"/>
<path class="st2" d="M653.74,273.97c1.52,8.97,2.33,18.18,2.33,27.58c0,90.43-73.31,163.73-163.73,163.73
	c-23.52,0-45.88-4.97-66.1-13.9l20.7-16.14c14.25,4.84,29.52,7.46,45.4,7.46c77.96,0,141.15-63.19,141.15-141.15
	c0-3.85-0.16-7.66-0.46-11.42L653.74,273.97z"/>
<path class="st3" d="M492.33,137.82c22.62,0,44.16,4.59,63.76,12.88l-20.94,16.33c-13.51-4.29-27.89-6.62-42.82-6.62
	c-77.95,0-141.15,63.19-141.15,141.15c0,2.93,0.1,5.83,0.28,8.71l-20.95,16.34c-1.25-8.17-1.91-16.53-1.91-25.05
	C328.6,211.13,401.91,137.82,492.33,137.82"/>
<path class="st0" d="M473.11,215.15L391.68,279c27.14,0,54.29,0,81.43,0v135.88l86.83-67.76V215.15
	C523.86,215.15,509.18,215.15,473.11,215.15"/>
</svg>
