<?xml version="1.0" encoding="utf-8"?>
<svg xmlns="http://www.w3.org/2000/svg" viewBox="0 -10 650 220">
    <style type="text/css">
        @import url("../../../styles/base-items/const.css");

        .s0,.s1,.s2,.s3,.s4,.s5{
        fill:none;
        stroke:var(--draw-color);
        stroke-width:10;
        stroke-linecap:round;
        stroke-linejoin:round;
        stroke-miterlimit:1;
        stroke-dasharray:2000;
        stroke-dashoffset:2000;}

        .s0{transform: scale(1.5, 0.5) translateX(4px); animation: m0 10s cubic-bezier(0.75, 0.35,
        0.4, 0.99) infinite alternate;}
        .s1{transform: scale(1.5, 0.5); animation: m1 10s cubic-bezier(0.75, 0.35, 0.4, 0.99)
        infinite alternate;}
        .s2{transform: scale(1.5, 0.5); animation: m2 10s cubic-bezier(0.75, 0.35, 0.4, 0.99)
        infinite alternate;}
        .s3{transform: scale(1.5, 0.5) translateX(2px); animation: m3 10s cubic-bezier(0.75, 0.35,
        0.4, 0.99) infinite alternate;}
        .s4{transform: scale(1.5, 0.5) translateX(4px); animation: m4 10s cubic-bezier(0.75, 0.35,
        0.4, 0.99) infinite alternate;}
        .s5{transform: scale(1.5, 0.5) translateX(4px); animation: m5 10s cubic-bezier(0.75, 0.35,
        0.4, 0.99) infinite alternate;}

        @keyframes m0 {
        5%{stroke-dashoffset:2000;}
        10%{stroke-dashoffset:0;}
        100%{stroke-dashoffset:0;}
        }
        @keyframes m1 {
        6%{stroke-dashoffset:2000;}
        20%{stroke-dashoffset:0;}
        100%{stroke-dashoffset:0;}
        }
        @keyframes m2 {
        12%{stroke-dashoffset:2000;}
        20%{stroke-dashoffset:0;}
        100%{stroke-dashoffset:0;}
        }
        @keyframes m3 {
        14%{stroke-dashoffset:2000;}
        25%{stroke-dashoffset:0;}
        100%{stroke-dashoffset:0;}
        }
        @keyframes m4 {
        20%{stroke-dashoffset:2000;}
        30%{stroke-dashoffset:0;}
        100%{stroke-dashoffset:0;}
        }
        @keyframes m5 {
        23%{stroke-dashoffset:2000;}
        30%{stroke-dashoffset:0;}
        100%{stroke-dashoffset:0;}
        }
    </style>
    <path class="s0"
        d="M132.94,0c1.54,63.71,3.07,127.65,0.56,191.22c-2.51,63.57-9.22,127.18-23.34,183.65" />
    <path class="s1"
        d="M123.8,99.69c4.39-14.43,9.7-27.61,15.75-39.07c4.26-8.08,9.94-15.74,15.39-11.94
	c3.86,2.69,6.45,10.77,7.27,19.14s0.17,17.06-0.69,25.42c-3.33,32.43-9.75,63.44-18.77,90.65c-1.25,3.77-2.61,7.58-4.5,9.89
	c-1.89,2.31-4.46,2.75-6.17-0.12c-3.3-5.54-0.97-16.67,1.73-23.49c4.93-12.42,10.58-23.57,16.78-33.15
	c5.91-9.12,12.68-17.03,20.01-17.4c13.24-0.67,24.45,25.01,26.34,52.56s-3.72,55.29-11.65,77.58c-19,53.39-51.14,81.75-82.84,84.41
	c-31.7,2.66-62.99-17.93-91.42-47.51" />
    <path class="s2"
        d="M204.99,158.08c-0.11,28.54-0.21,57.08-0.32,85.62c-0.02,6.44,0.41,14.39,3.25,16.76
	c2.69,2.24,5.51-2.29,7.46-6.76c9.58-21.94,15.31-51.15,15.87-80.91c-1.33,16.66-1.38,33.77-0.15,50.46
	c0.46,6.21,1.19,12.74,3.31,17.16c2.12,4.42,6.07,5.49,7.95,0.61" />
    <path class="s3"
        d="M257.26,168.3c1.38-8.29-2.47-17.54-6.65-17.79c-4.17-0.24-7.9,6.44-9.6,14.45c-1.7,8.01-1.76,17.11-1.53,25.88
	c0.39,14.51,2.81,32.09,9.58,35.06c5.34,2.35,10.6-6.76,12.48-17.53c1.88-10.77,1.22-22.66,0.55-34.04
	c7,41.1,12.2,83.54,15.52,126.63c1.49,19.35,2.5,40.16-1.63,57.73c-4.34,18.44-13.73,29.77-23.33,33.87
	c-9.59,4.09-19.51,1.99-29.24-0.13c-4.56-0.99-9.2-2.03-13.39-5.92c-4.19-3.89-7.93-11.16-8.92-20.56
	c-0.98-9.26,0.88-19.05,3.82-26.24c2.94-7.19,6.86-12.26,10.74-17.11c74.01-92.75,156.75-154.57,242.01-180.78" />
    <path class="s4"
        d="M274.32,192.08c8.67-14.2,16.53-30.59,23.36-48.69c1.8-4.77,3.57-9.84,4.25-15.75
	c0.68-5.91,0.02-12.91-2.31-16.52c-2.1-3.25-5.09-3.02-7.44-0.65c-2.35,2.37-4.18,6.53-5.78,10.85
	c-6.7,18.01-10.59,40.55-10.96,63.39c-0.19,11.83,1.11,25.57,6.09,31.11c3.6,4.01,8.16,2.28,11.64-2.2
	c3.48-4.47,6.1-11.29,8.65-17.98" />
    <path class="s5"
        d="M311.36,138.74c-2.1,14.61-2.67,29.77-1.68,44.53c0.28,4.19,0.88,8.86,2.98,10.94
	c1.63,1.62,3.79,1.13,5.49-0.47s3.04-4.17,4.27-6.77c8.66-18.41,13.62-41.78,13.81-65.03c0.05-6.45-0.37-13.39-2.85-18.06
	c-1.9-3.57-4.9-5.3-7.74-4.46c-2.84,0.84-5.44,4.22-6.7,8.73" />
</svg>