<svg xmlns="http://www.w3.org/2000/svg" viewBox="0 0 1920 1080" fill="#DD1997">

<path d="M517.9,587.8h40.7l20.5-46.2v46.2h63.6V391.6h-58l-20.5,46.2v-46.2h-47.6h-15.8h-58.3l-26,43.7v-43.7h-63.4
	v196.2h63.4v-47.5l27.7,47.5h56.6H517.9z M457.6,486.8l43.1-69.6V559L457.6,486.8z"/>
<path d="M657.4,544.5l0.1,0.2c2.7,6.4,6.2,12.4,10.2,17.7c4.2,5.6,9.1,10.5,14.6,14.5c6,4.3,12.8,7.7,20.2,9.9
	c7.2,2.2,15.1,3.4,23.5,3.4c10.4,0,20.1-1.6,28.8-4.7c9-3.2,17-7.9,23.7-14c6.7-6.1,12-13.5,16-22h0c3.9-8.4,6.1-17.8,6.8-28
	l1.1-16.9h-63.5l-0.9,14.9c-0.3,4.2-0.9,6.7-1.5,8.1c-0.5,1.3-1.1,2.4-1.8,3c-0.4,0.3-1,0.9-2.3,1.3c-1.7,0.6-3.9,0.8-6.4,0.8
	c-1.6,0-3-0.2-4.1-0.5c-0.7-0.2-1.2-0.5-1.7-0.8l-0.2-0.1c-0.5-0.4-1-0.8-1.4-1.5c-0.7-1-1.4-2.2-1.9-3.5c-1-2.7-1.8-6-2.4-9.9
	c-0.6-4.4-0.9-9.6-0.9-15.4v-22.4c0-4.2,0.2-8.2,0.6-11.8c0.4-3.3,0.9-6.3,1.6-8.8c0.8-3,1.9-5.5,3.3-7.5c0.8-1.2,1.6-2.1,2.5-2.6
	c0.5-0.3,1.1-0.5,1.7-0.7c0.9-0.2,2-0.3,3.2-0.3c3.4,0,5.4,0.5,6.5,0.9c1.2,0.4,1.8,0.9,2.2,1.3c0.6,0.8,1.2,1.9,1.7,3.4
	c0.8,2.4,1.3,5.5,1.5,9.1l0.9,14.9h63.8l-1.5-17.2c-0.9-10.2-3.1-19.6-6.6-27.9c-3.7-8.9-8.9-16.5-15.4-22.8
	c-6.5-6.2-14.5-11.1-23.6-14.4c-8.8-3.2-18.7-4.8-29.5-4.8c-7.6,0-14.8,1-21.5,2.9c-6.8,2-13.1,4.8-18.8,8.5l-0.3,0.2
	c-6.3,4.3-11.9,9.5-16.8,15.6c-4.9,6.1-8.9,13.1-11.8,20.8c-2.5,6.1-4.4,12.8-5.6,19.8c-1.2,6.9-1.8,14.2-1.8,21.7v22.1
	c0,8,0.7,15.8,2,23C652.7,531.3,654.8,538.2,657.4,544.5z"/>
<path d="M873.2,435.4v-43.7h-63.4v196.2h63.4v-47.5l27.7,47.5h56.6h17.2h40.7l20.5-46.2v46.2h63.6V391.6h-58l-20.5,46.2
	v-46.2h-47.6h-15.8h-58.3L873.2,435.4z M957.6,559l-43.1-72.2l43.1-69.6V559z"/>
<path d="M558,680.7c1.1,3.2,2.9,6.1,5.4,8.6c4.4,4.4,10.3,6.7,17.1,6.7c8.2,0,16.4-2.7,24.4-8.2
	c7.1-4.8,14.8-11.5,23.1-19.9c6.6-6.7,12.9-13.7,18.7-20.8c5.8-7,10.6-13,14.4-18l5.1-6.8l-15.4-11.6l-5.1,6.7
	c-1.5,2-3.4,4.4-5.7,7.1c-2.3,2.8-4.8,5.9-7.7,9.3c-2.8,3.3-5.8,6.8-9,10.3c-3.2,3.5-6.5,7.1-9.9,10.6c-2.6,2.6-5.5,5.3-8.4,8
	c-2.8,2.5-5.6,4.8-8.3,6.7c-1.6,1.1-3.1,2.1-4.6,3c0.3-0.7,0.6-1.5,1-2.3c1.9-4.2,4.7-9.2,8.2-15c3.7-6.1,8.1-13,13.1-20.7
	c5.2-8,10.9-17.1,17-27.1l8.5-14.2l-44.6,3.5l-22.2,36.1c-3.3,5.5-7.1,10.9-11.2,15.9c-4.1,5.1-8.3,9.6-12.5,13.5
	c-4,3.8-7.9,6.7-11.4,8.9c-1,0.6-1.9,1.1-2.6,1.4c0.9-3.3,3.3-9.2,9.6-19c7.7-12,17.6-27.4,29.7-45.9l9-13.8l-45.6,1.7l-2.4,3.9
	C525,617,516.3,631.6,510,642.7c-7.2,12.7-10.6,22.1-10.6,29.7c0,6,1.9,11.4,5.6,15.9c2.9,3.5,8.2,7.6,17.5,7.6
	c6.1,0,11.9-1.2,17.2-3.5c4.8-2.1,9.4-4.8,13.6-7.9C554.9,683.3,556.5,682.1,558,680.7z"/>
<path d="M1551.6,610.8l-5.1,6.6c-4.7,6-9.5,11.9-14.4,17.6c-5,5.7-9.5,10.8-13.5,15.1c-8.8,9.2-16.2,15.9-21.9,19.8
	c-1.5,1-2.7,1.8-3.8,2.4c0.6-1.6,1.4-3.5,2.6-5.8c1.2-2.4,2.9-5.3,5-8.8l0.1-0.2c1.9-3.3,4.2-7,6.9-11c2.8-4.3,5.8-9.1,9-14.2
	l24.8-39.4l-45.1,3.5l-2.3,3.7c-1.6,2.5-3.3,5.3-5,8.3c-1.6,2.8-3.9,6.4-6.7,10.7l-0.2,0.3c-1.3,2.2-2.7,4.4-4,6.4
	c-1.2,1.9-2.4,3.8-3.5,5.6h-15l5-7.6c3.4-5.1,7-10.6,10.9-16.5l9.1-13.8l-45.7,1.7l-31.1,52.2c-2.2,2.4-4.4,4.7-6.6,7.1
	c-2.6,2.6-5.5,5.3-8.4,8c-2.8,2.5-5.6,4.8-8.3,6.7c-1.6,1.1-3.1,2.1-4.6,3c0.3-0.7,0.6-1.5,1-2.3c1.9-4.2,4.7-9.2,8.2-15
	c3.7-6,8.1-13,13.1-20.7c5.2-8,10.9-17.1,17-27.1l8.5-14.2l-44.6,3.5l-22.2,36.1c-3.3,5.5-7.1,10.9-11.2,15.9
	c-4.1,5.1-8.3,9.6-12.5,13.5c-4,3.8-7.9,6.7-11.4,8.9c-1,0.6-1.9,1.1-2.6,1.4c0.9-3.3,3.3-9.2,9.6-19c7.7-12.1,17.7-27.5,29.7-45.9
	l9-13.8l-45.6,1.7l-2.4,3.9c-10.8,17.7-19.5,32.4-25.8,43.5c-2.1,3.6-3.8,7-5.2,10.1c-1,1-1.9,2-2.9,2.9c-10,10-16.4,14.8-20.2,17
	c0.6-1.4,1.5-3,2.6-4.6c3.2-4.9,6.9-10,11-15.3c4.3-5.6,8.3-11.3,11.8-17c4.2-6.8,6.4-13.7,6.4-20.6c0-6.2-2.4-11.9-6.9-16.6
	c-4.6-4.7-10.8-7.2-18-7.2c-6.6,0-13.2,1.9-19.7,5.7c-5.1,2.9-10,6.5-14.6,10.6c-1.4-5.5-4.4-8.9-7.1-11c-4.5-3.5-10-5.2-16.2-5.2
	c-3.2,0-6.4,0.4-9.5,1.1l0.1-0.1l-49.6,2.5l-2.3,4c-5.9,10.3-11.9,20.5-18,30.6c-0.4,0-0.8,0.1-1.2,0.1c-2.5,0-3.7-0.8-4.4-1.6
	c-1.5-1.5-2.4-3.7-2.9-6.6c-1.4-8.2-5.2-15.2-11.4-21c-6.4-6-15-9-25.5-9c-8.8,0-17.8,1.9-26.9,5.6c-8.8,3.6-17,8.6-24.2,14.8
	c-7.4,6.3-13.5,13.7-18.1,22c-2.4,4.4-4.3,8.9-5.5,13.6c-1.9,2.1-3.8,4.1-5.6,6c-2.1,2.1-4.5,4.5-7.3,7.2c-2.5,2.5-5.3,4.9-8.2,7.1
	c-2.3,1.8-4.6,3.4-6.8,4.7c0.2-0.6,0.4-1.1,0.6-1.7c0.7-2.1,1.3-4.3,1.9-6.6c0.7-2.8,1.1-5.9,1.1-9c0-5.5-1.3-10.1-4-13.9
	c-0.3-0.4-0.5-0.7-0.8-1.1c1.2,0.1,2.6,0.2,4.1,0.2c3.8,0,7.4-0.6,10.9-1.9c3.3-1.2,6.4-3,9.1-5.2c2.9-2.4,5.3-5.2,7-8.5
	c1.8-3.4,2.7-7.3,2.7-11.4c0-6.5-2.5-12.1-7.3-16.1c-4.4-3.7-9.9-5.6-16.2-5.6c-5.6,0-11,1.1-16,3.3l0.8-1.1l-46.4,1.7l-30.9,51.6
	c-2.4,2.6-4.8,5.2-7.3,7.7c-2.6,2.6-5.5,5.3-8.4,8c-2.8,2.5-5.6,4.8-8.3,6.7c-1.6,1.1-3.1,2.1-4.6,3c0.3-0.7,0.6-1.5,1-2.3
	c1.9-4.2,4.7-9.2,8.2-15c3.7-6.1,8.1-13,13.1-20.7c5.2-8,10.9-17.1,17-27.1l8.5-14.2l-44.6,3.5l-22.2,36.1
	c-3.3,5.5-7.1,10.9-11.2,15.9c-4.1,5.1-8.3,9.6-12.5,13.5c-4,3.8-7.9,6.7-11.4,8.9c-1,0.6-1.9,1.1-2.6,1.4c0.9-3.3,3.3-9.2,9.6-19
	c7.7-12,17.6-27.4,29.7-45.9l9-13.8l-45.6,1.7l-2.4,3.9c-10.8,17.8-19.5,32.4-25.8,43.5c-1.7,3-3.2,5.8-4.5,8.5
	c-8.3,8.6-15.3,14.9-20.8,18.6c-1.5,1-2.7,1.8-3.8,2.4c0.6-1.6,1.4-3.5,2.6-5.8c1.2-2.4,2.9-5.3,5-8.8l0.1-0.2c1.9-3.3,4.2-7,6.9-11
	c2.8-4.3,5.8-9.1,9-14.2l24.8-39.4l-45.1,3.5l-2.3,3.6c-1.6,2.5-3.3,5.3-5,8.3c-1.6,2.8-3.9,6.4-6.7,10.7l-0.2,0.3
	c-1.3,2.2-2.7,4.4-4,6.4c-1.2,1.9-2.4,3.8-3.5,5.6h-15l5-7.6c3.4-5.1,7-10.6,10.9-16.5l9.1-13.8l-45.7,1.7l-59.4,99.9l45.7-2.6
	l2.2-4.4c2.2-4.3,4.5-8.8,6.9-13.5c2.2-4,4.6-8.4,7.2-13.1c1.9-3.4,3.9-6.9,5.9-10.3h15.7c-0.2,0.3-0.3,0.7-0.5,1
	c-1.6,3.3-2.9,6.7-3.9,10c-1.1,3.7-1.6,7.3-1.6,10.7c0,10.5,4.8,15.8,8.8,18.4c4.6,3,9.8,4.5,15.5,4.5c7.3,0,15.2-2.6,23.6-7.7
	c2.7-1.6,5.5-3.6,8.4-6c0.9,2.2,2.1,4.2,3.7,6.1c2.9,3.5,8.2,7.6,17.5,7.6c6.1,0,11.9-1.2,17.2-3.5c4.8-2.1,9.4-4.8,13.6-7.9
	c1.6-1.2,3.2-2.5,4.8-3.8c1.1,3.2,2.9,6.1,5.4,8.6c4.4,4.4,10.3,6.7,17.1,6.7c4,0,8-0.7,12-2l-0.1,0.1l42.9-1.3l2.4-4.2
	c7.4-13,15.6-25.3,24.7-36.6c2.2,1.7,5.1,2.6,8.5,2.5c-1.1,2.3-2.2,4.9-3.3,7.7c-1.7,4.4-2.6,8.3-2.6,12c0,10.3,4.3,15.6,7.9,18.2
	c4.4,3.3,10.2,4.9,17.1,4.9c7.3,0,15.1-2.5,23.7-7.5c5.8-3.4,12.1-8.3,19-14.7c1.7,4.8,4.4,9,8.1,12.5c6.7,6.4,15.5,9.7,26.3,9.7
	c9.1,0,18-1.7,26.4-5.1c8.2-3.3,15.8-8,22.5-13.7c6.6-5.7,12.4-12.5,17.1-20c2.3-3.8,4.4-7.7,6.1-11.8c0.8,0.4,1.5,0.7,2.3,1
	c-6.8,10.9-13.6,22-20.5,32.9l-8.6,13.7l44.2-1.8l2.3-4.1c1.8-3.1,4.3-7.2,7.4-12.1c3.1-4.9,6.8-10.3,10.9-16.1
	c4.1-5.7,8.4-11.5,13-17.2c4.5-5.6,9-10.8,13.5-15.4c4.3-4.4,8.3-8,12.1-10.7c1.8-1.3,3.1-2,4.2-2.4c-0.3,1.2-1,3.1-2.4,5.9
	c-2.3,4.5-5.3,9.9-9.1,15.8c-3.9,6.1-8.3,13-13.3,20.4c-5.1,7.6-10.3,15.6-15.5,23.9l-8.6,13.7l45.4-1.7l2.4-4.1
	c1.8-3.2,4.3-7.3,7.4-12.2c3-4.9,6.6-10.3,10.6-16.1c4-5.7,8.2-11.5,12.7-17.2c4.3-5.6,8.8-10.7,13.2-15.3c4.3-4.4,8.3-8,12.1-10.7
	c1.1-0.7,2-1.3,2.7-1.7c-0.5,0.9-1.2,2-2.2,3.4c-3.3,4.6-7.1,9.6-11.2,14.9c-4.4,5.7-8.4,11.6-11.9,17.5c-4.2,7-6.3,13.9-6.3,20.3
	c0,6.9,2.4,12.9,7,17.5c4.7,4.7,10.9,7,18.6,7c3.6,0,7.2-0.6,10.8-1.7c3.4-1.1,6.9-2.7,10.5-4.9c2.9-1.8,6.1-4.2,9.5-6.9
	c0.9,2.1,2.1,4,3.6,5.9c2.9,3.5,8.2,7.6,17.5,7.6c6.1,0,11.9-1.2,17.2-3.5c4.8-2.1,9.4-4.8,13.6-7.9c1.6-1.2,3.2-2.5,4.8-3.8
	c1.1,3.2,2.9,6.1,5.4,8.6c4.4,4.4,10.3,6.7,17.1,6.7c4,0,8.1-0.7,12.1-2l-0.7,1.3l45.7-2.6l2.2-4.4c2.2-4.3,4.5-8.8,6.9-13.5
	c2.1-4,4.6-8.4,7.2-13.1c1.9-3.4,3.9-6.9,5.9-10.3h15.7c-0.2,0.3-0.3,0.7-0.5,1c-1.6,3.3-2.9,6.7-3.9,10c-1.1,3.7-1.6,7.3-1.6,10.7
	c0,10.5,4.8,15.8,8.8,18.4c4.6,3,9.8,4.5,15.5,4.5c7.3,0,15.2-2.6,23.6-7.7c7.8-4.8,16.9-12.8,27.7-24.4c4.2-4.5,8.8-9.7,13.7-15.4
	c4.8-5.7,10-12.1,15.5-19.1l5.3-6.9L1551.6,610.8z M1061.9,675.1c-2.4,1.7-4.6,2.5-6.8,2.5c-0.5,0-0.9,0-1.1-0.1
	c-0.2-0.5-0.6-1.5-0.6-3.6c0-2.5,0.5-5.8,1.6-9.9c1.1-4.4,2.7-9,4.8-13.8c2.1-4.9,4.6-9.9,7.4-14.8c2.7-4.8,5.7-9.1,8.9-12.8
	c3-3.6,6.2-6.5,9.4-8.7c2.4-1.7,4.6-2.5,6.8-2.5c0.5,0,0.9,0,1.1,0.1c0.2,0.5,0.6,1.5,0.6,3.6c0,2.5-0.5,5.8-1.6,9.9
	c-1.1,4.4-2.7,9-4.8,13.8c-2.1,4.9-4.6,9.9-7.4,14.8c-2.7,4.8-5.7,9.1-8.9,12.8C1068.3,670,1065.1,672.9,1061.9,675.1z M983.8,619.8
	c-0.5,1.5-1,2.9-1.6,4.3c-0.6,1.5-1.1,2.7-1.5,3.7l-1.5,3.6l-1.3,0.4c-2.9-1.2-5.9-1.9-8.8-2.2c3.8-3.7,7.7-7.1,11.6-10.1
	c1.7-1.3,3-2.1,4.1-2.7C984.4,617.9,984.1,618.8,983.8,619.8z"/>
<path d="M669.8,361.6c1.2-2.3,2-3.8,2.6-4.7v7c0,1.9-0.2,2.7-0.3,3c-0.3,0.1-1,0.3-2.8,0.4l-2.4,0.1v5.8h21v-5.8
	l-2.4-0.1c-1.7-0.1-2.4-0.3-2.7-0.4c-0.1-0.3-0.3-1.1-0.3-3v-7l3.8,7c3.4,6.2,4.1,7.6,4.2,7.8l0.7,1.4h10.4h3.1h27.1h2.3h12.6
	c3.9,0,6.9-0.7,9.3-2c2.7-1.6,4.1-4.1,4.1-7.2c0-2.2-0.7-4.9-3.6-6.8c1.7-1.7,2-3.8,2-5.2c0-1-0.2-1.9-0.5-2.8
	c0.3,0.1,0.4,0.2,0.5,0.2c0.1,0.1,0.3,0.3,0.6,0.7c0.7,0.9,1,1.5,1.1,1.7l8.6,18.1l-1.4,3.4c-0.7,1.8-1.2,2.3-1.3,2.4
	c-0.1,0.1-0.2,0.1-0.2,0.2c-0.1,0-0.3-0.1-0.5-0.2c-1.4-0.5-2.4-0.8-3.4-0.8c-1.9,0-3.1,0.7-3.7,1.4c-1,0.9-1.5,2.2-1.5,3.6
	c0,1,0.3,2.6,1.9,4c1.1,1,2.6,1.6,4.3,1.6c2,0,4.1-0.8,6.1-2.4c1.9-1.5,3.5-3.7,4.7-6.5l10.3-25.2c0.5-1.2,0.7-1.6,0.7-1.7
	c0.3-0.4,0.4-0.5,0.4-0.5c0,0,0.2-0.1,0.6-0.1l2.2-0.2V343h-13.1v5.9h2.3c0,0.1-0.1,0.2-0.1,0.3l-3.6,8.8l-3.7-7.8
	c-0.3-0.6-0.5-1.1-0.5-1.4h2.9V343h-16.6v2.4c-1-0.9-2.2-1.5-3.6-1.8c-1.6-0.4-3.6-0.6-6-0.6h-11.8h-2.3h-30.2v5.9h2.4
	c0.7,0,1.1,0.1,1.3,0.1c0,0.3,0.1,1,0.1,2.3v13.4c0,1.3-0.1,2-0.2,2.4c-0.2,0-0.6,0.1-1.2,0.1h-1.5c-1.6-0.3-2.8-0.8-3.6-1.4
	c-0.5-0.4-1.7-1.8-4.2-6.1c-2.2-3.9-3.6-6.2-4.2-7.1c-0.2-0.3-0.5-0.6-0.7-1c0.4-0.5,0.8-1.1,1.1-1.7c0.6-1.2,1.4-3.4,2.4-6.8
	c0.7-2.1,1-3.2,1.3-3.7c0.2,0.1,0.5,0.2,0.8,0.4c1.3,0.7,2.5,1.1,3.6,1.1c1.4,0,2.6-0.5,3.6-1.3c1-0.9,1.5-2.1,1.5-3.5
	c0-1.1-0.4-2.8-2.2-4.2c-1.2-1-2.9-1.4-4.8-1.4c-2,0-3.8,0.5-5.3,1.6c-1.5,1-2.6,2.2-3.3,3.6c-0.1,0.3-0.3,0.6-0.5,1.1v-5.8h-21v5.8
	l2.4,0.1c1.8,0.1,2.6,0.3,2.7,0.4c0.1,0.3,0.3,1.1,0.3,3v8c-0.4-0.1-0.8-0.2-1.1-0.3c-0.4-0.2-0.7-0.5-0.9-1c-0.3-0.5-0.8-1.8-1.7-5
	c-0.9-3.1-1.7-5.1-2.2-6.2c-0.7-1.4-1.8-2.6-3.4-3.6c-1.6-1-3.3-1.5-5.3-1.5c-2.1,0-3.8,0.5-5,1.6c-1.7,1.4-2,3-2,4.1
	c0,1.4,0.5,2.6,1.6,3.5c1.7,1.6,4.2,1.9,7.2,0.2c0.4-0.2,0.6-0.3,0.8-0.4c0.2,0.5,0.6,1.5,1.2,3.7c1,3.3,1.8,5.5,2.4,6.8
	c0.3,0.6,0.7,1.2,1.1,1.7c-0.6,0.8-1.3,1.8-1.9,2.9c-3,5.4-5.2,8.9-6.4,10.5c-0.9,1.2-2.4,1.9-4.5,2.2l-2.1,0.3v5.5h13.4
	L669.8,361.6z M717,367.2l-1.3,0c-0.3,0-0.6,0-0.7-0.1c0-0.2-0.1-0.4-0.1-0.8l6-6.9v5.3c0,1.3-0.1,2-0.2,2.4c-0.2,0-0.6,0.1-1.2,0.1
	L717,367.2L717,367.2z M745,354.2v-4.6c1.9,0.1,2.8,0.5,3.1,0.7c0.2,0.1,0.6,0.4,0.6,1.4c0,0.7-0.2,1.2-0.8,1.7
	C747.5,353.7,746.8,354.1,745,354.2z M749.8,363.7c0,0.8-0.2,1.4-0.8,1.9c-0.6,0.5-1.7,0.8-3.2,0.8c-0.3,0-0.6,0-0.8,0v-5.4
	c1.7,0,3,0.4,3.9,0.9C749.6,362.3,749.8,362.9,749.8,363.7z M734.1,348.9h0.2c0.7,0,1,0,1.2,0.1c0,0.3,0.1,1,0.1,2.4v13.4
	c0,1.3-0.1,2.1-0.2,2.4c-0.2,0-0.6,0.1-1.1,0.1h-0.2h-2.3h-0.2c-0.7,0-1.1-0.1-1.3-0.1c0-0.3-0.1-1-0.1-2.4v-13.4
	c0-1.3,0.1-2,0.1-2.4c0.2,0,0.5-0.1,1.3-0.1h0.2H734.1z M718.6,348.9l1.2,0c0.4,0,0.7,0.1,0.8,0.1c0,0.1,0.1,0.2,0.1,0.4l-6,6.9v-5
	c0-1.3,0.1-2,0.1-2.4c0.2,0,0.5-0.1,1.3-0.1L718.6,348.9L718.6,348.9z M687.9,336.7c-0.5,1.2-1,2.9-1.7,5.1c-1,3.2-1.5,4.4-1.7,5
	c-0.2,0.4-0.5,0.8-0.9,1c-0.2,0.1-0.5,0.2-1,0.3v-7.9c0-1.9,0.2-2.7,0.3-3c0.3-0.1,1-0.3,2.7-0.4L687.9,336.7z"/>
<path d="M782.5,364.3c-1.2,1.1-1.8,2.5-1.8,4.1c0,2,0.8,3.2,1.5,3.9c0.7,0.7,1.9,1.5,3.8,1.5c-0.1,0.2-0.2,0.4-0.4,0.6
	c-0.7,0.9-1.8,1.6-3.2,2.1l-1.7,0.6v6.3l3.2-1.1c3.3-1.1,5.8-2.6,7.4-4.6c1.7-2.1,2.5-4.4,2.5-6.8c0-2.4-0.7-4.3-2-5.8
	c-1.4-1.6-3.1-2.4-5-2.4C785.1,362.7,783.7,363.3,782.5,364.3z"/>
<path d="M810.1,349c0,0.3,0.1,1,0.1,2.3v4.6c0,1.6,0.2,2.7,0.6,3.6c0.5,1.1,1.5,2,2.9,2.7c1.2,0.6,2.8,0.8,4.8,0.8
	c2.1,0,4.1-0.3,6.1-0.9v2.6c0,1.4-0.1,2-0.2,2.3c-0.3,0-0.9,0.1-1.9,0.1l-2.3,0.1v5.8h17.7v-5.9h-2.4c-0.7,0-1.1-0.1-1.3-0.1
	c0-0.3-0.1-1-0.1-2.4v-13.4c0-1.3,0.1-2,0.1-2.4c0.1,0,0.4-0.1,0.9-0.1l-0.9,5.8h6l0.4-1.9c0.4-1.6,0.8-2.3,0.9-2.5
	c0.3-0.4,0.5-0.5,0.4-0.5c0.1,0,0.6-0.2,2.3-0.2v15.1c0,1.3-0.1,2-0.2,2.3c-0.3,0.1-0.8,0.1-1.6,0.2l-2.4,0v5.8h18.6v-5.8l-2.4-0.1
	c-1.4,0-2.1-0.1-2.5-0.2c0-0.4-0.1-1.1-0.1-2.3v-15.1c1.7,0,2.2,0.2,2.3,0.2c0.1,0,0.3,0.1,0.6,0.6c0.2,0.3,0.5,0.9,0.7,2.2l0.3,2.1
	h2.8c-0.3,1.2-0.4,2.4-0.4,3.6c0,3.7,1.1,7.1,3.3,10c2.7,3.7,6.4,5.5,11,5.5c2.8,0,5.3-0.7,7.6-2.1c2.3-1.4,4.1-3.5,5.4-6.3
	c0.8-1.7,1.3-3.5,1.6-5.2c0.2,1.2,0.5,2.4,1,3.6l-0.1,3.1l0.7-1.8c0.4,0.9,0.9,1.8,1.4,2.6c2.5,3.9,6.3,6,11,6
	c4.6,0,8.3-1.8,11.1-5.2c2.6-3.3,3.9-7,3.9-11c0-4-1.3-7.5-3.9-10.6c-2.7-3.2-6.2-4.8-10.5-4.8c-1.9,0-4,0.3-6.1,1.4
	c0.3-0.6,0.7-1.1,1-1.5c1.1-1.3,1.8-1.6,2.2-1.8c0.5-0.2,1.7-0.4,5-0.5c2.8-0.1,4.7-0.3,5.9-0.6c1.4-0.4,2.6-1.1,3.8-2.1
	c1.2-1.1,2.1-2.7,2.9-4.9l1.1-3.2h-5.6l-0.7,0.8c-0.2,0.3-0.4,0.3-0.4,0.3c0,0,0,0,0,0c-0.1,0-0.9,0.1-4.6,0.2
	c-4.4,0-7.3,0.5-9.2,1.4c-1.9,0.9-3.6,2.3-5,4.2c-1.3,1.8-2.6,4.3-3.7,7.7c-1,2.8-1.5,5.9-1.7,9.1c-0.6-1.9-1.5-3.7-2.8-5.3
	c-2.8-3.5-6.5-5.3-11.1-5.3c-2.5,0-4.9,0.7-7.2,2c-1.8,1.1-3.4,2.6-4.6,4.6l-0.9-5.8h-24.1H836h-29.3v5.9h2.4
	C809.7,348.9,810,349,810.1,349z M906.7,365.7c-0.6,0.9-1.4,1.3-2.5,1.3c-0.5,0-1.8,0-3.5-2.4c-1.3-1.8-1.9-4.8-1.9-8.7
	c0-3.4,0.7-5,1.3-5.7c0.7-0.9,1.5-1.3,2.6-1.3c0.9,0,2.2,0.3,3.5,2.5c1.2,2.1,1.8,4.8,1.8,8C907.9,363.2,907.3,364.9,906.7,365.7z
	 M872.1,349.4c0.6-0.4,1.2-0.5,1.7-0.5c1.2,0,2.2,0.5,3,1.7c1.6,2.1,2.4,5.2,2.4,9.1c0,3.9-0.8,5.5-1.2,6.1
	c-0.7,0.9-1.5,1.3-2.5,1.3c-0.9,0-2.3-0.3-3.6-2.7c-1.3-2.3-1.9-5.1-1.9-8.3c0-1.9,0.2-3.5,0.7-4.6
	C871.2,350.4,871.6,349.7,872.1,349.4z M824.5,349c0,0.3,0.1,1,0.1,2.3v3.9c-1.1,0.5-2.1,0.7-3.3,0.7c-1.1,0-1.5-0.1-1.7-0.2
	c0-0.2-0.1-0.6-0.1-1.3v-3.1c0-1.3,0.1-2,0.1-2.4c0.2,0,0.5-0.1,1.3-0.1h2.2C823.9,348.9,824.3,349,824.5,349z"/>
<path d="M929.6,349c0.3,0,0.9-0.1,2.3-0.1h2.4V343h-18.1v5.9h2.4c0.7,0,1.1,0.1,1.3,0.1c0,0.3,0.1,1,0.1,2.3v13.4
	c0,1.3-0.1,2-0.2,2.4c-0.2,0-0.6,0.1-1.2,0.1h-2.4v5.9h14.6c3.3,0,6-0.5,8.1-1.7v1.7h17.6v-5.9h-2.4c-0.7,0-1.1-0.1-1.3-0.1
	c0-0.3-0.1-1-0.1-2.4v-13.4c0-1.4,0.1-2,0.1-2.3c0.2,0,0.6-0.1,1.3-0.1h2.4V343H939v5.9l2.4,0c1,0,1.5,0.1,1.8,0.1
	c0,0.3,0.1,1,0.1,2.3v8.8c-1.3-3.2-4.7-6-13.1-5.9l-0.7,0v-2.8C929.5,350.1,929.6,349.4,929.6,349z M929.5,366.4v-5.5
	c4.2,0.2,4.2,1.9,4.2,2.8c0,0.8-0.3,1.3-0.9,1.8C932.1,366.2,930.9,366.5,929.5,366.4z"/>
<path d="M992.5,371c1-0.6,1.8-1.3,2.4-2.1v4.2h29.6v7h5.7l0.2-2.2c0.1-1.3,0.5-2.3,1-3.1c0.4-0.7,1-1.1,1.6-1.3
	c0.6-0.2,1.8-0.4,4-0.4h6.5c2.5,0,3.8,0.3,4.4,0.5c0.7,0.3,1.2,0.7,1.6,1.3c0.5,0.8,0.7,1.7,0.8,2.8l0.1,2.3h5.8v-12.8l-2.4-0.1
	c-0.6,0-1-0.1-1.3-0.1c-0.1-0.4-0.2-1.4-0.2-3.2v-12.5c0-1.3,0.1-2,0.1-2.4c0.2,0,0.6-0.1,1.3-0.1h2.4V343H1029v5.8l2.4,0.1
	c1.2,0,1.9,0.2,1.9,2.4c0,3-0.4,6-1.3,9.1c-1.1,3.8-2.1,5.1-2.6,5.6c-0.8,0.7-1.6,1.1-2.5,1.1h-1.9c-0.7,0-1.1-0.1-1.3-0.1
	c0-0.3-0.1-1-0.1-2.4v-13.4c0-1.3,0.1-2,0.1-2.4c0.2,0,0.5-0.1,1.3-0.1h2.4V343h-32.5v5.9h2.4c0.7,0,1.1,0.1,1.3,0.1
	c0,0.3,0.1,1,0.1,2.3v13.4c0,1.3-0.1,2-0.2,2.4c-0.2,0-0.6,0.1-1.2,0.1h-1.4c0.4-1,0.6-2.2,0.6-3.4c0-2.2-0.7-4.9-3.6-6.8
	c1.7-1.7,2-3.8,2-5.2c0-2.1-0.6-3.9-1.9-5.3c-1.2-1.4-2.8-2.4-4.7-2.8c-1.6-0.4-3.6-0.6-6-0.6h-14.1v5.9h2.4c0.7,0,1,0,1.2,0.1
	c0,0.3,0.1,1,0.1,2.4v13.4c0,1.3-0.1,2.1-0.2,2.4c-0.2,0-0.6,0.1-1.1,0.1h-2.4v5.9h14.9C987.1,373.1,990.2,372.4,992.5,371z
	 M1010.3,367.2l-1.3,0c-0.3,0-0.5,0-0.7-0.1c0-0.2-0.1-0.4-0.1-0.8l6-6.9v5.3c0,1.3-0.1,2-0.2,2.4c-0.2,0-0.6,0.1-1.2,0.1
	L1010.3,367.2L1010.3,367.2z M1042.9,349.7v15.6c0,0.5,0,0.8,0,1.1c-0.2,0-0.5,0-0.8,0h-5.1c2-4.3,3-9.9,3.1-16.8H1042.9z
	 M1012,348.9l1.2,0c0.4,0,0.7,0.1,0.8,0.1c0,0.1,0.1,0.2,0.1,0.4l-6,6.9v-5c0-1.3,0.1-2,0.1-2.4c0.2,0,0.5-0.1,1.3-0.1L1012,348.9
	L1012,348.9z M981.5,354.2v-4.6c1.9,0.1,2.8,0.5,3.1,0.7c0.2,0.1,0.6,0.4,0.6,1.4c0,0.7-0.2,1.2-0.8,1.7
	C984.1,353.7,983.3,354.1,981.5,354.2z M986.4,363.7c0,0.8-0.2,1.4-0.8,1.9c-0.6,0.5-1.7,0.8-3.2,0.8c-0.3,0-0.6,0-0.8,0v-5.4
	c1.7,0,3,0.4,3.9,0.9C986.1,362.3,986.4,362.9,986.4,363.7z"/>
<path d="M1058.5,369.5c2.6,2.9,5.8,4.3,9.6,4.3c3.5,0,6.5-1.3,8.8-3.9c2.2-2.4,3.5-5.1,4-8.1l0.2-1.6l-4.5-2.9h4.3v-2.4
	c0-0.1,0-0.2,0-0.2h2.7l0.5-1.9c0.4-1.6,0.8-2.3,0.9-2.5c0.3-0.4,0.5-0.5,0.4-0.5c0.1,0,0.6-0.2,2.3-0.2v15.1c0,1.3-0.1,2-0.2,2.3
	c-0.3,0.1-0.8,0.1-1.6,0.2l-2.4,0v5.8h18.6v-5.8l-2.4-0.1c-1.4,0-2.1-0.1-2.5-0.2c0-0.4-0.1-1.1-0.1-2.3v-15.1
	c1.7,0,2.2,0.2,2.3,0.2c0.1,0,0.3,0.1,0.6,0.6c0.2,0.3,0.5,0.9,0.7,2.2l0.3,2.1h6.2l-0.9-5.8c0.5,0,0.8,0.1,1,0.1
	c0,0.3,0.1,1,0.1,2.3v13.4c0,1.3-0.1,2-0.2,2.4c-0.2,0-0.6,0.1-1.2,0.1h-2.4v5.9h14.6c4,0,7-0.8,9.3-2.4c2.5-1.7,3.8-4.2,3.8-7.2
	c0-4.3-2.4-9.4-13.7-9.4l-0.7,0v-2.8c0-1.3,0.1-2,0.1-2.3c0.3,0,0.9-0.1,2.3-0.1h2.4V343h-16.3h-1.8h-24.2l-0.7,4.2
	c-0.4-0.5-0.8-1-1.2-1.5c-2.3-2.3-5.2-3.5-8.7-3.5c-4,0-7.4,1.5-10.1,4.4c-2.6,2.9-4,6.8-4,11.7
	C1054.6,363,1055.9,366.7,1058.5,369.5z M1116.7,366.4v-5.5c4.2,0.2,4.2,1.9,4.2,2.8c0,0.8-0.3,1.3-0.9,1.8
	C1119.3,366.2,1118.1,366.5,1116.7,366.4z M1075.2,360c-0.6,1.7-1.4,3-2.2,3.6c-0.8,0.6-1.7,0.9-2.9,0.9c-1.8,0-3.3-0.8-4.6-2.3
	c-1-1.2-1.7-2.8-2-4.8h12.7L1075.2,360z M1064.1,350.9c0.2-0.3,0.4-0.5,0.6-0.8c0.7-0.7,1.5-1.1,2.4-1.1c0.5,0,1,0.2,1.5,0.5
	c0.5,0.3,0.9,0.8,1.1,1.4H1064.1z"/>
<path d="M569.8,732.9c0-0.3-0.1-1-0.1-2.4v-13.4c0-1.3,0.1-2,0.1-2.4c0.2,0,0.5-0.1,1.3-0.1h2.4v-5.9H541v5.9h2.4
	c0.7,0,1.1,0.1,1.3,0.1c0,0.3,0.1,1,0.1,2.3v13.4c0,1.3-0.1,2-0.2,2.4c-0.2,0-0.6,0.1-1.2,0.1H541v5.9h32.5V733h-2.4
	C570.3,733,569.9,732.9,569.8,732.9z M555.6,733c-0.7,0-1.1-0.1-1.3-0.1c0-0.3-0.1-1-0.1-2.4v-15.1h6v15.1c0,1.3-0.1,2-0.2,2.4
	c-0.2,0-0.6,0.1-1.2,0.1h-0.8H555.6z"/>
<path d="M797,720l-0.7,0v-2.8c0-1.3,0.1-2,0.1-2.3c0.3,0,0.9-0.1,2.3-0.1h2.4v-5.9h-16.3h-1.8h-22.3H759h-11.8
	c-4.3,0-7.3,0.8-9.3,2.4c-2.1,1.7-3.2,3.9-3.2,6.3c0,2.4,1,5.5,5.1,7.8l-4.2,5.9c-0.8,1.1-1.2,1.6-1.3,1.7c-0.1,0-0.3,0-0.6,0h-1.2
	c-0.7,0-1.1-0.1-1.3-0.1c0-0.3-0.1-1-0.1-2.4v-13.4c0-1.3,0.1-2,0.1-2.4c0.2,0,0.6-0.1,1.3-0.1h2.4v-5.9h-27.4v5.7l2.3,0.2
	c0.7,0.1,1.1,0.1,1.3,0.2c0.1,0.5,0.2,1.5,0.2,3.7v5.6c0,3.3-0.2,5.1-0.4,6.1c-1.1-0.9-2.2-1-3-1c-0.6,0-1.1,0.1-1.6,0.3
	c0.7-1.9,1.1-4,1.1-6.1c0-4-1.3-7.5-3.9-10.6c-2.7-3.2-6.2-4.8-10.5-4.8c-1.9,0-4,0.3-6.1,1.4c0.3-0.6,0.7-1.1,1-1.5
	c1.1-1.3,1.8-1.6,2.2-1.8c0.5-0.1,1.7-0.4,5-0.5c2.8-0.1,4.7-0.3,5.9-0.6c1.4-0.4,2.6-1.1,3.8-2.1c1.2-1.1,2.1-2.7,2.9-4.9l1.1-3.2
	h-5.6l-0.7,0.8c-0.2,0.3-0.4,0.3-0.4,0.3c-0.1,0-0.9,0.1-4.6,0.2c-4.4,0-7.3,0.5-9.2,1.4c-1.9,0.9-3.6,2.3-5,4.2
	c-1.3,1.8-2.6,4.3-3.7,7.7c-0.7,2-1.1,4.1-1.4,6.3c-0.6-1.6-1.4-3-2.6-4.2c-2.3-2.3-5.2-3.5-8.7-3.5c-4,0-7.4,1.5-10.1,4.4
	c-1.7,1.8-2.8,4.1-3.4,6.8c-0.5-2.8-1.6-5.3-3.4-7.3c-2.2-2.5-4.9-3.8-8.2-3.8c-1.9,0-3.8,0.6-5.5,1.8c0,0-0.1,0.1-0.1,0.1v-1.7h-4
	l-7,2.8l-0.4-2.2h-26l-0.8,5.5c-0.2-0.3-0.4-0.6-0.7-1c-2.8-3.5-6.5-5.3-11.1-5.3c-2.5,0-4.9,0.7-7.2,2c-2.3,1.3-4.1,3.4-5.5,6.1
	c-1.3,2.6-2,5.3-2,8c0,3.7,1.1,7.1,3.3,10c2.7,3.7,6.4,5.5,11,5.5c2.8,0,5.3-0.7,7.6-2.1c2.3-1.4,4.1-3.5,5.4-6.3
	c1.2-2.6,1.9-5.3,1.9-7.9c0-1-0.1-1.9-0.2-2.9h2.5l0.4-1.9c0.4-1.6,0.8-2.3,0.9-2.5c0.3-0.4,0.5-0.5,0.4-0.5c0.1,0,0.6-0.2,2.3-0.2
	v15.1c0,1.3-0.1,2-0.2,2.3c-0.3,0.1-0.8,0.1-1.6,0.2l-2.4,0v5.8h18.6v-5.8l-2.4-0.1c-1.4,0-2.1-0.1-2.5-0.2c0-0.4-0.1-1.1-0.1-2.3
	v-15.1c1.7,0,2.2,0.2,2.3,0.2c0.2,0.1,0.4,0.3,0.6,0.6c0.2,0.3,0.5,0.9,0.7,2.2l0.3,2.1h6.1v22c0,1.4-0.1,2.1-0.1,2.4
	c-0.3,0.1-0.7,0.1-1.2,0.2h-3.1v5.9h18.1V745h-2.4c-1.1,0-1.6-0.1-1.7-0.1c0-0.3-0.1-0.9-0.1-2.2v-3.5c1.1,0.3,2.3,0.5,3.6,0.5
	c3.8,0,7.1-1.5,9.6-4.3c1.9-2.1,3.1-4.7,3.8-7.5c0.5,3,1.7,5.5,3.6,7.5c2.6,2.9,5.8,4.3,9.6,4.3c3.5,0,6.4-1.3,8.8-3.9
	c2.1-2.3,3.4-4.9,3.9-7.7c0.1,0.5,0.3,1,0.5,1.5l-0.1,3.1l0.7-1.7c0.4,0.9,0.9,1.8,1.4,2.6c2.5,3.9,6.3,6,11,6c4.6,0,8.3-1.7,11-5.1
	c0.2,2.4,1.8,4.8,5.9,4.8c1.9,0,3.6-0.6,5.1-1.6c1.1-0.8,1.9-1.9,2.5-3.2v4.4h14.3h3.7h6.3l2.5-3.6v3.6h17.1V733h-2.4
	c-0.8,0-1.1-0.1-1.3-0.2c0-0.3-0.1-0.9-0.1-2.3v-13.4c0-1.4,0.1-2,0.1-2.3c0.1,0,0.4-0.1,0.9-0.1l-0.9,5.8h6l0.4-1.9
	c0.4-1.6,0.8-2.3,0.9-2.5c0.3-0.4,0.5-0.5,0.4-0.5c0.1,0,0.6-0.2,2.3-0.2v15.1c0,1.3-0.1,2-0.2,2.3c-0.3,0.1-0.8,0.1-1.6,0.2l-2.4,0
	v5.8h18.6v-5.8l-2.4-0.1c-1.4,0-2.1-0.1-2.5-0.2c0-0.4-0.1-1.1-0.1-2.3v-15.1c1.7,0,2.2,0.2,2.3,0.2c0.2,0.1,0.4,0.3,0.6,0.6
	c0.2,0.3,0.5,0.9,0.7,2.2l0.3,2.1h6.2l-0.9-5.8c0.5,0,0.8,0.1,1,0.1c0,0.3,0.1,1,0.1,2.3v13.4c0,1.3-0.1,2-0.2,2.4
	c-0.2,0-0.6,0.1-1.2,0.1h-2.4v5.9h14.6c4,0,7-0.8,9.3-2.4c2.5-1.7,3.8-4.2,3.8-7.2C810.8,725.1,808.4,720,797,720z M673.6,725.8
	c-0.6,1.7-1.4,3-2.2,3.6c-0.8,0.6-1.7,0.9-2.9,0.9c-1.8,0-3.2-0.7-4.6-2.3c-1-1.2-1.7-2.8-2-4.8h12.7L673.6,725.8z M665.5,714.8
	c0.5,0,1,0.2,1.5,0.5c0.5,0.3,0.9,0.8,1.1,1.4h-5.6c0.2-0.3,0.4-0.5,0.6-0.8C663.9,715.2,664.6,714.8,665.5,714.8z M644,725.5
	c0,2.8-0.6,5-1.7,6.4c-0.7,0.8-1.5,1.2-2.6,1.2c-1,0-1.7-0.2-2.3-0.7c-0.6-0.5-0.9-0.9-1.1-1.5c0-0.1-0.2-0.8-0.2-3.4v-8.5
	c1.4-1.4,1.9-1.7,1.9-1.8c0.5-0.3,1-0.4,1.5-0.4c0.6,0,1.4,0.1,2.3,1.2C643.4,719.8,644,722.3,644,725.5z M589.8,731.6
	c-0.7,0.9-1.5,1.3-2.5,1.3c-0.9,0-2.3-0.3-3.6-2.7c-1.3-2.3-1.9-5.1-1.9-8.3c0-1.9,0.2-3.5,0.7-4.6c0.4-0.9,0.9-1.6,1.4-1.9
	c0.6-0.4,1.2-0.5,1.7-0.5c1.2,0,2.2,0.5,3,1.7c1.6,2.1,2.4,5.2,2.4,9.1C591,729.4,590.2,731,589.8,731.6z M626.3,716.9
	c0.2-0.1,0.3-0.1,0.5-0.1c0,0.4,0.1,1,0.1,1.9v1.4L626.3,716.9z M674.9,723.2h3.3c0.1,0.8,0.2,1.6,0.3,2.3L674.9,723.2z
	 M689.6,716.1c0.7-0.9,1.5-1.3,2.6-1.3c0.9,0,2.2,0.3,3.5,2.5c1.2,2.1,1.8,4.8,1.8,8c0,3.7-0.7,5.4-1.2,6.2
	c-0.6,0.9-1.4,1.3-2.5,1.3c-0.5,0-1.8,0-3.5-2.4c-1.3-1.8-1.9-4.8-1.9-8.7C688.4,718.5,689,716.9,689.6,716.1z M717.6,732.6
	c0.4-1.8,0.6-4.8,0.6-9v-8.2h3.5v15.1c0,1.5-0.1,2.1-0.2,2.4c-0.3,0-0.9,0.1-2.1,0.1h-2C717.5,732.9,717.6,732.8,717.6,732.6z
	 M744.9,717.7c0-0.6,0.2-1.1,0.7-1.6c0.5-0.5,1.3-0.6,2-0.7v5.2c-0.6-0.2-1.2-0.4-1.6-0.8C745.2,719.2,744.9,718.5,744.9,717.7z
	 M747.6,729.9v0.6c0,1.3-0.1,2-0.2,2.4c-0.2,0-0.6,0.1-1.2,0.1h-0.8L747.6,729.9z M800.6,729.5c0,0.8-0.3,1.3-0.9,1.8
	c-0.8,0.7-2,0.9-3.4,0.9v-5.5C800.6,726.8,800.6,728.6,800.6,729.5z"/>

</svg>