<svg xmlns="http://www.w3.org/2000/svg" viewBox="0 0 1422 760" fill="#DD1997">

<path d="M193.3,402.2h47.6l24-54.1v54.1h74.4V172.4h-67.9l-24,54.1v-54.1h-55.8h-18.5h-68.3l-30.4,51.2v-51.2H0v229.8
	h74.3v-55.6l32.5,55.6h66.3H193.3z M122.6,283.9l50.5-81.5v166.1L122.6,283.9z"/>
<path d="M356.6,351.4l0.1,0.2c3.2,7.5,7.2,14.5,11.9,20.8c4.9,6.6,10.7,12.3,17.2,17c7,5.1,14.9,9,23.6,11.6
	c8.5,2.6,17.7,3.9,27.5,3.9c12.1,0,23.5-1.9,33.8-5.5c10.6-3.8,19.9-9.3,27.7-16.4c7.8-7.1,14.1-15.8,18.7-25.8h0
	c4.5-9.8,7.2-20.8,7.9-32.8l1.3-19.7h-74.4l-1.1,17.4c-0.3,4.9-1.1,7.8-1.7,9.4c-0.6,1.6-1.3,2.8-2.1,3.5c-0.4,0.4-1.2,1-2.7,1.5
	c-2,0.6-4.6,1-7.5,1c-1.9,0-3.5-0.2-4.8-0.6c-0.8-0.2-1.4-0.5-2-1l-0.2-0.2c-0.6-0.4-1.1-1-1.7-1.8c-0.8-1.1-1.6-2.6-2.2-4.1
	c-1.2-3.1-2.2-7-2.8-11.6c-0.7-5.2-1.1-11.2-1.1-18v-26.2c0-5,0.2-9.6,0.7-13.8c0.4-3.8,1.1-7.3,1.9-10.3c1-3.5,2.3-6.4,3.8-8.8
	c0.9-1.4,1.9-2.4,2.9-3c0.6-0.3,1.2-0.6,2-0.8c1.1-0.3,2.3-0.4,3.7-0.4c4,0,6.4,0.6,7.6,1c1.4,0.5,2.1,1.1,2.6,1.5
	c0.8,0.9,1.4,2.3,1.9,4c0.9,2.9,1.5,6.4,1.8,10.6l1.1,17.4h74.8l-1.8-20.2c-1-11.9-3.6-22.9-7.7-32.7c-4.3-10.4-10.4-19.3-18.1-26.6
	c-7.7-7.3-16.9-13-27.6-16.9c-10.3-3.7-21.9-5.6-34.6-5.6c-8.9,0-17.4,1.2-25.2,3.5c-7.9,2.3-15.3,5.7-22,10l-0.4,0.3
	c-7.3,5-13.9,11.1-19.7,18.3c-5.7,7.1-10.4,15.3-13.9,24.3c-2.9,7.2-5.1,15-6.6,23.2c-1.4,8-2.1,16.6-2.1,25.4v25.9
	c0,9.4,0.8,18.4,2.4,26.9C351.2,335.9,353.5,344.1,356.6,351.4z"/>
<path d="M609.4,223.6v-51.2h-74.3v229.8h74.3v-55.6l32.5,55.6h66.3h20.2H776l24-54.1v54.1h74.4V172.4h-67.9l-24,54.1
	v-54.1h-55.8h-18.5h-68.3L609.4,223.6z M708.2,368.4l-50.5-84.5l50.5-81.5V368.4z"/>
<path d="M240.2,511c1.3,3.8,3.4,7.1,6.3,10c5.1,5.1,12,7.8,20.1,7.8c9.6,0,19.2-3.2,28.6-9.6c8.3-5.6,17.4-13.4,27-23.3
	c7.7-7.9,15.1-16.1,21.9-24.3c6.8-8.2,12.5-15.3,16.8-21.1l6-8L349,429l-6,7.8c-1.8,2.3-4,5.1-6.6,8.3c-2.6,3.3-5.7,6.9-9,10.8
	c-3.3,3.9-6.8,7.9-10.6,12c-3.8,4.1-7.7,8.3-11.6,12.4c-3.1,3.1-6.4,6.2-9.8,9.3c-3.3,3-6.6,5.6-9.7,7.8c-1.9,1.3-3.7,2.5-5.4,3.5
	c0.3-0.8,0.7-1.7,1.1-2.7c2.3-4.9,5.5-10.8,9.6-17.6c4.3-7.1,9.5-15.2,15.4-24.2c6.1-9.3,12.8-20,19.9-31.8l10-16.6l-52.3,4.1
	l-26,42.3c-3.9,6.4-8.3,12.7-13.2,18.7c-4.8,5.9-9.7,11.2-14.6,15.8c-4.7,4.4-9.2,7.9-13.4,10.4c-1.2,0.7-2.2,1.3-3.1,1.7
	c1.1-3.9,3.9-10.8,11.2-22.3c9-14,20.7-32.1,34.8-53.7l10.6-16.2l-53.4,2l-2.8,4.6c-12.7,20.8-22.8,37.9-30.2,50.9
	c-8.5,14.9-12.4,25.9-12.4,34.8c0,7,2.2,13.3,6.6,18.7c3.3,4.1,9.6,8.9,20.5,8.9c7.1,0,13.9-1.4,20.1-4.1c5.7-2.5,11-5.6,16-9.3
	C236.5,514,238.4,512.5,240.2,511z"/>
<path d="M1403.8,429l-6,7.8c-5.5,7-11.1,14-16.9,20.6c-5.8,6.7-11.2,12.7-15.8,17.7c-10.3,10.8-18.9,18.6-25.6,23.2
	c-1.7,1.2-3.2,2.1-4.4,2.8c0.7-1.9,1.7-4.1,3-6.8c1.4-2.8,3.4-6.2,5.9-10.3l0.1-0.2c2.3-3.8,5-8.2,8.1-12.9
	c3.3-5,6.8-10.7,10.5-16.6l29-46.1l-52.8,4.1l-2.7,4.3c-1.9,3-3.8,6.3-5.9,9.8c-1.9,3.3-4.5,7.5-7.8,12.5l-0.2,0.3
	c-1.6,2.6-3.1,5.1-4.7,7.5c-1.5,2.2-2.8,4.4-4.1,6.6H1296l5.8-8.9c4-6,8.2-12.4,12.8-19.3l10.7-16.2l-53.5,2l-36.4,61.2
	c-2.6,2.8-5.2,5.5-7.8,8.3c-3.1,3.1-6.4,6.2-9.8,9.3c-3.3,3-6.6,5.6-9.7,7.8c-1.9,1.3-3.7,2.5-5.4,3.5c0.3-0.8,0.7-1.7,1.1-2.7
	c2.3-4.9,5.5-10.8,9.6-17.6c4.3-7.1,9.5-15.2,15.4-24.2c6.1-9.3,12.8-20,19.9-31.8l10-16.6l-52.3,4.1l-26,42.3
	c-3.9,6.4-8.3,12.7-13.2,18.7c-4.8,5.9-9.8,11.2-14.6,15.8c-4.7,4.4-9.2,7.9-13.4,10.4c-1.2,0.7-2.2,1.3-3.1,1.7
	c1.1-3.9,3.9-10.8,11.2-22.3c9-14.1,20.7-32.2,34.8-53.7l10.6-16.2l-53.4,2l-2.8,4.6c-12.7,20.8-22.8,37.9-30.2,50.9
	c-2.4,4.2-4.4,8.2-6.1,11.8c-1.1,1.1-2.2,2.3-3.4,3.4c-11.8,11.8-19.2,17.3-23.7,19.9c0.7-1.7,1.7-3.5,3-5.4
	c3.8-5.7,8.1-11.7,12.9-17.9c5.1-6.6,9.7-13.3,13.9-19.9c4.9-8,7.5-16.1,7.5-24.1c0-7.3-2.8-14-8.1-19.4c-5.4-5.5-12.7-8.4-21.1-8.4
	c-7.7,0-15.5,2.2-23,6.6c-5.9,3.4-11.7,7.6-17.1,12.4c-1.6-6.4-5.2-10.5-8.3-12.9c-5.3-4.1-11.7-6.1-19-6.1c-3.8,0-7.5,0.4-11.1,1.3
	l0.1-0.1l-58.1,3l-2.7,4.7c-6.9,12.1-14,24.1-21.1,35.8c-0.5,0-1,0.1-1.4,0.1c-3,0-4.3-0.9-5.2-1.9c-1.7-1.8-2.8-4.3-3.4-7.7
	c-1.6-9.6-6.1-17.8-13.3-24.6c-7.5-7-17.5-10.6-29.9-10.6c-10.3,0-20.9,2.2-31.5,6.6c-10.3,4.3-19.9,10.1-28.4,17.3
	c-8.7,7.3-15.8,16-21.2,25.8c-2.9,5.1-5,10.5-6.4,15.9c-2.2,2.5-4.5,4.8-6.6,7c-2.5,2.5-5.3,5.3-8.5,8.4c-3,2.9-6.2,5.7-9.6,8.4
	c-2.7,2.1-5.3,3.9-7.9,5.5c0.2-0.7,0.4-1.3,0.7-2c0.8-2.4,1.5-5,2.2-7.8c0.8-3.3,1.2-6.9,1.2-10.6c0-6.4-1.6-11.9-4.7-16.3
	c-0.3-0.4-0.6-0.9-1-1.3c1.4,0.1,3,0.2,4.8,0.2c4.4,0,8.7-0.8,12.7-2.3c3.9-1.5,7.5-3.5,10.6-6.1c3.4-2.8,6.2-6.1,8.1-10
	c2.1-4,3.2-8.5,3.2-13.4c0-7.7-3-14.2-8.6-18.9c-5.2-4.3-11.6-6.5-19-6.5c-6.5,0-12.8,1.3-18.8,3.8l0.9-1.3l-54.3,2l-36.2,60.4
	c-2.8,3-5.7,6.1-8.5,9.1c-3.1,3.1-6.4,6.2-9.8,9.3c-3.3,3-6.6,5.6-9.7,7.8c-1.9,1.3-3.7,2.5-5.4,3.5c0.3-0.8,0.7-1.7,1.1-2.7
	c2.3-4.9,5.5-10.8,9.6-17.6c4.3-7.1,9.5-15.2,15.4-24.2c6.1-9.3,12.8-20,19.9-31.8l10-16.6l-52.3,4.1l-26,42.3
	c-3.9,6.4-8.3,12.7-13.2,18.7c-4.8,5.9-9.7,11.2-14.6,15.8c-4.7,4.4-9.2,7.9-13.4,10.4c-1.2,0.7-2.2,1.3-3.1,1.7
	c1.1-3.9,3.9-10.8,11.2-22.3c9-14,20.7-32.1,34.8-53.7l10.6-16.2l-53.4,2l-2.8,4.6c-12.7,20.8-22.8,37.9-30.2,50.9
	c-2,3.5-3.8,6.8-5.3,10c-9.7,10.1-17.9,17.5-24.3,21.8c-1.7,1.2-3.2,2.1-4.4,2.8c0.7-1.9,1.7-4.1,3-6.8c1.4-2.8,3.4-6.2,5.9-10.3
	l0.1-0.2c2.3-3.8,5-8.2,8.1-12.9c3.3-5.1,6.8-10.7,10.5-16.6l29-46.1l-52.8,4.1l-2.7,4.3c-1.8,3-3.8,6.2-5.9,9.8
	c-1.9,3.3-4.5,7.5-7.8,12.5l-0.2,0.3c-1.5,2.6-3.1,5.1-4.7,7.5c-1.5,2.2-2.8,4.4-4.1,6.6h-17.5l5.8-8.9c4-6,8.2-12.4,12.8-19.3
	l10.7-16.2l-53.5,2l-69.6,117l53.5-3l2.6-5.2c2.5-5,5.2-10.4,8-15.8c2.5-4.7,5.4-9.9,8.4-15.4c2.2-4,4.6-8.1,6.9-12.1h18.4
	c-0.2,0.4-0.4,0.8-0.6,1.2c-1.9,3.9-3.4,7.8-4.5,11.8c-1.3,4.3-1.9,8.5-1.9,12.5c0,12.4,5.6,18.5,10.3,21.5
	c5.4,3.5,11.5,5.2,18.1,5.2c8.5,0,17.8-3,27.7-9c3.1-1.9,6.4-4.2,9.9-7c1.1,2.5,2.5,4.9,4.3,7.1c3.3,4.1,9.6,8.9,20.5,8.9
	c7.1,0,13.9-1.4,20.1-4.1c5.7-2.5,11-5.6,16-9.3c1.9-1.4,3.8-2.9,5.6-4.5c1.3,3.8,3.4,7.1,6.3,10c5.1,5.1,12,7.8,20.1,7.8
	c4.7,0,9.4-0.8,14.1-2.3l-0.1,0.2l50.2-1.6l2.8-4.9c8.6-15.3,18.3-29.6,28.9-42.8c2.6,2,6,3,10,2.9c-1.3,2.7-2.6,5.7-3.9,9
	c-2,5.1-3,9.7-3,14.1c0,12,5,18.2,9.2,21.3c5.2,3.8,11.9,5.7,20,5.7c8.6,0,17.7-2.9,27.8-8.8c6.8-4,14.2-9.7,22.2-17.2
	c2,5.6,5.2,10.6,9.5,14.7c7.9,7.5,18.2,11.3,30.8,11.3c10.6,0,21-2,30.9-6c9.6-3.9,18.5-9.3,26.3-16c7.8-6.7,14.5-14.6,20-23.5
	c2.7-4.4,5.1-9.1,7.1-13.8c0.9,0.4,1.8,0.8,2.7,1.2c-7.9,12.8-15.9,25.7-24,38.5l-10,16l51.8-2.1l2.7-4.8c2.1-3.6,5-8.4,8.7-14.2
	c3.7-5.8,7.9-12.1,12.7-18.8c4.8-6.7,9.9-13.5,15.2-20.1c5.3-6.6,10.6-12.6,15.8-18c5-5.1,9.8-9.3,14.2-12.5
	c2.1-1.5,3.7-2.3,4.9-2.8c-0.4,1.4-1.2,3.6-2.8,6.9c-2.7,5.3-6.2,11.5-10.6,18.5c-4.5,7.2-9.8,15.2-15.6,23.9
	c-6,8.9-12.1,18.3-18.2,28l-10.1,16l53.2-2l2.8-4.8c2.1-3.7,5-8.5,8.6-14.3c3.6-5.7,7.7-12.1,12.4-18.8c4.6-6.7,9.6-13.4,14.9-20.2
	c5.1-6.5,10.3-12.5,15.4-17.9c5-5.1,9.8-9.3,14.2-12.5c1.2-0.9,2.3-1.5,3.2-2c-0.6,1.1-1.4,2.4-2.6,4c-3.9,5.4-8.3,11.3-13.1,17.5
	c-5.1,6.6-9.8,13.5-14,20.5c-4.9,8.2-7.4,16.2-7.4,23.8c0,8,2.8,15.1,8.2,20.5c5.5,5.4,12.8,8.2,21.8,8.2c4.2,0,8.5-0.7,12.6-2
	c3.9-1.2,8.1-3.2,12.3-5.8c3.5-2.1,7.2-4.9,11.1-8.1c1.1,2.4,2.5,4.7,4.2,6.9c3.3,4.1,9.6,8.9,20.5,8.9c7.1,0,13.9-1.4,20.1-4.1
	c5.7-2.5,11-5.6,16-9.3c1.9-1.4,3.8-2.9,5.6-4.5c1.3,3.8,3.4,7.1,6.3,10c5.1,5.1,12,7.8,20.1,7.8c4.7,0,9.4-0.8,14.1-2.3l-0.9,1.5
	l53.5-3l2.6-5.2c2.5-5,5.2-10.4,8-15.8c2.5-4.6,5.3-9.8,8.4-15.4c2.2-4,4.6-8.1,6.9-12.1h18.4c-0.2,0.4-0.4,0.8-0.6,1.2
	c-1.9,3.9-3.4,7.8-4.5,11.8c-1.3,4.3-1.9,8.5-1.9,12.5c0,12.4,5.6,18.5,10.3,21.5c5.4,3.5,11.5,5.2,18.1,5.2c8.5,0,17.8-3,27.7-9
	c9.2-5.6,19.8-14.9,32.5-28.6c5-5.3,10.4-11.4,16-18.1c5.6-6.6,11.7-14.2,18.2-22.4l6.2-8L1403.8,429z M830.4,504.3
	c-2.8,1.9-5.4,2.9-7.9,2.9c-0.6,0-1-0.1-1.3-0.1c-0.3-0.5-0.7-1.8-0.7-4.3c0-2.9,0.6-6.8,1.9-11.6c1.3-5.1,3.2-10.5,5.6-16.2
	c2.4-5.7,5.4-11.6,8.7-17.4c3.2-5.6,6.7-10.7,10.5-15c3.6-4.2,7.3-7.6,11-10.1c2.8-1.9,5.4-2.9,7.9-2.9c0.6,0,1,0.1,1.3,0.1
	c0.3,0.5,0.7,1.8,0.7,4.3c0,2.9-0.6,6.8-1.9,11.6c-1.3,5.1-3.2,10.6-5.6,16.2c-2.5,5.8-5.4,11.6-8.7,17.4c-3.2,5.6-6.7,10.6-10.5,15
	C837.9,498.3,834.1,501.8,830.4,504.3z M738.9,439.6c-0.6,1.7-1.2,3.4-1.8,5c-0.7,1.7-1.3,3.2-1.8,4.4l-1.8,4.2l-1.5,0.5
	c-3.4-1.4-6.9-2.3-10.3-2.5c4.4-4.3,9-8.3,13.6-11.8c1.9-1.5,3.5-2.5,4.8-3.1C739.6,437.3,739.2,438.5,738.9,439.6z"/>

</svg>