<?xml version="1.0" encoding="utf-8"?>
<svg xmlns="http://www.w3.org/2000/svg" viewBox="0 0 893.04 355.93">
<style type="text/css">
	@import url("../../../../styles/logos-draft.css");
	.d{fill:url(#d);}
	--draft-invert-color: #252525;
	--draft-color: #FFF;
</style>

<g class="main wb">
	<defs>
		<pattern id="d" width="6" height="6" patternUnits="userSpaceOnUse" patternTransform="rotate(45 50 50)">
			<line class="h" x1="0" y1="0" x2="0" y2="10"></line>
		</pattern>
	</defs>

	<rect class="bg" x="2.52" y="2.41" width="888" height="351.11"/>
	<rect class="dl" x="2.52" y="2.41" width="888" height="351.11"/>

	<g class="d">
		<path d="M391.55,236.49h16.99v101.03h52.99v16.01h-69.98V236.49z"/>
		<path d="M391.55,2.41h16.99v101.03h52.99v16.01h-69.98V2.41z"/>
		<path d="M773.48,170.06v-16.99h101.03v-52.99h16.01v69.98H773.48z"/>
		<path d="M2.52,170.06v-16.99h101.03v-52.99h16.01v69.98H2.52z"/>
	</g>

	<g class="mjl">
		<line x1="2.52" y1="119.45" x2="890.52" y2="119.45"/>
		<line x1="2.52" y1="236.49" x2="890.52" y2="236.49"/>
		<line x1="119.56" y1="2.41" x2="119.56" y2="353.52"/>
		<line x1="773.48" y1="2.41" x2="773.48" y2="353.52"/>
	</g>

	<g class="mnl">
		<line x1="236.59" y1="2.41" x2="236.59" y2="353.52"/>
		<line x1="300.23" y1="2.41" x2="300.23" y2="353.52"/>
	</g>

	<g class="logo">
		<path d="M300.23,119.45h16.99v101.03h52.99v16.01h-69.98V119.45z"/>
		<path d="M382.4,197.47v-48.77h17.23v43.16c0,13.65,3.5,30.89,22.19,30.89c12.19,0,22.27-7.56,22.27-28.37v-45.68
			h17.15v87.78h-15.12V226c-6.42,8.05-16.26,12.84-29.02,12.84C386.87,238.84,382.4,211.05,382.4,197.47z"/>
		<path d="M571.52,161.63c-9.67,0-17.88,6.74-17.88,19.99l-0.08,54.86h-16.99l0.08-54.37
			c0-12.68-6.99-20.48-17.8-20.48c-10.73,0-17.88,8.05-17.88,19.99v54.86h-17.07v-87.78h15.12v9.43
			c5.61-7.15,14.63-11.62,25.2-11.62c12.11,0,20.89,5.36,25.52,14.22c5.36-8.86,15.2-14.22,26.66-14.22
			c18.86,0,29.83,12.35,29.83,31.21l-0.08,58.76h-16.99l0.08-54.7C589.24,169.19,582.09,161.63,571.52,161.63z"/>
		<path d="M621.42,193.33c0-28.77,17.31-47.06,43-47.06c26.82,0,42.43,19.67,40.64,51.12h-65.43
			c1.38,16.26,10,25.52,24.79,25.52c10.57,0,18.53-4.96,22.84-13.98l16.66,5.28c-6.83,15.69-21.7,24.71-38.69,24.71
			C638.98,238.92,621.42,220.47,621.42,193.33z M687.66,184.14c-1.79-15.44-9.1-22.84-22.6-22.84c-14.55,0-22.84,7.97-25.03,22.84
			H687.66z"/>
		<path d="M733.58,225.84c-3.82-7.23-3.25-14.3-3.25-23.9v-39.58H713.5v-13.65h16.82v-24.38h17.07v24.38h26.09v13.65
			h-26.09v38.77c0,7.07-0.32,12.19,1.79,15.77c3.9,6.66,12.84,6.91,24.3,5.2v14.39C756.99,239.74,740,238.03,733.58,225.84z"/>

		<path d="M183.15,122.46l17.02,31.12c0.53,0.97,1.33,1.77,2.3,2.3l31.12,17.02c4.01,2.19,4.01,7.95,0,10.14
			l-31.12,17.02c-0.97,0.53-1.77,1.33-2.3,2.3l-17.02,31.12c-2.19,4.01-7.95,4.01-10.14,0l-17.02-31.12
			c-0.53-0.97-1.33-1.77-2.3-2.3l-31.12-17.02c-4.01-2.19-4.01-7.95,0-10.14l31.12-17.02c0.97-0.53,1.77-1.33,2.3-2.3L173,122.46
			C175.2,118.45,180.95,118.45,183.15,122.46z"/>
	</g>

	<g class="logo-draft">
		<path d="M300.23,119.45h16.99v101.03h52.99v16.01h-69.98V119.45z"/>
		<path d="M382.4,197.47v-48.77h17.23v43.16c0,13.65,3.5,30.89,22.19,30.89c12.19,0,22.27-7.56,22.27-28.37v-45.68
			h17.15v87.78h-15.12V226c-6.42,8.05-16.26,12.84-29.02,12.84C386.87,238.84,382.4,211.05,382.4,197.47z"/>
		<path d="M571.52,161.63c-9.67,0-17.88,6.74-17.88,19.99l-0.08,54.86h-16.99l0.08-54.37
			c0-12.68-6.99-20.48-17.8-20.48c-10.73,0-17.88,8.05-17.88,19.99v54.86h-17.07v-87.78h15.12v9.43
			c5.61-7.15,14.63-11.62,25.2-11.62c12.11,0,20.89,5.36,25.52,14.22c5.36-8.86,15.2-14.22,26.66-14.22
			c18.86,0,29.83,12.35,29.83,31.21l-0.08,58.76h-16.99l0.08-54.7C589.24,169.19,582.09,161.63,571.52,161.63z"/>
		<path d="M621.42,193.33c0-28.77,17.31-47.06,43-47.06c26.82,0,42.43,19.67,40.64,51.12h-65.43
			c1.38,16.26,10,25.52,24.79,25.52c10.57,0,18.53-4.96,22.84-13.98l16.66,5.28c-6.83,15.69-21.7,24.71-38.69,24.71
			C638.98,238.92,621.42,220.47,621.42,193.33z M687.66,184.14c-1.79-15.44-9.1-22.84-22.6-22.84c-14.55,0-22.84,7.97-25.03,22.84
			H687.66z"/>
		<path d="M733.58,225.84c-3.82-7.23-3.25-14.3-3.25-23.9v-39.58H713.5v-13.65h16.82v-24.38h17.07v24.38h26.09v13.65
			h-26.09v38.77c0,7.07-0.32,12.19,1.79,15.77c3.9,6.66,12.84,6.91,24.3,5.2v14.39C756.99,239.74,740,238.03,733.58,225.84z"/>

		<path d="M183.15,122.46l17.02,31.12c0.53,0.97,1.33,1.77,2.3,2.3l31.12,17.02c4.01,2.19,4.01,7.95,0,10.14
			l-31.12,17.02c-0.97,0.53-1.77,1.33-2.3,2.3l-17.02,31.12c-2.19,4.01-7.95,4.01-10.14,0l-17.02-31.12
			c-0.53-0.97-1.33-1.77-2.3-2.3l-31.12-17.02c-4.01-2.19-4.01-7.95,0-10.14l31.12-17.02c0.97-0.53,1.77-1.33,2.3-2.3L173,122.46
			C175.2,118.45,180.95,118.45,183.15,122.46z"/>
	</g>
</g>
</svg>
