<?xml version="1.0" encoding="utf-8"?>
<svg xmlns="http://www.w3.org/2000/svg" viewBox="0 0 893.57 469.87">
<style type="text/css">
	@import url("../../../../styles/logos-draft.css");
	.d{fill:url(#d);}
	--draft-invert-color: #252525;
	--draft-color: #FFF;
</style>

<g class="main wb">
	<defs>
		<pattern id="d" width="6" height="6" patternUnits="userSpaceOnUse" patternTransform="rotate(45 50 50)">
			<line class="h" x1="0" y1="0" x2="0" y2="10"></line>
		</pattern>
	</defs>
	
	<rect class="bg" x="2.78" y="2.45" width="888" height="464.98"/>
	<rect class="dl" x="2.78" y="2.45" width="888" height="464.98"/>

	<g class="d">
		<path d="M345.94,339.63h18.55v110.32h57.86v17.48h-76.41V339.63z"/>
		<path d="M345.94,2.45h18.55v110.31h57.86v17.48h-76.41V2.45z"/>
		<path d="M762.98,267.09v-18.55H873.3v-57.86h17.48v76.41H762.98z"/>
		<path d="M2.78,267.09v-18.55H113.1v-57.86h17.48v76.41H2.78z"/>
	</g>

	<g class="mjl">
		<line x1="2.78" y1="130.24" x2="890.78" y2="130.24"/>
		<line x1="2.78" y1="339.63" x2="890.78" y2="339.63"/>
		<line x1="130.58" y1="2.45" x2="130.58" y2="467.42"/>
		<line x1="762.98" y1="2.45" x2="762.98" y2="467.42"/>
	</g>

	<g class="mnl">
		<line x1="2.78" y1="211.83" x2="890.78" y2="211.83"/>
		<line x1="212.01" y1="2.45" x2="212.01" y2="467.42"/>
		<line x1="246.22" y1="2.45" x2="246.22" y2="467.42"/>
	</g>

	<g class="logo">
		<path d="M174.91,132.34l11.87,21.7c0.37,0.68,0.93,1.23,1.6,1.6l21.7,11.87c2.79,1.53,2.79,5.54,0,7.07l-21.7,11.87
			c-0.68,0.37-1.23,0.93-1.6,1.6l-11.87,21.7c-1.53,2.79-5.54,2.79-7.07,0l-11.87-21.7c-0.37-0.68-0.93-1.23-1.6-1.6l-21.7-11.87
			c-2.79-1.53-2.79-5.54,0-7.07l21.7-11.87c0.68-0.37,1.23-0.93,1.6-1.6l11.87-21.7C169.37,129.55,173.38,129.55,174.91,132.34z"/>
		<path d="M246.22,211.83h18.55v110.31h57.86v17.48h-76.41V211.83z"/>
		<path d="M335.94,297.03v-53.25h18.81v47.13c0,14.91,3.82,33.72,24.23,33.72c13.31,0,24.32-8.25,24.32-30.97v-49.88
			h18.73v95.85h-16.51v-11.45c-7.01,8.79-17.75,14.02-31.68,14.02C340.83,342.2,335.94,311.85,335.94,297.03z"/>
		<path d="M542.46,257.89c-10.56,0-19.53,7.37-19.53,21.83l-0.09,59.9h-18.55l0.09-59.37
			c0-13.84-7.63-22.36-19.44-22.36c-11.71,0-19.52,8.79-19.52,21.83v59.9h-18.64v-95.85h16.51v10.29
			c6.12-7.81,15.97-12.69,27.51-12.69c13.22,0,22.81,5.86,27.87,15.53c5.86-9.67,16.6-15.53,29.11-15.53
			c20.59,0,32.57,13.49,32.57,34.08l-0.09,64.17h-18.55l0.09-59.73C561.8,266.14,553.99,257.89,542.46,257.89z"/>
		<path d="M596.94,292.5c0-31.42,18.9-51.38,46.95-51.38c29.29,0,46.33,21.48,44.37,55.82h-71.44
			c1.51,17.75,10.92,27.87,27.07,27.87c11.54,0,20.23-5.41,24.94-15.26l18.19,5.77c-7.46,17.13-23.7,26.98-42.24,26.98
			C616.11,342.29,596.94,322.14,596.94,292.5z M669.27,282.47c-1.95-16.86-9.94-24.94-24.67-24.94c-15.89,0-24.94,8.7-27.33,24.94
			H669.27z"/>
		<path d="M719.41,328c-4.17-7.9-3.55-15.62-3.55-26.09v-43.22h-18.37v-14.91h18.37v-26.62h18.64v26.62h28.49v14.91
			H734.5v42.33c0,7.72-0.35,13.31,1.95,17.22c4.26,7.28,14.02,7.54,26.54,5.68v15.71C744.97,343.18,726.42,341.31,719.41,328z"/>
	</g>

	<g class="logo-draft">
		<path d="M174.91,132.34l11.87,21.7c0.37,0.68,0.93,1.23,1.6,1.6l21.7,11.87c2.79,1.53,2.79,5.54,0,7.07l-21.7,11.87
			c-0.68,0.37-1.23,0.93-1.6,1.6l-11.87,21.7c-1.53,2.79-5.54,2.79-7.07,0l-11.87-21.7c-0.37-0.68-0.93-1.23-1.6-1.6l-21.7-11.87
			c-2.79-1.53-2.79-5.54,0-7.07l21.7-11.87c0.68-0.37,1.23-0.93,1.6-1.6l11.87-21.7C169.37,129.55,173.38,129.55,174.91,132.34z"/>
		<path d="M246.22,211.83h18.55v110.31h57.86v17.48h-76.41V211.83z"/>
		<path d="M335.94,297.03v-53.25h18.81v47.13c0,14.91,3.82,33.72,24.23,33.72c13.31,0,24.32-8.25,24.32-30.97v-49.88
			h18.73v95.85h-16.51v-11.45c-7.01,8.79-17.75,14.02-31.68,14.02C340.83,342.2,335.94,311.85,335.94,297.03z"/>
		<path d="M542.46,257.89c-10.56,0-19.53,7.37-19.53,21.83l-0.09,59.9h-18.55l0.09-59.37
			c0-13.84-7.63-22.36-19.44-22.36c-11.71,0-19.52,8.79-19.52,21.83v59.9h-18.64v-95.85h16.51v10.29
			c6.12-7.81,15.97-12.69,27.51-12.69c13.22,0,22.81,5.86,27.87,15.53c5.86-9.67,16.6-15.53,29.11-15.53
			c20.59,0,32.57,13.49,32.57,34.08l-0.09,64.17h-18.55l0.09-59.73C561.8,266.14,553.99,257.89,542.46,257.89z"/>
		<path d="M596.94,292.5c0-31.42,18.9-51.38,46.95-51.38c29.29,0,46.33,21.48,44.37,55.82h-71.44
			c1.51,17.75,10.92,27.87,27.07,27.87c11.54,0,20.23-5.41,24.94-15.26l18.19,5.77c-7.46,17.13-23.7,26.98-42.24,26.98
			C616.11,342.29,596.94,322.14,596.94,292.5z M669.27,282.47c-1.95-16.86-9.94-24.94-24.67-24.94c-15.89,0-24.94,8.7-27.33,24.94
			H669.27z"/>
		<path d="M719.41,328c-4.17-7.9-3.55-15.62-3.55-26.09v-43.22h-18.37v-14.91h18.37v-26.62h18.64v26.62h28.49v14.91
			H734.5v42.33c0,7.72-0.35,13.31,1.95,17.22c4.26,7.28,14.02,7.54,26.54,5.68v15.71C744.97,343.18,726.42,341.31,719.41,328z"/>
	</g>
</g>
</svg>
