<?xml version="1.0" encoding="utf-8"?>
<svg xmlns="http://www.w3.org/2000/svg" xmlns:xlink="http://www.w3.org/1999/xlink" viewBox="0 0 894 444">
<style type="text/css">
	@import url("../../../../styles/logos-draft.css");
	.d{fill:url(#d);}
	--draft-invert-color: #252525;
	--draft-color: #FFF;
</style>

<g class="main">
	<defs>
		<pattern id="d" width="6" height="6" patternUnits="userSpaceOnUse" patternTransform="rotate(45 50 50)">
			<line class="h" x1="0" y1="0" x2="0" y2="10"></line>
		</pattern>
	</defs>

	<rect class="bg" x="3" y="3.34" width="888" height="437.33"/>
	<rect class="dl" x="3" y="3.34" width="888" height="437.33"/>
	
	<g class="d">
		<path d="M413.52,328.67h16.26v96.68h50.71v15.32h-66.97V328.67z"/>
		<path d="M413.52,3.34h16.26v96.68h50.71v15.32h-66.97V3.34z"/>
		<path d="M779,245.86v-16.26h96.68V178.9H891v66.97H779z"/>
		<path d="M3,245.86v-16.26h96.68V178.9H115v66.97H3z"/>
	</g>

	<g class="mjl">
		<line x1="3" y1="115.33" x2="891" y2="115.33"/>
		<line x1="3" y1="328.67" x2="891" y2="328.67"/>
		<line x1="115" y1="3.34" x2="115" y2="440.66"/>
		<line x1="779" y1="3.34" x2="779" y2="440.66"/>
	</g>

	<g class="mnl">
		<line x1="3" y1="216.67" x2="891" y2="216.67"/>
		<line x1="3" y1="347.91" x2="891" y2="347.91"/>
		<line x1="3" y1="186.84" x2="891" y2="186.84"/>
		<line x1="266.16" y1="3.34" x2="266.16" y2="440.66"/>
		<line x1="326.13" y1="3.34" x2="326.13" y2="440.66"/>
	</g>
	
	<g class="logo">
		<path d="M326.13,216.67h16.26v96.68h50.71v15.32h-66.97V216.67z"/>
		<path d="M404.76,291.33v-46.67h16.49v41.3c0,13.07,3.34,29.55,21.23,29.55c11.67,0,21.31-7.23,21.31-27.14v-43.71
			h16.41v84h-14.47v-10.03c-6.14,7.7-15.56,12.29-27.77,12.29C409.04,330.92,404.76,304.32,404.76,291.33z"/>
		<path d="M585.74,257.03c-9.26,0-17.11,6.46-17.11,19.13l-0.08,52.5H552.3l0.08-52.03c0-12.13-6.69-19.6-17.03-19.6
			c-10.27,0-17.11,7.7-17.11,19.13v52.5H501.9v-84h14.47v9.02c5.37-6.84,14-11.12,24.11-11.12c11.59,0,19.99,5.13,24.42,13.61
			c5.13-8.48,14.54-13.61,25.51-13.61c18.04,0,28.54,11.82,28.54,29.87l-0.08,56.23h-16.26l0.08-52.34
			C602.69,264.27,595.85,257.03,585.74,257.03z"/>
		<path d="M633.49,287.37c0-27.53,16.57-45.03,41.14-45.03c25.67,0,40.6,18.82,38.89,48.92h-62.61
			c1.32,15.56,9.57,24.42,23.72,24.42c10.11,0,17.73-4.74,21.86-13.38l15.94,5.06C705.9,322.37,691.66,331,675.41,331
			C650.29,331,633.49,313.35,633.49,287.37z M696.88,278.58c-1.71-14.78-8.71-21.86-21.62-21.86c-13.92,0-21.86,7.62-23.96,21.86
			H696.88z"/>
		<path d="M740.81,318.48c-3.66-6.92-3.11-13.69-3.11-22.87v-37.88h-16.1v-13.07h16.1v-23.33h16.33v23.33H779v13.07
			h-24.97v37.1c0,6.77-0.31,11.67,1.71,15.09c3.73,6.38,12.29,6.61,23.25,4.98v13.77C763.21,331.78,746.96,330.14,740.81,318.48z"
			/>
		<clipPath id="cp">
			<path d="M193.68,117.17l10.4,19.01c0.32,0.59,0.81,1.08,1.4,1.4l19.01,10.4c2.45,1.34,2.45,4.86,0,6.2
				l-19.01,10.4c-0.59,0.32-1.08,0.81-1.4,1.4L193.68,185c-1.34,2.45-4.86,2.45-6.2,0l-10.4-19.01c-0.32-0.59-0.81-1.08-1.4-1.4
				l-19.01-10.4c-2.45-1.34-2.45-4.86,0-6.2l19.01-10.4c0.59-0.32,1.08-0.81,1.4-1.4l10.4-19.01
				C188.82,114.72,192.34,114.72,193.68,117.17z M190.58,216.76c-15.43,0-27.94,12.51-27.94,27.94s12.51,27.94,27.94,27.94
				s27.94-12.51,27.94-27.94S206.01,216.76,190.58,216.76z M216.84,346.19c11.2-32.7,26.63-61.44,46.43-86.1
				c4.11-4.5,3.81-11.48-0.69-15.59c-4.5-4.11-11.48-3.79-15.61,0.7c-17.11,21.12-45.88,53.38-56.39,53.38
				c-10.5,0-39.28-32.26-56.39-53.38c-4.13-4.5-11.11-4.82-15.61-0.7c-4.5,4.11-4.8,11.09-0.69,15.59
				c19.81,24.66,35.23,53.4,46.43,86.1c8.6,1.13,17.36,1.71,26.26,1.71C199.48,347.91,208.24,347.33,216.84,346.19z"/>
		</clipPath>
		<image xmlns="http://www.w3.org/2000/svg" xmlns:xlink="http://www.w3.org/1999/xlink" style="clip-path:url(#cp);" x="105" y="110" width="171" height="242" xlink:href="gradient.webp"/>
	</g>

	<g class="logo-draft">
		<path d="M326.13,216.67h16.26v96.68h50.71v15.32h-66.97V216.67z"/>
		<path d="M404.76,291.33v-46.67h16.49v41.3c0,13.07,3.34,29.55,21.23,29.55c11.67,0,21.31-7.23,21.31-27.14v-43.71
			h16.41v84h-14.47v-10.03c-6.14,7.7-15.56,12.29-27.77,12.29C409.04,330.92,404.76,304.32,404.76,291.33z"/>
		<path d="M585.74,257.03c-9.26,0-17.11,6.46-17.11,19.13l-0.08,52.5H552.3l0.08-52.03c0-12.13-6.69-19.6-17.03-19.6
			c-10.27,0-17.11,7.7-17.11,19.13v52.5H501.9v-84h14.47v9.02c5.37-6.84,14-11.12,24.11-11.12c11.59,0,19.99,5.13,24.42,13.61
			c5.13-8.48,14.54-13.61,25.51-13.61c18.04,0,28.54,11.82,28.54,29.87l-0.08,56.23h-16.26l0.08-52.34
			C602.69,264.27,595.85,257.03,585.74,257.03z"/>
		<path d="M633.49,287.37c0-27.53,16.57-45.03,41.14-45.03c25.67,0,40.6,18.82,38.89,48.92h-62.61
			c1.32,15.56,9.57,24.42,23.72,24.42c10.11,0,17.73-4.74,21.86-13.38l15.94,5.06C705.9,322.37,691.66,331,675.41,331
			C650.29,331,633.49,313.35,633.49,287.37z M696.88,278.58c-1.71-14.78-8.71-21.86-21.62-21.86c-13.92,0-21.86,7.62-23.96,21.86
			H696.88z"/>
		<path d="M740.81,318.48c-3.66-6.92-3.11-13.69-3.11-22.87v-37.88h-16.1v-13.07h16.1v-23.33h16.33v23.33H779v13.07
			h-24.97v37.1c0,6.77-0.31,11.67,1.71,15.09c3.73,6.38,12.29,6.61,23.25,4.98v13.77C763.21,331.78,746.96,330.14,740.81,318.48z"
			/>
		<path d="M193.68,117.17l10.4,19.01c0.32,0.59,0.81,1.08,1.4,1.4l19.01,10.4c2.45,1.34,2.45,4.86,0,6.2
			l-19.01,10.4c-0.59,0.32-1.08,0.81-1.4,1.4L193.68,185c-1.34,2.45-4.86,2.45-6.2,0l-10.4-19.01c-0.32-0.59-0.81-1.08-1.4-1.4
			l-19.01-10.4c-2.45-1.34-2.45-4.86,0-6.2l19.01-10.4c0.59-0.32,1.08-0.81,1.4-1.4l10.4-19.01
			C188.82,114.72,192.34,114.72,193.68,117.17z M190.58,216.76c-15.43,0-27.94,12.51-27.94,27.94s12.51,27.94,27.94,27.94
			s27.94-12.51,27.94-27.94S206.01,216.76,190.58,216.76z M216.84,346.19c11.2-32.7,26.63-61.44,46.43-86.1
			c4.11-4.5,3.81-11.48-0.69-15.59c-4.5-4.11-11.48-3.79-15.61,0.7c-17.11,21.12-45.88,53.38-56.39,53.38
			c-10.5,0-39.28-32.26-56.39-53.38c-4.13-4.5-11.11-4.82-15.61-0.7c-4.5,4.11-4.8,11.09-0.69,15.59
			c19.81,24.66,35.23,53.4,46.43,86.1c8.6,1.13,17.36,1.71,26.26,1.71C199.48,347.91,208.24,347.33,216.84,346.19z"/>
	</g>
</g>
</svg>
