<?xml version="1.0" encoding="utf-8"?>
<svg xmlns="http://www.w3.org/2000/svg" viewBox="0 0 1000 1000">
<style type="text/css">@import url("../../letters.css");</style>

<g class="letter">
	<rect width="1000" height="1000" opacity="0"/>
	<g class="mj">
		<line x1="500" y1="175" x2="0" y2="175"/>
		<line x1="500" y1="175" x2="1000" y2="175"/>
		<line x1="500" y1="275" x2="0" y2="275"/>
		<line x1="500" y1="275" x2="1000" y2="275"/>
		<line x1="500" y1="725" x2="0" y2="725"/>
		<line x1="500" y1="725" x2="1000" y2="725"/>
		<line x1="500" y1="825" x2="0" y2="825"/>
		<line x1="500" y1="825" x2="1000" y2="825"/>

		<line x1="275" y1="500" x2="275" y2="0"/>
		<line x1="275" y1="500" x2="275" y2="1000"/>
		<line x1="725" y1="500" x2="725" y2="0"/>
		<line x1="725" y1="500" x2="725" y2="1000"/>
	</g>

	<g class="mn">
		<line x1="500" y1="325" x2="0" y2="325"/>
		<line x1="500" y1="325" x2="1000" y2="325"/>
		<line x1="500" y1="675" x2="0" y2="675"/>
		<line x1="500" y1="675" x2="1000" y2="675"/>

		<line x1="325" y1="500" x2="325" y2="0"/>
		<line x1="325" y1="500" x2="325" y2="1000"/>
		<line x1="675" y1="500" x2="675" y2="0"/>
		<line x1="675" y1="500" x2="675" y2="1000"/>

		<line x1="500" y1="500" x2="0" y2="500"/>
        <line x1="500" y1="500" x2="1000" y2="500"/>
        <line x1="500" y1="550" x2="0" y2="550"/>
        <line x1="500" y1="550" x2="1000" y2="550"/>
	</g>

	<line class="d" x1="750" y1="0" x2="750" y2="1000"/>

	<path class="c" d=" M499.94,275.03c123.99,0,225,101.01,225,225V550H331.98c20.99,71.98,88,125.01,168.02,125.01h225v49.97
	H500c-123.99,0-225-101.01-225-225C275,376.04,375.95,275.03,499.94,275.03z M674.98,500.03c0-97-77.98-174.98-174.98-174.98
	s-174.98,77.98-174.98,174.98H674.98z "/>

	<path class="cl" d=" M499.94,275.03c123.99,0,225,101.01,225,225V550H331.98c20.99,71.98,88,125.01,168.02,125.01h225v49.97
	H500c-123.99,0-225-101.01-225-225C275,376.04,375.95,275.03,499.94,275.03z M674.98,500.03c0-97-77.98-174.98-174.98-174.98
	s-174.98,77.98-174.98,174.98H674.98z "/>

	<text class="l" transform="matrix(1 0 0 1 500 875)"> e </text>
</g>
</svg>
