<?xml version="1.0" encoding="utf-8"?>
<svg xmlns="http://www.w3.org/2000/svg" viewBox="0 0 1000 1000">
<style type="text/css">@import url("../../letters.css");</style>

<g class="letter">
	<rect width="1000" height="1000" opacity="0"/>
	<g class="mj">
		<line x1="500" y1="175" x2="0" y2="175"/>
		<line x1="500" y1="175" x2="1000" y2="175"/>
		<line x1="500" y1="275" x2="0" y2="275"/>
		<line x1="500" y1="275" x2="1000" y2="275"/>
		<line x1="500" y1="725" x2="0" y2="725"/>
		<line x1="500" y1="725" x2="1000" y2="725"/>
		<line x1="500" y1="825" x2="0" y2="825"/>
		<line x1="500" y1="825" x2="1000" y2="825"/>

		<line x1="275" y1="500" x2="275" y2="0"/>
		<line x1="275" y1="500" x2="275" y2="1000"/>
		<line x1="725" y1="500" x2="725" y2="0"/>
		<line x1="725" y1="500" x2="725" y2="1000"/>
	</g>

	<g class="mn">
		<line x1="500" y1="325" x2="0" y2="325"/>
		<line x1="500" y1="325" x2="1000" y2="325"/>
		<line x1="500" y1="675" x2="0" y2="675"/>
		<line x1="500" y1="675" x2="1000" y2="675"/>
		<line x1="500" y1="775" x2="0" y2="775"/>
		<line x1="500" y1="775" x2="1000" y2="775"/>

		<line x1="325" y1="500" x2="325" y2="0"/>
		<line x1="325" y1="500" x2="325" y2="1000"/>
		<line x1="675" y1="500" x2="675" y2="0"/>
		<line x1="675" y1="500" x2="675" y2="1000"/>
	</g>

	<line class="d" x1="750" y1="0" x2="750" y2="1000"/>

	<path class="c" d=" M500.03,275.03c71.02,0,134.01,32.99,174.98,83.98v-83.98h49.97v374.96
	c0,97-77.98,174.98-174.98,174.98h-225V775h225c68.98,0,125.01-55.97,125.01-125.01v-9c-40.97,50.99-104.01,83.98-174.98,83.98
	c-123.99,0-225-101.01-225-225C275.03,375.98,376.04,275.03,500.03,275.03z M500.03,325c-97,0-174.98,77.98-174.98,174.98
	s77.98,174.98,174.98,174.98s174.98-77.98,174.98-174.98S597.03,325,500.03,325z "/>

	<path class="cl" d=" M500.03,275.03c71.02,0,134.01,32.99,174.98,83.98v-83.98h49.97v374.96
	c0,97-77.98,174.98-174.98,174.98h-225V775h225c68.98,0,125.01-55.97,125.01-125.01v-9c-40.97,50.99-104.01,83.98-174.98,83.98
	c-123.99,0-225-101.01-225-225C275.03,375.98,376.04,275.03,500.03,275.03z M500.03,325c-97,0-174.98,77.98-174.98,174.98
	s77.98,174.98,174.98,174.98s174.98-77.98,174.98-174.98S597.03,325,500.03,325z "/>

	<text class="l" transform="matrix(1 0 0 1 500 875)"> gee </text>
</g>
</svg>
