<?xml version="1.0" encoding="utf-8"?>
<svg xmlns="http://www.w3.org/2000/svg" viewBox="0 0 1000 1000">
<style type="text/css">@import url("../../letters.css");</style>

<g class="letter">
	<rect width="1000" height="1000" opacity="0"/>
	<g class="mj">
		<line x1="500" y1="175" x2="0" y2="175"/>
		<line x1="500" y1="175" x2="1000" y2="175"/>
		<line x1="500" y1="275" x2="0" y2="275"/>
		<line x1="500" y1="275" x2="1000" y2="275"/>
		<line x1="500" y1="725" x2="0" y2="725"/>
		<line x1="500" y1="725" x2="1000" y2="725"/>
		<line x1="500" y1="825" x2="0" y2="825"/>
		<line x1="500" y1="825" x2="1000" y2="825"/>

		<line x1="275" y1="500" x2="275" y2="0"/>
		<line x1="275" y1="500" x2="275" y2="1000"/>
		<line x1="725" y1="500" x2="725" y2="0"/>
		<line x1="725" y1="500" x2="725" y2="1000"/>
	</g>

	<g class="mn">
		<line x1="500" y1="225" x2="0" y2="225"/>
		<line x1="500" y1="225" x2="1000" y2="225"/>
		<line x1="500" y1="325" x2="0" y2="325"/>
		<line x1="500" y1="325" x2="1000" y2="325"/>
		<line x1="500" y1="675" x2="0" y2="675"/>
		<line x1="500" y1="675" x2="1000" y2="675"/>
		<line x1="500" y1="775" x2="0" y2="775"/>
		<line x1="500" y1="775" x2="1000" y2="775"/>

		<line x1="325" y1="500" x2="325" y2="0"/>
		<line x1="325" y1="500" x2="325" y2="1000"/>
		<line x1="675" y1="500" x2="675" y2="0"/>
		<line x1="675" y1="500" x2="675" y2="1000"/>
	</g>

	<line class="d" x1="750" y1="0" x2="750" y2="1000"/>

	<path class="c" d=" M624.95,324.99H374.93v399.98h-49.97V324.99H275v-49.97H725v49.97h-49.97v299.98
	c0,28.01,22.01,49.97,49.97,49.97v50.03c-55.01,0-99.99-44.99-99.99-99.99V324.99H624.95z "/>

	<path class="cl" d=" M624.95,324.99H374.93v399.98h-49.97V324.99H275v-49.97H725v49.97h-49.97v299.98
	c0,28.01,22.01,49.97,49.97,49.97v50.03c-55.01,0-99.99-44.99-99.99-99.99V324.99H624.95z "/>

	<text class="l" transform="matrix(1 0 0 1 500 875)"> pi </text>
</g>
</svg>
