<?xml version="1.0" encoding="utf-8"?>
<svg xmlns="http://www.w3.org/2000/svg" viewBox="0 0 1000 1000">
<style type="text/css">@import url("../../letters.css");</style>

<g class="letter">
	<rect width="1000" height="1000" opacity="0"/>
	<g class="mj">
		<line x1="500" y1="175" x2="0" y2="175"/>
		<line x1="500" y1="175" x2="1000" y2="175"/>
		<line x1="500" y1="275" x2="0" y2="275"/>
		<line x1="500" y1="275" x2="1000" y2="275"/>
		<line x1="500" y1="725" x2="0" y2="725"/>
		<line x1="500" y1="725" x2="1000" y2="725"/>
		<line x1="500" y1="825" x2="0" y2="825"/>
		<line x1="500" y1="825" x2="1000" y2="825"/>

		<line x1="375" y1="500" x2="375" y2="0"/>
		<line x1="375" y1="500" x2="375" y2="1000"/>
		<line x1="700" y1="500" x2="700" y2="0"/>
		<line x1="700" y1="500" x2="700" y2="1000"/>
	</g>

	<g class="mn">
		<line x1="500" y1="325" x2="0" y2="325"/>
		<line x1="500" y1="325" x2="1000" y2="325"/>
		<line x1="500" y1="375" x2="0" y2="375"/>
		<line x1="500" y1="375" x2="1000" y2="375"/>
		<line x1="500" y1="675" x2="0" y2="675"/>
		<line x1="500" y1="675" x2="1000" y2="675"/>

		<line x1="475" y1="500" x2="475" y2="0"/>
		<line x1="475" y1="500" x2="475" y2="1000"/>
		<line x1="525" y1="500" x2="525" y2="0"/>
		<line x1="525" y1="500" x2="525" y2="1000"/>
	</g>

	<line class="d" x1="725" y1="0" x2="725" y2="1000"/>

	<path class="c" d=" M525,500c0,97,78,175,175,175v50c-124,0-225-101-225-225V375H375v-50h100V175h50v150h175v50h-175
	L525,500L525,500z "/>

	<path class="cl" d=" M525,500c0,97,78,175,175,175v50c-124,0-225-101-225-225V375H375v-50h100V175h50v150h175v50h-175
	L525,500L525,500z "/>

	<text class="l" transform="matrix(1 0 0 1 500 875)"> tee </text>
</g>
</svg>
