<svg xmlns="http://www.w3.org/2000/svg" viewBox="0 0 1920 1080" style="background-color:#000;fill:#FFF;">
<path d="M919.5,694c0,62.6-50.8,113.5-113.5,113.5S692.4,756.8,692.4,694v-146H660v146c0,80.6,65.3,145.8,145.8,145.8
	S951.7,774.6,951.7,694v-146h-32.4v146H919.5z"/>
<path d="M1114,548.1c-45.8,0-86.7,21.1-113.5,54.2v-54.2h-32.4v146v145.8h32.4V694c0-62.6,50.8-113.5,113.5-113.5
	c62.6,0,113.5,50.8,113.5,113.5v145.8h32.4V694C1259.9,613.4,1194.6,548.1,1114,548.1z"/>
<path d="M806,240.1c-80.6,0-145.8,65.3-145.8,145.8S725.4,531.8,806,531.8S951.8,466.5,951.8,386
	C951.9,305.4,886.5,240.1,806,240.1z M806,499.5c-62.6,0-113.5-50.8-113.5-113.5S743.2,272.4,806,272.4
	c62.6,0,113.5,50.8,113.5,113.5S868.7,499.5,806,499.5z"/>
<path d="M1259.9,386c0-80.6-65.3-145.8-145.8-145.8S968.2,305.4,968.2,386s65.3,145.8,145.8,145.8
	c26.5,0,51.5-7.1,73-19.6c21.5,12.4,46.3,19.6,73,19.6v-32.4c-15.7,0-30.6-3.2-44.2-9C1243,464.1,1259.9,427,1259.9,386z
		M1114,499.5c-62.6,0-113.5-50.8-113.5-113.5s50.8-113.5,113.5-113.5c62.6,0,113.5,50.8,113.5,113.5c0,34.8-15.8,66-40.5,86.9
	c-24.7-20.8-40.5-52-40.5-86.9H1114c0,41,16.9,78,44.2,104.5C1144.6,496.3,1129.7,499.5,1114,499.5z"/>
</svg>