<svg xmlns="http://www.w3.org/2000/svg" viewBox="0 0 1920 1080" style="background-color:#FEB060;fill:#FFF;">
<path d="M771.2,463.3c26.9-6.8,55.4,1.5,75.1,20.8c7.5,7.4,19.1-4.2,11.5-11.5c-20.9-20.6-50.3-30.9-79.4-27.1
	c-29.6,3.8-56.5,21.6-71.2,47.7c-14.1,25.2-16.2,56.3-5.2,83c11.5,27.6,35.6,49,64.7,56.4c32.5,8.2,67.1-1.5,91-25
	c7.5-7.4-4.1-18.9-11.5-11.5c-17.5,17.2-42.2,25.9-66.6,22.5c-24.4-3.4-46.2-18.3-58.3-39.8c-11.8-21-13.2-47-3.9-69.2
	C727,486.6,747.3,469.3,771.2,463.3z"/>
<path d="M604.6,447.5c-32.5-8.2-67.1,1.5-91,25c-7.5,7.4,4.1,18.9,11.5,11.5c17.5-17.2,42.2-25.9,66.6-22.5
	S638,480,650,501.4c5.3,9.4,8.5,19.8,9.5,30.4c0,0-116.7,0-122.2,0c-10.5,0-10.5,16.3,0,16.3h122.2c-0.8,7.7-2.6,15.2-5.7,22.5
	c-9.5,22.8-29.9,40-53.7,46c-26.9,6.8-55.4-1.5-75.1-20.8c-7.5-7.4-19.1,4.2-11.5,11.5c20.9,20.6,50.3,30.9,79.4,27.1
	c29.6-3.8,56.5-21.6,71.2-47.7c14.1-25.2,16.2-56.3,5.2-83C657.9,476.3,633.7,454.9,604.6,447.5z"/>
<path d="M1187.1,457.5c-29.6-17.2-67.3-16.9-96.6,0.5c-28.9,17.3-47,49.5-46.6,83.2c0.5,33.6,19.2,65.4,48.6,81.9
	c37,20.9,84.1,14,114.2-15.7c7.5-7.4-4.1-18.9-11.5-11.5c-22.6,22.2-56.8,29.4-86.2,17.2c-25.6-10.6-44.2-34.8-48-62.1
	c-0.2-0.9-0.2-1.8-0.3-2.8h165.9c2.4,0,4.2-0.8,5.5-2.2c1.6-1.3,2.7-3.3,2.6-6C1234.4,506.3,1216.4,474.5,1187.1,457.5z
	 M1060.6,531.8c2.3-21.2,13.2-41.3,30.3-54.5c22.2-17.1,52.7-21.1,78.6-10.4c26.8,11.1,45,36.5,48.2,64.9H1060.6z"/>
<path d="M1052.1,461c10.5,0,10.5-16.3,0-16.3H877.6c-10.5,0-10.5,16.3,0,16.3h79.1v166.2c0,10.5,16.3,10.5,16.3,0V461
	H1052.1z"/>
<path d="M1400.9,444.6h-174.5c-10.5,0-10.5,16.3,0,16.3h79.1v166.2c0,10.5,16.3,10.5,16.3,0V461h79.1
	C1411.4,461,1411.4,444.6,1400.9,444.6z"/>
</svg>