<svg xmlns="http://www.w3.org/2000/svg" viewBox="0 0 1920 1080" style="background-color:#962D27;fill:#EEEAE0;">
<path d="M918.9,634c-2.8-4.8-6.4-8.7-10.5-13.7c-14.9-17.6-38.4-22.8-63-22.8c-15,0-28.2,3.2-39.5,9.6
	c-11.4,6.4-20.8,15.3-28.4,26.8v-31.7H660.1v39.6c2.4,3.4,4.6,6.8,6.8,10.4l28,6.1v176.5h82.6V677.1c3.8-5.5,8.6-9.5,14.4-12.1
	c5.8-2.5,12.4-3.8,19.6-3.8c10.6,0,18.7,3.1,24.2,9.3c5.6,6.2,8.4,17.7,8.4,34.4l0,129.9h82.6V677.1c3.8-5.5,8.6-9.5,14.4-12.1
	c5.8-2.5,12.4-3.8,19.6-3.8c10.6,0,18.7,3.1,24.2,9.3c5.6,6.2,8.4,17.7,8.4,34.4v45.4c0,30.9,7,53.5,20.9,67.8
	c14,14.3,34.3,21.4,61.2,21.4c7.7,0,15.2-1,22.6-1.8c10.9-1.2,22.9-4.5,31.1-7c-11-15.7-17.7-35.6-20.2-59.3
	c-2.7,0.8-8.9,1.1-11.7,1.1c-6.6,0-11.8-1.7-15.6-5c-3.7-3.3-5.6-9-5.7-17.3l0-45.4c-0.1-36.5-7.1-63.5-22-81
	c-15-17.6-34.8-26.4-59.4-26.4c-15,0-27.7,4-39.5,9.6C943.1,612.9,931.4,620.2,918.9,634z"/>
<path d="M811.8,239.6c-21.1,0-42.9,3.9-60.5,11.7c-17.6,7.8-32.9,18.7-45.8,32.7c-12.9,14-22.9,30.4-30,49.1
	c-7.1,18.7-10.6,39.1-10.6,61l0,23.4c0,22,3.5,42.3,10.6,61c7.1,18.7,17.1,35.1,30,49.1c12.9,14,28.2,24.9,45.8,32.7
	c17.6,7.8,39.4,11.7,60.5,11.7c21.1,0,42.9-3.9,60.5-11.7c17.6-7.8,32.9-18.7,45.8-32.7c12.9-14,22.9-30.4,30-49.1
	c7.1-18.7,10.6-39.1,10.6-61l0-23.4c0-22-3.5-42.3-10.6-61c-7.1-18.7-17.1-35.1-30-49.1c-12.9-14-28.2-24.9-45.8-32.7
	C854.6,243.5,832.9,239.6,811.8,239.6z M868.6,469.9c-5,14.7-12.7,30.1-23.2,38.1c-9.7,7.4-20.5,12.2-33.6,12.2
	c-13.1,0-23.9-4.8-33.6-12.2c-10.5-8-18.1-23.4-23.2-38.1c-5-14.7-7.6-32.4-7.6-52.2v-23.4h0c0-19.9,2.5-37.6,7.6-52.2
	c5-14.7,12.7-30.1,23.2-38.1c9.7-7.4,20.5-12.2,33.6-12.2c13.1,0,23.9,4.8,33.6,12.2c10.5,8,18.1,23.4,23.2,38.1
	c5,14.7,7.6,32.4,7.6,52.2v23.4C876.1,437.5,873.6,455.2,868.6,469.9z"/>
<path d="M1255.4,504.7c-2.8,0.3-5.9,0.6-8.8,0.6c-6.6,0-11.8-1.7-15.6-5c-3.7-3.3-5.6-9-5.7-17.3l0-45.4
	c-0.1-36.5-7.1-63.5-22-81c-15-17.6-34.8-26.4-59.4-26.4c-15,0-28.2,3.2-39.5,9.6c-11.4,6.4-20.8,15.3-28.4,26.8V244.4H958.7v34.9
	c3.5,5,6.8,10.3,9.9,15.7l24.9,5.4v267.1h82.6V409.8c3.8-5.5,8.6-9.5,14.4-12.1c5.8-2.5,12.4-3.8,19.6-3.8
	c10.6,0,18.7,3.1,24.2,9.3s8.4,17.7,8.4,34.4v45.4c0,30.9,7,53.5,20.9,67.8c14,14.3,34.3,21.4,61.2,21.4c7.7,0,15.3-0.6,22.6-1.8
	c7.3-1.2,12.7-3,12.7-3L1255.4,504.7z"/>
<path d="M1225.3,686.2h34.8V634h-34.8v-27c-0.2,0-0.3,0-0.5,0c-34.1,0-61.7-9.4-82.1-28.1v55h-43.2
	c5.8,15,9.3,32.3,10.6,52.2h32.6v64.2c0,30.9,7,53.5,20.9,67.8c14,14.3,34.3,21.4,61.2,21.4c7.7,0,15.3-0.6,22.6-1.8
	c7.3-1.2,12.7-3,12.7-3l-4.7-62.8c-2.8,0.3-5.9,0.6-8.8,0.6c-6.6,0-11.8-1.7-15.6-5c-3.7-3.3-5.6-9-5.7-17.3L1225.3,686.2z"/>
</svg>