<svg xmlns="http://www.w3.org/2000/svg" viewBox="0 0 73.48 50.63">
<style type="text/css">
	path{fill:#952D27;}
	@media (prefers-color-scheme: dark){path{fill:#EEEAE0}}
</style>
<path d="M15.78,1.79c-2.57-1.5-5.65-0.9-7.43,1.44c-0.07,0.1-0.08,0.21-0.13,0.32c-0.85-0.41-1.9-0.3-2.42,0.81
	C3.2,9.92,1.69,15.9,1.49,22.05c-0.16,4.71,0.13,12.57,6.58,12.7c5.41,0.11,9.28-5.92,11.11-10.31c1.99-4.79,2.43-10.21,1.14-15.24
	C19.61,6.43,18.37,3.3,15.78,1.79z M15.51,22.71c-0.66,1.65-1.58,3.27-2.67,4.67c-1.04,1.33-2.52,3.08-4.32,3.28
	c-3.85,0.43-3.03-7.49-2.9-9.64c0.29-5.04,1.57-10.03,3.71-14.61c0.05-0.1,0.04-0.2,0.07-0.3c0.94,0.37,1.88-0.06,2.47-0.84
	c0.29-0.38,1.12-0.26,1.48-0.14c0.75,0.25,1.28,0.95,1.68,1.6c0.93,1.56,1.42,3.44,1.72,5.22C17.35,15.55,16.85,19.34,15.51,22.71z"/>
<path d="M32.66,14.77c0.18-0.4,0.35-0.82,0.55-1.21c0.04-0.07,0.2-0.31,0.34-0.52c0.04,0.12,0.08,0.22,0.08,0.21
	c0.18,0.66,0.01,1.43-0.02,2.1c-0.06,1.69,0.25,3.39,1.5,4.62c1.11,1.09,2.75,1.58,4.28,1.49c3.57-0.19,5.74-3.11,7.45-5.91
	c1.37-2.24-2.15-4.29-3.52-2.06c-0.79,1.3-1.69,2.99-3.14,3.65c-0.67,0.31-1.85,0.46-2.33-0.24c-0.41-0.59-0.14-1.76-0.11-2.43
	c0.03-0.78,0.02-1.56-0.18-2.32c-0.39-1.49-1.47-3.01-3.04-3.41c-4.08-1.03-5.56,4.31-6.74,7.08c-0.25,0.58-0.44,1.17-0.68,1.75
	c-0.03-4.91-0.06-9.83-0.09-14.74c-0.02-2.62-4.09-2.63-4.08,0c0.05,8.45,0.11,16.9,0.16,25.34c0.01,2.38,3.25,2.66,4,0.54
	c1.35-3.8,2.81-7.57,4.4-11.28C31.87,16.55,32.26,15.66,32.66,14.77z"/>
<path d="M54.81,37.55c-0.06-0.61-0.11-1.23-0.17-1.84c-0.12-1.34-0.16-2.73-0.41-4.05c-0.48-2.55-3-4.24-5.4-2.73
	c-1.07,0.67-1.73,1.8-2.37,2.84c-0.77,1.24-1.53,2.47-2.3,3.71c-0.67,1.09-1.34,2.17-2.02,3.26c-0.48-2.25-0.96-4.5-1.43-6.75
	c-0.45-2.12-3.3-1.75-3.93,0c-0.62,1.74-1.25,3.49-1.87,5.23c-0.13-3.19-0.25-6.39-0.38-9.58c-0.1-2.61-4.18-2.63-4.08,0
	c0.26,6.72,0.53,13.44,0.79,20.15c0.09,2.35,3.23,2.69,4,0.54c1-2.79,1.99-5.58,2.99-8.36c0.33,1.57,0.67,3.13,1,4.7
	c0.38,1.78,2.85,1.9,3.72,0.49c1.69-2.73,3.38-5.47,5.08-8.2c0.76-1.23,1.49-2.51,2.3-3.71c0.16,1.42,0.25,2.85,0.39,4.28
	c0.14,1.51,0.34,3.05,1.47,4.18c2.25,2.24,6.62,0.36,5.52-2.96C57.27,37.34,55.84,37.09,54.81,37.55z M50.23,32.26
	C50.12,32.18,50.19,32.01,50.23,32.26L50.23,32.26z"/>
<path d="M69.51,20.08c-2.31,0.75-4.68,1.34-7.07,1.84c0.3-1.26,0.65-2.52,1.1-3.75c0.38-1.03-0.42-2.23-1.42-2.51
	c-1.14-0.31-2.13,0.39-2.51,1.42c-0.65,1.78-1.12,3.67-1.5,5.59c-0.15,0.02-0.3,0.06-0.45,0.08c-1.91,0.23-3.87,0.43-5.79,0.41
	c-1.34-0.01-2.65-0.14-3.55-1.22c-0.71-0.85-2.15-0.73-2.88,0c-0.84,0.84-0.71,2.03,0,2.88c2.67,3.2,7.7,2.49,11.35,2.1
	c0.26-0.03,0.51-0.09,0.77-0.12c-0.17,2.41-0.13,4.82,0.32,7.14c0.48,2.51,2.13,4.99,4.75,5.58c2.76,0.63,5.68-1.44,5.62-4.36
	c-0.06-2.62-4.13-2.63-4.08,0c0,0.11,0,0.11-0.01,0.14c-0.03,0.05-0.05,0.11-0.1,0.14c-0.11,0.06-0.2,0.13-0.34,0.14
	c-0.46,0.04-0.96-0.44-1.22-0.79c-0.94-1.3-0.9-3.34-0.94-4.86c-0.03-1.27,0.04-2.53,0.16-3.78c2.99-0.54,5.96-1.2,8.86-2.14
	C73.08,23.21,72.02,19.27,69.51,20.08z"/>
</svg>