<?xml version="1.0" encoding="utf-8"?>
<svg xmlns="http://www.w3.org/2000/svg" viewBox="0 0 1000 1000">
<style type="text/css">@import url("../../letters.css");</style>

<g class="letter">
	<rect width="1000" height="1000" opacity="0"/>
	<g class="mj">
		<line x1="500" y1="175" x2="0" y2="175"/>
		<line x1="500" y1="175" x2="1000" y2="175"/>
		<line x1="500" y1="275" x2="0" y2="275"/>
		<line x1="500" y1="275" x2="1000" y2="275"/>
		<line x1="500" y1="725" x2="0" y2="725"/>
		<line x1="500" y1="725" x2="1000" y2="725"/>
		<line x1="500" y1="825" x2="0" y2="825"/>
		<line x1="500" y1="825" x2="1000" y2="825"/>

		<line x1="275" y1="500" x2="275" y2="0"/>
		<line x1="275" y1="500" x2="275" y2="1000"/>
		<line x1="725" y1="500" x2="725" y2="0"/>
		<line x1="725" y1="500" x2="725" y2="1000"/>
	</g>

	<g class="mn">
		<line x1="500" y1="325" x2="0" y2="325"/>
		<line x1="500" y1="325" x2="1000" y2="325"/>
		<line x1="500" y1="675" x2="0" y2="675"/>
		<line x1="500" y1="675" x2="1000" y2="675"/>

		<line x1="325" y1="500" x2="325" y2="0"/>
		<line x1="325" y1="500" x2="325" y2="1000"/>
		<line x1="675" y1="500" x2="675" y2="0"/>
		<line x1="675" y1="500" x2="675" y2="1000"/>

		<line x1="500" y1="425" x2="0" y2="425"/>
        <line x1="500" y1="425" x2="1000" y2="425"/>
        <line x1="500" y1="475" x2="0" y2="475"/>
        <line x1="500" y1="475" x2="1000" y2="475"/>
	</g>

	<line class="d" x1="750" y1="0" x2="750" y2="1000"/>

	<path class="c" d=" M275,275.03h299.98c55.01,0,99.99,44.99,99.99,99.99c0,26.99-10.02,50.99-26.99,68.98
	C693.99,469.98,725,518.03,725,575.01c0,83.02-67,149.96-149.96,149.96H275.06V275.03H275z M574.98,325.06H324.96v99.99h250.02
	c28.01,0,49.97-22.01,49.97-50.03C624.95,347.01,602.99,325.06,574.98,325.06z M324.96,675.07h250.02
	c55.01,0,99.99-44.99,99.99-99.99c0-55.01-44.99-99.99-99.99-99.99H324.96V675.07z "/>

	<path class="cl" d=" M275,275.03h299.98c55.01,0,99.99,44.99,99.99,99.99c0,26.99-10.02,50.99-26.99,68.98
	C693.99,469.98,725,518.03,725,575.01c0,83.02-67,149.96-149.96,149.96H275.06V275.03H275z M574.98,325.06H324.96v99.99h250.02
	c28.01,0,49.97-22.01,49.97-50.03C624.95,347.01,602.99,325.06,574.98,325.06z M324.96,675.07h250.02
	c55.01,0,99.99-44.99,99.99-99.99c0-55.01-44.99-99.99-99.99-99.99H324.96V675.07z "/>

	<text class="l" transform="matrix(1 0 0 1 500 875)">capital beta</text>
</g>
</svg>
