<?xml version="1.0" encoding="utf-8"?>
<svg xmlns="http://www.w3.org/2000/svg" viewBox="0 0 1000 1000">
<style type="text/css">@import url("../../letters.css");</style>

<g class="letter">
	<rect width="1000" height="1000" opacity="0"/>
	<g class="mj">
		<line x1="500" y1="175" x2="0" y2="175"/>
		<line x1="500" y1="175" x2="1000" y2="175"/>
		<line x1="500" y1="275" x2="0" y2="275"/>
		<line x1="500" y1="275" x2="1000" y2="275"/>
		<line x1="500" y1="725" x2="0" y2="725"/>
		<line x1="500" y1="725" x2="1000" y2="725"/>
		<line x1="500" y1="825" x2="0" y2="825"/>
		<line x1="500" y1="825" x2="1000" y2="825"/>

		<line x1="275" y1="500" x2="275" y2="0"/>
		<line x1="275" y1="500" x2="275" y2="1000"/>
		<line x1="725" y1="500" x2="725" y2="0"/>
		<line x1="725" y1="500" x2="725" y2="1000"/>
	</g>

	<g class="mn">
		<line x1="500" y1="775" x2="0" y2="775"/>
		<line x1="500" y1="775" x2="1000" y2="775"/>

		<line x1="475" y1="500" x2="475" y2="0"/>
        <line x1="475" y1="500" x2="475" y2="1000"/>
        <line x1="525" y1="500" x2="525" y2="0"/>
        <line x1="525" y1="500" x2="525" y2="1000"/>
	</g>

	<line class="d" x1="750" y1="0" x2="750" y2="1000"/>

	<path class="c" d=" M275.06,725.46l199.99-450.01h49.97L725,725.46v50.03H275v-50.03H275.06z M671.02,725.46L500,341.5
	L328.98,725.46H671.02z "/>

	<path class="cl" d=" M275.06,725.46l199.99-450.01h49.97L725,725.46v50.03H275v-50.03H275.06z M671.02,725.46L500,341.5
	L328.98,725.46H671.02z "/>

	<text class="l" transform="matrix(1 0 0 1 500 875)">capital delta</text>
</g>
</svg>
