<?xml version="1.0" encoding="utf-8"?>
<svg xmlns="http://www.w3.org/2000/svg" viewBox="0 0 1000 1000">
<style type="text/css">@import url("../../letters.css");</style>

<g class="letter">
	<rect width="1000" height="1000" opacity="0"/>
	<g class="mj">
		<line x1="500" y1="175" x2="0" y2="175"/>
		<line x1="500" y1="175" x2="1000" y2="175"/>
		<line x1="500" y1="275" x2="0" y2="275"/>
		<line x1="500" y1="275" x2="1000" y2="275"/>
		<line x1="500" y1="725" x2="0" y2="725"/>
		<line x1="500" y1="725" x2="1000" y2="725"/>
		<line x1="500" y1="825" x2="0" y2="825"/>
		<line x1="500" y1="825" x2="1000" y2="825"/>

		<line x1="275" y1="500" x2="275" y2="0"/>
		<line x1="275" y1="500" x2="275" y2="1000"/>
		<line x1="725" y1="500" x2="725" y2="0"/>
		<line x1="725" y1="500" x2="725" y2="1000"/>
	</g>

	<g class="mn">
		<line x1="500" y1="325" x2="0" y2="325"/>
		<line x1="500" y1="325" x2="1000" y2="325"/>
		<line x1="500" y1="675" x2="0" y2="675"/>
		<line x1="500" y1="675" x2="1000" y2="675"/>

		<line x1="325" y1="500" x2="325" y2="0"/>
		<line x1="325" y1="500" x2="325" y2="1000"/>

		<line x1="500" y1="475" x2="0" y2="475"/>
        <line x1="500" y1="475" x2="1000" y2="475"/>
        <line x1="500" y1="525" x2="0" y2="525"/>
        <line x1="500" y1="525" x2="1000" y2="525"/>
	</g>

	<line class="d" x1="750" y1="0" x2="750" y2="1000"/>

	<path class="c" d=" M725,275.06v49.97H331.02c22.01,86.02,101.01,150.02,193.99,150.02v49.97
	c-92.98,0-171.98,64-193.99,149.96H725V725H275c0-98.97,58.01-183.97,140.96-225C332.94,458.97,275,373.97,275,275H725V275.06z "/>

	<path class="cl" d=" M725,275.06v49.97H331.02c22.01,86.02,101.01,150.02,193.99,150.02v49.97
	c-92.98,0-171.98,64-193.99,149.96H725V725H275c0-98.97,58.01-183.97,140.96-225C332.94,458.97,275,373.97,275,275H725V275.06z "/>

	<text class="l" transform="matrix(1 0 0 1 500 875)">capital sigma</text>
</g>
</svg>
