<?xml version="1.0" encoding="utf-8"?>
<svg xmlns="http://www.w3.org/2000/svg" viewBox="0 0 1000 1000">
<style type="text/css">@import url("../../letters.css");</style>

<g class="letter">
	<rect width="1000" height="1000" opacity="0"/>
	<g class="mj">
		<line x1="500" y1="175" x2="0" y2="175"/>
		<line x1="500" y1="175" x2="1000" y2="175"/>
		<line x1="500" y1="275" x2="0" y2="275"/>
		<line x1="500" y1="275" x2="1000" y2="275"/>
		<line x1="500" y1="725" x2="0" y2="725"/>
		<line x1="500" y1="725" x2="1000" y2="725"/>
		<line x1="500" y1="825" x2="0" y2="825"/>
		<line x1="500" y1="825" x2="1000" y2="825"/>

		<line x1="275" y1="500" x2="275" y2="0"/>
		<line x1="275" y1="500" x2="275" y2="1000"/>
		<line x1="725" y1="500" x2="725" y2="0"/>
		<line x1="725" y1="500" x2="725" y2="1000"/>
	</g>

	<g class="mn">
		<line x1="500" y1="325" x2="0" y2="325"/>
		<line x1="500" y1="325" x2="1000" y2="325"/>
		<line x1="500" y1="675" x2="0" y2="675"/>
		<line x1="500" y1="675" x2="1000" y2="675"/>

		<line x1="325" y1="500" x2="325" y2="0"/>
		<line x1="325" y1="500" x2="325" y2="1000"/>
		<line x1="675" y1="500" x2="675" y2="0"/>
		<line x1="675" y1="500" x2="675" y2="1000"/>
	</g>

	<line class="d" x1="750" y1="0" x2="750" y2="1000"/>

	<path class="c" d=" M324.96,575.01c0,55.01,44.99,99.99,99.99,99.99v49.97H275v-49.97h37.97
	C288.97,648.01,275,612.98,275,575.01v-74.98c0-123.99,101.01-225,225-225s225,101.01,225,225v74.98c0,37.97-13.98,73-37.97,99.99
	H725v49.97H575.04v-49.97c55.01,0,99.99-44.99,99.99-99.99v-74.98c0-96.99-77.98-174.98-174.98-174.98s-174.98,77.98-174.98,174.98
	v74.98H324.96z "/>

	<path class="cl" d=" M324.96,575.01c0,55.01,44.99,99.99,99.99,99.99v49.97H275v-49.97h37.97
	C288.97,648.01,275,612.98,275,575.01v-74.98c0-123.99,101.01-225,225-225s225,101.01,225,225v74.98c0,37.97-13.98,73-37.97,99.99
	H725v49.97H575.04v-49.97c55.01,0,99.99-44.99,99.99-99.99v-74.98c0-96.99-77.98-174.98-174.98-174.98s-174.98,77.98-174.98,174.98
	v74.98H324.96z "/>

	<text class="l" transform="matrix(1 0 0 1 500 875)">capital omega</text>
</g>
</svg>
