<?xml version="1.0" encoding="utf-8"?>
<svg xmlns="http://www.w3.org/2000/svg" viewBox="0 0 1000 1000">
<style type="text/css">@import url("../../letters.css");</style>

<g class="letter">
	<rect width="1000" height="1000" opacity="0"/>
	<g class="mj">
		<line x1="500" y1="175" x2="0" y2="175"/>
		<line x1="500" y1="175" x2="1000" y2="175"/>
		<line x1="500" y1="275" x2="0" y2="275"/>
		<line x1="500" y1="275" x2="1000" y2="275"/>
		<line x1="500" y1="725" x2="0" y2="725"/>
		<line x1="500" y1="725" x2="1000" y2="725"/>
		<line x1="500" y1="825" x2="0" y2="825"/>
		<line x1="500" y1="825" x2="1000" y2="825"/>

		<line x1="75" y1="500" x2="75" y2="0"/>
		<line x1="75" y1="500" x2="75" y2="1000"/>
		<line x1="925" y1="500" x2="925" y2="0"/>
		<line x1="925" y1="500" x2="925" y2="1000"/>
	</g>

	<g class="mn">
		<line x1="500" y1="325" x2="0" y2="325"/>
		<line x1="500" y1="325" x2="1000" y2="325"/>
		<line x1="500" y1="675" x2="0" y2="675"/>
		<line x1="500" y1="675" x2="1000" y2="675"/>

		<line x1="125" y1="500" x2="125" y2="0"/>
		<line x1="125" y1="500" x2="125" y2="1000"/>
		<line x1="475" y1="500" x2="475" y2="0"/>
		<line x1="475" y1="500" x2="475" y2="1000"/>
		<line x1="525" y1="500" x2="525" y2="0"/>
		<line x1="525" y1="500" x2="525" y2="1000"/>
		<line x1="875" y1="500" x2="875" y2="0"/>
		<line x1="875" y1="500" x2="875" y2="1000"/>
	</g>

	<line class="d" x1="950" y1="0" x2="950" y2="1000"/>

	<path class="c" d=" M700,725c-71,0-134-33-175-84v84h-50v-84c-41,51-104,84-175,84C176,725,75,624,75,500s101-225,225-225
	c71,0,134,33,175,84v-84h50v84c41-51,104-84,175-84c124,0,225,101,225,225S824,725,700,725z M300,325c-97,0-175,78-175,175
	s78,175,175,175s175-78,175-175S397,325,300,325z M700,675c97,0,175-78,175-175s-78-175-175-175s-175,78-175,175S603,675,700,675z "/>

	<path class="cl" d=" M700,725c-71,0-134-33-175-84v84h-50v-84c-41,51-104,84-175,84C176,725,75,624,75,500s101-225,225-225
	c71,0,134,33,175,84v-84h50v84c41-51,104-84,175-84c124,0,225,101,225,225S824,725,700,725z M300,325c-97,0-175,78-175,175
	s78,175,175,175s175-78,175-175S397,325,300,325z M700,675c97,0,175-78,175-175s-78-175-175-175s-175,78-175,175S603,675,700,675z "/>

	<text class="l" transform="matrix(1 0 0 1 500 875)">capital phi</text>
</g>
</svg>
