<?xml version="1.0" encoding="utf-8"?>
<svg xmlns="http://www.w3.org/2000/svg" viewBox="0 0 1000 1000">
<style type="text/css">@import url("../../letters.css");</style>

<g class="letter">
	<rect width="1000" height="1000" opacity="0"/>
	<g class="mj">
		<line x1="500" y1="175" x2="0" y2="175"/>
		<line x1="500" y1="175" x2="1000" y2="175"/>
		<line x1="500" y1="275" x2="0" y2="275"/>
		<line x1="500" y1="275" x2="1000" y2="275"/>
		<line x1="500" y1="725" x2="0" y2="725"/>
		<line x1="500" y1="725" x2="1000" y2="725"/>
		<line x1="500" y1="825" x2="0" y2="825"/>
		<line x1="500" y1="825" x2="1000" y2="825"/>

		<line x1="275" y1="500" x2="275" y2="0"/>
		<line x1="275" y1="500" x2="275" y2="1000"/>
		<line x1="725" y1="500" x2="725" y2="0"/>
		<line x1="725" y1="500" x2="725" y2="1000"/>
	</g>

	<g class="mn">
		<line x1="500" y1="325" x2="0" y2="325"/>
		<line x1="500" y1="325" x2="1000" y2="325"/>
		<line x1="500" y1="675" x2="0" y2="675"/>
		<line x1="500" y1="675" x2="1000" y2="675"/>

		<line x1="325" y1="500" x2="325" y2="0"/>
		<line x1="325" y1="500" x2="325" y2="1000"/>
		<line x1="675" y1="500" x2="675" y2="0"/>
		<line x1="675" y1="500" x2="675" y2="1000"/>

		<line x1="500" y1="500" x2="500" y2="0"/>
        <line x1="500" y1="500" x2="500" y2="1000"/>
        <line x1="550" y1="500" x2="550" y2="0"/>
        <line x1="550" y1="500" x2="550" y2="1000"/>
	</g>

	<line class="d" x1="750" y1="0" x2="750" y2="1000"/>

	<path class="c" d=" M657.04,661.06c20.99,9,43.97,13.98,67.96,13.98V725c-40.97,0-80.02-10.98-113.01-29.99
	C579,714.03,540.97,725,500,725c-123.99,0-225-101.01-225-225s101.01-225,225-225s225,101.01,225,225
	C725.06,563.04,699.03,620.03,657.04,661.06z M500.06,675.04c23.99,0,46.97-4.98,68.02-13.98c-41.99-40.97-68.02-98.01-68.02-161
	h49.97c0,53.99,23.99,101.97,62.02,134.01c37.97-31.97,62.98-80.02,62.98-134.01c0-97-77.98-174.98-174.98-174.98
	s-174.98,77.98-174.98,174.98C325.08,597.05,403.06,675.04,500.06,675.04z "/>

	<path class="cl" d=" M657.04,661.06c20.99,9,43.97,13.98,67.96,13.98V725c-40.97,0-80.02-10.98-113.01-29.99
	C579,714.03,540.97,725,500,725c-123.99,0-225-101.01-225-225s101.01-225,225-225s225,101.01,225,225
	C725.06,563.04,699.03,620.03,657.04,661.06z M500.06,675.04c23.99,0,46.97-4.98,68.02-13.98c-41.99-40.97-68.02-98.01-68.02-161
	h49.97c0,53.99,23.99,101.97,62.02,134.01c37.97-31.97,62.98-80.02,62.98-134.01c0-97-77.98-174.98-174.98-174.98
	s-174.98,77.98-174.98,174.98C325.08,597.05,403.06,675.04,500.06,675.04z "/>

	<text class="l" transform="matrix(1 0 0 1 500 875)"> capital cue </text>
</g>
</svg>
