<?xml version="1.0" encoding="utf-8"?>
<svg xmlns="http://www.w3.org/2000/svg" viewBox="0 0 1000 1000">
<style type="text/css">@import url("../../letters.css");</style>

<g class="letter">
	<rect width="1000" height="1000" opacity="0"/>
	<g class="mj">
		<line x1="500" y1="175" x2="0" y2="175"/>
		<line x1="500" y1="175" x2="1000" y2="175"/>
		<line x1="500" y1="275" x2="0" y2="275"/>
		<line x1="500" y1="275" x2="1000" y2="275"/>
		<line x1="500" y1="725" x2="0" y2="725"/>
		<line x1="500" y1="725" x2="1000" y2="725"/>
		<line x1="500" y1="825" x2="0" y2="825"/>
		<line x1="500" y1="825" x2="1000" y2="825"/>

		<line x1="75" y1="500" x2="75" y2="0"/>
		<line x1="75" y1="500" x2="75" y2="1000"/>
		<line x1="925" y1="500" x2="925" y2="0"/>
		<line x1="925" y1="500" x2="925" y2="1000"/>
	</g>

	<g class="mn">
		<line x1="125" y1="500" x2="125" y2="0"/>
		<line x1="125" y1="500" x2="125" y2="1000"/>

		<line x1="275" y1="500" x2="275" y2="0"/>
		<line x1="275" y1="500" x2="275" y2="1000"/>
		<line x1="325" y1="500" x2="325" y2="0"/>
		<line x1="325" y1="500" x2="325" y2="1000"/>

		<line x1="475" y1="500" x2="475" y2="0"/>
        <line x1="475" y1="500" x2="475" y2="1000"/>
        <line x1="525" y1="500" x2="525" y2="0"/>
        <line x1="525" y1="500" x2="525" y2="1000"/>

		<line x1="675" y1="500" x2="675" y2="0"/>
		<line x1="675" y1="500" x2="675" y2="1000"/>
		<line x1="725" y1="500" x2="725" y2="0"/>
		<line x1="725" y1="500" x2="725" y2="1000"/>

		<line x1="875" y1="500" x2="875" y2="0"/>
		<line x1="875" y1="500" x2="875" y2="1000"/>
	</g>

	<line class="d" x1="950" y1="0" x2="950" y2="1000"/>

	<path class="c" d=" M499.9,336l-173,389h-50L77,275l45-20l180,404l180-404h36l180,404l180-404l45,20L723,725h-50
	L499.9,336z "/>

	<path class="cl" d=" M499.9,336l-173,389h-50L77,275l45-20l180,404l180-404h36l180,404l180-404l45,20L723,725h-50
	L499.9,336z "/>

	<text class="l" transform="matrix(1 0 0 1 500 875)"> capital double u </text>
</g>
</svg>
