<?xml version="1.0" encoding="utf-8"?>
<svg xmlns="http://www.w3.org/2000/svg" viewBox="0 0 734.96 734.96">
<style type="text/css">
	@import url("../../../../styles/logos-draft.css");
	.d{fill:url(#d);}
	.logo{fill:#221E20;}
	@media (prefers-color-scheme: dark){.logo{fill:#EEEAE0;}}
</style>

<g class="main">
	<defs>
		<pattern id="d" width="6" height="6" patternUnits="userSpaceOnUse" patternTransform="rotate(45 50 50)">
			<line class="h" x1="0" y1="0" x2="0" y2="10"></line>
		</pattern>
	</defs>

	<rect class="bg" x="68.23" y="68.23" width="598.5" height="598.5"/>

	<g class="logo">
		<path d="M335.23,441.33c-2.22-3.74-5-6.83-8.25-10.68c-11.67-13.8-30.02-17.82-49.26-17.82c-11.73,0-22.03,2.49-30.9,7.5
			c-8.89,4.99-16.29,11.99-22.2,20.99v-24.79h-91.8v30.98c1.85,2.63,3.62,5.33,5.29,8.1l21.91,4.78v138.05h64.59V475.01
			c2.95-4.32,6.71-7.46,11.28-9.45c4.57-1.97,9.68-2.95,15.36-2.95c8.25,0,14.59,2.42,18.96,7.3c4.37,4.88,6.57,13.85,6.57,26.92
			l0.01,101.59h64.59V475.01c2.95-4.32,6.72-7.47,11.29-9.45c4.57-1.97,9.68-2.95,15.36-2.95c8.25,0,14.59,2.42,18.96,7.3
			c4.37,4.88,6.57,13.85,6.57,26.92v35.53c0,24.18,5.46,41.85,16.38,53.02s26.86,16.75,47.84,16.75c6.04,0,11.9-0.75,17.67-1.39
			c8.56-0.95,17.92-3.49,24.31-5.46c-8.59-12.3-13.88-27.81-15.79-46.38c-2.1,0.63-6.94,0.86-9.17,0.86
			c-5.18,0-9.25-1.29-12.21-3.89c-2.93-2.57-4.41-7.07-4.44-13.51v-35.53c-0.05-28.56-5.55-49.68-17.21-63.38
			c-11.73-13.76-27.2-20.63-46.44-20.63c-11.73,0-21.7,3.12-30.9,7.5C354.19,424.81,345.01,430.49,335.23,441.33z"/>
		<path d="M251.44,132.82c-16.52,0-33.52,3.07-47.31,9.19c-13.78,6.13-25.74,14.66-35.86,25.6c-10.12,10.94-17.94,23.74-23.47,38.4
			s-8.29,30.58-8.29,47.75v18.33c0,17.17,2.76,33.09,8.29,47.75c5.52,14.66,13.35,27.46,23.47,38.4
			c10.12,10.94,22.07,19.47,35.86,25.6c13.78,6.12,30.79,9.19,47.31,9.19s33.52-3.06,47.31-9.19c13.78-6.13,25.74-14.66,35.86-25.6
			s17.94-23.74,23.47-38.4s8.29-30.58,8.29-47.75v-18.33c0-17.17-2.76-33.09-8.29-47.75c-5.52-14.66-13.35-27.46-23.47-38.4
			s-22.07-19.47-35.86-25.6C284.96,135.89,267.96,132.82,251.44,132.82z M295.85,312.95c-3.94,11.49-9.91,23.52-18.13,29.78
			c-7.57,5.76-16.05,9.52-26.28,9.52s-18.71-3.75-26.28-9.52c-8.22-6.26-14.19-18.29-18.13-29.78c-3.94-11.49-5.91-25.33-5.91-40.86
			v-18.33l0,0c0-15.53,1.97-29.37,5.91-40.86s9.91-23.52,18.13-29.78c7.57-5.76,16.05-9.52,26.28-9.52s18.71,3.75,26.28,9.52
			c8.22,6.26,14.19,18.29,18.13,29.78s5.91,25.33,5.91,40.86v18.33C301.76,287.62,299.79,301.47,295.85,312.95z"/>
		<path d="M598.43,340.18c-2.22,0.25-4.63,0.48-6.85,0.48c-5.18,0-9.25-1.29-12.21-3.89c-2.93-2.57-4.41-7.07-4.44-13.51v-35.53
			c-0.05-28.56-5.55-49.68-17.21-63.38c-11.73-13.76-27.2-20.63-46.44-20.63c-11.73,0-22.03,2.49-30.9,7.5
			c-8.89,5-16.29,11.99-22.21,21v-95.7h-91.79v27.31c2.77,3.95,5.35,8.05,7.72,12.3l19.48,4.25v208.95h64.59V265.91
			c2.95-4.32,6.71-7.47,11.28-9.45c4.57-1.97,9.68-2.95,15.36-2.95c8.25,0,14.59,2.42,18.96,7.3s6.57,13.85,6.57,26.92v35.53
			c0,24.18,5.46,41.85,16.38,53.02c10.92,11.17,26.86,16.75,47.84,16.75c6.04,0,11.94-0.46,17.67-1.39s9.91-2.31,9.91-2.31
			L598.43,340.18z"/>
		<path d="M574.94,482.13h27.2v-40.8h-27.2v-21.1c-0.13,0-0.26,0.01-0.39,0.01c-26.71,0-48.28-7.38-64.2-21.95v43.05h-33.82
			c4.5,11.7,7.25,25.25,8.31,40.8h25.51v50.24c0,24.18,5.46,41.85,16.38,53.02c10.92,11.17,26.86,16.75,47.84,16.75
			c6.04,0,11.94-0.46,17.67-1.39c5.74-0.93,9.91-2.31,9.91-2.31l-3.7-49.15c-2.22,0.25-4.63,0.48-6.85,0.48
			c-5.18,0-9.25-1.29-12.21-3.89c-2.93-2.57-4.41-7.07-4.44-13.51L574.94,482.13z"/>
	</g>

	<g class="logo-draft">
		<path d="M335.23,441.33c-2.22-3.74-5-6.83-8.25-10.68c-11.67-13.8-30.02-17.82-49.26-17.82c-11.73,0-22.03,2.49-30.9,7.5
			c-8.89,4.99-16.29,11.99-22.2,20.99v-24.79h-91.8v30.98c1.85,2.63,3.62,5.33,5.29,8.1l21.91,4.78v138.05h64.59V475.01
			c2.95-4.32,6.71-7.46,11.28-9.45c4.57-1.97,9.68-2.95,15.36-2.95c8.25,0,14.59,2.42,18.96,7.3c4.37,4.88,6.57,13.85,6.57,26.92
			l0.01,101.59h64.59V475.01c2.95-4.32,6.72-7.47,11.29-9.45c4.57-1.97,9.68-2.95,15.36-2.95c8.25,0,14.59,2.42,18.96,7.3
			c4.37,4.88,6.57,13.85,6.57,26.92v35.53c0,24.18,5.46,41.85,16.38,53.02s26.86,16.75,47.84,16.75c6.04,0,11.9-0.75,17.67-1.39
			c8.56-0.95,17.92-3.49,24.31-5.46c-8.59-12.3-13.88-27.81-15.79-46.38c-2.1,0.63-6.94,0.86-9.17,0.86
			c-5.18,0-9.25-1.29-12.21-3.89c-2.93-2.57-4.41-7.07-4.44-13.51v-35.53c-0.05-28.56-5.55-49.68-17.21-63.38
			c-11.73-13.76-27.2-20.63-46.44-20.63c-11.73,0-21.7,3.12-30.9,7.5C354.19,424.81,345.01,430.49,335.23,441.33z"/>
		<path d="M251.44,132.82c-16.52,0-33.52,3.07-47.31,9.19c-13.78,6.13-25.74,14.66-35.86,25.6c-10.12,10.94-17.94,23.74-23.47,38.4
			s-8.29,30.58-8.29,47.75v18.33c0,17.17,2.76,33.09,8.29,47.75c5.52,14.66,13.35,27.46,23.47,38.4
			c10.12,10.94,22.07,19.47,35.86,25.6c13.78,6.12,30.79,9.19,47.31,9.19s33.52-3.06,47.31-9.19c13.78-6.13,25.74-14.66,35.86-25.6
			s17.94-23.74,23.47-38.4s8.29-30.58,8.29-47.75v-18.33c0-17.17-2.76-33.09-8.29-47.75c-5.52-14.66-13.35-27.46-23.47-38.4
			s-22.07-19.47-35.86-25.6C284.96,135.89,267.96,132.82,251.44,132.82z M295.85,312.95c-3.94,11.49-9.91,23.52-18.13,29.78
			c-7.57,5.76-16.05,9.52-26.28,9.52s-18.71-3.75-26.28-9.52c-8.22-6.26-14.19-18.29-18.13-29.78c-3.94-11.49-5.91-25.33-5.91-40.86
			v-18.33l0,0c0-15.53,1.97-29.37,5.91-40.86s9.91-23.52,18.13-29.78c7.57-5.76,16.05-9.52,26.28-9.52s18.71,3.75,26.28,9.52
			c8.22,6.26,14.19,18.29,18.13,29.78s5.91,25.33,5.91,40.86v18.33C301.76,287.62,299.79,301.47,295.85,312.95z"/>
		<path d="M598.43,340.18c-2.22,0.25-4.63,0.48-6.85,0.48c-5.18,0-9.25-1.29-12.21-3.89c-2.93-2.57-4.41-7.07-4.44-13.51v-35.53
			c-0.05-28.56-5.55-49.68-17.21-63.38c-11.73-13.76-27.2-20.63-46.44-20.63c-11.73,0-22.03,2.49-30.9,7.5
			c-8.89,5-16.29,11.99-22.21,21v-95.7h-91.79v27.31c2.77,3.95,5.35,8.05,7.72,12.3l19.48,4.25v208.95h64.59V265.91
			c2.95-4.32,6.71-7.47,11.28-9.45c4.57-1.97,9.68-2.95,15.36-2.95c8.25,0,14.59,2.42,18.96,7.3s6.57,13.85,6.57,26.92v35.53
			c0,24.18,5.46,41.85,16.38,53.02c10.92,11.17,26.86,16.75,47.84,16.75c6.04,0,11.94-0.46,17.67-1.39s9.91-2.31,9.91-2.31
			L598.43,340.18z"/>
		<path d="M574.94,482.13h27.2v-40.8h-27.2v-21.1c-0.13,0-0.26,0.01-0.39,0.01c-26.71,0-48.28-7.38-64.2-21.95v43.05h-33.82
			c4.5,11.7,7.25,25.25,8.31,40.8h25.51v50.24c0,24.18,5.46,41.85,16.38,53.02c10.92,11.17,26.86,16.75,47.84,16.75
			c6.04,0,11.94-0.46,17.67-1.39c5.74-0.93,9.91-2.31,9.91-2.31l-3.7-49.15c-2.22,0.25-4.63,0.48-6.85,0.48
			c-5.18,0-9.25-1.29-12.21-3.89c-2.93-2.57-4.41-7.07-4.44-13.51L574.94,482.13z"/>
	</g>

	<g class="mjl">
		<line x1="68.23" y1="602.14" x2="666.73" y2="602.14"/>
		<line x1="132.82" y1="416.53" x2="602.14" y2="416.53"/>
		<line x1="132.82" y1="389.33" x2="602.14" y2="389.33"/>
		<line x1="68.23" y1="132.82" x2="666.73" y2="132.82"/>
		<line x1="132.82" y1="68.23" x2="132.82" y2="666.73"/>
		<line x1="602.14" y1="68.23" x2="602.14" y2="666.73"/>
	</g>

	<g class="mnl">
		<line x1="201.11" y1="352.23" x2="301.78" y2="352.23"/>
		<line x1="201.11" y1="173.62" x2="301.78" y2="173.62"/>
		<line x1="132.82" y1="136.52" x2="602.14" y2="136.52"/>
		<line x1="132.82" y1="598.44" x2="602.14" y2="598.44"/>
		<line x1="132.82" y1="412.83" x2="602.14" y2="412.83"/>
		<line x1="132.82" y1="393.03" x2="602.14" y2="393.03"/>
		<line x1="136.52" y1="132.82" x2="136.52" y2="602.14"/>
		<line x1="598.44" y1="132.82" x2="598.44" y2="602.14"/>
		<line x1="160.02" y1="416.53" x2="160.02" y2="598.44"/>
		<line x1="276.80" y1="416.53" x2="276.80" y2="598.44"/>
		<line x1="301.78" y1="136.54" x2="301.78" y2="389.33"/>
		<line x1="393.57" y1="136.54" x2="393.57" y2="598.44"/>
		<line x1="510.35" y1="136.52" x2="510.35" y2="598.44"/>
		<line x1="132.82" y1="441.33" x2="602.14" y2="441.33"/>
		<line x1="224.61" y1="416.53" x2="224.61" y2="598.44"/>
		<line x1="341.39" y1="416.53" x2="341.39" y2="598.44"/>
		<line x1="366.37" y1="136.54" x2="366.37" y2="389.33"/>
		<line x1="201.11" y1="136.54" x2="201.11" y2="389.33"/>
		<line x1="458.16" y1="136.54" x2="458.16" y2="598.44"/>
		<line x1="574.94" y1="136.52" x2="574.94" y2="598.44"/>
	</g>

	<g class="d">
		<rect x="68.23" y="68.23" width="64.59" height="64.59"/>
		<rect x="602.14" y="602.14" width="64.59" height="64.59"/>
		<rect x="602.14" y="68.23" width="64.59" height="64.59"/>
		<rect x="68.23" y="602.14" width="64.59" height="64.59"/>
	</g>

	<g class="dl">
		<rect x="68.23" y="68.23" width="598.5" height="598.5"/>

		<path d="M393.56,262.91v-9.17c0-20.38-3.38-39.67-10.03-57.34c-6.74-17.89-16.48-33.79-28.95-47.28
			c-12.59-13.61-27.66-24.37-44.77-31.98"/>
		<path d="M160.02,546.68v-9.17c0-20.38-3.38-39.67-10.03-57.34c-6.74-17.89-16.48-33.79-28.95-47.28
			c-12.59-13.61-27.66-24.37-44.77-31.98"/>
		<path d="M485.35,496.84c-0.06-35.86-7.81-62.35-23.7-81.01c-0.87-1.03-1.77-2.03-2.68-3"/>
		<path d="M483.15,532.37c0,31.43,8.12,55.66,24.13,72.04c16.17,16.54,38.81,24.93,67.28,24.93"/>
		<path d="M485.37,349.82c3.41,18.83,10.74,34.07,21.9,45.48c16.17,16.54,38.81,24.93,67.28,24.93
			c7.46,0,14.86-0.58,22-1.74c7.53-1.21,13.12-3.01,14.16-3.36l20.13-6.7"/>
	</g>
</g>
</svg>
