<?xml version="1.0" encoding="utf-8"?>
<svg xmlns="http://www.w3.org/2000/svg" viewBox="0 0 1740 345">
<style type="text/css">
	@import url("../../../../styles/logos-draft.css");
	.d{fill:url(#d);}
	.main.w .logo{fill:#EEEAE0;}
	@media (prefers-color-scheme: dark){.main.w .logo{fill:#221E20;}}
</style>

<g class="main w">
	<defs>
		<pattern id="d" width="6" height="6" patternUnits="userSpaceOnUse" patternTransform="rotate(45 50 50)">
			<line class="h" x1="0" y1="0" x2="0" y2="10"></line>
		</pattern>
	</defs>

	<rect class="bg" x="0" y="0" width="1740" height="345"/>

	<g class="logo-draft">
		<path d="M1270.93,139.31c-6.16-10.84-13.71-19.86-24.31-26.19c-10.59-6.33-18.36-9.49-33.27-9.49s-22.67,3.16-33.27,9.49
			c-10.59,6.33-18.15,15.36-24.31,26.19c-4.63,8.15-8.42,18.65-8.42,33.19c0,14.54,3.78,25.05,8.42,33.19
			c6.16,10.84,13.71,19.86,24.31,26.19c10.59,6.33,18.36,9.49,33.27,9.49s22.68-3.16,33.27-9.49c10.59-6.33,18.15-15.36,24.31-26.19
			c4.63-8.15,8.42-18.65,8.42-33.19C1279.35,157.96,1275.56,147.46,1270.93,139.31z M1228.23,197.62
			c-2.41,5.21-7.87,14.07-14.87,14.07c-7,0-12.46-8.86-14.87-14.07c-3.15-6.8-4.11-17.51-4.11-25.12s0.97-18.33,4.11-25.12
			c2.41-5.21,7.87-14.07,14.87-14.07c7,0,12.46,8.86,14.87,14.07c3.15,6.8,4.11,17.51,4.11,25.12S1231.37,190.83,1228.23,197.62z"/>
		<path d="M175.88,139.31c-6.16-10.84-13.71-19.86-24.31-26.19c-10.59-6.33-18.36-9.49-33.27-9.49s-22.67,3.16-33.27,9.49
			c-10.59,6.33-18.15,15.36-24.31,26.19c-4.63,8.15-8.42,18.65-8.42,33.19c0,14.54,3.78,25.05,8.42,33.19
			c6.16,10.84,13.71,19.86,24.31,26.19c10.59,6.33,18.36,9.49,33.27,9.49s22.68-3.16,33.27-9.49c10.59-6.33,18.15-15.36,24.31-26.19
			c4.63-8.15,8.42-18.65,8.42-33.19C184.3,157.96,180.52,147.45,175.88,139.31z M133.18,197.62c-2.41,5.21-7.87,14.07-14.87,14.07
			c-7,0-12.46-8.86-14.87-14.07c-3.15-6.8-4.11-17.51-4.11-25.12c0-7.62,0.97-18.33,4.11-25.12c2.41-5.21,7.87-14.07,14.87-14.07
			c7,0,12.46,8.86,14.87,14.07c3.15,6.8,4.11,17.51,4.11,25.12C137.3,180.12,136.33,190.83,133.18,197.62z"/>
		<path d="M1138.57,215.48c-2.6-4.58-4.73-9.29-6.4-14.17c-3.09,0.89-6.5,1.58-7.44,1.69c-1.62,0.18-3.23,0.27-4.85,0.27
			c-3.77,0-6.73-0.94-8.89-2.83c-2.13-1.87-3.21-5.15-3.23-9.83l0-54.61h27.48c1.01-2.19,2.11-4.35,3.32-6.48
			c5.24-9.22,11.16-16.9,17.88-23.21h-48.68V73.93h-47v32.39h-37.98V136h37.98v54.61c0,17.6,3.97,30.46,11.92,38.58
			c7.95,8.13,19.55,12.19,34.81,12.19c4.4,0,8.67-0.48,12.86-1.01c8.93-1.14,23.65-8.11,28.12-10.28
			C1144.93,225.73,1141.64,220.87,1138.57,215.48z"/>
		<path d="M1391.38,220.96c1.51,1.77,3.24,3.48,5.18,5.14c6.51,5.58,15.5,11.26,33.47,13.79c5.39,0.72,13.58,1.49,20.09,1.49h66.8
			c6.51,0,14.7-0.77,20.09-1.49c17.97-2.53,26.96-8.21,33.47-13.79c7.93-6.79,12.43-14.53,12.43-22.9l0-9.41
			c0-8.36-4.51-16.11-12.44-22.9c-6.51-5.58-15.5-11.26-33.47-13.79c-5.39-0.72-13.58-1.49-20.09-1.49c-4.29,0-8.55-1.23-9.67-1.71
			c-3.31-1.41-4.95-2.31-6.41-3.68c-1.29-1.22-2.95-3.13-2.92-5.76c-0.04-2.63,1.63-4.55,2.92-5.76c1.45-1.37,3.1-2.27,6.41-3.68
			c1.12-0.48,5.38-1.71,9.67-1.71c4.29,0,8.55,1.23,9.67,1.71c3.31,1.41,4.95,2.31,6.41,3.68c1.29,1.22,2.95,3.13,2.92,5.76l47-2.67
			c0-8.36-4.51-16.11-12.44-22.9c-6.51-5.58-15.5-11.26-33.47-13.79c-5.39-0.72-13.58-1.49-20.09-1.49c-6.51,0-14.7,0.77-20.09,1.49
			c-17.97,2.53-26.96,8.21-33.47,13.79c-7.93,6.79-12.44,14.53-12.44,22.9v5.33c0,8.36,4.51,16.11,12.44,22.9
			c6.51,5.58,15.5,11.26,33.47,13.79c5.39,0.72,13.58,1.49,20.09,1.49c4.29,0,8.55,1.23,9.67,1.71c3.31,1.41,4.95,2.31,6.41,3.68
			c1.29,1.22,2.95,3.13,2.92,5.76v4.08c0.04,2.63-1.63,4.55-2.92,5.76c-1.45,1.37-3.1,2.27-6.41,3.68
			c-1.12,0.48-5.38,1.71-9.67,1.71h-66.8c-4.29,0-8.55-1.23-9.67-1.71c-3.31-1.41-4.95-2.31-6.41-3.68
			c-1.29-1.22-2.95-3.13-2.92-5.76l0-58.74c0-8.36-4.51-16.11-12.44-22.9c-6.51-5.58-15.5-11.26-33.47-13.79
			c-5.39-0.72-13.58-1.49-20.09-1.49s-14.7,0.77-20.09,1.49c-17.97,2.53-26.96,8.21-33.47,13.79c-7.93,6.79-12.44,14.53-12.44,22.9
			l47,2.67c-0.04-2.63,1.63-4.55,2.92-5.76c1.45-1.37,3.1-2.27,6.41-3.68c1.12-0.48,5.38-1.71,9.67-1.71c4.29,0,8.55,1.23,9.67,1.71
			c3.31,1.41,4.95,2.31,6.41,3.68c1.29,1.22,2.95,3.13,2.92,5.76l0,11.15h-18.99c-6.51,0-14.7,0.77-20.09,1.49
			c-17.97,2.53-26.96,8.21-33.47,13.79c-7.93,6.79-12.44,14.53-12.44,22.9c0,0,0,5.05,0,6.21c0,12.52,4.45,22.55,13.34,30.08
			c8.89,7.54,20.38,11.3,34.48,11.3c8.44,0,18.6-2.36,24.24-4.89C1376.7,234.02,1384.13,229.72,1391.38,220.96z M1346.15,196.58
			c-0.04-2.63,1.63-4.67,2.92-5.88c1.45-1.37,3.1-2.27,6.41-3.68c1.12-0.48,5.38-1.71,9.67-1.71h18.99l0,16.15
			c-2.34,2.81-5.59,4.39-8.96,5.9c-3.3,1.47-7.18,2.27-10.59,2.27c-4.49,0-11.25-0.9-14.13-3.27S1346.15,200.73,1346.15,196.58z"/>
		<path d="M1667.89,136h19.8v-29.69h-19.8V73.93h-47v32.39h-34.82c11.01,10.44,15.08,21.14,16.24,29.69h18.57v54.61
			c0,17.6,3.97,30.46,11.92,38.58c7.95,8.13,19.55,12.19,34.81,12.19c4.4,0,8.69-0.34,12.86-1.01c4.17-0.67,7.21-1.68,7.21-1.68
			l-2.69-35.77c-1.62,0.18-3.37,0.35-4.99,0.35c-3.77,0-6.73-0.94-8.89-2.83c-2.13-1.87-3.21-5.15-3.23-9.83L1667.89,136z"/>
		<path d="M353.18,202.92c-1.62,0.18-3.37,0.35-4.99,0.35c-3.77,0-6.73-0.94-8.89-2.83c-2.13-1.87-3.21-5.15-3.23-9.83l0-25.86
			c-0.04-20.79-4.04-36.16-12.52-46.12c-8.53-10.01-19.8-15.02-33.8-15.02c-8.53,0-16.03,1.81-22.49,5.46
			c-6.47,3.63-11.86,8.72-16.16,15.28V54.71h-66.8v27.6l19.8,4.31v152.06h47v-89.82c2.15-3.15,4.89-5.43,8.21-6.88
			c3.33-1.43,7.04-2.15,11.18-2.15c6.01,0,10.62,1.76,13.8,5.32c3.18,3.55,4.78,10.08,4.78,19.59v25.86
			c0,17.6,3.97,30.46,11.92,38.58c7.95,8.13,19.55,12.19,34.81,12.19c4.4,0,8.69-0.34,12.86-1.01c4.17-0.67,7.21-1.68,7.21-1.68
			L353.18,202.92z"/>
		<path d="M843.8,106.31v89.83c-2.15,3.15-4.89,5.43-8.21,6.88c-3.33,1.43-7.04,2.14-11.18,2.14c-6.01,0-10.62-1.76-13.8-5.32
			c-3.18-3.55-4.78-10.08-4.78-19.59v-25.86c0-17.59-3.97-30.45-11.92-38.58c-7.94-8.13-19.55-12.19-34.81-12.19
			c-4.4,0-8.65,0.55-12.86,1.01c-8.21,0.92-17.42,3.83-21.37,5.17c6.32,8.87,10.48,19.87,12.56,33.24c3.08-1.12,7.68-1.31,9.3-1.31
			c3.77,0,6.73,0.94,8.89,2.82c2.13,1.87,3.21,5.15,3.22,9.83l0.01,25.86c0.04,20.78,4.04,36.15,12.51,46.12
			c8.53,10.01,19.8,15.02,33.8,15.02c8.53,0,16.03-1.81,22.49-5.46c6.47-3.64,11.86-8.72,16.16-15.28v20.21
			c0,5.84-1.92,10.8-5.24,14.89c-2.8,3.44-7.54,7.03-13.74,7.54h-85.78v29.69h85.78c23.39,0,36.81-4.55,48.48-13.67
			c11.55-9.01,17.38-21.83,17.5-38.45l0.01-134.55H843.8z"/>
		<path d="M753.18,235.21c-6.31-8.88-10.47-19.88-12.55-33.24c-2.92,1.02-7.68,1.31-9.3,1.31c-3.77,0-6.73-0.94-8.89-2.83
			c-2.13-1.87-3.21-5.15-3.23-9.83l0-25.86c-0.04-20.79-4.04-36.16-12.52-46.12c-8.53-10.01-19.8-15.02-33.8-15.02
			c-8.53,0-15.79,2.27-22.49,5.46c-6.85,3.26-13.52,7.39-20.64,15.28c-1.62-2.72-3.64-4.97-6-7.77
			c-8.49-10.04-21.85-12.97-35.85-12.97c-8.53,0-16.03,1.81-22.49,5.46c-6.47,3.64-11.86,8.72-16.16,15.28v-18.04h-66.8v27.6
			l19.8,4.31v100.46h47v-89.82c2.15-3.15,4.89-5.43,8.21-6.88c3.33-1.43,7.04-2.14,11.18-2.14c6.01,0,10.62,1.76,13.8,5.32
			c3.18,3.55,4.78,10.08,4.78,19.59l0.01,73.93h47v-89.82c2.15-3.15,4.89-5.43,8.21-6.88c3.33-1.43,7.04-2.14,11.18-2.14
			c6.01,0,10.62,1.76,13.8,5.32c3.18,3.55,4.78,10.08,4.78,19.59v25.86c0,17.6,3.97,30.46,11.92,38.58
			c7.95,8.13,19.55,12.19,34.81,12.19c4.4,0,8.66-0.54,12.86-1.01C740.02,239.46,749.22,236.55,753.18,235.21z"/>
	</g>

	<g class="logo">
		<path d="M1270.93,139.31c-6.16-10.84-13.71-19.86-24.31-26.19c-10.59-6.33-18.36-9.49-33.27-9.49s-22.67,3.16-33.27,9.49
			c-10.59,6.33-18.15,15.36-24.31,26.19c-4.63,8.15-8.42,18.65-8.42,33.19c0,14.54,3.78,25.05,8.42,33.19
			c6.16,10.84,13.71,19.86,24.31,26.19c10.59,6.33,18.36,9.49,33.27,9.49s22.68-3.16,33.27-9.49c10.59-6.33,18.15-15.36,24.31-26.19
			c4.63-8.15,8.42-18.65,8.42-33.19C1279.35,157.96,1275.56,147.46,1270.93,139.31z M1228.23,197.62
			c-2.41,5.21-7.87,14.07-14.87,14.07c-7,0-12.46-8.86-14.87-14.07c-3.15-6.8-4.11-17.51-4.11-25.12s0.97-18.33,4.11-25.12
			c2.41-5.21,7.87-14.07,14.87-14.07c7,0,12.46,8.86,14.87,14.07c3.15,6.8,4.11,17.51,4.11,25.12S1231.37,190.83,1228.23,197.62z"/>
		<path d="M175.88,139.31c-6.16-10.84-13.71-19.86-24.31-26.19c-10.59-6.33-18.36-9.49-33.27-9.49s-22.67,3.16-33.27,9.49
			c-10.59,6.33-18.15,15.36-24.31,26.19c-4.63,8.15-8.42,18.65-8.42,33.19c0,14.54,3.78,25.05,8.42,33.19
			c6.16,10.84,13.71,19.86,24.31,26.19c10.59,6.33,18.36,9.49,33.27,9.49s22.68-3.16,33.27-9.49c10.59-6.33,18.15-15.36,24.31-26.19
			c4.63-8.15,8.42-18.65,8.42-33.19C184.3,157.96,180.52,147.45,175.88,139.31z M133.18,197.62c-2.41,5.21-7.87,14.07-14.87,14.07
			c-7,0-12.46-8.86-14.87-14.07c-3.15-6.8-4.11-17.51-4.11-25.12c0-7.62,0.97-18.33,4.11-25.12c2.41-5.21,7.87-14.07,14.87-14.07
			c7,0,12.46,8.86,14.87,14.07c3.15,6.8,4.11,17.51,4.11,25.12C137.3,180.12,136.33,190.83,133.18,197.62z"/>
		<path d="M1138.57,215.48c-2.6-4.58-4.73-9.29-6.4-14.17c-3.09,0.89-6.5,1.58-7.44,1.69c-1.62,0.18-3.23,0.27-4.85,0.27
			c-3.77,0-6.73-0.94-8.89-2.83c-2.13-1.87-3.21-5.15-3.23-9.83l0-54.61h27.48c1.01-2.19,2.11-4.35,3.32-6.48
			c5.24-9.22,11.16-16.9,17.88-23.21h-48.68V73.93h-47v32.39h-37.98V136h37.98v54.61c0,17.6,3.97,30.46,11.92,38.58
			c7.95,8.13,19.55,12.19,34.81,12.19c4.4,0,8.67-0.48,12.86-1.01c8.93-1.14,23.65-8.11,28.12-10.28
			C1144.93,225.73,1141.64,220.87,1138.57,215.48z"/>
		<path d="M1391.38,220.96c1.51,1.77,3.24,3.48,5.18,5.14c6.51,5.58,15.5,11.26,33.47,13.79c5.39,0.72,13.58,1.49,20.09,1.49h66.8
			c6.51,0,14.7-0.77,20.09-1.49c17.97-2.53,26.96-8.21,33.47-13.79c7.93-6.79,12.43-14.53,12.43-22.9l0-9.41
			c0-8.36-4.51-16.11-12.44-22.9c-6.51-5.58-15.5-11.26-33.47-13.79c-5.39-0.72-13.58-1.49-20.09-1.49c-4.29,0-8.55-1.23-9.67-1.71
			c-3.31-1.41-4.95-2.31-6.41-3.68c-1.29-1.22-2.95-3.13-2.92-5.76c-0.04-2.63,1.63-4.55,2.92-5.76c1.45-1.37,3.1-2.27,6.41-3.68
			c1.12-0.48,5.38-1.71,9.67-1.71c4.29,0,8.55,1.23,9.67,1.71c3.31,1.41,4.95,2.31,6.41,3.68c1.29,1.22,2.95,3.13,2.92,5.76l47-2.67
			c0-8.36-4.51-16.11-12.44-22.9c-6.51-5.58-15.5-11.26-33.47-13.79c-5.39-0.72-13.58-1.49-20.09-1.49c-6.51,0-14.7,0.77-20.09,1.49
			c-17.97,2.53-26.96,8.21-33.47,13.79c-7.93,6.79-12.44,14.53-12.44,22.9v5.33c0,8.36,4.51,16.11,12.44,22.9
			c6.51,5.58,15.5,11.26,33.47,13.79c5.39,0.72,13.58,1.49,20.09,1.49c4.29,0,8.55,1.23,9.67,1.71c3.31,1.41,4.95,2.31,6.41,3.68
			c1.29,1.22,2.95,3.13,2.92,5.76v4.08c0.04,2.63-1.63,4.55-2.92,5.76c-1.45,1.37-3.1,2.27-6.41,3.68
			c-1.12,0.48-5.38,1.71-9.67,1.71h-66.8c-4.29,0-8.55-1.23-9.67-1.71c-3.31-1.41-4.95-2.31-6.41-3.68
			c-1.29-1.22-2.95-3.13-2.92-5.76l0-58.74c0-8.36-4.51-16.11-12.44-22.9c-6.51-5.58-15.5-11.26-33.47-13.79
			c-5.39-0.72-13.58-1.49-20.09-1.49s-14.7,0.77-20.09,1.49c-17.97,2.53-26.96,8.21-33.47,13.79c-7.93,6.79-12.44,14.53-12.44,22.9
			l47,2.67c-0.04-2.63,1.63-4.55,2.92-5.76c1.45-1.37,3.1-2.27,6.41-3.68c1.12-0.48,5.38-1.71,9.67-1.71c4.29,0,8.55,1.23,9.67,1.71
			c3.31,1.41,4.95,2.31,6.41,3.68c1.29,1.22,2.95,3.13,2.92,5.76l0,11.15h-18.99c-6.51,0-14.7,0.77-20.09,1.49
			c-17.97,2.53-26.96,8.21-33.47,13.79c-7.93,6.79-12.44,14.53-12.44,22.9c0,0,0,5.05,0,6.21c0,12.52,4.45,22.55,13.34,30.08
			c8.89,7.54,20.38,11.3,34.48,11.3c8.44,0,18.6-2.36,24.24-4.89C1376.7,234.02,1384.13,229.72,1391.38,220.96z M1346.15,196.58
			c-0.04-2.63,1.63-4.67,2.92-5.88c1.45-1.37,3.1-2.27,6.41-3.68c1.12-0.48,5.38-1.71,9.67-1.71h18.99l0,16.15
			c-2.34,2.81-5.59,4.39-8.96,5.9c-3.3,1.47-7.18,2.27-10.59,2.27c-4.49,0-11.25-0.9-14.13-3.27S1346.15,200.73,1346.15,196.58z"/>
		<path d="M1667.89,136h19.8v-29.69h-19.8V73.93h-47v32.39h-34.82c11.01,10.44,15.08,21.14,16.24,29.69h18.57v54.61
			c0,17.6,3.97,30.46,11.92,38.58c7.95,8.13,19.55,12.19,34.81,12.19c4.4,0,8.69-0.34,12.86-1.01c4.17-0.67,7.21-1.68,7.21-1.68
			l-2.69-35.77c-1.62,0.18-3.37,0.35-4.99,0.35c-3.77,0-6.73-0.94-8.89-2.83c-2.13-1.87-3.21-5.15-3.23-9.83L1667.89,136z"/>
		<path d="M353.18,202.92c-1.62,0.18-3.37,0.35-4.99,0.35c-3.77,0-6.73-0.94-8.89-2.83c-2.13-1.87-3.21-5.15-3.23-9.83l0-25.86
			c-0.04-20.79-4.04-36.16-12.52-46.12c-8.53-10.01-19.8-15.02-33.8-15.02c-8.53,0-16.03,1.81-22.49,5.46
			c-6.47,3.63-11.86,8.72-16.16,15.28V54.71h-66.8v27.6l19.8,4.31v152.06h47v-89.82c2.15-3.15,4.89-5.43,8.21-6.88
			c3.33-1.43,7.04-2.15,11.18-2.15c6.01,0,10.62,1.76,13.8,5.32c3.18,3.55,4.78,10.08,4.78,19.59v25.86
			c0,17.6,3.97,30.46,11.92,38.58c7.95,8.13,19.55,12.19,34.81,12.19c4.4,0,8.69-0.34,12.86-1.01c4.17-0.67,7.21-1.68,7.21-1.68
			L353.18,202.92z"/>
		<path d="M843.8,106.31v89.83c-2.15,3.15-4.89,5.43-8.21,6.88c-3.33,1.43-7.04,2.14-11.18,2.14c-6.01,0-10.62-1.76-13.8-5.32
			c-3.18-3.55-4.78-10.08-4.78-19.59v-25.86c0-17.59-3.97-30.45-11.92-38.58c-7.94-8.13-19.55-12.19-34.81-12.19
			c-4.4,0-8.65,0.55-12.86,1.01c-8.21,0.92-17.42,3.83-21.37,5.17c6.32,8.87,10.48,19.87,12.56,33.24c3.08-1.12,7.68-1.31,9.3-1.31
			c3.77,0,6.73,0.94,8.89,2.82c2.13,1.87,3.21,5.15,3.22,9.83l0.01,25.86c0.04,20.78,4.04,36.15,12.51,46.12
			c8.53,10.01,19.8,15.02,33.8,15.02c8.53,0,16.03-1.81,22.49-5.46c6.47-3.64,11.86-8.72,16.16-15.28v20.21
			c0,5.84-1.92,10.8-5.24,14.89c-2.8,3.44-7.54,7.03-13.74,7.54h-85.78v29.69h85.78c23.39,0,36.81-4.55,48.48-13.67
			c11.55-9.01,17.38-21.83,17.5-38.45l0.01-134.55H843.8z"/>
		<path d="M753.18,235.21c-6.31-8.88-10.47-19.88-12.55-33.24c-2.92,1.02-7.68,1.31-9.3,1.31c-3.77,0-6.73-0.94-8.89-2.83
			c-2.13-1.87-3.21-5.15-3.23-9.83l0-25.86c-0.04-20.79-4.04-36.16-12.52-46.12c-8.53-10.01-19.8-15.02-33.8-15.02
			c-8.53,0-15.79,2.27-22.49,5.46c-6.85,3.26-13.52,7.39-20.64,15.28c-1.62-2.72-3.64-4.97-6-7.77
			c-8.49-10.04-21.85-12.97-35.85-12.97c-8.53,0-16.03,1.81-22.49,5.46c-6.47,3.64-11.86,8.72-16.16,15.28v-18.04h-66.8v27.6
			l19.8,4.31v100.46h47v-89.82c2.15-3.15,4.89-5.43,8.21-6.88c3.33-1.43,7.04-2.14,11.18-2.14c6.01,0,10.62,1.76,13.8,5.32
			c3.18,3.55,4.78,10.08,4.78,19.59l0.01,73.93h47v-89.82c2.15-3.15,4.89-5.43,8.21-6.88c3.33-1.43,7.04-2.14,11.18-2.14
			c6.01,0,10.62,1.76,13.8,5.32c3.18,3.55,4.78,10.08,4.78,19.59v25.86c0,17.6,3.97,30.46,11.92,38.58
			c7.95,8.13,19.55,12.19,34.81,12.19c4.4,0,8.66-0.54,12.86-1.01C740.02,239.46,749.22,236.55,753.18,235.21z"/>
	</g>

	<g class="mnl">
		<line x1="184.3" y1="54.71" x2="184.3" y2="238.69"/>
		<line x1="1107.77" y1="73.93" x2="1107.77" y2="238.69"/>
	    <line x1="890.81" y1="106.31" x2="890.81" y2="292.98"/>
		<line x1="1194.37" y1="106.31" x2="1194.37" y2="238.69"/>
		<line x1="1346.15" y1="106.31" x2="1346.15" y2="238.69"/>
		<line x1="1497.93" y1="106.31" x2="1497.93" y2="238.69"/>
		<line x1="1582.91" y1="106.31" x2="1582.91" y2="238.69"/>
		<line x1="1431.13" y1="106.31" x2="1431.13" y2="238.69"/>
		<line x1="1279.35" y1="106.31" x2="1279.35" y2="238.69"/>
		<line x1="251.1" y1="54.71" x2="251.1" y2="238.69"/>
		<line x1="805.83" y1="106.31" x2="805.83" y2="292.98"/>
		<line x1="184.3" y1="106.31" x2="184.3" y2="238.69"/>
		<line x1="1022.79" y1="106.31" x2="1022.79" y2="238.69"/>
		<line x1="634.25" y1="106.31" x2="634.25" y2="238.69"/>
		<line x1="1667.89" y1="73.93" x2="1667.89" y2="238.69"/>
		<line x1="1684.99" y1="106.31" x2="1684.99" y2="238.69"/>
		<line x1="739.03" y1="106.31" x2="739.03" y2="292.98"/>
		<line x1="353.18" y1="106.31" x2="353.18" y2="238.69"/>
		<line x1="482.47" y1="106.31" x2="482.47" y2="238.69"/>
		<line x1="719.23" y1="106.31" x2="719.23" y2="238.69"/>
		<line x1="99.32" y1="106.31" x2="99.32" y2="238.69"/>
        <line x1="137.3" y1="106.31" x2="137.3" y2="238.69"/>
		<line x1="1060.77" y1="73.93" x2="1060.77" y2="238.69"/>
		<line x1="502.27" y1="106.31" x2="502.27" y2="238.69"/>
		<line x1="355.88" y1="106.31" x2="355.88" y2="238.69"/>
		<line x1="758.82" y1="106.31" x2="758.82" y2="292.98"/>
		<line x1="1127.57" y1="106.31" x2="1127.57" y2="238.69"/>
		<line x1="485.17" y1="106.31" x2="485.17" y2="238.69"/>
		<line x1="1384.12" y1="106.31" x2="1384.12" y2="238.69"/>
		<line x1="1346.15" y1="211.69" x2="1535.9" y2="211.69"/>
		<line x1="1535.9" y1="106.31" x2="1535.9" y2="238.69"/>
		<line x1="1346.15" y1="155.62" x2="1535.9" y2="155.62"/>
		<line x1="99.32" y1="211.69" x2="137.3" y2="211.69"/>
		<line x1="1232.34" y1="106.31" x2="1232.34" y2="238.69"/>
		<line x1="1194.37" y1="211.69" x2="1232.34" y2="211.69"/>
		<line x1="1450.92" y1="106.31" x2="1450.92" y2="238.69"/>
		<line x1="672.23" y1="106.31" x2="672.23" y2="238.69"/>
		<line x1="204.1" y1="54.71" x2="204.1" y2="238.69"/>
		<line x1="289.08" y1="54.71" x2="289.08" y2="238.69"/>
		<line x1="843.8" y1="106.31" x2="843.8" y2="292.98"/>
		<line x1="587.25" y1="106.31" x2="587.25" y2="238.69"/>
		<line x1="1620.88" y1="73.93" x2="1620.88" y2="238.69"/>
		<line x1="52.32" y1="241.38" x2="1687.68" y2="241.38"/>
		<line x1="52.32" y1="103.62" x2="1687.68" y2="103.62"/>
		<line x1="52.32" y1="290.29" x2="1687.68" y2="290.29"/>
		<line x1="1346.15" y1="185.31" x2="1535.9" y2="185.31"/>
		<line x1="99.32" y1="133.31" x2="137.3" y2="133.31"/>
		<line x1="1194.37" y1="133.31" x2="1232.34" y2="133.31"/>
		<line x1="1346.15" y1="133.31" x2="1535.9" y2="133.31"/>
		<line x1="1147.36" y1="106.31" x2="1147.36" y2="238.69"/>
		<line x1="1299.14" y1="106.31" x2="1299.14" y2="238.69"/>
        <line x1="549.27" y1="106.31" x2="549.27" y2="238.69"/>
		<line x1="336.08" y1="54.71" x2="336.08" y2="238.69"/>
		<line x1="52.32" y1="54.71" x2="1687.68" y2="54.71"/>
	</g>

	<g class="mjl">
		<line x1="739.03" y1="263.29" x2="890.81" y2="263.29"/>
		<line x1="52.32" y1="238.69" x2="1687.68" y2="238.69"/>
		<line x1="1022.79" y1="73.93" x2="1687.68" y2="73.93"/>
		<line x1="52.32" y1="106.31" x2="1687.68" y2="106.31"/>
		<line x1="1687.68" y1="5.01" x2="1687.68" y2="339.99"/>
		<line x1="52.32" y1="5.01" x2="52.32" y2="339.99"/>
		<line x1="5.31" y1="292.98" x2="1734.69" y2="292.98"/>
		<line x1="5.31" y1="52.02" x2="1734.69" y2="52.02"/>
	</g>

	<g class="d">
		<rect x="5.31" y="5.01" width="46.30" height="46.30"/>
		<rect x="1685.29" y="5.01" width="46.30" height="46.30"/>
		<rect x="5.31" y="293.49" width="46.30" height="46.30"/>
		<rect x="1685.29" y="293.49" width="46.30" height="46.30"/>
	</g>

	<g class="dl">
		<path d="M1213.35,83.82L1213.35,83.82c-19.1,0-30.39,4.51-43.42,12.3c-12.6,7.53-22.86,18.46-31.36,33.4
			c-7.41,13.02-11,27.08-11,42.98c0,15.9,3.6,29.96,11,42.98c8.5,14.95,18.76,25.87,31.36,33.4c13.03,7.79,24.32,12.3,43.42,12.3"/>
		<path d="M1516.92,103.62 M1602.71,141.8c0-9.74-3.36-24.23-19.35-37.93c-7.95-6.81-20.09-15.05-43.59-18.36
			l-0.08-0.01l-0.08-0.01"/>
		<path d="M672.9,103.62 M739.02,164.76c-0.04-26.1-5.69-45.37-17.24-58.95c-12.26-14.38-29.16-21.98-48.87-21.98l0,0"
			/>
		<path d="M739.04,180.26c0.04,26.07,5.68,45.34,17.22,58.93c12.27,14.4,29.17,22,48.89,22"/>
		<rect x="5.31" y="5.01" width="1729.38" height="334.97"/>
	</g>
</g>
</svg>
