<?xml version="1.0" encoding="utf-8"?>
<svg xmlns="http://www.w3.org/2000/svg" viewBox="0 0 950 570">
	<style type="text/css">
		@import url("../../../../styles/logos-draft.css");
		.s{fill:#FB8500}
		svg{
			--draft-color: #000;
			--draft-invert-color: #fff;
		}
		@media (prefers-color-scheme: dark) {
			svg{
				--draft-color: #fff;
				--draft-invert-color: #000;
			}
		}
	</style>

	<defs>
		<pattern id="d" width="6" height="6" patternUnits="userSpaceOnUse"
			patternTransform="rotate(45 50 50)">
			<line class="h" x1="0" y1="0" x2="0" y2="10"></line>
		</pattern>
	</defs>

	<g class="main w">
		<rect class="dl" x="4" y="6.4" width="942" height="557.21" />
		<rect class="bg" x="4" y="6.4" width="942" height="557.21" />

		<g class="logo">
			<g class="s">
				<polygon
					points="158.78,254.04 158.78,261.78 171.88,268.33 145.88,424.3 130.41,432.04 130.41,439.78 158.78,439.78 
		189.74,254.04 	" />
				<path
					d="M362.38,268.33l13.1-6.55v-7.74h-77.39l-30.96,92.87l-30.96-92.87h-30.96l-30.96,185.74h46.43v-7.74
		l-13.1-6.55l18.26-109.54l41.27,123.82h30.96l41.27-123.82l18.26,109.54l-13.1,6.55v7.74h59.33v-7.74l-15.48-7.74L362.38,268.33z"
				/>
				<polygon
					points="362.57,130.22 362.57,137.96 378.05,145.7 404.05,301.67 390.95,308.22 390.95,315.96 421.91,315.96 
		390.95,130.22 	" />
				<path
					d="M576.69,130.22v7.74l13.1,6.55l-18.26,109.54l-41.27-123.82H499.3l-15.48,46.43l-25.79,77.39l-18.26-109.54
		l13.1-6.55v-7.74h-46.43l30.96,185.74h30.96l30.96-92.87l30.96,92.87h77.39v-7.74l-13.1-6.55l26-155.97l0,0l15.48-7.74v-7.74
		L576.69,130.22L576.69,130.22z" />
			</g>

			<path
				d="M600.58,302.36c8.27,0,20.24-10.84,35.89-32.52c-1.14,2.04-1.98,3.59-2.5,4.65c-2.14,4.32-3.21,8.79-3.21,13.4
				c0,4.19,1.15,7.66,3.46,10.38c2.31,2.72,5.27,4.09,8.88,4.09c7.21,0,18.2-9.98,32.97-29.92c-1,3.18-1.51,6.44-1.51,9.78
				c0,5.79,1.51,10.59,4.53,14.41s6.75,5.73,11.2,5.73c7.13,0,18.04-10.4,32.72-31.21c-3.02,5.96-4.53,11.2-4.53,15.73
				c0,4.53,1.21,8.25,3.65,11.14c2.43,2.89,5.58,4.34,9.45,4.34c7.56,0,19.28-10.96,35.15-32.89l5.42-7.43
				c0.76-1.1,1.18-1.77,1.26-2.02c0-0.51-0.25-0.76-0.75-0.76c-0.42,0-0.89,0.42-1.39,1.26c-18.32,26.63-31.3,39.95-38.94,39.95
				c-3.45,0-5.17-1.88-5.17-5.66c0-3.69,4.15-12.62,12.46-26.8c8.22-13.92,28.06-45.89,59.52-95.89c-4.53,0.34-7.13,0.5-7.8,0.5
				c-2.69,0-5.41-0.42-8.18-1.26l-44.92,75.25c1.43-2.94,2.14-5.58,2.14-7.93c0-5.03-2.6-7.55-7.8-7.55
				c-7.81,0-18.55,4.48-32.22,13.46c-10.58,6.92-17.89,14.33-21.96,22.23c-16.38,22.43-27.81,33.65-34.29,33.65
				c-3.2,0-4.79-1.88-4.79-5.66c0-3.35,2.92-10.19,8.75-20.51c5.83-10.32,26.36-44.8,61.6-103.44c-2.68,1.01-5.62,1.51-8.82,1.51
				c-1.93,0-4.15-0.34-6.67-1.01c-10.4,18.54-23.2,40.44-38.38,65.69c-5.37,8.94-9.78,16.34-13.23,22.22
				c-0.4,0.05-0.79,0.45-1.19,1.24c-18.82,26.63-31.96,39.95-39.44,39.95c-3.95,0-5.92-1.88-5.92-5.66c0-3.69,2.06-8.93,6.17-15.73
				l28.57-46.94c-4.11,0.59-7.3,0.88-9.56,0.88c-1.51,0-3.57-0.29-6.17-0.88l-19.63,33.35c-5.79,9.9-8.68,17.29-8.68,22.15
				c0,4.2,1.32,7.7,3.97,10.51S596.63,302.36,600.58,302.36z M702.43,255.62c12.38-15.06,22.34-22.59,29.89-22.59
				c4.11,0,6.17,2.22,6.17,6.67c0,4.61-4.36,13.21-13.09,25.8c-16.36,23.32-27.9,34.98-34.61,34.98c-4.61,0-6.92-2.81-6.92-8.43
				C683.87,282.82,690.05,270.68,702.43,255.62z" />
			<path
				d="M629.76,220.06c2.94,0,5.64-1.28,8.12-3.84c2.47-2.56,3.71-5.3,3.71-8.24c0-3.6-1.8-5.41-5.41-5.41
				c-2.85,0-5.58,1.28-8.18,3.84c-2.6,2.56-3.9,5.22-3.9,7.99C624.1,218.17,625.98,220.06,629.76,220.06z" />
			<path
				d="M629.51,330.24c-2.6,2.56-3.9,5.22-3.9,7.99c0,3.77,1.88,5.66,5.66,5.66c2.94,0,5.64-1.28,8.12-3.84
				c2.47-2.56,3.71-5.3,3.71-8.24c0-3.61-1.8-5.41-5.41-5.41C634.84,326.4,632.11,327.68,629.51,330.24z" />
			<path
				d="M822.17,354.89c-4.19,0.58-7.38,0.88-9.56,0.88c-1.67,0-3.65-0.3-5.92-0.88l-7.05,12.7c0.76-2.09,1.14-3.9,1.14-5.41
				c0-5.53-2.51-8.31-7.55-8.31c-7.22,0-17.16,3.95-29.83,11.84c-13.69,8.54-22.41,17.79-26.21,27.73
				c-14.94,20.57-25.7,30.86-32.27,30.86c-3.45,0-5.17-1.72-5.17-5.16c0-3.27,3.94-10.82,11.83-22.65
				c7.72-11.58,11.58-20.18,11.58-25.8c0-4.45-1.26-8.18-3.78-11.2c-2.51-3.02-5.62-4.53-9.31-4.53c-4.53,0-9.46,2.52-14.79,7.55
				c-5.33,5.03-12.94,14.39-22.84,28.06c6.29-9.56,9.44-17.03,9.44-22.4c0-3.6-1.01-6.71-3.03-9.31c-2.02-2.6-4.45-3.9-7.31-3.9
				c-4.46,0-13.11,8.62-25.97,25.85l-1.83,2.41c-0.28,0.18-0.57,0.54-0.85,1.11c-18.82,26.63-31.96,39.95-39.44,39.95
				c-3.95,0-5.92-1.88-5.92-5.66c0-3.69,2.06-8.93,6.17-15.73l28.57-46.94c-4.11,0.59-7.3,0.88-9.56,0.88c-1.51,0-3.57-0.29-6.17-0.88
				l-16.12,27.39c-0.29,0.21-0.56,0.53-0.8,1.01l-2.27,2.77l-3.9,5.42c-15.12,21.17-25.96,31.76-32.51,31.76
				c-3.61,0-5.42-1.8-5.42-5.41c0-3.1,4.11-10.73,12.33-22.9c7.38-10.9,11.07-19.25,11.07-25.04c0-4.45-1.28-8.22-3.84-11.33
				s-5.64-4.66-9.25-4.66c-9.14,0-21.6,11.7-37.37,35.11c12.49-20.81,19-31.63,19.5-32.47c17.28-27.94,21.75-34.42,30.48-48.43
				c-3.02,0.84-6.21,1.26-9.56,1.26c-1.76,0-3.9-0.26-6.42-0.76l-10.59,17.98c-14.26,24.33-22.77,38.76-25.54,43.29
				c-2.96,5.3-5.47,9.85-7.57,13.68c-18.05,26.45-30.89,39.68-38.5,39.68c-3.95,0-5.92-1.88-5.92-5.66c0-3.44,1.72-8.05,5.16-13.84
				l28.06-47.95h16.49l1.01-1.89v-0.01h-16.51l14.47-24.41c-2.52,0.68-4.95,1.01-7.3,1.01c-2.26,0-4.65-0.34-7.17-1.01l-14.72,24.41
				h-12.58l-1.26,1.89h12.84l-15.88,26.66c-0.21,0.21-0.42,0.48-0.64,0.85c-7.65,11.26-15.17,20.73-22.56,28.42
				s-12.77,11.53-16.13,11.53c-3.27,0-4.91-1.98-4.91-5.92c0-4.11,3.86-12.63,11.58-25.55l22.27-36.87c-3.61,0.59-6.55,0.88-8.81,0.88
				c-1.93,0-4.15-0.29-6.67-0.88l-6.42,12.21c0.67-2.35,1.01-4.23,1.01-5.66c0-5.03-2.6-7.55-7.8-7.55c-6.12,0-14.18,2.76-24.16,8.3
				c-22.73,12.42-34.1,26.68-34.1,42.79c0,5.79,1.51,10.59,4.53,14.41s6.75,5.73,11.2,5.73c4.19,0,8.51-2.06,12.96-6.17
				c4.44-4.1,10.86-12.03,19.25-23.78c-2.69,5.28-4.03,10.19-4.03,14.72c0,4.37,1.21,8,3.65,10.89c2.43,2.89,5.58,4.34,9.45,4.34
				c5.71,0,13.52-5.97,23.43-17.9c3.39-4.01,6.29-7.52,8.74-10.56c-2.51,5.21-3.77,9.7-3.77,13.48c0,4.28,1.32,7.85,3.97,10.7
				c2.65,2.85,5.94,4.28,9.89,4.28c7.65,0,18.91-10.1,33.77-30.3l-16.4,29.66c3.1-0.5,5.57-0.75,7.42-0.75c1.76,0,3.9,0.25,6.42,0.75
				c14.68-26.43,26.22-44.38,34.61-53.86c8.73-9.9,15.61-14.85,20.64-14.85c3.44,0,5.16,1.64,5.16,4.91c0,2.76-5,11.49-14.98,26.17
				c-6.37,9.48-9.56,17.16-9.56,23.03c0,4.37,1.28,8,3.84,10.89s5.86,4.34,9.89,4.34c7.54,0,18.93-10.45,34.15-31.35
				c-3.74,7.17-5.61,12.71-5.61,16.62c0,4.2,1.32,7.7,3.97,10.51s5.94,4.22,9.89,4.22c8.32,0,20.37-10.96,36.16-32.89l5.42-7.43
				c0.11-0.17,0.21-0.3,0.31-0.45c0.34-0.29,0.74-0.75,1.22-1.44c12.61-18.08,21.06-27.12,25.35-27.12c2.1,0,3.15,1.26,3.15,3.78
				c0,4.45-5.58,15.56-16.74,33.35l-19.63,31.08c2.59-0.33,5.36-0.5,8.3-0.5c0.83,0,3.31,0.16,7.42,0.5
				c25.5-45.47,44.24-68.35,56.63-68.21c3.6,0.04,5.41,1.72,5.41,5.16c0,2.76-3.39,9.18-10.19,19.25
				c-6.54,9.56-10.59,15.96-12.14,19.19c-1.56,3.23-2.33,6.73-2.33,10.51c0,4.28,1.28,7.88,3.84,10.82s5.73,4.41,9.51,4.41
				c5.71,0,13.56-5.97,23.56-17.9c3.26-3.89,6.07-7.31,8.46-10.29c-0.54,2.37-0.83,4.77-0.83,7.22c0,5.53,1.52,10.24,4.59,14.09
				c3.06,3.86,6.77,5.79,11.13,5.79c4.02,0,7.95-1.78,11.76-5.35s10.39-11.52,19.7-23.85l-21.4,39.39c-2.44,1.34-7.85,3.94-16.23,7.8
				c-38.84,17.69-58.27,35.15-58.27,52.35c0,3.18,1.19,5.87,3.53,8.05c2.35,2.18,5.32,3.27,8.94,3.27c9.89,0,21.64-5.49,35.23-16.48
				c14.18-11.4,26.97-27.64,38.39-48.7l6.29-11.45c5.24-2.85,10.15-5.83,14.75-8.94l1.72-2.97c-4.48,3.07-9.56,6.2-15.21,9.4
				l31.2-53.86C817.9,361.94,821.59,355.65,822.17,354.89z M426.29,395.48c-14.27,19.21-24.29,28.82-30.08,28.82
				c-4.87,0-7.3-2.73-7.3-8.18c0-9.31,6.27-21.52,18.81-36.62c12.54-15.1,22.67-22.65,30.39-22.65c3.77,0,5.66,2.06,5.66,6.17
				C443.77,368.89,437.94,379.71,426.29,395.48z M758,439.96c-13.16,24.41-24.11,41.33-32.84,50.78
				c-8.73,9.44-17.71,14.15-26.93,14.15c-3.02,0-5.5-0.88-7.43-2.64c-1.92-1.77-2.89-3.95-2.89-6.55c0-15.09,19.12-32.13,57.38-51.09
				c7.89-3.86,12.63-6.25,14.21-7.17L758,439.96z M777,400.82c-11.83,14.93-20.22,22.4-25.17,22.4c-4.87,0-7.29-2.81-7.29-8.43
				c0-9.22,6.23-21.37,18.68-36.43c12.46-15.06,22.46-22.59,30.01-22.59c4.11,0,6.17,2.14,6.17,6.41
				C799.4,369.07,791.94,381.95,777,400.82z" />
		</g>

		<g class="logo-draft">
			<polygon
				points="158.78,254.04 158.78,261.78 171.88,268.33 145.88,424.3 130.41,432.04 130.41,439.78 158.78,439.78 
		189.74,254.04 	" />
			<path
				d="M362.38,268.33l13.1-6.55v-7.74h-77.39l-30.96,92.87l-30.96-92.87h-30.96l-30.96,185.74h46.43v-7.74
		l-13.1-6.55l18.26-109.54l41.27,123.82h30.96l41.27-123.82l18.26,109.54l-13.1,6.55v7.74h59.33v-7.74l-15.48-7.74L362.38,268.33z"
			/>
			<polygon
				points="362.57,130.22 362.57,137.96 378.05,145.7 404.05,301.67 390.95,308.22 390.95,315.96 421.91,315.96 
		390.95,130.22 	" />
			<path
				d="M576.69,130.22v7.74l13.1,6.55l-18.26,109.54l-41.27-123.82H499.3l-15.48,46.43l-25.79,77.39l-18.26-109.54
		l13.1-6.55v-7.74h-46.43l30.96,185.74h30.96l30.96-92.87l30.96,92.87h77.39v-7.74l-13.1-6.55l26-155.97l0,0l15.48-7.74v-7.74
		L576.69,130.22L576.69,130.22z" />

			<path
				d="M600.58,302.36c8.27,0,20.24-10.84,35.89-32.52c-1.14,2.04-1.98,3.59-2.5,4.65c-2.14,4.32-3.21,8.79-3.21,13.4
				c0,4.19,1.15,7.66,3.46,10.38c2.31,2.72,5.27,4.09,8.88,4.09c7.21,0,18.2-9.98,32.97-29.92c-1,3.18-1.51,6.44-1.51,9.78
				c0,5.79,1.51,10.59,4.53,14.41s6.75,5.73,11.2,5.73c7.13,0,18.04-10.4,32.72-31.21c-3.02,5.96-4.53,11.2-4.53,15.73
				c0,4.53,1.21,8.25,3.65,11.14c2.43,2.89,5.58,4.34,9.45,4.34c7.56,0,19.28-10.96,35.15-32.89l5.42-7.43
				c0.76-1.1,1.18-1.77,1.26-2.02c0-0.51-0.25-0.76-0.75-0.76c-0.42,0-0.89,0.42-1.39,1.26c-18.32,26.63-31.3,39.95-38.94,39.95
				c-3.45,0-5.17-1.88-5.17-5.66c0-3.69,4.15-12.62,12.46-26.8c8.22-13.92,28.06-45.89,59.52-95.89c-4.53,0.34-7.13,0.5-7.8,0.5
				c-2.69,0-5.41-0.42-8.18-1.26l-44.92,75.25c1.43-2.94,2.14-5.58,2.14-7.93c0-5.03-2.6-7.55-7.8-7.55
				c-7.81,0-18.55,4.48-32.22,13.46c-10.58,6.92-17.89,14.33-21.96,22.23c-16.38,22.43-27.81,33.65-34.29,33.65
				c-3.2,0-4.79-1.88-4.79-5.66c0-3.35,2.92-10.19,8.75-20.51c5.83-10.32,26.36-44.8,61.6-103.44c-2.68,1.01-5.62,1.51-8.82,1.51
				c-1.93,0-4.15-0.34-6.67-1.01c-10.4,18.54-23.2,40.44-38.38,65.69c-5.37,8.94-9.78,16.34-13.23,22.22
				c-0.4,0.05-0.79,0.45-1.19,1.24c-18.82,26.63-31.96,39.95-39.44,39.95c-3.95,0-5.92-1.88-5.92-5.66c0-3.69,2.06-8.93,6.17-15.73
				l28.57-46.94c-4.11,0.59-7.3,0.88-9.56,0.88c-1.51,0-3.57-0.29-6.17-0.88l-19.63,33.35c-5.79,9.9-8.68,17.29-8.68,22.15
				c0,4.2,1.32,7.7,3.97,10.51S596.63,302.36,600.58,302.36z M702.43,255.62c12.38-15.06,22.34-22.59,29.89-22.59
				c4.11,0,6.17,2.22,6.17,6.67c0,4.61-4.36,13.21-13.09,25.8c-16.36,23.32-27.9,34.98-34.61,34.98c-4.61,0-6.92-2.81-6.92-8.43
				C683.87,282.82,690.05,270.68,702.43,255.62z" />
			<path
				d="M629.76,220.06c2.94,0,5.64-1.28,8.12-3.84c2.47-2.56,3.71-5.3,3.71-8.24c0-3.6-1.8-5.41-5.41-5.41
				c-2.85,0-5.58,1.28-8.18,3.84c-2.6,2.56-3.9,5.22-3.9,7.99C624.1,218.17,625.98,220.06,629.76,220.06z" />
			<path
				d="M629.51,330.24c-2.6,2.56-3.9,5.22-3.9,7.99c0,3.77,1.88,5.66,5.66,5.66c2.94,0,5.64-1.28,8.12-3.84
				c2.47-2.56,3.71-5.3,3.71-8.24c0-3.61-1.8-5.41-5.41-5.41C634.84,326.4,632.11,327.68,629.51,330.24z" />
			<path
				d="M822.17,354.89c-4.19,0.58-7.38,0.88-9.56,0.88c-1.67,0-3.65-0.3-5.92-0.88l-7.05,12.7c0.76-2.09,1.14-3.9,1.14-5.41
				c0-5.53-2.51-8.31-7.55-8.31c-7.22,0-17.16,3.95-29.83,11.84c-13.69,8.54-22.41,17.79-26.21,27.73
				c-14.94,20.57-25.7,30.86-32.27,30.86c-3.45,0-5.17-1.72-5.17-5.16c0-3.27,3.94-10.82,11.83-22.65
				c7.72-11.58,11.58-20.18,11.58-25.8c0-4.45-1.26-8.18-3.78-11.2c-2.51-3.02-5.62-4.53-9.31-4.53c-4.53,0-9.46,2.52-14.79,7.55
				c-5.33,5.03-12.94,14.39-22.84,28.06c6.29-9.56,9.44-17.03,9.44-22.4c0-3.6-1.01-6.71-3.03-9.31c-2.02-2.6-4.45-3.9-7.31-3.9
				c-4.46,0-13.11,8.62-25.97,25.85l-1.83,2.41c-0.28,0.18-0.57,0.54-0.85,1.11c-18.82,26.63-31.96,39.95-39.44,39.95
				c-3.95,0-5.92-1.88-5.92-5.66c0-3.69,2.06-8.93,6.17-15.73l28.57-46.94c-4.11,0.59-7.3,0.88-9.56,0.88c-1.51,0-3.57-0.29-6.17-0.88
				l-16.12,27.39c-0.29,0.21-0.56,0.53-0.8,1.01l-2.27,2.77l-3.9,5.42c-15.12,21.17-25.96,31.76-32.51,31.76
				c-3.61,0-5.42-1.8-5.42-5.41c0-3.1,4.11-10.73,12.33-22.9c7.38-10.9,11.07-19.25,11.07-25.04c0-4.45-1.28-8.22-3.84-11.33
				s-5.64-4.66-9.25-4.66c-9.14,0-21.6,11.7-37.37,35.11c12.49-20.81,19-31.63,19.5-32.47c17.28-27.94,21.75-34.42,30.48-48.43
				c-3.02,0.84-6.21,1.26-9.56,1.26c-1.76,0-3.9-0.26-6.42-0.76l-10.59,17.98c-14.26,24.33-22.77,38.76-25.54,43.29
				c-2.96,5.3-5.47,9.85-7.57,13.68c-18.05,26.45-30.89,39.68-38.5,39.68c-3.95,0-5.92-1.88-5.92-5.66c0-3.44,1.72-8.05,5.16-13.84
				l28.06-47.95h16.49l1.01-1.89v-0.01h-16.51l14.47-24.41c-2.52,0.68-4.95,1.01-7.3,1.01c-2.26,0-4.65-0.34-7.17-1.01l-14.72,24.41
				h-12.58l-1.26,1.89h12.84l-15.88,26.66c-0.21,0.21-0.42,0.48-0.64,0.85c-7.65,11.26-15.17,20.73-22.56,28.42
				s-12.77,11.53-16.13,11.53c-3.27,0-4.91-1.98-4.91-5.92c0-4.11,3.86-12.63,11.58-25.55l22.27-36.87c-3.61,0.59-6.55,0.88-8.81,0.88
				c-1.93,0-4.15-0.29-6.67-0.88l-6.42,12.21c0.67-2.35,1.01-4.23,1.01-5.66c0-5.03-2.6-7.55-7.8-7.55c-6.12,0-14.18,2.76-24.16,8.3
				c-22.73,12.42-34.1,26.68-34.1,42.79c0,5.79,1.51,10.59,4.53,14.41s6.75,5.73,11.2,5.73c4.19,0,8.51-2.06,12.96-6.17
				c4.44-4.1,10.86-12.03,19.25-23.78c-2.69,5.28-4.03,10.19-4.03,14.72c0,4.37,1.21,8,3.65,10.89c2.43,2.89,5.58,4.34,9.45,4.34
				c5.71,0,13.52-5.97,23.43-17.9c3.39-4.01,6.29-7.52,8.74-10.56c-2.51,5.21-3.77,9.7-3.77,13.48c0,4.28,1.32,7.85,3.97,10.7
				c2.65,2.85,5.94,4.28,9.89,4.28c7.65,0,18.91-10.1,33.77-30.3l-16.4,29.66c3.1-0.5,5.57-0.75,7.42-0.75c1.76,0,3.9,0.25,6.42,0.75
				c14.68-26.43,26.22-44.38,34.61-53.86c8.73-9.9,15.61-14.85,20.64-14.85c3.44,0,5.16,1.64,5.16,4.91c0,2.76-5,11.49-14.98,26.17
				c-6.37,9.48-9.56,17.16-9.56,23.03c0,4.37,1.28,8,3.84,10.89s5.86,4.34,9.89,4.34c7.54,0,18.93-10.45,34.15-31.35
				c-3.74,7.17-5.61,12.71-5.61,16.62c0,4.2,1.32,7.7,3.97,10.51s5.94,4.22,9.89,4.22c8.32,0,20.37-10.96,36.16-32.89l5.42-7.43
				c0.11-0.17,0.21-0.3,0.31-0.45c0.34-0.29,0.74-0.75,1.22-1.44c12.61-18.08,21.06-27.12,25.35-27.12c2.1,0,3.15,1.26,3.15,3.78
				c0,4.45-5.58,15.56-16.74,33.35l-19.63,31.08c2.59-0.33,5.36-0.5,8.3-0.5c0.83,0,3.31,0.16,7.42,0.5
				c25.5-45.47,44.24-68.35,56.63-68.21c3.6,0.04,5.41,1.72,5.41,5.16c0,2.76-3.39,9.18-10.19,19.25
				c-6.54,9.56-10.59,15.96-12.14,19.19c-1.56,3.23-2.33,6.73-2.33,10.51c0,4.28,1.28,7.88,3.84,10.82s5.73,4.41,9.51,4.41
				c5.71,0,13.56-5.97,23.56-17.9c3.26-3.89,6.07-7.31,8.46-10.29c-0.54,2.37-0.83,4.77-0.83,7.22c0,5.53,1.52,10.24,4.59,14.09
				c3.06,3.86,6.77,5.79,11.13,5.79c4.02,0,7.95-1.78,11.76-5.35s10.39-11.52,19.7-23.85l-21.4,39.39c-2.44,1.34-7.85,3.94-16.23,7.8
				c-38.84,17.69-58.27,35.15-58.27,52.35c0,3.18,1.19,5.87,3.53,8.05c2.35,2.18,5.32,3.27,8.94,3.27c9.89,0,21.64-5.49,35.23-16.48
				c14.18-11.4,26.97-27.64,38.39-48.7l6.29-11.45c5.24-2.85,10.15-5.83,14.75-8.94l1.72-2.97c-4.48,3.07-9.56,6.2-15.21,9.4
				l31.2-53.86C817.9,361.94,821.59,355.65,822.17,354.89z M426.29,395.48c-14.27,19.21-24.29,28.82-30.08,28.82
				c-4.87,0-7.3-2.73-7.3-8.18c0-9.31,6.27-21.52,18.81-36.62c12.54-15.1,22.67-22.65,30.39-22.65c3.77,0,5.66,2.06,5.66,6.17
				C443.77,368.89,437.94,379.71,426.29,395.48z M758,439.96c-13.16,24.41-24.11,41.33-32.84,50.78
				c-8.73,9.44-17.71,14.15-26.93,14.15c-3.02,0-5.5-0.88-7.43-2.64c-1.92-1.77-2.89-3.95-2.89-6.55c0-15.09,19.12-32.13,57.38-51.09
				c7.89-3.86,12.63-6.25,14.21-7.17L758,439.96z M777,400.82c-11.83,14.93-20.22,22.4-25.17,22.4c-4.87,0-7.29-2.81-7.29-8.43
				c0-9.22,6.23-21.37,18.68-36.43c12.46-15.06,22.46-22.59,30.01-22.59c4.11,0,6.17,2.14,6.17,6.41
				C799.4,369.07,791.94,381.95,777,400.82z" />

		</g>

		<g class="mjl">
			<line x1="4" y1="439.78" x2="946" y2="439.78" />
			<line x1="4" y1="254.04" x2="946" y2="254.04" />
			<line x1="4" y1="130.22" x2="946" y2="130.22" />
			<line x1="4" y1="315.96" x2="946" y2="315.96" />
			<line x1="128.06" y1="300.48" x2="946" y2="300.48" />
			<line x1="128.06" y1="424.3" x2="946" y2="424.3" />
			<line x1="127.83" y1="6.4" x2="127.83" y2="563.6" />
			<line x1="822.17" y1="6.4" x2="822.17" y2="563.6" />
		</g>

		<g class="mnl">
			<line x1="130.41" y1="432.04" x2="403.85" y2="432.04" />
			<line x1="158.78" y1="261.78" x2="374.97" y2="261.78" />
			<line x1="390.95" y1="308.22" x2="607.64" y2="308.22" />

			<line x1="4" y1="501.69" x2="946" y2="501.69" />
			<line x1="4" y1="68.31" x2="946" y2="68.31" />

			<line x1="362.57" y1="137.96" x2="636.02" y2="137.96" />

			<line x1="65.91" y1="6.4" x2="65.91" y2="563.6" />
			<line x1="884.09" y1="6.4" x2="884.09" y2="563.6" />

			<line x1="127.83" y1="145.70" x2="638.6" y2="145.7" />
			<line x1="127.83" y1="161.18" x2="638.6" y2="161.18" />
			<line x1="127.83" y1="176.65" x2="638.6" y2="176.65" />
			<line x1="127.83" y1="192.13" x2="638.6" y2="192.13" />
			<line x1="127.83" y1="207.61" x2="638.6" y2="207.61" />
			<line x1="127.83" y1="223.09" x2="638.6" y2="223.09" />
			<line x1="127.83" y1="238.57" x2="638.6" y2="238.57" />
			<line x1="127.83" y1="269.52" x2="638.6" y2="269.52" />
			<line x1="127.83" y1="285.00" x2="638.6" y2="285" />
			<line x1="127.83" y1="331.43" x2="638.6" y2="331.43" />
			<line x1="127.83" y1="346.91" x2="638.6" y2="346.91" />
			<line x1="127.83" y1="362.39" x2="638.6" y2="362.39" />
			<line x1="127.83" y1="377.87" x2="638.6" y2="377.87" />
			<line x1="127.83" y1="393.35" x2="638.6" y2="393.35" />
			<line x1="127.83" y1="408.82" x2="638.6" y2="408.82" />

			<line x1="158.78" y1="130.22" x2="158.78" y2="439.78" />
			<line x1="143.30" y1="130.22" x2="143.30" y2="439.78" />
			<line x1="174.26" y1="130.22" x2="174.26" y2="439.78" />
			<line x1="189.74" y1="130.22" x2="189.74" y2="439.78" />
			<line x1="205.22" y1="130.22" x2="205.22" y2="439.78" />
			<line x1="220.69" y1="130.22" x2="220.69" y2="439.78" />
			<line x1="236.17" y1="130.22" x2="236.17" y2="439.78" />
			<line x1="251.65" y1="130.22" x2="251.65" y2="439.78" />
			<line x1="267.13" y1="130.22" x2="267.13" y2="439.78" />
			<line x1="282.61" y1="130.22" x2="282.61" y2="439.78" />
			<line x1="298.08" y1="130.22" x2="298.08" y2="439.78" />
			<line x1="313.56" y1="130.22" x2="313.56" y2="439.78" />
			<line x1="329.04" y1="130.22" x2="329.04" y2="439.78" />
			<line x1="344.52" y1="130.22" x2="344.52" y2="439.78" />
			<line x1="360.00" y1="130.22" x2="360.00" y2="439.78" />
			<line x1="375.47" y1="130.22" x2="375.47" y2="439.78" />
			<line x1="390.95" y1="130.22" x2="390.95" y2="439.78" />
			<line x1="406.43" y1="130.22" x2="406.43" y2="439.78" />
			<line x1="421.91" y1="130.22" x2="421.91" y2="439.78" />
			<line x1="437.39" y1="130.22" x2="437.39" y2="439.78" />
			<line x1="452.86" y1="130.22" x2="452.86" y2="439.78" />
			<line x1="468.34" y1="130.22" x2="468.34" y2="439.78" />
			<line x1="483.82" y1="130.22" x2="483.82" y2="439.78" />
			<line x1="499.30" y1="130.22" x2="499.30" y2="439.78" />
			<line x1="514.77" y1="130.22" x2="514.77" y2="439.78" />
			<line x1="530.25" y1="130.22" x2="530.25" y2="439.78" />
			<line x1="545.73" y1="130.22" x2="545.73" y2="439.78" />
			<line x1="561.21" y1="130.22" x2="561.21" y2="439.78" />
			<line x1="576.69" y1="130.22" x2="576.69" y2="439.78" />
			<line x1="592.16" y1="130.22" x2="592.16" y2="439.78" />
			<line x1="607.64" y1="130.22" x2="607.64" y2="439.78" />
			<line x1="623.12" y1="130.22" x2="623.12" y2="439.78" />
			<line x1="638.60" y1="130.22" x2="638.60" y2="439.78" />
		</g>
	</g>
</svg>