<?xml version="1.0" encoding="utf-8"?>
<svg xmlns="http://www.w3.org/2000/svg" viewBox="0 0 890 420">
  <style type="text/css">
    @import url("../../../../styles/logos-draft.css");
    .s0{fill:#FF6433;}
    .s1{fill:#FF4267;}
    .s2{fill:#414271;}
    .s3{fill:#9943E2;}
    .s4{fill:#1BCEC4;}
    .s5{fill:#5646FF;}
    .s6{fill:#FF9E33;}
  </style>

  <defs>
    <pattern id="d" width="6" height="6" patternUnits="userSpaceOnUse"
      patternTransform="rotate(45 50 50)">
      <line class="h" x1="0" y1="0" x2="0" y2="10"></line>
    </pattern>
  </defs>

  <g class="main w">
    <rect class="bg" x="10.26" y="10" width="869.48" height="400" />
    <rect class="dl" x="10.26" y="10" width="869.48" height="400" />

    <g class="mnl">
      <circle cx="110.26" cy="110" r="100" />
      <circle cx="110.26" cy="310" r="100" />
      <line x1="10.26" y1="210" x2="879.74" y2="210" />
      <line x1="360.26" y1="10" x2="360.26" y2="410" />
      <line x1="310.26" y1="185" x2="879.74" y2="185" />
      <line x1="310.26" y1="135" x2="879.74" y2="135" />
      <line x1="210.26" y1="10" x2="210.26" y2="410" />
    </g>

    <g class="mjl">
      <line x1="310.26" y1="10" x2="310.26" y2="410" />
      <line x1="779.74" y1="10" x2="779.74" y2="410" />
      <line x1="110.26" y1="10" x2="110.26" y2="410" />
      <line x1="10.26" y1="110" x2="879.74" y2="110" />
      <line x1="10.26" y1="310" x2="879.74" y2="310" />
    </g>

    <g class="logo-draft">
      <path d="M210.26,110v100h-100C165.49,210,210.26,165.23,210.26,110z" />
      <rect x="210.26" y="110" width="100" height="50" />
      <rect x="210.26" y="160" width="100" height="50" />
      <rect x="210.26" y="210" width="100" height="100" />
      <path d="M210.26,110c0,55.23-44.77,100-100,100V110H210.26z" />
      <path d="M110.26,210h100v100C210.26,254.77,165.49,210,110.26,210z" />
      <path d="M110.26,210c55.23,0,100,44.77,100,100h-100V210z" />

      <g>
        <path
          d="M398.27,184.71V185h-10.22l-19.12-22.35V185h-8.68v-50h8.68v22.43L386.88,135h9.85v0.22l-19.71,24.56L398.27,184.71z" />
        <path d="M404.82,135h31.25v8.01h-22.57v14.41h20.22v7.79h-20.22V185h-8.68V135z" />
        <path
          d="M468.9,153.6c2.38,1.47,4.24,3.51,5.59,6.1c1.35,2.6,2.02,5.51,2.02,8.75c0,3.38-0.67,6.39-2.02,9.01
		c-1.35,2.62-3.21,4.67-5.59,6.14c-2.38,1.47-5.06,2.21-8.05,2.21c-2.21,0-4.25-0.4-6.14-1.21c-1.89-0.81-3.52-1.92-4.89-3.35
		c0.1,1.52,0.15,4.12,0.15,7.79v12.13h-8.01v-48.97h5.44l1.54,5c1.37-1.86,3.08-3.3,5.11-4.3c2.03-1,4.3-1.51,6.8-1.51
		C463.84,151.4,466.52,152.13,468.9,153.6z M465.81,175.99c1.69-1.89,2.54-4.33,2.54-7.32c0-3.04-0.85-5.5-2.54-7.39
		c-1.69-1.89-3.91-2.83-6.65-2.83c-2.84,0-5.14,0.93-6.87,2.79c-1.74,1.86-2.61,4.29-2.61,7.28c0,3.09,0.88,5.58,2.65,7.46
		c1.76,1.89,4.04,2.83,6.84,2.83C461.9,178.82,464.12,177.88,465.81,175.99z" />
        <path
          d="M506.14,152.87l-2.06,6.76c-1.37-0.49-2.79-0.74-4.26-0.74c-2.35,0-4.24,0.74-5.66,2.21c-1.42,1.47-2.13,3.48-2.13,6.03
		V185h-8.01v-32.79h5.44l1.54,4.85c0.93-1.81,2.21-3.2,3.82-4.15c1.62-0.96,3.5-1.43,5.66-1.43
		C502.64,151.47,504.52,151.94,506.14,152.87z" />
        <path
          d="M516.25,183.75c-2.67-1.47-4.76-3.53-6.25-6.18c-1.5-2.65-2.24-5.64-2.24-8.97c0-3.33,0.75-6.31,2.24-8.93
		c1.49-2.62,3.58-4.67,6.25-6.14c2.67-1.47,5.7-2.21,9.08-2.21c3.38,0,6.42,0.74,9.12,2.21c2.7,1.47,4.79,3.52,6.29,6.14
		c1.5,2.62,2.24,5.6,2.24,8.93c0,3.33-0.75,6.32-2.24,8.97c-1.5,2.65-3.59,4.71-6.29,6.18c-2.7,1.47-5.74,2.21-9.12,2.21
		C521.95,185.96,518.92,185.22,516.25,183.75z M532.21,175.99c1.74-1.89,2.61-4.35,2.61-7.39c0-3.04-0.87-5.5-2.61-7.39
		c-1.74-1.89-4.03-2.83-6.87-2.83c-2.79,0-5.07,0.96-6.84,2.87c-1.76,1.91-2.65,4.36-2.65,7.35c0,2.99,0.88,5.44,2.65,7.35
		c1.76,1.91,4.04,2.87,6.84,2.87C528.17,178.82,530.47,177.88,532.21,175.99z" />
        <path
          d="M582.98,132.06V185h-5.51l-1.4-4.93c-1.37,1.81-3.05,3.22-5.04,4.23c-1.99,1-4.25,1.51-6.8,1.51
		c-3.09,0-5.83-0.74-8.24-2.21c-2.4-1.47-4.26-3.52-5.59-6.14c-1.32-2.62-1.99-5.65-1.99-9.08c0-3.23,0.67-6.15,2.02-8.75
		c1.35-2.6,3.22-4.62,5.63-6.07c2.4-1.45,5.12-2.17,8.16-2.17c2.21,0,4.26,0.42,6.18,1.25c1.91,0.83,3.5,1.99,4.78,3.46
		c-0.15-3.04-0.22-6.18-0.22-9.41v-14.63H582.98z M572.68,176.03c1.71-1.86,2.57-4.34,2.57-7.43c0-3.04-0.86-5.49-2.57-7.35
		c-1.72-1.86-4-2.79-6.84-2.79c-2.79,0-5.05,0.93-6.76,2.79c-1.72,1.86-2.57,4.31-2.57,7.35c0,3.04,0.86,5.5,2.57,7.39
		c1.71,1.89,3.97,2.83,6.76,2.83C568.69,178.82,570.97,177.89,572.68,176.03z" />
        <path
          d="M621.43,152.21V185h-5.59l-1.62-5c-1.13,1.76-2.59,3.15-4.38,4.15c-1.79,1-3.81,1.51-6.07,1.51
		c-3.87,0-6.81-1.16-8.82-3.49c-2.01-2.33-3.01-5.55-3.01-9.67v-20.29h8.09v19.56c0,4.46,1.91,6.69,5.74,6.69
		c2.4,0,4.28-0.88,5.62-2.65c1.35-1.76,2.02-3.97,2.02-6.62v-16.99H621.43z" />
        <path
          d="M637.5,183.93c-2.57-1.35-4.67-3.33-6.29-5.96c-1.62-2.62-2.43-5.75-2.43-9.38c0-3.48,0.77-6.53,2.32-9.15
		c1.54-2.62,3.64-4.63,6.29-6.03c2.65-1.4,5.54-2.1,8.68-2.1c4.75,0,8.82,1.47,12.21,4.41l-3.9,5.37c-1.18-0.98-2.37-1.69-3.57-2.13
		c-1.2-0.44-2.59-0.66-4.15-0.66c-2.79,0-5.12,0.94-6.99,2.83c-1.86,1.89-2.79,4.37-2.79,7.46c0,3.14,0.92,5.64,2.76,7.5
		c1.84,1.86,4.13,2.79,6.88,2.79c1.71,0,3.23-0.27,4.56-0.81c1.32-0.54,2.6-1.4,3.82-2.57l4.04,5.37c-1.91,1.76-3.89,3.05-5.92,3.86
		c-2.03,0.81-4.47,1.21-7.32,1.21C642.8,185.96,640.07,185.28,637.5,183.93z" />
        <path
          d="M669.78,183.05c-1.74-1.79-2.61-4.47-2.61-8.05v-15.96l-5.81-0.44v-6.4h5.81l0.22-10.51h7.79v10.51h10.15v6.84h-10.15
		v15.15c0,1.52,0.31,2.6,0.92,3.24c0.61,0.64,1.51,0.96,2.68,0.96c1.91,0,3.75-0.56,5.51-1.69l2.57,6.03
		c-3.19,2.01-6.5,3.01-9.93,3.01C673.91,185.74,671.52,184.84,669.78,183.05z" />
        <path
          d="M692.57,144.01c-0.91-0.91-1.36-2.05-1.36-3.42c0-1.37,0.45-2.51,1.36-3.42c0.91-0.91,2.12-1.36,3.64-1.36
		c1.52,0,2.73,0.47,3.64,1.4c0.91,0.93,1.36,2.08,1.36,3.46c0,1.32-0.47,2.44-1.4,3.35c-0.93,0.91-2.13,1.36-3.6,1.36
		C694.69,145.37,693.48,144.91,692.57,144.01z M692.17,152.21h8.01V185h-8.01V152.21z" />
        <path
          d="M716.03,183.75c-2.67-1.47-4.76-3.53-6.25-6.18c-1.5-2.65-2.24-5.64-2.24-8.97c0-3.33,0.75-6.31,2.24-8.93
		c1.49-2.62,3.58-4.67,6.25-6.14c2.67-1.47,5.7-2.21,9.08-2.21c3.38,0,6.42,0.74,9.12,2.21c2.7,1.47,4.79,3.52,6.29,6.14
		c1.49,2.62,2.24,5.6,2.24,8.93c0,3.33-0.75,6.32-2.24,8.97c-1.5,2.65-3.59,4.71-6.29,6.18c-2.7,1.47-5.74,2.21-9.12,2.21
		C721.73,185.96,718.7,185.22,716.03,183.75z M731.98,175.99c1.74-1.89,2.61-4.35,2.61-7.39c0-3.04-0.87-5.5-2.61-7.39
		c-1.74-1.89-4.03-2.83-6.87-2.83c-2.79,0-5.07,0.96-6.84,2.87c-1.76,1.91-2.65,4.36-2.65,7.35c0,2.99,0.88,5.44,2.65,7.35
		c1.76,1.91,4.04,2.87,6.84,2.87C727.95,178.82,730.24,177.88,731.98,175.99z" />
        <path
          d="M776.76,154.74c1.99,2.28,2.98,5.53,2.98,9.74V185h-8.01v-19.78c0-4.46-1.86-6.69-5.59-6.69c-2.45,0-4.4,0.78-5.85,2.35
		c-1.45,1.57-2.17,3.6-2.17,6.1V185h-8.01v-32.79h5.44l1.62,5.15c1.18-1.81,2.68-3.27,4.52-4.37c1.84-1.1,4.01-1.65,6.51-1.65
		C771.92,151.32,774.78,152.46,776.76,154.74z" />
      </g>

    </g>

    <g class="logo">
      <path class="s1" d="M210.26,110v100h-100C165.49,210,210.26,165.23,210.26,110z" />
      <rect class="s2" x="210.26" y="110" width="100" height="50" />
      <rect class="s0" x="210.26" y="160" width="100" height="50" />
      <rect class="s3" x="210.26" y="210" width="100" height="100" />
      <path class="s4" d="M210.26,110c0,55.23-44.77,100-100,100V110H210.26z" />
      <path class="s5" d="M110.26,210h100v100C210.26,254.77,165.49,210,110.26,210z" />
      <path class="s6" d="M110.26,210c55.23,0,100,44.77,100,100h-100V210z" />

      <g>
        <path
          d="M398.27,184.71V185h-10.22l-19.12-22.35V185h-8.68v-50h8.68v22.43L386.88,135h9.85v0.22l-19.71,24.56
			L398.27,184.71z" />
        <path d="M404.82,135h31.25v8.01h-22.57v14.41h20.22v7.79h-20.22V185h-8.68V135z" />
        <path
          d="M468.9,153.6c2.38,1.47,4.24,3.51,5.59,6.1c1.35,2.6,2.02,5.51,2.02,8.75c0,3.38-0.67,6.39-2.02,9.01
			c-1.35,2.62-3.21,4.67-5.59,6.14c-2.38,1.47-5.06,2.21-8.05,2.21c-2.21,0-4.25-0.4-6.14-1.21c-1.89-0.81-3.52-1.92-4.89-3.35
			c0.1,1.52,0.15,4.12,0.15,7.79v12.13h-8.01v-48.97h5.44l1.54,5c1.37-1.86,3.08-3.3,5.11-4.3c2.03-1,4.3-1.51,6.8-1.51
			C463.84,151.4,466.52,152.13,468.9,153.6z M465.81,175.99c1.69-1.89,2.54-4.33,2.54-7.32c0-3.04-0.85-5.5-2.54-7.39
			c-1.69-1.89-3.91-2.83-6.65-2.83c-2.84,0-5.14,0.93-6.87,2.79c-1.74,1.86-2.61,4.29-2.61,7.28c0,3.09,0.88,5.58,2.65,7.46
			c1.76,1.89,4.04,2.83,6.84,2.83C461.9,178.82,464.12,177.88,465.81,175.99z" />
        <path
          d="M506.14,152.87l-2.06,6.76c-1.37-0.49-2.79-0.74-4.26-0.74c-2.35,0-4.24,0.74-5.66,2.21
			c-1.42,1.47-2.13,3.48-2.13,6.03V185h-8.01v-32.79h5.44l1.54,4.85c0.93-1.81,2.21-3.2,3.82-4.15c1.62-0.96,3.5-1.43,5.66-1.43
			C502.64,151.47,504.52,151.94,506.14,152.87z" />
        <path
          d="M516.25,183.75c-2.67-1.47-4.76-3.53-6.25-6.18c-1.5-2.65-2.24-5.64-2.24-8.97c0-3.33,0.75-6.31,2.24-8.93
			c1.49-2.62,3.58-4.67,6.25-6.14c2.67-1.47,5.7-2.21,9.08-2.21c3.38,0,6.42,0.74,9.12,2.21c2.7,1.47,4.79,3.52,6.29,6.14
			c1.5,2.62,2.24,5.6,2.24,8.93c0,3.33-0.75,6.32-2.24,8.97c-1.5,2.65-3.59,4.71-6.29,6.18c-2.7,1.47-5.74,2.21-9.12,2.21
			C521.95,185.96,518.92,185.22,516.25,183.75z M532.21,175.99c1.74-1.89,2.61-4.35,2.61-7.39c0-3.04-0.87-5.5-2.61-7.39
			c-1.74-1.89-4.03-2.83-6.87-2.83c-2.79,0-5.07,0.96-6.84,2.87c-1.76,1.91-2.65,4.36-2.65,7.35c0,2.99,0.88,5.44,2.65,7.35
			c1.76,1.91,4.04,2.87,6.84,2.87C528.17,178.82,530.47,177.88,532.21,175.99z" />
        <path
          d="M582.98,132.06V185h-5.51l-1.4-4.93c-1.37,1.81-3.05,3.22-5.04,4.23c-1.99,1-4.25,1.51-6.8,1.51
			c-3.09,0-5.83-0.74-8.24-2.21c-2.4-1.47-4.26-3.52-5.59-6.14c-1.32-2.62-1.99-5.65-1.99-9.08c0-3.23,0.67-6.15,2.02-8.75
			c1.35-2.6,3.22-4.62,5.63-6.07c2.4-1.45,5.12-2.17,8.16-2.17c2.21,0,4.26,0.42,6.18,1.25c1.91,0.83,3.5,1.99,4.78,3.46
			c-0.15-3.04-0.22-6.18-0.22-9.41v-14.63H582.98z M572.68,176.03c1.71-1.86,2.57-4.34,2.57-7.43c0-3.04-0.86-5.49-2.57-7.35
			c-1.72-1.86-4-2.79-6.84-2.79c-2.79,0-5.05,0.93-6.76,2.79c-1.72,1.86-2.57,4.31-2.57,7.35c0,3.04,0.86,5.5,2.57,7.39
			c1.71,1.89,3.97,2.83,6.76,2.83C568.69,178.82,570.97,177.89,572.68,176.03z" />
        <path
          d="M621.43,152.21V185h-5.59l-1.62-5c-1.13,1.76-2.59,3.15-4.38,4.15c-1.79,1-3.81,1.51-6.07,1.51
			c-3.87,0-6.81-1.16-8.82-3.49c-2.01-2.33-3.01-5.55-3.01-9.67v-20.29h8.09v19.56c0,4.46,1.91,6.69,5.74,6.69
			c2.4,0,4.28-0.88,5.62-2.65c1.35-1.76,2.02-3.97,2.02-6.62v-16.99H621.43z" />
        <path
          d="M637.5,183.93c-2.57-1.35-4.67-3.33-6.29-5.96c-1.62-2.62-2.43-5.75-2.43-9.38c0-3.48,0.77-6.53,2.32-9.15
			c1.54-2.62,3.64-4.63,6.29-6.03c2.65-1.4,5.54-2.1,8.68-2.1c4.75,0,8.82,1.47,12.21,4.41l-3.9,5.37c-1.18-0.98-2.37-1.69-3.57-2.13
			c-1.2-0.44-2.59-0.66-4.15-0.66c-2.79,0-5.12,0.94-6.99,2.83c-1.86,1.89-2.79,4.37-2.79,7.46c0,3.14,0.92,5.64,2.76,7.5
			c1.84,1.86,4.13,2.79,6.88,2.79c1.71,0,3.23-0.27,4.56-0.81c1.32-0.54,2.6-1.4,3.82-2.57l4.04,5.37c-1.91,1.76-3.89,3.05-5.92,3.86
			c-2.03,0.81-4.47,1.21-7.32,1.21C642.8,185.96,640.07,185.28,637.5,183.93z" />
        <path
          d="M669.78,183.05c-1.74-1.79-2.61-4.47-2.61-8.05v-15.96l-5.81-0.44v-6.4h5.81l0.22-10.51h7.79v10.51h10.15v6.84
			h-10.15v15.15c0,1.52,0.31,2.6,0.92,3.24c0.61,0.64,1.51,0.96,2.68,0.96c1.91,0,3.75-0.56,5.51-1.69l2.57,6.03
			c-3.19,2.01-6.5,3.01-9.93,3.01C673.91,185.74,671.52,184.84,669.78,183.05z" />
        <path
          d="M692.57,144.01c-0.91-0.91-1.36-2.05-1.36-3.42c0-1.37,0.45-2.51,1.36-3.42c0.91-0.91,2.12-1.36,3.64-1.36
			c1.52,0,2.73,0.47,3.64,1.4c0.91,0.93,1.36,2.08,1.36,3.46c0,1.32-0.47,2.44-1.4,3.35c-0.93,0.91-2.13,1.36-3.6,1.36
			C694.69,145.37,693.48,144.91,692.57,144.01z M692.17,152.21h8.01V185h-8.01V152.21z" />
        <path
          d="M716.03,183.75c-2.67-1.47-4.76-3.53-6.25-6.18c-1.5-2.65-2.24-5.64-2.24-8.97c0-3.33,0.75-6.31,2.24-8.93
			c1.49-2.62,3.58-4.67,6.25-6.14c2.67-1.47,5.7-2.21,9.08-2.21c3.38,0,6.42,0.74,9.12,2.21c2.7,1.47,4.79,3.52,6.29,6.14
			c1.49,2.62,2.24,5.6,2.24,8.93c0,3.33-0.75,6.32-2.24,8.97c-1.5,2.65-3.59,4.71-6.29,6.18c-2.7,1.47-5.74,2.21-9.12,2.21
			C721.73,185.96,718.7,185.22,716.03,183.75z M731.98,175.99c1.74-1.89,2.61-4.35,2.61-7.39c0-3.04-0.87-5.5-2.61-7.39
			c-1.74-1.89-4.03-2.83-6.87-2.83c-2.79,0-5.07,0.96-6.84,2.87c-1.76,1.91-2.65,4.36-2.65,7.35c0,2.99,0.88,5.44,2.65,7.35
			c1.76,1.91,4.04,2.87,6.84,2.87C727.95,178.82,730.24,177.88,731.98,175.99z" />
        <path
          d="M776.76,154.74c1.99,2.28,2.98,5.53,2.98,9.74V185h-8.01v-19.78c0-4.46-1.86-6.69-5.59-6.69
			c-2.45,0-4.4,0.78-5.85,2.35c-1.45,1.57-2.17,3.6-2.17,6.1V185h-8.01v-32.79h5.44l1.62,5.15c1.18-1.81,2.68-3.27,4.52-4.37
			c1.84-1.1,4.01-1.65,6.51-1.65C771.92,151.32,774.78,152.46,776.76,154.74z" />
      </g>
    </g>
  </g>
</svg>