<svg xmlns="http://www.w3.org/2000/svg" viewBox="0 0 76 76">
<style type="text/css">
    path{fill:#952D27;}
	@media (prefers-color-scheme: dark){path{fill:#EEEAE0}}
</style>
<path d="M56.8,31.5c-2.3-0.5-4.9-0.5-7.3-0.8c-2.6-0.3-5.2-0.5-7.7-0.8c-0.3,0-0.6-0.1-0.9-0.1
c3.3-4.9,6.6-9.8,9.8-14.7c0.6-0.9,0.2-2.3-0.7-2.8c-1-0.6-2.2-0.2-2.8,0.7c-3.6,5.4-7.3,10.9-10.9,16.3c-3.3-0.3-6.7-0.7-10-1
c-2.6-0.3-2.6,3.8,0,4.1c7.3,0.7,14.7,1.5,22,2.2c1.8,0.2,3.6,0.4,5.4,0.5c0.4,0,0.8,0.1,1.2,0.1c0.2,0,0.2,0,0.4,0
c-0.5,0.6-1.2,1-1.8,1.5c-2.2,1.9-4.2,4.1-6,6.4c-1.8,2.4-3.5,4.9-4.8,7.6c-0.6,1.3-1.2,2.6-1.8,3.9c-0.5,1.3-0.8,3.1-1.5,4.4
c-0.5,0.9-1,0.7-2,0.6c-0.9-0.1-1.7-0.2-2.6-0.4c-1.7-0.2-3.5-0.5-5.2-0.8s-3.5-0.5-5.2-0.8c-0.9-0.1-1.7-0.2-2.6-0.4
c-0.9-0.1-1.4-0.1-1.4-1.1c0.3-8.2,1.2-16.5,1.8-24.8c0.2-2.6-3.9-2.6-4.1,0c-0.3,4.6-0.7,9.2-1,13.8c-0.2,2.2-0.3,4.3-0.5,6.5
c-0.1,2-0.6,4.2-0.2,6.1c0.8,4,5.9,3.6,9,4.1c4.3,0.6,8.7,1.7,13,1.9c4.2,0.2,4.7-4.2,5.9-7.2c1.3-3.5,3.1-6.7,5.2-9.8
c2.2-3,4.8-5.7,7.6-8.1c1.2-1,2.3-2.2,2.3-3.8C59.7,33.3,58.5,31.9,56.8,31.5z"/>
</svg>