<svg xmlns="http://www.w3.org/2000/svg" viewBox="0 0 76 76">
<style type="text/css">
    path{fill:#952D27;}
	@media (prefers-color-scheme: dark){path{fill:#EEEAE0}}
</style>
<path d="M44.8,47.2c-1.1-2.3-1.5-4.8-2.8-6.9c-1.6-2.7-4.5-4.2-7.7-3.4c-3.3,0.8-5.6,3.6-8.4,5.4
	c-2.4,1.4-5.2,2.2-7.1,4.2c-2.2,2.3-2.4,5.6-0.8,8.3c1.9,3.1,5.3,3.6,8.6,3.5c1.6,0,3.2-0.3,4.8,0.2c1.5,0.4,2.8,1.5,4.1,2.3
	c2.6,1.9,5.6,3.5,8.8,2.2c3-1.2,5.3-4.5,4.7-7.8C48.6,52,46.1,50,44.8,47.2z M44.1,58.3c-2,2-4.1,0.6-6-0.7c-2.1-1.5-4.1-3-6.7-3.3
	c-2.6-0.4-5.3,0.3-7.8-0.2c-2.1-0.4-3.5-2.9-1.9-4.7c1.6-1.7,4.3-2.4,6.3-3.5c2-1.2,3.7-2.9,5.7-4.2c1.5-0.9,3.2-1.4,4.4,0.1
	c1.2,1.4,1.6,3.4,2.3,5.1c0.8,2.2,1.8,3.9,3.2,5.8C44.7,54.5,46,56.4,44.1,58.3z"/>
<path d="M67.2,41.3c-0.4-1.6-1.5-3.1-3-3.8c-1.6-0.8-3.3-1-5.1-0.8c-3.7,0.5-7.3,2.9-9.2,6.2c-1.7,3.1-1.6,7,1.5,9.2
	c3.4,2.4,8.3,0.9,11.3-1.3c0.1,0,0.1-0.1,0.2-0.2c0.1,0,0.2-0.1,0.2-0.1C65.9,48.4,68,44.9,67.2,41.3z M58.5,48.6
	c-0.1,0-0.2,0.1-0.2,0.1c-0.4,0.1-0.8,0.3-1.2,0.3c-0.2,0-0.3,0.1-0.4,0.1c-0.1,0-0.1,0-0.1,0c0,0,0,0-0.1,0c-0.3,0-0.6,0-0.9,0
	c-0.2,0-0.3,0-0.5,0c-0.3-0.1-0.6-0.2-0.9-0.2l0,0c-0.1-0.1-0.3-0.1-0.4-0.2c0,0-0.1,0-0.1-0.1c-0.1,0-0.2-0.1-0.2-0.1
	c-0.1-0.1-0.1-0.1-0.2-0.2c0,0-0.1-0.1-0.1-0.1c-0.1-0.1-0.1-0.2-0.2-0.3c0,0,0-0.1-0.1-0.2c0-0.1-0.1-0.2-0.1-0.3c0,0,0-0.1,0-0.1
	c0-0.1,0-0.5,0-0.6c0,0,0,0,0,0c0,0,0,0,0,0c0-0.1,0.1-0.2,0.1-0.4c0-0.1,0.1-0.2,0.1-0.4c0-0.1,0.1-0.3,0.1-0.4
	c0.2-0.5,0.5-1,0.8-1.4c0.1-0.1,0-0.1,0.1-0.1c0,0,0,0,0.1-0.1c0.1-0.1,0.2-0.3,0.4-0.4c0.3-0.3,0.6-0.6,0.9-0.8
	c0.3-0.3,0.8-0.6,1.5-1c0.2-0.1,0.3-0.2,0.5-0.3c0,0,0.2-0.1,0.3-0.1c0.3-0.1,0.7-0.2,1-0.3c0.3-0.1,0.6-0.1,0.9-0.2
	c0.1,0,0.1,0,0.1,0s0,0,0.1,0c0.1,0,0.3,0,0.4,0c0.3,0,0.6,0,0.9,0c0,0,0,0,0,0c0.2,0,0.4,0.1,0.5,0.1c0.1,0,0.3,0.1,0.4,0.1
	c0.1,0.1,0.2,0.1,0.4,0.2c0,0,0.1,0,0.1,0.1c0.1,0.1,0.2,0.1,0.2,0.1c0.1,0.1,0.1,0.1,0.2,0.2c0,0,0.4,0.5,0.3,0.5
	c0-0.1-0.1-0.2-0.1-0.2c0,0.1,0.1,0.2,0.1,0.3c0,0.1,0.1,0.3,0.1,0.4c0,0,0,0,0,0c0,0.1,0,0.3,0,0.4c0,0.1,0,0.2,0,0.3
	c0,0.1,0,0.3-0.1,0.4c0,0.1-0.1,0.2-0.1,0.3c0,0.1-0.1,0.3-0.2,0.4c-0.1,0.3-0.3,0.5-0.4,0.8c-0.1,0.2-0.2,0.3-0.3,0.5
	c0,0-0.1,0.1-0.2,0.2c-0.5,0.6-1,1.1-1.6,1.6c-0.5,0.4-1.1,0.8-1.7,1C58.8,48.5,58.5,48.6,58.5,48.6z"/>
<path d="M48.6,37c3.9,0.1,7.3-3.3,8.9-6.6c1.5-3.3,2-7.9-0.9-10.7c-2.7-2.6-6.6-1.8-9.3,0.4c-2.9,2.3-4.8,6.1-4.8,9.9
	C42.6,33.5,44.8,36.9,48.6,37z M49.1,32.9C49.3,32.9,49.2,32.9,49.1,32.9L49.1,32.9z M52.1,22.2L52.1,22.2
	C51.9,22.2,52,22.2,52.1,22.2z M46.7,28.9c0,0.2,0.1-0.4,0.1-0.6c0.1-0.4,0.2-0.8,0.4-1.2c0.2-0.6,0.5-1.1,0.9-1.7
	c0.2-0.2,0.3-0.5,0.5-0.7c-0.2,0.2,0.1-0.1,0.1-0.2c0.1-0.2,0.3-0.3,0.4-0.5c0.2-0.2,0.4-0.4,0.7-0.6c0.1-0.1,0.2-0.2,0.3-0.2
	c-0.3,0.2,0.1,0,0.1-0.1c0.2-0.1,0.5-0.3,0.7-0.4c0.1-0.1,0.2-0.1,0.3-0.2c-0.4,0.2,0.1,0,0.2-0.1c0.3-0.1,0.5-0.1,0.8-0.2
	c0.1,0,0.2,0,0.4,0c0.1,0,0.2,0,0.3,0c0,0,0,0,0,0c0.1,0,0.2,0.1,0.3,0.1c0.1,0,0.1,0,0.1,0c0,0,0,0,0.1,0c0.1,0.1,0.2,0.1,0.3,0.2
	c0,0,0.1,0.1,0.1,0.1c0.1,0.1,0.2,0.2,0.3,0.3c-0.2-0.3,0,0,0.1,0.2c0.1,0.1,0.1,0.2,0.2,0.3c0,0.1,0,0.1,0,0.1c0,0,0,0,0,0.1
	c0.1,0.3,0.2,0.6,0.2,0.9c0,0.1,0,0.1,0,0.1c0,0,0,0,0,0.1c0,0.2,0,0.4,0,0.6c0,0.1,0,0.3,0,0.4c0,0,0,0.3,0,0.4
	c-0.1,0.7-0.3,1.6-0.6,2.2c-0.6,1.3-1.2,2.2-2.2,3.1c-0.1,0.1-0.2,0.2-0.4,0.3c-0.1,0-0.4,0.3-0.1,0.1c-0.2,0.1-0.4,0.3-0.6,0.4
	c-0.1,0.1-0.3,0.2-0.4,0.2c0,0-0.1,0.1-0.2,0.1c-0.2,0.1-0.5,0.2-0.7,0.2c-0.1,0-0.2,0-0.2,0c0,0-0.1,0-0.1,0c-0.2,0-0.5,0-0.7,0
	c0.5,0-0.1-0.1-0.3-0.1c0,0,0,0,0,0c0,0,0,0,0,0c-0.1-0.1-0.3-0.2-0.4-0.3c0.4,0.2-0.2-0.2-0.3-0.3c0,0,0,0,0,0c0,0,0,0,0,0
	c-0.1-0.1-0.1-0.2-0.2-0.3c0-0.1-0.1-0.1-0.1-0.2c0-0.1-0.1-0.2-0.1-0.2c-0.1-0.3-0.2-0.6-0.2-0.9c0-0.1,0-0.5,0-0.5
	C46.6,29.6,46.6,29.3,46.7,28.9z"/>
<path d="M24.1,37.3c0.9-3.8-0.5-8-3-10.9c-2.2-2.5-5.8-4.2-9-2.5c-3.9,2-4.1,7.3-2.8,10.9c1.2,3.2,3.7,6.6,7.2,7.4
	C20.1,43.1,23.3,40.8,24.1,37.3z M17.1,38.1c0,0-0.2-0.1-0.3-0.1c-0.3-0.2-0.5-0.3-0.8-0.5c0,0-0.1-0.1-0.1-0.1
	c-0.1-0.1-0.3-0.2-0.4-0.3c-1-0.9-1.8-2.1-2.2-3.3c-0.2-0.7-0.5-1.4-0.5-2.1c0,0.2,0-0.1,0-0.1c0-0.2,0-0.4,0-0.6
	c0-0.1,0-0.3,0-0.4c0-0.1,0-0.4,0-0.4c0-0.1,0.1-0.4,0.1-0.4c0-0.1,0.1-0.3,0.1-0.4c0-0.1,0.1-0.4,0.2-0.5c0.1-0.2,0.2-0.5,0.4-0.7
	l0,0c0.1-0.1,0.2-0.2,0.4-0.4c0,0,0,0,0,0c0.1,0,0.2-0.1,0.3-0.2c0,0,0,0,0,0c0,0,0,0,0,0c0.1,0,0.2-0.1,0.3-0.1c0.1,0,0.1,0,0.2,0
	c0.1,0,0.1,0,0.1,0c0.1,0,0.2,0,0.3,0c0.1,0,0,0,0.1,0c0,0,0,0,0.1,0c0.2,0.1,0.5,0.1,0.8,0.2c0,0,0,0,0,0c0,0,0,0,0.1,0
	c0.1,0.1,0.2,0.1,0.3,0.2c0.7,0.4,0.7,0.4,1.2,0.9c1.8,1.7,2.8,4.2,2.7,6.7c0,0.1,0,0.2,0,0.4c0,0.1,0,0.1,0,0.1
	c-0.1,0.3-0.2,0.6-0.2,1c0,0,0,0.1-0.1,0.1c0,0.1-0.1,0.2-0.1,0.2c-0.1,0.1-0.1,0.2-0.2,0.3c-0.1,0.1-0.3,0.4-0.1,0.2
	c-0.1,0.1-0.2,0.2-0.3,0.3c0,0-0.1,0.1-0.1,0.1c-0.1,0.1-0.3,0.2-0.3,0.2c-0.2,0-0.4,0.1-0.4,0.1c0,0-0.1,0-0.1,0
	c-0.2,0-0.3,0-0.5,0c0,0,0,0,0,0c0,0,0,0,0,0c-0.2,0-0.3-0.1-0.5-0.1C17.2,38.2,17.1,38.1,17.1,38.1z"/>
<path d="M38.2,30c2.5-3,3.3-7.2,2.4-11c-0.8-3.2-3.3-6.6-7-6.4c-4.2,0.2-6.8,4.4-7.4,8.2c-0.5,3.6,0.1,7.8,3.1,10.2
	C32.1,33.3,35.9,32.7,38.2,30z M31.5,18.1c0.1-0.1,0.2-0.2,0.3-0.3c0.2-0.2,0.4-0.4,0.5-0.5c0,0,0,0,0,0c0.1-0.1,0.2-0.1,0.3-0.2
	c0.1-0.1,0.3-0.1,0.4-0.2c0,0,0,0,0,0c0,0,0,0,0.1,0c0.1,0,0.2-0.1,0.3-0.1c0,0,0,0,0,0l0,0c0.1,0,0.4,0,0.5,0c0.1,0,0.2,0,0.3,0
	c0.1,0,0.2,0.1,0.3,0.1c0,0,0,0,0.1,0c0.1,0.1,0.3,0.2,0.4,0.3c-0.3-0.2,0.2,0.2,0.3,0.3c0.1,0.1,0.1,0.2,0.2,0.2
	c0,0,0.1,0.1,0.1,0.1c0.2,0.2,0.3,0.5,0.4,0.7c0.1,0.1,0.2,0.3,0.2,0.5c0.1,0.1,0.1,0.1,0,0c0,0.1,0,0.1,0.1,0.2
	c0.8,2.4,0.7,5-0.5,7.2c-0.1,0.2-0.2,0.3-0.3,0.5c0,0-0.3,0.4-0.1,0.2c0.1-0.2-0.1,0.2-0.2,0.2c-0.1,0.1-0.2,0.2-0.3,0.4
	c-0.1,0.1-0.4,0.3-0.4,0.3c-0.2,0.1-0.4,0.2-0.6,0.4c0,0-0.4,0.1-0.4,0.1c0,0,0,0,0,0c-0.1,0-0.2,0-0.3,0c-0.1,0-0.1,0-0.2,0
	c-0.1,0-0.2,0-0.2,0c-0.1,0-0.2-0.1-0.3-0.1c0,0,0,0,0,0c0,0,0,0-0.1,0c-0.1-0.1-0.2-0.1-0.4-0.2c-0.2-0.1,0.2,0.2-0.1-0.1
	c-0.1-0.1-0.2-0.2-0.3-0.3c0,0-0.4-0.4-0.2-0.2c-0.2-0.3-0.4-0.5-0.5-0.9c-0.2-0.4-0.2-0.5-0.3-0.7c-0.5-1.4-0.6-2.7-0.5-4.1
	C30.3,20.4,30.7,19.5,31.5,18.1C31.5,18.2,31.7,17.9,31.5,18.1z"/>
</svg>