<svg xmlns="http://www.w3.org/2000/svg" viewBox="0 0 76 76">
<style type="text/css">
    path{fill:#952D27;}
	@media (prefers-color-scheme: dark){path{fill:#EEEAE0}}
</style>
<path d="M63.6,40.8c-0.3-1-1.5-1.8-2.5-1.4c-3,1.1-6,2.2-9,3.3c-3.2-2.1-6.5-4.1-9.7-6.1c3-1.7,5.9-3.4,8.9-5.1
	c1,1,2.5,1.4,3.8,2c1.6,0.7,3.3,1.4,4.9,2.1c1,0.4,2.3-0.4,2.5-1.4c0.3-1.2-0.4-2.1-1.4-2.5c-1.4-0.6-2.8-1.2-4.2-1.8
	c-0.5-0.2-1-0.4-1.5-0.6c1.8-1,3.7-2.1,5.5-3.1c2.3-1.3,0.2-4.8-2.1-3.5c-1.4,0.8-2.8,1.6-4.3,2.4c0.2-1.5,0.3-3,0.5-4.5
	c0.1-1.1-1-2.1-2-2c-1.2,0-1.9,0.9-2,2c-0.2,1.7-0.4,3.4-0.6,5.1c-0.1,0.6-0.2,1.3-0.2,1.9c-3.2,1.8-6.3,3.6-9.4,5.4
	c-0.1-3.8-0.2-7.5-0.4-11.3c0.8-0.5,1.5-1.2,2.2-1.8c1.5-1.3,3-2.6,4.4-3.9c0.8-0.7,0.7-2.1,0-2.9c-0.8-0.8-2.1-0.7-2.9,0
	c-1.2,1.1-2.5,2.2-3.7,3.3c-0.1,0.1-0.1,0.1-0.2,0.2c0-1.1-0.1-2.3-0.1-3.4c-0.1-2.6-4.2-2.6-4.1,0c0.1,1.3,0.1,2.6,0.1,4
	c0,0-0.1-0.1-0.2-0.1c-0.7-0.5-1.3-1-2-1.5c-1.4-1-2.8-2.1-4.2-3.1c-0.9-0.7-2.3-0.1-2.8,0.7c-0.6,1-0.2,2.1,0.7,2.8
	c1.6,1.2,3.1,2.3,4.7,3.5c0.8,0.6,1.6,1.2,2.4,1.8c0.5,0.4,0.9,0.7,1.5,0.9c0.1,3.7,0.3,7.5,0.4,11.2c-3-1.7-5.9-3.4-8.9-4.9
	c-0.1-0.9-0.3-1.7-0.5-2.5c-0.5-2.1-1.1-4.1-1.6-6.2c-0.3-1.1-1.4-1.7-2.5-1.4c-1.1,0.3-1.7,1.4-1.4,2.5c0.5,1.8,0.9,3.5,1.4,5.2
	c-1.7-0.9-3.3-1.7-5-2.6c-2.3-1.1-4.4,2.4-2.1,3.5c1.9,0.9,3.8,1.9,5.7,2.9c-0.8,0.3-1.6,0.5-2.4,0.8c-1.8,0.6-3.6,1.2-5.3,1.8
	c-1,0.3-1.7,1.4-1.4,2.5c0.3,1,1.5,1.8,2.5,1.4c2-0.7,4.1-1.4,6.1-2.1c1-0.3,1.9-0.7,2.9-1c0.8-0.3,1.6-0.6,2.3-1.1
	c2.7,1.4,5.4,3,8,4.5c-3.4,2-6.9,4-10.3,5.9c-0.8-0.2-1.7-0.4-2.5-0.7c-2-0.5-4-1.1-5.9-1.6c-1-0.3-2.3,0.3-2.5,1.4
	c-0.2,1.1,0.3,2.2,1.4,2.5c1.5,0.4,3,0.8,4.5,1.2c-1.9,1.1-3.8,2.2-5.6,3.2c-2.3,1.3-0.2,4.8,2.1,3.5c2.7-1.5,5.4-3.1,8-4.6
	c-0.2,0.7-0.4,1.5-0.7,2.2c-0.5,1.7-1,3.5-1.5,5.2c-0.3,1,0.4,2.3,1.4,2.5c1.1,0.2,2.2-0.3,2.5-1.4c0.6-2,1.1-3.9,1.7-5.8
	c0.5-1.6,1.3-3.5,0.8-5.1c3-1.7,6.1-3.5,9.1-5.2c0.1,3.9,0,7.9,0,11.8c-0.5,0.3-1.1,0.7-1.6,1.1c-0.7,0.6-1.4,1.2-2.2,1.8
	c-1.5,1.2-3,2.4-4.5,3.6c-0.9,0.7-0.7,2.2,0,2.9c0.9,0.8,2,0.7,2.9,0c1.2-1,2.4-2,3.6-3c0.5-0.5,1.1-0.9,1.7-1.3c0,2.1,0,4.2,0,6.3
	c0,2.6,4,2.6,4.1,0c0-1.7,0-3.5,0-5.2c0.9,0.9,1.8,1.8,2.7,2.8c0.8,0.8,2.1,0.8,2.9,0c0.8-0.8,0.8-2.1,0-2.9
	c-1.3-1.4-2.6-2.7-3.9-4.1c-0.5-0.5-1.1-1.1-1.6-1.5c0-3.9,0-7.8-0.1-11.6c2.5,1.5,5,3,7.4,4.5c-0.2,0.5-0.2,1.1,0.1,1.7
	c1.8,3.1,3.1,6.4,3.7,9.9c0.2,1.1,1.5,1.7,2.5,1.4c1.1-0.3,1.6-1.4,1.4-2.5c-0.4-2.3-1.1-4.5-2-6.6c1.6,1,3.1,2,4.7,3.1
	c2.2,1.5,4.2-2,2.1-3.5c-1.5-1-2.9-2-4.4-3c2-0.7,4-1.5,5.9-2.2C63.3,42.9,64,41.9,63.6,40.8z"/>
</svg>