<svg xmlns="http://www.w3.org/2000/svg" viewBox="0 0 76 76">
<style type="text/css">
    path{fill:#952D27;}
	@media (prefers-color-scheme: dark){path{fill:#EEEAE0}}
</style>
<path d="M72.1,34.5c-2.2,3.6-4.4,7.3-6.6,11c-0.4,0.7-0.8,1.5-1.3,2.2c-0.4,0.5-1,0.3-1.6,0.3c-1-0.1-2-0.3-3-0.4
	c0.3-0.5,0.6-1,0.9-1.5c1.3-2.3-2.2-4.3-3.5-2.1c-2.2,3.7-4.4,7.4-6.6,11.1c-0.3,0.6-0.8,1.9-1.5,2.2c-0.6,0.3-1.8,0-2.4-0.1
	c-2.2-0.3-4.3-0.6-6.5-0.9c-1.1-0.2-2.3-0.3-3.4-0.5c-0.5-0.1-2,0-2.3-0.4c-0.2-0.3,0-1.4,0-1.8c0.1-1.1,0.1-2.3,0.2-3.4
	c0.2-3,0.3-6,0.5-9c3.2,2.2,7.7,2.8,11.4,3.1c2.4,0.1,4.8,0.1,7.3-0.2c2-0.2,4-0.6,5.5-2c1.6-1.3,2.2-3.5,1.5-5.5
	c-0.3-0.8-0.8-1.4-1.3-2c0.8,0.1,1.6,0.1,2.4,0.2c2.5,0.1,5,0,7.5-0.3c1.9-0.2,3.9-0.7,5.3-2.1c1.6-1.5,1.9-3.8,1-5.7
	c-0.9-2-2.8-3.2-4.7-4c-5-2.2-10.4-3.3-15.8-3.1c-2.6,0.1-2.6,4.2,0,4.1c4.5-0.2,8.9,0.5,13,2.2c1.1,0.5,4,1.4,4,3
	c0,1.2-2.1,1.5-3,1.7c-4.3,0.7-8.9,0.4-13.1-0.5c-1.7-0.4-3.5-1-4.6-2.5c-0.9-1.2-0.9-2.8,0.5-3.5c2.4-1.1,0.3-4.7-2.1-3.5
	c-2.4,1.1-3.2,3.4-3,5.7c-0.2,0.4-0.4,0.7-0.4,1.2c0,0.7-0.1,1.4-0.1,2c-1.6-0.2-3.2-0.4-4.7-0.4c1.1-0.3,2.2-0.8,3-1.6
	c1.6-1.5,1.9-3.8,1-5.7c-0.9-2-2.8-3.2-4.7-4c-5-2.2-10.4-3.3-15.8-3.1c-2.6,0.1-2.6,4.2,0,4.1c4.5-0.2,8.9,0.5,13,2.2
	c1.1,0.4,4,1.4,4,3c0,1.2-2.1,1.5-3,1.6c-4.3,0.7-8.9,0.4-13.1-0.5c-1.7-0.4-3.5-1-4.6-2.5c-0.9-1.2-0.9-2.8,0.5-3.5
	c2.4-1.1,0.3-4.7-2.1-3.5c-2.4,1.1-3.2,3.4-3,5.7c-0.2,0.4-0.4,0.7-0.4,1.2c0,0.7-0.1,1.4-0.1,2.1c-2.1-0.3-4.2-0.5-6.3-0.4
	c-2.6,0.1-2.6,4.2,0,4.1c4.6-0.2,9.1,0.6,13.3,2.4c1,0.4,3.9,1.5,3.6,3c-0.2,1.1-2.3,1.4-3.2,1.5c-4.2,0.6-8.7,0.3-12.9-0.6
	c-1.7-0.4-3.5-1-4.6-2.4c-0.9-1.2-0.9-2.8,0.5-3.5c2.4-1.1,0.3-4.7-2.1-3.5c-2.4,1.2-3.3,3.5-3,5.8C1.2,31,1,31.4,1,31.9
	c-0.3,5.3-0.6,10.5-0.8,15.8c-0.1,2.1-0.4,4.5,1.4,6c1,0.8,2.2,1,3.4,1.2c1.3,0.2,2.6,0.3,3.9,0.5c2.6,0.3,5.2,0.7,7.8,1
	c2.3,0.3,4.3,0,5.8-2c1.5-2,2.6-4.3,3.9-6.5c1.4-2.3,2.8-4.6,4.1-6.9c1.3-2.3-2.2-4.3-3.5-2.1c-2.2,3.7-4.4,7.4-6.6,11.1
	c-0.4,0.6-0.9,1.9-1.5,2.2c-0.6,0.3-1.8,0-2.4-0.1c-2.2-0.3-4.3-0.6-6.5-0.9c-1.1-0.2-2.3-0.3-3.4-0.5c-0.5-0.1-2,0-2.3-0.4
	c-0.2-0.3,0-1.4,0-1.8c0.1-1.1,0.1-2.3,0.2-3.4c0.2-3,0.3-6,0.5-9c3.2,2.2,7.7,2.9,11.4,3.1c2.4,0.1,4.9,0.1,7.3-0.2
	c2-0.2,4-0.6,5.5-2c1.6-1.4,2.2-3.5,1.5-5.5c-0.3-0.8-0.8-1.4-1.3-2c0.8,0.1,1.6,0.1,2.4,0.2c1.1,0.1,2.1,0,3.2,0
	c-0.1,0-0.2,0-0.3,0.1c-2.4,1.2-3.3,3.5-3,5.8C31.2,36,31,36.4,31,36.9c-0.3,5.3-0.5,10.5-0.8,15.8c-0.1,2.1-0.4,4.5,1.4,6
	c1,0.8,2.2,1,3.4,1.2c1.3,0.2,2.6,0.3,3.9,0.5c2.6,0.3,5.2,0.7,7.8,1c2.3,0.3,4.3,0,5.8-2c1.5-2,2.6-4.3,3.9-6.5
	c0.3-0.5,0.6-1.1,1-1.6c1.9,0.3,3.8,0.6,5.7,0.7c1.1,0.1,2.2-0.2,3.2-0.8c1-0.7,1.5-1.6,2.1-2.5c2.4-4.1,4.8-8.1,7.3-12.2
	C77,34.3,73.4,32.3,72.1,34.5z M53.5,40c-4.2,0.6-8.7,0.3-12.9-0.6c-1.7-0.4-3.5-1-4.6-2.4c-0.9-1.2-0.9-2.8,0.5-3.5
	c1.8-0.9,1-3.2-0.6-3.6c0.8,0,1.7-0.1,2.5-0.2c-1.2,1.1-0.8,3.6,1.3,3.5c4.6-0.2,9.1,0.6,13.3,2.4c1,0.4,3.9,1.5,3.6,3
	C56.5,39.6,54.4,39.9,53.5,40z"/>
</svg>