<svg xmlns="http://www.w3.org/2000/svg" viewBox="0 0 76 76">
<style type="text/css">
    path{fill:#952D27;}
	@media (prefers-color-scheme: dark){path{fill:#EEEAE0}}
</style>
<path d="M52.5,35.5c-0.2-1.8-0.3-3.7-0.4-5.5c-0.4-3.4-2-6-4.9-7.7c-0.6-0.3-1.5-0.4-2.1,0c-1.1,0.8-2.2,1.6-3.2,2.3
	c-1.7-0.9-3.4-1.7-5.1-2.5c-0.6-0.3-1.5-0.4-2.1,0c-1.6,1.2-3.3,2.3-4.9,3.5c-1.1-0.5-2.2-1.1-3.3-1.7c-0.9-0.5-1.7-0.3-2.5,0.3
	c-4.9,4-3.6,10.9-2.7,16.4c1,6.2,3.1,12.3,6.6,17.5c4.8,7.2,11.8,12.6,19.8,15.7c1.6,0.6,3.4,1.2,5.1,1.6c1.2,0.2,2.7-0.5,2.6-2
	C54.5,60.8,53.5,48.2,52.5,35.5z M26.6,45.4c-0.9-3.2-1.5-6.6-1.8-9.9c-0.2-2.7-0.6-5.2,1.1-7.3c1,0.5,2,1,3.1,1.5
	c0.6,0.3,1.5,0.4,2.1,0c1.6-1.2,3.3-2.3,4.9-3.5c1.7,0.9,3.4,1.7,5.1,2.5c0.6,0.3,1.5,0.4,2.1,0c1-0.7,2.1-1.5,3.1-2.2
	c1,0.9,1.7,2,1.9,3.5c1,12.6,2,25.3,3,37.9c0.1,0.9,0.1,1.9,0.2,2.8C39.4,67.3,29.9,57,26.6,45.4z"/>
<path d="M29.1,15.6c-1.3,1.2-2.4,3-2.3,4.9c0.1,1,0.7,1.9,1.8,2c1,0.1,2-0.5,2.2-1.5c0.4-1.7,2.3-2.4,3.6-1.6
	c1.2,0.8,2.2,1.8,3.7,2.1c1.5,0.3,3.2,0,4.2-1.2c0.7-0.9,0.8-2,0-2.9c-0.7-0.7-2.2-0.9-2.9,0c-0.2,0.2-0.2,0.2-0.1,0.1
	c0.2,0,0.1,0-0.1,0c0.2,0-0.2,0-0.3-0.1c-0.4-0.1-1.1-0.6-1.6-1c-0.8-0.6-1.6-1-2.5-1.3c0.5-0.9,0.7-1.9,0.7-3
	c-0.1-3.7-1.8-7.6-3.8-10.7c-1.4-2.2-4.9-0.2-3.5,2.1c0.9,1.4,1.6,2.8,2.2,4.3c0.5,1.4,1.3,3.3,1,4.9C31.4,14,29.9,14.8,29.1,15.6z"/>
</svg>