<svg xmlns="http://www.w3.org/2000/svg" viewBox="0 0 76 76">
<style type="text/css">
    path{fill:#952D27;}
	@media (prefers-color-scheme: dark){path{fill:#EEEAE0}}
</style>
<path class="st0" d="M58.8,34.7c0-1.8-0.2-3.7-0.7-5.4c0-0.6-0.3-1.2-0.8-1.6c-1.1-1.5-2.8-2.3-4.5-3.3c-0.7-0.4-1.4-0.9-2.2-1.4
	c2.6-3,5.2-5.9,7.9-8.7c1.8-1.9-1.1-4.8-2.9-2.9c-3,3.1-5.8,6.3-8.6,9.5c-2.3-1.2-4.8-2.1-7.3-2.1c-5,0.1-9.5,3.5-13.5,6
	c-1.4,0.9-2.6,1.6-3.4,2.7c-0.8,0.5-1.3,1.5-1.1,2.4c-0.4,1.5-0.7,3.1-0.8,4.6c-0.4,4.1-0.3,8.5,0.7,12.5c0.4,1.4,0.9,3.1,2.3,4
	c0.1,0.1,0.3,0.1,0.4,0.2c-2.4,3.6-4.7,7.3-6.9,11c-1.3,2.3,2.2,4.3,3.5,2.1c2.2-3.8,4.5-7.4,6.9-11.1C31,55.3,34.6,58,38.5,59
	c0.6,0.5,1.6,0.6,2.3,0.2c0.3,0,0.6,0,1-0.1c0.6-0.2,0.9-0.5,1.4-0.8c0.4-0.3-0.1,0,0.4-0.3c1.9-1.1,3.8-2,5.7-3
	c2.2-1.2,4.4-2.3,6.4-3.9c1.5-1.1,3.2-2.9,2.9-4.9c0-0.1,0-0.2-0.1-0.2c0-0.1,0-0.2,0-0.3c0-0.1,0-0.1,0-0.2c0,0,0-0.1,0-0.2
	c0-0.4,0-0.7,0-1.1c0-1,0.1-1.9,0.1-2.8C58.7,39.1,58.8,36.9,58.8,34.7z M48.3,26.4c1.4,0.9,2.8,1.7,4.2,2.6
	c-4.2,2.5-8.5,4.9-12.7,7.3c0,0-0.1,0-0.1-0.1c2.7-3.4,5.3-6.9,8.1-10.2C48,26.2,48.2,26.3,48.3,26.4z M44.2,24.1
	c-2.8,3.3-5.5,6.7-8.1,10.1c-3-1.7-6-3.4-8.9-5.2c3.7-2.2,7.2-5.3,11.5-6.1C40.6,22.6,42.4,23.2,44.2,24.1z M25.6,47.4
	c0.1,0,0.4,0.1,0.4,0.2C25.8,47.6,25.7,47.5,25.6,47.4z M26,47.6c0-0.2-0.3-0.6-0.2-0.5c-1.2-3-1.2-6.8-1.1-10
	c0.1-1.5,0.2-3.1,0.4-4.6c2.8,1.6,5.7,3.3,8.5,4.9c-2.5,3.4-5,6.8-7.3,10.3C26.2,47.7,26.1,47.7,26,47.6z M31.6,50.9
	c-0.5-0.3-1.1-0.7-1.7-1c2.4-3.5,4.8-6.9,7.3-10.3c0.2,0.1,0.4,0.2,0.6,0.3c0,4.8,0,9.7,0,14.6c-0.3-0.2-0.7-0.3-1-0.5
	C35,53,33.3,51.9,31.6,50.9z M52.8,48.1c-1.6,1.2-3.4,2.1-5.1,3c-1.7,0.9-3.3,1.7-5,2.6c-0.3,0.2-0.6,0.3-0.9,0.5
	c0-4.4,0-8.8,0-13.2c0-0.4,0-0.8,0-1.1c4.2-2.5,8.5-4.9,12.8-7.4c0.1,1,0.1,2,0.1,2.8c0,2.2-0.1,4.4-0.2,6.6
	c-0.1,1.4-0.1,2.8,0.1,4.1c0,0,0,0.1,0,0.1c0,0.1,0,0.1,0,0.2c0,0,0,0,0,0.1c-0.1,0.1-0.2,0.4-0.2,0.4C54,47.2,53.4,47.7,52.8,48.1z"/>
</svg>