<svg xmlns="http://www.w3.org/2000/svg" viewBox="0 0 76 76">
<style type="text/css">
  path{fill:#952D27;}
	@media (prefers-color-scheme: dark){path{fill:#EEEAE0}}
</style>
<path d="M67.3,51.4c-8.9-5.6-13.8-15.9-12.9-26.3c0.2-1.7-2.4-2.8-3.5-1.4c-9.1,11-18.1,21.9-27.2,32.9
  c-1.2,0.2-1.8,1.2-1.8,2.2c-0.8,1-1.7,2-2.5,3c-1.7,2,1.2,4.9,2.9,2.9c1.2-1.4,2.4-2.9,3.6-4.3c13.5-1.7,26.9-3.4,40.4-5.2
  C68.2,55,69.1,52.6,67.3,51.4z M50.4,30.7c0.8,8.1,4.6,15.7,10.7,21.1c-10.5,1.3-21,2.7-31.5,4C36.5,47.5,43.5,39.1,50.4,30.7z"/>
<path d="M45.4,20.5c0.9-1.1,0.8-3.1-0.9-3.4c-11.4-2.1-22.8-4.3-34.2-6.4c-1.2-0.2-2.7,0.5-2.6,2
  c1.5,14.2,2.9,28.4,4.4,42.6c0.3,2.6,4.3,2.6,4.1,0c-1.4-13.4-2.7-26.8-4.1-40.1c9.4,1.8,18.8,3.5,28.1,5.3
  c-7.8,9.5-15.7,19-23.5,28.5c-1.7,2,1.2,4.9,2.9,2.9C28.2,41.4,36.8,30.9,45.4,20.5z"/>
</svg>