<?xml version="1.0" encoding="utf-8"?>
<svg xmlns="http://www.w3.org/2000/svg" viewBox="0 0 24 24">
<style>
	path{fill:#231f20;}
	@media (prefers-color-scheme: dark){path{fill:#f2f3f5}}
</style>
<path d="M17.62,9.02c-0.98,0.6-1.58,1.66-1.6,2.81c0,1.3,0.78,2.47,1.98,2.98c-0.23,0.74-0.57,1.45-1.01,2.09
	c-0.63,0.91-1.29,1.82-2.29,1.82s-1.26-0.58-2.42-0.58c-1.13,0-1.53,0.6-2.45,0.6s-1.56-0.84-2.29-1.87
	C6.57,15.42,6.03,13.72,6,11.98c0-2.87,1.86-4.39,3.7-4.39c0.97,0,1.79,0.64,2.4,0.64c0.58,0,1.49-0.68,2.6-0.68
	C15.85,7.53,16.95,8.07,17.62,9.02z M14.17,6.34c0.49-0.57,0.77-1.3,0.78-2.05c0-0.1-0.01-0.2-0.03-0.3
	c-0.84,0.08-1.62,0.48-2.17,1.12c-0.49,0.55-0.78,1.26-0.81,2c0,0.09,0.01,0.18,0.03,0.27c0.07,0.01,0.13,0.02,0.2,0.02
	C12.95,7.33,13.68,6.95,14.17,6.34z"/>
</svg>
