<svg xmlns="http://www.w3.org/2000/svg" viewBox="0 0 24 24">
    <style>
        rect{fill:#231f20;}
        @media (prefers-color-scheme: dark){rect{fill:#f2f3f5}}
    </style>
    <rect x="4.3" y="7.2" width="1.2" height="1.2" />
    <rect x="7.2" y="7.2" width="1.2" height="1.2" />
    <rect x="10" y="7.2" width="1.2" height="1.2" />
    <rect x="12.8" y="7.2" width="1.2" height="1.2" />
    <rect x="15.7" y="7.2" width="1.2" height="1.2" />
    <rect x="18.5" y="7.2" width="1.2" height="1.2" />
    <rect x="4.3" y="15.7" width="1.2" height="1.2" />
    <rect x="10" y="15.7" width="1.2" height="1.2" />
    <rect x="12.8" y="15.7" width="1.2" height="1.2" />
    <rect x="15.7" y="18.5" width="1.2" height="1.2" />
    <rect x="18.5" y="15.7" width="1.2" height="1.2" />
    <rect x="7.2" y="4.3" width="1.2" height="1.2" />
    <rect x="15.7" y="4.3" width="1.2" height="1.2" />
    <rect x="7.2" y="10" width="1.2" height="1.2" />
    <rect x="7.2" y="12.8" width="1.2" height="1.2" />
    <rect x="7.2" y="15.7" width="1.2" height="1.2" />
    <rect x="7.2" y="18.5" width="1.2" height="1.2" />
    <rect x="15.7" y="10" width="1.2" height="1.2" />
    <rect x="15.7" y="12.8" width="1.2" height="1.2" />
    <rect x="15.7" y="15.7" width="1.2" height="1.2" />
</svg>