<svg xmlns="http://www.w3.org/2000/svg" viewBox="0 0 24 24">
<style>
	path{fill:#231f20;}
	@media (prefers-color-scheme: dark){path{fill:#f2f3f5}}
</style>
<path d="M16,11.9c0-1.1,0.9-1.9,2-1.9h0h0.2h1.3c0.3,0,0.5-0.2,0.5-0.5v-3C20,6.2,19.8,6,19.5,6h-3
	C16.2,6,16,6.2,16,6.5V8c0,1.1-0.9,2-2,2h0c-1.1,0-2-0.9-2-2v0V6.5C12,6.2,11.8,6,11.5,6h-3C8.2,6,8,6.2,8,6.5V8c0,1.1-0.9,2-2,2
	H4.5C4.2,10,4,10.2,4,10.5v3C4,13.8,4.2,14,4.5,14h3C7.8,14,8,13.8,8,13.5v-1.6l0,0V12c0-0.1,0-0.1,0-0.2l0,0c0.1-1,0.9-1.8,2-1.8
	H9.8l0,0H10c0,0,0.1,0,0.1,0c1,0.1,1.7,0.8,1.9,1.7c0,0,0,0.1,0,0.1l0,0.1l0,0v0v2v3.5c0,0.3,0.2,0.5,0.5,0.5H16h3.5
	c0.3,0,0.5-0.2,0.5-0.5v-3c0-0.3-0.2-0.5-0.5-0.5H18c-1,0-1.9-0.8-2-1.8l0,0C16,12.1,16,12.1,16,11.9l0,0.2l0,0L16,11.9L16,11.9
	C16,12,16,12,16,11.9z M13.9,10L13.9,10L13.9,10L13.9,10z M12,12L12,12L12,12C12,12,12,12,12,12z"/>
</svg>
