<svg xmlns="http://www.w3.org/2000/svg" viewBox="0 0 24 24">
	<style>
		path{fill:#231f20;}
		@media (prefers-color-scheme: dark){path{fill:#f2f3f5}}
	</style>
	<path d="M18.1,5.9c-1.9-1.9-4.9-1.9-6.8,0l-4.6,4.6c-0.1,0.1-0.2,0.3-0.2,0.5v5.5l-1.8,1.8c-0.3,0.3-0.3,0.7,0,1
		c0.1,0.1,0.3,0.2,0.5,0.2s0.3-0.1,0.5-0.2l1.8-1.8H13c0.2,0,0.4-0.1,0.5-0.2l2.7-2.7c0,0,0,0,0,0l1.9-1.9C20,10.8,20,7.8,18.1,5.9z
		M12.7,16.1H8.9l1.4-1.4h3.9L12.7,16.1z M17.1,11.7l-1.7,1.7h-3.9l3.6-3.6c0.3-0.3,0.3-0.7,0-1c-0.3-0.3-0.7-0.3-1,0l-4.8,4.8
		c0,0,0,0,0,0l-1.6,1.6v-3.9l4.4-4.4c1.3-1.3,3.5-1.3,4.8,0C18.5,8.2,18.5,10.4,17.1,11.7L17.1,11.7z" />
</svg>