<svg xmlns="http://www.w3.org/2000/svg" viewBox="0 0 24 24">
	<style>
		path{fill:#231f20;}
		@media (prefers-color-scheme: dark){path{fill:#f2f3f5}}
	</style>
	<path d="M7.18,6.66C7.18,6.66,7.08,6.66,7.18,6.66C6.39,7.45,6,8.33,6,9.42s0.39,2.07,1.08,2.75c0.2,0.2,0.39,0.3,0.59,0.49h0.1
		c0.1,0,0.1-0.1,0.1-0.1c-0.2-0.39-0.3-0.89-0.3-1.38c0-1.08,0.49-2.16,1.18-2.85V6.76c0-0.1-0.1-0.1-0.1-0.1H7.18
		C7.18,6.56,7.18,6.66,7.18,6.66z M11.7,6.76v1.48c0,0.79-0.59,1.38-1.38,1.48c0-0.1-0.1,0-0.1,0c0,0.3,0.2,0.59,0.39,0.79h0.2
		c1.77,0.59,2.36-0.1,2.36-0.89V8.53c0-0.1,0.1-0.1,0.1-0.1h0.39c0.1,0,0.1-0.1,0.1-0.1c-0.1-0.59-0.39-1.18-0.79-1.67H11.8
		C11.8,6.56,11.7,6.66,11.7,6.76z"/>
	<path d="M16.03,6.76C16.03,6.76,16.03,6.86,16.03,6.76C16.03,6.83,16.03,6.83,16.03,6.76C16.03,6.83,16.03,6.83,16.03,6.76
		c0.3,0.79,0.49,1.57,0.49,2.46c0,3.64-2.95,6.69-6.69,6.69c-0.89,0-1.67-0.2-2.46-0.49c-0.1,0-0.1,0.1-0.1,0.2v0.1
		c1.18,1.08,2.66,1.67,4.43,1.67c3.54,0,6.3-2.85,6.3-6.3c0-1.67-0.69-3.25-1.77-4.33h-0.1C16.13,6.66,16.03,6.76,16.03,6.76z"/>
</svg>
