<svg xmlns="http://www.w3.org/2000/svg" viewBox="0 0 400 400">
<path fill="#EB5A43" d="M219.7,246.2v-45.1c0-4.5-3.7-8.4-8.4-8.4h-22.6c-4.5,0-8.4,3.7-8.4,8.4v45.1h-17.6c-3.3,0-6.2,1.9-7.8,5
	s-0.8,6.5,1.4,9l37.2,41.1c1.7,1.7,3.7,2.7,6.2,2.7c2.3,0,4.5-1.1,6.2-2.7l37.2-41.1c2.3-2.5,2.7-6.1,1.4-9c-1.2-2.9-4.4-5-7.8-5
	L219.7,246.2L219.7,246.2z M286.7,191.7c5.9,4.5,9.4,11.5,9.4,18.8c0,13.1-10.6,23.8-23.8,23.8c-6.5,0-11.7,5.3-11.7,11.7
	s5.3,11.7,11.7,11.7c25.9,0,47.2-21,47.2-47.2c0-12.3-4.5-23.5-12.9-32.4c0.2-2.3,0.4-4.5,0.4-6.9c0-31.3-25.5-57-57-57
	c-6.5,0-12.9,1.1-19,3.3C216.5,102.4,196.9,94,175.6,94c-42.4,0-77.1,34.4-77.1,77.1c0,0.6,0,1.2,0,1.9
	c-11.2,8.7-18.2,22.6-18.2,37.2c0,25.9,21,47.2,47.2,47.2c6.5,0,11.7-5.3,11.7-11.7S134,234,127.6,234c-13.1,0-23.8-10.6-23.8-23.8
	c0-8.7,4.8-16.9,12.5-21c4.2-2.3,6.5-6.9,6.1-11.5c-0.2-2.5-0.4-4.5-0.4-6.7c0-29.6,24-53.7,53.7-53.7c16.9,0,32.5,7.8,42.8,21.3
	c3.6,4.5,10,6.1,15.1,3.1c5-2.7,10.6-4.4,16.5-4.4c18.5,0,33.6,15.1,33.6,33.6c0,2.7-0.4,5.3-1.1,8.1
	C281.5,184.3,283.2,189.1,286.7,191.7L286.7,191.7z"/>
</svg>
