<svg xmlns="http://www.w3.org/2000/svg" viewBox="0 0 64 64">
<style>@import url("/styles/base-items/icon-color.css");</style>
<path d="M48,48.4v1.7H16l0-1.7H48z M46.7,45.9V48H17.3v-2.1H46.7z M20.3,23.2l0.4,0.2l0.2,2.8l0.2,4.6v4.4l-0.2,5.5
	l0,3.7l-0.5,0.1h-1.8l-0.5-0.1l-0.2-3.7l-0.2-5.5v-4.4l0.2-4.6l0.2-2.9l0.4-0.2L20.3,23.2z M45.6,23.2l0.4,0.2l0.2,2.8l0.2,4.6v4.4
	l-0.2,5.5l0,3.7l-0.5,0.1h-1.8l-0.5-0.1l-0.2-3.7l-0.2-5.5v-4.4l0.2-4.6l0.2-2.9l0.4-0.2L45.6,23.2z M27.9,23.2l0.4,0.2l0.2,2.8
	l0.2,4.6v4.4l-0.2,5.5l0,3.7l-0.5,0.1h-1.8l-0.5-0.1l-0.2-3.7l-0.2-5.5v-4.4l0.2-4.6l0.2-2.9l0.4-0.2L27.9,23.2z M37.6,23.2l0.4,0.2
	l0.2,2.8l0.2,4.6v4.4l-0.2,5.5l0,3.7l-0.5,0.1h-1.8l-0.5-0.1l-0.2-3.7l-0.2-5.5v-4.4l0.2-4.6l0.2-2.9l0.4-0.2L37.6,23.2z M46.7,19.4
	v2.9H17.3v-2.9H46.7z M31.7,13.9l15.5,3.5l-0.6,1.1H16.9L16,17.6L31.7,13.9z"/>
</svg>