<svg xmlns="http://www.w3.org/2000/svg" viewBox="0 0 24 24">
	<polygon fill="#C2D0EF" points="17.4,17.4 6.6,17.4 6.6,6.6 13.8,6.6 13.8,10.2 17.4,10.2 " />
	<path fill="#57B33E" d="M6.6,17.4h10.8c0,0-2.5-4.8-5.4-4.8S6.6,17.4,6.6,17.4z" />
	<path fill="#9E9E9F" d="M14.1,6H6v12h12v-8L14.1,6z M17.4,10.2h-3.6V6.6L17.4,10.2z M17.4,17.4H6.6V6.6h6.6v4.2h4.2V17.4z" />
	<path fill="#FFFFFF" d="M11.2,9h-0.2c-0.2-0.4-0.6-0.6-1-0.6c-0.7,0-1.2,0.5-1.2,1.2H8.2c-0.3,0-0.6,0.3-0.6,0.6c0,0.3,0.3,0.6,0.6,0.6c0,0,0,0,0,0h3c0,0,0,0,0,0c0.5,0,0.9-0.4,0.9-0.9C12.1,9.4,11.7,9,11.2,9z" />
</svg>