<svg xmlns="http://www.w3.org/2000/svg" viewBox="0 0 24 24">
	<defs>
		<radialGradient id="grad" cx="6.7947"
			cy="823.1081" r="15.7662" gradientTransform="matrix(1 0 0 1 0 -818.0001)"
			gradientUnits="userSpaceOnUse">
			<stop offset="0" stop-color="#88007C" />
			<stop offset="1" stop-color="#300056" />
		</radialGradient>
	</defs>

	<path fill-opacity="0.4"
		d="M7.4,5.9h9.2c1.3,0,2.6,1.1,2.6,2.6v9.1c0,1.3-1.1,2.6-2.6,2.6H7.4c-1.3,0-2.6-1.1-2.6-2.6V8.4
	C4.8,7.1,5.9,5.9,7.4,5.9L7.4,5.9z" />

	<path fill="#FFF"
		d="M7.2,5.3h9.8c0,0,0.1,0,0.1,0.1V18c0,0,0,0.1-0.1,0.1H7.2c0,0-0.1,0-0.1-0.1L7.2,5.3C7.1,5.3,7.1,5.3,7.2,5.3
	L7.2,5.3z" />

	<g fill="url(#grad)">
		<path 
			d="M16.9,16.5v0.8c0,0.3-0.3,0.7-0.7,0.7H7.7c-0.3,0-0.7-0.3-0.7-0.7v-0.8c-0.9-0.3-1.5-1.1-1.5-2v2.8
		c0,1.1,0.9,2.1,2.1,2.1h8.5c1.1,0,2.1-1,2.1-2.1v-2.8C18.4,15.4,17.8,16.2,16.9,16.5z" />
		<path
			d="M16.3,3.8H7.7c-1.1,0-2.1,1-2.1,2.1v8.5
		c0,1.1,0.9,2.1,2.1,2.1h8.5c1.1,0,2.1-1,2.1-2.1V5.9C18.4,4.8,17.4,3.8,16.3,3.8z M16.9,14.5c0,0.3-0.3,0.7-0.7,0.7H7.7
		c-0.3,0-0.7-0.3-0.7-0.7V5.9c0-0.3,0.3-0.7,0.7-0.7h8.5c0.3,0,0.7,0.3,0.7,0.7V14.5L16.9,14.5z" />
	</g>

	<path fill="#520065"
		d="M11.3,11.1V13H10V7.3h2.2c0.4,0,0.8,0.1,1.1,0.2c0.3,0.1,0.6,0.3,0.8,0.7c0.2,0.3,0.2,0.7,0.2,1
	c0,0.6-0.2,1-0.6,1.3c-0.4,0.3-0.9,0.4-1.7,0.4L11.3,11.1L11.3,11.1z M11.3,10.1h0.9c0.2,0,0.4-0.1,0.6-0.2
	c0.2-0.1,0.3-0.3,0.3-0.6S13,8.9,12.9,8.6c-0.1-0.1-0.3-0.2-0.6-0.2h-0.9L11.3,10.1L11.3,10.1z" />

	<path fill-opacity="0.25"
		d="M7.7,19.4c-1.1,0-2.1-0.9-2.1-2.1v-2.8c0,1.1,0.9,2.1,2.1,2.1h8.5c1.1,0,2.1-0.9,2.1-2.1v2.8
	c0,1.1-0.9,2.1-2.1,2.1H7.7z" />
</svg>