<svg xmlns="http://www.w3.org/2000/svg" viewBox="0 0 24 24"
	style="background-color:#ED1C24;fill:#FFF;">
	<path
		d="M10.6,15.5c0,1.3,0.9,2.4,2.6,2.4h4.5v-1.2h-4.3c-1,0-1.5-0.6-1.5-1.3c0-0.3,0.1-0.7,0.3-1l4.4-7.5h-1.5
	l-4.1,6.9C10.8,14.3,10.6,14.8,10.6,15.5z M3.7,12.9l2.2-4c0.4-0.7,0.8-1,1.3-1c0.6,0,1.1,0.5,1.1,1.2v3.7H3.7z M0,16.8l0,2.7
	l2.9-5.3h5.4v3.8h1.3V9.1c0-1.5-1.1-2.5-2.4-2.5c-1,0-1.9,0.5-2.5,1.7L0,16.8z M18.4,17.9h1.5c0.4-0.4,0.9-1.1,0.9-2.3
	c0-2.1-2.3-3.5-2.3-5.4c0-1.4,1-2.2,2.3-2.2H24V6.8h-3.2c-2,0-3.6,1.4-3.6,3.4c0,2.4,2.3,3.7,2.3,5.4C19.5,16.8,18.7,17.6,18.4,17.9z" />
</svg>