<svg xmlns="http://www.w3.org/2000/svg" viewBox="0 0 24 24">
	<style>
		path{fill:#231f20;}
		@media (prefers-color-scheme: dark){path{fill:#f2f3f5}}
	</style>
	<path
		d="M22.5,17.7c0,0-0.1,0-0.2,0c-0.5,0-1-0.1-1.4-1C20.9,16.5,16.8,6,16.8,5.9c0-0.1-0.1-0.1-0.1,0
	c0,0.1-1.1,3.3-1.1,3.3l2.8,7.7c0,0.1,0.1,0.3,0.1,0.4c0,0.1-0.1,0.3-0.2,0.4c-0.1,0.1-0.4,0.1-0.5,0.1c-0.1,0-0.1,0-0.2,0
	c-0.1,0-0.1,0.1-0.1,0.1c0,0.1,0,0.1,0.1,0.1h5c0,0,0.1,0,0.1-0.1C22.6,17.8,22.6,17.7,22.5,17.7L22.5,17.7L22.5,17.7z M11.3,6.4
	c0.1-0.1,0.3-0.1,0.7-0.1c0.1,0,0.1,0,0.1-0.1C12.1,6.1,12,6,12,6L9.6,6c-0.1,0-0.1,0-0.1,0.1c0,0,0,0.1,0.1,0.1c0.1,0,0.2,0,0.3,0
	c0.3,0,0.5,0.1,0.6,0.2c0.1,0.1,0,0.4-0.1,0.6c-0.1,0.3-2.8,7.2-2.8,7.2h0c0-0.1-2.2-6.9-2.3-7.2C5.2,6.9,5.2,6.7,5.2,6.6
	c0.1-0.2,0.3-0.3,0.7-0.3c0.1,0,0.1,0,0.1,0c0.1,0,0.1-0.1,0.1-0.1C6.1,6.1,6.1,6,6,6L1.5,6c0,0-0.1,0-0.1,0.1c0,0,0,0.1,0,0.1
	c0,0,0.1,0,0.3,0c0.3,0,0.4,0.1,0.6,0.1C2.5,6.5,2.7,6.8,2.8,7C2.8,7.3,6.4,17.9,6.4,18c0,0,0.1,0.1,0.1,0c0-0.1,4.4-11,4.5-11.2
	C11,6.6,11.1,6.5,11.3,6.4L11.3,6.4L11.3,6.4z M16.6,17c-0.1,0-0.2,0-0.2,0.2c-0.1,0.2-0.3,0.2-0.4,0.2c-0.3,0-0.6-0.4-0.9-0.7
	c0,0-0.1-0.2-0.4-0.6c0.5-0.7,0.8-1.6,0.9-2.1c0-0.2,0.1-0.5,0.2-0.6c0.1-0.2,0.3-0.2,0.5-0.2c0.1,0,0.1,0,0.2,0
	c0.1,0,0.1-0.1,0.1-0.1c0-0.1,0-0.1-0.1-0.1l-2,0c-0.1,0-0.1,0-0.1,0.1c0,0,0,0.1,0.1,0.1c0,0,0.1,0,0.1,0c0.2,0,0.4,0,0.5,0.1
	c0.2,0.1,0.2,0.3,0.1,0.6c-0.1,0.6-0.4,1.4-0.8,2.1c-0.8-1.2-2.2-3.4-2.2-3.4s0.6-0.3,1-0.5c0.4-0.2,1-0.7,1-1.4
	c0-0.4-0.2-0.8-0.6-1c-0.3-0.2-0.9-0.4-1.5-0.4c-0.7,0-1.5,0.3-1.9,0.9c-0.4,0.7-0.3,1.6,0.2,2.4c0.1,0.1,0.2,0.3,0.3,0.4
	c-0.2,0.1-0.4,0.2-0.6,0.2c-1,0.5-1.8,1.3-1.8,2.5c0,1.3,1,2.3,2.7,2.3c1,0,1.8-0.3,2.4-0.8c0.3,0.4,0.8,0.7,1.6,0.7
	c0.7,0,1.3-0.4,1.5-0.8C16.7,17.1,16.7,17,16.6,17L16.6,17L16.6,17z M11.5,9.7c0.2-0.2,0.4-0.3,0.7-0.3c0.4,0,0.9,0.4,0.9,1.4
	c0,0.6-0.3,1.2-0.8,1.5c0,0-0.4-0.7-0.7-1.1C11.4,10.8,11.2,10.2,11.5,9.7L11.5,9.7z M10,15c0-0.6,0.2-1.3,1-1.8l0,0l0,0l0,0
	c0,0,0,0,0,0c1.6,2.5,1.7,2.7,2.5,3.9c-0.3,0.2-0.7,0.4-1.1,0.4C11,17.4,10,16.2,10,15L10,15L10,15z" />
</svg>