<svg xmlns="http://www.w3.org/2000/svg" viewBox="0 0 60 19">
<style>
	path,rect,polygon{fill:#7CEE00;}
	@media (prefers-color-scheme: dark){path,rect,polygon{fill:#7CEE00;}}
</style>
<rect x="24" y="5" width="4" height="1"/>
<rect x="23" y="6" width="1" height="1"/>
<polygon points="28,11 29,11 29,8 30,8 30,6 28,6 28,8 27,8 27,9 26,9 26,10 27,10 27,11 26,11 26,12 25,12 25,13 
	26,13 26,14 29,14 29,13 28,13 "/>
<polygon points="24,12 23,12 23,10 24,10 24,9 22,9 22,10 21,10 21,12 22,12 22,13 23,13 23,14 25,14 25,13 24,13 "/>
<rect x="24" y="8" width="2" height="1"/>
<polygon points="7,13 7,12 6,12 6,9 7,9 7,7 8,7 8,6 7,6 7,5 3,5 3,6 5,6 5,9 4,9 4,13 3,13 3,16 2,16 2,18 0,18 0,19 
	5,19 5,18 4,18 4,16 5,16 5,13 6,13 6,14 9,14 9,13 "/>
<polygon points="49,11 50,11 50,8 51,8 51,4 52,4 52,0 48,0 48,1 50,1 50,4 49,4 49,8 48,8 48,11 47,11 47,12 46,12 
	46,13 47,13 47,14 50,14 50,13 49,13 "/>
<rect x="50" y="12" width="1" height="1"/>
<path d="M16,4h1V0h-4v1h2v3h-1v4h-1V7h-1V6h-1V5H8v1h2v1h1v3h-1v2H9v1h2v-1h1v2h2v-3h1V8h1V7h1V6h-1V4z M12,11v-1h1v1
	H12z"/>
<rect x="17" y="5" width="2" height="1"/>
<polygon points="19,11 20,11 20,8 21,8 21,6 20,6 19,6 19,8 18,8 18,11 17,11 17,14 20,14 20,13 19,13 "/>
<rect x="20" y="12" width="1" height="1"/>
<polygon points="54,13 54,12 53,12 53,9 54,9 54,7 55,7 55,6 53,6 53,7 52,7 52,9 51,9 51,12 52,12 52,13 53,13 53,14 
	56,14 56,13 "/>
<polygon points="59,7 59,6 58,6 58,5 55,5 55,6 57,6 57,7 58,7 58,10 57,10 57,12 56,12 56,13 58,13 58,12 59,12 
	59,10 60,10 60,7 "/>
<polygon points="45,11 46,11 46,6 44,6 44,5 41,5 41,6 43,6 43,7 44,7 44,10 43,10 43,12 42,12 42,13 43,13 43,14 
	46,14 46,13 45,13 "/>
<polygon points="40,13 40,12 39,12 39,9 40,9 40,7 41,7 41,6 39,6 39,7 38,7 38,9 37,9 37,10 35,10 35,9 34,9 34,8 
	32,8 32,7 33,7 33,6 35,6 35,8 37,8 37,6 36,6 36,5 32,5 32,6 31,6 31,9 32,9 32,10 34,10 34,11 35,11 35,12 34,12 34,13 32,13 
	32,12 32,11 30,11 30,12 29,12 29,13 31,13 31,14 35,14 35,13 36,13 36,12 38,12 38,13 39,13 39,14 42,14 42,13 "/>
</svg>
