<?xml version="1.0" encoding="utf-8"?>
<svg xmlns="http://www.w3.org/2000/svg" viewBox="0 0 1000 1000">
<style type="text/css">@import url("../../letters.css");</style>

<g class="letter">
	<rect width="1000" height="1000" opacity="0"/>
	<g class="mj">
		<line x1="500" y1="175" x2="0" y2="175"/>
		<line x1="500" y1="175" x2="1000" y2="175"/>
		<line x1="500" y1="275" x2="0" y2="275"/>
		<line x1="500" y1="275" x2="1000" y2="275"/>
		<line x1="500" y1="725" x2="0" y2="725"/>
		<line x1="500" y1="725" x2="1000" y2="725"/>
		<line x1="500" y1="825" x2="0" y2="825"/>
		<line x1="500" y1="825" x2="1000" y2="825"/>

		<line x1="275" y1="500" x2="275" y2="0"/>
		<line x1="275" y1="500" x2="275" y2="1000"/>
		<line x1="725" y1="500" x2="725" y2="0"/>
		<line x1="725" y1="500" x2="725" y2="1000"/>
	</g>

	<g class="mn">
		<line x1="500" y1="225" x2="0" y2="225"/>
		<line x1="500" y1="225" x2="1000" y2="225"/>
		<line x1="500" y1="325" x2="0" y2="325"/>
		<line x1="500" y1="325" x2="1000" y2="325"/>
		<line x1="500" y1="675" x2="0" y2="675"/>
		<line x1="500" y1="675" x2="1000" y2="675"/>

		<line x1="325" y1="500" x2="325" y2="0"/>
		<line x1="325" y1="500" x2="325" y2="1000"/>
		<line x1="675" y1="500" x2="675" y2="0"/>
		<line x1="675" y1="500" x2="675" y2="1000"/>
	</g>

	<line class="d" x1="750" y1="0" x2="750" y2="1000"/>

	<path class="c" d=" M500,274.99c67,0,126.99,28.97,168.02,74.98c-20.99-73-88-125.01-168.02-125.01H275V175h225
	c123.99,0,225,101.01,225,225V500c0,123.99-101.01,225-225,225S275,623.99,275,500S376.01,274.99,500,274.99z M500,325.02
	c-97,0-174.98,77.98-174.98,174.98S403,674.97,500,674.97c97,0,174.97-77.98,174.97-174.98S596.99,325.02,500,325.02z "/>

	<path class="cl" d=" M500,274.99c67,0,126.99,28.97,168.02,74.98c-20.99-73-88-125.01-168.02-125.01H275V175h225
	c123.99,0,225,101.01,225,225V500c0,123.99-101.01,225-225,225S275,623.99,275,500S376.01,274.99,500,274.99z M500,325.02
	c-97,0-174.98,77.98-174.98,174.98S403,674.97,500,674.97c97,0,174.97-77.98,174.97-174.98S596.99,325.02,500,325.02z "/>

	<text class="l" transform="matrix(1 0 0 1 500 875)"> ะดั </text>
</g>
</svg>
