<?xml version="1.0" encoding="utf-8"?>
<svg xmlns="http://www.w3.org/2000/svg" viewBox="0 0 1000 1000">
<style type="text/css">@import url("../../letters.css");</style>

<g class="letter">
	<rect width="1000" height="1000" opacity="0"/>
	<g class="mj">
		<line x1="500" y1="175" x2="0" y2="175"/>
		<line x1="500" y1="175" x2="1000" y2="175"/>
		<line x1="500" y1="275" x2="0" y2="275"/>
		<line x1="500" y1="275" x2="1000" y2="275"/>
		<line x1="500" y1="725" x2="0" y2="725"/>
		<line x1="500" y1="725" x2="1000" y2="725"/>
		<line x1="500" y1="825" x2="0" y2="825"/>
		<line x1="500" y1="825" x2="1000" y2="825"/>

		<line x1="275" y1="500" x2="275" y2="0"/>
		<line x1="275" y1="500" x2="275" y2="1000"/>
		<line x1="725" y1="500" x2="725" y2="0"/>
		<line x1="725" y1="500" x2="725" y2="1000"/>
	</g>

	<g class="mn">
		<line x1="500" y1="325" x2="0" y2="325"/>
		<line x1="500" y1="325" x2="1000" y2="325"/>
		<line x1="500" y1="375" x2="0" y2="375"/>
		<line x1="500" y1="375" x2="1000" y2="375"/>
		<line x1="500" y1="625" x2="0" y2="625"/>
		<line x1="500" y1="625" x2="1000" y2="625"/>
		<line x1="500" y1="675" x2="0" y2="675"/>
		<line x1="500" y1="675" x2="1000" y2="675"/>

		<line x1="325" y1="500" x2="325" y2="0"/>
		<line x1="325" y1="500" x2="325" y2="1000"/>
		<line x1="675" y1="500" x2="675" y2="0"/>
		<line x1="675" y1="500" x2="675" y2="1000"/>

		<line x1="475" y1="500" x2="475" y2="0"/>
        <line x1="475" y1="500" x2="475" y2="1000"/>
        <line x1="525" y1="500" x2="525" y2="0"/>
        <line x1="525" y1="500" x2="525" y2="1000"/>
	</g>

	<line class="d" x1="750" y1="0" x2="750" y2="1000"/>

	<path class="c" d=" M475.02,674.98H450c-97,0-174.98-77.98-174.98-174.98S353.01,325.02,450,325.02h25.01v-49.97h49.97
	v49.97H550c97,0,174.98,77.98,174.98,174.98S646.99,674.98,550,674.98h-25.01v49.97h-49.97V674.98z M450,624.95h25.01V374.93H450
	c-68.98,0-125.01,56.03-125.01,125.01S381.02,624.95,450,624.95z M550,374.99h-25.01v250.02H550c68.98,0,125.01-56.03,125.01-125.01
	S619.04,374.99,550,374.99z "/>

	<path class="cl" d=" M475.02,674.98H450c-97,0-174.98-77.98-174.98-174.98S353.01,325.02,450,325.02h25.01v-49.97h49.97
	v49.97H550c97,0,174.98,77.98,174.98,174.98S646.99,674.98,550,674.98h-25.01v49.97h-49.97V674.98z M450,624.95h25.01V374.93H450
	c-68.98,0-125.01,56.03-125.01,125.01S381.02,624.95,450,624.95z M550,374.99h-25.01v250.02H550c68.98,0,125.01-56.03,125.01-125.01
	S619.04,374.99,550,374.99z "/>

	<text class="l" transform="matrix(1 0 0 1 500 875)"> эф </text>
</g>
</svg>
