<?xml version="1.0" encoding="utf-8"?>
<svg xmlns="http://www.w3.org/2000/svg" viewBox="0 0 1000 1000">
<style type="text/css">@import url("../../letters.css");</style>

<g class="letter">
	<rect width="1000" height="1000" opacity="0"/>
	<g class="mj">
		<line x1="500" y1="175" x2="0" y2="175"/>
		<line x1="500" y1="175" x2="1000" y2="175"/>
		<line x1="500" y1="275" x2="0" y2="275"/>
		<line x1="500" y1="275" x2="1000" y2="275"/>
		<line x1="500" y1="725" x2="0" y2="725"/>
		<line x1="500" y1="725" x2="1000" y2="725"/>
		<line x1="500" y1="825" x2="0" y2="825"/>
		<line x1="500" y1="825" x2="1000" y2="825"/>

		<line x1="275" y1="500" x2="275" y2="0"/>
		<line x1="275" y1="500" x2="275" y2="1000"/>
		<line x1="725" y1="500" x2="725" y2="0"/>
		<line x1="725" y1="500" x2="725" y2="1000"/>
	</g>

	<g class="mn">
		<line x1="500" y1="325" x2="0" y2="325"/>
		<line x1="500" y1="325" x2="1000" y2="325"/>
		<line x1="500" y1="675" x2="0" y2="675"/>
		<line x1="500" y1="675" x2="1000" y2="675"/>

		<line x1="325" y1="500" x2="325" y2="0"/>
		<line x1="325" y1="500" x2="325" y2="1000"/>
		<line x1="675" y1="500" x2="675" y2="0"/>
		<line x1="675" y1="500" x2="675" y2="1000"/>
	</g>

	<line class="d" x1="750" y1="0" x2="750" y2="1000"/>

	<path class="c" d=" M499.97,725.01c-71.02,0-134.01-32.99-174.97-83.98V825h-49.97V275h49.97v83.98
	C365.97,307.99,429.01,275,499.97,275c123.99,0,225,101.01,225,225C724.97,624.05,623.96,725.01,499.97,725.01z M499.97,675.04
	c96.99,0,174.97-77.98,174.97-174.98s-77.98-174.98-174.97-174.98s-174.97,77.98-174.97,174.98S402.98,675.04,499.97,675.04z "/>

	<path class="cl" d=" M499.97,725.01c-71.02,0-134.01-32.99-174.97-83.98V825h-49.97V275h49.97v83.98
	C365.97,307.99,429.01,275,499.97,275c123.99,0,225,101.01,225,225C724.97,624.05,623.96,725.01,499.97,725.01z M499.97,675.04
	c96.99,0,174.97-77.98,174.97-174.98s-77.98-174.98-174.97-174.98s-174.97,77.98-174.97,174.98S402.98,675.04,499.97,675.04z "/>

	<text class="l" transform="matrix(1 0 0 1 500 875)"> эр </text>
</g>
</svg>
