<?xml version="1.0" encoding="utf-8"?>
<svg xmlns="http://www.w3.org/2000/svg" viewBox="0 0 1000 1000">
<style type="text/css">@import url("../../letters.css");</style>

<g class="letter">
	<rect width="1000" height="1000" opacity="0"/>
	<g class="mj">
		<line x1="500" y1="175" x2="0" y2="175"/>
		<line x1="500" y1="175" x2="1000" y2="175"/>
		<line x1="500" y1="275" x2="0" y2="275"/>
		<line x1="500" y1="275" x2="1000" y2="275"/>
		<line x1="500" y1="725" x2="0" y2="725"/>
		<line x1="500" y1="725" x2="1000" y2="725"/>
		<line x1="500" y1="825" x2="0" y2="825"/>
		<line x1="500" y1="825" x2="1000" y2="825"/>
		
		<line x1="275" y1="500" x2="275" y2="0"/>
		<line x1="275" y1="500" x2="275" y2="1000"/>
		<line x1="725" y1="500" x2="725" y2="0"/>
		<line x1="725" y1="500" x2="725" y2="1000"/>
	</g>

	<g class="mn">
		<line x1="500" y1="325" x2="0" y2="325"/>
		<line x1="500" y1="325" x2="1000" y2="325"/>
		<line x1="500" y1="675" x2="0" y2="675"/>
		<line x1="500" y1="675" x2="1000" y2="675"/>

		<line x1="225" y1="500" x2="225" y2="0"/>
		<line x1="225" y1="500" x2="225" y2="1000"/>
		<line x1="325" y1="500" x2="325" y2="0"/>
		<line x1="325" y1="500" x2="325" y2="1000"/>
		<line x1="675" y1="500" x2="675" y2="0"/>
		<line x1="675" y1="500" x2="675" y2="1000"/>

		<line x1="500" y1="425" x2="0" y2="425"/>
        <line x1="500" y1="425" x2="1000" y2="425"/>
        <line x1="500" y1="475" x2="0" y2="475"/>
        <line x1="500" y1="475" x2="1000" y2="475"/>
	</g>

	<line class="d" x1="750" y1="0" x2="750" y2="1000"/>

	<path class="c" d=" M274.9,325h-50v-50h100v150h250c83,0,150,67,150,150c0,83-67,150-150,150H275
	L274.9,325L274.9,325z M575,474.9h-250v200h250c55,0,100-45,100-100C675,519.9,630,474.9,575,474.9z "/>

	<path class="cl" d=" M274.9,325h-50v-50h100v150h250c83,0,150,67,150,150c0,83-67,150-150,150H275
	L274.9,325L274.9,325z M575,474.9h-250v200h250c55,0,100-45,100-100C675,519.9,630,474.9,575,474.9z "/>

	<text class="l" transform="matrix(1 0 0 1 500 875)"> твёрдый знак </text>
</g>
</svg>
