<?xml version="1.0" encoding="utf-8"?>
<svg xmlns="http://www.w3.org/2000/svg" viewBox="0 0 1000 1000">
<style type="text/css">@import url("../../letters.css");</style>

<g class="letter">
	<rect width="1000" height="1000" opacity="0"/>
	<g class="mj">
		<line x1="500" y1="175" x2="0" y2="175"/>
		<line x1="500" y1="175" x2="1000" y2="175"/>
		<line x1="500" y1="275" x2="0" y2="275"/>
		<line x1="500" y1="275" x2="1000" y2="275"/>
		<line x1="500" y1="725" x2="0" y2="725"/>
		<line x1="500" y1="725" x2="1000" y2="725"/>
		<line x1="500" y1="825" x2="0" y2="825"/>
		<line x1="500" y1="825" x2="1000" y2="825"/>

		<line x1="275" y1="500" x2="275" y2="0"/>
		<line x1="275" y1="500" x2="275" y2="1000"/>
		<line x1="725" y1="500" x2="725" y2="0"/>
		<line x1="725" y1="500" x2="725" y2="1000"/>
	</g>

	<g class="mn">
		<line x1="500" y1="675" x2="0" y2="675"/>
		<line x1="500" y1="675" x2="1000" y2="675"/>

		<line x1="325" y1="500" x2="325" y2="0"/>
		<line x1="325" y1="500" x2="325" y2="1000"/>
		<line x1="675" y1="500" x2="675" y2="0"/>
		<line x1="675" y1="500" x2="675" y2="1000"/>

		<line x1="500" y1="425" x2="0" y2="425"/>
        <line x1="500" y1="425" x2="1000" y2="425"/>
        <line x1="500" y1="475" x2="0" y2="475"/>
        <line x1="500" y1="475" x2="1000" y2="475"/>
	</g>

	<line class="d" x1="750" y1="0" x2="750" y2="1000"/>

	<path class="c" d=" M275.03,275h49.97v149.96h250.02c83.02,0,149.96,67,149.96,150.02
	S657.97,725,575.01,725H275.03V275z M575.01,474.99H324.99v199.99h250.02c55.01,0,99.99-44.99,99.99-99.99
	C675.01,519.97,630.02,474.99,575.01,474.99z "/>

	<path class="cl" d=" M275.03,275h49.97v149.96h250.02c83.02,0,149.96,67,149.96,150.02
	S657.97,725,575.01,725H275.03V275z M575.01,474.99H324.99v199.99h250.02c55.01,0,99.99-44.99,99.99-99.99
	C675.01,519.97,630.02,474.99,575.01,474.99z "/>

	<text class="l" transform="matrix(1 0 0 1 500 875)"> мягкий знак </text>
</g>
</svg>
