<?xml version="1.0" encoding="utf-8"?>
<svg xmlns="http://www.w3.org/2000/svg" viewBox="0 0 1000 1000">
<style type="text/css">@import url("../../letters.css");</style>

<g class="letter">
	<rect width="1000" height="1000" opacity="0"/>
	<g class="mj">
		<line x1="500" y1="175" x2="0" y2="175"/>
		<line x1="500" y1="175" x2="1000" y2="175"/>
		<line x1="500" y1="275" x2="0" y2="275"/>
		<line x1="500" y1="275" x2="1000" y2="275"/>
		<line x1="500" y1="725" x2="0" y2="725"/>
		<line x1="500" y1="725" x2="1000" y2="725"/>
		<line x1="500" y1="825" x2="0" y2="825"/>
		<line x1="500" y1="825" x2="1000" y2="825"/>
		
		<line x1="275" y1="500" x2="275" y2="0"/>
		<line x1="275" y1="500" x2="275" y2="1000"/>
		<line x1="825" y1="500" x2="825" y2="0"/>
		<line x1="825" y1="500" x2="825" y2="1000"/>
	</g>

	<g class="mn">
		<line x1="500" y1="325" x2="0" y2="325"/>
		<line x1="500" y1="325" x2="1000" y2="325"/>
		<line x1="500" y1="675" x2="0" y2="675"/>
		<line x1="500" y1="675" x2="1000" y2="675"/>

		<line x1="325" y1="500" x2="325" y2="0"/>
		<line x1="325" y1="500" x2="325" y2="1000"/>
		<line x1="375" y1="500" x2="375" y2="0"/>
		<line x1="375" y1="500" x2="375" y2="1000"/>
		<line x1="425" y1="500" x2="425" y2="0"/>
		<line x1="425" y1="500" x2="425" y2="1000"/>
		<line x1="775" y1="500" x2="775" y2="0"/>
		<line x1="775" y1="500" x2="775" y2="1000"/>

		<line x1="500" y1="475" x2="0" y2="475"/>
        <line x1="500" y1="475" x2="1000" y2="475"/>
        <line x1="500" y1="525" x2="0" y2="525"/>
        <line x1="500" y1="525" x2="1000" y2="525"/>
	</g>

	<line class="d" x1="850" y1="0" x2="850" y2="1000"/>

	<path class="c" d=" M275,275h50v200h51c12-112,108-200,224-200c124,0,225,101,225,225s-101,225-225,225
	c-116,0-212-88-224-200h-51v200h-50V275z M600,325c-97,0-175,78-175,175s78,175,175,175s175-78,175-175C775,403,697,325,600,325z "/>

	<path class="cl" d=" M275,275h50v200h51c12-112,108-200,224-200c124,0,225,101,225,225s-101,225-225,225
	c-116,0-212-88-224-200h-51v200h-50V275z M600,325c-97,0-175,78-175,175s78,175,175,175s175-78,175-175C775,403,697,325,600,325z "/>

	<text class="l" transform="matrix(1 0 0 1 500 875)"> ю </text>
</g>
</svg>
