<?xml version="1.0" encoding="utf-8"?>
<svg xmlns="http://www.w3.org/2000/svg" viewBox="0 0 1000 1000">
<style type="text/css">@import url("../../letters.css");</style>

<g class="letter">
	<rect width="1000" height="1000" opacity="0"/>
	<g class="mj">
		<line x1="500" y1="175" x2="0" y2="175"/>
		<line x1="500" y1="175" x2="1000" y2="175"/>
		<line x1="500" y1="275" x2="0" y2="275"/>
		<line x1="500" y1="275" x2="1000" y2="275"/>
		<line x1="500" y1="725" x2="0" y2="725"/>
		<line x1="500" y1="725" x2="1000" y2="725"/>
		<line x1="500" y1="825" x2="0" y2="825"/>
		<line x1="500" y1="825" x2="1000" y2="825"/>

		<line x1="275" y1="500" x2="275" y2="0"/>
		<line x1="275" y1="500" x2="275" y2="1000"/>
		<line x1="725" y1="500" x2="725" y2="0"/>
		<line x1="725" y1="500" x2="725" y2="1000"/>
	</g>

	<g class="mn">
		<line x1="500" y1="325" x2="0" y2="325"/>
		<line x1="500" y1="325" x2="1000" y2="325"/>
		<line x1="500" y1="775" x2="0" y2="775"/>
		<line x1="500" y1="775" x2="1000" y2="775"/>

		<line x1="675" y1="500" x2="675" y2="0"/>
		<line x1="675" y1="500" x2="675" y2="1000"/>

		<line x1="500" y1="425" x2="0" y2="425"/>
        <line x1="500" y1="425" x2="1000" y2="425"/>
        <line x1="500" y1="475" x2="0" y2="475"/>
        <line x1="500" y1="475" x2="1000" y2="475"/>
	</g>

	<line class="d" x1="750" y1="0" x2="750" y2="1000"/>

	<path class="c" d=" M275,275H725v50.03c0,37.97-13.98,73-37.97,99.99H725v49.97C725,667.96,568.02,825,374.99,825H275
	v-50.03h99.99c165.98,0,299.98-134.01,299.98-299.98h-225v-49.97h125.01c55.01,0,99.99-44.99,99.99-99.99H275V275z "/>

	<path class="cl" d=" M275,275H725v50.03c0,37.97-13.98,73-37.97,99.99H725v49.97C725,667.96,568.02,825,374.99,825H275
	v-50.03h99.99c165.98,0,299.98-134.01,299.98-299.98h-225v-49.97h125.01c55.01,0,99.99-44.99,99.99-99.99H275V275z "/>

	<text class="l" transform="matrix(1 0 0 1 500 875)"> ะทั </text>
</g>
</svg>
