<?xml version="1.0" encoding="utf-8"?>
<svg xmlns="http://www.w3.org/2000/svg" viewBox="0 0 1000 1000">
<style type="text/css">@import url("../../letters.css");</style>

<g class="letter">
	<rect width="1000" height="1000" opacity="0"/>
	<g class="mj">
		<line x1="500" y1="175" x2="0" y2="175"/>
		<line x1="500" y1="175" x2="1000" y2="175"/>
		<line x1="500" y1="275" x2="0" y2="275"/>
		<line x1="500" y1="275" x2="1000" y2="275"/>
		<line x1="500" y1="725" x2="0" y2="725"/>
		<line x1="500" y1="725" x2="1000" y2="725"/>
		<line x1="500" y1="825" x2="0" y2="825"/>
		<line x1="500" y1="825" x2="1000" y2="825"/>

		<line x1="275" y1="500" x2="275" y2="0"/>
		<line x1="275" y1="500" x2="275" y2="1000"/>
		<line x1="725" y1="500" x2="725" y2="0"/>
		<line x1="725" y1="500" x2="725" y2="1000"/>
	</g>

	<g class="mn">
		<line x1="325" y1="500" x2="325" y2="0"/>
		<line x1="325" y1="500" x2="325" y2="1000"/>
		<line x1="675" y1="500" x2="675" y2="0"/>
		<line x1="675" y1="500" x2="675" y2="1000"/>

		<line x1="475" y1="500" x2="475" y2="0"/>
        <line x1="475" y1="500" x2="475" y2="1000"/>
        <line x1="525" y1="500" x2="525" y2="0"/>
        <line x1="525" y1="500" x2="525" y2="1000"/>

		<line x1="500" y1="425" x2="0" y2="425"/>
        <line x1="500" y1="425" x2="1000" y2="425"/>
        <line x1="500" y1="475" x2="0" y2="475"/>
        <line x1="500" y1="475" x2="1000" y2="475"/>
	</g>

	<line class="d" x1="750" y1="0" x2="750" y2="1000"/>

	<path class="c" d=" M724.94,275c0,74.98-40.97,141.02-102.99,174.98c62.02,34.01,102.99,99.99,102.99,174.98v99.99
	h-49.97v-99.99c0-83.02-67-149.96-149.96-149.96V725h-49.97V474.99c-83.02,0-150.02,67-150.02,149.96v99.99h-49.97v-99.99
	c0-74.98,40.97-140.96,102.99-174.98C316.09,415.96,275.06,349.98,275.06,275h49.97c0,83.02,67,150.02,150.02,150.02V275h49.97
	v150.02c83.02,0,149.96-67,149.96-150.02H724.94z "/>

	<path class="cl" d=" M724.94,275c0,74.98-40.97,141.02-102.99,174.98c62.02,34.01,102.99,99.99,102.99,174.98v99.99
	h-49.97v-99.99c0-83.02-67-149.96-149.96-149.96V725h-49.97V474.99c-83.02,0-150.02,67-150.02,149.96v99.99h-49.97v-99.99
	c0-74.98,40.97-140.96,102.99-174.98C316.09,415.96,275.06,349.98,275.06,275h49.97c0,83.02,67,150.02,150.02,150.02V275h49.97
	v150.02c83.02,0,149.96-67,149.96-150.02H724.94z "/>

	<text class="l" transform="matrix(1 0 0 1 500 875)"> жэ </text>
</g>
</svg>
