<svg xmlns="http://www.w3.org/2000/svg" viewBox="0 0 1995.2 762.1" fill="#FFFFFF">

<defs>
	<linearGradient id="grad11" gradientUnits="userSpaceOnUse" x1="-1383.0957" y1="3243.7175" x2="-1614.7461" y2="3243.7175" gradientTransform="matrix(0.7071 -0.7071 0.7071 0.7071 -277.0956 -2931.4695)">
		<stop offset="0" style="stop-color:#E2DDD9"/>
		<stop offset="0.5" style="stop-color:#FF88B9">
			<animate attributeName="offset" 
					values="0.5;0.7;0.5;0.3;0.5" 
					keyTimes="0;0.25;0.5;0.75;1"
					calcMode="spline"
					keySplines="0.42 0 0.58 1; 0.42 0 0.58 1; 0.42 0 0.58 1; 0.42 0 0.58 1"
					dur="10s" 
					repeatCount="indefinite"/>
		</stop>
		<stop offset="1" style="stop-color:#F50066"/>
	</linearGradient>
	<linearGradient id="grad12" gradientUnits="userSpaceOnUse" x1="-1337.4601" y1="3256.0051" x2="-1428.7314" y2="3443.1396" gradientTransform="matrix(0.7071 -0.7071 0.7071 0.7071 -277.0956 -2931.4695)">
		<stop offset="0" style="stop-color:#E2DDD9"/>
		<stop offset="0.5" style="stop-color:#FF88B9">
			<animate attributeName="offset" 
				values="0.5;0.7;0.5;0.3;0.5" 
				keyTimes="0;0.25;0.5;0.75;1"
				calcMode="spline"
				keySplines="0.42 0 0.58 1; 0.42 0 0.58 1; 0.42 0 0.58 1; 0.42 0 0.58 1"
				dur="10s" 
				repeatCount="indefinite"/>
		</stop>
		<stop offset="1" style="stop-color:#F50066"/>
	</linearGradient>
	<linearGradient id="grad13" gradientUnits="userSpaceOnUse" x1="-3808.1951" y1="-3719.0281" x2="-4039.8455" y2="-3719.0281" gradientTransform="matrix(-0.7071 0.7071 -0.7071 -0.7071 -4365.8491 321.2999)">
		<stop offset="0" style="stop-color:#E2DDD9"/>
		<stop offset="0.5" style="stop-color:#FF88B9">
			<animate attributeName="offset" 
				values="0.5;0.7;0.5;0.3;0.5" 
				keyTimes="0;0.25;0.5;0.75;1"
				calcMode="spline"
				keySplines="0.42 0 0.58 1; 0.42 0 0.58 1; 0.42 0 0.58 1; 0.42 0 0.58 1"
				dur="10s" 
				repeatCount="indefinite"/>
		</stop>
		<stop offset="1" style="stop-color:#F50066"/>
	</linearGradient>
	<linearGradient id="grad14" gradientUnits="userSpaceOnUse" x1="-3621.0605" y1="-3704.4448" x2="-3995.3293" y2="-3521.9019" gradientTransform="matrix(-0.7071 0.7071 -0.7071 -0.7071 -4365.8491 321.2999)">
		<stop offset="0" style="stop-color:#E2DDD9"/>
		<stop offset="0.5" style="stop-color:#FF88B9">
			<animate attributeName="offset" 
				values="0.5;0.7;0.5;0.3;0.5" 
				keyTimes="0;0.25;0.5;0.75;1"
				calcMode="spline"
				keySplines="0.42 0 0.58 1; 0.42 0 0.58 1; 0.42 0 0.58 1; 0.42 0 0.58 1"
				dur="10s" 
				repeatCount="indefinite"/>
		</stop>
		<stop offset="1" style="stop-color:#F50066"/>
	</linearGradient>


	<linearGradient id="grad21" gradientUnits="userSpaceOnUse" x1="-889.0354" y1="3736.9646" x2="-1120.6859" y2="3736.9646" gradientTransform="matrix(0.7071 -0.7071 0.7071 0.7071 -277.0956 -2931.4695)">
		<stop offset="0" style="stop-color:#E2DDD9"/>
		<stop offset="0.5" style="stop-color:#22E0FF">
			<animate attributeName="offset" 
				values="0.5;0.7;0.5;0.3;0.5" 
				keyTimes="0;0.25;0.5;0.75;1"
				calcMode="spline"
				keySplines="0.42 0 0.58 1; 0.42 0 0.58 1; 0.42 0 0.58 1; 0.42 0 0.58 1"
				dur="10s" 
				begin="3s" 
				repeatCount="indefinite"/>
		</stop>
		<stop offset="1" style="stop-color:#0F33FF"/>
	</linearGradient>
	<linearGradient id="grad22" gradientUnits="userSpaceOnUse" x1="-843.4421" y1="3749.3376" x2="-934.6993" y2="3936.4426" gradientTransform="matrix(0.7071 -0.7071 0.7071 0.7071 -277.0956 -2931.4695)">
		<stop offset="0" style="stop-color:#E2DDD9"/>
		<stop offset="0.5" style="stop-color:#22E0FF">
			<animate attributeName="offset" 
				values="0.5;0.7;0.5;0.3;0.5" 
				keyTimes="0;0.25;0.5;0.75;1"
				calcMode="spline"
				keySplines="0.42 0 0.58 1; 0.42 0 0.58 1; 0.42 0 0.58 1; 0.42 0 0.58 1"
				dur="10s" 
				begin="3s" 
				repeatCount="indefinite"/>
		</stop>
		<stop offset="1" style="stop-color:#0F33FF"/>
	</linearGradient>
	<linearGradient id="grad23" gradientUnits="userSpaceOnUse" x1="-4302.2554" y1="-4212.2754" x2="-4533.9058" y2="-4212.2754" gradientTransform="matrix(-0.7071 0.7071 -0.7071 -0.7071 -4365.8491 321.2999)">
		<stop offset="0" style="stop-color:#E2DDD9"/>
		<stop offset="0.5" style="stop-color:#22E0FF">
			<animate attributeName="offset" 
				values="0.5;0.7;0.5;0.3;0.5" 
				keyTimes="0;0.25;0.5;0.75;1"
				calcMode="spline"
				keySplines="0.42 0 0.58 1; 0.42 0 0.58 1; 0.42 0 0.58 1; 0.42 0 0.58 1"
				dur="10s" 
				begin="3s" 
				repeatCount="indefinite"/>
		</stop>
		<stop offset="1" style="stop-color:#0F33FF"/>
	</linearGradient>
	<linearGradient id="grad24" gradientUnits="userSpaceOnUse" x1="-4115.1211" y1="-4197.6562" x2="-4489.3896" y2="-4015.1135" gradientTransform="matrix(-0.7071 0.7071 -0.7071 -0.7071 -4365.8491 321.2999)">
		<stop offset="0" style="stop-color:#E2DDD9"/>
		<stop offset="0.5" style="stop-color:#22E0FF">
			<animate attributeName="offset" 
				values="0.5;0.7;0.5;0.3;0.5" 
				keyTimes="0;0.25;0.5;0.75;1"
				calcMode="spline"
				keySplines="0.42 0 0.58 1; 0.42 0 0.58 1; 0.42 0 0.58 1; 0.42 0 0.58 1"
				dur="10s" 
				begin="3s" 
				repeatCount="indefinite"/>
		</stop>
		<stop offset="1" style="stop-color:#0F33FF"/>
	</linearGradient>


	<linearGradient id="grad31" gradientUnits="userSpaceOnUse" x1="-5142.5381" y1="-4664.8237" x2="-4910.8877" y2="-4664.8237" gradientTransform="matrix(-0.7071 0.7071 -0.7071 -0.7071 -6676.5352 596.0417)">
		<stop offset="0" style="stop-color:#E2DDD9"/>
		<stop offset="0.5" style="stop-color:#FFBE1D">
			<animate attributeName="offset" 
				values="0.5;0.7;0.5;0.3;0.5" 
				keyTimes="0;0.25;0.5;0.75;1"
				calcMode="spline"
				keySplines="0.42 0 0.58 1; 0.42 0 0.58 1; 0.42 0 0.58 1; 0.42 0 0.58 1"
				dur="10s" 
				begin="6s" 
				repeatCount="indefinite"/>
		</stop>
		<stop offset="1" style="stop-color:#FF3605"/>
	</linearGradient>
	<linearGradient id="grad32" gradientUnits="userSpaceOnUse" x1="-1876.9438" y1="2749.8694" x2="-1645.2935" y2="2749.8694" gradientTransform="matrix(0.7071 -0.7071 0.7071 0.7071 -277.0956 -2931.4695)">
		<stop offset="0" style="stop-color:#E2DDD9"/>
		<stop offset="0.5" style="stop-color:#FFBE1D">
			<animate attributeName="offset" 
				values="0.5;0.7;0.5;0.3;0.5" 
				keyTimes="0;0.25;0.5;0.75;1"
				calcMode="spline"
				keySplines="0.42 0 0.58 1; 0.42 0 0.58 1; 0.42 0 0.58 1; 0.42 0 0.58 1"
				dur="10s" 
				begin="6s" 
				repeatCount="indefinite"/>
		</stop>
		<stop offset="1" style="stop-color:#FF3605"/>
	</linearGradient>
	<linearGradient id="grad33" gradientUnits="userSpaceOnUse" x1="-2064.0781" y1="2619.4607" x2="-1689.8094" y2="2436.9177" gradientTransform="matrix(0.7071 -0.7071 0.7071 0.7071 -277.0956 -2931.4695)">
		<stop offset="0" style="stop-color:#E2DDD9"/>
		<stop offset="0.5" style="stop-color:#FFBE1D">
			<animate attributeName="offset" 
				values="0.5;0.7;0.5;0.3;0.5" 
				keyTimes="0;0.25;0.5;0.75;1"
				calcMode="spline"
				keySplines="0.42 0 0.58 1; 0.42 0 0.58 1; 0.42 0 0.58 1; 0.42 0 0.58 1"
				dur="10s" 
				begin="6s" 
				repeatCount="indefinite"/>
		</stop>
		<stop offset="1" style="stop-color:#FF3605"/>
	</linearGradient>
	<linearGradient id="grad34" gradientUnits="userSpaceOnUse" x1="-5188.1738" y1="-4792.9365" x2="-5096.9023" y2="-4980.0713" gradientTransform="matrix(-0.7071 0.7071 -0.7071 -0.7071 -6676.5352 596.0417)">
		<stop offset="0" style="stop-color:#E2DDD9"/>
		<stop offset="0.5" style="stop-color:#FFBE1D">
			<animate attributeName="offset" 
				values="0.5;0.7;0.5;0.3;0.5" 
				keyTimes="0;0.25;0.5;0.75;1"
				calcMode="spline"
				keySplines="0.42 0 0.58 1; 0.42 0 0.58 1; 0.42 0 0.58 1; 0.42 0 0.58 1"
				dur="10s" 
				begin="6s" 
				repeatCount="indefinite"/>
		</stop>
		<stop offset="1" style="stop-color:#FF3605"/>
	</linearGradient>
</defs>

<rect fill="#2B2B2B" x="790.8" y="47.2" width="413.6" height="715.5"/>
<g>
	<polygon style="fill:url(#grad11);" points="1195.3,496.9 949.6,578.8 718,347.2 963.7,265.3 "/>
	<polygon style="fill:url(#grad12);" points="1277.2,251.2 1195.3,496.9 949.6,578.8 1031.5,333.1 "/>
	<polygon style="fill:url(#grad13);" points="799.9,101.5 1045.6,19.6 1277.2,251.2 1031.5,333.1 "/>
	<polygon style="fill:url(#grad14);" points="718,347.2 799.9,101.5 1045.6,19.6 963.7,265.3 "/>
</g>

<g>
	<path d="M788.1,419.6c15-10.7,28.8-23.1,41.1-36.9c12.5-14,23.5-29.3,33-45.5c9.6-16.5,17.6-33.9,23.8-51.9
		c6.2-17.8,10.4-36.1,12.8-54.8c2.3-17.8,2.7-35.9,0.8-53.8c-0.3-2.7-0.7-5.4-1-8.1c-0.2-1.7-2.1-3.8-3.5-4.6
		c-1.5-0.8-3.1-1.1-4.9-0.9c-3.8,0.5-6.5,3.7-6.6,7.5c-0.5,26.3,0.2,52.6,2,78.8c1.9,26.6,5,53.2,9.3,79.6
		c2.4,14.6,5.1,29.1,8.2,43.6c0.8,3.7,4.8,5.9,8.4,5.5c3.6-0.5,6.8-3.7,6.6-7.5c-0.8-18-6.8-35.7-16-51.1
		c-9.6-16-22.9-30.1-38.9-40c-7.1-4.4-15-8.4-23.2-10.3c-6.7-1.6-13.8-2.1-20.6-1.3c-7.2,0.9-14.2,2.9-20.5,6.6
		c-6.1,3.6-11.3,8.6-14.9,14.7c-8.5,14.5-6.2,32.9,0.9,47.5c5,10.4,14.9,17.5,26,20.3c12.2,3.1,25.1,1.9,37.2-0.8
		c13.9-3,27.4-8.4,40.1-14.6c12.5-6.1,24.6-13.5,35.7-21.9c10.5-8,20.3-16.8,28.1-27.4c1.4-1.9,2.8-3.9,3.9-6
		c2-3.5,0.9-8.5-2.7-10.4c-3.6-1.9-8.3-1-10.4,2.7c-1.2,2.1-2.5,4.1-3.9,6c-0.2,0.3-0.4,0.5-0.6,0.8c-0.9,1.1,1.1-1.4,0.5-0.7
		c-0.4,0.5-0.8,1-1.2,1.5c-0.9,1.1-1.8,2.1-2.7,3.1c-3.9,4.3-8.1,8.4-12.5,12.1c-1.2,1-2.5,2.1-3.7,3.1c-0.6,0.5-1.2,1-1.8,1.4
		c-0.3,0.2-0.7,0.5-1,0.8c-0.4,0.3-1.1,0.8,0.9-0.7c-0.2,0.1-0.4,0.3-0.5,0.4c-2.6,2-5.3,4-8.1,5.9c-5.6,3.9-11.4,7.5-17.4,10.8
		c-6.8,3.8-13.8,7.2-20.9,10.2c0.6-0.3,1.2-0.5,1.8-0.8c-9.3,3.9-18.9,7.2-28.7,9.2c-2.6,0.5-5.2,1-7.8,1.3c0.7-0.1,1.4-0.2,2-0.3
		c-6.3,0.8-12.7,1.1-19,0.2c0.7,0.1,1.3,0.2,2,0.3c-3.7-0.5-7.4-1.4-10.9-2.9c0.6,0.3,1.2,0.5,1.8,0.8c-1.8-0.8-3.5-1.7-5.2-2.7
		c-0.4-0.3-0.8-0.6-1.3-0.9c-0.2-0.1-0.3-0.2-0.5-0.3c-0.9-0.6,1.9,1.5,0.8,0.6c-0.7-0.6-1.5-1.2-2.2-1.9c-0.7-0.7-1.4-1.4-2-2.1
		c-0.2-0.2-0.3-0.4-0.5-0.6c-0.6-0.8,1.3,1.8,0.7,0.9c-0.3-0.4-0.6-0.9-0.9-1.3c-1.2-1.7-2.1-3.6-3-5.5c0.3,0.6,0.5,1.2,0.8,1.8
		c-2-4.8-3.5-9.9-4.2-15.1c0.1,0.7,0.2,1.4,0.3,2c-0.5-3.6-0.5-7.3-0.1-10.9c-0.1,0.7-0.2,1.4-0.3,2c0.4-3,1.2-5.8,2.3-8.6
		c-0.3,0.6-0.5,1.2-0.8,1.8c0.9-2,2-4,3.2-5.8c0.1-0.2,0.3-0.4,0.4-0.6c0.9-1.2-1,1.2-0.5,0.7c0.3-0.4,0.7-0.8,1-1.2
		c0.7-0.8,1.5-1.6,2.3-2.3c0.4-0.4,0.8-0.7,1.2-1c0.6-0.5,2.4-1.8,0,0c0.9-0.6,1.7-1.2,2.6-1.8c1.9-1.2,3.8-2.2,5.9-3.1
		c-0.6,0.3-1.2,0.5-1.8,0.8c3.8-1.6,7.7-2.6,11.7-3.1c-0.7,0.1-1.4,0.2-2,0.3c4.5-0.6,9-0.6,13.5,0c-0.7-0.1-1.4-0.2-2-0.3
		c4.7,0.6,9.2,1.9,13.6,3.8c-0.6-0.3-1.2-0.5-1.8-0.8c4.9,2.1,9.7,4.6,14.2,7.5c2.3,1.5,4.4,3,6.6,4.6c1.2,0.9-1.5-1.2-0.4-0.3
		c0.3,0.2,0.6,0.5,0.9,0.7c0.5,0.4,1,0.8,1.4,1.2c1,0.9,2,1.7,3.1,2.6c4,3.6,7.8,7.5,11.2,11.6c0.9,1,1.7,2.1,2.5,3.1
		c0.9,1.1-1-1.3-0.4-0.5c0.2,0.2,0.4,0.5,0.5,0.7c0.4,0.6,0.9,1.2,1.3,1.8c1.6,2.2,3,4.4,4.5,6.7c3.2,5.1,5.9,10.4,8.3,15.9
		c-0.3-0.6-0.5-1.2-0.8-1.8c3.4,8.1,5.8,16.5,7,25.2c-0.1-0.7-0.2-1.4-0.3-2c0.3,2.5,0.6,5.1,0.7,7.6c5-0.7,10-1.4,15-2
		c-3.7-17.3-6.9-34.7-9.5-52.2c-0.8-5-1.5-9.9-2.1-14.9c0.1,0.7,0.2,1.4,0.3,2c-2.3-17.1-4.1-34.4-5.4-51.6
		c-1.3-17.2-2-34.4-2.3-51.7c-0.1-9.8-0.1-19.7,0.1-29.5c-5,0.7-10,1.4-15,2c0,0.2,0.1,0.5,0.1,0.7c-0.1-0.7-0.2-1.4-0.3-2
		c2.1,15.5,2.4,31.3,1.1,46.9c-0.4,4.5-0.8,8.9-1.4,13.4c0.1-0.7,0.2-1.4,0.3-2c-2.5,18.5-7.1,36.8-13.4,54.4
		c-1.8,5-3.7,10-5.8,14.9c0.3-0.6,0.5-1.2,0.8-1.8c-7.4,17.5-16.5,34.2-27.2,49.8c-2.6,3.8-5.4,7.6-8.2,11.3
		c-0.3,0.5-1.8,2.3-0.2,0.2c-0.3,0.4-0.7,0.9-1,1.3c-0.7,0.9-1.5,1.8-2.2,2.8c-1.5,1.8-3,3.6-4.5,5.4c-6,7.1-12.4,13.8-19.2,20.2
		c-3.7,3.5-7.5,6.8-11.4,10c-1,0.8-2,1.7-3.1,2.5c-0.5,0.4-0.9,0.7-1.4,1.1c-0.2,0.1-0.4,0.3-0.6,0.4c1.9-1.5,0.9-0.7,0.4-0.3
		c-2.1,1.6-4.2,3.1-6.4,4.7c-1.6,1.2-3,2.5-3.5,4.6c-0.5,1.8-0.3,4.3,0.8,5.9C779.8,420.1,784.7,422,788.1,419.6L788.1,419.6z"/>
	<path d="M917.8,351c1.9,4.2,4.3,8.2,7.5,11.6c2.4,2.6,5.8,5,9.3,5.6c4,0.7,8,0.1,11.5-2.2c3.3-2.2,5.8-5,8.1-8.2
		c4.6-6.5,7.6-14.1,10.3-21.5c2.8-7.7,5-15.6,6.8-23.5c1.5-6.5,2.8-13,3.5-19.6c0-0.4,0.1-0.8,0.1-1.2c-0.1,0.7-0.2,1.4-0.3,2l0,0
		c-0.6,1.1-1.3,2.2-2,3.4l0,0c-3.6,0-7.2,0-10.8,0l0,0c-0.6-1.1-1.3-2.2-2-3.4v0.1c-0.1-0.7-0.2-1.4-0.3-2c0.5,4,0.6,8.1,1,12.2
		c0.8,9.6,1.9,19.1,3.2,28.6c0.8,6.2,1.8,12.3,2.9,18.4c0.3,1.8,2,3.7,3.5,4.6c1.6,1,4,1.4,5.9,0.8s3.6-1.7,4.6-3.5
		c1-1.9,1.2-3.8,0.8-5.9c-1.1-6.4-2.1-12.7-3-19.1c0.1,0.7,0.2,1.4,0.3,2c-1.6-12-2.7-24.1-3.6-36.2c-0.2-2.7-0.3-5.3-2.4-7.4
		c-1.3-1.3-3.5-2.3-5.4-2.2c-2.1,0.1-3.8,0.9-5.4,2.2c-2.5,2.1-2.2,5.8-2.6,8.7c0.1-0.7,0.2-1.4,0.3-2
		c-1.6,11.9-4.7,23.8-8.5,35.2c-1.2,3.6-2.5,7.2-4,10.7c0.3-0.6,0.5-1.2,0.8-1.8c-1.4,3.4-3,6.7-4.9,9.8c-0.4,0.7-0.8,1.4-1.3,2
		c-0.2,0.3-0.4,0.6-0.7,1c-0.1,0.1-0.2,0.3-0.3,0.4c0,0.1-0.1,0.1-0.1,0.2c-0.6,0.8,0.9-1.2,0.8-1.1c-0.9,1-1.7,2.1-2.7,3
		c-0.3,0.2-0.5,0.5-0.8,0.7c-0.3,0.3,1.9-1.4,1-0.8c-0.1,0.1-0.3,0.2-0.4,0.3c-0.5,0.4-1.1,0.6-1.7,0.9c0.6-0.3,1.2-0.5,1.8-0.8
		c-0.7,0.3-1.3,0.5-2,0.6c0.7-0.1,1.4-0.2,2-0.3c-0.6,0.1-1.2,0.1-1.8,0c0.7,0.1,1.4,0.2,2,0.3c-0.6-0.1-1.3-0.3-1.9-0.5
		c0.6,0.3,1.2,0.5,1.8,0.8c-0.5-0.2-0.9-0.4-1.3-0.7c-0.2-0.1-0.4-0.3-0.6-0.4c-1-0.6,1.8,1.5,0.8,0.6c-0.9-0.8-1.8-1.7-2.6-2.6
		s1.4,1.9,0.5,0.6c-0.2-0.3-0.4-0.6-0.7-0.9c-0.5-0.7-0.9-1.3-1.3-2c-1-1.6-1.8-3.3-2.6-5.1c-0.8-1.6-2.9-3-4.6-3.5
		c-1.8-0.5-4.3-0.3-5.9,0.8c-1.6,1-3.1,2.6-3.5,4.6C916.5,347.2,916.9,349,917.8,351L917.8,351z"/>
	<path d="M980.7,320.5c-0.9,8.2-0.8,17.9,5,24.4c5,5.4,13.2,5.1,19,1.3c6.3-4.1,10.4-10.5,13.1-17.3
		c1.7-4.2,2.6-8.8,3.9-13.2c1.2-3.9,2.4-7.8,3.5-11.8c2.8-9.9,3.8-20.1,4.1-30.4c-5.1,0-10.2,0-15.2,0c-0.2,6.1-0.1,12.2,0.9,18.2
		c0.7,4.5,1.8,9,2.4,13.6c-0.1-0.7-0.2-1.4-0.3-2c0.7,5.2,1,10.5,2.4,15.5c1.1,3.9,2.9,7.5,6.3,9.8c3.2,2.2,7.7,2,11,0
		c2.8-1.7,4.8-4.4,6.6-7.1c3.9-6.1,6.4-13.1,8.8-19.8c2.5-7.2,4.6-14.6,6.2-22c0.8-3.6,1.4-7.3,1.9-11c0.2-1.9,0.5-3.9,0.4-5.8
		c-0.2-2.7-1.2-5.3-3.8-6.7c-4.4-2.3-9.8-0.2-11.2,4.6c-0.3,0.9-0.3,1.8-0.4,2.8c-0.1,1.4-0.2,2.9-0.3,4.3
		c-0.3,5.4-0.3,10.9-0.2,16.3c0.2,7.1,0.8,14.2,2,21.2c1.1,6,2.9,12.3,7.1,16.8c5,5.5,13.1,5.4,18.9,1.3c1.7-1.2,3.3-2.5,4.8-4
		c2.8-2.8,3-8,0-10.8s-7.8-3-10.8,0c-0.5,0.5-1,1-1.6,1.5c-0.2,0.2-0.5,0.4-0.7,0.6c-1,0.9,1.9-1.4,0.7-0.5
		c-0.8,0.6-1.7,1.1-2.7,1.5c0.6-0.3,1.2-0.5,1.8-0.8c-0.6,0.2-1.2,0.4-1.9,0.5c0.7-0.1,1.3-0.2,2-0.3c-0.5,0.1-1,0.1-1.5,0
		c0.7,0.1,1.3,0.2,2,0.3c-0.5-0.1-1-0.2-1.4-0.4c0.6,0.3,1.2,0.5,1.8,0.8c-0.3-0.1-0.5-0.2-0.7-0.4c-0.1-0.1-0.2-0.1-0.3-0.2
		c-0.8-0.4,1.8,1.5,1.1,0.9c-0.5-0.4-0.9-0.9-1.3-1.3c-0.2-0.2,1.4,2,0.8,1.1c-0.1-0.1-0.2-0.3-0.3-0.4c-0.2-0.3-0.4-0.6-0.6-0.9
		c-0.4-0.7-0.7-1.4-1-2.1c0.3,0.6,0.5,1.2,0.8,1.8c-1.7-4.1-2.5-8.6-3.1-13c0.1,0.7,0.2,1.4,0.3,2c-1.4-10.6-1.5-21.5-1-32.3
		c0.1-1.3,0.1-2.6,0.3-3.9c-0.1,0.7-0.2,1.4-0.3,2c0-0.1,0-0.2,0.1-0.4c-0.3,0.6-0.5,1.2-0.8,1.8c0.5-1.2-0.4-0.3-2.7,2.7
		c-1.3,0.4-2.6,0.7-3.8,1l0,0c-1.3-0.4-2.6-0.7-3.8-1c-0.9-0.9-1.8-1.8-2.7-2.7c-0.3-0.6-0.5-1.2-0.8-1.8c0,0,0,0,0,0.1
		c-0.1-0.7-0.2-1.4-0.3-2c0.2,2-0.1,4.1-0.4,6c0.1-0.7,0.2-1.4,0.3-2c-1.4,10.5-4.4,20.9-7.9,31c-1,2.9-2.1,5.8-3.3,8.6
		c0.3-0.6,0.5-1.2,0.8-1.8c-1.3,3.1-2.8,6.2-4.6,9.1c-0.4,0.6-0.7,1.1-1.1,1.7c-0.7,1,1.6-2,0.6-0.7c-0.2,0.2-0.4,0.4-0.6,0.6
		s-0.4,0.4-0.5,0.5c-0.6,0.6-1.5,0.8,0.9-0.7c-0.4,0.2-0.7,0.5-1.1,0.6c0.6-0.3,1.2-0.5,1.8-0.8c-0.3,0.1-0.5,0.2-0.8,0.2
		c0.7-0.1,1.3-0.2,2-0.3c-0.2,0-0.4,0-0.6,0c0.7,0.1,1.4,0.2,2,0.3c-0.2,0-0.4-0.1-0.6-0.2c0.6,0.3,1.2,0.5,1.8,0.8
		c-0.1,0-0.2-0.1-0.3-0.2c-0.9-0.6,1.1,0.9,1.2,0.9c-0.1-0.2-0.5-0.5-0.6-0.7c0.2,0.1,1.5,2.1,0.8,1c-0.1-0.1-0.2-0.3-0.3-0.5
		c-0.2-0.4-0.4-0.8-0.6-1.2c0.3,0.6,0.5,1.2,0.8,1.8c-1.2-3-1.8-6.2-2.2-9.4c0.1,0.7,0.2,1.4,0.3,2c-0.6-5-1.2-10-2.1-14.9
		c-0.5-2.7-1.1-5.4-1.5-8.2c0.1,0.7,0.2,1.4,0.3,2c-0.7-5-0.6-10.1-0.4-15.1c0.1-4-3.6-7.8-7.6-7.6c-4.2,0.2-7.5,3.4-7.6,7.6
		c-0.1,5.2-0.4,10.4-1.1,15.6c0.1-0.7,0.2-1.4,0.3-2c-0.8,6-2.4,11.8-4.1,17.6c-1.1,3.6-2.2,7.1-3.2,10.7c-1,3.4-1.7,6.8-3.1,10.1
		c0.3-0.6,0.5-1.2,0.8-1.8c-0.6,1.5-1.4,3-2.3,4.5c-0.4,0.7-0.8,1.3-1.3,1.9c-0.1,0.1-0.2,0.3-0.3,0.5c-0.7,0.9,1.4-1.7,0.6-0.8
		c-0.2,0.3-0.5,0.6-0.7,0.8c-0.9,1-1.9,1.9-2.9,2.8c2.4-2,0.6-0.5-0.2,0c-0.5,0.3-1,0.6-1.6,0.8c0.6-0.3,1.2-0.5,1.8-0.8
		c-0.8,0.3-1.5,0.5-2.3,0.6c0.7-0.1,1.3-0.2,2-0.3c-0.6,0.1-1.1,0.1-1.7,0c0.7,0.1,1.4,0.2,2,0.3c-0.5-0.1-1-0.2-1.5-0.4
		c0.6,0.3,1.2,0.5,1.8,0.8c-0.4-0.2-0.7-0.4-1-0.6c-0.8-0.4,1.7,1.5,0.9,0.7c-0.2-0.2-0.3-0.3-0.5-0.5c-0.9-0.9,0.8,1.1,0.7,0.9
		s-0.3-0.4-0.4-0.6c-0.3-0.5-0.5-1-0.8-1.5c0.3,0.6,0.5,1.2,0.8,1.8c-0.6-1.5-1-3.1-1.2-4.7c0.1,0.7,0.2,1.4,0.3,2
		c-0.5-3.8-0.3-7.7,0.1-11.5c0.2-1.8-1-4.1-2.2-5.4c-1.3-1.3-3.5-2.3-5.4-2.2c-2,0.1-4,0.7-5.4,2.2
		C981.5,316.7,980.9,318.4,980.7,320.5L980.7,320.5z"/>
	<path d="M1122.4,264.9c0.2-6.7-1.6-13.3-6.1-18.4c-3.7-4.2-9.5-6.4-15-6.4c-11.8-0.1-22.8,8.5-27.8,18.9
		c-3.2,6.7-4.7,14-4.2,21.4c0.3,4.3,1,8.7,2.3,12.9c1.3,4.4,3,8.8,5.4,12.8c1.9,3.2,4.5,6.2,7.7,8.1c3.4,2,7.1,2.5,10.9,1.8
		c6.3-1.1,11.1-6.3,14.6-11.2c3.9-5.3,6.6-11.5,8.8-17.7c2.1-6,3.5-12.4,3.6-18.8C1122.6,267.2,1122.6,266,1122.4,264.9
		c-0.3-2.1-0.7-3.8-2.2-5.4c-1.3-1.3-3.5-2.3-5.4-2.2c-4,0.2-7.8,3.4-7.6,7.6c0.1,4.5,0.6,9,1.2,13.4c0.6,3.9,1.3,7.8,2.6,11.5
		c1.3,4,3.1,8,6.1,11c3.4,3.5,8.4,5,13.1,3.7c6.1-1.6,10.4-7,13.8-11.9c1.1-1.5,1.2-4.1,0.8-5.9c-0.5-1.8-1.8-3.7-3.5-4.6
		c-3.9-2.1-8-0.8-10.4,2.7c-0.3,0.4-1.1,1.1-1.2,1.6c0-0.1,1.2-1.5,0.5-0.7c-0.2,0.2-0.4,0.5-0.6,0.7c-0.7,0.8-1.3,1.5-2,2.2
		c-0.3,0.3-0.6,0.5-0.9,0.8c-1,0.9,1.7-1.2,0.5-0.4c-0.6,0.4-1.2,0.8-1.9,1c0.6-0.3,1.2-0.5,1.8-0.8c-0.6,0.2-1.1,0.4-1.8,0.5
		c0.7-0.1,1.3-0.2,2-0.3c-0.4,0-0.9,0-1.3,0c0.7,0.1,1.4,0.2,2,0.3c-0.5-0.1-0.9-0.2-1.4-0.4c0.6,0.3,1.2,0.5,1.8,0.8
		c-0.3-0.1-0.5-0.2-0.8-0.4c-0.1-0.1-0.2-0.2-0.3-0.2c-0.8-0.4,1.6,1.4,1,0.8c-0.2-0.2-0.5-0.4-0.7-0.7c-0.5-0.6-1.1-1.7,0.4,0.6
		c-0.9-1.4-1.7-2.7-2.3-4.2c0.3,0.6,0.5,1.2,0.8,1.8c-1.9-4.6-2.9-9.6-3.6-14.6c0.1,0.7,0.2,1.4,0.3,2
		C1122.8,272,1122.5,268.5,1122.4,264.9c-5.1,0-10.2,0-15.2,0c0.3,2.7,0.2,5.4-0.2,8.1c0.1-0.7,0.2-1.4,0.3-2
		c-0.8,5.7-2.5,11.3-4.7,16.6c0.3-0.6,0.5-1.2,0.8-1.8c-1.7,4-3.7,7.9-6.3,11.5c-0.1,0.2-0.3,0.4-0.4,0.5c1-1.2,1.2-1.6,0.8-1
		c-0.1,0.1-0.2,0.2-0.3,0.3c-0.3,0.3-0.5,0.6-0.8,1c-0.6,0.7-1.3,1.4-2,2c-0.3,0.2-0.6,0.5-0.9,0.7c-0.8,0.7,1.9-1.4,0.8-0.6
		c-0.2,0.1-0.3,0.2-0.4,0.3c-0.7,0.4-1.3,0.8-2,1.1c0.6-0.3,1.2-0.5,1.8-0.8c-0.7,0.3-1.5,0.5-2.2,0.6c0.7-0.1,1.3-0.2,2-0.3
		c-0.7,0.1-1.3,0.1-1.9,0c0.7,0.1,1.3,0.2,2,0.3c-0.7-0.1-1.3-0.3-1.9-0.5c0.6,0.3,1.2,0.5,1.8,0.8c-0.4-0.2-0.8-0.4-1.1-0.6
		c-0.2-0.1-0.3-0.2-0.5-0.3c-1.1-0.7,1.6,1.3,0.8,0.6c-0.7-0.7-1.4-1.3-2-2.1c-0.7-0.9,1.3,1.8,0.6,0.7c-0.2-0.2-0.3-0.5-0.5-0.7
		c-0.3-0.5-0.7-1-1-1.6c-0.8-1.3-1.4-2.7-2-4.1c0.3,0.6,0.5,1.2,0.8,1.8c-1.9-4.5-3.2-9.2-3.9-14c0.1,0.7,0.2,1.4,0.3,2
		c-0.5-3.6-0.5-7.2-0.1-10.8c-0.1,0.7-0.2,1.4-0.3,2c0.4-2.9,1.2-5.7,2.3-8.4c-0.3,0.6-0.5,1.2-0.8,1.8c0.8-1.8,1.7-3.5,2.7-5.1
		c0.2-0.4,0.5-0.7,0.7-1s0.9-1.2-0.1,0.1c-1,1.3-0.3,0.4-0.1,0.1c0.5-0.7,1.1-1.3,1.7-1.9s1.2-1.2,1.8-1.7
		c0.2-0.1,0.3-0.2,0.5-0.4c1-0.9-1.4,1.1-0.8,0.7c0.3-0.2,0.7-0.5,1-0.7c1.3-0.9,2.7-1.7,4.2-2.3c-0.6,0.3-1.2,0.5-1.8,0.8
		c1.6-0.7,3.3-1.2,5.1-1.4c-0.7,0.1-1.4,0.2-2,0.3c1.4-0.2,2.9-0.2,4.3,0c-0.7-0.1-1.4-0.2-2-0.3c1.2,0.2,2.3,0.5,3.4,0.9
		c-0.6-0.3-1.2-0.5-1.8-0.8c0.7,0.3,1.4,0.7,2,1.1c0.2,0.1,0.3,0.3,0.5,0.4c0,0-1.9-1.5-1.1-0.8c0.3,0.3,0.6,0.5,0.8,0.8
		c0.3,0.3,0.5,0.6,0.8,0.9c0.6,0.7-1.3-1.8-0.8-1c0.1,0.2,0.2,0.4,0.4,0.5c0.5,0.7,0.9,1.5,1.2,2.3c-0.3-0.6-0.5-1.2-0.8-1.8
		c0.7,1.6,1.1,3.2,1.3,4.9c-0.1-0.7-0.2-1.4-0.3-2c0.2,1.5,0.2,2.9,0.2,4.4c-0.1,4,3.6,7.8,7.6,7.6
		C1119,272.4,1122.3,269.2,1122.4,264.9L1122.4,264.9z"/>
	<path d="M1144.8,257.8c0.3-0.8,0.6-1.6,0.9-2.4c-0.3,0.6-0.5,1.2-0.8,1.8c1.6-3.8,3.7-7.5,5.9-11c0.6-1,1.3-2,2-2.9
		c0.3-0.5,0.7-0.9,1-1.4c0.2-0.2,0.4-0.5,0.5-0.7c0.5-0.6-1,1.2-0.8,1c0.1-0.1,0.2-0.3,0.3-0.4c1.4-1.7,2.9-3.4,4.5-4.9
		c0.4-0.4,0.9-0.8,1.4-1.2c0.1-0.1,0.2-0.1,0.3-0.2c0.6-0.5-1.7,1.2-1,0.8c0.2-0.2,0.5-0.3,0.7-0.5c0.8-0.6,1.7-1.1,2.7-1.5
		c-0.6,0.3-1.2,0.5-1.8,0.8c0.8-0.3,1.5-0.6,2.4-0.7c-0.7,0.1-1.3,0.2-2,0.3c0.6-0.1,1.2-0.1,1.8,0c-0.7-0.1-1.4-0.2-2-0.3
		c0.5,0.1,1.1,0.2,1.6,0.4c-0.6-0.3-1.2-0.5-1.8-0.8c0.3,0.1,0.5,0.2,0.8,0.4s1.2,0.9,0-0.1c-1.3-1-0.3-0.3,0,0
		c0.2,0.2,0.5,0.5,0.7,0.8c0.6,0.6-0.8-1.1-0.8-1c0.1,0.2,0.2,0.3,0.3,0.5c0.2,0.3,0.4,0.6,0.6,0.9c0.5,0.8,0.9,1.6,1.2,2.5
		c-0.3-0.6-0.5-1.2-0.8-1.8c0.8,1.9,1.3,3.9,1.6,5.9c-0.1-0.7-0.2-1.4-0.3-2c0.3,2.1,0.2,4.2-0.1,6.3c0.1-0.7,0.2-1.4,0.3-2
		c-0.4,2.5-1.1,4.9-2,7.2c0.3-0.6,0.5-1.2,0.8-1.8c-1,2.3-2.1,4.4-3.5,6.5c-0.7,1.1-1.5,2.2-2.3,3.3c-0.6,0.8,0.4-0.4,0.5-0.6
		c-0.1,0.2-0.5,0.6-0.6,0.8c-0.4,0.5-0.9,1-1.3,1.5c-3.3,3.9-7,7.4-10.8,10.6c4.3,1.8,8.7,3.6,13,5.4c0-0.9,0.1-1.7,0.2-2.6
		c-0.1,0.7-0.2,1.4-0.3,2c0.2-1.6,0.6-3.1,1.2-4.6c-0.3,0.6-0.5,1.2-0.8,1.8c0.3-0.7,0.7-1.5,1.1-2.1c0.4-0.7,2.2-2.8,0.3-0.6
		c1-1.1,1.9-2.1,3-3c1.3-1.1-1,0.7-0.5,0.4c0.3-0.2,0.6-0.4,0.9-0.6c0.6-0.4,1.2-0.8,1.8-1.1c1.3-0.7,2.6-1.4,3.9-2
		c-0.6,0.3-1.2,0.5-1.8,0.8c2.1-0.9,4.2-1.6,6.4-1.9c-0.7,0.1-1.3,0.2-2,0.3c1.3-0.2,2.7-0.2,4,0c-0.7-0.1-1.3-0.2-2-0.3
		c1.2,0.2,2.4,0.5,3.5,1c-0.6-0.3-1.2-0.5-1.8-0.8c0.6,0.2,1.2,0.5,1.7,0.9c0.8,0.5,2.7,2.1,0.2,0c1,0.9,2,1.8,2.9,2.8
		c0.1,0.1,0.2,0.3,0.3,0.4c0.6,0.7-1.4-1.8-0.8-1c0.2,0.3,0.4,0.6,0.7,0.9c0.4,0.6,0.8,1.3,1.2,1.9c0.8,1.4,1.6,2.9,2.2,4.4
		c-0.3-0.6-0.5-1.2-0.8-1.8c2.3,5.6,3.6,11.5,4.5,17.5c-0.1-0.7-0.2-1.4-0.3-2c1.2,8.9,1.3,18,0.5,27c-0.2,2.7-0.5,5.4-0.9,8.1
		c0.1-0.7,0.2-1.4,0.3-2c-1.2,8.7-3.1,17.4-5.9,25.7c-0.8,2.3-1.7,4.6-2.6,6.8c0.3-0.6,0.5-1.2,0.8-1.8c-2.1,5-4.6,9.8-7.6,14.2
		c-0.3,0.5-0.7,1-1,1.5c-0.2,0.2-0.4,0.5-0.5,0.7c-0.6,0.8,0.9-1.1,0.8-1s-0.3,0.4-0.4,0.5c-0.8,1-1.6,1.9-2.4,2.8
		c-1.6,1.7-3.3,3.3-5.1,4.8c-0.6,0.5,1.7-1.3,1.1-0.8c-0.2,0.1-0.3,0.2-0.5,0.4c-0.4,0.3-0.8,0.6-1.3,0.9
		c-0.8,0.5-1.6,1.1-2.4,1.5c-1.6,1-3.2,1.8-4.9,2.5c0.6-0.3,1.2-0.5,1.8-0.8c-2.5,1-5.1,1.8-7.9,2.2c0.7-0.1,1.4-0.2,2-0.3
		c-1.9,0.2-3.8,0.3-5.7,0c0.7,0.1,1.3,0.2,2,0.3c-1.5-0.2-3.1-0.6-4.5-1.2c0.6,0.3,1.2,0.5,1.8,0.8c-1-0.4-1.9-0.9-2.7-1.5
		c-0.2-0.1-0.4-0.4-0.7-0.5c0.1,0,1.8,1.5,0.9,0.7c-0.4-0.4-0.8-0.7-1.2-1.1c-0.4-0.4-0.7-0.8-1.1-1.2c2,2.2,0.6,0.8,0.2,0.1
		c-0.6-1-1.2-2-1.6-3.1c0.3,0.6,0.5,1.2,0.8,1.8c-0.9-2.1-1.4-4.4-1.7-6.6c0.1,0.7,0.2,1.4,0.3,2c-0.5-3.7-0.3-7.4,0.2-11.1
		c-0.1,0.7-0.2,1.4-0.3,2c1-7.2,3.2-14.1,6-20.8c-0.3,0.6-0.5,1.2-0.8,1.8c2.9-6.9,6.5-13.4,10.7-19.6c1.1-1.6,2.1-3.2,3.3-4.7
		c0.5-0.7,1.1-1.5,1.6-2.2c0.3-0.4,0.6-0.7,0.8-1.1c0,0-1.3,1.6-0.6,0.7c0.2-0.2,0.3-0.5,0.5-0.7c2.4-3,4.9-6,7.6-8.9
		c5.2-5.7,10.9-11.1,16.8-16c1.5-1.2,3-2.5,4.5-3.6c0.2-0.1,0.4-0.3,0.5-0.4c-1.8,1.4-1.1,0.9-0.7,0.6s0.7-0.5,1.1-0.8
		c0.8-0.6,1.6-1.2,2.4-1.8c3-2.2,6.2-4.3,9.3-6.4c6.7-4.3,13.8-8,21.1-11.1c-0.6,0.3-1.2,0.5-1.8,0.8c7.4-3.1,15.2-5.6,23.2-6.7
		c-0.7,0.1-1.3,0.2-2,0.3c4.4-0.6,8.9-0.7,13.3-0.1c-0.7-0.1-1.3-0.2-2-0.3c0.9,0.1,1.8,0.3,2.8,0.5c3.9,0.8,8.4-1.1,9.4-5.3
		c0.9-3.8-1.2-8.5-5.3-9.4c-14.4-3-29.4,0.6-42.8,6.1c-16.9,7-32.3,17-46.1,29c-13.9,12-26.3,26.3-35.3,42.4
		c-4.4,7.8-8,16.2-10.4,24.9c-2.5,9.2-3.9,19.9-0.8,29.2c2.7,7.8,8.3,14,16.3,16.5c7.9,2.5,16.3,0.5,23.6-2.9
		c12.5-5.8,21.4-17.1,27.2-29.3c6.3-13.4,9.8-27.9,11.5-42.6c1.6-13.4,1.4-27.2-1.3-40.4c-2.1-10.5-6.5-21.9-15.9-28
		c-4.8-3.1-10.5-3.7-16.1-2.8c-3.3,0.6-6.6,2-9.6,3.5c-4.6,2.3-8.6,5.6-11.7,9.7c-3.2,4.3-4.7,9.8-4.8,15.1c0,3,1.9,5.8,4.7,7
		c3,1.2,5.9,0.5,8.3-1.6c7.7-6.6,15.2-14.3,19.7-23.5c2.5-5.1,4.1-10.6,4.1-16.3c0-5.3-1.5-10.8-4.2-15.3
		c-2.1-3.6-5.3-6.6-9.5-7.8c-4-1.1-7.9-0.2-11.5,1.6c-2.9,1.4-5.4,3.6-7.6,5.9c-2.6,2.6-4.8,5.6-6.9,8.6
		c-3.8,5.4-7.2,11.5-9.3,17.8c-1.3,3.8,1.5,8.5,5.3,9.4C1139.6,264.1,1143.4,261.9,1144.8,257.8L1144.8,257.8z"/>
</g>
<g>
	<path d="M910.2,611.9v7.1c0,8.7-4.2,13.5-12.8,13.5h-4V653h-8.5v-54.4h12.6C906,598.4,910.2,603.2,910.2,611.9z
		 M893.5,606.2v18.4h4c2.7,0,4.2-1.2,4.2-5.1v-8.2c0-3.9-1.5-5.1-4.2-5.1L893.5,606.2L893.5,606.2z"/>
	<path d="M913.5,611.5c0-8.7,4.6-13.7,13-13.7s13,5,13,13.7v28.3c0,8.7-4.6,13.7-13,13.7s-13-5-13-13.7V611.5z
		 M922.1,640.3c0,3.9,1.7,5.4,4.4,5.4s4.4-1.5,4.4-5.4v-29.4c0-3.9-1.7-5.4-4.4-5.4s-4.4,1.5-4.4,5.4V640.3z"/>
	<path d="M961.5,611.8c0-4.9-1.7-6.2-4.4-6.2s-4.5,1.5-4.5,5.4v4.4h-7.8v-4c0-8.7,4.2-13.5,12.6-13.5
		c8.4,0,12.8,5,12.8,13.7v1.4c0,5.8-1.9,9.5-6,11.2c4.3,1.9,6,5.9,6,11.4v4.3c0,8.7-4.4,13.7-12.8,13.7c-8.4,0-12.8-5-12.8-13.7v-6
		h8.1v6.5c0,3.9,1.7,5.4,4.4,5.4s4.4-1.3,4.4-6.1v-4.3c0-5-1.7-6.9-5.6-6.9h-2.1v-7.8h2.6c3.2,0,5.1-1.4,5.1-5.8V611.8L961.5,611.8z
		"/>
	<path d="M975.1,611.5c0-8.7,4.6-13.7,13-13.7s13,5,13,13.7v28.3c0,8.7-4.6,13.7-13,13.7s-13-5-13-13.7V611.5z
		 M983.7,640.3c0,3.9,1.7,5.4,4.4,5.4s4.4-1.5,4.4-5.4v-29.4c0-3.9-1.7-5.4-4.4-5.4s-4.4,1.5-4.4,5.4V640.3z"/>
	<path d="M1032.2,610.9v1.9c0,5.6-1.7,9.2-5.5,11c4.6,1.8,6.4,5.9,6.4,11.7v4.4c0,8.4-4.4,12.9-13,12.9h-13.5v-54.4
		h12.9C1028.4,598.4,1032.2,602.5,1032.2,610.9z M1015.2,606.2v14.4h3.3c3.2,0,5.1-1.4,5.1-5.8v-3c0-3.9-1.3-5.6-4.3-5.6
		L1015.2,606.2L1015.2,606.2z M1015.2,628.3V645h4.9c2.9,0,4.4-1.3,4.4-5.4V635c0-5-1.6-6.6-5.5-6.6h-3.8V628.3z"/>
	<path d="M1038.2,652.8v-54.4h8.5v20.5h4c8.6,0,12.8,4.7,12.8,13.5v7.1c0,8.7-4.2,13.5-12.8,13.5L1038.2,652.8
		L1038.2,652.8z M1050.8,645.1c2.7,0,4.2-1.2,4.2-5.1v-8.2c0-3.9-1.5-5.1-4.2-5.1h-4v18.4L1050.8,645.1L1050.8,645.1z M1068.4,652.8
		v-54.4h8.5v54.4H1068.4z"/>
	<path d="M1092,652.8h-8.8v-54.4h7.6v34.5l3.1-12l7-22.5h9.4v54.4h-7.7v-38.4l-3.5,13.4L1092,652.8z M1100.8,586.3
		c-0.2,2.9-1.6,3.6-3.9,3.6c-2.2,0-3.4-0.7-3.7-3.6h-5.3c0.2,5.3,3,8.6,8.9,8.6c6.1,0,9.1-3.3,9.1-8.6H1100.8z"/>
	<path d="M931.9,701.8l-2.6,5v16.7h-8.6V669h8.6v23.7l11.2-23.7h8.6l-11.9,24.3l11.9,30.2h-8.8L931.9,701.8z"/>
	<path d="M978.5,681.6v1.9c0,5.6-1.7,9.2-5.5,11c4.6,1.8,6.4,5.9,6.4,11.7v4.4c0,8.4-4.4,12.9-13,12.9h-13.5V669h12.9
		C974.6,669,978.5,673.2,978.5,681.6z M961.4,676.8v14.4h3.3c3.2,0,5.1-1.4,5.1-5.8v-3c0-3.9-1.3-5.6-4.3-5.6L961.4,676.8
		L961.4,676.8z M961.4,699v16.7h4.9c2.9,0,4.4-1.3,4.4-5.4v-4.7c0-5-1.6-6.6-5.5-6.6H961.4z"/>
	<path d="M1012.1,723.5h-8.6l-1.5-9.9h-10.5l-1.5,9.9h-7.8l8.7-54.4h12.5L1012.1,723.5z M992.6,706.2h8.2l-4.1-27.5
		L992.6,706.2z"/>
	<path d="M1041.4,682.5v7.1c0,8.7-4.2,13.5-12.8,13.5h-4v20.5h-8.5v-54.4h12.6C1037.2,669,1041.4,673.8,1041.4,682.5z
		 M1024.6,676.8v18.4h4c2.7,0,4.2-1.2,4.2-5.1V682c0-3.9-1.5-5.1-4.2-5.1h-4V676.8z"/>
	<path d="M1045.4,669h8.5v46.7h9.7V669h8.7v46.8h3.7v14.9h-8.3v-7.3h-22.4V669H1045.4z"/>
</g>

<rect fill="#2B2B2B" x="1488.9" y="46.6" width="413.6" height="715.5"/>
<g>
	<polygon style="fill:url(#grad21);" points="1893.4,496.4 1647.8,578.3 1416.1,346.6 1661.8,264.7 "/>
	<polygon style="fill:url(#grad22);" points="1975.3,250.7 1893.4,496.4 1647.8,578.3 1729.7,332.6 "/>
	<polygon style="fill:url(#grad23);" points="1498,100.9 1743.7,19 1975.3,250.7 1729.7,332.6 "/>
	<polygon style="fill:url(#grad24);" points="1416.1,346.6 1498,100.9 1743.7,19 1661.8,264.7 "/>
</g>

<g>
	<path d="M1486.2,419c15.1-10.7,28.8-23.1,41.1-36.9c12.5-14,23.5-29.3,33-45.5c9.6-16.5,17.6-33.9,23.8-51.9
		c6.2-17.8,10.4-36.1,12.8-54.8c2.3-17.8,2.7-35.9,0.8-53.8c-0.3-2.7-0.7-5.4-1-8.1c-0.2-1.7-2.1-3.8-3.5-4.6
		c-1.5-0.8-3.1-1.1-4.9-0.9c-3.8,0.5-6.5,3.7-6.6,7.5c-0.5,26.3,0.2,52.6,2,78.8c1.9,26.6,5,53.2,9.3,79.6
		c2.4,14.6,5.1,29.1,8.2,43.6c0.8,3.7,4.8,5.9,8.4,5.5c3.6-0.5,6.8-3.7,6.6-7.5c-0.8-18-6.8-35.7-16-51.1
		c-9.6-16-22.9-30.1-38.9-40c-7.1-4.4-15-8.4-23.2-10.3c-6.7-1.6-13.8-2.1-20.6-1.3c-7.2,0.9-14.2,2.9-20.5,6.6
		c-6.1,3.6-11.3,8.6-14.9,14.7c-8.5,14.5-6.2,32.9,0.9,47.5c5.1,10.4,14.9,17.5,26,20.3c12.2,3.1,25.1,1.9,37.2-0.8
		c13.9-3,27.4-8.4,40.1-14.6c12.5-6.1,24.5-13.5,35.7-21.9c10.5-8,20.3-16.8,28.2-27.4c1.4-1.9,2.8-3.9,3.9-6
		c2-3.5,0.9-8.5-2.7-10.4s-8.3-1-10.4,2.7c-1.2,2.1-2.5,4.1-3.9,6c-0.2,0.3-0.4,0.5-0.6,0.8c-0.9,1.1,1.1-1.4,0.5-0.7
		c-0.4,0.5-0.8,1-1.2,1.5c-0.9,1.1-1.8,2.1-2.7,3.1c-3.9,4.3-8.1,8.4-12.5,12.1c-1.2,1-2.4,2.1-3.7,3.1c-0.6,0.5-1.2,1-1.8,1.4
		c-0.3,0.2-0.7,0.5-1,0.8c-0.4,0.3-1.1,0.8,0.9-0.7c-0.2,0.1-0.4,0.3-0.6,0.4c-2.6,2-5.3,4-8.1,5.9c-5.6,3.9-11.4,7.5-17.4,10.8
		c-6.8,3.8-13.8,7.2-20.9,10.2c0.6-0.3,1.2-0.5,1.8-0.8c-9.3,3.9-18.9,7.2-28.7,9.2c-2.6,0.5-5.2,1-7.8,1.3c0.7-0.1,1.3-0.2,2-0.3
		c-6.3,0.8-12.7,1.1-19,0.2c0.7,0.1,1.4,0.2,2,0.3c-3.7-0.5-7.4-1.4-10.9-2.9c0.6,0.3,1.2,0.5,1.8,0.8c-1.8-0.8-3.5-1.7-5.2-2.7
		c-0.4-0.3-0.8-0.6-1.3-0.9c-0.2-0.1-0.3-0.2-0.5-0.3c-0.8-0.6,1.9,1.5,0.8,0.6c-0.7-0.6-1.5-1.2-2.2-1.9c-0.7-0.7-1.3-1.4-2-2.1
		c-0.2-0.2-0.3-0.4-0.5-0.6c-0.6-0.8,1.3,1.8,0.7,0.9c-0.3-0.4-0.6-0.9-0.9-1.3c-1.2-1.7-2.1-3.6-3-5.5c0.3,0.6,0.5,1.2,0.8,1.8
		c-2-4.8-3.5-9.9-4.2-15.1c0.1,0.7,0.2,1.4,0.3,2c-0.5-3.6-0.5-7.3-0.1-10.9c-0.1,0.7-0.2,1.4-0.3,2c0.4-3,1.2-5.8,2.3-8.6
		c-0.3,0.6-0.5,1.2-0.8,1.8c0.9-2,1.9-4,3.2-5.8c0.1-0.2,0.3-0.4,0.4-0.6c0.9-1.2-1,1.2-0.5,0.7c0.3-0.4,0.7-0.8,1-1.2
		c0.7-0.8,1.5-1.6,2.3-2.3c0.4-0.4,0.8-0.7,1.2-1c0.6-0.5,2.4-1.8,0,0c0.9-0.6,1.7-1.2,2.6-1.8c1.9-1.2,3.9-2.2,5.9-3.1
		c-0.6,0.3-1.2,0.5-1.8,0.8c3.8-1.6,7.7-2.6,11.7-3.1c-0.7,0.1-1.3,0.2-2,0.3c4.5-0.6,9-0.6,13.5,0c-0.7-0.1-1.3-0.2-2-0.3
		c4.7,0.6,9.2,1.9,13.6,3.8c-0.6-0.3-1.2-0.5-1.8-0.8c4.9,2.1,9.7,4.6,14.2,7.5c2.3,1.5,4.4,3,6.6,4.6c1.1,0.9-1.5-1.2-0.4-0.3
		c0.3,0.2,0.6,0.5,0.9,0.7c0.5,0.4,0.9,0.8,1.4,1.2c1,0.9,2.1,1.7,3.1,2.6c4,3.6,7.8,7.5,11.2,11.6c0.9,1,1.7,2.1,2.5,3.1
		c0.9,1.1-1-1.3-0.4-0.5c0.2,0.2,0.4,0.5,0.6,0.7c0.4,0.6,0.9,1.2,1.3,1.8c1.6,2.2,3.1,4.4,4.5,6.7c3.2,5.1,5.9,10.4,8.3,15.9
		c-0.3-0.6-0.5-1.2-0.8-1.8c3.4,8.1,5.8,16.5,7,25.2c-0.1-0.7-0.2-1.4-0.3-2c0.3,2.5,0.6,5.1,0.7,7.6c5-0.7,10-1.4,15-2
		c-3.7-17.3-6.9-34.7-9.5-52.2c-0.8-5-1.5-9.9-2.1-14.9c0.1,0.7,0.2,1.4,0.3,2c-2.3-17.1-4.1-34.4-5.4-51.6s-2-34.4-2.3-51.7
		c-0.1-9.8-0.1-19.7,0.1-29.5c-5,0.7-10,1.4-15,2c0,0.2,0.1,0.5,0.1,0.7c-0.1-0.7-0.2-1.4-0.3-2c2.1,15.5,2.4,31.3,1.1,46.9
		c-0.4,4.5-0.8,8.9-1.4,13.4c0.1-0.7,0.2-1.4,0.3-2c-2.5,18.5-7.1,36.8-13.3,54.4c-1.8,5-3.7,10-5.8,14.9c0.3-0.6,0.5-1.2,0.8-1.8
		c-7.4,17.5-16.5,34.2-27.2,49.8c-2.6,3.8-5.4,7.6-8.2,11.3c-0.3,0.5-1.8,2.3-0.2,0.2c-0.3,0.4-0.7,0.9-1,1.3
		c-0.7,0.9-1.5,1.8-2.2,2.8c-1.5,1.8-3,3.6-4.5,5.4c-6,7.1-12.4,13.8-19.2,20.2c-3.7,3.5-7.5,6.8-11.4,10c-1,0.8-2.1,1.7-3.1,2.5
		c-0.5,0.4-0.9,0.7-1.4,1.1c-0.2,0.1-0.4,0.3-0.6,0.4c1.9-1.5,0.9-0.7,0.4-0.3c-2.1,1.6-4.2,3.1-6.3,4.7c-1.7,1.2-2.9,2.5-3.5,4.6
		c-0.5,1.8-0.3,4.3,0.8,5.9C1477.9,419.5,1482.8,421.5,1486.2,419L1486.2,419z"/>
	<path d="M1615.9,350.4c1.9,4.2,4.3,8.2,7.5,11.6c2.4,2.6,5.8,5,9.3,5.6c4,0.7,8,0.1,11.5-2.2c3.3-2.2,5.8-5,8.1-8.2
		c4.6-6.5,7.6-14.1,10.3-21.5c2.8-7.7,5-15.6,6.8-23.5c1.5-6.5,2.8-13,3.5-19.6c0-0.4,0.1-0.8,0.1-1.2c-0.1,0.7-0.2,1.4-0.3,2l0,0
		c-0.7,1.1-1.3,2.2-2,3.4l0,0c-3.6,0-7.2,0-10.8,0l0,0c-0.7-1.1-1.3-2.2-2-3.4v0.1c-0.1-0.7-0.2-1.4-0.3-2c0.5,4,0.6,8.1,1,12.2
		c0.8,9.6,1.9,19.1,3.2,28.6c0.8,6.2,1.8,12.3,2.9,18.4c0.3,1.8,2,3.7,3.5,4.6c1.6,1,4,1.4,5.9,0.8c1.8-0.6,3.6-1.7,4.6-3.5
		c1-1.9,1.2-3.8,0.8-5.9c-1.1-6.4-2.1-12.7-3-19.1c0.1,0.7,0.2,1.4,0.3,2c-1.6-12-2.7-24.1-3.6-36.2c-0.2-2.7-0.3-5.3-2.4-7.4
		c-1.3-1.3-3.5-2.3-5.4-2.2c-2.1,0.1-3.8,0.9-5.4,2.2c-2.5,2.1-2.2,5.8-2.6,8.7c0.1-0.7,0.2-1.4,0.3-2
		c-1.6,11.9-4.7,23.8-8.5,35.2c-1.2,3.6-2.5,7.2-4,10.7c0.3-0.6,0.5-1.2,0.8-1.8c-1.4,3.4-3,6.7-4.9,9.8c-0.4,0.7-0.8,1.4-1.3,2
		c-0.2,0.3-0.4,0.6-0.7,1c-0.1,0.1-0.2,0.3-0.3,0.4c0,0.1-0.1,0.1-0.2,0.2c-0.6,0.8,0.9-1.2,0.8-1.1c-0.9,1-1.7,2.1-2.7,3
		c-0.3,0.2-0.6,0.5-0.8,0.7c-0.3,0.3,1.9-1.4,1.1-0.8c-0.2,0.1-0.3,0.2-0.4,0.3c-0.5,0.4-1.1,0.6-1.7,0.9c0.6-0.3,1.2-0.5,1.8-0.8
		c-0.7,0.3-1.3,0.5-2,0.6c0.7-0.1,1.4-0.2,2-0.3c-0.6,0.1-1.2,0.1-1.8,0c0.7,0.1,1.3,0.2,2,0.3c-0.6-0.1-1.3-0.3-1.9-0.5
		c0.6,0.3,1.2,0.5,1.8,0.8c-0.4-0.2-0.9-0.4-1.3-0.7c-0.2-0.1-0.4-0.3-0.6-0.4c-1-0.6,1.8,1.5,0.8,0.6c-0.9-0.8-1.8-1.7-2.6-2.6
		c-0.8-0.9,1.4,1.9,0.5,0.6c-0.2-0.3-0.4-0.6-0.7-0.9c-0.5-0.7-0.9-1.3-1.3-2c-1-1.6-1.8-3.3-2.6-5.1c-0.8-1.6-2.9-3-4.6-3.5
		c-1.8-0.5-4.3-0.3-5.9,0.8c-1.6,1-3.1,2.6-3.5,4.6C1614.6,346.6,1615,348.4,1615.9,350.4L1615.9,350.4z"/>
	<path d="M1678.8,320c-0.9,8.2-0.9,17.9,5,24.4c5,5.4,13.2,5.1,19,1.3c6.3-4.1,10.4-10.5,13.1-17.3
		c1.7-4.2,2.6-8.8,3.9-13.2c1.2-3.9,2.4-7.8,3.5-11.8c2.8-9.9,3.8-20.1,4.1-30.4c-5.1,0-10.2,0-15.2,0c-0.2,6.1-0.1,12.2,0.9,18.2
		c0.7,4.5,1.8,9,2.4,13.6c-0.1-0.7-0.2-1.4-0.3-2c0.7,5.2,1,10.5,2.4,15.5c1.1,3.9,2.9,7.5,6.3,9.8c3.2,2.2,7.7,2,11,0
		c2.8-1.7,4.8-4.4,6.6-7.1c3.9-6.1,6.4-13.1,8.8-19.8c2.5-7.2,4.6-14.6,6.2-22c0.8-3.6,1.4-7.3,1.9-11c0.2-1.9,0.5-3.9,0.4-5.8
		c-0.2-2.7-1.2-5.3-3.8-6.7c-4.4-2.3-9.8-0.2-11.2,4.6c-0.3,0.9-0.3,1.8-0.4,2.8c-0.1,1.4-0.2,2.9-0.3,4.3
		c-0.3,5.4-0.3,10.9-0.2,16.3c0.2,7.1,0.8,14.2,2,21.2c1.1,6,2.9,12.3,7.1,16.8c5,5.5,13.1,5.4,18.9,1.3c1.7-1.2,3.3-2.5,4.8-4
		c2.8-2.8,3-8,0-10.8s-7.8-3-10.8,0c-0.5,0.5-1,1-1.6,1.5c-0.2,0.2-0.5,0.4-0.7,0.6c-1,0.9,1.9-1.4,0.7-0.5
		c-0.8,0.6-1.7,1.1-2.7,1.5c0.6-0.3,1.2-0.5,1.8-0.8c-0.6,0.2-1.2,0.4-1.9,0.5c0.7-0.1,1.3-0.2,2-0.3c-0.5,0.1-1,0.1-1.5,0
		c0.7,0.1,1.3,0.2,2,0.3c-0.5-0.1-1-0.2-1.4-0.4c0.6,0.3,1.2,0.5,1.8,0.8c-0.3-0.1-0.5-0.2-0.7-0.4c-0.1-0.1-0.2-0.1-0.3-0.2
		c-0.8-0.4,1.8,1.5,1.1,0.9c-0.5-0.4-0.9-0.9-1.3-1.3c-0.2-0.2,1.4,2,0.8,1.1c-0.1-0.1-0.2-0.3-0.3-0.4c-0.2-0.3-0.4-0.6-0.6-0.9
		c-0.4-0.7-0.7-1.4-1-2.1c0.3,0.6,0.5,1.2,0.8,1.8c-1.7-4.1-2.5-8.6-3.1-13c0.1,0.7,0.2,1.4,0.3,2c-1.4-10.6-1.5-21.5-1-32.3
		c0.1-1.3,0.1-2.6,0.3-3.9c-0.1,0.7-0.2,1.4-0.3,2c0-0.1,0-0.2,0.1-0.4c-0.3,0.6-0.5,1.2-0.8,1.8c0.5-1.2-0.4-0.3-2.7,2.7
		c-1.3,0.4-2.6,0.7-3.8,1l0,0c-1.3-0.4-2.6-0.7-3.8-1c-0.9-0.9-1.8-1.8-2.7-2.7c-0.3-0.6-0.5-1.2-0.8-1.8c0,0,0,0,0,0.1
		c-0.1-0.7-0.2-1.4-0.3-2c0.2,2-0.1,4.1-0.4,6c0.1-0.7,0.2-1.4,0.3-2c-1.4,10.5-4.4,20.9-7.9,31c-1,2.9-2.1,5.8-3.3,8.6
		c0.3-0.6,0.5-1.2,0.8-1.8c-1.3,3.1-2.8,6.2-4.6,9.1c-0.4,0.6-0.7,1.1-1.1,1.7c-0.7,1,1.6-2,0.6-0.7c-0.2,0.2-0.4,0.4-0.6,0.6
		s-0.4,0.4-0.5,0.5c-0.6,0.6-1.5,0.8,0.9-0.7c-0.4,0.2-0.7,0.5-1.1,0.6c0.6-0.3,1.2-0.5,1.8-0.8c-0.3,0.1-0.5,0.2-0.8,0.2
		c0.7-0.1,1.3-0.2,2-0.3c-0.2,0-0.4,0-0.6,0c0.7,0.1,1.4,0.2,2,0.3c-0.2,0-0.4-0.1-0.6-0.2c0.6,0.3,1.2,0.5,1.8,0.8
		c-0.1,0-0.2-0.1-0.3-0.2c-0.9-0.6,1.1,0.9,1.2,0.9c-0.1-0.2-0.5-0.5-0.6-0.7c0.2,0.1,1.5,2.1,0.8,1c-0.1-0.1-0.2-0.3-0.3-0.5
		c-0.2-0.4-0.4-0.8-0.6-1.2c0.3,0.6,0.5,1.2,0.8,1.8c-1.2-3-1.8-6.2-2.2-9.4c0.1,0.7,0.2,1.4,0.3,2c-0.6-5-1.2-10-2.1-14.9
		c-0.5-2.7-1.1-5.4-1.5-8.2c0.1,0.7,0.2,1.4,0.3,2c-0.7-5-0.6-10.1-0.4-15.1c0.1-4-3.6-7.8-7.6-7.6c-4.2,0.2-7.5,3.4-7.6,7.6
		c-0.2,5.2-0.4,10.4-1.1,15.6c0.1-0.7,0.2-1.4,0.3-2c-0.8,6-2.4,11.8-4.1,17.6c-1.1,3.6-2.2,7.1-3.2,10.7c-1,3.4-1.7,6.8-3.1,10.1
		c0.3-0.6,0.5-1.2,0.8-1.8c-0.7,1.5-1.4,3-2.3,4.5c-0.4,0.7-0.8,1.3-1.3,1.9c-0.1,0.1-0.2,0.3-0.3,0.5c-0.7,0.9,1.4-1.7,0.7-0.8
		c-0.2,0.3-0.5,0.6-0.7,0.8c-0.9,1-1.9,1.9-2.9,2.8c2.4-2,0.6-0.5-0.2,0c-0.5,0.3-1,0.6-1.6,0.8c0.6-0.3,1.2-0.5,1.8-0.8
		c-0.8,0.3-1.5,0.5-2.3,0.6c0.7-0.1,1.3-0.2,2-0.3c-0.6,0.1-1.1,0.1-1.7,0c0.7,0.1,1.3,0.2,2,0.3c-0.5-0.1-1-0.2-1.5-0.4
		c0.6,0.3,1.2,0.5,1.8,0.8c-0.4-0.2-0.7-0.4-1-0.6c-0.8-0.4,1.7,1.5,0.9,0.7c-0.2-0.2-0.3-0.3-0.5-0.5c-0.8-0.9,0.8,1.1,0.7,0.9
		c-0.1-0.2-0.3-0.4-0.4-0.6c-0.3-0.5-0.5-1-0.8-1.5c0.3,0.6,0.5,1.2,0.8,1.8c-0.6-1.5-1-3.1-1.2-4.7c0.1,0.7,0.2,1.4,0.3,2
		c-0.5-3.8-0.3-7.7,0.1-11.5c0.2-1.8-1-4.1-2.2-5.4c-1.3-1.3-3.5-2.3-5.4-2.2c-2,0.1-4,0.7-5.4,2.2
		C1679.6,316.2,1679,317.9,1678.8,320L1678.8,320z"/>
	<path d="M1820.5,264.4c0.2-6.7-1.6-13.3-6.1-18.4c-3.7-4.2-9.5-6.4-15-6.4c-11.8-0.1-22.8,8.5-27.8,18.9
		c-3.2,6.7-4.7,14-4.2,21.4c0.3,4.3,1,8.7,2.3,12.9c1.3,4.4,3,8.8,5.4,12.8c1.9,3.2,4.5,6.2,7.7,8.1c3.4,2,7.1,2.5,10.9,1.8
		c6.3-1.1,11.1-6.3,14.6-11.2c3.9-5.3,6.6-11.5,8.8-17.7c2.1-6,3.5-12.4,3.6-18.8C1820.7,266.6,1820.7,265.5,1820.5,264.4
		c-0.3-2.1-0.7-3.8-2.2-5.4c-1.3-1.3-3.5-2.3-5.4-2.2c-4,0.2-7.8,3.4-7.6,7.6c0.1,4.5,0.6,9,1.2,13.4c0.6,3.9,1.3,7.8,2.6,11.5
		c1.3,4,3.1,8,6.1,11c3.4,3.5,8.4,5,13.1,3.7c6.1-1.6,10.4-7,13.8-11.9c1.1-1.5,1.2-4.1,0.8-5.9c-0.5-1.8-1.8-3.7-3.5-4.6
		c-3.9-2.1-8-0.8-10.4,2.7c-0.3,0.4-1.1,1.1-1.2,1.6c0-0.1,1.2-1.5,0.5-0.7c-0.2,0.2-0.4,0.5-0.6,0.7c-0.7,0.8-1.3,1.5-2,2.2
		c-0.3,0.3-0.6,0.5-0.9,0.8c-1,0.9,1.7-1.2,0.5-0.4c-0.6,0.4-1.2,0.8-1.9,1c0.6-0.3,1.2-0.5,1.8-0.8c-0.6,0.2-1.1,0.4-1.8,0.5
		c0.7-0.1,1.3-0.2,2-0.3c-0.4,0-0.9,0-1.3,0c0.7,0.1,1.4,0.2,2,0.3c-0.5-0.1-0.9-0.2-1.4-0.4c0.6,0.3,1.2,0.5,1.8,0.8
		c-0.3-0.1-0.5-0.2-0.8-0.4c-0.1-0.1-0.2-0.2-0.3-0.2c-0.8-0.4,1.6,1.4,1,0.8c-0.2-0.2-0.5-0.4-0.7-0.7c-0.5-0.6-1.1-1.7,0.4,0.6
		c-0.9-1.4-1.7-2.7-2.3-4.2c0.3,0.6,0.5,1.2,0.8,1.8c-1.9-4.6-2.9-9.6-3.6-14.6c0.1,0.7,0.2,1.4,0.3,2
		C1820.9,271.5,1820.6,267.9,1820.5,264.4c-5.1,0-10.2,0-15.2,0c0.3,2.7,0.2,5.4-0.2,8.1c0.1-0.7,0.2-1.4,0.3-2
		c-0.8,5.7-2.5,11.3-4.7,16.6c0.3-0.6,0.5-1.2,0.8-1.8c-1.7,4-3.7,7.9-6.3,11.5c-0.1,0.2-0.3,0.4-0.4,0.5c1-1.2,1.2-1.6,0.8-1
		c-0.1,0.1-0.2,0.2-0.3,0.3c-0.3,0.3-0.5,0.6-0.8,1c-0.6,0.7-1.3,1.4-2,2c-0.3,0.2-0.6,0.5-0.9,0.7c-0.8,0.7,1.9-1.4,0.8-0.6
		c-0.2,0.1-0.3,0.2-0.4,0.3c-0.7,0.4-1.3,0.8-2,1.1c0.6-0.3,1.2-0.5,1.8-0.8c-0.7,0.3-1.5,0.5-2.2,0.6c0.7-0.1,1.3-0.2,2-0.3
		c-0.7,0.1-1.3,0.1-1.9,0c0.7,0.1,1.3,0.2,2,0.3c-0.7-0.1-1.3-0.3-1.9-0.5c0.6,0.3,1.2,0.5,1.8,0.8c-0.4-0.2-0.8-0.4-1.1-0.6
		c-0.2-0.1-0.3-0.2-0.5-0.3c-1.1-0.7,1.6,1.3,0.8,0.6c-0.7-0.7-1.4-1.3-2-2.1c-0.7-0.9,1.3,1.8,0.6,0.7c-0.2-0.2-0.3-0.5-0.5-0.7
		c-0.3-0.5-0.7-1-1-1.6c-0.8-1.3-1.4-2.7-2-4.1c0.3,0.6,0.5,1.2,0.8,1.8c-1.9-4.5-3.2-9.2-3.9-14c0.1,0.7,0.2,1.4,0.3,2
		c-0.5-3.6-0.5-7.2-0.1-10.8c-0.1,0.7-0.2,1.4-0.3,2c0.4-2.9,1.2-5.7,2.3-8.4c-0.3,0.6-0.5,1.2-0.8,1.8c0.8-1.8,1.7-3.5,2.7-5.1
		c0.2-0.4,0.5-0.7,0.7-1s0.9-1.2-0.1,0.1c-1,1.3-0.3,0.4-0.1,0.1c0.5-0.7,1.1-1.3,1.7-1.9s1.2-1.2,1.8-1.7
		c0.2-0.1,0.3-0.2,0.5-0.4c1-0.9-1.4,1.1-0.8,0.7c0.3-0.2,0.7-0.5,1-0.7c1.3-0.9,2.7-1.7,4.2-2.3c-0.6,0.3-1.2,0.5-1.8,0.8
		c1.6-0.7,3.3-1.2,5.1-1.4c-0.7,0.1-1.4,0.2-2,0.3c1.4-0.2,2.9-0.2,4.3,0c-0.7-0.1-1.4-0.2-2-0.3c1.2,0.2,2.3,0.5,3.4,0.9
		c-0.6-0.3-1.2-0.5-1.8-0.8c0.7,0.3,1.4,0.7,2,1.1c0.2,0.1,0.3,0.3,0.5,0.4c0,0-1.9-1.5-1.1-0.8c0.3,0.3,0.6,0.5,0.8,0.8
		c0.3,0.3,0.5,0.6,0.8,0.9c0.6,0.7-1.3-1.8-0.8-1c0.1,0.2,0.2,0.4,0.4,0.5c0.5,0.7,0.9,1.5,1.2,2.3c-0.3-0.6-0.5-1.2-0.8-1.8
		c0.7,1.6,1.1,3.2,1.3,4.9c-0.1-0.7-0.2-1.4-0.3-2c0.2,1.5,0.2,2.9,0.2,4.4c-0.1,4,3.6,7.8,7.6,7.6
		C1817.1,271.8,1820.4,268.6,1820.5,264.4L1820.5,264.4z"/>
	<path d="M1842.9,257.3c0.3-0.8,0.6-1.6,0.9-2.4c-0.3,0.6-0.5,1.2-0.8,1.8c1.6-3.8,3.7-7.5,5.9-11c0.6-1,1.3-2,2-2.9
		c0.3-0.5,0.7-0.9,1-1.4c0.2-0.2,0.4-0.5,0.5-0.7c0.5-0.6-1,1.2-0.8,1c0.1-0.1,0.2-0.3,0.3-0.4c1.4-1.7,2.9-3.4,4.5-4.9
		c0.4-0.4,0.9-0.8,1.4-1.2c0.1-0.1,0.2-0.1,0.3-0.2c0.6-0.5-1.7,1.2-1,0.8c0.2-0.2,0.5-0.3,0.7-0.5c0.8-0.6,1.7-1.1,2.7-1.5
		c-0.6,0.3-1.2,0.5-1.8,0.8c0.8-0.3,1.5-0.6,2.4-0.7c-0.7,0.1-1.3,0.2-2,0.3c0.6-0.1,1.2-0.1,1.8,0c-0.7-0.1-1.4-0.2-2-0.3
		c0.5,0.1,1.1,0.2,1.6,0.4c-0.6-0.3-1.2-0.5-1.8-0.8c0.3,0.1,0.5,0.2,0.8,0.4s1.2,0.9,0-0.1c-1.3-1-0.3-0.3,0,0
		c0.2,0.2,0.5,0.5,0.7,0.8c0.6,0.6-0.8-1.1-0.8-1c0.1,0.2,0.2,0.3,0.3,0.5c0.2,0.3,0.4,0.6,0.6,0.9c0.5,0.8,0.9,1.6,1.2,2.5
		c-0.3-0.6-0.5-1.2-0.8-1.8c0.8,1.9,1.3,3.9,1.6,5.9c-0.1-0.7-0.2-1.4-0.3-2c0.3,2.1,0.2,4.2-0.1,6.3c0.1-0.7,0.2-1.4,0.3-2
		c-0.4,2.5-1.1,4.9-2,7.2c0.3-0.6,0.5-1.2,0.8-1.8c-1,2.3-2.1,4.4-3.5,6.5c-0.7,1.1-1.5,2.2-2.3,3.3c-0.6,0.8,0.4-0.4,0.5-0.6
		c-0.1,0.2-0.5,0.6-0.6,0.8c-0.4,0.5-0.9,1-1.3,1.5c-3.3,3.9-7,7.4-10.8,10.6c4.3,1.8,8.7,3.6,13,5.4c0-0.9,0.1-1.7,0.2-2.6
		c-0.1,0.7-0.2,1.4-0.3,2c0.2-1.6,0.6-3.1,1.2-4.6c-0.3,0.6-0.5,1.2-0.8,1.8c0.3-0.7,0.7-1.5,1.1-2.1c0.4-0.7,2.2-2.8,0.3-0.6
		c1-1.1,1.9-2.1,3-3c1.3-1.1-1,0.7-0.5,0.4c0.3-0.2,0.6-0.4,0.9-0.6c0.6-0.4,1.2-0.8,1.8-1.1c1.3-0.7,2.6-1.4,3.9-2
		c-0.6,0.3-1.2,0.5-1.8,0.8c2.1-0.9,4.2-1.6,6.4-1.9c-0.7,0.1-1.3,0.2-2,0.3c1.3-0.2,2.7-0.2,4,0c-0.7-0.1-1.3-0.2-2-0.3
		c1.2,0.2,2.4,0.5,3.5,1c-0.6-0.3-1.2-0.5-1.8-0.8c0.6,0.2,1.2,0.5,1.7,0.9c0.8,0.5,2.7,2.1,0.2,0c1,0.9,2,1.8,2.9,2.8
		c0.1,0.1,0.2,0.3,0.3,0.4c0.6,0.7-1.4-1.8-0.8-1c0.2,0.3,0.4,0.6,0.7,0.9c0.4,0.6,0.8,1.3,1.2,1.9c0.8,1.4,1.6,2.9,2.2,4.4
		c-0.3-0.6-0.5-1.2-0.8-1.8c2.3,5.6,3.6,11.5,4.5,17.5c-0.1-0.7-0.2-1.4-0.3-2c1.2,8.9,1.3,18,0.5,27c-0.2,2.7-0.5,5.4-0.9,8.1
		c0.1-0.7,0.2-1.4,0.3-2c-1.2,8.7-3.1,17.4-5.9,25.7c-0.8,2.3-1.7,4.6-2.6,6.8c0.3-0.6,0.5-1.2,0.8-1.8c-2.1,5-4.6,9.8-7.6,14.2
		c-0.3,0.5-0.7,1-1,1.5c-0.2,0.2-0.4,0.5-0.5,0.7c-0.6,0.8,0.9-1.1,0.8-1s-0.3,0.4-0.4,0.5c-0.8,1-1.6,1.9-2.4,2.8
		c-1.6,1.7-3.3,3.3-5.1,4.8c-0.6,0.5,1.7-1.3,1.1-0.8c-0.2,0.1-0.3,0.2-0.5,0.4c-0.4,0.3-0.8,0.6-1.3,0.9
		c-0.8,0.5-1.6,1.1-2.4,1.5c-1.6,1-3.2,1.8-4.9,2.5c0.6-0.3,1.2-0.5,1.8-0.8c-2.5,1-5.1,1.8-7.9,2.2c0.7-0.1,1.4-0.2,2-0.3
		c-1.9,0.2-3.8,0.3-5.7,0c0.7,0.1,1.3,0.2,2,0.3c-1.5-0.2-3.1-0.6-4.5-1.2c0.6,0.3,1.2,0.5,1.8,0.8c-1-0.4-1.9-0.9-2.7-1.5
		c-0.2-0.1-0.4-0.4-0.7-0.5c0.1,0,1.8,1.5,0.9,0.7c-0.4-0.4-0.8-0.7-1.2-1.1c-0.4-0.4-0.7-0.8-1.1-1.2c2,2.2,0.6,0.8,0.2,0.1
		c-0.6-1-1.2-2-1.6-3.1c0.3,0.6,0.5,1.2,0.8,1.8c-0.9-2.1-1.4-4.4-1.7-6.6c0.1,0.7,0.2,1.4,0.3,2c-0.5-3.7-0.3-7.4,0.2-11.1
		c-0.1,0.7-0.2,1.4-0.3,2c1-7.2,3.2-14.1,6-20.8c-0.3,0.6-0.5,1.2-0.8,1.8c2.9-6.9,6.5-13.4,10.7-19.6c1.1-1.6,2.1-3.2,3.3-4.7
		c0.5-0.7,1.1-1.5,1.6-2.2c0.3-0.4,0.6-0.7,0.8-1.1c0,0-1.3,1.6-0.6,0.7c0.2-0.2,0.3-0.5,0.5-0.7c2.4-3,4.9-6,7.6-8.9
		c5.2-5.7,10.9-11.1,16.8-16c1.5-1.2,3-2.5,4.5-3.6c0.2-0.1,0.4-0.3,0.5-0.4c-1.8,1.4-1.1,0.9-0.7,0.6s0.7-0.5,1.1-0.8
		c0.8-0.6,1.6-1.2,2.4-1.8c3-2.2,6.2-4.3,9.3-6.4c6.7-4.3,13.8-8,21.1-11.1c-0.6,0.3-1.2,0.5-1.8,0.8c7.4-3.1,15.2-5.6,23.2-6.7
		c-0.7,0.1-1.3,0.2-2,0.3c4.4-0.6,8.9-0.7,13.3-0.1c-0.7-0.1-1.3-0.2-2-0.3c0.9,0.1,1.8,0.3,2.8,0.5c3.9,0.8,8.4-1.1,9.4-5.3
		c0.9-3.8-1.2-8.5-5.3-9.4c-14.4-3-29.4,0.6-42.8,6.1c-16.9,7-32.3,17-46.1,29c-13.9,12-26.3,26.3-35.3,42.4
		c-4.4,7.8-8,16.2-10.4,24.9c-2.5,9.2-3.9,19.9-0.8,29.2c2.7,7.8,8.3,14,16.3,16.5c7.9,2.5,16.3,0.5,23.6-2.9
		c12.5-5.8,21.4-17.1,27.2-29.3c6.3-13.4,9.8-27.9,11.5-42.6c1.6-13.4,1.4-27.2-1.3-40.4c-2.1-10.5-6.5-21.9-15.9-28
		c-4.8-3.1-10.5-3.7-16.1-2.8c-3.3,0.6-6.6,2-9.6,3.5c-4.6,2.3-8.6,5.6-11.7,9.7c-3.2,4.3-4.7,9.8-4.8,15.1c0,3,1.9,5.8,4.7,7
		c3,1.2,5.9,0.5,8.3-1.6c7.7-6.6,15.2-14.3,19.7-23.5c2.5-5.1,4.1-10.6,4.1-16.3c0-5.3-1.5-10.8-4.2-15.3
		c-2.1-3.6-5.3-6.6-9.5-7.8c-4-1.1-7.9-0.2-11.5,1.6c-2.9,1.4-5.4,3.6-7.6,5.9c-2.6,2.6-4.8,5.6-6.9,8.6
		c-3.8,5.4-7.2,11.5-9.3,17.8c-1.3,3.8,1.5,8.5,5.3,9.4C1837.7,263.5,1841.6,261.3,1842.9,257.3L1842.9,257.3z"/>
</g>
<g>
	<path d="M1623.9,597.9v54.4h-8.6v-21.9c-1.9,2-5,3-7.3,3c-7,0-10.7-5-10.7-12.5v-23h8.6v22.3c0,3.7,2.2,5.4,5,5.4
		c2.7,0,4.4-1.9,4.4-5.6v-22.1L1623.9,597.9L1623.9,597.9z"/>
	<path d="M1638.8,620.8h11.7v7.8h-11.7v15.9h14.8v7.8h-23.3v-54.4h23.3v7.8h-14.8V620.8z M1639.6,587.5v7.5h-7.5v-7.5
		H1639.6z M1651.4,587.5v7.5h-7.5v-7.5H1651.4z"/>
	<path d="M1684.2,611.3v7.1c0,8.7-4.2,13.5-12.8,13.5h-4v20.5h-8.6V598h12.6C1680,597.9,1684.2,602.6,1684.2,611.3z
		 M1667.4,605.6V624h4c2.7,0,4.2-1.2,4.2-5.1v-8.2c0-3.9-1.5-5.1-4.2-5.1L1667.4,605.6L1667.4,605.6z"/>
	<path d="M1696.7,652.3h-8.5v-54.4h8.5v23.3h9.7v-23.3h8.7v54.4h-8.7V629h-9.7V652.3z"/>
	<path d="M1721.4,652.3v-54.4h8.6v20.5h4c8.6,0,12.8,4.7,12.8,13.5v7.1c0,8.7-4.2,13.5-12.8,13.5L1721.4,652.3
		L1721.4,652.3z M1733.9,644.5c2.7,0,4.2-1.2,4.2-5.1v-8.2c0-3.9-1.5-5.1-4.2-5.1h-4v18.4L1733.9,644.5L1733.9,644.5z M1751.6,652.3
		v-54.4h8.6v54.4H1751.6z"/>
	<path d="M1775.2,652.3h-8.8v-54.4h7.6v34.5l3.1-12l7-22.5h9.4v54.4h-7.7v-38.4l-3.5,13.4L1775.2,652.3z M1783.9,585.7
		c-0.2,2.9-1.6,3.6-3.9,3.6c-2.2,0-3.4-0.7-3.7-3.6h-5.3c0.2,5.3,3,8.6,8.9,8.6c6.1,0,9.1-3.3,9.1-8.6H1783.9z"/>
	<path d="M1632.8,681.6c0-8.7,4.6-13.7,13-13.7s13,5,13,13.7v28.3c0,8.7-4.6,13.7-13,13.7s-13-5-13-13.7V681.6
		L1632.8,681.6z M1641.4,710.4c0,3.9,1.7,5.4,4.4,5.4s4.4-1.5,4.4-5.4V681c0-3.9-1.7-5.4-4.4-5.4c-2.7,0-4.4,1.5-4.4,5.4V710.4z"/>
	<path d="M1672.9,722.9h-8.5v-54.4h27v54.4h-8.7v-46.7h-9.7v46.7H1672.9z"/>
	<path d="M1725.2,722.9h-8.6l-1.5-9.9h-10.5l-1.5,9.9h-7.8l8.7-54.4h12.5L1725.2,722.9z M1705.7,705.7h8.2l-4.1-27.5
		L1705.7,705.7z"/>
	<path d="M1726.8,715.2c3.9,0,5.1-0.5,5.3-5.6l1.4-41.1h24.2v54.4h-8.7v-46.7h-7.5l-0.9,32.9
		c-0.3,10-3.9,13.8-12.4,13.8h-1.3L1726.8,715.2L1726.8,715.2z"/>
</g>


<rect fill="#2B2B2B" x="92.4" y="47.2" width="413.6" height="715.5"/>
<g>
	<polygon style="fill:url(#grad31);" points="19.6,347.2 101.5,101.5 333.1,333.1 251.2,578.8 "/>
	<polygon style="fill:url(#grad32);" points="578.8,251.2 496.9,496.9 265.3,265.3 347.2,19.6 "/>
	<polygon style="fill:url(#grad33);" points="347.2,19.6 265.3,265.3 19.6,347.2 101.5,101.5 "/>
	<polygon style="fill:url(#grad34);" points="251.2,578.8 333.1,333.1 578.8,251.2 496.9,496.9 "/>
</g>

<g>
	<path d="M89.7,419.6c15.1-10.7,28.8-23.1,41.1-36.9c12.5-14,23.5-29.3,33-45.5c9.6-16.5,17.6-33.9,23.8-51.9
		c6.2-17.8,10.4-36.1,12.8-54.8c2.3-17.8,2.7-35.9,0.8-53.8c-0.3-2.7-0.6-5.4-1-8.1c-0.2-1.7-2.1-3.8-3.5-4.6
		c-1.5-0.8-3.1-1.1-4.9-0.9c-3.8,0.5-6.5,3.7-6.6,7.5c-0.5,26.3,0.2,52.6,2,78.8c1.9,26.6,5,53.2,9.3,79.6
		c2.4,14.6,5.1,29.1,8.2,43.6c0.8,3.7,4.8,5.9,8.4,5.5c3.6-0.5,6.8-3.7,6.6-7.5c-0.8-18-6.8-35.7-16-51.1
		c-9.6-16-22.9-30.1-38.9-40c-7.1-4.4-15-8.4-23.2-10.3c-6.7-1.6-13.8-2.1-20.6-1.3c-7.2,0.9-14.2,2.9-20.5,6.6
		c-6.1,3.6-11.3,8.6-14.9,14.7c-8.4,14.5-6.2,32.9,0.9,47.5c5.1,10.4,14.9,17.5,26,20.3c12.2,3.1,25.1,1.9,37.2-0.8
		c13.9-3,27.4-8.4,40.1-14.6c12.5-6.1,24.6-13.5,35.7-21.9c10.5-8,20.3-16.8,28.1-27.4c1.4-1.9,2.8-3.9,3.9-6
		c2-3.5,0.9-8.5-2.7-10.4c-3.6-1.9-8.3-1-10.4,2.7c-1.2,2.1-2.5,4.1-3.9,6c-0.2,0.3-0.4,0.5-0.6,0.8c-0.9,1.1,1.1-1.4,0.5-0.7
		c-0.4,0.5-0.8,1-1.2,1.5c-0.9,1.1-1.8,2.1-2.7,3.1c-3.9,4.3-8.1,8.4-12.5,12.1c-1.2,1-2.4,2.1-3.7,3.1c-0.6,0.5-1.2,1-1.8,1.4
		c-0.3,0.2-0.6,0.5-1,0.8s-1.1,0.8,0.9-0.7c-0.2,0.1-0.4,0.3-0.6,0.4c-2.6,2-5.3,4-8.1,5.9c-5.6,3.9-11.4,7.5-17.4,10.8
		c-6.8,3.8-13.8,7.2-20.9,10.2c0.6-0.3,1.2-0.5,1.8-0.8c-9.3,3.9-18.9,7.2-28.7,9.2c-2.6,0.5-5.2,1-7.8,1.3c0.7-0.1,1.4-0.2,2-0.3
		c-6.3,0.8-12.7,1.1-19,0.2c0.7,0.1,1.3,0.2,2,0.3c-3.7-0.5-7.4-1.4-10.9-2.9c0.6,0.3,1.2,0.5,1.8,0.8c-1.8-0.8-3.5-1.7-5.2-2.7
		c-0.4-0.3-0.8-0.6-1.3-0.9c-0.2-0.1-0.3-0.2-0.5-0.3c-0.8-0.6,1.9,1.5,0.8,0.6c-0.7-0.6-1.5-1.2-2.2-1.9c-0.7-0.7-1.3-1.4-2-2.1
		c-0.2-0.2-0.3-0.4-0.5-0.6c-0.6-0.8,1.3,1.8,0.7,0.9c-0.3-0.4-0.6-0.9-0.9-1.3c-1.2-1.7-2.1-3.6-3-5.5c0.3,0.6,0.5,1.2,0.8,1.8
		c-2-4.8-3.5-9.9-4.2-15.1c0.1,0.7,0.2,1.4,0.3,2c-0.5-3.6-0.5-7.3-0.1-10.9c-0.1,0.7-0.2,1.4-0.3,2c0.4-3,1.2-5.8,2.3-8.6
		c-0.3,0.6-0.5,1.2-0.8,1.8c0.9-2,1.9-4,3.2-5.8c0.1-0.2,0.3-0.4,0.4-0.6c0.9-1.2-1,1.2-0.5,0.7c0.3-0.4,0.7-0.8,1-1.2
		c0.7-0.8,1.5-1.6,2.3-2.3c0.4-0.4,0.8-0.7,1.2-1c0.6-0.5,2.4-1.8,0,0c0.9-0.6,1.7-1.2,2.6-1.8c1.9-1.2,3.8-2.2,5.9-3.1
		c-0.6,0.3-1.2,0.5-1.8,0.8c3.8-1.6,7.7-2.6,11.7-3.1c-0.7,0.1-1.3,0.2-2,0.3c4.5-0.6,9-0.6,13.5,0c-0.7-0.1-1.4-0.2-2-0.3
		c4.7,0.6,9.2,1.9,13.6,3.8c-0.6-0.3-1.2-0.5-1.8-0.8c4.9,2.1,9.7,4.6,14.2,7.5c2.3,1.5,4.4,3,6.6,4.6c1.1,0.9-1.5-1.2-0.4-0.3
		c0.3,0.2,0.6,0.5,0.9,0.7c0.5,0.4,0.9,0.8,1.4,1.2c1,0.9,2.1,1.7,3.1,2.6c4,3.6,7.8,7.5,11.2,11.6c0.9,1,1.7,2.1,2.5,3.1
		c0.9,1.1-1-1.3-0.4-0.5c0.2,0.2,0.4,0.5,0.6,0.7c0.4,0.6,0.9,1.2,1.3,1.8c1.6,2.2,3.1,4.4,4.5,6.7c3.2,5.1,5.9,10.4,8.3,15.9
		c-0.3-0.6-0.5-1.2-0.8-1.8c3.4,8.1,5.8,16.5,7,25.2c-0.1-0.7-0.2-1.4-0.3-2c0.3,2.5,0.6,5.1,0.7,7.6c5-0.7,10-1.4,15-2
		c-3.7-17.3-6.9-34.7-9.5-52.2c-0.8-5-1.5-9.9-2.1-14.9c0.1,0.7,0.2,1.4,0.3,2c-2.3-17.1-4.1-34.4-5.4-51.6
		c-1.3-17.2-2-34.4-2.3-51.7c-0.1-9.8-0.1-19.7,0.1-29.5c-5,0.7-10,1.4-15,2c0,0.2,0.1,0.5,0.1,0.7c-0.1-0.7-0.2-1.4-0.3-2
		c2.1,15.5,2.4,31.3,1.1,46.9c-0.4,4.5-0.8,8.9-1.4,13.4c0.1-0.7,0.2-1.4,0.3-2c-2.5,18.5-7.1,36.8-13.4,54.4
		c-1.8,5-3.7,10-5.8,14.9c0.3-0.6,0.5-1.2,0.8-1.8c-7.4,17.5-16.5,34.2-27.2,49.8c-2.6,3.8-5.4,7.6-8.2,11.3
		c-0.3,0.5-1.8,2.3-0.2,0.2c-0.3,0.4-0.7,0.9-1,1.3c-0.7,0.9-1.5,1.8-2.2,2.8c-1.5,1.8-3,3.6-4.5,5.4c-6,7.1-12.4,13.8-19.2,20.2
		c-3.7,3.5-7.5,6.8-11.4,10c-1,0.8-2.1,1.7-3.1,2.5c-0.5,0.4-0.9,0.7-1.4,1.1c-0.2,0.1-0.4,0.3-0.6,0.4c1.9-1.5,0.9-0.7,0.4-0.3
		c-2.1,1.6-4.2,3.1-6.3,4.7c-1.7,1.2-2.9,2.5-3.5,4.6c-0.5,1.8-0.3,4.3,0.8,5.9C81.4,420.1,86.2,422,89.7,419.6L89.7,419.6z"/>
	<path d="M219.4,351c1.9,4.2,4.3,8.2,7.4,11.6c2.4,2.6,5.8,5,9.3,5.6c4,0.7,8,0.1,11.5-2.2c3.3-2.2,5.8-5,8.1-8.2
		c4.6-6.5,7.6-14.1,10.3-21.5c2.8-7.7,5-15.6,6.8-23.5c1.5-6.5,2.8-13,3.5-19.6c0-0.4,0.1-0.8,0.1-1.2c-0.1,0.7-0.2,1.4-0.3,2l0,0
		c-0.6,1.1-1.3,2.2-2,3.4l0,0c-3.6,0-7.2,0-10.8,0l0,0c-0.6-1.1-1.3-2.2-2-3.4v0.1c-0.1-0.7-0.2-1.4-0.3-2c0.5,4,0.6,8.1,1,12.2
		c0.8,9.6,1.9,19.1,3.2,28.6c0.8,6.2,1.8,12.3,2.9,18.4c0.3,1.8,2,3.7,3.5,4.6c1.6,1,4,1.4,5.9,0.8s3.6-1.7,4.6-3.5
		c1-1.9,1.1-3.8,0.8-5.9c-1.1-6.4-2.1-12.7-3-19.1c0.1,0.7,0.2,1.4,0.3,2c-1.6-12-2.7-24.1-3.6-36.2c-0.2-2.7-0.3-5.3-2.4-7.4
		c-1.3-1.3-3.5-2.3-5.4-2.2c-2.1,0.1-3.8,0.9-5.4,2.2c-2.5,2.1-2.2,5.8-2.6,8.7c0.1-0.7,0.2-1.4,0.3-2
		c-1.6,11.9-4.7,23.8-8.5,35.2c-1.2,3.6-2.5,7.2-4,10.7c0.3-0.6,0.5-1.2,0.8-1.8c-1.4,3.4-3,6.7-4.9,9.8c-0.4,0.7-0.8,1.4-1.3,2
		c-0.2,0.3-0.4,0.6-0.7,1c-0.1,0.1-0.2,0.3-0.3,0.4s-0.1,0.1-0.1,0.2c-0.6,0.8,0.9-1.2,0.8-1.1c-0.9,1-1.7,2.1-2.7,3
		c-0.3,0.2-0.6,0.5-0.8,0.7c-0.3,0.3,1.9-1.4,1.1-0.8c-0.1,0.1-0.3,0.2-0.4,0.3c-0.5,0.4-1.1,0.6-1.7,0.9c0.6-0.3,1.2-0.5,1.8-0.8
		c-0.6,0.3-1.3,0.5-2,0.6c0.7-0.1,1.4-0.2,2-0.3c-0.6,0.1-1.2,0.1-1.8,0c0.7,0.1,1.4,0.2,2,0.3c-0.6-0.1-1.3-0.3-1.9-0.5
		c0.6,0.3,1.2,0.5,1.8,0.8c-0.4-0.2-0.9-0.4-1.3-0.7c-0.2-0.1-0.4-0.3-0.6-0.4c-1-0.6,1.8,1.5,0.8,0.6c-0.9-0.8-1.8-1.7-2.6-2.6
		s1.4,1.9,0.5,0.6c-0.2-0.3-0.4-0.6-0.7-0.9c-0.4-0.7-0.9-1.3-1.3-2c-1-1.6-1.8-3.3-2.6-5.1c-0.8-1.6-2.9-3-4.6-3.5
		c-1.8-0.5-4.3-0.3-5.9,0.8c-1.6,1-3.1,2.6-3.5,4.6C218.1,347.2,218.4,349,219.4,351L219.4,351z"/>
	<path d="M282.3,320.5c-0.9,8.2-0.9,17.9,5,24.4c5,5.4,13.2,5.1,19,1.3c6.3-4.1,10.4-10.5,13.1-17.3
		c1.7-4.2,2.6-8.8,3.9-13.2c1.2-3.9,2.4-7.8,3.5-11.8c2.8-9.9,3.8-20.1,4.1-30.4c-5.1,0-10.2,0-15.2,0c-0.2,6.1-0.1,12.2,0.9,18.2
		c0.7,4.5,1.8,9,2.4,13.6c-0.1-0.7-0.2-1.4-0.3-2c0.7,5.2,1,10.5,2.4,15.5c1.1,3.9,2.9,7.5,6.3,9.8c3.2,2.2,7.7,2,11,0
		c2.8-1.7,4.8-4.4,6.6-7.1c3.9-6.1,6.4-13.1,8.8-19.8c2.5-7.2,4.6-14.6,6.2-22c0.8-3.6,1.4-7.3,1.9-11c0.2-1.9,0.5-3.9,0.4-5.8
		c-0.2-2.7-1.2-5.3-3.8-6.7c-4.4-2.3-9.8-0.2-11.2,4.6c-0.3,0.9-0.3,1.8-0.4,2.8c-0.1,1.4-0.2,2.9-0.3,4.3
		c-0.3,5.4-0.3,10.9-0.1,16.3c0.2,7.1,0.8,14.2,2,21.2c1.1,6,2.9,12.3,7.1,16.8c5,5.5,13.1,5.4,18.9,1.3c1.7-1.2,3.3-2.5,4.8-4
		c2.8-2.8,3-8,0-10.8s-7.8-3-10.8,0c-0.5,0.5-1,1-1.6,1.5c-0.2,0.2-0.5,0.4-0.7,0.6c-1,0.9,1.9-1.4,0.7-0.5
		c-0.9,0.6-1.7,1.1-2.7,1.5c0.6-0.3,1.2-0.5,1.8-0.8c-0.6,0.2-1.2,0.4-1.9,0.5c0.7-0.1,1.4-0.2,2-0.3c-0.5,0.1-1,0.1-1.5,0
		c0.7,0.1,1.4,0.2,2,0.3c-0.5-0.1-1-0.2-1.4-0.4c0.6,0.3,1.2,0.5,1.8,0.8c-0.3-0.1-0.5-0.2-0.7-0.4c-0.1-0.1-0.2-0.1-0.3-0.2
		c-0.8-0.4,1.8,1.5,1.1,0.9c-0.5-0.4-0.9-0.9-1.3-1.3c-0.2-0.2,1.4,2,0.8,1.1c-0.1-0.1-0.2-0.3-0.3-0.4c-0.2-0.3-0.4-0.6-0.5-0.9
		c-0.4-0.7-0.7-1.4-1-2.1c0.3,0.6,0.5,1.2,0.8,1.8c-1.7-4.1-2.5-8.6-3.1-13c0.1,0.7,0.2,1.4,0.3,2c-1.4-10.6-1.5-21.5-1-32.3
		c0.1-1.3,0.1-2.6,0.3-3.9c-0.1,0.7-0.2,1.4-0.3,2c0-0.1,0-0.2,0.1-0.4c-0.3,0.6-0.5,1.2-0.8,1.8c0.5-1.2-0.4-0.3-2.7,2.7
		c-1.3,0.4-2.6,0.7-3.9,1l0,0c-1.3-0.4-2.6-0.7-3.9-1c-0.9-0.9-1.8-1.8-2.7-2.7c-0.3-0.6-0.5-1.2-0.8-1.8c0,0,0,0,0,0.1
		c-0.1-0.7-0.2-1.4-0.3-2c0.2,2-0.1,4.1-0.4,6c0.1-0.7,0.2-1.4,0.3-2c-1.4,10.5-4.4,20.9-7.9,31c-1,2.9-2.1,5.8-3.3,8.6
		c0.3-0.6,0.5-1.2,0.8-1.8c-1.3,3.1-2.8,6.2-4.6,9.1c-0.4,0.6-0.7,1.1-1.1,1.7c-0.7,1,1.6-2,0.5-0.7c-0.2,0.2-0.4,0.4-0.6,0.6
		s-0.4,0.4-0.5,0.5c-0.6,0.6-1.5,0.8,0.9-0.7c-0.4,0.2-0.7,0.5-1.1,0.6c0.6-0.3,1.2-0.5,1.8-0.8c-0.3,0.1-0.5,0.2-0.8,0.2
		c0.7-0.1,1.4-0.2,2-0.3c-0.2,0-0.4,0-0.6,0c0.7,0.1,1.4,0.2,2,0.3c-0.2,0-0.4-0.1-0.6-0.2c0.6,0.3,1.2,0.5,1.8,0.8
		c-0.1,0-0.2-0.1-0.3-0.2c-0.9-0.6,1.1,0.9,1.1,0.9c-0.1-0.2-0.5-0.5-0.6-0.7c0.2,0.1,1.5,2.1,0.8,1c-0.1-0.1-0.2-0.3-0.3-0.5
		c-0.2-0.4-0.4-0.8-0.6-1.2c0.3,0.6,0.5,1.2,0.8,1.8c-1.2-3-1.8-6.2-2.2-9.4c0.1,0.7,0.2,1.4,0.3,2c-0.6-5-1.2-10-2.1-14.9
		c-0.5-2.7-1.1-5.4-1.5-8.2c0.1,0.7,0.2,1.4,0.3,2c-0.7-5-0.6-10.1-0.4-15.1c0.1-4-3.6-7.8-7.6-7.6c-4.2,0.2-7.5,3.4-7.6,7.6
		c-0.1,5.2-0.4,10.4-1.1,15.6c0.1-0.7,0.2-1.4,0.3-2c-0.8,6-2.4,11.8-4.1,17.6c-1.1,3.6-2.2,7.1-3.2,10.7c-1,3.4-1.7,6.8-3.1,10.1
		c0.3-0.6,0.5-1.2,0.8-1.8c-0.6,1.5-1.4,3-2.3,4.5c-0.4,0.7-0.8,1.3-1.3,1.9c-0.1,0.1-0.2,0.3-0.3,0.5c-0.6,0.9,1.4-1.7,0.6-0.8
		c-0.2,0.3-0.5,0.6-0.7,0.8c-0.9,1-1.9,1.9-2.9,2.8c2.4-2,0.6-0.5-0.2,0c-0.5,0.3-1,0.6-1.6,0.8c0.6-0.3,1.2-0.5,1.8-0.8
		c-0.8,0.3-1.5,0.5-2.4,0.6c0.7-0.1,1.4-0.2,2-0.3c-0.6,0.1-1.1,0.1-1.7,0c0.7,0.1,1.4,0.2,2,0.3c-0.5-0.1-1-0.2-1.5-0.4
		c0.6,0.3,1.2,0.5,1.8,0.8c-0.4-0.2-0.7-0.4-1-0.6c-0.8-0.4,1.7,1.5,0.9,0.7c-0.1-0.2-0.3-0.3-0.5-0.5c-0.9-0.9,0.8,1.1,0.7,0.9
		c-0.1-0.2-0.3-0.4-0.4-0.6c-0.3-0.5-0.5-1-0.8-1.5c0.3,0.6,0.5,1.2,0.8,1.8c-0.6-1.5-1-3.1-1.2-4.7c0.1,0.7,0.2,1.4,0.3,2
		c-0.5-3.8-0.3-7.7,0.1-11.5c0.2-1.8-1-4.1-2.2-5.4c-1.3-1.3-3.5-2.3-5.4-2.2c-2,0.1-4,0.7-5.4,2.2
		C283.1,316.7,282.5,318.4,282.3,320.5L282.3,320.5z"/>
	<path d="M424,264.9c0.1-6.7-1.6-13.3-6-18.4c-3.7-4.2-9.5-6.4-15-6.4c-11.9-0.1-22.8,8.5-27.8,18.9
		c-3.2,6.7-4.7,14-4.2,21.4c0.3,4.3,1,8.7,2.3,12.9c1.3,4.4,3,8.8,5.4,12.8c1.9,3.2,4.5,6.2,7.7,8.1c3.4,2,7.1,2.5,10.9,1.8
		c6.3-1.1,11-6.3,14.6-11.2c3.9-5.3,6.6-11.5,8.8-17.7c2.1-6,3.5-12.4,3.6-18.8C424.2,267.2,424.1,266,424,264.9
		c-0.3-2.1-0.7-3.8-2.2-5.4c-1.3-1.3-3.5-2.3-5.4-2.2c-4,0.2-7.8,3.4-7.6,7.6c0.1,4.5,0.6,9,1.2,13.4c0.6,3.9,1.3,7.8,2.6,11.5
		c1.3,4,3.1,8,6.1,11c3.5,3.5,8.4,5,13.1,3.7c6.1-1.6,10.4-7,13.8-11.9c1.1-1.5,1.2-4.1,0.8-5.9c-0.5-1.8-1.9-3.7-3.5-4.6
		c-3.9-2.1-8-0.8-10.4,2.7c-0.3,0.4-1.1,1.1-1.2,1.6c0-0.1,1.2-1.5,0.5-0.7c-0.2,0.2-0.4,0.5-0.6,0.7c-0.6,0.8-1.3,1.5-2,2.2
		c-0.3,0.3-0.6,0.5-0.9,0.8c-1,0.9,1.7-1.2,0.5-0.4c-0.6,0.4-1.2,0.8-1.9,1c0.6-0.3,1.2-0.5,1.8-0.8c-0.6,0.2-1.1,0.4-1.8,0.5
		c0.7-0.1,1.4-0.2,2-0.3c-0.4,0-0.9,0-1.3,0c0.7,0.1,1.4,0.2,2,0.3c-0.5-0.1-0.9-0.2-1.4-0.4c0.6,0.3,1.2,0.5,1.8,0.8
		c-0.3-0.1-0.5-0.2-0.8-0.4c-0.1-0.1-0.2-0.2-0.4-0.2c-0.8-0.4,1.6,1.4,1,0.8c-0.2-0.2-0.5-0.4-0.7-0.7c-0.5-0.6-1.1-1.7,0.4,0.6
		c-0.9-1.4-1.7-2.7-2.3-4.2c0.3,0.6,0.5,1.2,0.8,1.8c-1.9-4.6-2.9-9.6-3.6-14.6c0.1,0.7,0.2,1.4,0.3,2
		C424.4,272,424.1,268.5,424,264.9c-5.1,0-10.2,0-15.2,0c0.3,2.7,0.2,5.4-0.2,8.1c0.1-0.7,0.2-1.4,0.3-2
		c-0.8,5.7-2.5,11.3-4.7,16.6c0.3-0.6,0.5-1.2,0.8-1.8c-1.7,4-3.7,7.9-6.3,11.5c-0.1,0.2-0.3,0.4-0.4,0.5c1-1.2,1.2-1.6,0.8-1
		c-0.1,0.1-0.2,0.2-0.3,0.3c-0.3,0.3-0.5,0.6-0.8,1c-0.6,0.7-1.3,1.4-2,2c-0.3,0.2-0.6,0.5-0.9,0.7c-0.8,0.7,1.9-1.4,0.8-0.6
		c-0.1,0.1-0.3,0.2-0.4,0.3c-0.6,0.4-1.3,0.8-2,1.1c0.6-0.3,1.2-0.5,1.8-0.8c-0.7,0.3-1.5,0.5-2.2,0.6c0.7-0.1,1.4-0.2,2-0.3
		c-0.6,0.1-1.3,0.1-1.9,0c0.7,0.1,1.4,0.2,2,0.3c-0.7-0.1-1.3-0.3-1.9-0.5c0.6,0.3,1.2,0.5,1.8,0.8c-0.4-0.2-0.8-0.4-1.1-0.6
		c-0.2-0.1-0.3-0.2-0.5-0.3c-1.1-0.7,1.6,1.3,0.8,0.6c-0.7-0.7-1.4-1.3-2-2.1c-0.7-0.9,1.3,1.8,0.6,0.7c-0.2-0.2-0.3-0.5-0.5-0.7
		c-0.3-0.5-0.6-1-1-1.6c-0.8-1.3-1.4-2.7-2-4.1c0.3,0.6,0.5,1.2,0.8,1.8c-1.9-4.5-3.2-9.2-3.9-14c0.1,0.7,0.2,1.4,0.3,2
		c-0.5-3.6-0.5-7.2-0.1-10.8c-0.1,0.7-0.2,1.4-0.3,2c0.4-2.9,1.1-5.7,2.3-8.4c-0.3,0.6-0.5,1.2-0.8,1.8c0.8-1.8,1.6-3.5,2.7-5.1
		c0.2-0.4,0.5-0.7,0.7-1s0.9-1.2-0.1,0.1c-1,1.3-0.3,0.4-0.1,0.1c0.5-0.7,1.1-1.3,1.7-1.9s1.2-1.2,1.8-1.7
		c0.1-0.1,0.3-0.2,0.5-0.4c1-0.9-1.4,1.1-0.9,0.7c0.3-0.2,0.7-0.5,1-0.7c1.3-0.9,2.7-1.7,4.2-2.3c-0.6,0.3-1.2,0.5-1.8,0.8
		c1.6-0.7,3.4-1.2,5.1-1.4c-0.7,0.1-1.4,0.2-2,0.3c1.4-0.2,2.9-0.2,4.3,0c-0.7-0.1-1.4-0.2-2-0.3c1.2,0.2,2.3,0.5,3.4,0.9
		c-0.6-0.3-1.2-0.5-1.8-0.8c0.7,0.3,1.4,0.7,2,1.1c0.2,0.1,0.3,0.3,0.5,0.4c0,0-1.9-1.5-1.1-0.8c0.3,0.3,0.6,0.5,0.9,0.8
		s0.5,0.6,0.8,0.9c0.6,0.7-1.3-1.8-0.8-1c0.1,0.2,0.2,0.4,0.4,0.5c0.5,0.7,0.9,1.5,1.2,2.3c-0.3-0.6-0.5-1.2-0.8-1.8
		c0.7,1.6,1.1,3.2,1.3,4.9c-0.1-0.7-0.2-1.4-0.3-2c0.2,1.5,0.2,2.9,0.2,4.4c-0.1,4,3.6,7.8,7.6,7.6
		C420.6,272.4,423.9,269.2,424,264.9L424,264.9z"/>
	<path d="M446.4,257.8c0.3-0.8,0.6-1.6,0.9-2.4c-0.3,0.6-0.5,1.2-0.8,1.8c1.6-3.8,3.7-7.5,5.9-11c0.6-1,1.3-2,2-2.9
		c0.3-0.5,0.7-0.9,1-1.4c0.2-0.2,0.4-0.5,0.5-0.7c0.5-0.6-1,1.2-0.8,1c0.1-0.1,0.2-0.3,0.3-0.4c1.4-1.7,2.9-3.4,4.5-4.9
		c0.5-0.4,0.9-0.8,1.4-1.2c0.1-0.1,0.2-0.1,0.3-0.2c0.6-0.5-1.7,1.2-1,0.8c0.2-0.2,0.5-0.3,0.7-0.5c0.8-0.6,1.7-1.1,2.7-1.5
		c-0.6,0.3-1.2,0.5-1.8,0.8c0.8-0.3,1.5-0.6,2.4-0.7c-0.7,0.1-1.4,0.2-2,0.3c0.6-0.1,1.2-0.1,1.8,0c-0.7-0.1-1.4-0.2-2-0.3
		c0.5,0.1,1.1,0.2,1.6,0.4c-0.6-0.3-1.2-0.5-1.8-0.8c0.3,0.1,0.5,0.2,0.8,0.4s1.2,0.9,0-0.1c-1.3-1-0.4-0.3,0,0
		c0.2,0.2,0.5,0.5,0.7,0.8c0.6,0.6-0.8-1.1-0.8-1c0.1,0.2,0.2,0.3,0.3,0.5c0.2,0.3,0.4,0.6,0.6,0.9c0.5,0.8,0.9,1.6,1.2,2.5
		c-0.3-0.6-0.5-1.2-0.8-1.8c0.8,1.9,1.3,3.9,1.6,5.9c-0.1-0.7-0.2-1.4-0.3-2c0.3,2.1,0.2,4.2,0,6.3c0.1-0.7,0.2-1.4,0.3-2
		c-0.4,2.5-1.1,4.9-2,7.2c0.3-0.6,0.5-1.2,0.8-1.8c-1,2.3-2.1,4.4-3.5,6.5c-0.7,1.1-1.5,2.2-2.3,3.3c-0.6,0.8,0.4-0.4,0.5-0.6
		c-0.1,0.2-0.5,0.6-0.6,0.8c-0.4,0.5-0.9,1-1.3,1.5c-3.3,3.9-7,7.4-10.8,10.6c4.3,1.8,8.7,3.6,13,5.4c0-0.9,0.1-1.7,0.2-2.6
		c-0.1,0.7-0.2,1.4-0.3,2c0.2-1.6,0.6-3.1,1.2-4.6c-0.3,0.6-0.5,1.2-0.8,1.8c0.3-0.7,0.7-1.5,1.1-2.1c0.4-0.7,2.2-2.8,0.3-0.6
		c1-1.1,1.9-2.1,3-3c1.3-1.1-1,0.7-0.5,0.4c0.3-0.2,0.6-0.4,0.9-0.6c0.6-0.4,1.2-0.8,1.8-1.1c1.3-0.7,2.6-1.4,3.9-2
		c-0.6,0.3-1.2,0.5-1.8,0.8c2.1-0.9,4.2-1.6,6.4-1.9c-0.7,0.1-1.4,0.2-2,0.3c1.3-0.2,2.7-0.2,4,0c-0.7-0.1-1.4-0.2-2-0.3
		c1.2,0.2,2.4,0.5,3.5,1c-0.6-0.3-1.2-0.5-1.8-0.8c0.6,0.2,1.1,0.5,1.7,0.9c0.8,0.5,2.7,2.1,0.2,0c1,0.9,2,1.8,2.9,2.8
		c0.1,0.1,0.2,0.3,0.3,0.4c0.6,0.7-1.4-1.8-0.8-1c0.2,0.3,0.4,0.6,0.6,0.9c0.4,0.6,0.9,1.3,1.2,1.9c0.8,1.4,1.5,2.9,2.2,4.4
		c-0.3-0.6-0.5-1.2-0.8-1.8c2.3,5.6,3.6,11.5,4.5,17.5c-0.1-0.7-0.2-1.4-0.3-2c1.2,8.9,1.3,18,0.5,27c-0.2,2.7-0.5,5.4-0.9,8.1
		c0.1-0.7,0.2-1.4,0.3-2c-1.2,8.7-3.1,17.4-6,25.7c-0.8,2.3-1.6,4.6-2.6,6.8c0.3-0.6,0.5-1.2,0.8-1.8c-2.1,5-4.6,9.8-7.6,14.2
		c-0.3,0.5-0.7,1-1,1.5c-0.2,0.2-0.4,0.5-0.5,0.7c-0.6,0.8,0.9-1.1,0.8-1s-0.3,0.4-0.4,0.5c-0.8,1-1.6,1.9-2.4,2.8
		c-1.6,1.7-3.3,3.3-5.1,4.8c-0.6,0.5,1.7-1.3,1.1-0.8c-0.2,0.1-0.3,0.2-0.5,0.4c-0.4,0.3-0.8,0.6-1.3,0.9
		c-0.8,0.5-1.6,1.1-2.4,1.5c-1.6,1-3.2,1.8-4.9,2.5c0.6-0.3,1.2-0.5,1.8-0.8c-2.5,1-5.1,1.8-7.9,2.2c0.7-0.1,1.4-0.2,2-0.3
		c-1.9,0.2-3.8,0.3-5.7,0c0.7,0.1,1.4,0.2,2,0.3c-1.5-0.2-3.1-0.6-4.5-1.2c0.6,0.3,1.2,0.5,1.8,0.8c-1-0.4-1.9-0.9-2.7-1.5
		c-0.2-0.1-0.4-0.4-0.7-0.5c0.1,0,1.8,1.5,0.9,0.7c-0.4-0.4-0.8-0.7-1.2-1.1c-0.4-0.4-0.7-0.8-1.1-1.2c2,2.2,0.6,0.8,0.2,0.1
		c-0.6-1-1.2-2-1.6-3.1c0.3,0.6,0.5,1.2,0.8,1.8c-0.9-2.1-1.4-4.4-1.7-6.6c0.1,0.7,0.2,1.4,0.3,2c-0.5-3.7-0.3-7.4,0.1-11.1
		c-0.1,0.7-0.2,1.4-0.3,2c1-7.2,3.1-14.1,6-20.8c-0.3,0.6-0.5,1.2-0.8,1.8c2.9-6.9,6.5-13.4,10.7-19.6c1.1-1.6,2.1-3.2,3.3-4.7
		c0.5-0.7,1.1-1.5,1.6-2.2c0.3-0.4,0.5-0.7,0.8-1.1c0,0-1.3,1.6-0.6,0.7c0.2-0.2,0.4-0.5,0.5-0.7c2.4-3,4.9-6,7.6-8.9
		c5.2-5.7,10.9-11.1,16.8-16c1.5-1.2,3-2.5,4.5-3.6c0.2-0.1,0.4-0.3,0.5-0.4c-1.8,1.4-1.1,0.9-0.7,0.6s0.7-0.5,1.1-0.8
		c0.8-0.6,1.6-1.2,2.4-1.8c3-2.2,6.2-4.3,9.4-6.4c6.7-4.3,13.8-8,21.1-11.1c-0.6,0.3-1.2,0.5-1.8,0.8c7.4-3.1,15.2-5.6,23.2-6.7
		c-0.7,0.1-1.3,0.2-2,0.3c4.4-0.6,8.9-0.7,13.3-0.1c-0.7-0.1-1.3-0.2-2-0.3c0.9,0.1,1.8,0.3,2.8,0.5c3.9,0.8,8.4-1.1,9.4-5.3
		c0.9-3.8-1.2-8.5-5.3-9.4c-14.4-3-29.4,0.6-42.8,6.1c-16.9,7-32.3,17-46.1,29c-13.9,12-26.3,26.3-35.3,42.4
		c-4.4,7.8-8,16.2-10.4,24.9c-2.5,9.2-3.9,19.9-0.8,29.2c2.7,7.8,8.3,14,16.3,16.5c7.9,2.5,16.3,0.5,23.6-2.9
		c12.5-5.8,21.4-17.1,27.1-29.3c6.4-13.4,9.8-27.9,11.5-42.6c1.6-13.4,1.4-27.2-1.3-40.4c-2.1-10.5-6.5-21.9-15.9-28
		c-4.8-3.1-10.5-3.7-16.1-2.8c-3.3,0.6-6.6,2-9.6,3.5c-4.6,2.3-8.6,5.6-11.7,9.7c-3.2,4.3-4.7,9.8-4.8,15.1c0,3,1.9,5.8,4.7,7
		c3,1.2,6,0.5,8.3-1.6c7.7-6.6,15.2-14.3,19.7-23.5c2.5-5.1,4.1-10.6,4.1-16.3c0-5.3-1.5-10.8-4.2-15.3c-2.1-3.6-5.4-6.6-9.5-7.8
		c-4-1.1-7.9-0.2-11.5,1.6c-2.9,1.4-5.4,3.6-7.6,5.9c-2.6,2.6-4.8,5.6-6.9,8.6c-3.8,5.4-7.2,11.5-9.4,17.8
		c-1.3,3.8,1.5,8.5,5.3,9.4C441.2,264.1,445,261.9,446.4,257.8L446.4,257.8z"/>
</g>
<g>
	<path d="M176.4,632.5v7.2c0,8.7-4.4,13.7-12.8,13.7s-12.8-5-12.8-13.7v-28.3c0-8.7,4.4-13.7,12.8-13.7
		s12.8,5,12.8,13.7v5.3h-8.1v-5.8c0-3.9-1.7-5.4-4.4-5.4s-4.4,1.5-4.4,5.4v29.4c0,3.9,1.7,5.3,4.4,5.3s4.4-1.4,4.4-5.3v-7.8
		L176.4,632.5L176.4,632.5z"/>
	<path d="M180.9,611.5c0-8.7,4.6-13.7,13-13.7s13,5,13,13.7v28.3c0,8.7-4.6,13.7-13,13.7s-13-5-13-13.7V611.5z
		 M189.4,640.3c0,3.9,1.7,5.4,4.4,5.4s4.4-1.5,4.4-5.4v-29.4c0-3.9-1.7-5.4-4.4-5.4s-4.4,1.5-4.4,5.4V640.3z"/>
	<path d="M210,645.1c3.9,0,5.1-0.5,5.3-5.6l1.4-41.1h24.2v54.4h-8.7v-46.7h-7.5l-0.9,32.9c-0.3,10-3.9,13.8-12.4,13.8
		H210V645.1L210,645.1z"/>
	<path d="M255.9,652.8h-8.6v-54.4h8.6v23.3h9.7v-23.3h8.7v54.4h-8.7v-23.3h-9.7L255.9,652.8L255.9,652.8z"/>
	<path d="M289.1,621.3h11.7v7.8h-11.7V645h14.8v7.8h-23.3v-54.4h23.3v7.8h-14.8V621.3z"/>
	<path d="M335.2,598.4v54.4h-8.5v-21.9c-1.9,2-5,3-7.3,3c-7,0-10.6-5-10.6-12.5v-23h8.5v22.3c0,3.7,2.2,5.4,5,5.4
		c2.7,0,4.4-1.9,4.4-5.6v-22.1L335.2,598.4L335.2,598.4z"/>
	<path d="M350,652.8h-8.5v-54.4h8.5v23.3h9.7v-23.3h8.7v54.4h-8.7v-23.3H350V652.8z"/>
	<path d="M374.7,652.8v-54.4h8.5v20.5h4c8.5,0,12.8,4.7,12.8,13.5v7.1c0,8.7-4.2,13.5-12.8,13.5L374.7,652.8
		L374.7,652.8z M387.3,645.1c2.7,0,4.2-1.2,4.2-5.1v-8.2c0-3.9-1.5-5.1-4.2-5.1h-4v18.4L387.3,645.1L387.3,645.1z M404.9,652.8
		v-54.4h8.5v54.4H404.9z"/>
	<path d="M428.5,652.8h-8.8v-54.4h7.6v34.5l3.1-12l7-22.5h9.4v54.4h-7.7v-38.4l-3.5,13.4L428.5,652.8z M437.3,586.3
		c-0.2,2.9-1.5,3.6-3.9,3.6c-2.2,0-3.4-0.7-3.7-3.6h-5.3c0.2,5.3,3,8.6,8.9,8.6c6.1,0,9.1-3.3,9.1-8.6H437.3z"/>
	<path d="M209,723.5c0.9-2,0.9-4,0.9-6.6v-8.4c0-5.7,1.4-9.8,5.7-11.6c-3.8-1.8-5.6-5.4-5.6-11v-4.3
		c0-8.4,3.8-12.5,12.7-12.5h12.9v54.4H227v-22.2h-3c-3.9,0-5.6,1.9-5.6,6.9v8.5c0,4.4-0.3,5.3-0.8,6.7L209,723.5L209,723.5z
		 M222.9,676.8c-3,0-4.4,1.7-4.4,5.6v5.4c0,4.3,1.9,5.8,5.1,5.8h3.3v-16.7L222.9,676.8L222.9,676.8z"/>
	<path d="M250.3,723.5h-8.6V669h8.6v23.3h9.7V669h8.7v54.4H260v-23.3h-9.7V723.5L250.3,723.5z"/>
	<path d="M272.5,669h26.4v7.8H290v46.7h-8.5v-46.7h-8.9L272.5,669L272.5,669z"/>
	<path d="M330.4,723.5h-8.6l-1.5-9.9h-10.5l-1.5,9.9h-7.9l8.7-54.4h12.5L330.4,723.5z M310.8,706.2h8.2l-4.1-27.5
		L310.8,706.2z"/>
	<path d="M359.7,682.5v7.1c0,8.7-4.2,13.5-12.8,13.5h-4v20.5h-8.5v-54.4H347C355.5,669,359.7,673.8,359.7,682.5z
		 M342.9,676.8v18.4h4c2.7,0,4.2-1.2,4.2-5.1V682c0-3.9-1.5-5.1-4.2-5.1h-4V676.8z"/>
	<path d="M363.6,723.5V669h8.5v20.5h4c8.5,0,12.8,4.7,12.8,13.5v7.1c0,8.7-4.2,13.5-12.8,13.5L363.6,723.5L363.6,723.5z
		 M376.2,715.7c2.7,0,4.2-1.2,4.2-5.1v-8.2c0-3.9-1.5-5.1-4.2-5.1h-4v18.4L376.2,715.7L376.2,715.7z"/>
</g>

</svg>