<svg version="1.1" id="0" xmlns="http://www.w3.org/2000/svg" xmlns:xlink="http://www.w3.org/1999/xlink" x="0px" y="0px" viewBox="0 0 1000 1000" style="enable-background:new 0 0 1000 1000;" xml:space="preserve"><style type="text/css">.j,.n,.d,.c,.b{transition:all.5s cubic-bezier(0.75, 0.35, 0.4, 0.99);}.j{stroke-width:3;opacity:0.5;;stroke:#000;stroke-miterlimit:10;stroke-dasharray:500;stroke-dashoffset:500;}.n{stroke-width:3;opacity:0.13;;stroke:#000;stroke-miterlimit:10;stroke-dasharray:500;stroke-dashoffset:500;} .d{stroke-width:6;opacity:0;;stroke:#000;stroke-miterlimit:10;stroke-dasharray:12;animation:s linear 30s infinite;} .c{stroke-width:3;fill-opacity:1;stroke-opacity:0;fill:#000;stroke:#000;stroke-miterlimit:10;} .b{opacity:0;font-family:'Noah-Regular';font-size:25px;text-anchor:middle}.l:hover{.j{stroke-width:3;stroke-dashoffset:0;}.n{stroke-width:3;stroke-dashoffset:0;}.d{stroke-width:6;opacity:0.13;}.b{opacity:0.25;}.c{fill-opacity:.25;stroke-opacity:1;} } @keyframes s {0%{stroke-dashoffset:0;}100%{stroke-dashoffset:1000;}}</style><g class="l"><rect style="opacity:0;fill:#FFF;" width="1000" height="1000"/> <line class="j" x1="500" y1="725" x2="1000" y2="725"/> <line class="j" x1="500" y1="275" x2="0" y2="275"/> <line class="n" x1="500" y1="225" x2="0" y2="225"/> <line class="n" x1="500" y1="325" x2="0" y2="325"/> <line class="n" x1="500" y1="325" x2="1000" y2="325"/> <line class="n" x1="500" y1="675" x2="0" y2="675"/> <line class="n" x1="500" y1="675" x2="1000" y2="675"/> <line class="j" x1="500" y1="175" x2="0" y2="175"/> <line class="j" x1="500" y1="275" x2="1000" y2="275"/> <line class="n" x1="500" y1="225" x2="1000" y2="225"/> <line class="j" x1="500" y1="175" x2="1000" y2="175"/> <line class="j" x1="500" y1="825" x2="1000" y2="825"/> <line class="n" x1="500" y1="775" x2="1000" y2="775"/> <line class="j" x1="500" y1="825" x2="0" y2="825"/> <line class="j" x1="500" y1="725" x2="0" y2="725"/> <line class="n" x1="500" y1="775" x2="0" y2="775"/> <line class="j" x1="725" y1="500" x2="725" y2="1000"/> <line class="n" x1="675" y1="500" x2="675" y2="1000"/> <line class="n" x1="325" y1="500" x2="325" y2="1000"/> <line class="j" x1="275" y1="500" x2="275" y2="1000"/> <line class="j" x1="275" y1="500" x2="275" y2="0"/> <line class="n" x1="325" y1="500" x2="325" y2="0"/> <line class="n" x1="675" y1="500" x2="675" y2="0"/> <line class="j" x1="725" y1="500" x2="725" y2="0"/> <line class="d" x1="750" y1="0" x2="750" y2="1000"/> <path class="c" d=" M374.99,724.97c-55.01,0-99.99-44.99-99.99-99.99c0-174.02,98.97-325,244.02-399.98H275v-49.97H725 V225c-220.98,0-399.98,178.99-399.98,399.98c0,28.01,22.01,50.03,49.97,50.03H725v49.97c0,55.01-44.99,99.99-99.99,99.99h-99.99V775 h99.99c28.01,0,49.97-22.01,49.97-50.03H374.99z "/> <text transform="matrix(1 0 0 1 500 875)" class="b"> zeta </text></g></svg>