<svg xmlns="http://www.w3.org/2000/svg" viewBox="0 0 1750 900">
<style type="text/css">
    @import url("../../../../styles/logos-draft.css");

</style>
  <g class="main wbi">
	<rect class="bg" x="0" y="0" width="1750" height="900"/>

	<g class="logo-draft">
		<polygon points="937.9,261.4 937.9,387.1 937.9,512.9 937.9,638.6 1063.6,638.6 1063.6,512.9 1063.6,387.1 1063.6,261.4 		"/>
		<rect x="1365.3" y="512.9" width="125.7" height="125.7"/>
		<rect x="1113.9" y="512.9" width="125.7" height="125.7"/>
		<rect x="1239.6" y="387.1" width="125.7" height="125.7"/>
		<rect x="1365.3" y="261.4" width="125.7" height="125.7"/>
		<rect x="1113.9" y="261.4" width="125.7" height="125.7"/>
		<path d="M887.6,450L887.6,450c0-104.1-84.5-188.6-188.6-188.6c-48.3,0-92.3,18.1-125.7,48c-33.4-29.9-77.4-48-125.7-48
			C343.5,261.4,259,345.9,259,450l0,0v62.9l0,0v125.7h125.7V512.9l0,0V450l0,0c0-34.7,28.2-62.9,62.9-62.9s62.9,28.2,62.9,62.9l0,0
			v62.9l0,0v125.7h125.7V512.9l0,0V450l0,0c0-34.7,28.2-62.9,62.9-62.9s62.9,28.2,62.9,62.9l0,0v62.9l0,0v125.7h125.7V512.9l0,0V450
			z"/>
	</g>

	<g class="dl">
		<rect x="7.6" y="10" width="1734.9" height="880"/>
		<line x1="1000.7" y1="10" x2="1000.7" y2="890"/>
	</g>

	<g class="mjl">
		<line x1="1491" y1="10" x2="1491" y2="890"/>
		<line x1="7.6" y1="638.6" x2="1742.4" y2="638.6"/>
		<line x1="7.6" y1="261.4" x2="1742.4" y2="261.4"/>
		<line x1="259" y1="10" x2="259" y2="890"/>
	</g>

	<g class="mnl">
		<line x1="7.6" y1="512.9" x2="1742.4" y2="512.9"/>
		<line x1="7.6" y1="387.1" x2="1742.4" y2="387.1"/>
		<line x1="384.7" y1="10" x2="384.7" y2="890"/>
		<line x1="510.4" y1="10" x2="510.4" y2="890"/>
		<line x1="636.1" y1="10" x2="636.1" y2="890"/>
		<line x1="761.9" y1="10" x2="761.9" y2="890"/>
		<line x1="887.6" y1="10" x2="887.6" y2="890"/>
		<line x1="937.9" y1="10" x2="937.9" y2="890"/>
		<line x1="1063.6" y1="10" x2="1063.6" y2="890"/>
		<line x1="1113.9" y1="10" x2="1113.9" y2="890"/>
		<line x1="1239.6" y1="10" x2="1239.6" y2="890"/>
		<line x1="1365.3" y1="10" x2="1365.3" y2="890"/>
		<circle cx="447.6" cy="450" r="188.6"/>
		<circle cx="447.6" cy="450" r="62.9"/>
		<circle cx="699" cy="450" r="62.9"/>
		<circle cx="699" cy="450" r="188.6"/>
	</g>
</g>
</svg>