<?xml version="1.0" encoding="utf-8"?>
<svg xmlns="http://www.w3.org/2000/svg" viewBox="0 0 1000 1000">
<style type="text/css">@import url("../../letters.css");</style>

<g class="letter">
	<rect width="1000" height="1000" opacity="0"/>
	<g class="mj">
		<line x1="500" y1="175" x2="0" y2="175"/>
		<line x1="500" y1="175" x2="1000" y2="175"/>
		<line x1="500" y1="275" x2="0" y2="275"/>
		<line x1="500" y1="275" x2="1000" y2="275"/>
		<line x1="500" y1="725" x2="0" y2="725"/>
		<line x1="500" y1="725" x2="1000" y2="725"/>
		<line x1="500" y1="825" x2="0" y2="825"/>
		<line x1="500" y1="825" x2="1000" y2="825"/>

		<line x1="275" y1="500" x2="275" y2="0"/>
		<line x1="275" y1="500" x2="275" y2="1000"/>
		<line x1="725" y1="500" x2="725" y2="0"/>
		<line x1="725" y1="500" x2="725" y2="1000"/>
	</g>

	<g class="mn">
		<line x1="500" y1="325" x2="0" y2="325"/>
		<line x1="500" y1="325" x2="1000" y2="325"/>
		<line x1="500" y1="675" x2="0" y2="675"/>
		<line x1="500" y1="675" x2="1000" y2="675"/>

		<line x1="325" y1="500" x2="325" y2="0"/>
		<line x1="325" y1="500" x2="325" y2="1000"/>
		<line x1="675" y1="500" x2="675" y2="0"/>
		<line x1="675" y1="500" x2="675" y2="1000"/>

		<line x1="500" y1="525" x2="0" y2="525"/>
        <line x1="500" y1="525" x2="1000" y2="525"/>
        <line x1="500" y1="575" x2="0" y2="575"/>
        <line x1="500" y1="575" x2="1000" y2="575"/>
	</g>

	<line class="d" x1="750" y1="0" x2="750" y2="1000"/>

	<path class="c" d=" M724.97,725h-49.97V574.98H469.02C447,661,368,725,275.03,725v-50.03
	c65.98,0,122.01-41.99,141.98-99.99c-79-4.02-141.98-70-141.98-150.02c0-83.02,67-149.96,149.96-149.96h299.98L724.97,725
	L724.97,725z M424.99,524.95h250.02V324.96H424.99c-55.01,0-99.99,44.99-99.99,99.99C324.99,479.97,369.98,524.95,424.99,524.95z "/>

	<path class="cl" d=" M724.97,725h-49.97V574.98H469.02C447,661,368,725,275.03,725v-50.03
	c65.98,0,122.01-41.99,141.98-99.99c-79-4.02-141.98-70-141.98-150.02c0-83.02,67-149.96,149.96-149.96h299.98L724.97,725
	L724.97,725z M424.99,524.95h250.02V324.96H424.99c-55.01,0-99.99,44.99-99.99,99.99C324.99,479.97,369.98,524.95,424.99,524.95z "/>

	<text class="l" transform="matrix(1 0 0 1 500 875)">заглавная я</text>
</g>
</svg>
