<?xml version="1.0" encoding="utf-8"?>
<svg xmlns="http://www.w3.org/2000/svg" viewBox="0 0 1000 1000">
<style type="text/css">@import url("../../letters.css");</style>

<g class="letter">
	<rect width="1000" height="1000" opacity="0"/>
	<g class="mj">
		<line x1="500" y1="175" x2="0" y2="175"/>
		<line x1="500" y1="175" x2="1000" y2="175"/>
		<line x1="500" y1="275" x2="0" y2="275"/>
		<line x1="500" y1="275" x2="1000" y2="275"/>
		<line x1="500" y1="725" x2="0" y2="725"/>
		<line x1="500" y1="725" x2="1000" y2="725"/>
		<line x1="500" y1="825" x2="0" y2="825"/>
		<line x1="500" y1="825" x2="1000" y2="825"/>

		<line x1="275" y1="500" x2="275" y2="0"/>
		<line x1="275" y1="500" x2="275" y2="1000"/>
		<line x1="725" y1="500" x2="725" y2="0"/>
		<line x1="725" y1="500" x2="725" y2="1000"/>
	</g>

	<g class="mn">
		<line x1="500" y1="325" x2="0" y2="325"/>
		<line x1="500" y1="325" x2="1000" y2="325"/>
		<line x1="500" y1="675" x2="0" y2="675"/>
		<line x1="500" y1="675" x2="1000" y2="675"/>

		<line x1="325" y1="500" x2="325" y2="0"/>
		<line x1="325" y1="500" x2="325" y2="1000"/>
		<line x1="675" y1="500" x2="675" y2="0"/>
		<line x1="675" y1="500" x2="675" y2="1000"/>

		<line x1="225" y1="500" x2="225" y2="0"/>
		<line x1="225" y1="500" x2="225" y2="1000"/>
		<line x1="775" y1="500" x2="775" y2="0"/>
		<line x1="775" y1="500" x2="775" y2="1000"/>
	</g>

	<line class="d" x1="800" y1="0" x2="800" y2="1000"/>

	<path class="c" d=" M225.06,675.01h49.97V500.03c0-123.99,101.01-225,225-225h225v399.98H775v49.97H225v-49.97H225.06z
	 M325.05,675.01h350.01V324.99H500.09c-97,0-174.98,77.98-174.98,174.98v175.04H325.05z "/>

	<path class="cl" d=" M225.06,675.01h49.97V500.03c0-123.99,101.01-225,225-225h225v399.98H775v49.97H225v-49.97H225.06z
	 M325.05,675.01h350.01V324.99H500.09c-97,0-174.98,77.98-174.98,174.98v175.04H325.05z "/>

	<text class="l" transform="matrix(1 0 0 1 500 875)">заглавная дэ</text>
</g>
</svg>
