<?xml version="1.0" encoding="utf-8"?>
<svg xmlns="http://www.w3.org/2000/svg" viewBox="0 0 1000 1000">
<style type="text/css">@import url("../../letters.css");</style>

<g class="letter">
	<rect width="1000" height="1000" opacity="0"/>
	<g class="mj">
		<line x1="500" y1="175" x2="0" y2="175"/>
		<line x1="500" y1="175" x2="1000" y2="175"/>
		<line x1="500" y1="275" x2="0" y2="275"/>
		<line x1="500" y1="275" x2="1000" y2="275"/>
		<line x1="500" y1="725" x2="0" y2="725"/>
		<line x1="500" y1="725" x2="1000" y2="725"/>
		<line x1="500" y1="825" x2="0" y2="825"/>
		<line x1="500" y1="825" x2="1000" y2="825"/>

		<line x1="275" y1="500" x2="275" y2="0"/>
		<line x1="275" y1="500" x2="275" y2="1000"/>
		<line x1="725" y1="500" x2="725" y2="0"/>
		<line x1="725" y1="500" x2="725" y2="1000"/>
	</g>

	<g class="mn">
		<line x1="500" y1="325" x2="0" y2="325"/>
		<line x1="500" y1="325" x2="1000" y2="325"/>
		<line x1="500" y1="675" x2="0" y2="675"/>
		<line x1="500" y1="675" x2="1000" y2="675"/>

		<line x1="675" y1="500" x2="675" y2="0"/>
		<line x1="675" y1="500" x2="675" y2="1000"/>

		<line x1="500" y1="475" x2="0" y2="475"/>
        <line x1="500" y1="475" x2="1000" y2="475"/>
        <line x1="500" y1="525" x2="0" y2="525"/>
        <line x1="500" y1="525" x2="1000" y2="525"/>
	</g>

	<line class="d" x1="750" y1="0" x2="750" y2="1000"/>

	<path class="c" d=" M500,724.97H275v-50.03h225c89.02,0,161-65.02,173-149.96H450.03v-49.97H673
	c-12-85-83.98-150.02-173-150.02H275v-49.97h225c123.99,0,225,101.01,225,225C725,624.02,623.99,724.97,500,724.97z "/>

	<path class="cl" d=" M500,724.97H275v-50.03h225c89.02,0,161-65.02,173-149.96H450.03v-49.97H673
	c-12-85-83.98-150.02-173-150.02H275v-49.97h225c123.99,0,225,101.01,225,225C725,624.02,623.99,724.97,500,724.97z "/>

	<text class="l" transform="matrix(1 0 0 1 500 875)">заглавная э</text>
</g>
</svg>
