<?xml version="1.0" encoding="utf-8"?>
<svg xmlns="http://www.w3.org/2000/svg" viewBox="0 0 1000 1000">
<style type="text/css">@import url("../../letters.css");</style>

<g class="letter">
	<rect width="1000" height="1000" opacity="0"/>
	<g class="mj">
		<line x1="500" y1="175" x2="0" y2="175"/>
		<line x1="500" y1="175" x2="1000" y2="175"/>
		<line x1="500" y1="275" x2="0" y2="275"/>
		<line x1="500" y1="275" x2="1000" y2="275"/>
		<line x1="500" y1="725" x2="0" y2="725"/>
		<line x1="500" y1="725" x2="1000" y2="725"/>
		<line x1="500" y1="825" x2="0" y2="825"/>
		<line x1="500" y1="825" x2="1000" y2="825"/>

		<line x1="75" y1="500" x2="75" y2="0"/>
		<line x1="75" y1="500" x2="75" y2="1000"/>
		<line x1="925" y1="500" x2="925" y2="0"/>
		<line x1="925" y1="500" x2="925" y2="1000"/>
	</g>

	<g class="mn">
		<line x1="125" y1="500" x2="125" y2="0"/>
		<line x1="125" y1="500" x2="125" y2="1000"/>
		<line x1="475" y1="500" x2="475" y2="0"/>
		<line x1="475" y1="500" x2="475" y2="1000"/>
		<line x1="525" y1="500" x2="525" y2="0"/>
		<line x1="525" y1="500" x2="525" y2="1000"/>
		<line x1="875" y1="500" x2="875" y2="0"/>
		<line x1="875" y1="500" x2="875" y2="1000"/>

		<line x1="500" y1="475" x2="0" y2="475"/>
        <line x1="500" y1="475" x2="1000" y2="475"/>
        <line x1="500" y1="525" x2="0" y2="525"/>
        <line x1="500" y1="525" x2="1000" y2="525"/>
	</g>

	<line class="d" x1="950" y1="0" x2="950" y2="1000"/>

	<path class="c" d=" M524.9,725h-50V525H325c-110,0-200,90-200,200H75c0-99,58-184,141-225C133,459,75,374,75,275h50
	c0,110,90,200,200,200h150V275h50v200h150c110,0,200-90,200-200h50c0,99-58,184-141,225c83,41,141,126,141,225h-50
	c0-110-90-200-200-200H525L524.9,725L524.9,725z "/>

	<path class="cl" d=" M524.9,725h-50V525H325c-110,0-200,90-200,200H75c0-99,58-184,141-225C133,459,75,374,75,275h50
	c0,110,90,200,200,200h150V275h50v200h150c110,0,200-90,200-200h50c0,99-58,184-141,225c83,41,141,126,141,225h-50
	c0-110-90-200-200-200H525L524.9,725L524.9,725z "/>

	<text class="l" transform="matrix(1 0 0 1 500 875)">заглавная жэ</text>
</g>
</svg>
