<?xml version="1.0" encoding="utf-8"?>
<svg xmlns="http://www.w3.org/2000/svg" viewBox="0 0 1000 1000">
<style type="text/css">@import url("../../letters.css");</style>

<g class="letter">
	<rect width="1000" height="1000" opacity="0"/>
	<g class="mj">
		<line x1="500" y1="175" x2="0" y2="175"/>
		<line x1="500" y1="175" x2="1000" y2="175"/>
		<line x1="500" y1="275" x2="0" y2="275"/>
		<line x1="500" y1="275" x2="1000" y2="275"/>
		<line x1="500" y1="725" x2="0" y2="725"/>
		<line x1="500" y1="725" x2="1000" y2="725"/>
		<line x1="500" y1="825" x2="0" y2="825"/>
		<line x1="500" y1="825" x2="1000" y2="825"/>

		<line x1="275" y1="500" x2="275" y2="0"/>
		<line x1="275" y1="500" x2="275" y2="1000"/>
		<line x1="725" y1="500" x2="725" y2="0"/>
		<line x1="725" y1="500" x2="725" y2="1000"/>
	</g>

	<g class="mn">
		<line x1="325" y1="500" x2="325" y2="0"/>
		<line x1="325" y1="500" x2="325" y2="1000"/>
		<line x1="675" y1="500" x2="675" y2="0"/>
		<line x1="675" y1="500" x2="675" y2="1000"/>

		<line x1="500" y1="475" x2="0" y2="475"/>
        <line x1="500" y1="475" x2="1000" y2="475"/>
        <line x1="500" y1="525" x2="0" y2="525"/>
        <line x1="500" y1="525" x2="1000" y2="525"/>
	</g>

	<line class="d" x1="750" y1="0" x2="750" y2="1000"/>

	<path class="c" d=" M675.04,525.01H400.07c-68.98,0-125.01-56.03-125.01-125.01V275h49.97v125.01
	c0,40.97,34.01,74.98,74.98,74.98h274.97V275h49.97V725h-49.97V525.01H675.04z "/>

	<path class="cl" d=" M675.04,525.01H400.07c-68.98,0-125.01-56.03-125.01-125.01V275h49.97v125.01
	c0,40.97,34.01,74.98,74.98,74.98h274.97V275h49.97V725h-49.97V525.01H675.04z "/>

	<text class="l" transform="matrix(1 0 0 1 500 875)">заглавная че</text>
</g>
</svg>
