<svg xmlns="http://www.w3.org/2000/svg" viewBox="0 0 770.9 770.9">
<style type="text/css">
    .st0{fill:#3C8EFF;}
	.st1{fill:#E1005A;}
	.st2{fill:#FFB93E;}
</style>

<rect class="st0" width="25.7" height="25.7"/>
<path class="st0" d="M102.8,0v25.7H77.1c0-2.2,0.8-4.4,2.5-6.1L96.7,2.5C98.4,0.8,100.6,0,102.8,0z"/>
<path class="st1" d="M102.8,51.4H77.1V25.7c2.2,0,4.4,0.8,6.1,2.5l17.1,17.1C101.9,47,102.8,49.2,102.8,51.4z"/>
<rect x="128.5" y="25.7" class="st2" width="25.7" height="25.7"/>
<path class="st2" d="M154.2,0h25.7v25.7c-2.2,0-4.4-0.8-6.1-2.5L156.7,6.1C155,4.4,154.2,2.2,154.2,0z"/>
<path class="st1" d="M154.2,51.4V25.7h25.7c0,2.2-0.8,4.4-2.5,6.1l-17.1,17.1C158.6,50.6,156.4,51.4,154.2,51.4z"/>
<path class="st0" d="M205.6,51.4h-25.7V25.7c2.2,0,4.4,0.8,6.1,2.5l17.1,17.1C204.7,47,205.6,49.2,205.6,51.4z"/>
<rect x="231.3" class="st1" width="25.7" height="25.7"/>
<path class="st0" d="M231.3,25.7H257v25.7c-2.2,0-4.4-0.8-6.1-2.5l-17.1-17.1C232.1,30.1,231.3,27.9,231.3,25.7z"/>
<path class="st2" d="M308.4,25.7V0H334c0,2.2-0.8,4.4-2.5,6.1l-17.1,17.1C312.7,24.9,310.5,25.7,308.4,25.7z"/>
<path class="st2" d="M0,51.4h25.7v25.7c-2.2,0-4.4-0.8-6.1-2.5L2.5,57.4C0.8,55.8,0,53.6,0,51.4z"/>
<path class="st1" d="M25.7,51.4h25.7v25.7c-2.2,0-4.4-0.8-6.1-2.5L28.2,57.4C26.5,55.8,25.7,53.6,25.7,51.4z"/>
<path class="st1" d="M0,77.1h25.7v25.7c-2.2,0-4.4-0.8-6.1-2.5L2.5,83.1C0.8,81.5,0,79.3,0,77.1z"/>
<rect x="51.4" y="77.1" class="st0" width="25.7" height="25.7"/>
<rect x="77.1" y="51.4" class="st2" width="25.7" height="25.7"/>
<rect x="77.1" y="77.1" class="st1" width="25.7" height="25.7"/>
<path class="st0" d="M128.5,77.1v25.7h-25.7c0-2.2,0.8-4.4,2.5-6.1l17.1-17.1C124.1,77.9,126.3,77.1,128.5,77.1z"/>
<rect x="128.5" y="77.1" class="st1" width="25.7" height="25.7"/>
<rect x="154.2" y="51.4" class="st2" width="25.7" height="25.7"/>
<rect x="154.2" y="77.1" class="st0" width="25.7" height="25.7"/>
<rect x="205.6" y="77.1" class="st0" width="25.7" height="25.7"/>
<path class="st2" d="M257,51.4v25.7h-25.7c0-2.2,0.8-4.4,2.5-6.1l17.1-17.1C252.6,52.2,254.8,51.4,257,51.4z"/>
<rect x="231.3" y="77.1" class="st1" width="25.7" height="25.7"/>
<path class="st0" d="M308.4,77.1v25.7h-25.7c0-2.2,0.8-4.4,2.5-6.1l17.1-17.1C304,77.9,306.2,77.1,308.4,77.1z"/>
<path class="st0" d="M25.7,102.8v25.7H0c0-2.2,0.8-4.4,2.5-6.1l17.1-17.1C21.3,103.6,23.5,102.8,25.7,102.8z"/>
<rect y="128.5" class="st2" width="25.7" height="25.7"/>
<path class="st2" d="M25.7,128.5h25.7v25.7c-2.2,0-4.4-0.8-6.1-2.5l-17.1-17.1C26.5,132.9,25.7,130.7,25.7,128.5z"/>
<path class="st1" d="M51.4,128.5h25.7v25.7c-2.2,0-4.4-0.8-6.1-2.5l-17.1-17.1C52.2,132.9,51.4,130.7,51.4,128.5z"/>
<rect x="77.1" y="102.8" class="st0" width="25.7" height="25.7"/>
<path class="st2" d="M128.5,102.8v25.7h-25.7c0-2.2,0.8-4.4,2.5-6.1l17.1-17.1C124.1,103.6,126.3,102.8,128.5,102.8z"/>
<path class="st0" d="M128.5,102.8h25.7v25.7c-2.2,0-4.4-0.8-6.1-2.5L131,108.8C129.3,107.2,128.5,105,128.5,102.8z"/>
<path class="st2" d="M102.8,154.2H77.1v-25.7c2.2,0,4.4,0.8,6.1,2.5l17.1,17.1C101.9,149.8,102.8,152,102.8,154.2z"/>
<path class="st2" d="M154.2,128.5v25.7h-25.7c0-2.2,0.8-4.4,2.5-6.1l17.1-17.1C149.8,129.3,152,128.5,154.2,128.5z"/>
<path class="st2" d="M154.2,128.5v-25.7h25.7c0,2.2-0.8,4.4-2.5,6.1L160.2,126C158.6,127.6,156.4,128.5,154.2,128.5z"/>
<path class="st1" d="M179.9,128.5v25.7h-25.7c0-2.2,0.8-4.4,2.5-6.1l17.1-17.1C175.5,129.3,177.7,128.5,179.9,128.5z"/>
<path class="st0" d="M179.9,154.2v-25.7h25.7c0,2.2-0.8,4.4-2.5,6.1L186,151.7C184.3,153.3,182.1,154.2,179.9,154.2z"/>
<path class="st1" d="M25.7,179.9H0v-25.7c2.2,0,4.4,0.8,6.1,2.5l17.1,17.1C24.9,175.5,25.7,177.7,25.7,179.9z"/>
<path class="st0" d="M77.1,179.9H51.4v-25.7c2.2,0,4.4,0.8,6.1,2.5l17.1,17.1C76.2,175.5,77.1,177.7,77.1,179.9z"/>
<path class="st2" d="M0,179.9h25.7v25.7c-2.2,0-4.4-0.8-6.1-2.5L2.5,185.9C0.8,184.3,0,182.1,0,179.9z"/>
<path class="st0" d="M25.7,179.9h25.7v25.7c-2.2,0-4.4-0.8-6.1-2.5L28.2,186C26.5,184.3,25.7,182.1,25.7,179.9z"/>
<rect x="77.1" y="154.2" class="st1" width="25.7" height="25.7"/>
<path class="st2" d="M0,231.3v-25.7h25.7c0,2.2-0.8,4.4-2.5,6.1L6.1,228.8C4.4,230.4,2.2,231.3,0,231.3z"/>
<path class="st1" d="M51.4,231.3H25.7v-25.7c2.2,0,4.4,0.8,6.1,2.5l17.1,17.1C50.6,226.9,51.4,229.1,51.4,231.3z"/>
<path class="st2" d="M25.7,231.3V257H0c0-2.2,0.8-4.4,2.5-6.1l17.1-17.1C21.3,232.1,23.5,231.3,25.7,231.3z"/>
<path class="st0" d="M51.4,257H25.7v-25.7c2.2,0,4.4,0.8,6.1,2.5l17.1,17.1C50.6,252.6,51.4,254.8,51.4,257z"/>
<path class="st2" d="M77.1,231.3h25.7V257c-2.2,0-4.4-0.8-6.1-2.5l-17.1-17.1C77.9,235.6,77.1,233.5,77.1,231.3z"/>
<path class="st1" d="M0,257h25.7v25.7c-2.2,0-4.4-0.8-6.1-2.5L2.5,263C0.8,261.3,0,259.2,0,257z"/>
<path class="st0" d="M25.7,282.7v25.7H0c0-2.2,0.8-4.4,2.5-6.1l17.1-17.1C21.3,283.5,23.5,282.7,25.7,282.7z"/>
<rect x="77.1" y="257" class="st1" width="25.7" height="25.7"/>
<path class="st0" d="M154.2,231.3h-25.7v-25.7c2.2,0,4.4,0.8,6.1,2.5l17.1,17.1C153.3,226.9,154.2,229.1,154.2,231.3z"/>

</svg>