<svg xmlns="http://www.w3.org/2000/svg" viewBox="0 0 770.9 770.9">
<style type="text/css">
    .st0{fill:#FFB93E;}
	.st1{fill:#3C8EFF;}
	.st2{fill:#E1005A;}
</style>

<path class="st0" d="M462.5,0h25.7v25.7c-2.2,0-4.4-0.8-6.1-2.5L465,6.1C463.4,4.4,462.5,2.2,462.5,0z"/>
<path class="st1" d="M462.5,25.7h25.7v25.7c-2.2,0-4.4-0.8-6.1-2.5L465,31.8C463.4,30.1,462.5,27.9,462.5,25.7z"/>
<path class="st2" d="M513.9,51.4h-25.7V25.7c2.2,0,4.4,0.8,6.1,2.5l17.1,17.1C513.1,47,513.9,49.2,513.9,51.4z"/>
<path class="st0" d="M513.9,51.4V25.7h25.7c0,2.2-0.8,4.4-2.5,6.1L520,48.9C518.3,50.6,516.1,51.4,513.9,51.4z"/>
<rect x="539.6" class="st2" width="25.7" height="25.7"/>
<path class="st1" d="M591,0v25.7h-25.7c0-2.2,0.8-4.4,2.5-6.1l17.1-17.1C586.6,0.8,588.8,0,591,0z"/>
<path class="st0" d="M565.3,25.7v25.7h-25.7c0-2.2,0.8-4.4,2.5-6.1l17.1-17.1C560.9,26.5,563.1,25.7,565.3,25.7z"/>
<rect x="591" y="25.7" class="st2" width="25.7" height="25.7"/>
<rect x="616.7" class="st0" width="25.7" height="25.7"/>
<path class="st0" d="M616.7,51.4V25.7h25.7c0,2.2-0.8,4.4-2.5,6.1l-17.1,17.1C621.1,50.6,618.9,51.4,616.7,51.4z"/>
<path class="st2" d="M668.1,25.7v25.7h-25.7c0-2.2,0.8-4.4,2.5-6.1L662,28.2C663.7,26.5,665.9,25.7,668.1,25.7z"/>
<rect x="668.1" y="25.7" class="st0" width="25.7" height="25.7"/>
<rect x="693.8" class="st0" width="25.7" height="25.7"/>
<path class="st1" d="M719.5,51.4h-25.7V25.7c2.2,0,4.4,0.8,6.1,2.5L717,45.3C718.6,47,719.5,49.2,719.5,51.4z"/>
<path class="st2" d="M745.2,25.7v25.7h-25.7c0-2.2,0.8-4.4,2.5-6.1l17.1-17.1C740.8,26.5,743,25.7,745.2,25.7z"/>
<rect x="745.2" y="25.7" class="st0" width="25.7" height="25.7"/>
<path class="st2" d="M488.2,77.1h25.7v25.7c-2.2,0-4.4-0.8-6.1-2.5l-17.1-17.1C489.1,81.5,488.2,79.3,488.2,77.1z"/>
<path class="st2" d="M539.6,51.4h25.7v25.7c-2.2,0-4.4-0.8-6.1-2.5l-17.1-17.1C540.5,55.8,539.6,53.6,539.6,51.4z"/>
<path class="st1" d="M591,77.1h-25.7V51.4c2.2,0,4.4,0.8,6.1,2.5L588.5,71C590.2,72.7,591,74.9,591,77.1z"/>
<rect x="591" y="77.1" class="st2" width="25.7" height="25.7"/>
<path class="st1" d="M616.7,51.4h25.7v25.7c-2.2,0-4.4-0.8-6.1-2.5l-17.1-17.1C617.5,55.8,616.7,53.6,616.7,51.4z"/>
<path class="st1" d="M668.1,102.8h-25.7V77.1c2.2,0,4.4,0.8,6.1,2.5l17.1,17.1C667.3,98.4,668.1,100.6,668.1,102.8z"/>
<rect x="668.1" y="77.1" class="st2" width="25.7" height="25.7"/>
<path class="st2" d="M693.8,77.1V51.4h25.7c0,2.2-0.8,4.4-2.5,6.1l-17.1,17.1C698.2,76.2,696,77.1,693.8,77.1z"/>
<path class="st0" d="M719.5,77.1V51.4h25.7c0,2.2-0.8,4.4-2.5,6.1l-17.1,17.1C723.9,76.2,721.7,77.1,719.5,77.1z"/>
<path class="st0" d="M513.9,154.2v-25.7h25.7c0,2.2-0.8,4.4-2.5,6.1L520,151.7C518.3,153.3,516.1,154.2,513.9,154.2z"/>
<rect x="539.6" y="102.8" class="st2" width="25.7" height="25.7"/>
<path class="st1" d="M591,154.2h-25.7v-25.7c2.2,0,4.4,0.8,6.1,2.5l17.1,17.1C590.2,149.8,591,152,591,154.2z"/>
<path class="st0" d="M642.4,128.5h-25.7v-25.7c2.2,0,4.4,0.8,6.1,2.5l17.1,17.1C641.6,124.1,642.4,126.3,642.4,128.5z"/>
<path class="st2" d="M642.4,154.2h-25.7v-25.7c2.2,0,4.4,0.8,6.1,2.5l17.1,17.1C641.6,149.8,642.4,152,642.4,154.2z"/>
<path class="st1" d="M642.4,128.5h25.7v25.7c-2.2,0-4.4-0.8-6.1-2.5l-17.1-17.1C643.2,132.9,642.4,130.7,642.4,128.5z"/>
<path class="st1" d="M719.5,102.8v25.7h-25.7c0-2.2,0.8-4.4,2.5-6.1l17.1-17.1C715.1,103.6,717.3,102.8,719.5,102.8z"/>
<path class="st2" d="M719.5,128.5v-25.7h25.7c0,2.2-0.8,4.4-2.5,6.1L725.5,126C723.9,127.6,721.7,128.5,719.5,128.5z"/>
<rect x="745.2" y="128.5" class="st0" width="25.7" height="25.7"/>
<path class="st2" d="M616.7,154.2v25.7H591c0-2.2,0.8-4.4,2.5-6.1l17.1-17.1C612.3,155,614.5,154.2,616.7,154.2z"/>
<path class="st1" d="M616.7,179.9v25.7H591c0-2.2,0.8-4.4,2.5-6.1l17.1-17.1C612.3,180.7,614.5,179.9,616.7,179.9z"/>
<path class="st2" d="M642.4,179.9v25.7h-25.7c0-2.2,0.8-4.4,2.5-6.1l17.1-17.1C638,180.7,640.2,179.9,642.4,179.9z"/>
<path class="st0" d="M668.1,179.9v25.7h-25.7c0-2.2,0.8-4.4,2.5-6.1l17.1-17.1C663.7,180.7,665.9,179.9,668.1,179.9z"/>
<path class="st1" d="M668.1,179.9h25.7v25.7c-2.2,0-4.4-0.8-6.1-2.5L670.6,186C668.9,184.3,668.1,182.1,668.1,179.9z"/>
<rect x="693.8" y="154.2" class="st1" width="25.7" height="25.7"/>
<path class="st2" d="M745.2,179.9h-25.7v-25.7c2.2,0,4.4,0.8,6.1,2.5l17.1,17.1C744.3,175.5,745.2,177.7,745.2,179.9z"/>
<path class="st0" d="M693.8,205.6v-25.7h25.7c0,2.2-0.8,4.4-2.5,6.1l-17.1,17.1C698.2,204.7,696,205.6,693.8,205.6z"/>
<path class="st1" d="M745.2,179.9h25.7v25.7c-2.2,0-4.4-0.8-6.1-2.5L747.7,186C746,184.3,745.2,182.1,745.2,179.9z"/>
<path class="st0" d="M616.7,231.3h25.7V257c-2.2,0-4.4-0.8-6.1-2.5l-17.1-17.1C617.5,235.6,616.7,233.5,616.7,231.3z"/>
<path class="st2" d="M642.4,231.3h25.7V257c-2.2,0-4.4-0.8-6.1-2.5l-17.1-17.1C643.2,235.6,642.4,233.5,642.4,231.3z"/>
<path class="st2" d="M719.5,231.3h-25.7v-25.7c2.2,0,4.4,0.8,6.1,2.5l17.1,17.1C718.6,226.9,719.5,229.1,719.5,231.3z"/>
<rect x="693.8" y="231.3" class="st0" width="25.7" height="25.7"/>
<rect x="616.7" y="257" class="st0" width="25.7" height="25.7"/>
<path class="st1" d="M693.8,257v25.7h-25.7c0-2.2,0.8-4.4,2.5-6.1l17.1-17.1C689.4,257.8,691.6,257,693.8,257z"/>
<path class="st2" d="M719.5,257v25.7h-25.7c0-2.2,0.8-4.4,2.5-6.1l17.1-17.1C715.1,257.8,717.3,257,719.5,257z"/>
<path class="st0" d="M719.5,308.4v-25.7h25.7c0,2.2-0.8,4.4-2.5,6.1l-17.1,17.1C723.9,307.5,721.7,308.4,719.5,308.4z"/>
<rect x="745.2" y="282.7" class="st1" width="25.7" height="25.7"/>

</svg>