<svg xmlns="http://www.w3.org/2000/svg" viewBox="0 0 770.9 231.3">
<style type="text/css">
    .st0{fill:#FFB93E;}
	.st1{fill:#E1005A;}
	.st2{fill:#3C8EFF;}
</style>

<path class="st0" d="M0,25.7V0h25.7c0,2.2-0.8,4.4-2.5,6.1L6.1,23.2C4.4,24.9,2.2,25.7,0,25.7z"/>
<path class="st1" d="M25.7,0h25.7v25.7c-2.2,0-4.4-0.8-6.1-2.5L28.2,6.1C26.5,4.4,25.7,2.2,25.7,0z"/>
<rect x="51.4" class="st0" width="25.7" height="25.7"/>
<path class="st2" d="M77.1,25.7V0h25.7c0,2.2-0.8,4.4-2.5,6.1L83.1,23.2C81.5,24.9,79.3,25.7,77.1,25.7z"/>
<path class="st1" d="M128.5,0h25.7v25.7c-2.2,0-4.4-0.8-6.1-2.5L131,6.1C129.3,4.4,128.5,2.2,128.5,0z"/>
<path class="st0" d="M179.9,25.7h-25.7V0c2.2,0,4.4,0.8,6.1,2.5l17.1,17.1C179,21.3,179.9,23.5,179.9,25.7z"/>
<path class="st2" d="M205.6,0h25.7v25.7c-2.2,0-4.4-0.8-6.1-2.5L208.1,6.1C206.4,4.4,205.6,2.2,205.6,0z"/>
<path class="st0" d="M231.3,0H257v25.7c-2.2,0-4.4-0.8-6.1-2.5L233.8,6.1C232.1,4.4,231.3,2.2,231.3,0z"/>
<path class="st1" d="M282.7,0v25.7H257c0-2.2,0.8-4.4,2.5-6.1l17.1-17.1C278.3,0.8,280.5,0,282.7,0z"/>
<path class="st2" d="M308.4,0v25.7h-25.7c0-2.2,0.8-4.4,2.5-6.1l17.1-17.1C304,0.8,306.2,0,308.4,0z"/>
<rect x="308.4" class="st1" width="25.7" height="25.7"/>
<path class="st2" d="M385.4,0v25.7h-25.7c0-2.2,0.8-4.4,2.5-6.1l17.1-17.1C381.1,0.8,383.2,0,385.4,0z"/>
<path class="st0" d="M385.4,25.7V0h25.7c0,2.2-0.8,4.4-2.5,6.1l-17.1,17.1C389.8,24.9,387.6,25.7,385.4,25.7z"/>
<rect x="436.8" class="st0" width="25.7" height="25.7"/>
<path class="st1" d="M488.2,0v25.7h-25.7c0-2.2,0.8-4.4,2.5-6.1l17.1-17.1C483.8,0.8,486,0,488.2,0z"/>
<path class="st0" d="M513.9,25.7h-25.7V0c2.2,0,4.4,0.8,6.1,2.5l17.1,17.1C513.1,21.3,513.9,23.5,513.9,25.7z"/>
<path class="st0" d="M539.6,0v25.7h-25.7c0-2.2,0.8-4.4,2.5-6.1l17.1-17.1C535.2,0.8,537.4,0,539.6,0z"/>
<path class="st1" d="M565.3,25.7V0H591c0,2.2-0.8,4.4-2.5,6.1l-17.1,17.1C569.7,24.9,567.5,25.7,565.3,25.7z"/>
<path class="st2" d="M616.7,25.7H591V0c2.2,0,4.4,0.8,6.1,2.5l17.1,17.1C615.9,21.3,616.7,23.5,616.7,25.7z"/>
<rect x="616.7" class="st2" width="25.7" height="25.7"/>
<path class="st0" d="M668.1,25.7h-25.7V0c2.2,0,4.4,0.8,6.1,2.5l17.1,17.1C667.3,21.3,668.1,23.5,668.1,25.7z"/>
<path class="st1" d="M693.8,0v25.7h-25.7c0-2.2,0.8-4.4,2.5-6.1l17.1-17.1C689.4,0.8,691.6,0,693.8,0z"/>
<path class="st0" d="M719.5,25.7h-25.7V0c2.2,0,4.4,0.8,6.1,2.5L717,19.6C718.6,21.3,719.5,23.5,719.5,25.7z"/>
<path class="st1" d="M745.2,0v25.7h-25.7c0-2.2,0.8-4.4,2.5-6.1l17.1-17.1C740.8,0.8,743,0,745.2,0z"/>
<rect y="25.7" class="st2" width="25.7" height="25.7"/>
<rect x="51.4" y="51.4" class="st0" width="25.7" height="25.7"/>
<path class="st2" d="M77.1,25.7h25.7v25.7c-2.2,0-4.4-0.8-6.1-2.5L79.6,31.8C77.9,30.1,77.1,27.9,77.1,25.7z"/>
<path class="st2" d="M102.8,77.1H77.1V51.4c2.2,0,4.4,0.8,6.1,2.5L100.3,71C101.9,72.7,102.8,74.9,102.8,77.1z"/>
<path class="st2" d="M128.5,77.1V51.4h25.7c0,2.2-0.8,4.4-2.5,6.1l-17.1,17.1C132.9,76.2,130.7,77.1,128.5,77.1z"/>
<path class="st0" d="M179.9,25.7v25.7h-25.7c0-2.2,0.8-4.4,2.5-6.1l17.1-17.1C175.5,26.5,177.7,25.7,179.9,25.7z"/>
<path class="st1" d="M179.9,51.4v25.7h-25.7c0-2.2,0.8-4.4,2.5-6.1l17.1-17.1C175.5,52.2,177.7,51.4,179.9,51.4z"/>
<path class="st2" d="M205.6,77.1V51.4h25.7c0,2.2-0.8,4.4-2.5,6.1l-17.1,17.1C210,76.2,207.8,77.1,205.6,77.1z"/>
<path class="st1" d="M257,51.4h-25.7V25.7c2.2,0,4.4,0.8,6.1,2.5l17.1,17.1C256.1,47,257,49.2,257,51.4z"/>
<path class="st0" d="M231.3,51.4H257v25.7c-2.2,0-4.4-0.8-6.1-2.5l-17.1-17.1C232.1,55.8,231.3,53.6,231.3,51.4z"/>
<rect x="308.4" y="25.7" class="st0" width="25.7" height="25.7"/>
<path class="st0" d="M308.4,77.1V51.4H334c0,2.2-0.8,4.4-2.5,6.1l-17.1,17.1C312.7,76.2,310.5,77.1,308.4,77.1z"/>
<rect x="359.7" y="51.4" class="st1" width="25.7" height="25.7"/>
<path class="st1" d="M411.1,51.4h-25.7V25.7c2.2,0,4.4,0.8,6.1,2.5l17.1,17.1C410.3,47,411.1,49.2,411.1,51.4z"/>
<path class="st2" d="M411.1,51.4V25.7h25.7c0,2.2-0.8,4.4-2.5,6.1l-17.1,17.1C415.5,50.6,413.3,51.4,411.1,51.4z"/>
<path class="st2" d="M385.4,51.4h25.7v25.7c-2.2,0-4.4-0.8-6.1-2.5l-17.1-17.1C386.3,55.8,385.4,53.6,385.4,51.4z"/>
<path class="st1" d="M411.1,77.1V51.4h25.7c0,2.2-0.8,4.4-2.5,6.1l-17.1,17.1C415.5,76.2,413.3,77.1,411.1,77.1z"/>
<path class="st1" d="M488.2,51.4h-25.7V25.7c2.2,0,4.4,0.8,6.1,2.5l17.1,17.1C487.4,47,488.2,49.2,488.2,51.4z"/>
<rect x="462.5" y="51.4" class="st0" width="25.7" height="25.7"/>
<path class="st2" d="M488.2,51.4h25.7v25.7c-2.2,0-4.4-0.8-6.1-2.5l-17.1-17.1C489.1,55.8,488.2,53.6,488.2,51.4z"/>
<path class="st0" d="M539.6,77.1h-25.7V51.4c2.2,0,4.4,0.8,6.1,2.5L537.1,71C538.8,72.7,539.6,74.9,539.6,77.1z"/>
<path class="st2" d="M539.6,25.7h25.7v25.7c-2.2,0-4.4-0.8-6.1-2.5l-17.1-17.1C540.5,30.1,539.6,27.9,539.6,25.7z"/>
<rect x="539.6" y="51.4" class="st1" width="25.7" height="25.7"/>
<path class="st2" d="M591,77.1V51.4h25.7c0,2.2-0.8,4.4-2.5,6.1l-17.1,17.1C595.4,76.2,593.2,77.1,591,77.1z"/>
<path class="st2" d="M642.4,51.4h-25.7V25.7c2.2,0,4.4,0.8,6.1,2.5l17.1,17.1C641.6,47,642.4,49.2,642.4,51.4z"/>
<rect x="616.7" y="51.4" class="st1" width="25.7" height="25.7"/>
<path class="st2" d="M693.8,51.4v25.7h-25.7c0-2.2,0.8-4.4,2.5-6.1l17.1-17.1C689.4,52.2,691.6,51.4,693.8,51.4z"/>
<rect x="693.8" y="25.7" class="st2" width="25.7" height="25.7"/>
<path class="st0" d="M719.5,51.4v25.7h-25.7c0-2.2,0.8-4.4,2.5-6.1l17.1-17.1C715.1,52.2,717.3,51.4,719.5,51.4z"/>
<path class="st2" d="M719.5,77.1V51.4h25.7c0,2.2-0.8,4.4-2.5,6.1l-17.1,17.1C723.9,76.2,721.7,77.1,719.5,77.1z"/>
<path class="st0" d="M25.7,77.1v25.7H0c0-2.2,0.8-4.4,2.5-6.1l17.1-17.1C21.3,77.9,23.5,77.1,25.7,77.1z"/>
<path class="st2" d="M25.7,77.1h25.7v25.7c-2.2,0-4.4-0.8-6.1-2.5L28.2,83.1C26.5,81.5,25.7,79.3,25.7,77.1z"/>
<path class="st1" d="M0,102.8h25.7v25.7c-2.2,0-4.4-0.8-6.1-2.5L2.5,108.8C0.8,107.2,0,105,0,102.8z"/>
<path class="st0" d="M51.4,128.5H25.7v-25.7c2.2,0,4.4,0.8,6.1,2.5l17.1,17.1C50.6,124.1,51.4,126.3,51.4,128.5z"/>
<path class="st2" d="M51.4,102.8h25.7v25.7c-2.2,0-4.4-0.8-6.1-2.5l-17.1-17.1C52.2,107.2,51.4,105,51.4,102.8z"/>
<path class="st1" d="M77.1,102.8V77.1h25.7c0,2.2-0.8,4.4-2.5,6.1l-17.1,17.1C81.5,101.9,79.3,102.8,77.1,102.8z"/>
<path class="st1" d="M102.8,128.5H77.1v-25.7c2.2,0,4.4,0.8,6.1,2.5l17.1,17.1C101.9,124.1,102.8,126.3,102.8,128.5z"/>
<path class="st0" d="M102.8,128.5v-25.7h25.7c0,2.2-0.8,4.4-2.5,6.1L108.8,126C107.2,127.6,105,128.5,102.8,128.5z"/>
<rect x="128.5" y="102.8" class="st0" width="25.7" height="25.7"/>
<rect x="154.2" y="77.1" class="st0" width="25.7" height="25.7"/>
<path class="st2" d="M179.9,128.5h-25.7v-25.7c2.2,0,4.4,0.8,6.1,2.5l17.1,17.1C179,124.1,179.9,126.3,179.9,128.5z"/>
<path class="st2" d="M205.6,102.8v25.7h-25.7c0-2.2,0.8-4.4,2.5-6.1l17.1-17.1C201.2,103.6,203.4,102.8,205.6,102.8z"/>
<path class="st1" d="M231.3,128.5h-25.7v-25.7c2.2,0,4.4,0.8,6.1,2.5l17.1,17.1C230.4,124.1,231.3,126.3,231.3,128.5z"/>
<rect x="231.3" y="77.1" class="st1" width="25.7" height="25.7"/>
<path class="st2" d="M282.7,77.1v25.7H257c0-2.2,0.8-4.4,2.5-6.1l17.1-17.1C278.3,77.9,280.5,77.1,282.7,77.1z"/>
<path class="st2" d="M231.3,102.8H257v25.7c-2.2,0-4.4-0.8-6.1-2.5l-17.1-17.1C232.1,107.2,231.3,105,231.3,102.8z"/>
<path class="st1" d="M282.7,128.5H257v-25.7c2.2,0,4.4,0.8,6.1,2.5l17.1,17.1C281.8,124.1,282.7,126.3,282.7,128.5z"/>
<path class="st0" d="M282.7,128.5v-25.7h25.7c0,2.2-0.8,4.4-2.5,6.1L288.7,126C287,127.6,284.9,128.5,282.7,128.5z"/>
<path class="st2" d="M308.4,102.8V77.1H334c0,2.2-0.8,4.4-2.5,6.1l-17.1,17.1C312.7,101.9,310.5,102.8,308.4,102.8z"/>
<path class="st2" d="M334,102.8V77.1h25.7c0,2.2-0.8,4.4-2.5,6.1l-17.1,17.1C338.4,101.9,336.2,102.8,334,102.8z"/>
<path class="st1" d="M308.4,128.5v-25.7H334c0,2.2-0.8,4.4-2.5,6.1L314.4,126C312.7,127.6,310.5,128.5,308.4,128.5z"/>
<rect x="385.4" y="77.1" class="st2" width="25.7" height="25.7"/>
<path class="st0" d="M436.8,102.8h-25.7V77.1c2.2,0,4.4,0.8,6.1,2.5l17.1,17.1C436,98.4,436.8,100.6,436.8,102.8z"/>
<path class="st0" d="M385.4,128.5v-25.7h25.7c0,2.2-0.8,4.4-2.5,6.1L391.5,126C389.8,127.6,387.6,128.5,385.4,128.5z"/>
<rect x="436.8" y="102.8" class="st2" width="25.7" height="25.7"/>
<path class="st2" d="M488.2,102.8h-25.7V77.1c2.2,0,4.4,0.8,6.1,2.5l17.1,17.1C487.4,98.4,488.2,100.6,488.2,102.8z"/>
<path class="st2" d="M513.9,102.8h25.7v25.7c-2.2,0-4.4-0.8-6.1-2.5l-17.1-17.1C514.8,107.2,513.9,105,513.9,102.8z"/>
<path class="st2" d="M539.6,77.1h25.7v25.7c-2.2,0-4.4-0.8-6.1-2.5l-17.1-17.1C540.5,81.5,539.6,79.3,539.6,77.1z"/>
<path class="st0" d="M591,102.8h-25.7V77.1c2.2,0,4.4,0.8,6.1,2.5l17.1,17.1C590.2,98.4,591,100.6,591,102.8z"/>
<rect x="539.6" y="102.8" class="st0" width="25.7" height="25.7"/>
<path class="st2" d="M565.3,128.5v-25.7H591c0,2.2-0.8,4.4-2.5,6.1L571.4,126C569.7,127.6,567.5,128.5,565.3,128.5z"/>
<rect x="591" y="102.8" class="st2" width="25.7" height="25.7"/>
<rect x="616.7" y="77.1" class="st0" width="25.7" height="25.7"/>
<path class="st0" d="M642.4,102.8v25.7h-25.7c0-2.2,0.8-4.4,2.5-6.1l17.1-17.1C638,103.6,640.2,102.8,642.4,102.8z"/>
<rect x="693.8" y="77.1" class="st0" width="25.7" height="25.7"/>
<path class="st0" d="M770.9,102.8h-25.7V77.1c2.2,0,4.4,0.8,6.1,2.5l17.1,17.1C770,98.4,770.9,100.6,770.9,102.8z"/>
<path class="st0" d="M719.5,128.5h-25.7v-25.7c2.2,0,4.4,0.8,6.1,2.5l17.1,17.1C718.6,124.1,719.5,126.3,719.5,128.5z"/>
<path class="st0" d="M25.7,154.2H0v-25.7c2.2,0,4.4,0.8,6.1,2.5l17.1,17.1C24.9,149.8,25.7,152,25.7,154.2z"/>
<path class="st2" d="M51.4,154.2H25.7v-25.7c2.2,0,4.4,0.8,6.1,2.5l17.1,17.1C50.6,149.8,51.4,152,51.4,154.2z"/>
<path class="st1" d="M25.7,154.2v25.7H0c0-2.2,0.8-4.4,2.5-6.1l17.1-17.1C21.3,155,23.5,154.2,25.7,154.2z"/>
<path class="st2" d="M102.8,154.2H77.1v-25.7c2.2,0,4.4,0.8,6.1,2.5l17.1,17.1C101.9,149.8,102.8,152,102.8,154.2z"/>
<path class="st2" d="M102.8,154.2v-25.7h25.7c0,2.2-0.8,4.4-2.5,6.1l-17.1,17.1C107.2,153.3,105,154.2,102.8,154.2z"/>
<path class="st2" d="M102.8,154.2v25.7H77.1c0-2.2,0.8-4.4,2.5-6.1l17.1-17.1C98.4,155,100.6,154.2,102.8,154.2z"/>
<path class="st0" d="M102.8,179.9v-25.7h25.7c0,2.2-0.8,4.4-2.5,6.1l-17.1,17.1C107.2,179,105,179.9,102.8,179.9z"/>
<path class="st2" d="M128.5,154.2h25.7v25.7c-2.2,0-4.4-0.8-6.1-2.5L131,160.2C129.3,158.6,128.5,156.4,128.5,154.2z"/>
<path class="st2" d="M179.9,154.2h-25.7v-25.7c2.2,0,4.4,0.8,6.1,2.5l17.1,17.1C179,149.8,179.9,152,179.9,154.2z"/>
<rect x="154.2" y="154.2" class="st1" width="25.7" height="25.7"/>
<path class="st0" d="M205.6,179.9h-25.7v-25.7c2.2,0,4.4,0.8,6.1,2.5l17.1,17.1C204.7,175.5,205.6,177.7,205.6,179.9z"/>
<rect x="231.3" y="128.5" class="st0" width="25.7" height="25.7"/>
<path class="st2" d="M231.3,154.2H257v25.7c-2.2,0-4.4-0.8-6.1-2.5l-17.1-17.1C232.1,158.6,231.3,156.4,231.3,154.2z"/>
<path class="st1" d="M257,179.9v-25.7h25.7c0,2.2-0.8,4.4-2.5,6.1L263,177.4C261.3,179,259.2,179.9,257,179.9z"/>
<rect x="308.4" y="128.5" class="st0" width="25.7" height="25.7"/>
<path class="st0" d="M334,154.2v25.7h-25.7c0-2.2,0.8-4.4,2.5-6.1l17.1-17.1C329.7,155,331.9,154.2,334,154.2z"/>
<path class="st2" d="M359.7,179.9H334v-25.7c2.2,0,4.4,0.8,6.1,2.5l17.1,17.1C358.9,175.5,359.7,177.7,359.7,179.9z"/>
<path class="st1" d="M385.4,154.2v25.7h-25.7c0-2.2,0.8-4.4,2.5-6.1l17.1-17.1C381.1,155,383.2,154.2,385.4,154.2z"/>
<path class="st2" d="M411.1,154.2h-25.7v-25.7c2.2,0,4.4,0.8,6.1,2.5l17.1,17.1C410.3,149.8,411.1,152,411.1,154.2z"/>
<path class="st0" d="M436.8,154.2h-25.7v-25.7c2.2,0,4.4,0.8,6.1,2.5l17.1,17.1C436,149.8,436.8,152,436.8,154.2z"/>
<path class="st2" d="M411.1,179.9v-25.7h25.7c0,2.2-0.8,4.4-2.5,6.1l-17.1,17.1C415.5,179,413.3,179.9,411.1,179.9z"/>
<path class="st1" d="M462.5,154.2v25.7h-25.7c0-2.2,0.8-4.4,2.5-6.1l17.1-17.1C458.1,155,460.3,154.2,462.5,154.2z"/>
<path class="st1" d="M462.5,154.2v-25.7h25.7c0,2.2-0.8,4.4-2.5,6.1l-17.1,17.1C466.9,153.3,464.7,154.2,462.5,154.2z"/>
<path class="st0" d="M513.9,154.2h-25.7v-25.7c2.2,0,4.4,0.8,6.1,2.5l17.1,17.1C513.1,149.8,513.9,152,513.9,154.2z"/>
<path class="st2" d="M539.6,128.5v25.7h-25.7c0-2.2,0.8-4.4,2.5-6.1l17.1-17.1C535.2,129.3,537.4,128.5,539.6,128.5z"/>
<path class="st0" d="M462.5,179.9v-25.7h25.7c0,2.2-0.8,4.4-2.5,6.1l-17.1,17.1C466.9,179,464.7,179.9,462.5,179.9z"/>
<path class="st1" d="M488.2,179.9v-25.7h25.7c0,2.2-0.8,4.4-2.5,6.1l-17.1,17.1C492.6,179,490.4,179.9,488.2,179.9z"/>
<rect x="539.6" y="128.5" class="st1" width="25.7" height="25.7"/>
<path class="st0" d="M591,128.5v25.7h-25.7c0-2.2,0.8-4.4,2.5-6.1l17.1-17.1C586.6,129.3,588.8,128.5,591,128.5z"/>
<rect x="539.6" y="154.2" class="st0" width="25.7" height="25.7"/>
<path class="st2" d="M565.3,154.2H591v25.7c-2.2,0-4.4-0.8-6.1-2.5l-17.1-17.1C566.1,158.6,565.3,156.4,565.3,154.2z"/>
<rect x="591" y="154.2" class="st1" width="25.7" height="25.7"/>
<rect x="616.7" y="128.5" class="st2" width="25.7" height="25.7"/>
<path class="st0" d="M668.1,154.2h-25.7v-25.7c2.2,0,4.4,0.8,6.1,2.5l17.1,17.1C667.3,149.8,668.1,152,668.1,154.2z"/>
<path class="st1" d="M693.8,154.2h-25.7v-25.7c2.2,0,4.4,0.8,6.1,2.5l17.1,17.1C693,149.8,693.8,152,693.8,154.2z"/>
<rect x="616.7" y="154.2" class="st0" width="25.7" height="25.7"/>
<path class="st2" d="M719.5,128.5v25.7h-25.7c0-2.2,0.8-4.4,2.5-6.1l17.1-17.1C715.1,129.3,717.3,128.5,719.5,128.5z"/>
<path class="st1" d="M719.5,128.5h25.7v25.7c-2.2,0-4.4-0.8-6.1-2.5L722,134.5C720.3,132.9,719.5,130.7,719.5,128.5z"/>
<path class="st0" d="M719.5,154.2v25.7h-25.7c0-2.2,0.8-4.4,2.5-6.1l17.1-17.1C715.1,155,717.3,154.2,719.5,154.2z"/>
<path class="st2" d="M770.9,154.2v25.7h-25.7c0-2.2,0.8-4.4,2.5-6.1l17.1-17.1C766.5,155,768.7,154.2,770.9,154.2z"/>
<path class="st0" d="M0,179.9h25.7v25.7c-2.2,0-4.4-0.8-6.1-2.5L2.5,185.9C0.8,184.3,0,182.1,0,179.9z"/>
<rect y="205.6" class="st0" width="25.7" height="25.7"/>
<path class="st1" d="M51.4,205.6v25.7H25.7c0-2.2,0.8-4.4,2.5-6.1l17.1-17.1C47,206.4,49.2,205.6,51.4,205.6z"/>
<rect x="51.4" y="205.6" class="st0" width="25.7" height="25.7"/>
<path class="st0" d="M77.1,179.9h25.7v25.7c-2.2,0-4.4-0.8-6.1-2.5L79.6,186C77.9,184.3,77.1,182.1,77.1,179.9z"/>
<path class="st2" d="M102.8,205.6h25.7v25.7c-2.2,0-4.4-0.8-6.1-2.5l-17.1-17.1C103.6,210,102.8,207.8,102.8,205.6z"/>
<path class="st1" d="M128.5,205.6h25.7v25.7c-2.2,0-4.4-0.8-6.1-2.5L131,211.6C129.3,210,128.5,207.8,128.5,205.6z"/>
<rect x="154.2" y="179.9" class="st0" width="25.7" height="25.7"/>
<path class="st2" d="M205.6,179.9v25.7h-25.7c0-2.2,0.8-4.4,2.5-6.1l17.1-17.1C201.2,180.7,203.4,179.9,205.6,179.9z"/>
<path class="st0" d="M179.9,205.6v25.7h-25.7c0-2.2,0.8-4.4,2.5-6.1l17.1-17.1C175.5,206.4,177.7,205.6,179.9,205.6z"/>
<path class="st1" d="M257,179.9v25.7h-25.7c0-2.2,0.8-4.4,2.5-6.1l17.1-17.1C252.6,180.7,254.8,179.9,257,179.9z"/>
<rect x="282.7" y="205.6" class="st2" width="25.7" height="25.7"/>
<path class="st2" d="M334,179.9v25.7h-25.7c0-2.2,0.8-4.4,2.5-6.1l17.1-17.1C329.7,180.7,331.9,179.9,334,179.9z"/>
<path class="st0" d="M334,179.9h25.7v25.7c-2.2,0-4.4-0.8-6.1-2.5L336.5,186C334.9,184.3,334,182.1,334,179.9z"/>
<path class="st1" d="M334,231.3h-25.7v-25.7c2.2,0,4.4,0.8,6.1,2.5l17.1,17.1C333.2,226.9,334,229.1,334,231.3z"/>
<path class="st2" d="M359.7,205.6v25.7H334c0-2.2,0.8-4.4,2.5-6.1l17.1-17.1C355.4,206.4,357.6,205.6,359.7,205.6z"/>
<rect x="359.7" y="205.6" class="st0" width="25.7" height="25.7"/>
<path class="st2" d="M385.4,205.6v-25.7h25.7c0,2.2-0.8,4.4-2.5,6.1l-17.1,17.1C389.8,204.7,387.6,205.6,385.4,205.6z"/>
<path class="st0" d="M411.1,231.3h-25.7v-25.7c2.2,0,4.4,0.8,6.1,2.5l17.1,17.1C410.3,226.9,411.1,229.1,411.1,231.3z"/>
<path class="st0" d="M462.5,231.3h-25.7v-25.7c2.2,0,4.4,0.8,6.1,2.5l17.1,17.1C461.7,226.9,462.5,229.1,462.5,231.3z"/>
<rect x="462.5" y="179.9" class="st0" width="25.7" height="25.7"/>
<path class="st0" d="M462.5,231.3v-25.7h25.7c0,2.2-0.8,4.4-2.5,6.1l-17.1,17.1C466.9,230.4,464.7,231.3,462.5,231.3z"/>
<path class="st1" d="M539.6,205.6v25.7h-25.7c0-2.2,0.8-4.4,2.5-6.1l17.1-17.1C535.2,206.4,537.4,205.6,539.6,205.6z"/>
<rect x="539.6" y="179.9" class="st2" width="25.7" height="25.7"/>
<path class="st0" d="M565.3,231.3h-25.7v-25.7c2.2,0,4.4,0.8,6.1,2.5l17.1,17.1C564.5,226.9,565.3,229.1,565.3,231.3z"/>
<path class="st2" d="M591,231.3h-25.7v-25.7c2.2,0,4.4,0.8,6.1,2.5l17.1,17.1C590.2,226.9,591,229.1,591,231.3z"/>
<rect x="616.7" y="179.9" class="st2" width="25.7" height="25.7"/>
<path class="st0" d="M616.7,205.6h25.7v25.7c-2.2,0-4.4-0.8-6.1-2.5l-17.1-17.1C617.5,210,616.7,207.8,616.7,205.6z"/>
<path class="st1" d="M642.4,231.3v-25.7h25.7c0,2.2-0.8,4.4-2.5,6.1l-17.1,17.1C646.8,230.4,644.6,231.3,642.4,231.3z"/>
<rect x="693.8" y="179.9" class="st1" width="25.7" height="25.7"/>
<path class="st0" d="M745.2,179.9h25.7v25.7c-2.2,0-4.4-0.8-6.1-2.5L747.7,186C746,184.3,745.2,182.1,745.2,179.9z"/>
<path class="st0" d="M719.5,231.3h-25.7v-25.7c2.2,0,4.4,0.8,6.1,2.5l17.1,17.1C718.6,226.9,719.5,229.1,719.5,231.3z"/>
<path class="st0" d="M745.2,231.3h-25.7v-25.7c2.2,0,4.4,0.8,6.1,2.5l17.1,17.1C744.3,226.9,745.2,229.1,745.2,231.3z"/>
<rect x="745.2" y="205.6" class="st2" width="25.7" height="25.7"/>

</svg>