<svg xmlns="http://www.w3.org/2000/svg" viewBox="0 0 770.9 770.9">
<style type="text/css">
    .st0{fill:#3C8EFF;}
	.st1{fill:#E1005A;}
	.st2{fill:#FFB93E;}
</style>

<path class="st0" d="M0,488.2h25.7v25.7c-2.2,0-4.4-0.8-6.1-2.5L2.5,494.3C0.8,492.6,0,490.4,0,488.2z"/>
<path class="st0" d="M25.7,539.6H0v-25.7c2.2,0,4.4,0.8,6.1,2.5l17.1,17.1C24.9,535.2,25.7,537.4,25.7,539.6z"/>
<path class="st1" d="M51.4,539.6H25.7v-25.7c2.2,0,4.4,0.8,6.1,2.5l17.1,17.1C50.6,535.2,51.4,537.4,51.4,539.6z"/>
<path class="st2" d="M25.7,539.6v25.7H0c0-2.2,0.8-4.4,2.5-6.1l17.1-17.1C21.3,540.5,23.5,539.6,25.7,539.6z"/>
<path class="st2" d="M102.8,539.6v25.7H77.1c0-2.2,0.8-4.4,2.5-6.1l17.1-17.1C98.4,540.5,100.6,539.6,102.8,539.6z"/>
<path class="st1" d="M102.8,565.3v-25.7h25.7c0,2.2-0.8,4.4-2.5,6.1l-17.1,17.1C107.2,564.5,105,565.3,102.8,565.3z"/>
<path class="st1" d="M0,565.3h25.7V591c-2.2,0-4.4-0.8-6.1-2.5L2.5,571.4C0.8,569.7,0,567.5,0,565.3z"/>
<rect y="591" class="st0" width="25.7" height="25.7"/>
<path class="st1" d="M51.4,591v25.7H25.7c0-2.2,0.8-4.4,2.5-6.1l17.1-17.1C47,591.8,49.2,591,51.4,591z"/>
<rect x="51.4" y="591" class="st0" width="25.7" height="25.7"/>
<path class="st0" d="M77.1,565.3h25.7V591c-2.2,0-4.4-0.8-6.1-2.5l-17.1-17.1C77.9,569.7,77.1,567.5,77.1,565.3z"/>
<path class="st1" d="M25.7,616.7v25.7H0c0-2.2,0.8-4.4,2.5-6.1l17.1-17.1C21.3,617.5,23.5,616.7,25.7,616.7z"/>
<path class="st2" d="M25.7,616.7h25.7v25.7c-2.2,0-4.4-0.8-6.1-2.5l-17.1-17.1C26.5,621.1,25.7,618.9,25.7,616.7z"/>
<path class="st2" d="M0,668.1v-25.7h25.7c0,2.2-0.8,4.4-2.5,6.1L6.1,665.6C4.4,667.3,2.2,668.1,0,668.1z"/>
<path class="st2" d="M51.4,642.4v25.7H25.7c0-2.2,0.8-4.4,2.5-6.1l17.1-17.1C47,643.2,49.2,642.4,51.4,642.4z"/>
<rect x="51.4" y="642.4" class="st1" width="25.7" height="25.7"/>
<path class="st0" d="M102.8,642.4H77.1v-25.7c2.2,0,4.4,0.8,6.1,2.5l17.1,17.1C101.9,638,102.8,640.2,102.8,642.4z"/>
<path class="st1" d="M102.8,616.7h25.7v25.7c-2.2,0-4.4-0.8-6.1-2.5l-17.1-17.1C103.6,621.1,102.8,618.9,102.8,616.7z"/>
<path class="st2" d="M102.8,642.4v25.7H77.1c0-2.2,0.8-4.4,2.5-6.1l17.1-17.1C98.4,643.2,100.6,642.4,102.8,642.4z"/>
<path class="st1" d="M102.8,668.1v-25.7h25.7c0,2.2-0.8,4.4-2.5,6.1l-17.1,17.1C107.2,667.3,105,668.1,102.8,668.1z"/>
<path class="st1" d="M179.9,642.4h-25.7v-25.7c2.2,0,4.4,0.8,6.1,2.5l17.1,17.1C179,638,179.9,640.2,179.9,642.4z"/>
<path class="st0" d="M205.6,642.4h-25.7v-25.7c2.2,0,4.4,0.8,6.1,2.5l17.1,17.1C204.7,638,205.6,640.2,205.6,642.4z"/>
<path class="st0" d="M179.9,668.1h-25.7v-25.7c2.2,0,4.4,0.8,6.1,2.5l17.1,17.1C179,663.7,179.9,665.9,179.9,668.1z"/>
<rect y="668.1" class="st1" width="25.7" height="25.7"/>
<path class="st0" d="M25.7,719.5H0v-25.7c2.2,0,4.4,0.8,6.1,2.5l17.1,17.1C24.9,715.1,25.7,717.3,25.7,719.5z"/>
<path class="st1" d="M102.8,668.1v25.7H77.1c0-2.2,0.8-4.4,2.5-6.1l17.1-17.1C98.4,668.9,100.6,668.1,102.8,668.1z"/>
<path class="st0" d="M102.8,693.8v25.7H77.1c0-2.2,0.8-4.4,2.5-6.1l17.1-17.1C98.4,694.6,100.6,693.8,102.8,693.8z"/>
<path class="st0" d="M128.5,693.8v25.7h-25.7c0-2.2,0.8-4.4,2.5-6.1l17.1-17.1C124.1,694.6,126.3,693.8,128.5,693.8z"/>
<rect x="154.2" y="668.1" class="st2" width="25.7" height="25.7"/>
<path class="st1" d="M154.2,693.8h25.7v25.7c-2.2,0-4.4-0.8-6.1-2.5l-17.1-17.1C155,698.2,154.2,696,154.2,693.8z"/>
<path class="st0" d="M205.6,719.5h-25.7v-25.7c2.2,0,4.4,0.8,6.1,2.5l17.1,17.1C204.7,715.1,205.6,717.3,205.6,719.5z"/>
<path class="st2" d="M231.3,719.5h-25.7v-25.7c2.2,0,4.4,0.8,6.1,2.5l17.1,17.1C230.4,715.1,231.3,717.3,231.3,719.5z"/>
<path class="st1" d="M257,693.8h-25.7v-25.7c2.2,0,4.4,0.8,6.1,2.5l17.1,17.1C256.1,689.4,257,691.6,257,693.8z"/>
<path class="st2" d="M257,693.8v-25.7h25.7c0,2.2-0.8,4.4-2.5,6.1L263,691.3C261.3,693,259.2,693.8,257,693.8z"/>
<path class="st1" d="M282.7,693.8v25.7H257c0-2.2,0.8-4.4,2.5-6.1l17.1-17.1C278.3,694.6,280.5,693.8,282.7,693.8z"/>
<rect x="282.7" y="693.8" class="st0" width="25.7" height="25.7"/>
<path class="st1" d="M25.7,719.5v25.7H0c0-2.2,0.8-4.4,2.5-6.1L19.6,722C21.3,720.3,23.5,719.5,25.7,719.5z"/>
<path class="st2" d="M77.1,745.2H51.4v-25.7c2.2,0,4.4,0.8,6.1,2.5l17.1,17.1C76.2,740.8,77.1,743,77.1,745.2z"/>
<rect y="745.2" class="st2" width="25.7" height="25.7"/>
<path class="st1" d="M51.4,770.9H25.7v-25.7c2.2,0,4.4,0.8,6.1,2.5l17.1,17.1C50.6,766.5,51.4,768.7,51.4,770.9z"/>
<path class="st0" d="M77.1,770.9H51.4v-25.7c2.2,0,4.4,0.8,6.1,2.5l17.1,17.1C76.2,766.5,77.1,768.7,77.1,770.9z"/>
<path class="st1" d="M102.8,719.5v25.7H77.1c0-2.2,0.8-4.4,2.5-6.1L96.7,722C98.4,720.3,100.6,719.5,102.8,719.5z"/>
<path class="st0" d="M77.1,745.2h25.7v25.7c-2.2,0-4.4-0.8-6.1-2.5l-17.1-17.1C77.9,749.6,77.1,747.4,77.1,745.2z"/>
<path class="st1" d="M154.2,745.2v25.7h-25.7c0-2.2,0.8-4.4,2.5-6.1l17.1-17.1C149.8,746,152,745.2,154.2,745.2z"/>
<rect x="154.2" y="719.5" class="st2" width="25.7" height="25.7"/>
<path class="st1" d="M154.2,745.2h25.7v25.7c-2.2,0-4.4-0.8-6.1-2.5l-17.1-17.1C155,749.6,154.2,747.4,154.2,745.2z"/>
<rect x="205.6" y="745.2" class="st2" width="25.7" height="25.7"/>
<path class="st0" d="M231.3,745.2v-25.7H257c0,2.2-0.8,4.4-2.5,6.1l-17.1,17.1C235.6,744.3,233.5,745.2,231.3,745.2z"/>
<path class="st2" d="M308.4,719.5v25.7h-25.7c0-2.2,0.8-4.4,2.5-6.1l17.1-17.1C304,720.3,306.2,719.5,308.4,719.5z"/>
<path class="st0" d="M257,745.2v25.7h-25.7c0-2.2,0.8-4.4,2.5-6.1l17.1-17.1C252.6,746,254.8,745.2,257,745.2z"/>
<path class="st1" d="M257,745.2h25.7v25.7c-2.2,0-4.4-0.8-6.1-2.5l-17.1-17.1C257.8,749.6,257,747.4,257,745.2z"/>
<path class="st0" d="M308.4,745.2H334v25.7c-2.2,0-4.4-0.8-6.1-2.5l-17.1-17.1C309.2,749.6,308.4,747.4,308.4,745.2z"/>

</svg>