<svg xmlns="http://www.w3.org/2000/svg" viewBox="0 0 770.9 770.9">
<style type="text/css">
    .st0{fill:#FFB93E;}
	.st1{fill:#3C8EFF;}
	.st2{fill:#E1005A;}
</style>

<path class="st0" d="M719.5,513.9v25.7h-25.7c0-2.2,0.8-4.4,2.5-6.1l17.1-17.1C715.1,514.8,717.3,513.9,719.5,513.9z"/>
<path class="st1" d="M719.5,513.9h25.7v25.7c-2.2,0-4.4-0.8-6.1-2.5L722,520C720.3,518.3,719.5,516.1,719.5,513.9z"/>
<path class="st1" d="M719.5,539.6v25.7h-25.7c0-2.2,0.8-4.4,2.5-6.1l17.1-17.1C715.1,540.5,717.3,539.6,719.5,539.6z"/>
<path class="st2" d="M770.9,539.6v25.7h-25.7c0-2.2,0.8-4.4,2.5-6.1l17.1-17.1C766.5,540.5,768.7,539.6,770.9,539.6z"/>
<path class="st2" d="M616.7,591h25.7v25.7c-2.2,0-4.4-0.8-6.1-2.5l-17.1-17.1C617.5,595.4,616.7,593.2,616.7,591z"/>
<path class="st0" d="M642.4,616.7V591h25.7c0,2.2-0.8,4.4-2.5,6.1l-17.1,17.1C646.8,615.9,644.6,616.7,642.4,616.7z"/>
<rect x="693.8" y="565.3" class="st0" width="25.7" height="25.7"/>
<path class="st0" d="M745.2,565.3h25.7V591c-2.2,0-4.4-0.8-6.1-2.5l-17.1-17.1C746,569.7,745.2,567.5,745.2,565.3z"/>
<path class="st1" d="M719.5,616.7h-25.7V591c2.2,0,4.4,0.8,6.1,2.5l17.1,17.1C718.6,612.3,719.5,614.5,719.5,616.7z"/>
<path class="st2" d="M745.2,616.7h-25.7V591c2.2,0,4.4,0.8,6.1,2.5l17.1,17.1C744.3,612.3,745.2,614.5,745.2,616.7z"/>
<rect x="745.2" y="591" class="st1" width="25.7" height="25.7"/>
<rect x="616.7" y="616.7" class="st1" width="25.7" height="25.7"/>
<path class="st0" d="M642.4,642.4v25.7h-25.7c0-2.2,0.8-4.4,2.5-6.1l17.1-17.1C638,643.2,640.2,642.4,642.4,642.4z"/>
<path class="st2" d="M668.1,668.1h-25.7v-25.7c2.2,0,4.4,0.8,6.1,2.5l17.1,17.1C667.3,663.7,668.1,665.9,668.1,668.1z"/>
<path class="st2" d="M693.8,642.4v25.7h-25.7c0-2.2,0.8-4.4,2.5-6.1l17.1-17.1C689.4,643.2,691.6,642.4,693.8,642.4z"/>
<path class="st2" d="M693.8,642.4v-25.7h25.7c0,2.2-0.8,4.4-2.5,6.1l-17.1,17.1C698.2,641.6,696,642.4,693.8,642.4z"/>
<path class="st0" d="M719.5,642.4v-25.7h25.7c0,2.2-0.8,4.4-2.5,6.1l-17.1,17.1C723.9,641.6,721.7,642.4,719.5,642.4z"/>
<rect x="693.8" y="642.4" class="st1" width="25.7" height="25.7"/>
<path class="st2" d="M719.5,668.1v-25.7h25.7c0,2.2-0.8,4.4-2.5,6.1l-17.1,17.1C723.9,667.3,721.7,668.1,719.5,668.1z"/>
<rect x="745.2" y="642.4" class="st0" width="25.7" height="25.7"/>
<path class="st2" d="M513.9,745.2h25.7v25.7c-2.2,0-4.4-0.8-6.1-2.5l-17.1-17.1C514.8,749.6,513.9,747.4,513.9,745.2z"/>
<path class="st1" d="M565.3,693.8v25.7h-25.7c0-2.2,0.8-4.4,2.5-6.1l17.1-17.1C560.9,694.6,563.1,693.8,565.3,693.8z"/>
<path class="st0" d="M565.3,693.8H591v25.7c-2.2,0-4.4-0.8-6.1-2.5l-17.1-17.1C566.1,698.2,565.3,696,565.3,693.8z"/>
<path class="st2" d="M591,693.8h25.7v25.7c-2.2,0-4.4-0.8-6.1-2.5l-17.1-17.1C591.8,698.2,591,696,591,693.8z"/>
<path class="st1" d="M616.7,668.1h25.7v25.7c-2.2,0-4.4-0.8-6.1-2.5l-17.1-17.1C617.5,672.5,616.7,670.3,616.7,668.1z"/>
<rect x="693.8" y="668.1" class="st2" width="25.7" height="25.7"/>
<path class="st2" d="M745.2,693.8h-25.7v-25.7c2.2,0,4.4,0.8,6.1,2.5l17.1,17.1C744.3,689.4,745.2,691.6,745.2,693.8z"/>
<path class="st0" d="M719.5,719.5h-25.7v-25.7c2.2,0,4.4,0.8,6.1,2.5l17.1,17.1C718.6,715.1,719.5,717.3,719.5,719.5z"/>
<path class="st1" d="M745.2,719.5h-25.7v-25.7c2.2,0,4.4,0.8,6.1,2.5l17.1,17.1C744.3,715.1,745.2,717.3,745.2,719.5z"/>
<rect x="539.6" y="719.5" class="st0" width="25.7" height="25.7"/>
<path class="st0" d="M591,719.5h25.7v25.7c-2.2,0-4.4-0.8-6.1-2.5l-17.1-17.1C591.8,723.9,591,721.7,591,719.5z"/>
<path class="st1" d="M565.3,745.2v25.7h-25.7c0-2.2,0.8-4.4,2.5-6.1l17.1-17.1C560.9,746,563.1,745.2,565.3,745.2z"/>
<path class="st1" d="M591,745.2v25.7h-25.7c0-2.2,0.8-4.4,2.5-6.1l17.1-17.1C586.6,746,588.8,745.2,591,745.2z"/>
<rect x="616.7" y="719.5" class="st2" width="25.7" height="25.7"/>
<path class="st1" d="M719.5,745.2h-25.7v-25.7c2.2,0,4.4,0.8,6.1,2.5l17.1,17.1C718.6,740.8,719.5,743,719.5,745.2z"/>
<path class="st2" d="M745.2,719.5v25.7h-25.7c0-2.2,0.8-4.4,2.5-6.1l17.1-17.1C740.8,720.3,743,719.5,745.2,719.5z"/>
<path class="st0" d="M719.5,745.2v25.7h-25.7c0-2.2,0.8-4.4,2.5-6.1l17.1-17.1C715.1,746,717.3,745.2,719.5,745.2z"/>
<path class="st2" d="M745.2,770.9h-25.7v-25.7c2.2,0,4.4,0.8,6.1,2.5l17.1,17.1C744.3,766.5,745.2,768.7,745.2,770.9z"/>
<path class="st0" d="M745.2,770.9v-25.7h25.7c0,2.2-0.8,4.4-2.5,6.1l-17.1,17.1C749.6,770,747.4,770.9,745.2,770.9z"/>

</svg>