<svg xmlns="http://www.w3.org/2000/svg" viewBox="0 0 770.9 231.3">
<style type="text/css">
    .st0{fill:#FFB93E;}
	.st1{fill:#3C8EFF;}
	.st2{fill:#E1005A;}
</style>

<rect class="st0" width="25.7" height="25.7"/>
<path class="st1" d="M102.8,0v25.7H77.1c0-2.2,0.8-4.4,2.5-6.1L96.7,2.5C98.4,0.8,100.6,0,102.8,0z"/>
<path class="st2" d="M102.8,51.4H77.1V25.7c2.2,0,4.4,0.8,6.1,2.5l17.1,17.1C101.9,47,102.8,49.2,102.8,51.4z"/>
<rect x="128.5" y="25.7" class="st1" width="25.7" height="25.7"/>
<path class="st1" d="M154.2,0h25.7v25.7c-2.2,0-4.4-0.8-6.1-2.5L156.7,6.1C155,4.4,154.2,2.2,154.2,0z"/>
<path class="st2" d="M154.2,51.4V25.7h25.7c0,2.2-0.8,4.4-2.5,6.1l-17.1,17.1C158.6,50.6,156.4,51.4,154.2,51.4z"/>
<path class="st0" d="M205.6,51.4h-25.7V25.7c2.2,0,4.4,0.8,6.1,2.5l17.1,17.1C204.7,47,205.6,49.2,205.6,51.4z"/>
<rect x="231.3" class="st1" width="25.7" height="25.7"/>
<path class="st2" d="M231.3,25.7H257v25.7c-2.2,0-4.4-0.8-6.1-2.5l-17.1-17.1C232.1,30.1,231.3,27.9,231.3,25.7z"/>
<path class="st2" d="M308.4,25.7V0H334c0,2.2-0.8,4.4-2.5,6.1l-17.1,17.1C312.7,24.9,310.5,25.7,308.4,25.7z"/>
<path class="st1" d="M359.7,51.4V25.7h25.7c0,2.2-0.8,4.4-2.5,6.1l-17.1,17.1C364.1,50.6,361.9,51.4,359.7,51.4z"/>
<path class="st1" d="M411.1,0v25.7h-25.7c0-2.2,0.8-4.4,2.5-6.1L405,2.5C406.8,0.8,408.9,0,411.1,0z"/>
<path class="st0" d="M385.4,25.7h25.7v25.7c-2.2,0-4.4-0.8-6.1-2.5l-17.1-17.1C386.3,30.1,385.4,27.9,385.4,25.7z"/>
<path class="st1" d="M436.8,51.4h-25.7V25.7c2.2,0,4.4,0.8,6.1,2.5l17.1,17.1C436,47,436.8,49.2,436.8,51.4z"/>
<path class="st1" d="M462.5,0h25.7v25.7c-2.2,0-4.4-0.8-6.1-2.5L465,6.1C463.4,4.4,462.5,2.2,462.5,0z"/>
<path class="st1" d="M462.5,25.7h25.7v25.7c-2.2,0-4.4-0.8-6.1-2.5L465,31.8C463.4,30.1,462.5,27.9,462.5,25.7z"/>
<path class="st2" d="M513.9,51.4h-25.7V25.7c2.2,0,4.4,0.8,6.1,2.5l17.1,17.1C513.1,47,513.9,49.2,513.9,51.4z"/>
<path class="st1" d="M513.9,51.4V25.7h25.7c0,2.2-0.8,4.4-2.5,6.1L520,48.9C518.3,50.6,516.1,51.4,513.9,51.4z"/>
<rect x="539.6" class="st2" width="25.7" height="25.7"/>
<path class="st1" d="M591,0v25.7h-25.7c0-2.2,0.8-4.4,2.5-6.1l17.1-17.1C586.6,0.8,588.8,0,591,0z"/>
<path class="st2" d="M565.3,25.7v25.7h-25.7c0-2.2,0.8-4.4,2.5-6.1l17.1-17.1C560.9,26.5,563.1,25.7,565.3,25.7z"/>
<rect x="591" y="25.7" class="st1" width="25.7" height="25.7"/>
<rect x="616.7" class="st0" width="25.7" height="25.7"/>
<path class="st0" d="M616.7,51.4V25.7h25.7c0,2.2-0.8,4.4-2.5,6.1l-17.1,17.1C621.1,50.6,618.9,51.4,616.7,51.4z"/>
<path class="st1" d="M668.1,25.7v25.7h-25.7c0-2.2,0.8-4.4,2.5-6.1L662,28.2C663.7,26.5,665.9,25.7,668.1,25.7z"/>
<rect x="668.1" y="25.7" class="st2" width="25.7" height="25.7"/>
<rect x="693.8" class="st0" width="25.7" height="25.7"/>
<path class="st1" d="M719.5,51.4h-25.7V25.7c2.2,0,4.4,0.8,6.1,2.5L717,45.3C718.6,47,719.5,49.2,719.5,51.4z"/>
<path class="st1" d="M745.2,25.7v25.7h-25.7c0-2.2,0.8-4.4,2.5-6.1l17.1-17.1C740.8,26.5,743,25.7,745.2,25.7z"/>
<rect x="745.2" y="25.7" class="st2" width="25.7" height="25.7"/>
<path class="st0" d="M0,51.4h25.7v25.7c-2.2,0-4.4-0.8-6.1-2.5L2.5,57.4C0.8,55.8,0,53.6,0,51.4z"/>
<path class="st1" d="M25.7,51.4h25.7v25.7c-2.2,0-4.4-0.8-6.1-2.5L28.2,57.4C26.5,55.8,25.7,53.6,25.7,51.4z"/>
<path class="st2" d="M0,77.1h25.7v25.7c-2.2,0-4.4-0.8-6.1-2.5L2.5,83.1C0.8,81.5,0,79.3,0,77.1z"/>
<rect x="51.4" y="77.1" class="st0" width="25.7" height="25.7"/>
<rect x="77.1" y="51.4" class="st1" width="25.7" height="25.7"/>
<rect x="77.1" y="77.1" class="st2" width="25.7" height="25.7"/>
<path class="st1" d="M128.5,77.1v25.7h-25.7c0-2.2,0.8-4.4,2.5-6.1l17.1-17.1C124.1,77.9,126.3,77.1,128.5,77.1z"/>
<rect x="128.5" y="77.1" class="st0" width="25.7" height="25.7"/>
<rect x="154.2" y="51.4" class="st2" width="25.7" height="25.7"/>
<rect x="154.2" y="77.1" class="st1" width="25.7" height="25.7"/>
<rect x="205.6" y="77.1" class="st0" width="25.7" height="25.7"/>
<path class="st1" d="M257,51.4v25.7h-25.7c0-2.2,0.8-4.4,2.5-6.1l17.1-17.1C252.6,52.2,254.8,51.4,257,51.4z"/>
<rect x="231.3" y="77.1" class="st1" width="25.7" height="25.7"/>
<path class="st1" d="M257,77.1h25.7v25.7c-2.2,0-4.4-0.8-6.1-2.5l-17.1-17.1C257.8,81.5,257,79.3,257,77.1z"/>
<path class="st1" d="M308.4,77.1v25.7h-25.7c0-2.2,0.8-4.4,2.5-6.1l17.1-17.1C304,77.9,306.2,77.1,308.4,77.1z"/>
<rect x="308.4" y="51.4" class="st2" width="25.7" height="25.7"/>
<rect x="308.4" y="77.1" class="st0" width="25.7" height="25.7"/>
<path class="st1" d="M334,102.8V77.1h25.7c0,2.2-0.8,4.4-2.5,6.1l-17.1,17.1C338.4,101.9,336.2,102.8,334,102.8z"/>
<path class="st1" d="M359.7,102.8V77.1h25.7c0,2.2-0.8,4.4-2.5,6.1l-17.1,17.1C364.1,101.9,361.9,102.8,359.7,102.8z"/>
<path class="st2" d="M385.4,77.1V51.4h25.7c0,2.2-0.8,4.4-2.5,6.1l-17.1,17.1C389.8,76.2,387.6,77.1,385.4,77.1z"/>
<path class="st0" d="M385.4,77.1h25.7v25.7c-2.2,0-4.4-0.8-6.1-2.5l-17.1-17.1C386.3,81.5,385.4,79.3,385.4,77.1z"/>
<rect x="462.5" y="51.4" class="st2" width="25.7" height="25.7"/>
<path class="st0" d="M488.2,77.1V51.4h25.7c0,2.2-0.8,4.4-2.5,6.1l-17.1,17.1C492.6,76.2,490.4,77.1,488.2,77.1z"/>
<path class="st2" d="M488.2,77.1v25.7h-25.7c0-2.2,0.8-4.4,2.5-6.1l17.1-17.1C483.8,77.9,486,77.1,488.2,77.1z"/>
<path class="st1" d="M488.2,77.1h25.7v25.7c-2.2,0-4.4-0.8-6.1-2.5l-17.1-17.1C489.1,81.5,488.2,79.3,488.2,77.1z"/>
<rect x="513.9" y="77.1" class="st0" width="25.7" height="25.7"/>
<path class="st1" d="M539.6,51.4h25.7v25.7c-2.2,0-4.4-0.8-6.1-2.5l-17.1-17.1C540.5,55.8,539.6,53.6,539.6,51.4z"/>
<path class="st2" d="M591,77.1h-25.7V51.4c2.2,0,4.4,0.8,6.1,2.5L588.5,71C590.2,72.7,591,74.9,591,77.1z"/>
<rect x="591" y="77.1" class="st1" width="25.7" height="25.7"/>
<path class="st1" d="M616.7,51.4h25.7v25.7c-2.2,0-4.4-0.8-6.1-2.5l-17.1-17.1C617.5,55.8,616.7,53.6,616.7,51.4z"/>
<path class="st2" d="M668.1,102.8h-25.7V77.1c2.2,0,4.4,0.8,6.1,2.5l17.1,17.1C667.3,98.4,668.1,100.6,668.1,102.8z"/>
<rect x="668.1" y="77.1" class="st0" width="25.7" height="25.7"/>
<path class="st1" d="M693.8,77.1V51.4h25.7c0,2.2-0.8,4.4-2.5,6.1l-17.1,17.1C698.2,76.2,696,77.1,693.8,77.1z"/>
<path class="st0" d="M719.5,77.1V51.4h25.7c0,2.2-0.8,4.4-2.5,6.1l-17.1,17.1C723.9,76.2,721.7,77.1,719.5,77.1z"/>
<path class="st1" d="M25.7,102.8v25.7H0c0-2.2,0.8-4.4,2.5-6.1l17.1-17.1C21.3,103.6,23.5,102.8,25.7,102.8z"/>
<rect y="128.5" class="st0" width="25.7" height="25.7"/>
<path class="st2" d="M25.7,128.5h25.7v25.7c-2.2,0-4.4-0.8-6.1-2.5l-17.1-17.1C26.5,132.9,25.7,130.7,25.7,128.5z"/>
<path class="st1" d="M51.4,128.5h25.7v25.7c-2.2,0-4.4-0.8-6.1-2.5l-17.1-17.1C52.2,132.9,51.4,130.7,51.4,128.5z"/>
<rect x="77.1" y="102.8" class="st1" width="25.7" height="25.7"/>
<path class="st2" d="M128.5,102.8v25.7h-25.7c0-2.2,0.8-4.4,2.5-6.1l17.1-17.1C124.1,103.6,126.3,102.8,128.5,102.8z"/>
<path class="st1" d="M128.5,102.8h25.7v25.7c-2.2,0-4.4-0.8-6.1-2.5L131,108.8C129.3,107.2,128.5,105,128.5,102.8z"/>
<path class="st0" d="M102.8,154.2H77.1v-25.7c2.2,0,4.4,0.8,6.1,2.5l17.1,17.1C101.9,149.8,102.8,152,102.8,154.2z"/>
<path class="st1" d="M154.2,128.5v25.7h-25.7c0-2.2,0.8-4.4,2.5-6.1l17.1-17.1C149.8,129.3,152,128.5,154.2,128.5z"/>
<path class="st0" d="M154.2,128.5v-25.7h25.7c0,2.2-0.8,4.4-2.5,6.1L160.2,126C158.6,127.6,156.4,128.5,154.2,128.5z"/>
<path class="st1" d="M179.9,128.5v25.7h-25.7c0-2.2,0.8-4.4,2.5-6.1l17.1-17.1C175.5,129.3,177.7,128.5,179.9,128.5z"/>
<path class="st1" d="M179.9,154.2v-25.7h25.7c0,2.2-0.8,4.4-2.5,6.1L186,151.7C184.3,153.3,182.1,154.2,179.9,154.2z"/>
<rect x="231.3" y="102.8" class="st2" width="25.7" height="25.7"/>
<path class="st1" d="M257,128.5v25.7h-25.7c0-2.2,0.8-4.4,2.5-6.1l17.1-17.1C252.6,129.3,254.8,128.5,257,128.5z"/>
<rect x="282.7" y="128.5" class="st0" width="25.7" height="25.7"/>
<path class="st2" d="M334,102.8v25.7h-25.7c0-2.2,0.8-4.4,2.5-6.1l17.1-17.1C329.7,103.6,331.9,102.8,334,102.8z"/>
<rect x="308.4" y="128.5" class="st1" width="25.7" height="25.7"/>
<path class="st1" d="M359.7,128.5v25.7H334c0-2.2,0.8-4.4,2.5-6.1l17.1-17.1C355.4,129.3,357.6,128.5,359.7,128.5z"/>
<path class="st0" d="M359.7,154.2v-25.7h25.7c0,2.2-0.8,4.4-2.5,6.1l-17.1,17.1C364.1,153.3,361.9,154.2,359.7,154.2z"/>
<rect x="385.4" y="102.8" class="st1" width="25.7" height="25.7"/>
<path class="st1" d="M385.4,128.5h25.7v25.7c-2.2,0-4.4-0.8-6.1-2.5l-17.1-17.1C386.3,132.9,385.4,130.7,385.4,128.5z"/>
<path class="st0" d="M436.8,154.2h-25.7v-25.7c2.2,0,4.4,0.8,6.1,2.5l17.1,17.1C436,149.8,436.8,152,436.8,154.2z"/>
<rect x="462.5" y="102.8" class="st1" width="25.7" height="25.7"/>
<rect x="462.5" y="128.5" class="st2" width="25.7" height="25.7"/>
<path class="st0" d="M513.9,154.2h-25.7v-25.7c2.2,0,4.4,0.8,6.1,2.5l17.1,17.1C513.1,149.8,513.9,152,513.9,154.2z"/>
<path class="st0" d="M513.9,154.2v-25.7h25.7c0,2.2-0.8,4.4-2.5,6.1L520,151.7C518.3,153.3,516.1,154.2,513.9,154.2z"/>
<rect x="539.6" y="102.8" class="st1" width="25.7" height="25.7"/>
<path class="st1" d="M539.6,154.2v-25.7h25.7c0,2.2-0.8,4.4-2.5,6.1l-17.1,17.1C544,153.3,541.8,154.2,539.6,154.2z"/>
<path class="st2" d="M591,154.2h-25.7v-25.7c2.2,0,4.4,0.8,6.1,2.5l17.1,17.1C590.2,149.8,591,152,591,154.2z"/>
<path class="st1" d="M642.4,128.5h-25.7v-25.7c2.2,0,4.4,0.8,6.1,2.5l17.1,17.1C641.6,124.1,642.4,126.3,642.4,128.5z"/>
<path class="st1" d="M642.4,154.2h-25.7v-25.7c2.2,0,4.4,0.8,6.1,2.5l17.1,17.1C641.6,149.8,642.4,152,642.4,154.2z"/>
<path class="st0" d="M642.4,128.5h25.7v25.7c-2.2,0-4.4-0.8-6.1-2.5l-17.1-17.1C643.2,132.9,642.4,130.7,642.4,128.5z"/>
<path class="st1" d="M719.5,102.8v25.7h-25.7c0-2.2,0.8-4.4,2.5-6.1l17.1-17.1C715.1,103.6,717.3,102.8,719.5,102.8z"/>
<path class="st1" d="M719.5,128.5v-25.7h25.7c0,2.2-0.8,4.4-2.5,6.1L725.5,126C723.9,127.6,721.7,128.5,719.5,128.5z"/>
<rect x="745.2" y="128.5" class="st0" width="25.7" height="25.7"/>
<path class="st1" d="M25.7,179.9H0v-25.7c2.2,0,4.4,0.8,6.1,2.5l17.1,17.1C24.9,175.5,25.7,177.7,25.7,179.9z"/>
<path class="st0" d="M77.1,179.9H51.4v-25.7c2.2,0,4.4,0.8,6.1,2.5l17.1,17.1C76.2,175.5,77.1,177.7,77.1,179.9z"/>
<path class="st2" d="M0,179.9h25.7v25.7c-2.2,0-4.4-0.8-6.1-2.5L2.5,185.9C0.8,184.3,0,182.1,0,179.9z"/>
<path class="st1" d="M25.7,179.9h25.7v25.7c-2.2,0-4.4-0.8-6.1-2.5L28.2,186C26.5,184.3,25.7,182.1,25.7,179.9z"/>
<rect x="77.1" y="154.2" class="st1" width="25.7" height="25.7"/>
<path class="st1" d="M102.8,205.6H77.1v-25.7c2.2,0,4.4,0.8,6.1,2.5l17.1,17.1C101.9,201.2,102.8,203.4,102.8,205.6z"/>
<path class="st2" d="M179.9,154.2v25.7h-25.7c0-2.2,0.8-4.4,2.5-6.1l17.1-17.1C175.5,155,177.7,154.2,179.9,154.2z"/>
<path class="st0" d="M179.9,205.6h-25.7v-25.7c2.2,0,4.4,0.8,6.1,2.5l17.1,17.1C179,201.2,179.9,203.4,179.9,205.6z"/>
<path class="st1" d="M205.6,205.6v-25.7h25.7c0,2.2-0.8,4.4-2.5,6.1l-17.1,17.1C210,204.7,207.8,205.6,205.6,205.6z"/>
<rect x="231.3" y="154.2" class="st0" width="25.7" height="25.7"/>
<path class="st0" d="M257,205.6h-25.7v-25.7c2.2,0,4.4,0.8,6.1,2.5l17.1,17.1C256.1,201.2,257,203.4,257,205.6z"/>
<path class="st1" d="M282.7,179.9v25.7H257c0-2.2,0.8-4.4,2.5-6.1l17.1-17.1C278.3,180.7,280.5,179.9,282.7,179.9z"/>
<path class="st0" d="M334,179.9h-25.7v-25.7c2.2,0,4.4,0.8,6.1,2.5l17.1,17.1C333.2,175.5,334,177.7,334,179.9z"/>
<path class="st0" d="M334,205.6h-25.7v-25.7c2.2,0,4.4,0.8,6.1,2.5l17.1,17.1C333.2,201.2,334,203.4,334,205.6z"/>
<path class="st1" d="M385.4,179.9v25.7h-25.7c0-2.2,0.8-4.4,2.5-6.1l17.1-17.1C381.1,180.7,383.2,179.9,385.4,179.9z"/>
<rect x="385.4" y="154.2" class="st1" width="25.7" height="25.7"/>
<rect x="385.4" y="179.9" class="st0" width="25.7" height="25.7"/>
<path class="st2" d="M436.8,179.9v25.7h-25.7c0-2.2,0.8-4.4,2.5-6.1l17.1-17.1C432.5,180.7,434.6,179.9,436.8,179.9z"/>
<path class="st1" d="M462.5,179.9v25.7h-25.7c0-2.2,0.8-4.4,2.5-6.1l17.1-17.1C458.1,180.7,460.3,179.9,462.5,179.9z"/>
<path class="st0" d="M462.5,179.9v-25.7h25.7c0,2.2-0.8,4.4-2.5,6.1l-17.1,17.1C466.9,179,464.7,179.9,462.5,179.9z"/>
<path class="st1" d="M488.2,154.2h25.7v25.7c-2.2,0-4.4-0.8-6.1-2.5l-17.1-17.1C489.1,158.6,488.2,156.4,488.2,154.2z"/>
<path class="st0" d="M488.2,205.6h-25.7v-25.7c2.2,0,4.4,0.8,6.1,2.5l17.1,17.1C487.4,201.2,488.2,203.4,488.2,205.6z"/>
<path class="st1" d="M488.2,179.9h25.7v25.7c-2.2,0-4.4-0.8-6.1-2.5L490.7,186C489.1,184.3,488.2,182.1,488.2,179.9z"/>
<path class="st2" d="M513.9,205.6v-25.7h25.7c0,2.2-0.8,4.4-2.5,6.1L520,203.1C518.3,204.7,516.1,205.6,513.9,205.6z"/>
<rect x="539.6" y="154.2" class="st1" width="25.7" height="25.7"/>
<path class="st1" d="M616.7,154.2v25.7H591c0-2.2,0.8-4.4,2.5-6.1l17.1-17.1C612.3,155,614.5,154.2,616.7,154.2z"/>
<rect x="539.6" y="179.9" class="st0" width="25.7" height="25.7"/>
<path class="st2" d="M616.7,179.9v25.7H591c0-2.2,0.8-4.4,2.5-6.1l17.1-17.1C612.3,180.7,614.5,179.9,616.7,179.9z"/>
<rect x="616.7" y="154.2" class="st2" width="25.7" height="25.7"/>
<path class="st1" d="M642.4,179.9v25.7h-25.7c0-2.2,0.8-4.4,2.5-6.1l17.1-17.1C638,180.7,640.2,179.9,642.4,179.9z"/>
<path class="st2" d="M668.1,179.9v25.7h-25.7c0-2.2,0.8-4.4,2.5-6.1l17.1-17.1C663.7,180.7,665.9,179.9,668.1,179.9z"/>
<path class="st0" d="M668.1,179.9h25.7v25.7c-2.2,0-4.4-0.8-6.1-2.5L670.6,186C668.9,184.3,668.1,182.1,668.1,179.9z"/>
<rect x="693.8" y="154.2" class="st2" width="25.7" height="25.7"/>
<path class="st1" d="M745.2,179.9h-25.7v-25.7c2.2,0,4.4,0.8,6.1,2.5l17.1,17.1C744.3,175.5,745.2,177.7,745.2,179.9z"/>
<path class="st1" d="M693.8,205.6v-25.7h25.7c0,2.2-0.8,4.4-2.5,6.1l-17.1,17.1C698.2,204.7,696,205.6,693.8,205.6z"/>
<path class="st1" d="M745.2,179.9h25.7v25.7c-2.2,0-4.4-0.8-6.1-2.5L747.7,186C746,184.3,745.2,182.1,745.2,179.9z"/>
<path class="st1" d="M0,231.3v-25.7h25.7c0,2.2-0.8,4.4-2.5,6.1L6.1,228.8C4.4,230.4,2.2,231.3,0,231.3z"/>
<path class="st0" d="M51.4,231.3H25.7v-25.7c2.2,0,4.4,0.8,6.1,2.5l17.1,17.1C50.6,226.9,51.4,229.1,51.4,231.3z"/>
<rect x="77.1" y="205.6" class="st0" width="25.7" height="25.7"/>
<rect x="154.2" y="205.6" class="st1" width="25.7" height="25.7"/>
<path class="st2" d="M179.9,205.6h25.7v25.7c-2.2,0-4.4-0.8-6.1-2.5l-17.1-17.1C180.7,210,179.9,207.8,179.9,205.6z"/>
<path class="st1" d="M231.3,205.6v25.7h-25.7c0-2.2,0.8-4.4,2.5-6.1l17.1-17.1C226.9,206.4,229.1,205.6,231.3,205.6z"/>
<path class="st1" d="M231.3,231.3v-25.7H257c0,2.2-0.8,4.4-2.5,6.1l-17.1,17.1C235.6,230.4,233.5,231.3,231.3,231.3z"/>
<path class="st0" d="M282.7,205.6h25.7v25.7c-2.2,0-4.4-0.8-6.1-2.5l-17.1-17.1C283.5,210,282.7,207.8,282.7,205.6z"/>
<rect x="308.4" y="205.6" class="st2" width="25.7" height="25.7"/>
<rect x="385.4" y="205.6" class="st1" width="25.7" height="25.7"/>
<path class="st1" d="M488.2,231.3h-25.7v-25.7c2.2,0,4.4,0.8,6.1,2.5l17.1,17.1C487.4,226.9,488.2,229.1,488.2,231.3z"/>
<path class="st2" d="M513.9,231.3h-25.7v-25.7c2.2,0,4.4,0.8,6.1,2.5l17.1,17.1C513.1,226.9,513.9,229.1,513.9,231.3z"/>
<path class="st1" d="M539.6,205.6h25.7v25.7c-2.2,0-4.4-0.8-6.1-2.5l-17.1-17.1C540.5,210,539.6,207.8,539.6,205.6z"/>
<path class="st1" d="M616.7,231.3v-25.7h25.7c0,2.2-0.8,4.4-2.5,6.1l-17.1,17.1C621.1,230.4,618.9,231.3,616.7,231.3z"/>
<path class="st0" d="M719.5,231.3h-25.7v-25.7c2.2,0,4.4,0.8,6.1,2.5l17.1,17.1C718.6,226.9,719.5,229.1,719.5,231.3z"/>

</svg>