<svg xmlns="http://www.w3.org/2000/svg" viewBox="0 0 1920 1080" style="background-color:#000;fill:#FFF;">
<polygon points="1006.3,401 1006.3,679 1099,679 1099,401 "/>
<rect x="1321.2" y="586.3" width="92.6" height="92.6"/>
<rect x="1136" y="586.3" width="92.6" height="92.6"/>
<rect x="1228.6" y="493.7" width="92.6" height="92.6"/>
<rect x="1321.2" y="401" width="92.6" height="92.6"/>
<rect x="1136" y="401" width="92.6" height="92.6"/>
<path d="M969.3,540L969.3,540c0-76.7-62.3-139-139-139c-35.6,0-68,13.3-92.6,35.4c-24.6-22-57-35.4-92.6-35.4
	c-76.7,0-139,62.3-139,139l0,0v139h92.6V540c0-25.6,20.8-46.3,46.3-46.3c25.6,0,46.3,20.8,46.3,46.3l0,0v139h92.6V540
	c0-25.6,20.8-46.3,46.3-46.3s46.3,20.8,46.3,46.3l0,0v139h92.6L969.3,540z"/>
</svg>