<svg xmlns="http://www.w3.org/2000/svg" viewBox="0 0 1920 1080" style="fill:#FFF;background-color:#000;">
<polygon points="1022.9,351.4 1022.9,728.6 1148.6,728.6 1148.6,351.4 "/>
<rect x="1450.3" y="602.9" width="125.7" height="125.7"/>
<rect x="1198.9" y="602.9" width="125.7" height="125.7"/>
<rect x="1324.6" y="477.1" width="125.7" height="125.7"/>
<rect x="1450.3" y="351.4" width="125.7" height="125.7"/>
<rect x="1198.9" y="351.4" width="125.7" height="125.7"/>
<path d="M972.6,540L972.6,540c0-104.1-84.5-188.6-188.6-188.6c-48.3,0-92.3,18.1-125.7,48c-33.4-29.9-77.4-48-125.7-48C428.5,351.4,344,435.9,344,540l0,0v188.6h125.7V540c0-34.7,28.2-62.9,62.9-62.9c34.7,0,62.9,28.2,62.9,62.9l0,0v188.6h125.7V540c0-34.7,28.2-62.9,62.9-62.9S847,505.3,847,540l0,0v188.6h125.7L972.6,540z"/>
</svg>