<svg xmlns="http://www.w3.org/2000/svg" viewBox="0 0 890 262.05">
<style type="text/css">
    @import url("/styles/logos-draft.css");
	.d{fill:url(#d);}
</style>

<g class="main nw">
	<defs>
		<pattern id="d" width="6" height="6" patternUnits="userSpaceOnUse" patternTransform="rotate(45 50 50)">
			<line class="h" x1="0" y1="0" x2="0" y2="10"></line>
		</pattern>
	</defs>

	<rect x="2" y="0.59" class="bg" width="886" height="260.88"/>
	<rect x="2" y="0.59" class="dl" width="886" height="260.88"/>

	<g class="d">
		<path d="M478.9,196.66c0,3.98,0,8.51,0,13.59v22.69c0,3.66,0,7.03,0,10.1h-18.21c0-3.08,0-6.45,0-10.1v-22.69
			c0-5.08,0-9.61,0-13.59c0-3.98,0-8.06,0-12.24h-21.77c0,4.18,0,8.26,0,12.24c0,3.98,0,8.51,0,13.59v22.69c0,3.66,0,7.03,0,10.1
			h-18.21c0-3.08,0-6.45,0-10.1v-22.69c0-5.08,0-9.61,0-13.59c0-3.98,0-8.06,0-12.24H398.4c0,4.18,0,8.26,0,12.24
			c0,3.98,0,8.51,0,13.59v26.31c0,4.86,0,9.21,0,13.05s0,7.79,0,11.86h102.82c0-4.07,0-8.02,0-11.86s0-8.19,0-13.05v-26.31
			c0-5.08,0-9.61,0-13.59c0-3.98,0-8.06,0-12.24H478.9C478.9,188.6,478.9,192.68,478.9,196.66z"/>
		<path d="M478.9,12.83c0,3.98,0,8.51,0,13.59v22.69c0,3.66,0,7.03,0,10.1h-18.21c0-3.08,0-6.45,0-10.1V26.41
			c0-5.08,0-9.61,0-13.59c0-3.98,0-8.06,0-12.24h-21.77c0,4.18,0,8.26,0,12.24c0,3.98,0,8.51,0,13.59v22.69c0,3.66,0,7.03,0,10.1
			h-18.21c0-3.08,0-6.45,0-10.1V26.41c0-5.08,0-9.61,0-13.59c0-3.98,0-8.06,0-12.24H398.4c0,4.18,0,8.26,0,12.24
			c0,3.98,0,8.51,0,13.59v26.31c0,4.86,0,9.21,0,13.05c0,3.84,0,7.79,0,11.86h102.82c0-4.07,0-8.02,0-11.86c0-3.84,0-8.19,0-13.05
			V26.41c0-5.08,0-9.61,0-13.59c0-3.98,0-8.06,0-12.24H478.9C478.9,4.77,478.9,8.85,478.9,12.83z"/>
		<path d="M865.69,119.62c0,3.98,0,8.51,0,13.59v22.69c0,3.66,0,7.03,0,10.1h-18.21c0-3.08,0-6.45,0-10.1V133.2
			c0-5.08,0-9.61,0-13.59c0-3.98,0-8.06,0-12.24h-21.77c0,4.18,0,8.26,0,12.24c0,3.98,0,8.51,0,13.59v22.69c0,3.66,0,7.03,0,10.1
			H807.5c0-3.08,0-6.45,0-10.1V133.2c0-5.08,0-9.61,0-13.59c0-3.98,0-8.06,0-12.24h-22.31c0,4.18,0,8.26,0,12.24
			c0,3.98,0,8.51,0,13.59v26.31c0,4.86,0,9.21,0,13.05s0,7.79,0,11.86H888c0-4.07,0-8.02,0-11.86s0-8.19,0-13.05V133.2
			c0-5.08,0-9.61,0-13.59c0-3.98,0-8.06,0-12.24h-22.31C865.69,111.56,865.69,115.64,865.69,119.62z"/>
		<path d="M82.5,119.62c0,3.98,0,8.51,0,13.59v22.69c0,3.66,0,7.03,0,10.1H64.29c0-3.08,0-6.45,0-10.1V133.2
			c0-5.08,0-9.61,0-13.59c0-3.98,0-8.06,0-12.24H42.52c0,4.18,0,8.26,0,12.24c0,3.98,0,8.51,0,13.59v22.69c0,3.66,0,7.03,0,10.1
			H24.31c0-3.08,0-6.45,0-10.1V133.2c0-5.08,0-9.61,0-13.59c0-3.98,0-8.06,0-12.24H2c0,4.18,0,8.26,0,12.24c0,3.98,0,8.51,0,13.59
			v26.31c0,4.86,0,9.21,0,13.05s0,7.79,0,11.86h102.82c0-4.07,0-8.02,0-11.86s0-8.19,0-13.05V133.2c0-5.08,0-9.61,0-13.59
			c0-3.98,0-8.06,0-12.24H82.5C82.5,111.56,82.5,115.64,82.5,119.62z"/>
	</g>
	
	<g class="mnl">
		<line x1="2" y1="107.38" x2="888" y2="107.38"/>
		<line x1="2" y1="93.58" x2="888" y2="93.58"/>
	</g>

	<g class="mjl">
		<line x1="2" y1="77.29" x2="888" y2="77.29"/>
		<line x1="2" y1="184.42" x2="888" y2="184.42"/>
		<line x1="114.43" y1="0.59" x2="114.43" y2="261.47"/>
		<line x1="785.18" y1="0.59" x2="785.18" y2="261.47"/>
	</g>

	<g class="logo-draft">
		<g>
			<path d="M197.26,159.57l-3.4-26.1c-0.61-4.75-1.19-9.22-1.73-13.4c-0.54-4.18-1.1-8.41-1.67-12.7H168.3
				c-1.4,4-2.69,7.65-3.86,10.97c-1.17,3.31-2.37,6.66-3.59,10.05l-7.08,19.94h-1.4l-7.56-19.99c-1.26-3.35-2.53-6.73-3.81-10.13
				c-1.28-3.4-2.64-7.01-4.08-10.83h-22.48c-0.58,4.32-1.12,8.58-1.62,12.78c-0.5,4.2-1.05,8.62-1.62,13.26l-3.3,26.04
				c-0.58,4.68-1.11,9.03-1.59,13.05c-0.49,4.02-0.98,7.99-1.49,11.91h20.58c0.58-4.57,1.12-8.95,1.62-13.13
				c0.5-4.18,0.97-8.1,1.4-11.78l1.89-15.4h1.46l5.94,16.69c0.97,2.63,1.94,5.3,2.89,8.02c0.95,2.72,1.9,5.4,2.84,8.05
				c0.94,2.65,1.84,5.16,2.7,7.54h14.64c1.08-3.6,2.22-7.4,3.43-11.4c1.21-4,2.42-8.07,3.65-12.21l4.97-16.69h1.46l1.94,15.56
				c0.43,3.64,0.91,7.52,1.43,11.64c0.52,4.12,1.05,8.49,1.59,13.1h21.18c-0.5-4-1.02-7.97-1.54-11.91
				C198.38,168.56,197.83,164.25,197.26,159.57z"/>
			<g>
				<path d="M277.65,117.48c-3.35-3.67-7.58-6.56-12.7-8.64c-5.11-2.09-11.15-3.13-18.1-3.13c-9.15,0-16.7,1.8-22.66,5.4
					c-5.96,3.6-10.41,8.45-13.35,14.53c-2.94,6.09-4.4,12.88-4.4,20.37c0,5.26,0.79,10.28,2.38,15.07c1.58,4.79,4.03,9.07,7.32,12.83
					c3.3,3.76,7.54,6.72,12.72,8.86c5.19,2.14,11.36,3.21,18.53,3.21c8.82,0,16.23-1.74,22.21-5.21c5.98-3.48,10.48-8.23,13.51-14.26
					c3.03-6.03,4.54-12.9,4.54-20.61c0-5.55-0.83-10.75-2.48-15.61C283.5,125.42,281,121.16,277.65,117.48z M263.31,154.36
					c-0.74,2.65-1.85,4.99-3.32,7.02c-1.48,2.04-3.28,3.63-5.4,4.78c-2.13,1.15-4.61,1.73-7.46,1.73c-2.85,0-5.36-0.58-7.54-1.73
					c-2.18-1.15-4-2.75-5.46-4.78c-1.46-2.03-2.57-4.38-3.32-7.02c-0.76-2.65-1.13-5.47-1.13-8.46c0-3.03,0.4-5.88,1.19-8.56
					c0.79-2.68,1.93-5.03,3.4-7.05c1.48-2.02,3.3-3.59,5.46-4.73c2.16-1.13,4.63-1.7,7.4-1.7c2.67,0,5.06,0.56,7.19,1.68
					c2.12,1.12,3.93,2.67,5.43,4.67c1.49,2,2.65,4.34,3.46,7.02c0.81,2.68,1.22,5.57,1.22,8.67
					C264.41,148.89,264.04,151.71,263.31,154.36z"/>
				<path d="M259.83,86.74c2.03-2.32,4.11-4.68,6.21-7.08c2.11-2.39,4.24-4.82,6.4-7.27l-20.53,0.43
					c-2.09,3.49-4.19,6.98-6.29,10.45c-2.11,3.48-4.24,6.98-6.4,10.51l14.59-0.22C255.79,91.35,257.8,89.07,259.83,86.74z"/>
			</g>
			<path d="M291.75,126.67c2.7,0,5.56,0,8.56,0c3.01,0,6.47,0,10.4,0h2.49c0,3.09,0,6.45,0,10.1v22.75
				c0,4.86,0,9.21,0,13.05s0,7.79,0,11.86h22.21c0-4.07,0-8.02,0-11.86s0-8.19,0-13.05v-22.75c0-3.66,0-7.02,0-10.1h2.49
				c3.93,0,7.39,0,10.4,0s5.86,0,8.56,0v-19.29h-65.1V126.67z"/>
			<path d="M406.78,120.26c-2.63,4.02-5.24,8.02-7.83,12.02l-10.1,15.45h-1.57v-14.43c0-5.08,0-9.62,0-13.61
				s0-8.1,0-12.32h-21.67c0,4.18,0,8.26,0,12.24c0,3.98,0,8.51,0,13.59v26.31c0,4.86,0,9.21,0,13.05s0,7.79,0,11.86h18.53
				c2.52-3.82,5.1-7.73,7.73-11.75c2.63-4.02,5.51-8.38,8.64-13.1l10.27-15.56h1.46v15.34c0,4.9,0,9.28,0,13.13s0,7.83,0,11.94h21.67
				c0-4.07,0-8.02,0-11.86s0-8.19,0-13.05V133.2c0-5.08,0-9.61,0-13.59c0-3.98,0-8.06,0-12.24h-18.75
				C412.2,111.95,409.41,116.25,406.78,120.26z"/>
			<path d="M526.93,119.62c0,3.98,0,8.51,0,13.59v22.69c0,3.66,0,7.03,0,10.1h-18.21c0-3.08,0-6.45,0-10.1V133.2
				c0-5.08,0-9.61,0-13.59c0-3.98,0-8.06,0-12.24h-21.77c0,4.18,0,8.26,0,12.24c0,3.98,0,8.51,0,13.59v22.69c0,3.66,0,7.03,0,10.1
				h-18.21c0-3.08,0-6.45,0-10.1V133.2c0-5.08,0-9.61,0-13.59c0-3.98,0-8.06,0-12.24h-22.31c0,4.18,0,8.26,0,12.24
				c0,3.98,0,8.51,0,13.59v26.31c0,4.86,0,9.21,0,13.05s0,7.79,0,11.86h102.82c0-4.07,0-8.02,0-11.86s0-8.19,0-13.05V133.2
				c0-5.08,0-9.61,0-13.59c0-3.98,0-8.06,0-12.24h-22.31C526.93,111.56,526.93,115.64,526.93,119.62z"/>
			<path d="M608.08,119.62c0,3.98,0,8.51,0,13.59v3.3h-23.99v-3.3c0-5.08,0-9.61,0-13.59c0-3.98,0-8.06,0-12.24h-22.31
				c0,4.18,0,8.26,0,12.24c0,3.98,0,8.51,0,13.59v26.31c0,4.86,0,9.21,0,13.05s0,7.79,0,11.86h22.31c0-4.07,0-8.02,0-11.86
				s0-8.19,0-13.05v-4.59h23.99v4.59c0,4.86,0,9.21,0,13.05s0,7.79,0,11.86h22.31c0-4.07,0-8.02,0-11.86s0-8.19,0-13.05V133.2
				c0-5.08,0-9.61,0-13.59c0-3.98,0-8.06,0-12.24h-22.31C608.08,111.56,608.08,115.64,608.08,119.62z"/>
			<path d="M706.3,158.38l-8.1-26.47c-1.44-4.65-2.75-8.88-3.92-12.7c-1.17-3.82-2.39-7.76-3.65-11.83h-28.47
				c-1.19,3.89-2.38,7.74-3.57,11.56c-1.19,3.82-2.52,8.14-4,12.97l-8.16,26.47c-1.3,4.07-2.65,8.4-4.05,12.99
				c-1.4,4.59-2.74,8.94-4,13.05h22.26c0.97-3.82,1.98-7.8,3.02-11.94c0.2-0.78,0.39-1.55,0.58-2.32h23.6
				c0.19,0.79,0.39,1.57,0.58,2.38c0.99,4.07,1.95,8.03,2.89,11.89h23.02c-1.26-4.11-2.58-8.41-3.97-12.91
				C709,167.01,707.64,162.63,706.3,158.38z M676.97,125.96l6.79,27.72H668.4l7-27.72H676.97z"/>
			<path d="M776.16,107.38c-3.57,0-7.34,0-11.32,0s-7.86,0-11.64,0c-6.48,0-12.02,0.69-16.61,2.08
				c-4.59,1.39-8.09,3.76-10.48,7.13c-2.4,3.37-3.59,8.04-3.59,14.02c0,3.49,0.5,6.65,1.51,9.48c1.01,2.83,2.57,5.27,4.7,7.32
				c2.07,2,4.71,3.55,7.89,4.66l-5.78,9.71c-1.44,2.38-2.98,4.94-4.62,7.7c-1.64,2.75-3.24,5.44-4.81,8.05
				c-1.57,2.61-2.93,4.91-4.08,6.89h24.53c1.62-2.88,3.16-5.64,4.62-8.27c1.46-2.63,2.91-5.2,4.35-7.73l6.41-11.72h6.07v2.81
				c0,4.86,0,9.21,0,13.05s0,7.79,0,11.86h21.88c0-4.07,0-8.02,0-11.86s0-8.19,0-13.05V133.2c0-5.08,0-9.61,0-13.59
				c0-3.98,0-8.06,0-12.24C782.73,107.38,779.73,107.38,776.16,107.38z M755.09,142.33c-2.92,0-5.25-0.64-7-1.92
				c-1.75-1.28-2.62-3.74-2.62-7.37c0-1.66,0.22-3.03,0.68-4.13c0.45-1.1,1.06-1.99,1.84-2.67c0.77-0.68,1.67-1.17,2.67-1.46
				c1.01-0.29,2.09-0.43,3.24-0.43h9.4c0,3.7,0,7.83,0,12.43v5.56H755.09z"/>
		</g>
		<g>
			<path d="M512.71,77.63c-0.82,0-1.63,0-2.41,0c-1.34,0-2.49,0.14-3.44,0.43s-1.67,0.78-2.17,1.48
				c-0.5,0.7-0.74,1.66-0.74,2.9c0,0.72,0.1,1.38,0.31,1.96c0.21,0.59,0.53,1.09,0.97,1.52c0.43,0.41,0.98,0.73,1.63,0.96l-1.2,2.01
				c-0.3,0.49-0.62,1.02-0.96,1.59c-0.34,0.57-0.67,1.13-1,1.67c-0.32,0.54-0.61,1.02-0.84,1.43h5.08c0.34-0.6,0.65-1.17,0.96-1.71
				c0.3-0.54,0.6-1.08,0.9-1.6l1.33-2.43h1.25v0.58c0,1.01,0,1.91,0,2.7c0,0.79,0,1.61,0,2.45h4.53c0-0.84,0-1.66,0-2.45
				c0-0.79,0-1.69,0-2.7v-5.45c0-1.05,0-1.99,0-2.81s0-1.67,0-2.53c-0.51,0-1.13,0-1.87,0C514.31,77.63,513.53,77.63,512.71,77.63z
				M510.69,84.87c-0.6,0-1.09-0.13-1.45-0.4c-0.36-0.26-0.54-0.77-0.54-1.53c0-0.34,0.05-0.63,0.14-0.86
				c0.09-0.23,0.22-0.41,0.38-0.55c0.16-0.14,0.34-0.24,0.55-0.3c0.21-0.06,0.43-0.09,0.67-0.09h1.94c0,0.77,0,1.62,0,2.57v1.15
				H510.69z"/>
			<path d="M519.51,80.17c0,0.82,0,1.76,0,2.81v5.45c0,1.01,0,1.91,0,2.7c0,0.79,0,1.61,0,2.45h4.62
				c0-0.84,0-1.66,0-2.45c0-0.79,0-1.69,0-2.7v-4.71c0-0.84,0-1.58,0-2.27h4.86c0,0.69,0,1.43,0,2.27v4.71c0,1.01,0,1.91,0,2.7
				c0,0.79,0,1.61,0,2.45h4.62c0-0.84,0-1.66,0-2.45c0-0.79,0-1.69,0-2.7v-5.45c0-1.05,0-1.99,0-2.81s0-1.67,0-2.53h-14.1
				C519.51,78.5,519.51,79.34,519.51,80.17z"/>
			<path d="M550.32,79.72c-0.69-0.76-1.57-1.36-2.63-1.79c-1.06-0.43-2.31-0.65-3.75-0.65c-1.89,0-3.46,0.37-4.69,1.12
				c-1.23,0.75-2.15,1.75-2.76,3.01c-0.61,1.26-0.91,2.67-0.91,4.22c0,1.09,0.16,2.13,0.49,3.12c0.33,0.99,0.83,1.88,1.52,2.66
				c0.68,0.78,1.56,1.39,2.63,1.83c1.07,0.44,2.35,0.67,3.84,0.67c1.83,0,3.36-0.36,4.6-1.08c1.24-0.72,2.17-1.7,2.8-2.95
				c0.63-1.25,0.94-2.67,0.94-4.27c0-1.15-0.17-2.23-0.51-3.23C551.53,81.37,551.01,80.48,550.32,79.72z M547.35,87.36
				c-0.15,0.55-0.38,1.03-0.69,1.45c-0.31,0.42-0.68,0.75-1.12,0.99c-0.44,0.24-0.95,0.36-1.54,0.36c-0.59,0-1.11-0.12-1.56-0.36
				c-0.45-0.24-0.83-0.57-1.13-0.99c-0.3-0.42-0.53-0.91-0.69-1.45c-0.16-0.55-0.23-1.13-0.23-1.75c0-0.63,0.08-1.22,0.25-1.77
				c0.16-0.56,0.4-1.04,0.71-1.46c0.31-0.42,0.68-0.74,1.13-0.98c0.45-0.23,0.96-0.35,1.53-0.35c0.55,0,1.05,0.12,1.49,0.35
				c0.44,0.23,0.81,0.55,1.12,0.97c0.31,0.41,0.55,0.9,0.72,1.45c0.17,0.56,0.25,1.15,0.25,1.79
				C547.58,86.22,547.5,86.81,547.35,87.36z"/>
			<path d="M563.95,80.17c0,0.82,0,1.76,0,2.81v0.68h-4.97v-0.68c0-1.05,0-1.99,0-2.81s0-1.67,0-2.53h-4.62
				c0,0.86,0,1.71,0,2.53s0,1.76,0,2.81v5.45c0,1.01,0,1.91,0,2.7c0,0.79,0,1.61,0,2.45h4.62c0-0.84,0-1.66,0-2.45
				c0-0.79,0-1.69,0-2.7v-0.95h4.97v0.95c0,1.01,0,1.91,0,2.7c0,0.79,0,1.61,0,2.45h4.62c0-0.84,0-1.66,0-2.45c0-0.79,0-1.69,0-2.7
				v-5.45c0-1.05,0-1.99,0-2.81s0-1.67,0-2.53h-4.62C563.95,78.5,563.95,79.34,563.95,80.17z"/>
			<path d="M577.3,81.66c0.6-0.33,1.29-0.5,2.06-0.5c0.42,0,0.86,0.05,1.34,0.16c0.48,0.1,0.98,0.27,1.52,0.5
				c0.53,0.23,1.09,0.53,1.67,0.9l0.32-4.25c-0.32-0.17-0.69-0.33-1.1-0.46c-0.41-0.14-0.85-0.26-1.32-0.37
				c-0.47-0.11-0.96-0.19-1.46-0.26s-1.01-0.1-1.52-0.1c-1.77,0-3.28,0.36-4.51,1.09c-1.23,0.73-2.17,1.72-2.81,2.98
				c-0.64,1.26-0.96,2.69-0.96,4.28c0,1.26,0.2,2.4,0.59,3.41s0.97,1.88,1.71,2.61c0.75,0.72,1.64,1.28,2.7,1.67
				c1.06,0.39,2.24,0.58,3.55,0.58c0.46,0,0.92-0.02,1.39-0.06c0.46-0.04,0.91-0.1,1.35-0.17s0.85-0.18,1.25-0.31
				c0.4-0.13,0.75-0.27,1.07-0.44l-0.22-4.19c-0.37,0.27-0.73,0.5-1.08,0.68c-0.35,0.19-0.71,0.33-1.06,0.44
				c-0.35,0.1-0.7,0.18-1.04,0.23c-0.34,0.05-0.68,0.07-1.01,0.07c-0.75,0-1.39-0.12-1.94-0.36c-0.55-0.24-1.01-0.57-1.37-0.99
				c-0.36-0.42-0.63-0.9-0.81-1.45c-0.18-0.55-0.27-1.12-0.27-1.73c0-0.98,0.18-1.81,0.53-2.47C576.22,82.49,576.69,82,577.3,81.66z"
				/>
			<path d="M598.38,89.74c-0.45-0.72-0.87-1.38-1.26-1.99l-1.81-2.88l1.65-2.29c0.6-0.83,1.2-1.66,1.79-2.48
				c0.59-0.82,1.19-1.64,1.81-2.48h-5.23c-0.45,0.73-0.85,1.37-1.2,1.91c-0.35,0.54-0.69,1.09-1.05,1.63l-1.46,2.3h-0.6v-0.5
				c0-1.05,0-1.99,0-2.81s0-1.67,0-2.53h-4.6c0,0.86,0,1.71,0,2.53s0,1.76,0,2.81v5.45c0,1.01,0,1.91,0,2.7c0,0.79,0,1.61,0,2.45h4.6
				c0-0.84,0-1.66,0-2.45c0-0.79,0-1.69,0-2.7v-1.36h0.67l1.59,2.85c0.31,0.58,0.63,1.17,0.97,1.77c0.33,0.6,0.68,1.23,1.05,1.9h5.5
				c-0.31-0.5-0.67-1.08-1.1-1.76C599.26,91.15,598.82,90.46,598.38,89.74z"/>
			<path d="M615.54,79.72c-0.69-0.76-1.57-1.36-2.63-1.79c-1.06-0.43-2.31-0.65-3.75-0.65c-1.89,0-3.46,0.37-4.69,1.12
				c-1.23,0.75-2.15,1.75-2.76,3.01c-0.61,1.26-0.91,2.67-0.91,4.22c0,1.09,0.16,2.13,0.49,3.12c0.33,0.99,0.83,1.88,1.52,2.66
				c0.68,0.78,1.56,1.39,2.63,1.83c1.07,0.44,2.35,0.67,3.84,0.67c1.83,0,3.36-0.36,4.6-1.08c1.24-0.72,2.17-1.7,2.8-2.95
				c0.63-1.25,0.94-2.67,0.94-4.27c0-1.15-0.17-2.23-0.51-3.23C616.75,81.37,616.23,80.48,615.54,79.72z M612.57,87.36
				c-0.15,0.55-0.38,1.03-0.69,1.45c-0.31,0.42-0.68,0.75-1.12,0.99c-0.44,0.24-0.95,0.36-1.54,0.36s-1.11-0.12-1.56-0.36
				c-0.45-0.24-0.83-0.57-1.13-0.99c-0.3-0.42-0.53-0.91-0.69-1.45c-0.16-0.55-0.23-1.13-0.23-1.75c0-0.63,0.08-1.22,0.25-1.77
				c0.16-0.56,0.4-1.04,0.7-1.46c0.31-0.42,0.68-0.74,1.13-0.98c0.45-0.23,0.96-0.35,1.53-0.35c0.55,0,1.05,0.12,1.49,0.35
				c0.44,0.23,0.81,0.55,1.12,0.97c0.31,0.41,0.55,0.9,0.72,1.45c0.17,0.56,0.25,1.15,0.25,1.79
				C612.8,86.22,612.72,86.81,612.57,87.36z"/>
			<path d="M626.12,89.9h-2.02c0-0.68,0-1.41,0-2.23v-0.44h1.74c0.92,0,1.73,0,2.4,0s1.35,0,2.01,0v-3.34
				c-0.63,0-1.29,0-1.97,0c-0.68,0-1.49,0-2.44,0h-1.76v-0.18c0-0.89,0-1.68,0-2.4h1.71c1.01,0,1.9,0,2.64,0c0.75,0,1.45,0,2.11,0
				v-3.68h-10.98c0,0.86,0,1.71,0,2.53s0,1.76,0,2.8v5.46c0,1.01,0,1.91,0,2.7c0,0.79,0,1.61,0,2.45h11.1V89.9c-0.69,0-1.41,0-2.16,0
				C627.77,89.9,626.97,89.9,626.12,89.9z"/>
			<path d="M639.43,80.63c-0.05,1.02-0.1,2.01-0.15,2.96c-0.07,1.42-0.19,2.6-0.35,3.53c-0.16,0.93-0.39,1.62-0.69,2.07
				c-0.3,0.45-0.7,0.68-1.19,0.68c-0.08,0-0.18-0.01-0.29-0.02c-0.11-0.01-0.25-0.03-0.41-0.05l-0.17,3.79
				c0.19,0.04,0.39,0.09,0.61,0.13c0.22,0.04,0.47,0.07,0.73,0.1c0.26,0.02,0.54,0.03,0.84,0.03c1.08,0,1.94-0.18,2.57-0.54
				c0.63-0.36,1.1-0.89,1.43-1.61c0.32-0.72,0.55-1.6,0.69-2.66s0.26-2.28,0.35-3.67c0.08-1.21,0.17-2.37,0.25-3.47
				c0.01-0.15,0.02-0.31,0.03-0.46h3.37c0,0.69,0,1.43,0,2.27v4.71c0,1.01,0,1.91,0,2.7c0,0.79,0,1.61,0,2.45h4.63
				c0-0.84,0-1.66,0-2.45c0-0.79,0-1.69,0-2.7v-5.45c0-1.05,0-1.99,0-2.81s0-1.67,0-2.53h-12.1
				C639.54,78.61,639.49,79.61,639.43,80.63z"/>
			<path d="M667.39,88.19l-1.68-5.48c-0.3-0.96-0.57-1.84-0.81-2.63c-0.24-0.79-0.49-1.61-0.76-2.45h-5.89
				c-0.25,0.81-0.49,1.6-0.74,2.39c-0.25,0.79-0.52,1.68-0.83,2.68L655,88.19c-0.27,0.84-0.55,1.74-0.84,2.69
				c-0.29,0.95-0.57,1.85-0.83,2.7h4.61c0.2-0.79,0.41-1.61,0.63-2.47c0.04-0.17,0.08-0.32,0.12-0.48h4.89
				c0.04,0.16,0.08,0.32,0.12,0.49c0.2,0.84,0.4,1.66,0.6,2.46h4.76c-0.26-0.85-0.53-1.74-0.82-2.67
				C667.95,89.97,667.67,89.07,667.39,88.19z M661.32,81.48l1.41,5.74h-3.18l1.45-5.74H661.32z"/>
			<path d="M682.64,89.74c-0.45-0.72-0.87-1.38-1.26-1.99l-1.81-2.88l1.65-2.29c0.6-0.83,1.2-1.66,1.79-2.48
				c0.59-0.82,1.19-1.64,1.81-2.48h-5.23c-0.45,0.73-0.85,1.37-1.2,1.91c-0.35,0.54-0.69,1.09-1.05,1.63l-1.46,2.3h-0.6v-0.5
				c0-1.05,0-1.99,0-2.81s0-1.67,0-2.53h-4.6c0,0.86,0,1.71,0,2.53s0,1.76,0,2.81v5.45c0,1.01,0,1.91,0,2.7c0,0.79,0,1.61,0,2.45h4.6
				c0-0.84,0-1.66,0-2.45c0-0.79,0-1.69,0-2.7v-1.36h0.67l1.59,2.85c0.31,0.58,0.63,1.17,0.97,1.77c0.33,0.6,0.68,1.23,1.05,1.9h5.5
				c-0.31-0.5-0.67-1.08-1.1-1.76C683.52,91.15,683.09,90.46,682.64,89.74z"/>
			<path d="M699.8,79.72c-0.69-0.76-1.57-1.36-2.63-1.79c-1.06-0.43-2.31-0.65-3.75-0.65c-1.89,0-3.46,0.37-4.69,1.12
				c-1.23,0.75-2.15,1.75-2.76,3.01c-0.61,1.26-0.91,2.67-0.91,4.22c0,1.09,0.16,2.13,0.49,3.12c0.33,0.99,0.83,1.88,1.52,2.66
				c0.68,0.78,1.56,1.39,2.63,1.83c1.07,0.44,2.35,0.67,3.84,0.67c1.83,0,3.36-0.36,4.6-1.08c1.24-0.72,2.17-1.7,2.8-2.95
				c0.63-1.25,0.94-2.67,0.94-4.27c0-1.15-0.17-2.23-0.51-3.23C701.01,81.37,700.5,80.48,699.8,79.72z M696.84,87.36
				c-0.15,0.55-0.38,1.03-0.69,1.45c-0.31,0.42-0.68,0.75-1.12,0.99c-0.44,0.24-0.95,0.36-1.54,0.36c-0.59,0-1.11-0.12-1.56-0.36
				c-0.45-0.24-0.83-0.57-1.13-0.99c-0.3-0.42-0.53-0.91-0.69-1.45c-0.16-0.55-0.23-1.13-0.23-1.75c0-0.63,0.08-1.22,0.25-1.77
				c0.16-0.56,0.4-1.04,0.7-1.46c0.31-0.42,0.68-0.74,1.13-0.98c0.45-0.23,0.96-0.35,1.53-0.35c0.55,0,1.05,0.12,1.49,0.35
				c0.44,0.23,0.81,0.55,1.12,0.97c0.31,0.41,0.55,0.9,0.72,1.45c0.17,0.56,0.25,1.15,0.25,1.79
				C697.06,86.22,696.99,86.81,696.84,87.36z"/>
			<path d="M722.25,88.43l-0.7-5.4c-0.13-0.98-0.25-1.91-0.36-2.77c-0.11-0.86-0.23-1.74-0.35-2.63h-4.58
				c-0.29,0.83-0.56,1.58-0.8,2.27c-0.24,0.69-0.49,1.38-0.74,2.08l-1.46,4.13h-0.29l-1.57-4.14c-0.26-0.69-0.52-1.39-0.79-2.1
				c-0.26-0.7-0.55-1.45-0.84-2.24h-4.65c-0.12,0.89-0.23,1.78-0.34,2.64c-0.1,0.87-0.22,1.78-0.34,2.74l-0.68,5.39
				c-0.12,0.97-0.23,1.87-0.33,2.7c-0.1,0.83-0.2,1.65-0.31,2.47h4.26c0.12-0.95,0.23-1.85,0.33-2.72c0.11-0.86,0.2-1.68,0.29-2.44
				l0.39-3.19h0.3l1.23,3.46c0.2,0.54,0.4,1.1,0.6,1.66c0.2,0.56,0.39,1.12,0.59,1.67c0.19,0.55,0.38,1.07,0.56,1.56h3.03
				c0.22-0.75,0.46-1.53,0.71-2.36c0.25-0.83,0.5-1.67,0.76-2.53l1.03-3.46h0.3l0.4,3.22c0.09,0.75,0.19,1.56,0.3,2.41
				c0.11,0.85,0.22,1.76,0.33,2.71h4.38c-0.1-0.83-0.21-1.65-0.32-2.47C722.48,90.3,722.37,89.4,722.25,88.43z"/>
			<path d="M730.91,81.66c0.6-0.33,1.29-0.5,2.06-0.5c0.42,0,0.86,0.05,1.34,0.16c0.48,0.1,0.98,0.27,1.52,0.5
				c0.53,0.23,1.09,0.53,1.67,0.9l0.32-4.25c-0.32-0.17-0.69-0.33-1.1-0.46c-0.41-0.14-0.85-0.26-1.32-0.37
				c-0.47-0.11-0.96-0.19-1.46-0.26s-1.01-0.1-1.52-0.1c-1.77,0-3.28,0.36-4.51,1.09s-2.17,1.72-2.81,2.98
				c-0.64,1.26-0.96,2.69-0.96,4.28c0,1.26,0.2,2.4,0.59,3.41s0.97,1.88,1.71,2.61c0.75,0.72,1.64,1.28,2.7,1.67
				c1.06,0.39,2.24,0.58,3.55,0.58c0.46,0,0.92-0.02,1.39-0.06c0.46-0.04,0.91-0.1,1.35-0.17s0.85-0.18,1.25-0.31
				c0.39-0.13,0.75-0.27,1.07-0.44l-0.22-4.19c-0.37,0.27-0.73,0.5-1.08,0.68c-0.35,0.19-0.71,0.33-1.06,0.44
				c-0.35,0.1-0.7,0.18-1.04,0.23c-0.34,0.05-0.68,0.07-1.01,0.07c-0.75,0-1.39-0.12-1.94-0.36c-0.55-0.24-1.01-0.57-1.37-0.99
				c-0.36-0.42-0.63-0.9-0.81-1.45c-0.18-0.55-0.27-1.12-0.27-1.73c0-0.98,0.18-1.81,0.53-2.47C729.83,82.49,730.31,82,730.91,81.66z
				"/>
			<path d="M739.24,81.62c0.56,0,1.15,0,1.77,0c0.62,0,1.34,0,2.15,0h0.51c0,0.64,0,1.33,0,2.09v4.71
				c0,1.01,0,1.91,0,2.7c0,0.79,0,1.61,0,2.45h4.6c0-0.84,0-1.66,0-2.45c0-0.79,0-1.69,0-2.7v-4.71c0-0.76,0-1.45,0-2.09h0.51
				c0.81,0,1.53,0,2.15,0c0.62,0,1.21,0,1.77,0v-3.99h-13.47V81.62z"/>
			<path d="M766.13,85.92c-0.5-0.31-1.09-0.54-1.77-0.69V84.9c0.56-0.13,1.06-0.35,1.51-0.67
				c0.45-0.32,0.8-0.73,1.06-1.22c0.26-0.5,0.39-1.09,0.39-1.77c0-0.54-0.09-1.03-0.28-1.46c-0.19-0.44-0.51-0.82-0.96-1.14
				c-0.45-0.32-1.06-0.57-1.84-0.74c-0.78-0.18-1.76-0.26-2.94-0.26c-1.19,0-2.39,0-3.59,0c-1.2,0-2.27,0-3.2,0c0,0.86,0,1.71,0,2.53
				s0,1.76,0,2.8v5.46c0,1.01,0,1.91,0,2.7c0,0.79,0,1.61,0,2.45c0.48,0,1.03,0,1.63,0c0.6,0,1.27,0,1.99,0c0.72,0,1.5,0,2.34,0
				c1.43,0,2.61-0.11,3.54-0.32c0.93-0.21,1.66-0.52,2.19-0.91c0.53-0.4,0.9-0.87,1.12-1.43c0.22-0.56,0.32-1.18,0.32-1.86
				c0-0.77-0.13-1.41-0.39-1.92C767,86.63,766.62,86.22,766.13,85.92z M759.04,82.26c0-0.49,0-0.96,0-1.41h1.9
				c0.56,0,0.97,0.14,1.24,0.43c0.26,0.28,0.4,0.68,0.4,1.19c0,0.34-0.07,0.64-0.21,0.88s-0.34,0.43-0.61,0.56
				c-0.27,0.13-0.6,0.2-0.99,0.2h-1.72v-0.12C759.04,83.31,759.04,82.74,759.04,82.26z M762.66,89.59c-0.15,0.25-0.37,0.43-0.66,0.55
				c-0.29,0.12-0.66,0.18-1.09,0.18h-1.87c0-0.42,0-0.86,0-1.31c0-0.45,0-0.97,0-1.58v-0.38h1.97c0.62,0,1.08,0.14,1.4,0.41
				c0.31,0.28,0.47,0.68,0.47,1.21C762.88,89.03,762.81,89.34,762.66,89.59z"/>
			<path d="M785.23,82.37c-0.34-1.01-0.86-1.89-1.55-2.65c-0.69-0.76-1.57-1.36-2.63-1.79s-2.31-0.65-3.75-0.65
				c-1.89,0-3.46,0.37-4.69,1.12c-1.23,0.75-2.15,1.75-2.76,3.01c-0.61,1.26-0.91,2.67-0.91,4.22c0,1.09,0.16,2.13,0.49,3.12
				c0.33,0.99,0.83,1.88,1.52,2.66c0.68,0.78,1.56,1.39,2.63,1.83c1.07,0.44,2.35,0.67,3.84,0.67c1.83,0,3.36-0.36,4.6-1.08
				c1.24-0.72,2.17-1.7,2.8-2.95c0.63-1.25,0.94-2.67,0.94-4.27C785.75,84.46,785.57,83.38,785.23,82.37z M780.71,87.36
				c-0.15,0.55-0.38,1.03-0.69,1.45c-0.31,0.42-0.68,0.75-1.12,0.99c-0.44,0.24-0.95,0.36-1.54,0.36c-0.59,0-1.11-0.12-1.56-0.36
				c-0.45-0.24-0.83-0.57-1.13-0.99c-0.3-0.42-0.53-0.91-0.69-1.45c-0.16-0.55-0.23-1.13-0.23-1.75c0-0.63,0.08-1.22,0.25-1.77
				c0.16-0.56,0.4-1.04,0.7-1.46c0.31-0.42,0.68-0.74,1.13-0.98c0.45-0.23,0.96-0.35,1.53-0.35c0.55,0,1.05,0.12,1.49,0.35
				c0.44,0.23,0.81,0.55,1.12,0.97c0.31,0.41,0.55,0.9,0.72,1.45c0.17,0.56,0.25,1.15,0.25,1.79
				C780.94,86.22,780.86,86.81,780.71,87.36z"/>
		</g>
	</g>

	<g style="fill:#471646" class="logo">
		<g>
			<path d="M197.26,159.57l-3.4-26.1c-0.61-4.75-1.19-9.22-1.73-13.4c-0.54-4.18-1.1-8.41-1.67-12.7H168.3
				c-1.4,4-2.69,7.65-3.86,10.97c-1.17,3.31-2.37,6.66-3.59,10.05l-7.08,19.94h-1.4l-7.56-19.99c-1.26-3.35-2.53-6.73-3.81-10.13
				c-1.28-3.4-2.64-7.01-4.08-10.83h-22.48c-0.58,4.32-1.12,8.58-1.62,12.78c-0.5,4.2-1.05,8.62-1.62,13.26l-3.3,26.04
				c-0.58,4.68-1.11,9.03-1.59,13.05c-0.49,4.02-0.98,7.99-1.49,11.91h20.58c0.58-4.57,1.12-8.95,1.62-13.13
				c0.5-4.18,0.97-8.1,1.4-11.78l1.89-15.4h1.46l5.94,16.69c0.97,2.63,1.94,5.3,2.89,8.02c0.95,2.72,1.9,5.4,2.84,8.05
				c0.94,2.65,1.84,5.16,2.7,7.54h14.64c1.08-3.6,2.22-7.4,3.43-11.4c1.21-4,2.42-8.07,3.65-12.21l4.97-16.69h1.46l1.94,15.56
				c0.43,3.64,0.91,7.52,1.43,11.64c0.52,4.12,1.05,8.49,1.59,13.1h21.18c-0.5-4-1.02-7.97-1.54-11.91
				C198.38,168.56,197.83,164.25,197.26,159.57z"/>
			<g>
				<path d="M277.65,117.48c-3.35-3.67-7.58-6.56-12.7-8.64c-5.11-2.09-11.15-3.13-18.1-3.13c-9.15,0-16.7,1.8-22.66,5.4
					c-5.96,3.6-10.41,8.45-13.35,14.53c-2.94,6.09-4.4,12.88-4.4,20.37c0,5.26,0.79,10.28,2.38,15.07c1.58,4.79,4.03,9.07,7.32,12.83
					c3.3,3.76,7.54,6.72,12.72,8.86c5.19,2.14,11.36,3.21,18.53,3.21c8.82,0,16.23-1.74,22.21-5.21c5.98-3.48,10.48-8.23,13.51-14.26
					c3.03-6.03,4.54-12.9,4.54-20.61c0-5.55-0.83-10.75-2.48-15.61C283.5,125.42,281,121.16,277.65,117.48z M263.31,154.36
					c-0.74,2.65-1.85,4.99-3.32,7.02c-1.48,2.04-3.28,3.63-5.4,4.78c-2.13,1.15-4.61,1.73-7.46,1.73c-2.85,0-5.36-0.58-7.54-1.73
					c-2.18-1.15-4-2.75-5.46-4.78c-1.46-2.03-2.57-4.38-3.32-7.02c-0.76-2.65-1.13-5.47-1.13-8.46c0-3.03,0.4-5.88,1.19-8.56
					c0.79-2.68,1.93-5.03,3.4-7.05c1.48-2.02,3.3-3.59,5.46-4.73c2.16-1.13,4.63-1.7,7.4-1.7c2.67,0,5.06,0.56,7.19,1.68
					c2.12,1.12,3.93,2.67,5.43,4.67c1.49,2,2.65,4.34,3.46,7.02c0.81,2.68,1.22,5.57,1.22,8.67
					C264.41,148.89,264.04,151.71,263.31,154.36z"/>
				<path d="M259.83,86.74c2.03-2.32,4.11-4.68,6.21-7.08c2.11-2.39,4.24-4.82,6.4-7.27l-20.53,0.43
					c-2.09,3.49-4.19,6.98-6.29,10.45c-2.11,3.48-4.24,6.98-6.4,10.51l14.59-0.22C255.79,91.35,257.8,89.07,259.83,86.74z"/>
			</g>
			<path d="M291.75,126.67c2.7,0,5.56,0,8.56,0c3.01,0,6.47,0,10.4,0h2.49c0,3.09,0,6.45,0,10.1v22.75
				c0,4.86,0,9.21,0,13.05s0,7.79,0,11.86h22.21c0-4.07,0-8.02,0-11.86s0-8.19,0-13.05v-22.75c0-3.66,0-7.02,0-10.1h2.49
				c3.93,0,7.39,0,10.4,0s5.86,0,8.56,0v-19.29h-65.1V126.67z"/>
			<path d="M406.78,120.26c-2.63,4.02-5.24,8.02-7.83,12.02l-10.1,15.45h-1.57v-14.43c0-5.08,0-9.62,0-13.61
				s0-8.1,0-12.32h-21.67c0,4.18,0,8.26,0,12.24c0,3.98,0,8.51,0,13.59v26.31c0,4.86,0,9.21,0,13.05s0,7.79,0,11.86h18.53
				c2.52-3.82,5.1-7.73,7.73-11.75c2.63-4.02,5.51-8.38,8.64-13.1l10.27-15.56h1.46v15.34c0,4.9,0,9.28,0,13.13s0,7.83,0,11.94h21.67
				c0-4.07,0-8.02,0-11.86s0-8.19,0-13.05V133.2c0-5.08,0-9.61,0-13.59c0-3.98,0-8.06,0-12.24h-18.75
				C412.2,111.95,409.41,116.25,406.78,120.26z"/>
			<path d="M526.93,119.62c0,3.98,0,8.51,0,13.59v22.69c0,3.66,0,7.03,0,10.1h-18.21c0-3.08,0-6.45,0-10.1V133.2
				c0-5.08,0-9.61,0-13.59c0-3.98,0-8.06,0-12.24h-21.77c0,4.18,0,8.26,0,12.24c0,3.98,0,8.51,0,13.59v22.69c0,3.66,0,7.03,0,10.1
				h-18.21c0-3.08,0-6.45,0-10.1V133.2c0-5.08,0-9.61,0-13.59c0-3.98,0-8.06,0-12.24h-22.31c0,4.18,0,8.26,0,12.24
				c0,3.98,0,8.51,0,13.59v26.31c0,4.86,0,9.21,0,13.05s0,7.79,0,11.86h102.82c0-4.07,0-8.02,0-11.86s0-8.19,0-13.05V133.2
				c0-5.08,0-9.61,0-13.59c0-3.98,0-8.06,0-12.24h-22.31C526.93,111.56,526.93,115.64,526.93,119.62z"/>
			<path d="M608.08,119.62c0,3.98,0,8.51,0,13.59v3.3h-23.99v-3.3c0-5.08,0-9.61,0-13.59c0-3.98,0-8.06,0-12.24h-22.31
				c0,4.18,0,8.26,0,12.24c0,3.98,0,8.51,0,13.59v26.31c0,4.86,0,9.21,0,13.05s0,7.79,0,11.86h22.31c0-4.07,0-8.02,0-11.86
				s0-8.19,0-13.05v-4.59h23.99v4.59c0,4.86,0,9.21,0,13.05s0,7.79,0,11.86h22.31c0-4.07,0-8.02,0-11.86s0-8.19,0-13.05V133.2
				c0-5.08,0-9.61,0-13.59c0-3.98,0-8.06,0-12.24h-22.31C608.08,111.56,608.08,115.64,608.08,119.62z"/>
			<path d="M706.3,158.38l-8.1-26.47c-1.44-4.65-2.75-8.88-3.92-12.7c-1.17-3.82-2.39-7.76-3.65-11.83h-28.47
				c-1.19,3.89-2.38,7.74-3.57,11.56c-1.19,3.82-2.52,8.14-4,12.97l-8.16,26.47c-1.3,4.07-2.65,8.4-4.05,12.99
				c-1.4,4.59-2.74,8.94-4,13.05h22.26c0.97-3.82,1.98-7.8,3.02-11.94c0.2-0.78,0.39-1.55,0.58-2.32h23.6
				c0.19,0.79,0.39,1.57,0.58,2.38c0.99,4.07,1.95,8.03,2.89,11.89h23.02c-1.26-4.11-2.58-8.41-3.97-12.91
				C709,167.01,707.64,162.63,706.3,158.38z M676.97,125.96l6.79,27.72H668.4l7-27.72H676.97z"/>
			<path d="M776.16,107.38c-3.57,0-7.34,0-11.32,0s-7.86,0-11.64,0c-6.48,0-12.02,0.69-16.61,2.08
				c-4.59,1.39-8.09,3.76-10.48,7.13c-2.4,3.37-3.59,8.04-3.59,14.02c0,3.49,0.5,6.65,1.51,9.48c1.01,2.83,2.57,5.27,4.7,7.32
				c2.07,2,4.71,3.55,7.89,4.66l-5.78,9.71c-1.44,2.38-2.98,4.94-4.62,7.7c-1.64,2.75-3.24,5.44-4.81,8.05
				c-1.57,2.61-2.93,4.91-4.08,6.89h24.53c1.62-2.88,3.16-5.64,4.62-8.27c1.46-2.63,2.91-5.2,4.35-7.73l6.41-11.72h6.07v2.81
				c0,4.86,0,9.21,0,13.05s0,7.79,0,11.86h21.88c0-4.07,0-8.02,0-11.86s0-8.19,0-13.05V133.2c0-5.08,0-9.61,0-13.59
				c0-3.98,0-8.06,0-12.24C782.73,107.38,779.73,107.38,776.16,107.38z M755.09,142.33c-2.92,0-5.25-0.64-7-1.92
				c-1.75-1.28-2.62-3.74-2.62-7.37c0-1.66,0.22-3.03,0.68-4.13c0.45-1.1,1.06-1.99,1.84-2.67c0.77-0.68,1.67-1.17,2.67-1.46
				c1.01-0.29,2.09-0.43,3.24-0.43h9.4c0,3.7,0,7.83,0,12.43v5.56H755.09z"/>
		</g>
		<g>
			<path d="M512.71,77.63c-0.82,0-1.63,0-2.41,0c-1.34,0-2.49,0.14-3.44,0.43s-1.67,0.78-2.17,1.48
				c-0.5,0.7-0.74,1.66-0.74,2.9c0,0.72,0.1,1.38,0.31,1.96c0.21,0.59,0.53,1.09,0.97,1.52c0.43,0.41,0.98,0.73,1.63,0.96l-1.2,2.01
				c-0.3,0.49-0.62,1.02-0.96,1.59c-0.34,0.57-0.67,1.13-1,1.67c-0.32,0.54-0.61,1.02-0.84,1.43h5.08c0.34-0.6,0.65-1.17,0.96-1.71
				c0.3-0.54,0.6-1.08,0.9-1.6l1.33-2.43h1.25v0.58c0,1.01,0,1.91,0,2.7c0,0.79,0,1.61,0,2.45h4.53c0-0.84,0-1.66,0-2.45
				c0-0.79,0-1.69,0-2.7v-5.45c0-1.05,0-1.99,0-2.81s0-1.67,0-2.53c-0.51,0-1.13,0-1.87,0C514.31,77.63,513.53,77.63,512.71,77.63z
				M510.69,84.87c-0.6,0-1.09-0.13-1.45-0.4c-0.36-0.26-0.54-0.77-0.54-1.53c0-0.34,0.05-0.63,0.14-0.86
				c0.09-0.23,0.22-0.41,0.38-0.55c0.16-0.14,0.34-0.24,0.55-0.3c0.21-0.06,0.43-0.09,0.67-0.09h1.94c0,0.77,0,1.62,0,2.57v1.15
				H510.69z"/>
			<path d="M519.51,80.17c0,0.82,0,1.76,0,2.81v5.45c0,1.01,0,1.91,0,2.7c0,0.79,0,1.61,0,2.45h4.62
				c0-0.84,0-1.66,0-2.45c0-0.79,0-1.69,0-2.7v-4.71c0-0.84,0-1.58,0-2.27h4.86c0,0.69,0,1.43,0,2.27v4.71c0,1.01,0,1.91,0,2.7
				c0,0.79,0,1.61,0,2.45h4.62c0-0.84,0-1.66,0-2.45c0-0.79,0-1.69,0-2.7v-5.45c0-1.05,0-1.99,0-2.81s0-1.67,0-2.53h-14.1
				C519.51,78.5,519.51,79.34,519.51,80.17z"/>
			<path d="M550.32,79.72c-0.69-0.76-1.57-1.36-2.63-1.79c-1.06-0.43-2.31-0.65-3.75-0.65c-1.89,0-3.46,0.37-4.69,1.12
				c-1.23,0.75-2.15,1.75-2.76,3.01c-0.61,1.26-0.91,2.67-0.91,4.22c0,1.09,0.16,2.13,0.49,3.12c0.33,0.99,0.83,1.88,1.52,2.66
				c0.68,0.78,1.56,1.39,2.63,1.83c1.07,0.44,2.35,0.67,3.84,0.67c1.83,0,3.36-0.36,4.6-1.08c1.24-0.72,2.17-1.7,2.8-2.95
				c0.63-1.25,0.94-2.67,0.94-4.27c0-1.15-0.17-2.23-0.51-3.23C551.53,81.37,551.01,80.48,550.32,79.72z M547.35,87.36
				c-0.15,0.55-0.38,1.03-0.69,1.45c-0.31,0.42-0.68,0.75-1.12,0.99c-0.44,0.24-0.95,0.36-1.54,0.36c-0.59,0-1.11-0.12-1.56-0.36
				c-0.45-0.24-0.83-0.57-1.13-0.99c-0.3-0.42-0.53-0.91-0.69-1.45c-0.16-0.55-0.23-1.13-0.23-1.75c0-0.63,0.08-1.22,0.25-1.77
				c0.16-0.56,0.4-1.04,0.71-1.46c0.31-0.42,0.68-0.74,1.13-0.98c0.45-0.23,0.96-0.35,1.53-0.35c0.55,0,1.05,0.12,1.49,0.35
				c0.44,0.23,0.81,0.55,1.12,0.97c0.31,0.41,0.55,0.9,0.72,1.45c0.17,0.56,0.25,1.15,0.25,1.79
				C547.58,86.22,547.5,86.81,547.35,87.36z"/>
			<path d="M563.95,80.17c0,0.82,0,1.76,0,2.81v0.68h-4.97v-0.68c0-1.05,0-1.99,0-2.81s0-1.67,0-2.53h-4.62
				c0,0.86,0,1.71,0,2.53s0,1.76,0,2.81v5.45c0,1.01,0,1.91,0,2.7c0,0.79,0,1.61,0,2.45h4.62c0-0.84,0-1.66,0-2.45
				c0-0.79,0-1.69,0-2.7v-0.95h4.97v0.95c0,1.01,0,1.91,0,2.7c0,0.79,0,1.61,0,2.45h4.62c0-0.84,0-1.66,0-2.45c0-0.79,0-1.69,0-2.7
				v-5.45c0-1.05,0-1.99,0-2.81s0-1.67,0-2.53h-4.62C563.95,78.5,563.95,79.34,563.95,80.17z"/>
			<path d="M577.3,81.66c0.6-0.33,1.29-0.5,2.06-0.5c0.42,0,0.86,0.05,1.34,0.16c0.48,0.1,0.98,0.27,1.52,0.5
				c0.53,0.23,1.09,0.53,1.67,0.9l0.32-4.25c-0.32-0.17-0.69-0.33-1.1-0.46c-0.41-0.14-0.85-0.26-1.32-0.37
				c-0.47-0.11-0.96-0.19-1.46-0.26s-1.01-0.1-1.52-0.1c-1.77,0-3.28,0.36-4.51,1.09c-1.23,0.73-2.17,1.72-2.81,2.98
				c-0.64,1.26-0.96,2.69-0.96,4.28c0,1.26,0.2,2.4,0.59,3.41s0.97,1.88,1.71,2.61c0.75,0.72,1.64,1.28,2.7,1.67
				c1.06,0.39,2.24,0.58,3.55,0.58c0.46,0,0.92-0.02,1.39-0.06c0.46-0.04,0.91-0.1,1.35-0.17s0.85-0.18,1.25-0.31
				c0.4-0.13,0.75-0.27,1.07-0.44l-0.22-4.19c-0.37,0.27-0.73,0.5-1.08,0.68c-0.35,0.19-0.71,0.33-1.06,0.44
				c-0.35,0.1-0.7,0.18-1.04,0.23c-0.34,0.05-0.68,0.07-1.01,0.07c-0.75,0-1.39-0.12-1.94-0.36c-0.55-0.24-1.01-0.57-1.37-0.99
				c-0.36-0.42-0.63-0.9-0.81-1.45c-0.18-0.55-0.27-1.12-0.27-1.73c0-0.98,0.18-1.81,0.53-2.47C576.22,82.49,576.69,82,577.3,81.66z"
				/>
			<path d="M598.38,89.74c-0.45-0.72-0.87-1.38-1.26-1.99l-1.81-2.88l1.65-2.29c0.6-0.83,1.2-1.66,1.79-2.48
				c0.59-0.82,1.19-1.64,1.81-2.48h-5.23c-0.45,0.73-0.85,1.37-1.2,1.91c-0.35,0.54-0.69,1.09-1.05,1.63l-1.46,2.3h-0.6v-0.5
				c0-1.05,0-1.99,0-2.81s0-1.67,0-2.53h-4.6c0,0.86,0,1.71,0,2.53s0,1.76,0,2.81v5.45c0,1.01,0,1.91,0,2.7c0,0.79,0,1.61,0,2.45h4.6
				c0-0.84,0-1.66,0-2.45c0-0.79,0-1.69,0-2.7v-1.36h0.67l1.59,2.85c0.31,0.58,0.63,1.17,0.97,1.77c0.33,0.6,0.68,1.23,1.05,1.9h5.5
				c-0.31-0.5-0.67-1.08-1.1-1.76C599.26,91.15,598.82,90.46,598.38,89.74z"/>
			<path d="M615.54,79.72c-0.69-0.76-1.57-1.36-2.63-1.79c-1.06-0.43-2.31-0.65-3.75-0.65c-1.89,0-3.46,0.37-4.69,1.12
				c-1.23,0.75-2.15,1.75-2.76,3.01c-0.61,1.26-0.91,2.67-0.91,4.22c0,1.09,0.16,2.13,0.49,3.12c0.33,0.99,0.83,1.88,1.52,2.66
				c0.68,0.78,1.56,1.39,2.63,1.83c1.07,0.44,2.35,0.67,3.84,0.67c1.83,0,3.36-0.36,4.6-1.08c1.24-0.72,2.17-1.7,2.8-2.95
				c0.63-1.25,0.94-2.67,0.94-4.27c0-1.15-0.17-2.23-0.51-3.23C616.75,81.37,616.23,80.48,615.54,79.72z M612.57,87.36
				c-0.15,0.55-0.38,1.03-0.69,1.45c-0.31,0.42-0.68,0.75-1.12,0.99c-0.44,0.24-0.95,0.36-1.54,0.36s-1.11-0.12-1.56-0.36
				c-0.45-0.24-0.83-0.57-1.13-0.99c-0.3-0.42-0.53-0.91-0.69-1.45c-0.16-0.55-0.23-1.13-0.23-1.75c0-0.63,0.08-1.22,0.25-1.77
				c0.16-0.56,0.4-1.04,0.7-1.46c0.31-0.42,0.68-0.74,1.13-0.98c0.45-0.23,0.96-0.35,1.53-0.35c0.55,0,1.05,0.12,1.49,0.35
				c0.44,0.23,0.81,0.55,1.12,0.97c0.31,0.41,0.55,0.9,0.72,1.45c0.17,0.56,0.25,1.15,0.25,1.79
				C612.8,86.22,612.72,86.81,612.57,87.36z"/>
			<path d="M626.12,89.9h-2.02c0-0.68,0-1.41,0-2.23v-0.44h1.74c0.92,0,1.73,0,2.4,0s1.35,0,2.01,0v-3.34
				c-0.63,0-1.29,0-1.97,0c-0.68,0-1.49,0-2.44,0h-1.76v-0.18c0-0.89,0-1.68,0-2.4h1.71c1.01,0,1.9,0,2.64,0c0.75,0,1.45,0,2.11,0
				v-3.68h-10.98c0,0.86,0,1.71,0,2.53s0,1.76,0,2.8v5.46c0,1.01,0,1.91,0,2.7c0,0.79,0,1.61,0,2.45h11.1V89.9c-0.69,0-1.41,0-2.16,0
				C627.77,89.9,626.97,89.9,626.12,89.9z"/>
			<path d="M639.43,80.63c-0.05,1.02-0.1,2.01-0.15,2.96c-0.07,1.42-0.19,2.6-0.35,3.53c-0.16,0.93-0.39,1.62-0.69,2.07
				c-0.3,0.45-0.7,0.68-1.19,0.68c-0.08,0-0.18-0.01-0.29-0.02c-0.11-0.01-0.25-0.03-0.41-0.05l-0.17,3.79
				c0.19,0.04,0.39,0.09,0.61,0.13c0.22,0.04,0.47,0.07,0.73,0.1c0.26,0.02,0.54,0.03,0.84,0.03c1.08,0,1.94-0.18,2.57-0.54
				c0.63-0.36,1.1-0.89,1.43-1.61c0.32-0.72,0.55-1.6,0.69-2.66s0.26-2.28,0.35-3.67c0.08-1.21,0.17-2.37,0.25-3.47
				c0.01-0.15,0.02-0.31,0.03-0.46h3.37c0,0.69,0,1.43,0,2.27v4.71c0,1.01,0,1.91,0,2.7c0,0.79,0,1.61,0,2.45h4.63
				c0-0.84,0-1.66,0-2.45c0-0.79,0-1.69,0-2.7v-5.45c0-1.05,0-1.99,0-2.81s0-1.67,0-2.53h-12.1
				C639.54,78.61,639.49,79.61,639.43,80.63z"/>
			<path d="M667.39,88.19l-1.68-5.48c-0.3-0.96-0.57-1.84-0.81-2.63c-0.24-0.79-0.49-1.61-0.76-2.45h-5.89
				c-0.25,0.81-0.49,1.6-0.74,2.39c-0.25,0.79-0.52,1.68-0.83,2.68L655,88.19c-0.27,0.84-0.55,1.74-0.84,2.69
				c-0.29,0.95-0.57,1.85-0.83,2.7h4.61c0.2-0.79,0.41-1.61,0.63-2.47c0.04-0.17,0.08-0.32,0.12-0.48h4.89
				c0.04,0.16,0.08,0.32,0.12,0.49c0.2,0.84,0.4,1.66,0.6,2.46h4.76c-0.26-0.85-0.53-1.74-0.82-2.67
				C667.95,89.97,667.67,89.07,667.39,88.19z M661.32,81.48l1.41,5.74h-3.18l1.45-5.74H661.32z"/>
			<path d="M682.64,89.74c-0.45-0.72-0.87-1.38-1.26-1.99l-1.81-2.88l1.65-2.29c0.6-0.83,1.2-1.66,1.79-2.48
				c0.59-0.82,1.19-1.64,1.81-2.48h-5.23c-0.45,0.73-0.85,1.37-1.2,1.91c-0.35,0.54-0.69,1.09-1.05,1.63l-1.46,2.3h-0.6v-0.5
				c0-1.05,0-1.99,0-2.81s0-1.67,0-2.53h-4.6c0,0.86,0,1.71,0,2.53s0,1.76,0,2.81v5.45c0,1.01,0,1.91,0,2.7c0,0.79,0,1.61,0,2.45h4.6
				c0-0.84,0-1.66,0-2.45c0-0.79,0-1.69,0-2.7v-1.36h0.67l1.59,2.85c0.31,0.58,0.63,1.17,0.97,1.77c0.33,0.6,0.68,1.23,1.05,1.9h5.5
				c-0.31-0.5-0.67-1.08-1.1-1.76C683.52,91.15,683.09,90.46,682.64,89.74z"/>
			<path d="M699.8,79.72c-0.69-0.76-1.57-1.36-2.63-1.79c-1.06-0.43-2.31-0.65-3.75-0.65c-1.89,0-3.46,0.37-4.69,1.12
				c-1.23,0.75-2.15,1.75-2.76,3.01c-0.61,1.26-0.91,2.67-0.91,4.22c0,1.09,0.16,2.13,0.49,3.12c0.33,0.99,0.83,1.88,1.52,2.66
				c0.68,0.78,1.56,1.39,2.63,1.83c1.07,0.44,2.35,0.67,3.84,0.67c1.83,0,3.36-0.36,4.6-1.08c1.24-0.72,2.17-1.7,2.8-2.95
				c0.63-1.25,0.94-2.67,0.94-4.27c0-1.15-0.17-2.23-0.51-3.23C701.01,81.37,700.5,80.48,699.8,79.72z M696.84,87.36
				c-0.15,0.55-0.38,1.03-0.69,1.45c-0.31,0.42-0.68,0.75-1.12,0.99c-0.44,0.24-0.95,0.36-1.54,0.36c-0.59,0-1.11-0.12-1.56-0.36
				c-0.45-0.24-0.83-0.57-1.13-0.99c-0.3-0.42-0.53-0.91-0.69-1.45c-0.16-0.55-0.23-1.13-0.23-1.75c0-0.63,0.08-1.22,0.25-1.77
				c0.16-0.56,0.4-1.04,0.7-1.46c0.31-0.42,0.68-0.74,1.13-0.98c0.45-0.23,0.96-0.35,1.53-0.35c0.55,0,1.05,0.12,1.49,0.35
				c0.44,0.23,0.81,0.55,1.12,0.97c0.31,0.41,0.55,0.9,0.72,1.45c0.17,0.56,0.25,1.15,0.25,1.79
				C697.06,86.22,696.99,86.81,696.84,87.36z"/>
			<path d="M722.25,88.43l-0.7-5.4c-0.13-0.98-0.25-1.91-0.36-2.77c-0.11-0.86-0.23-1.74-0.35-2.63h-4.58
				c-0.29,0.83-0.56,1.58-0.8,2.27c-0.24,0.69-0.49,1.38-0.74,2.08l-1.46,4.13h-0.29l-1.57-4.14c-0.26-0.69-0.52-1.39-0.79-2.1
				c-0.26-0.7-0.55-1.45-0.84-2.24h-4.65c-0.12,0.89-0.23,1.78-0.34,2.64c-0.1,0.87-0.22,1.78-0.34,2.74l-0.68,5.39
				c-0.12,0.97-0.23,1.87-0.33,2.7c-0.1,0.83-0.2,1.65-0.31,2.47h4.26c0.12-0.95,0.23-1.85,0.33-2.72c0.11-0.86,0.2-1.68,0.29-2.44
				l0.39-3.19h0.3l1.23,3.46c0.2,0.54,0.4,1.1,0.6,1.66c0.2,0.56,0.39,1.12,0.59,1.67c0.19,0.55,0.38,1.07,0.56,1.56h3.03
				c0.22-0.75,0.46-1.53,0.71-2.36c0.25-0.83,0.5-1.67,0.76-2.53l1.03-3.46h0.3l0.4,3.22c0.09,0.75,0.19,1.56,0.3,2.41
				c0.11,0.85,0.22,1.76,0.33,2.71h4.38c-0.1-0.83-0.21-1.65-0.32-2.47C722.48,90.3,722.37,89.4,722.25,88.43z"/>
			<path d="M730.91,81.66c0.6-0.33,1.29-0.5,2.06-0.5c0.42,0,0.86,0.05,1.34,0.16c0.48,0.1,0.98,0.27,1.52,0.5
				c0.53,0.23,1.09,0.53,1.67,0.9l0.32-4.25c-0.32-0.17-0.69-0.33-1.1-0.46c-0.41-0.14-0.85-0.26-1.32-0.37
				c-0.47-0.11-0.96-0.19-1.46-0.26s-1.01-0.1-1.52-0.1c-1.77,0-3.28,0.36-4.51,1.09s-2.17,1.72-2.81,2.98
				c-0.64,1.26-0.96,2.69-0.96,4.28c0,1.26,0.2,2.4,0.59,3.41s0.97,1.88,1.71,2.61c0.75,0.72,1.64,1.28,2.7,1.67
				c1.06,0.39,2.24,0.58,3.55,0.58c0.46,0,0.92-0.02,1.39-0.06c0.46-0.04,0.91-0.1,1.35-0.17s0.85-0.18,1.25-0.31
				c0.39-0.13,0.75-0.27,1.07-0.44l-0.22-4.19c-0.37,0.27-0.73,0.5-1.08,0.68c-0.35,0.19-0.71,0.33-1.06,0.44
				c-0.35,0.1-0.7,0.18-1.04,0.23c-0.34,0.05-0.68,0.07-1.01,0.07c-0.75,0-1.39-0.12-1.94-0.36c-0.55-0.24-1.01-0.57-1.37-0.99
				c-0.36-0.42-0.63-0.9-0.81-1.45c-0.18-0.55-0.27-1.12-0.27-1.73c0-0.98,0.18-1.81,0.53-2.47C729.83,82.49,730.31,82,730.91,81.66z
				"/>
			<path d="M739.24,81.62c0.56,0,1.15,0,1.77,0c0.62,0,1.34,0,2.15,0h0.51c0,0.64,0,1.33,0,2.09v4.71
				c0,1.01,0,1.91,0,2.7c0,0.79,0,1.61,0,2.45h4.6c0-0.84,0-1.66,0-2.45c0-0.79,0-1.69,0-2.7v-4.71c0-0.76,0-1.45,0-2.09h0.51
				c0.81,0,1.53,0,2.15,0c0.62,0,1.21,0,1.77,0v-3.99h-13.47V81.62z"/>
			<path d="M766.13,85.92c-0.5-0.31-1.09-0.54-1.77-0.69V84.9c0.56-0.13,1.06-0.35,1.51-0.67
				c0.45-0.32,0.8-0.73,1.06-1.22c0.26-0.5,0.39-1.09,0.39-1.77c0-0.54-0.09-1.03-0.28-1.46c-0.19-0.44-0.51-0.82-0.96-1.14
				c-0.45-0.32-1.06-0.57-1.84-0.74c-0.78-0.18-1.76-0.26-2.94-0.26c-1.19,0-2.39,0-3.59,0c-1.2,0-2.27,0-3.2,0c0,0.86,0,1.71,0,2.53
				s0,1.76,0,2.8v5.46c0,1.01,0,1.91,0,2.7c0,0.79,0,1.61,0,2.45c0.48,0,1.03,0,1.63,0c0.6,0,1.27,0,1.99,0c0.72,0,1.5,0,2.34,0
				c1.43,0,2.61-0.11,3.54-0.32c0.93-0.21,1.66-0.52,2.19-0.91c0.53-0.4,0.9-0.87,1.12-1.43c0.22-0.56,0.32-1.18,0.32-1.86
				c0-0.77-0.13-1.41-0.39-1.92C767,86.63,766.62,86.22,766.13,85.92z M759.04,82.26c0-0.49,0-0.96,0-1.41h1.9
				c0.56,0,0.97,0.14,1.24,0.43c0.26,0.28,0.4,0.68,0.4,1.19c0,0.34-0.07,0.64-0.21,0.88s-0.34,0.43-0.61,0.56
				c-0.27,0.13-0.6,0.2-0.99,0.2h-1.72v-0.12C759.04,83.31,759.04,82.74,759.04,82.26z M762.66,89.59c-0.15,0.25-0.37,0.43-0.66,0.55
				c-0.29,0.12-0.66,0.18-1.09,0.18h-1.87c0-0.42,0-0.86,0-1.31c0-0.45,0-0.97,0-1.58v-0.38h1.97c0.62,0,1.08,0.14,1.4,0.41
				c0.31,0.28,0.47,0.68,0.47,1.21C762.88,89.03,762.81,89.34,762.66,89.59z"/>
			<path d="M785.23,82.37c-0.34-1.01-0.86-1.89-1.55-2.65c-0.69-0.76-1.57-1.36-2.63-1.79s-2.31-0.65-3.75-0.65
				c-1.89,0-3.46,0.37-4.69,1.12c-1.23,0.75-2.15,1.75-2.76,3.01c-0.61,1.26-0.91,2.67-0.91,4.22c0,1.09,0.16,2.13,0.49,3.12
				c0.33,0.99,0.83,1.88,1.52,2.66c0.68,0.78,1.56,1.39,2.63,1.83c1.07,0.44,2.35,0.67,3.84,0.67c1.83,0,3.36-0.36,4.6-1.08
				c1.24-0.72,2.17-1.7,2.8-2.95c0.63-1.25,0.94-2.67,0.94-4.27C785.75,84.46,785.57,83.38,785.23,82.37z M780.71,87.36
				c-0.15,0.55-0.38,1.03-0.69,1.45c-0.31,0.42-0.68,0.75-1.12,0.99c-0.44,0.24-0.95,0.36-1.54,0.36c-0.59,0-1.11-0.12-1.56-0.36
				c-0.45-0.24-0.83-0.57-1.13-0.99c-0.3-0.42-0.53-0.91-0.69-1.45c-0.16-0.55-0.23-1.13-0.23-1.75c0-0.63,0.08-1.22,0.25-1.77
				c0.16-0.56,0.4-1.04,0.7-1.46c0.31-0.42,0.68-0.74,1.13-0.98c0.45-0.23,0.96-0.35,1.53-0.35c0.55,0,1.05,0.12,1.49,0.35
				c0.44,0.23,0.81,0.55,1.12,0.97c0.31,0.41,0.55,0.9,0.72,1.45c0.17,0.56,0.25,1.15,0.25,1.79
				C780.94,86.22,780.86,86.81,780.71,87.36z"/>
		</g>
	</g>
</g>
</svg>