<?xml version="1.0" encoding="utf-8"?>
<svg xmlns="http://www.w3.org/2000/svg" xmlns:xlink="http://www.w3.org/1999/xlink"
	viewBox="0 0 600 600">
<style type="text/css">
	.st0{fill:#FFFFFF;}
	.st1{fill:#F34560;}
	.st2{fill:#C91E31;}
	.st3{fill:#FFB9B5;}
	.st4{fill:#FF8E8E;}
	.st5{fill:#000B1F;}
	.st6{fill:#72B6D3;}
	.st7{fill:#002A48;}

	.shw{fill:#2C191C;transform: scale(103%);transform-origin: 50% 50%;filter:blur(3px);opacity:0.13;}

	.sticker-draft,.sticker{transition:all .5s cubic-bezier(0.75, 0.35, 0.4, 0.99);}
	.sticker{overflow:visible;opacity:1;}
	.sticker-draft{overflow:visible;opacity:0;}

	.main:hover{
		.sticker{opacity:0;}
		.sticker-draft{opacity:1;}
	}
</style>

<g class="main">
<g>
	<g>
		<path class="shw" d="M554.23,242.17c6.61-23.68-10.19-59.36-36.15-36.99c-5.2-14.45-25.64-20.29-35.94-7.69
			c-5.98-24.68-41.89-31.16-46.33-2.58c-0.21-0.27-0.42-0.53-0.62-0.79c3.93-44.82-25.85-58.76-64.23-66.65
			c-24.26-21.3-58.24-31.21-90.38-27.95c0.64-0.79,1.25-1.71,1.79-2.78c-0.61-2.86-1.19-5.51-1.96-8.94
			c14.62-8.09,11.5-31.52-6.6-31.05c-10.55-0.57-22.79,7.52-23.61,17.9c-7.24-4.1-18.54,0.88-22.15,7.58
			c-9.22-17.14-38.22-0.97-35.8,15.68c-5.22-0.44-9.53,3.92-13.62,6.11c-2.98,1.7-4.49,4.42-3.13,9.7
			c-5.5,1.98-13.14,7.65-16.83,12.79c-8.04-20.34-37.6-1.28-26.76,15.74c-3.3-0.08-10.54,6.25-10.79,11.72
			c-2.19-1.55-4.74-2.42-7.42-2.42h0c-10.3-0.73-22.14,16.77-12.07,26.97c-3.77,1.37-4.95,5.81-4.14,9.39
			c-13.28,2.92-7.92,18.66,5.18,14.42c1.03,2.82,2.02,5.55,3.33,7.94c7.79,4.71,14.92-1.61,12.04-10c2.5-0.78,4.99-2.03,6.23-4.53
			c0.57,0.41,1.6,1.15,2.13,1.53c15.63-0.97,11.55-12.73-0.69-19.4c2.06-3.77,2.65-7.67,2.32-11.18c1.45,1.28,3.13,2.7,3.99,3.9
			c2.67,2.88,5.86,3.25,8.46,2.2c-0.1,6.49,3.12,13.55,8.94,17.56c-26.43,1.27-30.27,56.79-1.94,39.05
			c11.15-6.98,9.97,0.92-0.12,3.49c0.04-0.01,0.07-0.01,0.11-0.02c-21.52,7.85-45.29,19.28-54,42.02
			c-10.81,33.88,31.01,55.99,59.98,49.05c-3.45,8.33-11.76,14.82-12.75,23.98c1.29,16.2,22.38,12.51,33.32,9.54
			c-6.05,31.96-16.55,34.49-14.73,71.76c-12.12,38.45-18.31,49.69,2.54,88.27c11.22,31.04,32.28,39.63,71.67,19.62
			c37.55-0.7,258.73-50.62,265.72-50.64c11.9-0.1,15.33-14.62,6.84-21.99c26.9-4.03,26.76-23.38,35.34-44.25
			C568.58,379.31,546.98,293.48,554.23,242.17z M144.61,162.32c-0.49-0.97-1.21-1.92-2.22-2.82c0.75-1.28,1.23-2.57,1.51-3.82
			c1.68,1.75,2.99,3.12,4.09,4.25C146.69,160.57,145.56,161.38,144.61,162.32z M211.3,135.47c-12.48,2.92-29.82,14.33-47.8,20.22
			c-1.18-3.23-3.89-6.8-7.82-9.88c2.63-3.29,3.94-7.03,4.25-10.63c7.98,6.74,16.22-4.75,22.38-8.72c0.41,0.73,1.42,2.84,1.8,3.62
			c5.69,1.16,11.75-0.94,12.04-6c3.79,1.66,7.86-0.4,10.31-5.05c-0.34-2.68-0.33-3.59-2.06-7.23c2.32,0.43,4.68,0.34,7.06-0.15
			c3.48,9.79,13.73,13.63,17.29,0.78c-1.26-2.64-2.45-5.07-4.01-8.23c2.29-2.36,3.93-4.95,4.9-7.62c2.08,2.01,5.08,3.18,8.43,3.13
			c3.7,9.84,17.72,3.91,14.4-5.58c1.79-1.67,2.91-3.53,3.51-5.39c2.62,1.91,5.97,3.05,9.76,3.19c0.55,4.32,2.07,7.41,4.04,9.21
			C247.32,105.58,226.44,116.81,211.3,135.47z"/>
		<path class="shw" d="M100.19,425.16c2.5-3.18,5.08-6.91,5.29-11.18c-2.18-6.89-6.81-8.03-10.96-5.74
			c-0.2-5.54-5.69-8.12-10.73-6.59c-0.74-1.29-1.61-2.35-2.55-3.22c4.98-1.25,8.73-2.21,12.57-3.2
			c10.12-13.4-4.32-16.55-15.34-11.91c-1.53-3.88-4.09-6.87-7.08-8.94c1.97-0.29,3.91-0.66,5.55-0.57c11-0.56,9.5-16.75-1.87-15.07
			c-0.71-1.98-1.77-3.61-3.04-4.88c5.9-5.51,1.75-15.01,2.06-21.81c4.25,0.38,6.8,0.59,10.13,0.87c3.41-2.05,5.9-5.99,4.83-9.84
			c-2.73-9.09-20.98-5.48-29.67-7.67c-0.09-1.83-0.16-4.03-0.2-6.01c8.59,0.79,20.94,1.58,27.16,1.54
			c5.71-3.18,6.04-10.75,0.9-14.66c-2.95-0.21-5.34-0.38-9.64-0.7c0.33-0.47,0.64-0.97,0.93-1.51c10.1,1.35,12.38-13.2,1.98-15.32
			c-0.68-2.6-1.9-4.42-3.03-5.63c2.95-1.4,5.5-3.81,7.44-7.08c10.42,4.27,19.05-1.88,12.17-12.3c-2.8-0.83-5.41-1.58-8.79-2.54
			c-0.21-3.28-1.04-6.24-2.37-8.74c2.98-0.2,5.73-1.65,7.95-4.17c9.37,3.69,15.21-9.94,5.49-14.44
			c-3.43-23.04-31.26-9.73-25.21,10.17c-18.75-4.69-26.71,28.17-11.83,37.45c-6.92,4.38-8.07,15.88-4.21,22.7
			c-10.21-1.73-14.58,3.22-13.69,14.97c-0.04,12.7-1.09,21.36,15.25,21.51c-1.46,5.5-0.84,14.48,0.91,20.43
			c-7.3,2.35-9.59,12.99-3.37,20.49c-16.14,3.6-10.71,32.03,6.35,30.7c-1.94,5.07,1.07,13.97,6.82,16.25
			c-11.74-1.17-13.64,16.18,4.96,16.85c-3.2,4.4-7.07,6.41-7.15,11.14c-0.42,2.72,3.13,7.8,7.03,7.3c5.68,0.31,11.2-7.44,16.44-15.2
			c5.98,1.28,12.13,4.1,17.42,2.62C118.48,432.71,109.97,426.28,100.19,425.16z M84.12,422.02c-3.62-0.76-7-1.8-11.54-2.89
			c0.76,0.15,1.55,0.24,2.37,0.24c4.53,0.08,9.06-2.47,13.11-3.18C86.87,417.97,85.06,420.9,84.12,422.02z"/>
		<path class="shw" d="M318.64,90.42c1.99,3.52,4.45,7.33,8.32,9.16c6.6,0.64,10.14-2.87,9.48-7.94c5.23,1.76,9.5-1.74,10.19-7.43
			c1.46-0.19,2.77-0.58,3.94-1.11c-0.73,5.07-1.27,8.91-1.81,12.84c9.16,14.91,16.89,1.58,16.84-9.69
			c4.15,0.05,7.94-1.18,10.96-3.17c-0.46,1.88-0.93,4.04-1.58,5.38c-3.61,10.35,11.85,15.19,14.66,3.98c1.98,0.1,4-0.26,5.69-0.96
			c2.87,7.54,13.22,7.29,19.41,10.13c-1,1.95-2.58,5.01-3.57,6.95c-2.59,5.05,2.55,10.37,7.21,10.36
			c8.74-0.64,12.05-17.36,17.32-24.64c1.73,0.61,3.78,1.37,5.63,2.08c-3.5,6.86-6.82,13.43-9.32,19.15
			c-2.63,5.76-0.62,16.97,10.87,11.79c2.53-1.61,2.35-4.75,4.3-8.68c0.32,0.49,0.66,0.98,1.05,1.45
			c-5.31,9.04,8.11,16.24,13.42,7.64c2.13,0.31,4.42,0.07,6.36-0.68c0.17,3.26,1.45,6.54,3.73,9.57c-7.54,7.45-6,18.37,6.76,15.94
			c1.84-2.28,3.52-4.41,5.69-7.17c3.05,1.01,5.96,1.43,8.97,1.15c-0.62,1.91-1.06,5.11,0.83,8.94c-7.29,7.59,4.16,17.66,11.27,10.57
			c14.19,5.85,23.12-14.65,10.21-22.56c-2.77-2.83-6.29-4.44-10.04-4.62c11.28-16.38-16-35.12-30.14-25.21
			c-0.85-7.25-11.72-13.76-19.45-12.47c7.92-12.43-2.71-16.3-13.4-20.17c-10.09-4.06-14.26-5.67-20.98,7.8
			c-4.59-3.41-13.01-6.22-19.23-6.86c1.28-6.64-9.08-14.25-17.66-10.88c3.04-15.29-24.86-22.78-30.8-5.76
			c-1.57-1.37-9.97-8.26-17.6,0.1c5.66-6.2-9.74-18.75-17.48-1.8c-3.72-8.03-6.92-14.19-14.56-10.29
			c-7.39,5.6,0.32,16.38,5.34,24.14c-3.68,5.08-8.88,10.78-9.06,15.11C305.04,104.73,313.85,98.78,318.64,90.42z M335.06,66.69
			c-2.51,3.5-2.8,8.33-2.99,11.47c-0.11,1.71-0.19,3.35-0.51,4.46c-1.19-1.77-3.22-4.57-3.89-5.87
			C329.83,73.52,332.18,70.88,335.06,66.69z"/>
	</g>
	<g>
		<path class="st0" d="M554.23,242.17c6.61-23.68-10.19-59.36-36.15-36.99c-5.2-14.45-25.64-20.29-35.94-7.69
			c-5.98-24.68-41.89-31.16-46.33-2.58c-0.21-0.27-0.42-0.53-0.62-0.79c3.93-44.82-25.85-58.76-64.23-66.65
			c-24.26-21.3-58.24-31.21-90.38-27.95c0.64-0.79,1.25-1.71,1.79-2.78c-0.61-2.86-1.19-5.51-1.96-8.94
			c14.62-8.09,11.5-31.52-6.6-31.05c-10.55-0.57-22.79,7.52-23.61,17.9c-7.24-4.1-18.54,0.88-22.15,7.58
			c-9.22-17.14-38.22-0.97-35.8,15.68c-5.22-0.44-9.53,3.92-13.62,6.11c-2.98,1.7-4.49,4.42-3.13,9.7
			c-5.5,1.98-13.14,7.65-16.83,12.79c-8.04-20.34-37.6-1.28-26.76,15.74c-3.3-0.08-10.54,6.25-10.79,11.72
			c-2.19-1.55-4.74-2.42-7.42-2.42h0c-10.3-0.73-22.14,16.77-12.07,26.97c-3.77,1.37-4.95,5.81-4.14,9.39
			c-13.28,2.92-7.92,18.66,5.18,14.42c1.03,2.82,2.02,5.55,3.33,7.94c7.79,4.71,14.92-1.61,12.04-10c2.5-0.78,4.99-2.03,6.23-4.53
			c0.57,0.41,1.6,1.15,2.13,1.53c15.63-0.97,11.55-12.73-0.69-19.4c2.06-3.77,2.65-7.67,2.32-11.18c1.45,1.28,3.13,2.7,3.99,3.9
			c2.67,2.88,5.86,3.25,8.46,2.2c-0.1,6.49,3.12,13.55,8.94,17.56c-26.43,1.27-30.27,56.79-1.94,39.05
			c11.15-6.98,9.97,0.92-0.12,3.49c0.04-0.01,0.07-0.01,0.11-0.02c-21.52,7.85-45.29,19.28-54,42.02
			c-10.81,33.88,31.01,55.99,59.98,49.05c-3.45,8.33-11.76,14.82-12.75,23.98c1.29,16.2,22.38,12.51,33.32,9.54
			c-6.05,31.96-16.55,34.49-14.73,71.76c-12.12,38.45-18.31,49.69,2.54,88.27c11.22,31.04,32.28,39.63,71.67,19.62
			c37.55-0.7,258.73-50.62,265.72-50.64c11.9-0.1,15.33-14.62,6.84-21.99c26.9-4.03,26.76-23.38,35.34-44.25
			C568.58,379.31,546.98,293.48,554.23,242.17z M144.61,162.32c-0.49-0.97-1.21-1.92-2.22-2.82c0.75-1.28,1.23-2.57,1.51-3.82
			c1.68,1.75,2.99,3.12,4.09,4.25C146.69,160.57,145.56,161.38,144.61,162.32z M211.3,135.47c-12.48,2.92-29.82,14.33-47.8,20.22
			c-1.18-3.23-3.89-6.8-7.82-9.88c2.63-3.29,3.94-7.03,4.25-10.63c7.98,6.74,16.22-4.75,22.38-8.72c0.41,0.73,1.42,2.84,1.8,3.62
			c5.69,1.16,11.75-0.94,12.04-6c3.79,1.66,7.86-0.4,10.31-5.05c-0.34-2.68-0.33-3.59-2.06-7.23c2.32,0.43,4.68,0.34,7.06-0.15
			c3.48,9.79,13.73,13.63,17.29,0.78c-1.26-2.64-2.45-5.07-4.01-8.23c2.29-2.36,3.93-4.95,4.9-7.62c2.08,2.01,5.08,3.18,8.43,3.13
			c3.7,9.84,17.72,3.91,14.4-5.58c1.79-1.67,2.91-3.53,3.51-5.39c2.62,1.91,5.97,3.05,9.76,3.19c0.55,4.32,2.07,7.41,4.04,9.21
			C247.32,105.58,226.44,116.81,211.3,135.47z"/>
		<path class="st0" d="M100.19,425.16c2.5-3.18,5.08-6.91,5.29-11.18c-2.18-6.89-6.81-8.03-10.96-5.74
			c-0.2-5.54-5.69-8.12-10.73-6.59c-0.74-1.29-1.61-2.35-2.55-3.22c4.98-1.25,8.73-2.21,12.57-3.2
			c10.12-13.4-4.32-16.55-15.34-11.91c-1.53-3.88-4.09-6.87-7.08-8.94c1.97-0.29,3.91-0.66,5.55-0.57c11-0.56,9.5-16.75-1.87-15.07
			c-0.71-1.98-1.77-3.61-3.04-4.88c5.9-5.51,1.75-15.01,2.06-21.81c4.25,0.38,6.8,0.59,10.13,0.87c3.41-2.05,5.9-5.99,4.83-9.84
			c-2.73-9.09-20.98-5.48-29.67-7.67c-0.09-1.83-0.16-4.03-0.2-6.01c8.59,0.79,20.94,1.58,27.16,1.54
			c5.71-3.18,6.04-10.75,0.9-14.66c-2.95-0.21-5.34-0.38-9.64-0.7c0.33-0.47,0.64-0.97,0.93-1.51c10.1,1.35,12.38-13.2,1.98-15.32
			c-0.68-2.6-1.9-4.42-3.03-5.63c2.95-1.4,5.5-3.81,7.44-7.08c10.42,4.27,19.05-1.88,12.17-12.3c-2.8-0.83-5.41-1.58-8.79-2.54
			c-0.21-3.28-1.04-6.24-2.37-8.74c2.98-0.2,5.73-1.65,7.95-4.17c9.37,3.69,15.21-9.94,5.49-14.44
			c-3.43-23.04-31.26-9.73-25.21,10.17c-18.75-4.69-26.71,28.17-11.83,37.45c-6.92,4.38-8.07,15.88-4.21,22.7
			c-10.21-1.73-14.58,3.22-13.69,14.97c-0.04,12.7-1.09,21.36,15.25,21.51c-1.46,5.5-0.84,14.48,0.91,20.43
			c-7.3,2.35-9.59,12.99-3.37,20.49c-16.14,3.6-10.71,32.03,6.35,30.7c-1.94,5.07,1.07,13.97,6.82,16.25
			c-11.74-1.17-13.64,16.18,4.96,16.85c-3.2,4.4-7.07,6.41-7.15,11.14c-0.42,2.72,3.13,7.8,7.03,7.3c5.68,0.31,11.2-7.44,16.44-15.2
			c5.98,1.28,12.13,4.1,17.42,2.62C118.48,432.71,109.97,426.28,100.19,425.16z M84.12,422.02c-3.62-0.76-7-1.8-11.54-2.89
			c0.76,0.15,1.55,0.24,2.37,0.24c4.53,0.08,9.06-2.47,13.11-3.18C86.87,417.97,85.06,420.9,84.12,422.02z"/>
		<path class="st0" d="M318.64,90.42c1.99,3.52,4.45,7.33,8.32,9.16c6.6,0.64,10.14-2.87,9.48-7.94c5.23,1.76,9.5-1.74,10.19-7.43
			c1.46-0.19,2.77-0.58,3.94-1.11c-0.73,5.07-1.27,8.91-1.81,12.84c9.16,14.91,16.89,1.58,16.84-9.69
			c4.15,0.05,7.94-1.18,10.96-3.17c-0.46,1.88-0.93,4.04-1.58,5.38c-3.61,10.35,11.85,15.19,14.66,3.98c1.98,0.1,4-0.26,5.69-0.96
			c2.87,7.54,13.22,7.29,19.41,10.13c-1,1.95-2.58,5.01-3.57,6.95c-2.59,5.05,2.55,10.37,7.21,10.36
			c8.74-0.64,12.05-17.36,17.32-24.64c1.73,0.61,3.78,1.37,5.63,2.08c-3.5,6.86-6.82,13.43-9.32,19.15
			c-2.63,5.76-0.62,16.97,10.87,11.79c2.53-1.61,2.35-4.75,4.3-8.68c0.32,0.49,0.66,0.98,1.05,1.45
			c-5.31,9.04,8.11,16.24,13.42,7.64c2.13,0.31,4.42,0.07,6.36-0.68c0.17,3.26,1.45,6.54,3.73,9.57c-7.54,7.45-6,18.37,6.76,15.94
			c1.84-2.28,3.52-4.41,5.69-7.17c3.05,1.01,5.96,1.43,8.97,1.15c-0.62,1.91-1.06,5.11,0.83,8.94c-7.29,7.59,4.16,17.66,11.27,10.57
			c14.19,5.85,23.12-14.65,10.21-22.56c-2.77-2.83-6.29-4.44-10.04-4.62c11.28-16.38-16-35.12-30.14-25.21
			c-0.85-7.25-11.72-13.76-19.45-12.47c7.92-12.43-2.71-16.3-13.4-20.17c-10.09-4.06-14.26-5.67-20.98,7.8
			c-4.59-3.41-13.01-6.22-19.23-6.86c1.28-6.64-9.08-14.25-17.66-10.88c3.04-15.29-24.86-22.78-30.8-5.76
			c-1.57-1.37-9.97-8.26-17.6,0.1c5.66-6.2-9.74-18.75-17.48-1.8c-3.72-8.03-6.92-14.19-14.56-10.29
			c-7.39,5.6,0.32,16.38,5.34,24.14c-3.68,5.08-8.88,10.78-9.06,15.11C305.04,104.73,313.85,98.78,318.64,90.42z M335.06,66.69
			c-2.51,3.5-2.8,8.33-2.99,11.47c-0.11,1.71-0.19,3.35-0.51,4.46c-1.19-1.77-3.22-4.57-3.89-5.87
			C329.83,73.52,332.18,70.88,335.06,66.69z"/>
	</g>
	<path class="st1" d="M243.28,319.92c24.4,6.32,46.57-19.29,72.39-19.29c15.91,0,43.16,14.18,60.85,13.5
		c41.02-1.2,48.6-60.2,27.28-75.22c0,0-19.52-32.94-99.09-27.19c-133.61,13.22-104.89,65.99-104.89,65.99
		C207.07,302,220.02,318.22,243.28,319.92z"/>
	<path class="st1" d="M178.33,522.73l68.08,2.14l253.09-49.58l-13.2-18.15l31.14-8.02l12.16-31.4l-53.46-77.27l-48.89-31.68
		l-226.83,19.63l-14.3,12.13c0.26,19.16-2.96,35.2-13.18,59.13c-3.4,11.1-0.22,14.7-2.39,34.89c-2.33,12.12-8.95,17.3-11.17,35.95
		C161.13,490.04,167.05,507.62,178.33,522.73z"/>
	<path class="st2" d="M404.88,350.67c-22.16,43.52-76.98,50.85-130.98,41.21c-39.14-6.98-54.08-31.74-69.53-67.47l209.49-19.63
		C415.61,320.91,412.59,335.53,404.88,350.67z"/>
	<path class="st3" d="M302.85,385.93c91.27,7.55,118.49-67.3,119.93-130.23l-32.38-96.72l-186.26,30.38l-19.17,68.38
		C199.83,328.08,229.97,384.43,302.85,385.93z"/>
	<path class="st4" d="M187.17,267.53c21.93-12.75,38.56-26.67,34.98-45.1c8.67,11.87,29.78,11.59,50.38,7.05
		s44.05-37.96,70.66-48.26c7.04-2.27,16.76,7.57-4.49,10.94c0,0-3.37,21.74,18.84,28.72s37.79-10.99,37.79-10.99l6.91,20.41
		l-37.01,12.88c11.74,15,28.58,11.74,47.98,6.35l-31.02-101.7l-209.15,68.94L187.17,267.53z"/>
	<path class="st2" d="M347.24,491.97c17.6,0,18.49,3.33,30.33,4.11c11.85,0.78,16.15-13.82,7.12-24.01
		c14.37-3.51,12.8-14.49,11.16-26.12c6.04-0.49,9.57-6.41,7.39-12.17l-153.18,54.35l-3.64,36.73l41.98-8.22
		C313.74,498.43,329.63,491.97,347.24,491.97z"/>
	<path class="st5" d="M278.69,347.72c20.25-3.27,41.06-3.36,62.32-0.99c8.67,4.85,10,10.14,1.57,16.01
		c-21.88,3.68-42.9,4.99-62.8,3.13C269.59,360.71,268.49,354.73,278.69,347.72z"/>
	<path class="st4" d="M312.43,301.1l3.5,21.81l-13.98-0.64C309.57,317.85,312.21,311.3,312.43,301.1z"/>
	<g>
		<path class="st0" d="M478.12,381.5c-10.08,0.32-13.18-17.27-9.59-19.94c3.59-2.67,6.65-0.99,9.84,0.55L478.12,381.5z"/>
		<path class="st0" d="M379.35,364.66c3.06,4.86,10.07,6.64,14.8,3.13c5.79-4.29,2.64-11.92-2.83-14.8L379.35,364.66z"/>
		<path class="st0" d="M198.73,359.56c-10.56,5.08-1,20.4,8.78,15.68C220.02,369.44,208.48,355.61,198.73,359.56z"/>
		<path class="st0" d="M195.23,408.68c-3.46-0.49-11.96,0.52-12.86,4.73c-1.34,6.13,7.14,5.99,10.62,5.71
			c4.24,0.13,9.93,3,12.76-1.54C211.38,410.03,199.83,409.59,195.23,408.68z"/>
		<path class="st0" d="M308.76,426.95c0,0,0.95-11.03-12.22-9.84c-13.17,1.19-13.01,7.42-10.56,15.44L308.76,426.95z"/>
		<path class="st0" d="M427.79,329.2c-10.91,0.68-9.46,19.76,1.42,17C440.48,343.07,438.7,328.52,427.79,329.2z"/>
		<path class="st0" d="M444.35,419.5c-9.9,4.76-0.93,19.13,8.23,14.7C464.31,428.77,453.49,415.8,444.35,419.5z"/>
		<path class="st0" d="M239.6,395.25c-9.32,4.48-0.88,18,7.75,13.84C258.39,403.97,248.21,391.76,239.6,395.25z"/>
		<path class="st0" d="M353.43,395.89c-9.33,8.41,5.69,14.95,14.32,7.15C378.88,393.23,362.29,388.65,353.43,395.89z"/>
		<path class="st0" d="M214.54,436.18c-5,1.16-9.78,4.5-6.41,7.64c2.21,1.91,8.54,2.83,11.92,0.37c2.17-1.62,4.11-5.55,2.17-7.22
			C220.56,435.54,217.41,435.74,214.54,436.18z"/>
		<path class="st0" d="M175.45,455.46c-7.65,3.77,2.51,11.36,9.79,5.86c1.94-1.51,3.71-4.89-0.06-5.86
			C181.41,454.5,179.12,453.97,175.45,455.46z"/>
		<path class="st0" d="M403.01,449.58c-9.33,8.41,5.69,14.95,14.32,7.15C428.46,446.92,411.88,442.34,403.01,449.58z"/>
	</g>
	<path class="st2" d="M469.8,440.34c-1.04,4.88-5.55,6.53-8.56,10.01c-9.09,20.53-37.6,15.48-55.25,24.68
		c7.77-11.96,30.47-13.64,36.13-22.72c2.85-4.93,3.31-7.61,8.76-9.37c5.45-1.76,13.96-3.05,16.46-9.14L469.8,440.34z"/>
	<path class="st2" d="M173.99,401.83c4.62,2.15,44.68,6.63,44.68-3.33c0-5.19-1.61-8.6-10.76-3.92
		c-16.02,6.47-22.39-5.05-32.39,1.04L173.99,401.83z"/>
	<path class="st6" d="M287.17,366.42c-1.74,12.81-5.12,27.42,1.3,31.18c5.37,1.32,7.31-6.23,9.48-13.18
		c0.68-1.53,6.85-4.02,15.57-6.97l2.41-11.42L287.17,366.42z"/>
	<path class="st4" d="M421.91,255.09l12.3,5.18c13.09,30.35,4.2,46.45-19.91,52.71C421.32,293.51,423.81,274.21,421.91,255.09z"/>
	<path class="st2" d="M456.55,404.26c-3.07,5.71-5.65,2.5-9.53,5.28c-6.85,5.15-10.06,6.44-19.24,7.29
		c-7.27,0.2-28.96,3.93-32.1-11.64l9.95-1.16c27.43-6.16,13.59,12.25,44.38-11.13L456.55,404.26z"/>
	<path class="st3" d="M454.28,188.28c10.25-1.05,15.52,8.69,19.08,21.95l14.63,2.92c6.52-17.9,19.29-11.27,21.7,6.02l12.72,2.02
		c10.57-22.5,24.65-5.93,19.3,21.59l1.31,127.3c-0.92,19.15-3.97,36-13.3,46.01c-10.24,10.96-22.45,18.15-38.22,18.56
		c-8.73-9.81-13.12-21.93-14.35-35.74c3.34-33.85-2.32-70.5-7.04-111.26c-9.3-8.34-17.41-17.11-20.72-27.62
		c1.02-8.68,4.46-16.5,9.99-23.58C443.93,203.7,444.82,190.78,454.28,188.28z"/>
	<path class="st2" d="M168.25,503.38c4.57-11.02,14.66-12.51,20.3-21.94c3.99-6.58,7.09-6.92,12.32-11.96
		c5.28-5.1,2.44-14.08,2.44-14.08c-11.12,19.09-33.79,10.78-42.48,25.93L168.25,503.38z"/>
	<path class="st2" d="M182.62,510.27c-5.41,9.45-6.58,17.91,4.7,23.49c11.27,5.07,27.78,1.16,37.65-6.45
		C207.53,526.27,191.47,522.95,182.62,510.27z"/>
	<path class="st3" d="M183.54,510.5l21.58-41.81c39.45-26.57,93.52-42.36,154.57-53.02c20.95,0.12,37.01,5.4,45.19,18.98
		c-4.12,5.14-12.91,5.92-23.21,5.46c18.91,7.72,22.81,24.76-5.94,21.15c13.48,10.23,12.13,26.32-9.59,20.93l-26.12-2.35
		c-37.06,10.16-58.53,34.37-85.99,43.34C220.16,531.55,191.53,527.22,183.54,510.5z"/>
	<path class="st1" d="M376.51,314.14c-17.69,0.68-44.94-13.5-60.85-13.5c-25.83,0-47.99,25.61-72.39,19.29
		c-23.26-1.69-36.21-17.91-43.45-42.2c0,0-3.85-7.07-2.18-16.68c1.49-8.6,7.41-19.25,24.48-28.69c2.29-1.26,4.79-2.5,7.49-3.72
		c15.45-6.93,37.96-12.89,70.55-16.43c1.49-0.16,3-0.32,4.54-0.47c15.26-1.1,28.31-0.78,39.44,0.46c14.6,1.62,25.88,4.82,34.51,8.47
		c8.81,3.71,14.84,7.88,18.78,11.3c4.6,3.99,6.36,6.95,6.36,6.95c3.61,2.54,6.39,6.34,8.31,10.91
		C421.59,272.25,410.59,313.14,376.51,314.14z"/>
	<path class="st2" d="M222.12,232.36c-2.25,10.88-11.75,20.14-24.48,28.69C199.13,252.45,205.05,241.8,222.12,232.36z"/>
	<path class="st2" d="M229.61,228.64c15.45-6.93,37.96-12.89,70.55-16.43c-9.74,8.3-18.94,15.36-27.64,17.28
		C256.49,233.02,240.15,233.98,229.61,228.64z"/>
	<path class="st2" d="M357.53,220.88c-6.31-1.98-10.55-5.15-13.39-8.68c14.6,1.62,25.88,4.82,34.51,8.47
		C372.77,222.66,365.58,223.41,357.53,220.88z"/>
	<path class="st2" d="M412.1,249.83c-18.94,5.21-35.36,8.07-46.88-6.65l32.21-11.21c4.6,3.99,6.36,6.95,6.36,6.95
		C407.4,241.46,410.18,245.26,412.1,249.83z"/>
	<path class="st7" d="M138.93,220.02c0.36-10.15,4.18-17.52,15.72-18.68c25.25,1.42,33.34-7.99,35.22-21.33
		c-23.67,18.49-51.71-9.53-31.11-9.75l57.84-23.94c39.3-47.5,114.77-44.93,146.62-8.37c48.96,9.05,63.49,21.03,59.58,59.58
		c20.27,23.47,33.74,45.9,11.24,62.75c-14.84-4.62-26.55-11.93-30.23-26.18c-13.05,13.8-25.38,16.66-36.96,8.17
		c22.77-2.77,33.35-22.73,27.32-31.21c-20.83,4.04-39.35-2.11-55.46-18.9c11.39,3.66,22.65-2.02,21.04-10.19
		c-18.11-26.27-49.94,20.25-93.14,35.37c-19.99,3.88-37.3,1.91-50.61-8.72c-0.27,20.18-13.6,37.53-31.02,49.13l15.65,71.51
		c-12.7,12.74-29.61,21.14-48.13,17.71c21.72-25.98,18.58-46.99,8.48-66.61c-13.71,9.81-16.36,20.54-10.83,31.96
		c-22.75,2.94-38.92-4.14-46.83-23.82c3.22-21.03,18.74-35.02,44.67-43.03c12.54-3.72,18.85-11.2,16.63-23.81
		C158.25,212.32,149.75,211.55,138.93,220.02z"/>
	<path class="st4" d="M184.97,258.95c-22.77,30.74-5.87,73.85,23.84,68.46C197.26,306.53,189.7,283.5,184.97,258.95z"/>
	<g>
		<path d="M74.27,448.54c-1.85-1.7-1.06-3.51,0.88-5.28c0.6-0.41,8.5-10.1,8.69-10.77c-6.55-3.25-14.63-1.41-17.25-5.77
			c-0.55-1.91,1.46-4.46,3.39-3.02c19.03,4.14,14.31,6.91,23.85-7.16c2.08-3.91,5.01-6.44,6.55-2.03
			c-0.56,4.54-6.31,9.18-8.08,13.64c4.4,2.39,20.63,2.52,14.39,8.42c-3.03,0.64-14.19-3.55-17.24-3.39
			C86.58,436.51,78.69,450.72,74.27,448.54z"/>
		<path d="M69.59,411.28c-6.43-11.4,8.21-15.96,11.11-3.88c1.64-0.33,5.9-1.37,6.97-1.14c2.66,0.5,2.44,4.44-0.36,4.99
			C81.75,411.93,73.42,417.9,69.59,411.28z M72.92,406.11c-0.28,1.75,1.57,4.18,3.12,2.68C76.22,407.58,73.29,403.47,72.92,406.11z"
			/>
		<path d="M53.35,390.11c-5.84-19.33,19.69-18.06,21.54-0.52c3.61-0.87,22.52-7.99,15.92,1.23c-4.69,1.21-16.28,4.16-22.03,5.48
			C61.03,398.59,56.33,396.83,53.35,390.11z M57.35,383.63c-0.38,9.42,4.67,9.06,12.63,7.19c-0.49-2.08-1.17-5.13-2.35-6.62
			C65.56,380.52,58.99,379.75,57.35,383.63z"/>
		<path d="M59.42,365.71c-4.31-12.36,10.91-14.25,11.62-1.86c1.67-0.04,6.05-0.3,7.06,0.11c2.53,0.97,1.62,4.8-1.23,4.85
			C71.27,368.5,62.01,372.9,59.42,365.71z M63.61,361.21c-0.59,1.67,0.81,4.4,2.6,3.19C66.6,363.24,64.44,358.67,63.61,361.21z"/>
		<path d="M64.46,345.43c-0.3-4.64-0.85-9.62-0.31-12.55c1.13-3.37,5.55-2.15,5.12,1.57c-0.32,4.56,2.14,11.24,0.04,15.14
			C66.3,352.41,64.49,349.24,64.46,345.43z"/>
		<path d="M49.39,308.35c0.36-11.23,0.15-9.73,13.69-8.81c3.68,0.24,17.97,1.31,21.91,1.59c1.43,1.47,1.3,3.55-0.34,4.8
			c0,0-5.78-0.19-5.78-0.19c-6.34-0.18-17.89-1.21-24.61-1.78c-0.24,2.81,0.06,12.97,0.45,15.67c0.53,0.84,21.58,2.08,27.39,3.01
			c3.06,0.46,2.55,3.71,0.65,5.13c-7.98-0.68-30.96-2.62-31.12-3.62C48.01,320.91,50.22,313.81,49.39,308.35z"/>
		<path d="M61.25,284.07c-0.55-11.95,14.87-13.42,14.79-0.88c0.61,0.08,1.74,0.2,2.34,0.3c5.24,0.24,5.22,6.02,0.84,5.62
			c-1.26-0.41-2.73-0.54-3.95-0.55C72.29,301.14,59.01,294.61,61.25,284.07z M68.4,286.9c-5.72-1.65,0.81,8,2.16,0.39L68.4,286.9z
			 M67.75,279.58c-0.6,0.12-0.71,1.21-0.81,1.77c0.78,0.1,4.04,0.93,4.08,0.27C70.98,280.38,69.16,278.94,67.75,279.58z"/>
		<path d="M59.48,253.14c1.04-6.98,5.44-16.85,13.71-14.23c7.95,1.13,10.71,8.68,10.09,16.05c2.59,0.72,7.81,2.2,10.39,2.96
			c4.44,8.36-8.62,2.53-11.46,2.15C76.15,276.82,58.14,269.13,59.48,253.14z M67.22,255.11c-2.62-0.72-3.31-1.93-2.75,1.49
			c1.02,8.25,10.64,11.28,12.88,1.79C74.47,257.52,69.03,255.86,67.22,255.11z M67.41,245.23c-0.83,1.31-1.77,2.55-1.54,3.8
			c0.38-0.05,11.27,4.55,12.5,3.97c0.21-3.65-1.14-8.06-5.26-9.08C71,243.19,68.71,243.15,67.41,245.23z"/>
		<path d="M79.41,224.53c2.24-11.75,17.58-9.59,14.59,2.58c0.58,0.22,1.65,0.6,2.2,0.83c5.03,1.45,3.68,7.07-0.49,5.66
			c-1.13-0.69-2.53-1.16-3.72-1.45C86.18,243.7,74.78,234.26,79.41,224.53z M85.7,228.95c-5.18-2.94-1.07,7.97,2.01,0.88
			L85.7,228.95z M86.77,221.67c-0.61-0.03-0.97,1.01-1.2,1.54c0.73,0.28,3.71,1.84,3.91,1.21C89.72,223.21,88.3,221.38,86.77,221.67
			z"/>
		<path d="M95.68,197.47c-3.54-4.52,4.7-4.96,8.05-5.57c-0.99-3.34-3.61-10.02,1.95-8.75c1.65,1.65,2.62,6.74,3.73,8.76
			c2.36,0.05,7.85-2.62,9.62-1.36c3.91,4.76-4.97,5.27-7.62,6.3c1.64,3.27,4.73,12.27-1.78,9.52c-1.09-2.15-2.38-6.47-3.74-9.33
			C102.07,196.82,98.31,198.78,95.68,197.47z"/>
		<path d="M104.37,162.94c11.09-16.88,26.48,3.53,14.2,16.2c2.98,2.21,20.57,12.16,9.26,13.01c-3.93-2.82-13.63-9.83-18.33-13.39
			C102.79,174.27,101.12,169.54,104.37,162.94z M111.9,161.86c-7.47,5.75-3.96,9.39,2.58,14.3c1.28-1.71,3.19-4.19,3.57-6.05
			C119.56,166.17,115.94,160.63,111.9,161.86z"/>
		<path d="M127,151.94c6.72-11.23,17.93-0.77,8.87,7.73c1.1,1.26,4.11,4.45,4.44,5.49c0.88,2.56-2.65,4.32-4.51,2.16
			C132.45,162.83,123.14,158.54,127,151.94z M133.14,152.27c-1.66,0.62-2.86,3.44-0.78,4.04
			C133.49,155.87,135.62,151.29,133.14,152.27z"/>
		<path d="M137.34,127.36c13.9-14.65,25.44,8.16,11.12,18.45c2.54,2.71,18.09,15.61,6.81,14.44c-3.37-3.47-11.68-12.08-15.67-16.42
			C133.78,138.23,132.98,133.28,137.34,127.36z M144.95,127.62c-8.37,4.33-5.56,8.55,0,14.53c1.56-1.45,3.88-3.56,4.58-5.32
			C151.72,133.22,149.14,127.13,144.95,127.62z"/>
		<path d="M165.83,125.96c3.68-2.85,7.49-6.09,10.23-7.28c3.43-0.95,4.89,3.39,1.56,5.13c-3.96,2.29-8.12,8.06-12.52,8.51
			C161.07,131.39,162.69,128.11,165.83,125.96z"/>
		<path d="M180.67,108.57c3.81-1.72,8.83-7.09,12.53-5.36c1.95,2.77,7.59,10.89,8.07,14.64c-4.16,6.5-8.44-6.92-10.68-9.66
			l-5.11,3.1c1.35,3.73,10.93,14.73,1.86,14.02C184.19,118.87,177.8,111.41,180.67,108.57z"/>
		<path d="M203.96,84.12c5.88-3.9,16.16-7.26,19.75,0.64c4.49,6.66,0.74,13.76-5.15,18.24c1.2,2.41,3.6,7.27,4.76,9.7
			c-3.23,8.9-7.65-4.7-9.28-7.07C197.55,112.37,191.2,93.84,203.96,84.12z M207.69,91.18c-1.22-2.43-0.78-3.75-2.95-1.04
			c-5.44,6.29-1.24,15.46,7.3,10.76C210.76,98.18,208.34,93.03,207.69,91.18z M215.15,84.71c-1.53,0.26-3.08,0.4-3.85,1.4
			c0.29,0.25,4.18,11.42,5.43,11.94c2.85-2.29,5.21-6.25,3.21-9.99C219.07,86,217.56,84.27,215.15,84.71z"/>
		<path d="M238.57,79.75c10.23-6.2,18.9,6.63,7.85,12.57c0.22,0.58,0.66,1.62,0.86,2.19c2.29,4.71-2.79,7.47-4.53,3.42
			c-0.24-1.3-0.83-2.66-1.41-3.73C228.86,97.61,228.25,82.82,238.57,79.75z M239.5,87.37c-1.29-5.82-6.64,4.54,0.69,2.08
			L239.5,87.37z M245.63,83.3c-0.39-0.47-1.4-0.05-1.95,0.14c0.28,0.73,1.12,3.99,1.72,3.71C246.46,86.52,246.87,84.23,245.63,83.3z
			"/>
		<path d="M264.93,63.4c6.63-2.41,17.41-3.26,19.04,5.26c2.8,7.53-2.52,13.55-9.29,16.52c0.6,2.62,1.79,7.92,2.35,10.55
			c-5.23,7.89-6.33-6.37-7.36-9.05C252.07,89.35,250.24,69.85,264.93,63.4z M266.89,71.14c-0.61-2.65,0.12-3.83-2.62-1.71
			c-6.76,4.83-4.83,14.73,4.57,12.17C268.23,78.67,267.1,73.09,266.89,71.14z M275.67,66.6c-1.55-0.11-3.09-0.34-4.07,0.46
			c0.22,0.31,1.38,12.07,2.47,12.88c3.31-1.55,6.54-4.85,5.47-8.96C279.18,68.78,278.11,66.74,275.67,66.6z"/>
		<path d="M306.9,57.54c2.28-1.06,3.65,0.36,4.54,2.83c0.14,0.71,6.1,11.71,6.65,12.14c5.5-4.82,6.88-12.98,11.91-13.75
			c1.97,0.22,3.57,3.05,1.5,4.29c-11.08,16.01-11.84,10.6-2.48,24.78c2.83,3.41,4.04,7.09-0.62,6.82
			c-3.98-2.25-6.08-9.34-9.53-12.67c-3.88,3.16-10.2,18.11-13.27,10.09c0.56-3.05,8.69-11.76,9.71-14.64
			C313.34,73.51,303.21,60.8,306.9,57.54z"/>
		<path d="M343.12,67.42c12.99-1.61,11.63,13.67-0.64,11.75c-0.32,1.64-0.99,5.98-1.6,6.88c-1.48,2.27-5.04,0.57-4.48-2.23
			C337.89,78.41,335.54,68.43,343.12,67.42z M346.64,72.46c-1.51-0.93-4.47-0.14-3.67,1.87C344.02,74.95,348.94,73.81,346.64,72.46z
			"/>
		<path d="M368.84,60.44c20.1,1.93,9.24,25.07-7.69,20.12c-0.57,3.67-1.16,23.87-7.18,14.26c0.66-4.79,2.33-16.64,3.29-22.46
			C358.09,64.32,361.5,60.64,368.84,60.44z M373.32,66.59c-8.57-3.92-10.16,0.89-11.44,8.95c2.11,0.33,5.19,0.86,7.02,0.33
			C373.08,75.37,376.29,69.58,373.32,66.59z"/>
		<path d="M389.12,75.3c13.07,0.69,9.07,15.49-2.68,11.46c-0.6,1.56-2.01,5.72-2.77,6.5c-1.85,1.98-5.06-0.32-4.02-2.98
			C382.05,85.21,381.48,74.97,389.12,75.3z M391.7,80.88c-1.36-1.08-3.92-1.05-4.03,0.99C388.23,83.08,393.83,82.57,391.7,80.88z"/>
		<path d="M405.98,87.64c4.41,1.48,9.23,2.85,11.73,4.46c2.7,2.32-0.1,5.95-3.39,4.15c-4.1-2.03-11.22-2.27-14.03-5.68
			C398.82,86.69,402.45,86.22,405.98,87.64z"/>
		<path d="M445.99,87.68c10.27,4.58,8.95,3.82,2.99,16.01c-1.61,3.32-8,16.15-9.75,19.69c-1.9,0.76-3.77-0.14-4.32-2.13
			c0,0,2.36-5.28,2.36-5.28c2.56-5.8,7.88-16.11,10.95-22.12c-2.52-1.28-12.03-4.85-14.68-5.5c-0.41-0.78-10.51,19.93-13.13,24.22
			c-1.58,2.66-4.4,0.96-5-1.33c0,0,4.67-9.08,4.67-9.08c5.83-11.38,9.31-17.5,10.44-18.37C434.88,81.65,440.62,86.39,445.99,87.68z"
			/>
		<path d="M464,107.86c11.27,4.01,6.79,18.84-4.78,14.02c-0.31,0.54-0.84,1.54-1.16,2.05c-2.2,4.75-7.55,2.55-5.52-1.35
			c0.85-1.01,1.53-2.32,2-3.45C444.02,111.61,455.1,101.8,464,107.86z M458.68,113.4c3.7-4.67-7.71-2.28-1.18,1.85L458.68,113.4z
			 M465.71,115.57c0.12-0.6-0.85-1.11-1.34-1.42c-0.39,0.68-2.39,3.39-1.79,3.68C463.74,118.25,465.76,117.12,465.71,115.57z"/>
		<path d="M493.31,117.95c6.06,3.61,13.53,11.43,7.96,18.08c-4.06,6.93-12.1,6.61-18.67,3.24c-1.65,2.12-5.01,6.39-6.69,8.49
			c-9.42,0.93,0.93-8.93,2.36-11.42C465.07,124.37,479.03,110.63,493.31,117.95z M488.55,124.36c1.67-2.15,3.05-2.33-0.34-3.11
			c-8.02-2.19-14.47,5.56-6.55,11.23C483.56,130.15,487.17,125.75,488.55,124.36z M497.61,128.29c-0.9-1.27-1.69-2.61-2.93-2.87
			c-0.1,0.35-8.49,8.71-8.42,10.06c3.3,1.58,7.89,2,10.4-1.42C498.14,132.39,499.04,130.28,497.61,128.29z"/>
		<path d="M512.2,147.28c10.01,6.55,2.17,19.91-7.94,12.51c-0.42,0.45-1.18,1.3-1.61,1.72c-3.26,4.1-7.94,0.7-5.04-2.61
			c1.07-0.78,2.04-1.9,2.76-2.88C491.9,146.23,504.97,139.3,512.2,147.28z M505.72,151.41c4.69-3.68-6.96-4.03-1.58,1.52
			L505.72,151.41z M512.04,155.18c0.26-0.55-0.56-1.28-0.96-1.7c-0.54,0.57-3.12,2.73-2.61,3.16
			C509.5,157.32,511.73,156.7,512.04,155.18z"/>
	</g>
	<g>
		<path d="M420.81,404.6c5.45,0.87,9.48,3.42,14.7,0.25c2.35-1.43,11.53-6.7,13.37-8.52c1.54-1.52-0.83-3.88-2.37-2.37
			c-1.8,1.78-11.25,7.12-13.55,8.51c-4.18,2.54-10.22-1.42-14.81-1.42c-7.1,0-14.31,1.34-21.32,2.4c-2.13,0.32-1.22,3.54,0.89,3.23
			C401.53,406.11,417.01,404,420.81,404.6z"/>
		<path d="M544.31,241.02c1.9-9.39,2.1-23.98-5.42-30.56c-4.92-4.3-13.72-2.32-17.42,7.92c-4.7,3.42-9.08,0.1-10.17-0.84
			c-1.26-8.42-5.72-18.68-15.93-16.81c-4.8,0.88-7.66,4.98-9.34,9.82c-4.31,0.58-8.43-0.27-11.43-3.51
			c-0.8-3.19-1.81-6.29-3.03-9.19c-1.87-4.44-4.74-8.58-9.22-10.65c-3.75-1.74-8.92-1.84-12.36,0.69
			c-6.82,5.03-4.11,16.67-2.4,23.45c2.17,8.59,10.03,25.3,10.13,25.4c-1.02,1.35-1.95,2.78-2.82,4.21
			c-2.94,4.84-6.19,10.12-7.2,15.75c-1.05,5.81,1.74,10.54,5.28,14.87c4.68,5.73,10.19,10.71,15.15,16.19
			c-0.03,0.16,6.18,49.69,6.22,50.1c-6.12-7.11-14.5-10.77-22.41-15.57c-7.47-4.53-14.18-9.82-22.08-13.51
			c5.15-3.45,9.17-8.28,11.1-14.87c3.24-11.06-0.18-23.26-4.55-33.64c4.63-3.64,8.31-8.07,10.09-13.83
			c1.82-5.87,0.82-12.29-1.1-17.99c-4.03-11.96-20.66-31.2-20.63-31.55c1.87-16.56-0.15-34.38-14.45-44.72
			c-13.23-9.57-46.49-15.92-46.73-16.16c-39.37-40.05-114.96-35.02-146.6,8.36c-12.41,2.62-24.55,8.3-35.38,14.67
			c-15.71,9.24-25.11,7.91-28.47,9.76c-7.07,3.88,0.06,12.32,4.2,14.99c9.25,5.99,20.88,3.83,30.09-1.14
			c-0.74,3.41-2.48,6.7-4.64,9.27c-5.35,6.38-13.45,7.81-21.3,7.88c-5.49,0.05-11.49-0.48-16.41,2.44
			c-6.23,3.71-7.29,12.25-7.36,18.74c-0.03,2.88,2.29,1.8,2.86,1.18c4.05-4.42,10.11-7.57,16.17-5.74
			c6.48,1.96,8.15,10.99,5.72,16.5c-2.49,5.64-9.17,8.37-14.53,10.45c-5.66,2.19-11.29,4.06-16.63,7c-12.11,6.66-28.06,17.9-29.5,33
			c-1.61,16.94,16.1,28.25,30.86,31.1c6.73,1.3,17.79-0.24,17.83-0.25c1.48,0.58,3.17-1.42,1.79-2.74
			c-9.55-9.18,0.53-21.84,7.48-29.29c3.34,11.34,9.14,22.71,6.73,34.75c-2.23,11.14-9.65,20.59-15.58,29.99
			c-0.54,0.86-0.05,2.26,1,2.46c9.2,1.69,18.5-0.67,26.97-4.22c2.01-0.84,3.99-1.77,5.93-2.77c0.21,9.36-0.92,18.59-3.16,27.69
			c-2.3,9.32-6.32,17.86-9.63,26.81c-3.4,9.19-2.36,18.28-2.47,27.86c-0.11,9.69-3.37,18.52-7.05,27.35
			c-3.5,8.39-5.13,16.53-4.3,25.63c0.79,8.51,3.57,16.71,7.05,24.46c1.88,4.18,4.5,8.05,6.07,12.36c2.56,7.02,6.58,11.23,6.7,11.3
			c2.6,7.16,11.45,10.67,18.88,11.19c12.47,0.88,31.02-7.73,31.1-7.76c6.65-0.42,18.34-2.21,24.86-4.15
			c9.52-2.84,18.28-7.36,26.83-12.33c17.44-10.13,33.51-22.94,53.08-28.84c10.53-3.17,20.55-1.48,31.19,0.02
			c6.35,0.9,15.64,3.04,20.56-2.52c2.83-3.2,2.2-8.33,0.7-11.72c-1.42-3.19-3.99-5.71-6.88-7.61c3.1,0.55,6.21,1.08,9.36,1.45
			c5.53,0.65,10.39-0.64,11.12-6.76c0.86-7.3-4.95-12.12-11.81-15.42c4.37,0.69,8.91,1.2,13.17,0.3c4.52-0.95,5.52-4.79,4.32-8.79
			c-1.98-6.57-8.66-10.3-14.5-12.88c-12.55-5.55-26.39-7.27-39.93-5.08c-11.27,1.82-22.4,4.68-33.46,7.51
			c-12.3,3.14-24.54,6.51-36.72,10.08c-6.61,1.94-13.56,3.9-19.8,6.41c-4.64,1.87-9.25,3.86-13.82,5.91
			c-0.84-4.1-1.83-8.05-3.84-11.81c-2.56-4.78-6.82-8.82-9.98-13.19c-6.87-9.5-9.36-21.05-6.8-32.49c0.47-2.1-2.76-3-3.23-0.89
			c-2.41,10.77-0.79,21.37,4.54,31.01c2.88,5.21,7.02,9.66,10.62,14.37c3.31,4.33,4.53,9.22,5.58,14.42
			c-3.64,1.66-7.26,3.34-10.87,5.05c-9.61,4.56-19.95,9.1-28.33,15.76c-0.76,0.61-11.9,21.42-13.71,26
			c-3.53,8.9-11.43,16.3-12.77,25.98c-1.12-2.05-7.02-13.72-8.83-17.51c-2.87-6.01-6.41-18.75-6.24-19.07
			c1.81-3.43,6.06-6.41,9.4-8.15c4.4-2.3,9.92-1.93,14.62-3.34c7.29-2.17,15.68-6.32,17.73-13.95c0.51-1.9-2.55-2.9-3.75,0.24
			c-3.77,7.49-13.8,10.81-21.48,11.87c-6.3,0.88-13.24,3.47-17.3,8.69c-0.09-0.82-2.07-11.33,5.94-29.25
			c3.59-8.03,5.27-16.3,5.37-25.1c0.05-4.64-0.33-9.27-0.17-13.91c0.14-4.32,2.2-12.33,2.64-12.6c6.06-3.77,13.51,0.38,19.56,1.47
			c4.95,0.89,10.28,0.49,14.36-2.63c1.72-0.66,6.75-2.91,6.67,0.29c-0.05,2.16,3.29,2.15,3.35,0c0.22-9.09-11.93-2.98-16.11-1.67
			c-2.22,0.7-4.47,0.98-6.75,0.85c-2.71-0.46-5.39-1.36-7.69-2.23c-1.27-0.48-2.68-0.77-4.12-0.91c-2.38-0.35-5.09-0.11-7.45,0.66
			c3.19-7.99,5.94-15.92,8.28-24.26c3.09-11.02,2.64-27.8,2.6-27.94c5.03-2.9,14.05-10.5,14.11-10.58c1.53,0.2,3.1,0.28,4.71,0.22
			c0.53-0.02,0.93-0.23,1.2-0.55c2.68,4.8,5.59,9.46,8.81,13.94c7.51,10.48,16.81,19.58,27.5,26.78
			c11.82,7.95,25.16,12.5,39.13,14.84c-0.25,2.47-1.61,10.71,3.28,14.01c2.34,1.58,5.72,0.46,7.37-1.52
			c1.93-2.33,3.41-10.12,3.78-10.74c17.13,1.45,34.56,0.86,51.19-3.77c16.79-4.67,31.13-14.25,42.29-27.57
			c10.13-12.09,17.43-26.38,23.37-40.94c4.08-0.83,8.02-2.12,11.59-3.94c0.09,0.06,16.07,9.45,23.86,14.37
			c7.99,5.04,16.52,8.42,22.58,16.06c0.57,0.72,1.32,0.7,1.89,0.31c5.59,18.75-2.43,50.35,3.46,70.53
			c1.22,4.17,6.83,18.92,9.21,21.61c5.9,6.65,15.45,2.78,21.88-0.73c4.25-2.32,8.61-4.69,12.51-7.57c1.96-1.45,3.79-3.06,5.54-4.75
			c-1.55,4.22-3.34,8.36-4.92,12.57c-2.06,5.52-2.71,11.65-8.39,14.73c-2.58,1.4-5.73,1.86-8.54,2.59
			c-2.13,0.55-4.18,1.37-6.31,1.96c-4.31,1.2-8.72,2.14-13.14,2.87c-1.76-2.08-3.54-4.14-5.37-6.17c-3.4-3.77-6.82-7.21-9.29-11.71
			c-2.46-4.49-3.88-9.58-5.44-14.43c-1.75-5.42-3.38-10.85-5.61-16.1c-1.89-4.47-4.68-8.54-6.71-12.96
			c-2.32-5.04-3.1-10.33-1.17-15.61c1.55-4.22,4.22-7.85,5.45-12.23c0.58-2.08-2.64-2.96-3.23-0.89c-1.22,4.33-3.74,8.09-5.45,12.23
			c-1.88,4.56-1.49,9.35-0.13,13.97c1.3,4.41,3.74,8.44,5.93,12.45c3.05,5.58,5,11.52,6.9,17.56c1.17,3.73,3.64,11.09,3.61,11.15
			c-3.17,6.81-11.73,6.29-17.59,9.21c-5.59,2.78-6.32,9.41-11.32,12.84c-10.41,7.15-24.86,8.06-32.45,19.19
			c-1.22,1.79,1.68,3.46,2.89,1.69c7.45-10.93,22.47-11.71,32.64-19c3.85-2.76,6.45-10.45,12.67-12.76
			c5.16-1.91,11.5-2.92,14.87-7.51c1.8,3.92,4.02,7.63,7.04,11c8.26,9.21,16.13,18.53,23.53,28.47c1.27,1.71,4.18,0.04,2.89-1.69
			c-3.98-5.33-8.02-10.61-12.23-15.76c4.16-0.75,8.29-1.69,12.35-2.81c5.44-1.51,11.83-2.62,16.62-5.71
			c4.42-2.85,5.89-8.44,7.33-13.15c2.13-6.96,7.55-20.52,7.56-20.56c7.44-9.87,10.37-21.78,11.59-33.94
			c1.53-15.23,1.13-30.75,0.76-46.02C543.92,304.43,541.62,272.69,544.31,241.02z M206.23,471.2c2.28-2.63,17.52-11.99,22.86-14.61
			c9.94-4.88,42.39-18.05,48.65-19.91c11.9-3.55,23.88-6.85,35.9-9.98c21.45-5.59,43.77-12.76,65.92-6.97
			c6.2,1.62,12.56,5.14,17.98,8.67c6.96,4.53,4.43,10.22,0.1,10.34c-5.7,0.16-30.29-4.05-36.92-4.3c-2.16-0.08-2.15,3.27,0,3.35
			c3.11,0.12,9.75,1.3,10.11,1.41c7.06,2.15,14.44,4.94,20.66,9.15c4.19,2.84,8.99,13.6-8.45,11.18
			c-8.47-1.18-30.18-3.08-32.52-3.04c-2.16,0.04-2.16,3.39,0,3.35c1.72-0.03,6.51,0.08,6.74,0.07
			c34.44,4.22,27.27,21.57,19.25,21.56c-5.51-0.01-30.01-5.92-44.62-0.72c-18.67,6.65-34.83,18.25-51.77,27.93
			c-19.38,11.08-29.16,16.1-57.74,16.7c-7.46,0.16-34.35-2.95-37.32-16.41C195.08,493.58,200.62,476.9,206.23,471.2z M182.97,512.62
			c2.9,5.54,8.87,9.45,14.46,11.79c7,2.93,14.46,3.95,21.96,4.24c-6.31,2.13-12.56,4.49-19.24,5.03c-4.8,0.39-9.88-0.62-14.01-3.12
			C181.02,527.44,178.26,523.19,182.97,512.62z M437.91,292.34c-2.54,10.63-11.73,16.14-21.62,18.64
			c6.56-17.02,9.81-35.34,7.89-53.51c2.76,1.29,8.92,3.62,8.98,3.69C437.31,270.83,440.41,281.88,437.91,292.34z M312.15,299.51
			c-15.76,1.87-31.09,11.81-45.62,17.33c-13.86,5.26-28.72,3.68-41.33-4c-12.66-7.7-21.54-20.97-25.37-35.12
			c-3.53-13.04,0.14-25.29,9.99-34.38c9.55-8.81,22.41-13.8,34.56-17.94c0.23,0.05,48.88-12.61,73.71-13.78
			c24.05-1.14,50.62,2.89,71.19,16.1c-5.21,6.78-13.71,12.31-22.05,12.94c-2.45,0.19-2.78,1.94-1.89,2.76
			c5.6,5.21,12.58,6.85,20.04,4.77c6.43-1.79,11.98-6.3,16.69-11.01c2.16,4.82,9.31,12.42,9.35,12.54
			c4.57,14.14,2.58,30.15-4.64,43.06c-3.67,6.55-15.97,24.09-44.73,18.57C344.49,307.97,330.59,297.33,312.15,299.51z
			 M193.13,283.24c-2.29-8.21-4.24-16.49-5.97-24.71c14.9-11.72,29.49-26.73,30.46-46.64c9.39,5.99,19.75,9.01,30.45,9.29
			c-0.78,0.2-28.08,6.47-40.61,19.79c-9.29,9.87-13.99,21.54-11.51,34.77c0.45,2.39,1.07,4.74,1.81,7.04
			C196.19,283.09,194.7,283.52,193.13,283.24z M337.33,194.02c7.49,7.29,15.98,13.42,25.9,16.93c9.95,3.52,20.69,3.24,30.74,0.34
			c0.67,5-0.48,9.61-2.82,13.64c-20.82-13.46-47.51-17.54-71.92-16.72c-12.12,0.41-24.1,2.17-35.99,4.58
			c6.76-3.35,13.11-7.52,19.09-12.24c9.65-7.61,19.44-15.39,30.57-20.77c4.76-2.3,10.07-4.15,15.43-3.74
			c4.19,0.32,11.84,4.9,9.43,9.98c-2.56,5.39-12.86,6.95-17.64,5.23C337.31,190.25,335.94,192.67,337.33,194.02z M415.74,252.73
			c1.58,1.07,3.22,2.05,4.91,2.97c1.01,7.62,1.01,15.24,0.2,22.78c-1.66,0.05-3.51,0.25-4.97-0.55
			C418.58,268.21,416.5,255.92,415.74,252.73z M155.17,346.5c6.02-9.34,12.55-18.62,14.76-29.71c2.55-12.74-4.13-25.05-7.39-37.02
			c-0.4-1.46-2.93-2.43-4.79-0.31c-7.68,8.16-17.45,21.28-10.07,31.8c-8.68,0.97-17.46,0.37-25.48-3.37
			c-8.25-3.85-16.35-11.64-17.14-21.15c-0.67-8.1,4.83-15.31,10.24-20.68c5.93-5.88,13.16-10.46,20.52-14.33
			c9.73-5.12,24.04-6.19,29.52-17.11c5.24-10.42-2.49-23.46-14.35-21.92c-3.57,0.46-6.85,2.03-9.66,4.22
			c0.63-5.75,2.49-11.48,8.69-13.13c5.88-1.56,12.36-0.29,18.37-1.05c11.76-1.47,22.54-10.83,22.76-23.26
			c0.02-1.24-1.45-2.13-2.52-1.44c-8.96,5.74-20.55,8.72-30.08,2.55c-2.25-1.46-4.88-4.01-4.94-6.89c-0.06-2.98,4.34-2.73,6.26-2.94
			c9.27-0.98,18.46-6.45,26.71-10.42c10.18-4.9,20.62-10.62,31.79-12.87c0.84-0.17,1.3-1.51,1.35-1.57
			c33.03-40.22,104.15-46.19,141.25-8.43c0.22,0.23,1.18,1.43,1.86,1.62c14.78,4.03,31.11,6.55,44.24,14.91
			c14.19,9.03,16.33,25.32,14.76,40.83c-1.01,0.35-1.73,1.75-0.8,2.83c13.59,15.6,35.75,42.91,12.98,60.24
			c-0.15-0.11-24.15-6.35-29.75-24.19c-0.13-0.4-1.29-2.4-3.09-0.44c-8.17,8.46-20.05,15.8-30.91,9.66
			c13.83,0.47,33.8-21.47,26.6-34.42c-0.71-1.28-3.06-0.68-3.23-0.62c-9.82,2.93-19.77,3.06-29.53-0.19
			c-7.87-2.61-14.84-7.41-21.01-12.9c8.39,0.05,21.14-3.51,17.91-13.13c-3.56-10.61-16.57-9.94-24.94-6.87
			c-11.37,4.17-38.56,25.43-42.56,28.34c-6.62,4.82-14.6,8.32-22.3,10.98c-18.62,6.45-38.06,4.7-54.31-6.75
			c-1.5-1.05-2.5,0.25-2.57,3.18c-0.69,27.74-24.08,39.22-31.07,47.16c-9.45,10.4-12.05,28.42-9.27,43.18
			c2.45,13.03,11.59,24.83,24.18,28.33C190.78,337.93,165.22,348.44,155.17,346.5z M176.94,298.45c-2.11-12.35,0.85-25.9,7.54-36.53
			c4.81,22.3,11.33,44.8,22.1,65.02C190.26,327.31,179.48,313.36,176.94,298.45z M293.39,390.38c-1.1,5.39-6.14,9.98-6.79-1.03
			c-0.41-6.98,1.31-14.04,2.06-21.04c5.04,0.73,18.83,0.02,25.87-0.48c-0.38,2.08-0.53,4.21-1.08,6.25
			c-0.81,3.01-4.93,3.97-8.57,5.13C296.98,381.72,294.69,383.99,293.39,390.38z M283.24,364.24c-2.47-0.4-7.49-1.09-8.64-3.84
			c-2.06-6.02,0.55-9.52,6.37-11.25c5.2-1.55,10.8-1.57,16.18-1.88c14.97-0.88,29.63-1.01,44.55,2.17
			c6.63,1.41,5.86,11.63-1.64,12.78c-4.2,0.64-7.67,0.84-11.85,1.16c-3.55,0.27-24.14,1.73-29.98,1.77
			C295.15,365.17,284.04,364.37,283.24,364.24z M388.39,354.15c-10.86,12.95-24.96,21.67-41.19,26.19
			c-14.67,4.09-30.17,4.67-45.32,3.65c1.62-0.61,11.9-3.32,13.76-6.38c1.79-2.95,1.67-6.68,2.36-10.04
			c2.48-0.2,27.74,0.56,31.03-7.9c1.94-4.99,0.65-10.54-4.19-12.93c-2-0.99-14.47-2.35-17.56-2.72
			c-10.69-1.28-34.79,0.47-40.33,0.65c-11.92,0.39-18.82,5.66-15.32,17.1c2.21,4.43,8.15,5.84,13.76,6.34
			c-0.38,4.57-1.46,13.81-1.47,13.88c-13.6-2.34-26.23-6.79-37.82-14.41c-10.85-7.13-20.04-16.67-27.49-27.25
			c-11.36-16.15-18.92-34.64-24.48-53.66c1.59-0.02,3.14-0.41,4.77-0.71c9.75,25.07,36.53,42.8,63.71,35.7
			c15.59-4.07,28.56-15.35,49.81-19.38c0.01,0.1,2.46,15.55,1.78,18.36c-0.72,3-9.08,1.19-11.17,1.09c-2.16-0.1-2.15,3.24,0,3.35
			c3.93,0.19,10.73,1.8,13.69-2.1c2.84-3.74-0.54-18.95-0.94-20.79c15.19,0.2,29.73,8.53,44.3,12.14
			c16.43,4.07,33.04,0.63,44.39-12.44c5.13-5.91,8.64-13.1,10.66-20.7c1.68,0.63,3.43,0.64,5.32,0.64
			c-1.39,10.11-4.18,20.04-7.88,29.6C406.67,326.64,398.91,341.59,388.39,354.15z M527.67,214.99c2.77-3.05,11.21-5.61,13.24,7.7
			c0.85,5.55,0.75,11.31,0.32,16.89c-1.95,2.84-5.8,3.98-9.03,4.16c-6.61,0.37-9.92-5.66-10.18-11.43
			C521.74,226.21,523.51,219.59,527.67,214.99z M495.78,204.07c9.14-3.52,12.1,11.13,12.56,17.21c0.34,4.48-1.51,19.74-3.49,21.44
			c-7.53,4.98-14.26-3.95-15.58-6.69C487.73,232.81,485.69,207.95,495.78,204.07z M450.79,191.77c7.9-7.81,17.11,5.51,18.61,9.77
			c3.16,8.93,4.61,19.16,3.67,28.61c-2.79-0.9-8.91-2.32-13.08,3.95C456.61,227.94,445.48,197.02,450.79,191.77z M541,376.79
			c-1.5,20.03-6.69,34.88-18.82,44.02c-8.73,6.57-26.65,19.61-33.6,9.01c-1.88-2.87-2.96-6.27-3.95-9.52
			c-1.16-3.8-7.84-10.02-5.47-41.41c1.12-14.05-0.15-28.27-1.59-42.25c-1.67-16.16-6.06-50.12-6.57-50.7
			c-4.02-4.5-8.37-8.68-12.47-13.11c-4.61-4.97-8.92-9.99-7.2-17.15c1.15-4.8,4.36-9.58,6.91-13.78c2.41-3.96,5.86-8.71,10.91-9
			c10.17-0.6,7.27,13.01,9.02,19.13c2.29,8,12.68,10.39,19.7,11.74c2.11,0.4,3.01-2.82,0.89-3.23c-4.94-0.95-10.26-2.08-14.31-5.24
			c-4.08-3.18-3.69-8.28-4-12.93c-0.25-3.71-1.51-8.05-4.3-10.72c-0.16-0.15,1.07-12.58-0.47-19.51c2.8,1.55,6.05,2.05,9.37,1.83
			c-0.91,3.91-1.23,7.91-1.29,10.87c-0.09,4.28,0.27,8.98,2.2,12.88c2.71,5.48,7.58,11.43,14.54,10.42
			c10.37-1.51,9.89-9.5,10.44-12.5c0.85-4.7,1.09-9.54,0.76-14.32c1.11,0.56,6.58,1.92,8.09,1.44c-1.42,4.87-1.61,10.18-0.38,14.88
			c2.38,9.11,14.08,11.87,21.27,7.11c-2.09,28.68-0.34,57.43,0.54,86.13C541.67,346.18,542.15,361.52,541,376.79z"/>
		<path d="M283.17,254.56c-13.81,18.72-42.94,15.98-68.1,7.16c-2.04-0.72-2.91,2.52-0.89,3.23c3.57,1.25,7.44,2.44,11.48,3.46
			c-1.75,5.36-2.75,10.93-4.44,16.31c-0.64,2.07,2.59,2.94,3.23,0.89c1.63-5.43,2.82-10.99,4.41-16.44
			c6.4,1.44,13.15,2.41,19.79,2.54c-0.24,3.92,0.55,7.99,0.3,11.97c-0.05,2.16,3.3,2.15,3.35,0c-0.07-3.96,0.1-8.11-0.68-11.97
			c7.29-0.15,14.37-1.42,20.63-4.3c0.98,3.41,2.71,6.76,4.51,9.85c1.17,1.8,4.07,0.13,2.89-1.69c-2.02-2.94-2.95-6.48-4.73-9.52
			c4.23-2.37,8.01-5.57,11.14-9.8C287.34,254.5,284.44,252.84,283.17,254.56z"/>
		<path d="M381.83,269.59c0.61,3.63,1.61,7.24,2.95,10.69c0.84,1.98,3.72,0.27,2.89-1.69c-1.46-3.12-1.61-6.76-2.92-9.88
			c4.55-1.59,8.8-4.07,12.59-7.67c1.57-1.49-0.8-3.85-2.37-2.37c-16.16,15.39-45.54,8.21-68.28-4.51c-1.88-1.05-3.57,1.84-1.69,2.89
			c3.33,1.86,6.98,3.72,10.84,5.44c-2.59,4.95-4.55,10.21-7.11,15.18c-0.98,1.92,1.91,3.61,2.89,1.69
			c2.53-5.13,4.79-10.41,7.2-15.58c6.11,2.55,12.66,4.7,19.25,5.97c-1.25,3.62-0.86,7.88-1.88,11.65c-0.42,2.11,2.81,3.01,3.23,0.89
			c0.72-3.97,1.33-8.02,1.53-12.04C368.1,271.34,375.22,271.32,381.83,269.59z"/>
	</g>
</g>
<image class="sticker-draft" width="600" height="600" xlink:href="sticker-dream.webp"></image>
</g>
</svg>
