<?xml version="1.0" encoding="utf-8"?>
<svg xmlns="http://www.w3.org/2000/svg" xmlns:xlink="http://www.w3.org/1999/xlink"
	viewBox="0 0 600 600">
<style type="text/css">
	.st0{fill:#FFFFFF;}
	.st1{fill:#FF8F8F;}
	.st2{fill:#5884CF;}
	.st3{fill:#FFB8B3;}
	.st4{fill:#004C81;}
	.st5{fill:#FFEEE0;}
	.st6{fill:#000B1F;}
	.st7{fill:#002A48;}
	.st8{fill:#73B7D4;}

	.shw{fill:#2C191C;transform: scale(103%);transform-origin: 50% 50%;filter:blur(3px);opacity:0.13;}

	.sticker-draft,.sticker{transition:all .5s cubic-bezier(0.75, 0.35, 0.4, 0.99);}
	.sticker{overflow:visible;opacity:1;}
	.sticker-draft{overflow:visible;opacity:0;}

	.main:hover{
		.sticker{opacity:0;}
		.sticker-draft{opacity:1;}
	}
</style>

<g class="main">
<g>
	<g class="shw">
		<path d="M335.01,507.35c0-1.97-0.4-3.71-1.18-5.18c-0.76-1.42-1.92-2.69-3.56-3.9l-0.03-0.02l-0.03-0.02
			c-2.68-1.9-5.71-2.86-9.01-2.86c-1.29,0-2.78,0.16-4.55,0.49c-2.18,0.36-4.13,1.3-5.8,2.79c-1.44,1.25-2.39,2.34-2.98,3.42
			c-0.65,1.16-1.03,2.72-1.37,5.51c-0.26,2.17-0.4,4.28-0.4,6.26c0,0.94-0.17,7.85-0.17,8.83c0,4.73,2.66,6.88,4.29,7.76
			c1.26,0.7,2.54,1.06,3.81,1.06c2.8,0,6.18-2.35,7.14-4.47c0.6-1.34,0.98-3.22,1.27-6.29l0.02-0.25c2.81-0.47,5.35-1.6,7.56-3.36
			C334.15,513.84,335.01,510,335.01,507.35z"/>
		<path d="M380.79,498.15c-0.44-2.4-2.06-7.4-3.2-8.71c-1.51-1.8-3.56-2.92-5.8-2.79c-4.79,0.28-11.84,8.07-12.05,8.3
			c-2.76-8.41-14.4-10.08-17.67-2.27c-1.2,2.88-11.71,39.64-11.71,40.75c0,1.44,0.52,3.57,2.98,5.52c1.63,1.29,3.31,1.95,4.98,1.95
			c1.38,0,6.5-0.97,7.21-3.98c0.17-0.75,0.54-1.01,4.83-16.59c0.75-2.77,1.39-5.15,1.94-7.14c1.7,1.47,3.76,2.27,6.02,2.27
			c4.14,0,8.46-4.33,8.48-4.35c0.19,1.17,3.98,21.62,4.23,22.41c1.85,5.71,6.43,6.09,8.22,6.09c1.9,0,8.8-2.44,7.73-7.73
			c-0.15-0.75-0.1-1.96-0.83-5.45C385.3,522.54,381.26,500.69,380.79,498.15z"/>
		<path d="M451.6,150.09c-2.03-4.33-7.97-5.66-12.02-3.94c-2.14,0.9-3.96,2.66-5.02,4.79
			c-8.54,9-21.27-26.41-9.23-23.77c3.11,1.51,6.5,1.75,9.61-0.06c2.93-1.72,4.77-4.91,4.77-8.32c0-4.24-0.1-8.43-1.45-12.52
			c-1.53-4.69-3.89-8.69-6.99-12.51c-6.3-7.75-15.69-12.48-25.5-13.68c-9.37-1.15-18.56,1.74-27.24,4.93
			c-7.66,2.36-16.89,9.46-24.22-3.25c-4.61-7.16-9.49-13.68-16.73-18.36c-12.7-8.22-28.08-6.76-41.23-0.66
			c-9.65,4.49-18.28,11.67-25.24,20.02c-0.99-0.88-11.86-9.27-20.24-11.25c-6-1.42-12.02-2.42-18.07-1.25
			c-5.26,1.02-10.09,3.96-14,7.55c-7.6,6.99-11.75,17.2-15.21,26.68c-1.71,4.67-5.89,16.48-7.74,20.74
			c-7.36,16.98-16.4,8.66-21.08,3.81c-3.2-3.31-7.88-3.21-11.68-1.5c-5.49,2.47-9.87,7.19-13.13,12.11
			c-3.77,5.67-6.53,12.19-8.05,18.83c-3.27,14.36-1.54,29.04,4.33,42.46c1.73,3.95,3.97,7.75,6.62,11.22
			c-7.09,8.33-12.33,18.21-11.7,29.57c0.65,11.49,5.76,22.35,14.25,29.81c-4.94,10.02-6.44,21.37-4.02,32.53
			c2.92,13.46,11.55,25.5,21.51,34.74c2.97,2.76,6.1,5.31,9.37,7.68c-10.04,4.26-16.83,13.33-20.06,23.6
			c-2.94,9.35-2.51,19.17-2.09,28.82c0.48,11.23,1.46,22.43,2.9,33.58c1.72,13.26,3.96,26.42,6.63,39.52
			c0.83,4.08,5.27,7.1,9.29,7.07c13.19-0.1,26.39-0.18,39.58-0.28c0.38,1.63,1.04,3.13,2.39,4.37c1.89,1.73,4.2,2.82,6.81,2.82
			l1.1-0.01c-2.15,0.43-6.88,5.05-7.46,5.6c-0.28,0.24-0.7,0.62-1.41,1.31c0.01-0.35,0.28-5.21-3.28-7.03
			c-1.43-0.94-3.05-1.41-4.82-1.41c-2.28,0-7.47,1.38-8.01,7.06c-0.07,0.74-3.42,38.89-3.42,39.14c0,6.78,4.53,9.18,8.4,9.18
			c1.94,0,3.76-0.71,5.26-2.06c1.43-1.29,2.34-2.94,2.63-4.78c0.07-0.43,0.16-1.13,0.27-3.21c3.04,4.51,9.28,9.05,9.92,9.43
			c1.19,0.72,2.62,1.08,4.26,1.08c2.26,0,4.29-0.78,5.88-2.24c1.67-1.55,2.58-3.6,2.58-5.79c0-1.32-0.33-2.6-0.97-3.79l-0.05-0.09
			l-0.05-0.09c-0.37-0.63-1.32-2.22-3.06-2.98c-0.36-0.3-1.11-0.96-2.53-2.32c-2.68-2.56-8.5-9.66-9.39-10.81
			c1.25-1.25,3.55-3.51,6.87-6.74c2.93-2.9,4.53-4.59,5.46-5.67c-0.14,0.32-0.27,0.64-0.37,0.99c-0.26,0.78-0.39,1.57-0.39,2.37
			c0,2.53,1.23,4.74,3.45,6.23c0.83,0.56,1.76,0.98,2.79,1.26c0,0-0.69,12.75-0.69,14c0,2.94,0.85,5.34,2.52,7.12
			c1.16,1.27,2.81,2.25,5.04,3c1.93,0.65,3.85,0.98,5.82,0.98s4.13-0.45,6.29-1.35c2.14-0.88,5.45-3.5,5.52-3.56
			c-0.37,0.97-0.56,1.92-0.56,2.85c0,1.78,0.65,3.47,1.88,4.9c1.54,1.82,3.76,2.83,6.24,2.83c1.37,0,2.68-0.35,3.9-1.05
			c1.36-0.79,3.22-2.33,9.9-11.64c0.54,0.94,6.1,9.41,6.93,10.37c1.23,1.41,2.66,2.37,4.25,2.84c0.78,0.24,1.59,0.36,2.4,0.36
			c2.05,0,3.95-0.73,5.49-2.12c1.66-1.5,2.57-3.49,2.57-5.61c0-0.84-0.18-1.77-0.45-2.52s-11.1-17.73-11.14-17.8
			c0.77-1.21,2.11-3.24,4.45-6.65c3.32-4.83,4.73-6.7,5.3-7.42c0.88-0.59,1.65-1.48,2.3-2.68c0.75-1.38,1.11-2.67,1.11-3.95
			c0-2.86-2.12-4.78-2.81-5.41c-1.76-1.59-3.5-2.37-5.31-2.37c-4.59,0-7.72,3.95-7.72,3.95c-1.48,1.76-3.88,5.09-7.31,10.15
			c-0.17-0.31-0.34-0.63-0.53-0.98c-2.97-5.51-3.88-7.51-4.15-8.2l-0.01-0.04l-0.01-0.03c-0.88-2.14-1.7-3.57-2.62-4.6h5.16
			c4.39,0,8.66-3.38,9.49-7.72c2.79-0.02,5.58-0.04,8.37-0.06c1.2,4.6,4.75,8.37,9.94,8.54c0.69,0.02,56.97-0.32,59.9-0.34
			c2.37-0.01,5.17-1.04,6.81-2.82c1.63-1.78,2.33-3.65,2.7-5.93c0,0,14.5-0.11,21.74-0.15c4.01-0.03,8.43-2.95,9.29-7.07
			c4.88-23.46,13.86-45.88,16.9-69.76c0.17-1.3,1.83-13.98,2.3-17.44c0.96-7.19,1.25-14.77-1.31-21.7
			c-4.01-10.86-12.62-20.72-23.63-24.79c4.87-4.59,9.24-9.68,12.94-15.37c8.21-12.61,11.83-28.38,7.48-43.04
			c-2.29-7.72-6.47-14.65-11.67-20.71c0.14-0.77,2.19-13.61,2.53-15.93c8.25-1.07,26.4-9.71,34.25-29.15
			c2.9-7.18,5.18-14.06,6.13-21.73C461.01,176.83,457.54,162.73,451.6,150.09z M274.74,518.31c-2.4,3.35-4.35,5.95-5.79,7.73
			c0.66-1.72,1-3.62,1-5.65c0-1.51-0.2-2.92-0.6-4.21c-0.47-1.58-1.56-3.04-3.11-4.66c-2.55-2.65-6.82-4.01-8.25-4.24
			c0.09-1.61,0.1-2.16,0.1-2.47c0-4.48-1.87-6.68-3.45-7.74c-1.69-1.13-10.79-2.99-15.38-0.96c-0.65,0.29-1.17,0.76-1.65,1.22
			c0.49-0.93,0.94-2.1,0.94-3.43c0-0.65-0.15-3.6-3.44-6.51c-0.91-0.81-2.1-1.17-3.28-1.38h36.26c-1.3,1.45-2.01,3.25-2.01,5.24
			c0,5.52,10.66,22.77,11.16,23.51C276.68,515.58,275.88,516.72,274.74,518.31z"/>
	</g>

	<g class="st0">
		<path d="M335.01,507.35c0-1.97-0.4-3.71-1.18-5.18c-0.76-1.42-1.92-2.69-3.56-3.9l-0.03-0.02l-0.03-0.02
			c-2.68-1.9-5.71-2.86-9.01-2.86c-1.29,0-2.78,0.16-4.55,0.49c-2.18,0.36-4.13,1.3-5.8,2.79c-1.44,1.25-2.39,2.34-2.98,3.42
			c-0.65,1.16-1.03,2.72-1.37,5.51c-0.26,2.17-0.4,4.28-0.4,6.26c0,0.94-0.17,7.85-0.17,8.83c0,4.73,2.66,6.88,4.29,7.76
			c1.26,0.7,2.54,1.06,3.81,1.06c2.8,0,6.18-2.35,7.14-4.47c0.6-1.34,0.98-3.22,1.27-6.29l0.02-0.25c2.81-0.47,5.35-1.6,7.56-3.36
			C334.15,513.84,335.01,510,335.01,507.35z"/>
		<path d="M380.79,498.15c-0.44-2.4-2.06-7.4-3.2-8.71c-1.51-1.8-3.56-2.92-5.8-2.79c-4.79,0.28-11.84,8.07-12.05,8.3
			c-2.76-8.41-14.4-10.08-17.67-2.27c-1.2,2.88-11.71,39.64-11.71,40.75c0,1.44,0.52,3.57,2.98,5.52c1.63,1.29,3.31,1.95,4.98,1.95
			c1.38,0,6.5-0.97,7.21-3.98c0.17-0.75,0.54-1.01,4.83-16.59c0.75-2.77,1.39-5.15,1.94-7.14c1.7,1.47,3.76,2.27,6.02,2.27
			c4.14,0,8.46-4.33,8.48-4.35c0.19,1.17,3.98,21.62,4.23,22.41c1.85,5.71,6.43,6.09,8.22,6.09c1.9,0,8.8-2.44,7.73-7.73
			c-0.15-0.75-0.1-1.96-0.83-5.45C385.3,522.54,381.26,500.69,380.79,498.15z"/>
		<path d="M451.6,150.09c-2.03-4.33-7.97-5.66-12.02-3.94c-2.14,0.9-3.96,2.66-5.02,4.79
			c-8.54,9-21.27-26.41-9.23-23.77c3.11,1.51,6.5,1.75,9.61-0.06c2.93-1.72,4.77-4.91,4.77-8.32c0-4.24-0.1-8.43-1.45-12.52
			c-1.53-4.69-3.89-8.69-6.99-12.51c-6.3-7.75-15.69-12.48-25.5-13.68c-9.37-1.15-18.56,1.74-27.24,4.93
			c-7.66,2.36-16.89,9.46-24.22-3.25c-4.61-7.16-9.49-13.68-16.73-18.36c-12.7-8.22-28.08-6.76-41.23-0.66
			c-9.65,4.49-18.28,11.67-25.24,20.02c-0.99-0.88-11.86-9.27-20.24-11.25c-6-1.42-12.02-2.42-18.07-1.25
			c-5.26,1.02-10.09,3.96-14,7.55c-7.6,6.99-11.75,17.2-15.21,26.68c-1.71,4.67-5.89,16.48-7.74,20.74
			c-7.36,16.98-16.4,8.66-21.08,3.81c-3.2-3.31-7.88-3.21-11.68-1.5c-5.49,2.47-9.87,7.19-13.13,12.11
			c-3.77,5.67-6.53,12.19-8.05,18.83c-3.27,14.36-1.54,29.04,4.33,42.46c1.73,3.95,3.97,7.75,6.62,11.22
			c-7.09,8.33-12.33,18.21-11.7,29.57c0.65,11.49,5.76,22.35,14.25,29.81c-4.94,10.02-6.44,21.37-4.02,32.53
			c2.92,13.46,11.55,25.5,21.51,34.74c2.97,2.76,6.1,5.31,9.37,7.68c-10.04,4.26-16.83,13.33-20.06,23.6
			c-2.94,9.35-2.51,19.17-2.09,28.82c0.48,11.23,1.46,22.43,2.9,33.58c1.72,13.26,3.96,26.42,6.63,39.52
			c0.83,4.08,5.27,7.1,9.29,7.07c13.19-0.1,26.39-0.18,39.58-0.28c0.38,1.63,1.04,3.13,2.39,4.37c1.89,1.73,4.2,2.82,6.81,2.82
			l1.1-0.01c-2.15,0.43-6.88,5.05-7.46,5.6c-0.28,0.24-0.7,0.62-1.41,1.31c0.01-0.35,0.28-5.21-3.28-7.03
			c-1.43-0.94-3.05-1.41-4.82-1.41c-2.28,0-7.47,1.38-8.01,7.06c-0.07,0.74-3.42,38.89-3.42,39.14c0,6.78,4.53,9.18,8.4,9.18
			c1.94,0,3.76-0.71,5.26-2.06c1.43-1.29,2.34-2.94,2.63-4.78c0.07-0.43,0.16-1.13,0.27-3.21c3.04,4.51,9.28,9.05,9.92,9.43
			c1.19,0.72,2.62,1.08,4.26,1.08c2.26,0,4.29-0.78,5.88-2.24c1.67-1.55,2.58-3.6,2.58-5.79c0-1.32-0.33-2.6-0.97-3.79l-0.05-0.09
			l-0.05-0.09c-0.37-0.63-1.32-2.22-3.06-2.98c-0.36-0.3-1.11-0.96-2.53-2.32c-2.68-2.56-8.5-9.66-9.39-10.81
			c1.25-1.25,3.55-3.51,6.87-6.74c2.93-2.9,4.53-4.59,5.46-5.67c-0.14,0.32-0.27,0.64-0.37,0.99c-0.26,0.78-0.39,1.57-0.39,2.37
			c0,2.53,1.23,4.74,3.45,6.23c0.83,0.56,1.76,0.98,2.79,1.26c0,0-0.69,12.75-0.69,14c0,2.94,0.85,5.34,2.52,7.12
			c1.16,1.27,2.81,2.25,5.04,3c1.93,0.65,3.85,0.98,5.82,0.98s4.13-0.45,6.29-1.35c2.14-0.88,5.45-3.5,5.52-3.56
			c-0.37,0.97-0.56,1.92-0.56,2.85c0,1.78,0.65,3.47,1.88,4.9c1.54,1.82,3.76,2.83,6.24,2.83c1.37,0,2.68-0.35,3.9-1.05
			c1.36-0.79,3.22-2.33,9.9-11.64c0.54,0.94,6.1,9.41,6.93,10.37c1.23,1.41,2.66,2.37,4.25,2.84c0.78,0.24,1.59,0.36,2.4,0.36
			c2.05,0,3.95-0.73,5.49-2.12c1.66-1.5,2.57-3.49,2.57-5.61c0-0.84-0.18-1.77-0.45-2.52s-11.1-17.73-11.14-17.8
			c0.77-1.21,2.11-3.24,4.45-6.65c3.32-4.83,4.73-6.7,5.3-7.42c0.88-0.59,1.65-1.48,2.3-2.68c0.75-1.38,1.11-2.67,1.11-3.95
			c0-2.86-2.12-4.78-2.81-5.41c-1.76-1.59-3.5-2.37-5.31-2.37c-4.59,0-7.72,3.95-7.72,3.95c-1.48,1.76-3.88,5.09-7.31,10.15
			c-0.17-0.31-0.34-0.63-0.53-0.98c-2.97-5.51-3.88-7.51-4.15-8.2l-0.01-0.04l-0.01-0.03c-0.88-2.14-1.7-3.57-2.62-4.6h5.16
			c4.39,0,8.66-3.38,9.49-7.72c2.79-0.02,5.58-0.04,8.37-0.06c1.2,4.6,4.75,8.37,9.94,8.54c0.69,0.02,56.97-0.32,59.9-0.34
			c2.37-0.01,5.17-1.04,6.81-2.82c1.63-1.78,2.33-3.65,2.7-5.93c0,0,14.5-0.11,21.74-0.15c4.01-0.03,8.43-2.95,9.29-7.07
			c4.88-23.46,13.86-45.88,16.9-69.76c0.17-1.3,1.83-13.98,2.3-17.44c0.96-7.19,1.25-14.77-1.31-21.7
			c-4.01-10.86-12.62-20.72-23.63-24.79c4.87-4.59,9.24-9.68,12.94-15.37c8.21-12.61,11.83-28.38,7.48-43.04
			c-2.29-7.72-6.47-14.65-11.67-20.71c0.14-0.77,2.19-13.61,2.53-15.93c8.25-1.07,26.4-9.71,34.25-29.15
			c2.9-7.18,5.18-14.06,6.13-21.73C461.01,176.83,457.54,162.73,451.6,150.09z M274.74,518.31c-2.4,3.35-4.35,5.95-5.79,7.73
			c0.66-1.72,1-3.62,1-5.65c0-1.51-0.2-2.92-0.6-4.21c-0.47-1.58-1.56-3.04-3.11-4.66c-2.55-2.65-6.82-4.01-8.25-4.24
			c0.09-1.61,0.1-2.16,0.1-2.47c0-4.48-1.87-6.68-3.45-7.74c-1.69-1.13-10.79-2.99-15.38-0.96c-0.65,0.29-1.17,0.76-1.65,1.22
			c0.49-0.93,0.94-2.1,0.94-3.43c0-0.65-0.15-3.6-3.44-6.51c-0.91-0.81-2.1-1.17-3.28-1.38h36.26c-1.3,1.45-2.01,3.25-2.01,5.24
			c0,5.52,10.66,22.77,11.16,23.51C276.68,515.58,275.88,516.72,274.74,518.31z"/>
	</g>

	<g>
		<path d="M211.83,489.28c1.56-0.04,3.49,1.01,3.3,2.7c0.26,2.58-1.2,11.03-0.9,13.35c0.14,0.17,10.23-10.27,10.3-10.13
			c2.32-2.57,6.6-7.39,9.01-2.23c0.41,3.48-2.4,4.41-6.49,9.03c-5.64,5.5-6.44,6.22-9.85,9.87c4.56,5.7,10.27,13.68,16.24,17.86
			c3.54,2.35-0.62,7.42-4.06,5.37c-6.5-5.05-10.95-11.23-16.32-17.63c-0.53,1.17-0.87,13.32-1.12,14.75
			c-1.42,5.13-7.91,2.67-6.66-2.6c0.43-7.88,1.64-21.36,2.46-29.81C208.81,493.9,207.09,490.24,211.83,489.28"/>
		<path d="M243.86,499.82c10.89-0.11,9.59,2.49,9.07,11.68c22.55,0.54,10.01,27.65-6.22,16.98c-1.71-1.8-1.23-4.99-1.01-7.63
			c0.35-5.03,0.46-9.79,0.62-14.59C239.24,507.29,237.42,500.41,243.86,499.82 M252.43,524.59c7.12,0.75,8.63-7.57,0.45-6.54
			C252.4,519.98,252.4,522.35,252.43,524.59"/>
		<path d="M274.15,488.3c2.49,0.16,2.77,1.62,3.98,4.16c0.39,1.11,7.7,15.71,8.85,16.05c6.61-7.32,9.37-16.97,15.34-17.92
			c2.67,0.43,4.61,3.83,1.9,5.61c0.12-1.19-13.45,18.64-12.43,18.07c2.13,4.25,8.41,13.23,8.9,14.18c2.14,3.45,3.08,4.23,3.36,6.13
			c0.01,1.97-2.42,3.42-4.26,2.75c-4.2-2.28-7.61-10.68-10.89-15.08c-0.69-1.02-1.15-1.53-1.37-1.53
			c-3.36,3.01-12.16,17.52-14.11,15.89c-8.69-1.8,2.34-10.1,5.24-15.47c3.45-5.55,5.44-5.57,3.28-8.1c-2.68-3.46-4.73-7.66-7-12
			C271.85,494.68,267.94,489.2,274.15,488.3"/>
		<path d="M321.2,500.19c14.74,0.92,9.53,17.03-3.16,15.73c-0.21,2.16-0.57,7.87-1.25,9.11c-1.64,3.13-6.41,1.32-6.02-2.36
			C311.82,513.84,307.71,499.63,321.2,500.19 M318.59,509.69c1.35,0,2.51-0.19,3.69-0.86c3.91-2.2-2.94-3.27-3.91-1.53
			C317.91,507.93,317.35,509.74,318.59,509.69"/>
		<path d="M371.8,491.46c3.74,0.83,3.36,3.79,4.26,7.55c2.01,8.06,3.45,19.42,5.37,28.38c0.51,3.65,1.58,4.58-0.28,6.7
			c-1.85,1.59-4.94,0.18-5.54-2.08c-1.94-5.71-4.42-27.49-6.05-30.43c-3.24,1.59-6.96,9.13-11.25,9.03
			c-3.2,0.92-7.28-8.34-7.84-7.94c-0.25-0.03-0.44,0.66-0.87,2.08c-0.39,1.39-1.69,6.15-3.89,14.28
			c-2.76,10.04-4.24,15.23-4.42,15.58c-1.34,2.42-5.68,1.44-6.1-1.19c-0.23-0.57,6.41-27.55,11.09-38.38
			c6.35-8.57,9.24,4.3,12.71,7.79C362.56,499.6,367.09,492.38,371.8,491.46"/>
	</g>
	<path class="st1" d="M173.9,263.25c-25.22,25.44-13.84,54.68,11.83,74.76c5.13,4.02,10.71,7.36,16.51,10.49L173.9,263.25z"/>
	<path class="st1" d="M406.18,261.67c25.22,25.44,13.84,54.68-11.83,74.76c-5.13,4.02-10.71,7.37-16.51,10.49L406.18,261.67z"/>
	<path class="st2" d="M178.6,470.58c-3.07-15.04-5.25-26.8-6.91-42.06c-1.59-14.61-3.64-29.72-2.24-44.43
		c0.81-8.48,2.84-17.29,9.39-23.07c7.64-6.74,21.54-4.67,30.02,1.1c6.12,4.17,11.38,10.07,25.5,20.1
		c43.29,25.97,94.8,14.41,120.93-10.22l18.39-16.33c8.75-5.96,19.94-12.47,30.65-8.45c12.72,6.03,21.25,20.87,19.24,34.93
		c-1.34,8.7-12.18,65.88-19.78,87.6L178.6,470.58z"/>
	<path class="st3" d="M408.7,247.97c-5.13,30.58-10.49,62.04-25.22,89.71c-12.5,23.65-31.69,42.85-56.91,52.22
		c-23.66,8.93-50.44,8.93-74.09,0.22c-23.21-8.48-41.96-24.99-54.45-45.97c-12.94-22.32-38.26-117.32-28.75-181.99l127.62-38.33
		l125.24,50.9C422.14,174.74,409.15,244.18,408.7,247.97z"/>
	<path class="st4" d="M342.66,412.37c-35.06,23.42-69.41,23.21-103.11-1.41l-5.84-18.04c-3.44-7.71-8.69-15.65-12.81-21.87
		c3.79,3.79,36.73,25.85,62.78,25.92c50.81,0,77.82-28.21,77.82-28.21s-9.73,15.88-12.87,25.16L342.66,412.37z"/>
	<path class="st3" d="M372.82,477.67c0.92-8.21,4.67-16.21,7.88-23.74c4.67-10.97,10.06-22.68,6.01-34.77
		c-1.5-4.46-5.01-7.04-9.57-4.47c-4.41,2.48-6.27,8.16-6.9,12.88c-0.54-4.02,5.24-24.04-3.77-25.44c-9-1.4-13.25,12.53-15.09,18.97
		c-0.55-8.42-2.24-22.71-12.54-21.87c-10.29,0.84-6.48,28.2-9.92,36.28c0,0-3.65-4.95-6.73-5.94c-4.52-1.45-10.06,2.68-10.37,7.36
		c-0.3,4.65,5.15,8.11,7.44,11.61c5.92,9.04-2.28,21.32-6.36,29.46L372.82,477.67z"/>
	<path class="st3" d="M227.39,478.23c-0.71-6.03-3.21-11.72-5.71-17.41c-4.64-12.05-12.13-22.43-10.35-35.48
		c0.71-5.36,2.65-13.16,9.99-10.71c5.6,1.86,8.09,8.48,8.8,13.5c-0.95-8.93-1.23-25.11,9.37-26.78c7.29-1.15,8.59,13.28,10.73,20.31
		c0.48-8.16,5.82-25.88,13.8-22.99c13.02,4.72,5.83,29.01,10.82,39.06c0,0,4.79-8.66,10.02-7.72c2.64,0.47,5.27,2.31,6.5,4.71
		c1.43,2.78,0.15,5.35-1.64,7.58c-3.66,4.58-6.66,8.91-6.85,14.99c-0.21,7.02,1.61,13.27,1.92,20.27L227.39,478.23z"/>
	<path class="st1" d="M319.67,233.27c-2.23,3.79,40.67,8.05,42.12,11.96c-11.4-2.64-49.15-4.65-58.97-2.31
		C307.38,238.46,313,235.25,319.67,233.27z"/>
	<path class="st1" d="M262,234.53c2.23,3.79-15.15,4.59-29.09,7.01l46.7,1.79L262,234.53z"/>
	<path class="st1" d="M403.54,172.98l-105.56-40.46l-128.7,65l10.24,69.28c-0.3-5.36-0.39-11.93,0.97-16.91
		c2.62-9.56,6.35-19.39,12.08-27.6c8.44-12.1,21.81-22.63,27.02-25.97c0,0,3.11,8.51,8.01,15.87c10.88,15.58,36.6,13.97,50.32,6.94
		c16.4-8.03,21.16-37.08,14.46-41.55l-11.81,14.3l-11.8-4.43c0.73-9.55,6.12-25.87,14.81-30.64c8.2-4.51,20.99-7.58,30.02-3.85
		c11.85,4.91,10.45,25.77,10.28,27.67c-0.67,7.7-13.11,22.28-13.11,22.28c6.02,31.12,29.91,29.6,51,14.54
		c3.86-2.95,7.55-5.78,11.3-9.46c0,0-0.59,8.63,1,11.98s6.2,9.8,10.94,12.49c4.72,2.68,10.87,5.04,16.26,4.46
		c7.86-0.85,15.07-3.64,19.02-9.75L403.54,172.98z"/>
	<path class="st1" d="M281.1,396.76c3.46,6.87,10.05,15.83,20.41,15.64c13.76-0.26,16.59-18.46,16.59-18.46L281.1,396.76z"/>
	<path class="st5" d="M297.5,245.54c29.79-6.86,57.74-2.18,86.87,4.52c5.19,1.17,15.57,6.36,15.57,6.36
		c-6.03,4.46-12.5,9.5-19.86,11.5c-16.74,4.69-38.22,1.44-54.29-3.47L297.5,245.54z"/>
	<path class="st6" d="M364.29,270.15c-0.42-9.55-4.29-18.36-12.56-26.22c-19.86-2.65-37.59-1.69-53.74,1.93
		C311.04,261.99,332.68,270.49,364.29,270.15z"/>
	<path class="st7" d="M223.83,187.06c-22.76,13.39-67.95,50.39-34.65,85.19c-5.36,1-10.54,0.67-15.73-1
		c-11.72-3.68-19.22-10.78-21.9-22.49c-3.35-14.56,1.91-23.7,14.03-36.09c-18.17-16.64-21.76-47.53-7.36-68.29
		c2.34-3.35,9.37-8.2,9.37-8.2c18.58,21.09,32.81,6.19,40.51-15.9c7.53-22.26,15.23-50.5,44.19-37.45
		c7.2,3.35,16.41,6.95,18.41,17.03c15.06-25.94,51.89-49.21,73.14-15.73c7.53,12.05,12.22,18.75,27.28,13.89
		c13.89-4.35,27.62-12.55,42.35-5.52c10.04,4.85,18.23,13.49,16.24,26.61c-25.77-11.9-23.86,44.52,3.18,42.01
		c4.33-0.4,10.21-5.36,10.21-5.36c11.35,26.38,8.87,48.37-9.21,67.95c-12.39,13.39-29.96,10.54-43.52-0.17
		c-8.37-6.36-13.89-25.61-13.89-25.61c-14.06,14.39-36.49,32.81-56.07,15.23c-3.18-2.85-5.69-6.69-8.37-9.88
		c0,0,22.24,3.78,18.91-33.98c-1.59-18.07-17.24-34.14-37.83-31.47c-18.75,2.51-47.19,36.33-23.6,49.04
		c12.65,6.82,21.42-8.54,21.42-8.54c-0.5,14.9-3.35,30.96-19.08,37.16c-13.89,5.36-31.64-0.17-40.84-11.88
		C227.18,198.78,225.17,193.09,223.83,187.06z"/>
	<path class="st5" d="M282.94,245.54c-29.79-6.86-56.47-3.45-85.59,3.25c-5.19,1.17-16.84,6.38-16.84,6.38
		c6.02,4.46,12.5,10.75,19.86,12.76c16.74,4.69,38.22,1.44,54.29-3.47L282.94,245.54z"/>
	<path class="st6" d="M226.31,269.48c-0.13-9.08,4.12-17.73,13.15-25.91c14.23-2.54,28.03-0.91,41.66,2.5
		C273.55,260.33,254.97,267.95,226.31,269.48z"/>
	<path class="st1" d="M289.91,247.39c2.9,10.94,16.96,39.5-5.58,33.25L289.91,247.39z"/>
	<path class="st5" d="M334.12,325.15c0,0,13.96-18.22,10.41-30.24c-6.19-20.59-34.48-11.72-47.2-3.85c-1.67,1-5.34,2.56-5.34,2.56
		c-16.59-8.09-40.42-24.15-55.42-9.43c-5.36,7.36-12.4,21.67,4.02,38.16c2.68,2.01,5.36,4.02,7.95,6.79c0,0-20.81,19.35-12.63,33.55
		c3.4,5.9,10.04,10.04,16.57,11.55c21.59,4.69,41.01-15.12,41.01-15.12c7.89,5.68,19.04,8.83,28.84,9.72
		c10.09,0.92,20.08-6.93,23.72-16.85C350.47,339.9,342.24,333.33,334.12,325.15z"/>
	<g>
		<path class="st8" d="M307.32,347.22c4.35,3.81,10.3,3.14,14.3,0.28c3.56-2.54,8.68-7.22,2.75-13.71L307.32,347.22z"/>
		<path class="st8" d="M278.15,302.79c-5.7-5.19-15.67-12.42-23.42-5.44c-3.42,3.08-4.41,6.33-3.94,11.02
			c0.48,4.74,4.18,7.96,8.05,10.22L278.15,302.79z"/>
		<path class="st8" d="M307.78,299.26c-15.69,9.59-26.52,23.78-42.75,33.32c-4.35,2.68-12.72,5.52-13.39,11.38
			c-0.67,5.35,4.02,11.21,8.2,13.72c5.36,3.18,10.04,0.67,14.23-3.01c5.19-4.35,9.87-9.21,15.06-13.39
			c5.19-4.18,10.04-8.37,15.06-12.39c4.69-3.85,10.04-7.03,14.06-11.38C325.62,309.48,318.29,294.47,307.78,299.26z"/>
	</g>
	<g>
		<path d="M284.79,278.97c-2.16-0.57-3.07,2.77-0.92,3.33c3.69,0.97,8.31,1.8,11.6-0.7c2.81-2.14,3.28-5.84,3.12-9.14
			c-0.44-8.88-4.71-17.08-7.01-25.53c-0.59-2.15-3.92-1.23-3.33,0.92c1.87,6.86,4.76,13.38,6.27,20.35c0.63,2.93,1.3,6.66-0.12,9.47
			C292.7,281,287.55,279.7,284.79,278.97z"/>
		<path d="M380.5,412.28c-2.58,0.16-4.66,1.34-6.32,3.04c0.53-6.04-0.21-11.91-5.65-14.19c-7.89-3.29-13.19,5.55-16.21,13.13
			c-2.21-10-7.73-23.07-17.46-15.45c-4.89,3.82-5.4,11.53-5.73,17.18c-0.31,5.3,0.33,11.38-0.81,16.79
			c-1.51-2.61-3.98-4.47-7.41-4.9c-5.25-0.66-11.27,5.51-10.42,10.71c1.06,6.48,8.7,9.29,9.32,16.07c0.68,7.52-4.84,15.1-8.08,21.48
			c-1,1.98,1.98,3.73,2.98,1.74c4.3-8.49,11.99-19.4,6.85-29.1c-2.03-3.84-8.74-7.63-7.48-12.44c0.84-3.21,4.6-5.55,7.75-4.82
			c3.09,0.72,4.49,4.18,4.72,6.99c0.08,1.04,1.05,2.07,2.19,1.67c6.72-2.37,13.69-3.38,19.07,2.23c1.54,1.61,3.98-0.83,2.44-2.44
			c-5.4-5.64-12.35-5.94-19.26-4.1c2.98-9.68-0.09-20.6,3.34-30.27c0.84-2.39,2.44-4.26,4.69-5.4c2.7-1.36,4.8,1.81,5.97,3.75
			c3.05,5.06,4.58,11.65,4.97,17.49c0.13,1.91,2.83,2.39,3.39,0.46c1.53-5.29,6.58-21.67,14.91-17.09c3.13,1.72,2.44,7.5,2.23,10.37
			c-0.32,4.27-1.22,8.48-1.68,12.74c-0.21,1.93,3.11,2.38,3.39,0.46c0.64-4.27,4.22-15.7,10.71-12.21c2.25,1.21,2.83,5,3.26,7.23
			c0.73,3.79,0.64,7.66-0.01,11.45c-2.51,14.65-12.84,27.06-14.78,41.84c-0.29,2.2,3.17,2.18,3.46,0c0.66-4.99,2.7-9.49,4.65-14.07
			c1.95-4.58,3.79-9.22,5.73-13.81c3.37-7.95,5.82-16.13,4.52-24.84C388.99,418.77,386.99,411.87,380.5,412.28z"/>
		<path d="M283.61,428.43c-3.73-0.06-6.54,2.19-8.2,5.18c-2.67-11.18,2.77-26.05-7.02-34.24c-9.35-7.82-15.36,4.22-18.03,14.17
			c-1.72-7.34-4.56-15.32-12.46-13.17c-7.29,1.99-9.34,10.04-9.63,17.72c-1.88-2.59-4.45-4.55-7.91-5.18
			c-6.58-1.2-9.27,5.76-10.18,10.94c-1.59,9.01,1.09,17.34,4.71,25.5c2.04,4.6,4.06,9.22,6.11,13.81c2.12,4.77,4.3,9.31,5.03,14.53
			c0.31,2.2,3.64,1.26,3.33-0.92c-0.98-7-4.49-13.3-7.21-19.73c-3.03-7.17-6.83-13.98-8.48-21.65c-1.13-5.28-1.24-14.13,2.98-18.3
			c2.81-2.78,7.35,0.87,9,3.16c1.82,2.51,2.63,5.67,3.11,8.68c0.3,1.92,3.59,1.47,3.39-0.46c-0.74-7.22-1.95-19.53,5.18-24.11
			c8.37-5.39,10.18,13.48,11.53,18.1c0.57,1.94,3.26,1.45,3.39-0.46c0.42-5.88,2.16-12.01,5.09-17.12c1.12-1.96,2.87-4.36,5.35-4.45
			c2.71-0.09,4.98,2.84,6.08,4.94c2.71,5.14,2.32,11.95,2.46,17.58c0.12,4.47,0.12,9.2,1.46,13.52c-7.32-1.87-14.73-1.66-20.57,4.07
			c-1.59,1.56,0.85,4.01,2.44,2.44c5.8-5.69,13.36-4.58,20.44-2.23c1.14,0.38,2.1-0.61,2.19-1.67c0.48-5.72,6.14-9.42,11.01-5.46
			c5.47,4.46,0.03,8.18-3,11.9c-7.08,8.72-2.37,21.72-1.83,31.72c0.12,2.22,3.58,2.23,3.46,0c-0.43-8.02-3.18-16.62-1.37-24.59
			c1.34-5.9,8.08-8.61,8.78-14.64C294.87,432.71,288.15,428.51,283.61,428.43z"/>
		<path d="M369.54,271.52c5.3-0.48,10.81-1.46,15.69-3.68c5.65-2.58,10.58-6.28,15.54-9.97c0.59-0.43,1.03-1.12,0.77-1.89
			c-0.85-2.54-2.16-3.2-4.75-4.25c-4.27-1.73-8.78-2.54-13.25-3.57c-9.54-2.19-19.14-4.14-28.83-5.57
			c-17.04-2.51-34.28-2.87-51.22,0.07c9.47-6.38,20.75-10.7,31.54-13.73c13.19-3.69,26.92-4.98,40.57-5.02
			c2.23-0.01,2.23-3.47,0-3.46c-14,0.04-27.95,1.49-41.49,5.15c-12.66,3.42-25.86,8.92-36.37,16.98c-1.03-1.73-1.97-3.54-2.81-5.4
			c-0.91-1.96-3.79-0.26-2.9,1.7c1.15,2.5,2.46,4.86,3.92,7.1c0.1,0.32,0.29,0.62,0.54,0.84c3.21,4.74,7.18,8.86,12.14,12.11
			c7.96,5.23,17.74,7.75,26.92,9.85C346.64,271.29,358.18,272.53,369.54,271.52z M377.61,250.26c3.95,0.86,7.91,1.72,11.85,2.65
			c1.83,0.42,3.62,0.97,5.4,1.62c1.39,0.5,2.34,0.66,2.96,1.4c-3.92,2.9-7.86,5.75-12.19,8.03c-4.93,2.6-10.59,3.63-16.08,4.21
			c-1.21,0.13-2.43,0.22-3.65,0.29c-0.4-8.57-4.06-15.68-9.18-22.21C363.72,247.33,370.68,248.75,377.61,250.26z M311.73,256.91
			c-4.57-2.64-8.27-6.18-11.3-10.28c16.55-3.37,33.36-3.34,50.1-1.26c0.37,0.05,0.74,0.11,1.11,0.15
			c5.89,6.74,10.37,13.97,10.8,23.04c-8.37,0.1-16.78-1.06-24.94-2.78C328.69,263.9,319.59,261.44,311.73,256.91z"/>
		<path d="M445.22,155.95c-0.04-0.13-0.1-0.25-0.16-0.37c-0.1-0.21-0.18-0.42-0.28-0.63c-0.81-1.74-3.13-0.67-3.16,0.93
			c-5.3,6.61-14.97,4.24-20.49-0.92c-4.41-4.12-6.71-10.11-7.65-15.96c-0.83-5.16-0.4-11.08,2.4-15.61
			c3.05-4.92,8.66-4.51,13.32-2.24c1.49,0.72,2.86-0.77,2.6-1.98c0-0.01,0-0.01,0-0.02c1.17-17.16-14.37-30.66-30.86-30.57
			c-9.62,0.05-18.75,4.51-27.65,7.58c-7.28,2.51-14.39,3.76-20.27-2.13c-5.44-5.45-8.35-12.89-13.8-18.4
			c-4.62-4.68-10.61-7.87-17.1-8.93c-13.1-2.14-25.91,4.69-35.67,12.8c-5.81,4.84-10.86,10.66-14.99,17.01
			c-2.31-4.82-6.69-8.3-11.24-11.11c-5.77-3.56-12.28-6.31-19.07-6.98c-11.13-1.09-19.14,6.74-24.15,15.78
			c-6.4,11.55-8.58,24.84-14.64,36.52c-2.95,5.68-7.22,11.76-13.54,13.89c-7.73,2.61-14.91-3.85-19.64-9.11
			c-0.86-0.95-2.02-0.55-2.58,0.28c-6.7,4.44-11.22,9.6-14.32,17.12c-2.89,7.01-4.2,14.46-4.16,22.04
			c0.08,14.1,5.51,28.31,15.46,38.36c-5.2,5.07-9.9,10.56-12.69,17.36c-3.04,7.45-2.14,15.93,0.76,23.25
			c2.82,7.14,8.02,12.71,14.36,16.31c-7.79,11.73-10.26,25.6-4.83,39.67c6.61,17.1,21.56,29.46,37.13,38.38
			c0.01,0,0.01,0.01,0.02,0.01c1.61,2.52,3.31,4.98,5.12,7.37c-5.87-2.77-12.83-3.52-18.85-0.75c-6.17,2.84-10.64,8.26-13.36,14.38
			c-2.67,6-3.53,12.69-3.58,19.21c-0.08,9.07,0.63,18.23,1.37,27.26c1.54,18.5,4.54,36.84,8.24,55.03c0.44,2.18,3.77,1.25,3.32-0.92
			c-3.3-16.23-6-32.55-7.64-49.01c-0.81-8.2-1.32-16.42-1.62-24.65c-0.25-6.86-0.4-13.57,1.27-20.29
			c1.56-6.29,4.93-12.04,10.16-15.96c6.6-4.94,14.83-3.72,21.62,0.11c2.12,1.19,4.12,2.53,6.03,3.98c3.09,3.38,6.41,6.58,9.93,9.58
			c4.63,5.59,8.41,11.94,11.4,18.55c0.92,2.02,3.9,0.27,2.99-1.74c-1.55-3.42-3.3-6.73-5.26-9.9
			c15.03,10.07,32.46,15.92,50.31,17.42c4.48,8.53,12.96,18.55,23.69,15.71c9.29-2.45,12.97-11.25,16.3-19.27
			c0.07-0.17,0.11-0.34,0.13-0.49c2.98-0.88,5.93-1.87,8.83-3c9.52-3.72,18.15-8.92,25.89-15.2c-2.86,4.95-5.25,10.12-7.14,15.19
			c-0.12,0.32-0.22,0.64-0.34,0.95c-0.73,2.11,2.6,3.02,3.33,0.92c5.44-15.59,16.05-31.3,30.24-40.07c7.27-4.5,16.36-7.4,24.56-3.78
			c6.85,3.04,12.23,9.71,15.02,16.53c3.57,8.7,0.72,18.66-0.44,27.54c-1.11,8.47-2.15,16.77-4.12,25.1
			c-3.98,16.86-9.76,33.25-13.33,50.22c-0.45,2.18,2.88,3.09,3.33,0.92c3.96-18.84,10.57-37.01,14.6-55.85
			c2.01-9.42,2.81-19.05,4.22-28.57c1.34-8.98,1.16-17.53-3.51-25.54c-3.84-6.61-9.9-12.09-17.18-14.58
			c-8.01-2.73-16.91,0.54-23.91,4.44c-0.89,0.5-1.76,1.03-2.62,1.58c0.48-0.7,0.93-1.42,1.4-2.13c0.15-0.04,0.3-0.09,0.45-0.17
			c16.71-9.16,32.38-21.85,39.77-40.08c6.96-17.19,1.16-34.68-11.11-47.59c1.36-7.95,2.65-15.91,4.04-23.83
			c0.39-2.18-2.95-3.11-3.33-0.92c-6.95,39.69-11.77,81.32-35.6,115.2c-10.17,14.46-23.81,26.34-39.75,34.02
			c-18.62,8.98-40.14,11.6-60.48,8.53c-18.85-2.85-36.23-11.07-50.54-23.19c-2.77-3.19-5.81-6.12-9.14-8.74
			c-2.55-2.74-4.97-5.62-7.24-8.62c-0.85-1.13-1.67-2.27-2.45-3.43c-0.96-1.37-1.88-2.76-2.75-4.16
			c-13.45-21.52-19.38-47.13-25.09-71.63c4.52,1.08,9.26,1.31,13.94,0.6c0.17,0.01,0.35-0.02,0.51-0.07
			c0.02-0.01,0.04-0.01,0.06-0.01c0.96-0.16,1.32-0.91,1.23-1.65c0.02-0.41-0.12-0.86-0.47-1.24c-3.29-3.5-6.09-7.34-8.11-11.52
			c3.67,2.69,7.41,5.26,11.5,7.27c4.88,2.4,10.29,3.4,15.65,4.05c11.3,1.36,22.93-0.06,34.01-2.4c9.36-1.98,19.03-4.66,27.29-9.64
			c5.32-3.2,9.56-7.58,12.93-12.63c0.17-0.17,0.3-0.39,0.4-0.61c1.49-2.3,2.81-4.74,3.97-7.26c0.9-1.96-1.99-3.65-2.89-1.7
			c-0.86,1.87-1.79,3.67-2.82,5.4c-10.24-7.84-22.92-13.07-35.2-16.65c-13.82-4.01-28.32-5.43-42.66-5.47
			c-2.23-0.01-2.23,3.45,0,3.46c13.31,0.04,26.52,1.36,39.41,4.71c11.18,2.89,22.94,7.43,32.73,14.04c-16.56-2.86-33.3-2.52-50-0.24
			c-9.69,1.32-19.28,3.3-28.81,5.45c-4.52,1.01-9.11,1.85-13.47,3.43c-1.82,0.66-3.31,1.24-4.4,2.35c-0.63-2.42-1-4.93-1.04-7.55
			c-0.15-8.7,3.55-16.98,8.21-24.13c8.7-13.34,21.9-24.1,35.47-32.27c2.47,9.47,7.11,17.38,15.3,23.13
			c7.66,5.39,17.82,7.98,27.09,6.73c9.31-1.26,17.21-6.22,21.95-14.38c4.4-7.58,5.39-16.82,5.74-25.45c0.64-0.9,0.18-1.76-0.61-2.17
			c-0.88-0.61-2.38-0.32-2.74,0.89c-2.75,3.48-5.97,6.73-10.23,8.26c-4.48,1.61-9.25-0.44-12.67-3.38
			c-4.51-3.87-4.89-9.7-3.35-15.08c3.32-11.66,14.61-22.67,25.77-26.94c15.2-5.81,31.48,4.37,37.75,18.14
			c3.34,7.35,3.57,16.43,2.49,24.32c-0.9,6.59-3.67,12.8-9.63,16.19c-2.07,1.19-4.42,1.81-6.77,2.21c-0.52-0.22-1.07-0.09-1.5,0.26
			c-1.44,0.4-1.19,2.3-0.05,3.02c4.78,5.83,8.98,11.48,16,14.82c5.57,2.66,11.76,2.85,17.71,1.56c11.88-2.58,22.06-11.31,30.6-19.81
			c1.31,5.16,3.07,10.17,5.89,14.73c3.44,5.59,8.74,9.75,14.35,13.02c10.96,6.38,24.53,7.34,35.07-0.33
			c10.83-7.86,17.68-22.1,19.91-34.99C453.26,181.32,450.63,167.97,445.22,155.95z M386.94,334.25
			c10.82-21.83,15.97-45.44,20.15-69.24c5.14,5.83,9.07,12.48,10.79,20.22c1.76,7.9,0.33,16.21-2.82,23.55
			c-6.34,14.81-19.07,25.63-32.59,33.75C384.05,339.82,385.54,337.06,386.94,334.25z M315.79,395.02c-2.64,6.3-5.5,12.28-12.32,15
			c-8.36,3.35-15.56-4.95-19.6-11.81C294.56,398.7,305.35,397.65,315.79,395.02z M188.98,330.7c1.67,3.85,3.52,7.61,5.55,11.25
			c0-0.01-0.01-0.01-0.01-0.01c-12.33-7.9-23.26-18.04-29.44-31.58c-6.12-13.42-3.67-27.15,4.03-38.54c0.84,0.38,1.7,0.71,2.57,1.02
			C176.28,292.47,180.95,312.14,188.98,330.7z M241.25,244.25c12.96-0.86,25.97-0.22,38.73,2.38c-2.87,3.84-6.33,7.18-10.57,9.85
			c-7.59,4.77-16.77,7.09-25.42,9.07c-5.34,1.21-10.75,2.1-16.22,2.57C226.25,258.95,235.16,249.96,241.25,244.25z M183.89,255.26
			c1.88-0.96,3.97-1.53,5.99-2.08c3.85-1.03,7.79-1.78,11.69-2.65c8.7-1.94,17.46-3.63,26.28-4.88c2.66-0.38,5.32-0.69,7.99-0.95
			c-6.26,6.34-12.74,14.77-11.49,23.66c-4.11,0.23-8.24,0.21-12.35-0.1c-5.51-0.4-11.11-1.49-16.15-3.8
			c-4.79-2.19-9.08-5.43-13.29-8.58C182.77,255.66,183.07,255.68,183.89,255.26z M431.45,224.65c-9.11,8.88-22.17,8.17-32.78,2.64
			c-5.58-2.91-10.56-7.01-14.02-12.28c-3.2-4.88-4.83-10.63-6.11-16.26c0.15-1.4-1.67-2.74-2.93-1.45
			c-8.37,8.53-17.82,17.07-29.44,20.71c-5.98,1.86-12.26,1.53-17.92-1.17c-5.43-2.59-9.01-7.14-12.63-11.69
			c4.89-1.19,9.37-3.67,12.38-7.88c3.83-5.36,5-11.94,5.29-18.39c0.68-15.1-4.63-29.52-17.93-37.69
			c-6.51-4.01-14.35-5.35-21.88-4.48c-5.44,0.64-10.52,3.45-14.92,6.59c-9.32,6.66-18.22,17.22-19.43,29
			c-0.72,7.04,3.22,12.9,9.16,16.29c7.96,4.54,15.33,1.01,21-4.61c-0.48,6.17-1.55,12.3-4.21,17.93
			c-3.63,7.67-10.59,12.43-18.8,14.05c-8.43,1.66-17.43-0.73-24.69-5.04c-8.87-5.27-13.48-13.93-15.73-23.74
			c-0.27-1.15-1.31-1.43-2.18-1.12c-0.44-0.22-0.97-0.24-1.53,0.09c-15.22,9.01-29.72,21.11-39.07,36.3
			c-4.67,7.58-7.62,16.33-7.25,25.31c0.38,8.97,4.57,17.03,10.24,23.77c-5.18,0.38-10.28-0.54-14.89-2.53
			c-1.08-0.46-2.14-0.99-3.16-1.58c-6.19-3.53-11.17-9.12-13.73-16.19c-2.33-6.41-2.45-13.23-0.08-19.62
			c2.43-6.55,7.66-11.89,12.6-16.63c0.24-0.23,0.39-0.48,0.46-0.72c0.5-0.62,0.63-1.52-0.13-2.23
			c-9.92-9.37-15.05-22.58-15.57-36.09c-0.26-6.6,0.81-13.16,2.97-19.4c1.11-3.2,2.66-6.21,4.44-9.1c2.22-3.58,5.38-6.01,8.81-8.3
			c4.2,4.46,9.44,8.76,15.71,9.38c5.42,0.55,10.13-1.75,14.05-5.35c9.78-8.94,12.74-23.15,17.1-35.1
			c3.58-9.84,8.68-22.37,19.71-25.63c6.38-1.88,13.3,0.45,19.02,3.22c6.39,3.08,13.85,7.42,15.82,14.72
			c0.04,0.12,0.09,0.23,0.13,0.33c0.27,1.34,2.3,2.1,3.2,0.59c7.31-12.43,18.52-23.58,32.08-28.93c6.22-2.47,13.01-3.32,19.54-1.7
			c7.68,1.92,13.62,7.61,17.95,13.99c3.7,5.45,6.8,11.61,12.6,15.17c5.99,3.66,13.31,1.74,19.47-0.31
			c9.52-3.18,18.78-7.77,29.05-7.43c9.79,0.32,18.72,6.92,23.03,15.49c1.48,2.97,2.1,6.25,2.12,9.55c-5.16-1.79-10.69-1.5-14.5,3.15
			c-4.22,5.16-4.74,12.77-3.83,19.11c1.07,7.37,4.35,14.72,10.26,19.45c6.69,5.34,16.41,6.35,22.64,0.55
			C452.19,181.61,449.26,207.3,431.45,224.65z"/>
		<path d="M240.36,370.43c14.01,10.61,30.87,5.71,44.26-3.18c2.94-1.95,5.75-4.07,8.5-6.27c7.28,4.94,15.84,7.64,24.47,9.02
			c8.46,1.36,15.62-0.23,22.2-5.88c5.63-4.83,10.15-13.15,9.06-20.73c-1.11-7.73-7.16-13.2-12.49-18.45
			c2.77-3.08,5.25-6.41,7.25-10.06c4.53-8.29,5.32-19.61-0.93-27.31c-5.74-7.07-15.12-7.73-23.52-6.49
			c-9.35,1.39-18.8,5.45-26.53,10.94c-15.09-7.46-35.23-21.78-52.41-12.71c-8.98,4.74-11.62,16.61-10.39,25.94
			c0.61,4.61,2.54,9.75,5.37,13.46c3.25,4.26,7.49,7.15,11.26,10.82c-4.79,5.69-9.18,12.09-11.95,18.89
			C231.1,356.79,233.06,364.91,240.36,370.43z M345.21,342.52c2,7.38-3.32,15.27-8.63,19.82c-6.3,5.4-13.64,5.23-21.33,3.75
			c-6.8-1.3-13.46-3.68-19.31-7.41c2.73-2.25,5.41-4.56,8.11-6.83c1.02-0.85,2.05-1.68,3.08-2.51c0.18,0.23,0.42,0.43,0.74,0.56
			c6.22,2.58,12.05,1.52,17.08-2.86c4.36-3.79,4.61-8.6,1.76-12.96c2.52-2.1,4.97-4.3,7.28-6.63
			C338.48,331.84,343.53,336.32,345.21,342.52z M310.06,347.04c3.5-2.72,7.06-5.37,10.57-8.09c1.14-0.89,2.29-1.78,3.43-2.7
			c2.05,3.26,1.02,6.11-2.08,8.8C318.45,348.13,314.24,348.43,310.06,347.04z M239.88,318.86c-3.26-3.63-5.47-8.17-6.47-12.97
			c-2.01-9.63,1.59-21.29,11.37-24.87c7.69-2.81,16.42,0.01,23.65,2.9c7.24,2.9,14.02,6.81,20.97,10.32
			c-3.44,2.33-6.89,4.67-10.31,7.06c-7.1-6.3-16.96-12.29-25.57-5.18c-3.73,3.08-5.09,8.04-4.39,12.7
			c0.69,4.57,3.67,7.78,7.31,10.26c-2.5,2.32-4.91,4.73-7.22,7.27c-0.16,0.18-0.32,0.37-0.49,0.55
			C245.83,324.16,242.56,321.86,239.88,318.86z M276.19,303.36c-5.91,4.2-11.68,8.57-17.1,13.35c-3-1.9-5.56-4.2-6.48-7.8
			c-1-3.92,0.55-7.66,3.35-10.33C262.18,292.63,270.97,298.81,276.19,303.36z M239.79,345.5c2.36-4.43,5.22-8.6,8.34-12.54
			c12.24-15.42,29.12-26.29,45.22-37.22c9.93-7.36,24.19-13.44,36.77-11.44c6.68,1.06,11.2,5.47,12.99,11.92
			c2.01,7.27-0.66,14.51-4.66,20.55c-3.92,5.92-9.06,10.84-14.58,15.35c-0.3,0.13-0.56,0.35-0.76,0.62
			c-5.64,4.54-11.64,8.7-17.17,13.11c-12.93,10.3-25.43,23.81-42.38,26.95c-9.4,1.74-20.33-1.88-25.65-10.08
			C234.24,357.08,236.97,350.78,239.79,345.5z"/>
		<path d="M265.95,360.79c3.6-0.28,6.69-2.64,9.33-4.89c4.16-3.55,8.09-7.36,12.19-10.97c8.12-7.16,16.7-13.91,25.35-20.4
			c5.64-4.24,10.93-9.04,10.3-16.66c-0.43-5.2-4.21-10.14-9.57-10.78c-3.28-0.39-6.23,0.7-9.18,1.97c-0.18,0.04-0.36,0.12-0.55,0.24
			c-0.22,0.1-0.39,0.22-0.53,0.36c-15.26,10.23-26.7,25.03-43.16,33.62c-5.84,3.04-11.09,6.74-10.05,14.01
			C251.09,354.29,258.84,361.34,265.95,360.79z M253.64,342.96c0.83-2.81,4.4-4.6,6.75-5.91c2.93-1.64,5.88-3.14,8.71-4.96
			c13.29-8.51,23.28-21.13,36.46-29.82c3.1-1.36,6.43-2.66,9.72-1.13c2.31,1.08,3.6,3.43,4.22,5.79
			c2.03,7.77-6.08,12.91-11.34,16.77c-6.64,4.88-12.84,10.31-19.22,15.51c-6.67,5.44-12.61,12.8-20.1,17.08
			C261.55,360.46,251.43,350.45,253.64,342.96z"/>
	</g>
</g>
<image class="sticker-draft" width="600" height="600" xlink:href="sticker-patch.webp"></image>
</g>
</svg>
