<?xml version="1.0" encoding="utf-8"?>
<svg xmlns="http://www.w3.org/2000/svg" xmlns:xlink="http://www.w3.org/1999/xlink"
	viewBox="0 0 600 600">
<style type="text/css">
	.st0{fill:#FFFFFF;}
	.st1{fill:#007841;}
	.st2{fill:#009362;}
	.st3{fill:#FFB8B3;}
	.st4{fill:#0075C5;}
	.st5{fill:#FF8F8F;}
	.st6{fill:#AF0000;}
	.st7{fill:#FFEEE0;}
	.st8{fill:#640000;}
	.st9{fill:#B50002;}
	.st10{fill:#EDEDED;}
	.st11{fill:#000B1F;}

	.shw{fill:#2C191C;transform: scale(103%);transform-origin: 50% 50%;filter:blur(3px);opacity:0.13;}

	.sticker-draft,.sticker{transition:all .5s cubic-bezier(0.75, 0.35, 0.4, 0.99);}
	.sticker{overflow:visible;opacity:1;}
	.sticker-draft{overflow:visible;opacity:0;}

	.main:hover{
		.sticker{opacity:0;}
		.sticker-draft{opacity:1;}
	}
</style>

<g class="main">
<g>
	<g class="shw">
		<path d="M480.99,510.88c0.08-4.38-10.86-12.01-14.89-0.75c-0.24,0.75-0.48,6.45-0.48,6.45
			c-0.38,0.04-1.51,0.14-1.61,0.15c0-0.15-0.2-6.76-1.19-8.46c-2.63-3.32-7.39-4.25-10.82-1.44c-6.47-7.52-13.33,3.65-14.82,7.03
			c-5.64-5.8-15.87-19.04-18.85-3.69c-0.77-3-14.28-12.72-20.5-7.9c-5.57,4.32-6.23,23.96-6.43,25.97
			c-1.47-4.95-5.92-18.07-8.58-23.89c-0.57-1.48-7.11-5.94-11.03,0.49c-0.01,0.01-14.75,31.52-14.93,32.04
			c-0.26-0.18-9.03-9.39-9.57-10.07c0.96-0.97,9.85-9.93,10.4-10.79c4.95-6.02-4.03-17.59-13.84-7.34
			c-0.9-5.59-11.93-8.69-13.08-3.09c-1.12,1.11-4.75,35.8-4.79,36.09c0.56,12.44,15.61,9.58,15.4,1.89
			c4.49,5.58,11.03,8.72,14.63,5.98c4.96,5.6,12.74-0.75,13.16-2.6c0.7-1.3,4.23-9.92,4.56-10.72c0.43-0.03,3.73-0.23,3.79-0.23
			c-0.28,2.03,3.69,21.65,15.16,15.18c7.83,4.29,21.87,2.07,25.57-2.45c4.84-7.67,10.16-15.48,0.86-25.3
			c0.11-0.23,1.39-6.4,1.37-6.57c0.63,0.95,9.35,12.62,9.53,12.85c-0.14,0.29-4.85,11.05-5.18,12.13c-1.82,7.43,7.21,8.08,12.02,5.77
			c2.1-1.51,10.3-17.84,11.36-20.09c-0.02,1.8,0.1,15.96,0.21,16.89c0.45,3.82,1.48,6.94,7.48,6.94c6,0,7.55-3.03,7.55-4.4
			c0-1.37,0.24-15.04,0.24-15.04c0.96-0.09,1.65-0.15,2.07-0.19c1.26,17.38,0.21,21.05,8.51,20.89c5.37-0.31,7.85-2.37,7.85-7.86
			C482.12,544.51,480.99,510.88,480.99,510.88z M408.49,536.42c-0.41,1.13-1.22,1.16-2.39,1.66c0.09-1.2,0.27-3.23,0.41-4.65
			c0.94,0.14,1.26,0.35,2.16,1.2C408.83,535.69,408.95,535.38,408.49,536.42z"/>
		<path d="M315.66,522.38c0.31-5.67,3.4-15.04-5.58-16.95c-2.25-9.86-15.03-5.93-17.97,0.51
			c-1.18-0.74-8.39-1.77-10.78,3.31c-8.11-9.91-25.25-7.84-33.28,1.65c-0.19-4.57-1-9.09-10.05-9.29c-8.07,0.75-21.8-0.72-25.17,4.04
			c-4.26-6.32-20.62-4.91-26.65-2.35c-2.83,1.54-7.31,7.48-8,9.14c-1.1-5.85-12.21-10.96-17.69-11.26c-2.67,0-6.84,3.14-7.63,5.11
			c-12.22-5.96-28.39-6.02-34.91,15.97c-2.73,28.43,18.24,32.06,31.52,25.65c3.86,11.91,23.3,3.34,27.92,0.45
			c-0.26,2.45,3,5.8,7.35,5.8c8.7-1.18,11.34-12.56,15.91-19.18c0.17-0.01,0.34-0.03,0.54-0.04c0.12,3.18,0.53,12.78,1.01,13.67
			c3.89,8.44,15.74,2.43,14.75-7.06c0-1.17-0.99-21.69-1.14-23.75l4.92-0.15c0,0,0.45,25.74,0.5,26.33c0.57,4.34,2.94,7.43,7.81,7.45
			c2.49,0,7.83-2.22,7.54-9.04c0-1.18-0.29-24.25-0.27-25.61c0,0,7.53,0.01,8.86-1.7c-2.69,3.21-2.35,17.51-1.78,20.29
			c1.52,4.81,4.27,8.44,8.88,10.88c9.29,2.84,20.64,3.67,27.76-5.48c0.37,2.5,0.93,8.63,8.19,8.1c4.41,0,12.4-12.11,12.4-12.11
			c0.27,6.18,0.29,6.34,0.36,6.73c0.48,5.79,8.39,6.53,12.66,4.46C318.59,545.13,315,527.22,315.66,522.38z M150.8,521.73
			c-0.47,4.32-0.85,8.07-1.14,11.29c-4.8-1.96-7.8,3.59-13.02,2.49c-3-2.23-3.94-2.37-3.94-7.04c0.25-5.01,3.09-11.05,8.72-11.07
			c3.7,0.3,6.04,2.89,9.8,0.48C151.1,519.05,150.96,520.33,150.8,521.73z M167.21,536.42c-0.41,1.13-1.22,1.16-2.39,1.66
			c0.09-1.2,0.27-3.23,0.41-4.65c0.94,0.14,1.26,0.35,2.16,1.2C167.55,535.69,167.67,535.38,167.21,536.42z M199.12,519.94
			c-3.63-0.26-4.85,0.41-6.68-1.52c0.71-3.26,4.71-2.38,7.73-2.44c0.15,1.12,0.34,2.97,0.42,3.94
			C200.17,519.93,199.68,519.94,199.12,519.94z M269.53,528.59c-1.66,3.77-3.67,5.57-7.85,4.76c-1.87-0.31-1.76,0.03-2.8-1.29
			c-1.24,0.01-1-8.53-0.71-8.89c1.95-3.25,3.37-5.97,7.97-5.47C271.48,517.24,271.11,524.93,269.53,528.59z"/>
		<path d="M173.96,100.32c10.65,10.65,26.41-2.77,14.14-14.14c-5.93-5.5-8.46-9.43-14.77-14.5
			c-7.01-5.44-24.56,2.6-14.54,13.16C158.8,84.84,168.24,94.61,173.96,100.32z"/>
		<path d="M385.62,59.56c-7.85,3.83-15.66,7.88-21.93,14.04c-7.6,7.47,2.13,24.7,13.8,13.8
			c3.34-3.12,12.36-8.08,18.22-10.58C404.96,72.88,400.64,52.34,385.62,59.56L385.62,59.56z"/>
		<path d="M408.95,123.32c2.78-0.82,5.6-1.49,8.43-2.11c12.6-2.79,9.08-22.89-5.32-19.29c-2.81,0.7-5.66,1.26-8.43,2.11
			C391.87,107.66,396.27,126.79,408.95,123.32L408.95,123.32z"/>
		<path d="M420.6,209.31c3.45,0.11,6.9,0.2,10.35-0.06c12.97-0.13,13.06-20,0-20c-3.46,0-6.9,0.07-10.35,0.06
			C407.86,189.25,407.81,209.74,420.6,209.31L420.6,209.31z"/>
		<path d="M136.22,228.25c6.24-0.76,18.7,0.17,20,0.39c11.18,1.81,19.84-16.69,5.32-19.29
			c-8.39-1.5-16.85-2.13-25.32-1.1C122.21,211.11,123.29,231.66,136.22,228.25L136.22,228.25z"/>
		<path d="M162.33,151.63c12.74,3.48,19.36-16.48,5.32-19.29c-5.61-1.12-9.22-2.06-14.91-2.74
			c-14.05-1.67-14.92,17.37-5.05,18.63C152.96,149.03,154.12,149.41,162.33,151.63z"/>
		<path d="M454.28,360.08c-11.07-30.22-54.96-143.4-61.24-151.62c3.16-11.7,4.29-23.95,2.76-36.38
			c-8.31-67.17-56.8-91.52-97.23-95.93c0.8-0.84,0.96-2.3,0.52-3.42c4.47,1.33,17.21-11.44,4.51-21.97
			c-14.7-12.18-30.91,1.03-30.38,7.84c-7.68,0.46-12.53,11.55-8.57,19.42c-37.88,12.03-85.26,57.3-84.72,111.23
			c0.12,11.98,1.73,22.79,4.51,32.52c-0.98,0.78-31.14,62.54-44.6,116.31c-13.81,55.17-26.53,105.24-20.72,146.37
			c-0.27,3.29,6.04,11.92,11.17,11.89c5.13-0.03,344.27-1.96,344.39-1.98c6.02-0.04,8.18-2.92,7.54-10.43
			C481.57,476.42,472.4,402.82,454.28,360.08z M342.19,379.03c-0.05-0.12-0.1-0.24-0.15-0.37c0.07,0.15,0.13,0.29,0.2,0.43
			C342.22,379.07,342.21,379.05,342.19,379.03z M357.94,336.09c-1.06-1.65-2.02-3-2.6-3.72c-2.51-3.16-10.44-10.03-17.25-12.9
			c-3.82-1.61-20.45-6.24-34.44-5.52c-5.1,0.26-10,1.39-14.79,2.8c0.01-0.23,1.04-10.87-0.95-13.45c-1.72-2.23-4.85-4.35-7.86-3.94
			c-1.72,0.23-10.35,0.87-17.74,14.03c-1.06-0.35-16.28-7.03-32.58-0.12c3.94-9.01,8.09-17.93,11.82-27.03
			c15.88,7.14,32.67,10.57,47.49,11.06c16.12,0.53,34.22-5.87,50.91-17.07c0.98,3.4,12.24,34.2,19.91,55.19
			C359.86,335.41,359.62,338.7,357.94,336.09z"/>
	</g>
	<g class="st0">
		<path d="M480.99,510.88c0.08-4.38-10.86-12.01-14.89-0.75c-0.24,0.75-0.48,6.45-0.48,6.45
			c-0.38,0.04-1.51,0.14-1.61,0.15c0-0.15-0.2-6.76-1.19-8.46c-2.63-3.32-7.39-4.25-10.82-1.44c-6.47-7.52-13.33,3.65-14.82,7.03
			c-5.64-5.8-15.87-19.04-18.85-3.69c-0.77-3-14.28-12.72-20.5-7.9c-5.57,4.32-6.23,23.96-6.43,25.97
			c-1.47-4.95-5.92-18.07-8.58-23.89c-0.57-1.48-7.11-5.94-11.03,0.49c-0.01,0.01-14.75,31.52-14.93,32.04
			c-0.26-0.18-9.03-9.39-9.57-10.07c0.96-0.97,9.85-9.93,10.4-10.79c4.95-6.02-4.03-17.59-13.84-7.34
			c-0.9-5.59-11.93-8.69-13.08-3.09c-1.12,1.11-4.75,35.8-4.79,36.09c0.56,12.44,15.61,9.58,15.4,1.89
			c4.49,5.58,11.03,8.72,14.63,5.98c4.96,5.6,12.74-0.75,13.16-2.6c0.7-1.3,4.23-9.92,4.56-10.72c0.43-0.03,3.73-0.23,3.79-0.23
			c-0.28,2.03,3.69,21.65,15.16,15.18c7.83,4.29,21.87,2.07,25.57-2.45c4.84-7.67,10.16-15.48,0.86-25.3
			c0.11-0.23,1.39-6.4,1.37-6.57c0.63,0.95,9.35,12.62,9.53,12.85c-0.14,0.29-4.85,11.05-5.18,12.13c-1.82,7.43,7.21,8.08,12.02,5.77
			c2.1-1.51,10.3-17.84,11.36-20.09c-0.02,1.8,0.1,15.96,0.21,16.89c0.45,3.82,1.48,6.94,7.48,6.94c6,0,7.55-3.03,7.55-4.4
			c0-1.37,0.24-15.04,0.24-15.04c0.96-0.09,1.65-0.15,2.07-0.19c1.26,17.38,0.21,21.05,8.51,20.89c5.37-0.31,7.85-2.37,7.85-7.86
			C482.12,544.51,480.99,510.88,480.99,510.88z M408.49,536.42c-0.41,1.13-1.22,1.16-2.39,1.66c0.09-1.2,0.27-3.23,0.41-4.65
			c0.94,0.14,1.26,0.35,2.16,1.2C408.83,535.69,408.95,535.38,408.49,536.42z"/>
		<path d="M315.66,522.38c0.31-5.67,3.4-15.04-5.58-16.95c-2.25-9.86-15.03-5.93-17.97,0.51
			c-1.18-0.74-8.39-1.77-10.78,3.31c-8.11-9.91-25.25-7.84-33.28,1.65c-0.19-4.57-1-9.09-10.05-9.29c-8.07,0.75-21.8-0.72-25.17,4.04
			c-4.26-6.32-20.62-4.91-26.65-2.35c-2.83,1.54-7.31,7.48-8,9.14c-1.1-5.85-12.21-10.96-17.69-11.26c-2.67,0-6.84,3.14-7.63,5.11
			c-12.22-5.96-28.39-6.02-34.91,15.97c-2.73,28.43,18.24,32.06,31.52,25.65c3.86,11.91,23.3,3.34,27.92,0.45
			c-0.26,2.45,3,5.8,7.35,5.8c8.7-1.18,11.34-12.56,15.91-19.18c0.17-0.01,0.34-0.03,0.54-0.04c0.12,3.18,0.53,12.78,1.01,13.67
			c3.89,8.44,15.74,2.43,14.75-7.06c0-1.17-0.99-21.69-1.14-23.75l4.92-0.15c0,0,0.45,25.74,0.5,26.33c0.57,4.34,2.94,7.43,7.81,7.45
			c2.49,0,7.83-2.22,7.54-9.04c0-1.18-0.29-24.25-0.27-25.61c0,0,7.53,0.01,8.86-1.7c-2.69,3.21-2.35,17.51-1.78,20.29
			c1.52,4.81,4.27,8.44,8.88,10.88c9.29,2.84,20.64,3.67,27.76-5.48c0.37,2.5,0.93,8.63,8.19,8.1c4.41,0,12.4-12.11,12.4-12.11
			c0.27,6.18,0.29,6.34,0.36,6.73c0.48,5.79,8.39,6.53,12.66,4.46C318.59,545.13,315,527.22,315.66,522.38z M150.8,521.73
			c-0.47,4.32-0.85,8.07-1.14,11.29c-4.8-1.96-7.8,3.59-13.02,2.49c-3-2.23-3.94-2.37-3.94-7.04c0.25-5.01,3.09-11.05,8.72-11.07
			c3.7,0.3,6.04,2.89,9.8,0.48C151.1,519.05,150.96,520.33,150.8,521.73z M167.21,536.42c-0.41,1.13-1.22,1.16-2.39,1.66
			c0.09-1.2,0.27-3.23,0.41-4.65c0.94,0.14,1.26,0.35,2.16,1.2C167.55,535.69,167.67,535.38,167.21,536.42z M199.12,519.94
			c-3.63-0.26-4.85,0.41-6.68-1.52c0.71-3.26,4.71-2.38,7.73-2.44c0.15,1.12,0.34,2.97,0.42,3.94
			C200.17,519.93,199.68,519.94,199.12,519.94z M269.53,528.59c-1.66,3.77-3.67,5.57-7.85,4.76c-1.87-0.31-1.76,0.03-2.8-1.29
			c-1.24,0.01-1-8.53-0.71-8.89c1.95-3.25,3.37-5.97,7.97-5.47C271.48,517.24,271.11,524.93,269.53,528.59z"/>
		<path d="M173.96,100.32c10.65,10.65,26.41-2.77,14.14-14.14c-5.93-5.5-8.46-9.43-14.77-14.5
			c-7.01-5.44-24.56,2.6-14.54,13.16C158.8,84.84,168.24,94.61,173.96,100.32z"/>
		<path d="M385.62,59.56c-7.85,3.83-15.66,7.88-21.93,14.04c-7.6,7.47,2.13,24.7,13.8,13.8
			c3.34-3.12,12.36-8.08,18.22-10.58C404.96,72.88,400.64,52.34,385.62,59.56L385.62,59.56z"/>
		<path d="M408.95,123.32c2.78-0.82,5.6-1.49,8.43-2.11c12.6-2.79,9.08-22.89-5.32-19.29c-2.81,0.7-5.66,1.26-8.43,2.11
			C391.87,107.66,396.27,126.79,408.95,123.32L408.95,123.32z"/>
		<path d="M420.6,209.31c3.45,0.11,6.9,0.2,10.35-0.06c12.97-0.13,13.06-20,0-20c-3.46,0-6.9,0.07-10.35,0.06
			C407.86,189.25,407.81,209.74,420.6,209.31L420.6,209.31z"/>
		<path d="M136.22,228.25c6.24-0.76,18.7,0.17,20,0.39c11.18,1.81,19.84-16.69,5.32-19.29
			c-8.39-1.5-16.85-2.13-25.32-1.1C122.21,211.11,123.29,231.66,136.22,228.25L136.22,228.25z"/>
		<path d="M162.33,151.63c12.74,3.48,19.36-16.48,5.32-19.29c-5.61-1.12-9.22-2.06-14.91-2.74
			c-14.05-1.67-14.92,17.37-5.05,18.63C152.96,149.03,154.12,149.41,162.33,151.63z"/>
		<path d="M454.28,360.08c-11.07-30.22-54.96-143.4-61.24-151.62c3.16-11.7,4.29-23.95,2.76-36.38
			c-8.31-67.17-56.8-91.52-97.23-95.93c0.8-0.84,0.96-2.3,0.52-3.42c4.47,1.33,17.21-11.44,4.51-21.97
			c-14.7-12.18-30.91,1.03-30.38,7.84c-7.68,0.46-12.53,11.55-8.57,19.42c-37.88,12.03-85.26,57.3-84.72,111.23
			c0.12,11.98,1.73,22.79,4.51,32.52c-0.98,0.78-31.14,62.54-44.6,116.31c-13.81,55.17-26.53,105.24-20.72,146.37
			c-0.27,3.29,6.04,11.92,11.17,11.89c5.13-0.03,344.27-1.96,344.39-1.98c6.02-0.04,8.18-2.92,7.54-10.43
			C481.57,476.42,472.4,402.82,454.28,360.08z M342.19,379.03c-0.05-0.12-0.1-0.24-0.15-0.37c0.07,0.15,0.13,0.29,0.2,0.43
			C342.22,379.07,342.21,379.05,342.19,379.03z M357.94,336.09c-1.06-1.65-2.02-3-2.6-3.72c-2.51-3.16-10.44-10.03-17.25-12.9
			c-3.82-1.61-20.45-6.24-34.44-5.52c-5.1,0.26-10,1.39-14.79,2.8c0.01-0.23,1.04-10.87-0.95-13.45c-1.72-2.23-4.85-4.35-7.86-3.94
			c-1.72,0.23-10.35,0.87-17.74,14.03c-1.06-0.35-16.28-7.03-32.58-0.12c3.94-9.01,8.09-17.93,11.82-27.03
			c15.88,7.14,32.67,10.57,47.49,11.06c16.12,0.53,34.22-5.87,50.91-17.07c0.98,3.4,12.24,34.2,19.91,55.19
			C359.86,335.41,359.62,338.7,357.94,336.09z"/>
	</g>

	<path class="st1" d="M386.29,181.61c1.67,58.25-43.89,103.75-89.33,104.73c-70.1,1.51-107.15-43.78-105.32-96.67
		c1.56-45.09,34.17-102.92,100.43-104.09C344.23,84.66,384.85,131.68,386.29,181.61z"/>
	<path class="st2" d="M284.3,86.82c-19.06-0.75-2.75,4.32-8.4,8.22c-16.24,11.2,13,7.97-0.38,16.6c-8.87,5.72-8.27,14.37-9.29,24.59
		c-11.41,41.47-13.02,92.97-17.21,139.97c9.87,4.62,16.53,6.46,26.4,7.88C274.66,219.02,284.36,152.32,284.3,86.82z"/>
	<path class="st2" d="M252.26,95.54c-2.71,19.06-4.59,9-15.72,20.71c-15.43,38.78-38.54,85.6-34.29,133.05
		c40.01,2.73,24.53-69.95,33.2-95.66C232.04,136.01,279.5,78.81,252.26,95.54z"/>
	<path class="st2" d="M382.07,208.21c3.96-67.64-62.98-136.08-72.72-112.6c31.13,21.76,62.06,65.99,63.62,112.6
		C373.05,210.75,382.21,210.77,382.07,208.21z"/>
	<path class="st2" d="M347.38,188.29c-2.38-9.68-9.93-36.04-12.87-45.56c-1.98-15.22-49.36-64.38-45.53-50.6
		c16.38,58.98,53.55,121.43,39.72,182.83C358.41,258.17,353.28,216.63,347.38,188.29z"/>
	<path class="st3" d="M408.74,486.89c1.8-6.31,24.07-85.67-52.32-125.55l-128.07,1.64c-40.18,39.58-53.54,89.47-40.07,123.14
		L408.74,486.89z"/>
	<path class="st3" d="M344.86,255.3c-3.4-12.31,12.67-8.8,18.18-0.19l0.27-0.25c-3.57-4.36-15.62-17.23-10.62-23.96
		c4.17-5.97,13.28-0.36,17.14,3.22c3.35,3.03,5.85,7.62,7.58,11.66l0.85-1.83c-15.71-37.48,0.38-39.46,7.17-30
		c6.31,8.79,10.34,19.09,14.32,29.43c13.52,38.19,29.5,75.09,43.25,112.62c0,0-24.28,29.61-60.76,8.21
		C366.86,329.26,354.24,293.03,344.86,255.3z"/>
	<path class="st3" d="M206.26,368.7c0.53-46.36,34.94-91.52,33.08-109.38c-1.31-12.55-15.09,1.13-18.09,4.8
		c0.66-3.96,10.79-33.73,3.37-33.97c-5.03-0.43-22.38,19.81-22.38,19.81c1.14-5.52,4.17-20.39-3.54-22.71
		c-7.91-2.38-13.74,9.07-16.46,14.47c-9.54,18.88-38.81,119.82-45.26,150.24C151.66,396.88,190.49,387.49,206.26,368.7z"/>
	<path class="st4" d="M206.79,389.66l-0.53-20.96c-17.53,19.03-52.68,27.83-69.29,23.25c-8.72,35.54-12.53,68.63-5.56,96.3
		l56.88-2.14C174.81,449.84,192.63,408.93,206.79,389.66z"/>
	<path class="st4" d="M408.74,486.89l63.73,0.03c-0.17-10.1-6.26-90.82-30.7-130.74c0,0-27.31,29.64-60.76,8.21l5.78,19.12
		C411.78,411.07,419.73,452.3,408.74,486.89z"/>
	<path class="st5" d="M355.46,359.88l-127.68-1.39c-2.66,15.65,8.57,17.3,8.57,17.3c10.54-16.9,21.6-1.13,11.46,11.59
		c27.24,22.59,52.57-5.23,52.57-5.23s12.24,21.45,34.41,17.3c3.41-0.64,7.89-4.37,10.08-7.16c0,0-19.42-10.14-8.49-20.49
		c3.34-3.16,15.37,5.71,15.37,5.71C360.69,372.22,358.05,363.06,355.46,359.88z"/>
	<path class="st5" d="M185.18,439.15c-2.89,16.16-3.3,31.34,3.1,44.81C152.54,486.69,153.23,430.43,185.18,439.15z"/>
	<path class="st6" d="M351.71,375.53c-2.94-7.46-20.99-15.21-23.32-4.74c-1.61,6.71,4.21,17.25,14.87,19.99
		c-26.08,12.53-41.56-13.1-41.56-13.1c-28.08,25.63-49.6,7.73-49.6,7.73c16.46-10.16-2.17-37.08-13.22-21.53
		c-2.08,2.72-2.91,9.85-2.91,9.85c-9.6-10.95-33.89-54.39,12.86-52.51c8.55,0.34,16.02,2.91,22.59,8.9l0.19,0.21
		c-3.64-16.05,8.44-20.97,8.44-20.97c-1.62,5.55-2.26,14.6,3.72,20.17c13.79-8.94,64.88-12.65,71.93,27.43
		C356.75,362.89,351.71,375.53,351.71,375.53z"/>
	<path class="st7" d="M286.71,411.25c-24.98,39.01-87.04,34.24-92.47,27.02c23.12-31.36,76.47-30.59,94.6-26.59"/>
	<path class="st5" d="M296.33,436.18c1.25-0.23,7.59-0.56,8.03-1.62c0.3-0.72-0.08-2.45-0.09-3.26c-0.02-2.45,0.02-4.92-0.25-7.36
		c-0.49-4.51-2.24-9.12-7.3-9.82"/>
	<path class="st8" d="M230.25,476.65c22.29,2.68,40.17,3.27,62.59,2.05c9.99-0.65,19.76-0.92,29.7-0.2
		c8.93,0.68,17.88,0.75,26.81,1.24c7.32,0.24,15.72,0.6,21.56-4.09c6.06-4.88,5.79-11.19,1.92-17.17
		c-7.18-10.58-21.86-15.75-33.96-18.88c-18.77-4.52-38.52-4.98-57.5-2.08C218.76,447.08,229.26,470.42,230.25,476.65"/>
	<path class="st9" d="M251.27,477.31c36.91-19.87,75.98-15.76,103.04,0.99C332.21,479.86,262.23,478.41,251.27,477.31z"/>
	<path d="M356.23,478.13c0.06,1.29-1.8,2.54-3.19,1.44c-0.69-0.54-1.4-1.05-2.14-1.53C352.67,478.13,354.46,478.18,356.23,478.13z"
		/>
	<path class="st10" d="M361.22,449.67c-4.49,3.44-5.8,7.57-12.5,8.95c-5.22,1.08-11.03-5.8-13.39-8.4
		c-3.64-4.03-8.9,4.49-12.35,6.56c-5.28,3.21-11.75,0.41-16.21-3.32c-4.25-3.72-5.52-7.74-11.35-5.74
		c-5.24,2.02-7.97,6.31-12.25,9.35c-6.71,4.36-6.31-1.6-10.99-4.54c-5.66-3.37-7.28-2.42-11.7,4.79
		c-5.24,8.24-13.72,10.9-25.63-1.24C245.24,436.86,333.24,425.15,361.22,449.67z"/>
	<path class="st7" d="M307.15,409.33c22.68,21.38,57.85,33.98,94.2,19.76C382.1,405.2,336.1,398.83,307.15,409.33"/>
	<path class="st11" d="M336.69,428.52c20.99,2.19,31.28-5.72,36.68-18.23c-23.75-6.43-46.44-7.09-68-1.73
		C312.62,417.63,323.26,424.13,336.69,428.52z"/>
	<path d="M165.38,80.4c6.28,5.11,12.04,10.79,17.77,16.5c1.65,1.65,4.21-0.91,2.56-2.56c-5.73-5.71-11.48-11.4-17.77-16.5
		C166.14,76.38,163.56,78.92,165.38,80.4L165.38,80.4z"/>
	<path d="M390.14,67c-7.22,3.54-14.29,7.32-20.27,12.76c-1.73,1.57,0.83,4.12,2.56,2.56c5.75-5.23,12.61-8.8,19.54-12.2
		C394.06,69.1,392.23,65.98,390.14,67L390.14,67z"/>
	<path d="M407.16,115.79c2.78-0.81,5.62-1.42,8.43-2.11c2.26-0.56,1.3-4.05-0.96-3.49c-2.81,0.7-5.64,1.3-8.43,2.11
		C403.96,112.95,404.92,116.44,407.16,115.79L407.16,115.79z"/>
	<path d="M420.99,201.49c3.46,0.11,6.9,0.19,10.35-0.06c2.31-0.16,2.33-3.78,0-3.62c-3.45,0.25-6.89,0.17-10.35,0.06
		C418.65,197.79,418.66,201.41,420.99,201.49L420.99,201.49z"/>
	<path d="M136.61,220.42c7.43-0.86,14.81-0.66,22.18,0.68c2.28,0.42,3.25-3.07,0.96-3.49c-7.68-1.4-15.38-1.7-23.14-0.81
		C134.32,217.07,134.3,220.69,136.61,220.42L136.61,220.42z"/>
	<path d="M151.13,141.7c4.63,0.57,9.2,1.48,13.77,2.39c2.28,0.46,3.25-3.03,0.96-3.49c-4.89-0.98-9.78-1.91-14.73-2.52
		C148.81,137.8,148.84,141.42,151.13,141.7L151.13,141.7z"/>
	<path class="st11" d="M240.48,434.2c-9.78-3.04-18.25-8.07-20.21-15.74c19.49-8.98,43.86-10.4,67.92-7.22
		C276.55,427.95,262.07,438.61,240.48,434.2z"/>
	<path class="st5" d="M412.7,439.42c1.96,17.1,0.23,29.07-3.1,44.81C445.34,486.96,444.65,430.7,412.7,439.42z"/>
	<g>
		<path d="M349.07,478.04c0.74,0.48,1.45,0.99,2.14,1.53c1.39,1.1,3.25-0.15,3.19-1.44C352.63,478.18,350.84,478.13,349.07,478.04z"
			/>
		<path d="M375.49,465.14c-0.79-7.86-7.85-13.92-14.06-17.88c-14.85-9.46-34.1-12.54-51.7-13.16c-1.76-0.2-3.53-0.41-5.29-0.62
			c0.02-1.13-0.19-2.36-0.2-3.4c-0.03-6.92-0.55-16.05-8.87-17.7c-2.27-0.45-3.24,3.03-0.96,3.49c6.48,1.28,6.19,9.01,6.22,14.21
			c0.01,0.99,0.06,1.91,0.16,2.89c0.01,0.1,0.01,0.19,0,0.26c-2.34,0.09-4.87,0.65-7.13,0.96c-45.61,2.81-61,18.18-63.47,21.23
			c-5.31,6.59-5.29,13.83-3.51,21.71c0.2,0.9,0.88,1.29,1.58,1.29c0.06,0.01,0.11,0.03,0.16,0.04c22.31,2.65,44.44,3.03,66.86,1.8
			c11.84-0.66,23.49,0.1,35.31,0.61c10.12,0.43,20.93,1.88,30.97,0.06C369.25,479.54,376.33,473.45,375.49,465.14z M255.34,444.94
			c7.8-2.25,15.63-3.9,23.59-5.46c1.52-0.3,0.19-0.1,1.89-0.28c2.37-0.26,4.73-0.51,7.1-0.76c1.27-0.14,2.54-0.27,3.81-0.41
			c0.49-0.03,0.99-0.07,1.49-0.1c0.31-0.02,0.62-0.04,0.93-0.06c0.25,0.08,0.53,0.1,0.83,0.06c0.52-0.08,1.03-0.14,1.55-0.19
			c4.18-0.2,8.41-0.26,12.65-0.14c0.6,0.1,1.18,0.2,1.74,0.26c5.28,0.62,10.55,1.24,15.83,1.86c0.63,0.08,1.27,0.16,1.9,0.23
			c-0.16,0,1.08,0.21,1.24,0.24c1.04,0.2,2.09,0.4,3.13,0.6c3.04,0.58,5.87,1.21,8.81,2.13c1.79,0.56,3.59,1.12,5.38,1.69
			c0.46,0.14,0.63,0.21,0.65,0.22c0.53,0.32,1.05,0.64,1.58,0.95c2.31,1.39,4.61,2.78,6.92,4.17c-4.5,4.27-7.87,9.25-15.21,5.46
			c-2.88-1.49-3.9-5.07-6.73-6.76c-2.04-1.22-4.42-0.7-6.44,0.2c-2.46,1.09-4.39,3.49-6.33,5.27c-3.57,3.3-8.2,2.38-12.12,0.32
			c-4.76-2.5-8.13-10.03-14.31-8.97c-6.8,1.17-10.25,7.29-15.79,10.63c-2.99,1.81-4.19-1.37-5.91-3.29
			c-1.66-1.85-4.5-3.45-7.02-3.43c-6.6,0.04-8.34,6.4-11.93,10.66c-5,5.92-14.05,0.59-18.95-3.94
			C236.58,455.19,243.55,448.34,255.34,444.94z M371.6,469.29c-1.35,5.2-7.42,7.51-12.11,8.35c-1.67,0.3-3.37,0.44-5.09,0.49
			c0.06,1.29-1.8,2.54-3.19,1.44c-0.69-0.54-1.4-1.05-2.14-1.53c-1.95-0.09-3.89-0.23-5.78-0.31c-9.88-0.44-19.77-1.07-29.65-1.39
			c-9.9-0.32-19.76,0.48-29.64,0.88c-9.92,0.4-19.82,0.32-29.7-0.18c14.44-6.44,30.94-10.26,46.59-10.95
			c8.72-0.38,17.42,1.33,25.83,3.51c7.52,1.94,15.75,4.07,22.35,8.44c1.77,0.09,3.56,0.14,5.33,0.09c-0.02-0.39-0.21-0.78-0.63-1.11
			c-6.83-5.37-15.28-7.88-23.51-10.21c-9.13-2.59-18.54-4.38-28.05-4.36c-9.17,0.01-18.65,2.04-27.55,4.08
			c-9.03,2.07-17.81,5.12-26.13,9.21c-0.45,0.22-0.72,0.54-0.84,0.9c-5.93-0.4-11.85-0.96-17.77-1.64
			c-1.25-6.19-1.06-11.62,2.69-16.77c4.39,4.3,11.19,8.34,17.3,8.16c6.87-0.2,8.93-7.41,12.72-11.67c5.78-6.47,9.26,4.95,14.19,5.62
			c2.83,0.39,5.39-1.61,7.45-3.28c3.1-2.52,5.59-5.51,9.22-7.35c4.32-2.21,6.69,1.62,9.36,4.28c2.6,2.58,5.94,4.4,9.41,5.47
			c6.96,2.14,11.03-2.27,15.81-6.35c3.98-3.39,6.2,0.24,8.61,3.3c2.1,2.66,5.93,3.78,9.15,4.06c6.87,0.62,10.24-5.75,14.78-9.47
			C367.02,455.19,373.57,461.7,371.6,469.29z"/>
		<path d="M474.29,479.76c-0.35-5.73-0.98-11.45-1.62-17.15c-1.4-12.4-2.74-25.07-5.71-37.21c-9.08-37.11-23.9-72.77-37.6-108.34
			c-8.32-21.6-16.81-43.14-24.74-64.9c-3.96-10.86-7.67-21.84-13.38-31.95c-1.49-2.63-4.45-6.98-7.86-9.93
			c3.64-14.29,4.37-29.18,2.03-43.8c-5.89-36.91-32.22-68.78-68.29-79.38c-12.39-3.64-25.54-4.57-38.32-2.83
			c-2.68-4.06-4.24-9.61-1.7-14.09c0.51-0.91,1.41-1.74,2.5-2.46c0.65,9.62,5.49,11.04,9.24,8.14c3.65-2.82,7.64-10.89,2.34-13.95
			c-2.19-1.26-4.93-0.8-7.48,0.12c1.21-2.33,3.56-4.04,6.12-4.64c4.61-1.07,7.02,3.23,7.72,7.06c0.42,2.29,3.9,1.32,3.49-0.96
			c-0.97-5.31-4.28-9.67-10-9.83c-4.76-0.13-9.4,3.5-10.99,7.86c-0.23,0.64-0.39,1.45-0.48,2.36c-12.89,4.71-5.44,19.63-4.63,21.01
			c-4.18,0.75-8.31,1.78-12.34,3.11c-17.12,5.64-32.17,16.52-44.16,29.83c-26.06,28.92-37.56,71.49-24.17,108.45
			c-9.31,2.37-14.32,16.18-17.48,23.75c-4.93,11.83-8.42,24.19-12.09,36.45c-5.94,19.82-12.47,39.44-18.03,59.39
			c-7.95,28.52-14.61,57.46-18.46,86.83c-1.24,9.48-2,19.07-2.25,28.63c-0.22,8.53-0.5,18.38,3.17,26.3
			c0.98,2.11,4.1,0.28,3.12-1.83c-2.87-6.2-2.71-13.93-2.72-20.61c-0.02-7.58,0.53-15.16,1.22-22.71
			c1.49-16.14,4.29-32.17,7.66-48.04c23.09,2.7,50.78-5.03,66.68-22.71c0.03,5.21,0.09,11-0.15,16.25
			c-6.03,8.3-12.81,22.38-16.53,33.8c-1.63,4.99-3.03,10.09-4.17,15.24c-16.64-4.85-27.13,12.6-24.26,27.76
			c2.61,13.78,14.57,21.67,28.19,21.34c0.5-0.01,0.89-0.19,1.17-0.46c0.51-0.38,0.81-1.02,0.57-1.83
			c-1.23-4.07-2.55-8.11-3.67-12.21c-1.25-4.56-1.45-9.04-1.28-13.75c0.41-11.92,3.33-23.81,6.94-35.13
			c3.44-10.81,11.73-32.22,36.39-56.49c0.74,1.24,1.52,2.45,2.34,3.64c0.51,0.74,3.52,4.07,3.52,4.23c-0.09,2.37,3.39,2.28,3.62,0
			c0.49-5.04,1.83-11.14,7.29-12.92c3.17-1.04,6.32,0.96,8.44,3.13c5.88,6.02,4.87,15.2-2.3,19.51c-1.42,0.85-1,2.78,0.43,3.31
			c2.01,0.74,3.95,2.37,5.91,3.34c2.22,1.09,4.58,1.88,6.98,2.46c4.02,0.98,8.19,0.85,12.23,0.12c9.05-1.63,17.08-7.39,24.4-12.75
			c1.83,2.71,4.75,5.17,7.04,7.16c3.21,2.79,6.9,5.18,10.86,6.75c8.49,3.36,17.25,2.78,25.13-1.88c1.35-0.8,1.08-2.88-0.43-3.31
			c-5.09-1.44-9.16-4.56-11.85-9.12c-1.8-3.06-3.21-8.21-0.46-11.15c2.44-2.61,7.61-0.86,10.3,0.3c3.39,1.48,6.91,3.91,8.44,7.39
			c0.86,1.95,3.53,0.57,3.27-1.3c0.12-0.13,0.23-0.28,0.31-0.48c1.61-3.69,3.08-7.62,3.66-11.65
			c21.73,11.04,38.15,29.85,46.92,52.58c8.58,22.23,9.04,46.18,2.69,69.01c-0.13,0.48-0.07,0.9,0.1,1.24
			c0.19,0.65,0.74,1.15,1.64,1.05c8.2-0.93,16.75-2.9,22.89-8.78c3.11-2.98,4.62-6.76,5.79-10.8c4.53-15.57-5.88-35.64-23.79-30.22
			c-1.15-7.59-3.08-15.1-5.83-22.46c-4.7-12.53-11.79-23.97-20.76-33.67c0.03-0.23,0.02-0.48-0.05-0.75
			c-1.17-4.34-2.29-8.7-3.48-13.03c19.25,10.36,42.5,7.31,58.03-8.31c3.29,8.88,6.5,17.8,9.57,26.76
			c4.8,14.02,10.25,28.13,12.83,42.75c8.53,48.23,4.58,58.54,8.95,58.45C475.46,486.77,474.4,481.64,474.29,479.76z M287.99,71.76
			c-3.57,4.26-4.99-2.39-5.14-5.7c1.84-0.71,3.74-1.16,5.18-1.22C292.04,64.65,289.27,70.24,287.99,71.76z M185.7,482.46
			c-10.14-0.53-18.49-5.95-21.56-16.11c-3.94-13.04,4.22-30.21,19.36-25.76c-1.04,5.37-1.78,10.79-2.11,16.23
			c-0.28,4.71-0.18,9.46,0.92,14.07C183.24,474.79,184.5,478.62,185.7,482.46z M431.86,447.2c3.71,5.92,3.79,13.07,1.95,19.59
			c-3,10.65-12.48,14.64-22.65,16.17c3.56-13.96,4.61-28.2,2.97-42.22C421.25,438.46,427.79,440.7,431.86,447.2z M351.79,242.56
			c0.85,1.66,1.9,3.3,3.04,4.87c-1.39-0.67-2.77-1.16-4.08-1.34C351.14,244.92,351.49,243.75,351.79,242.56z M221.72,119.56
			c7.29-8.1,15.82-15.08,25.23-20.49c-0.62,2.59,0.69,4.5,2.56,5.98c-4.96,3.71-11.25,5.33-16.53,8.54
			c-0.97,0.59-1.24,2.03-0.37,2.84c6.55,6.11-3.02,14.7-6.5,19.93c-3.77,5.67-4.75,12.05-6.59,18.47
			c-2.32,8.08-7.3,15.23-10.55,22.94c-3.37,7.99-4.66,17.54-1.99,25.92c0.71,2.21,4.2,1.27,3.49-0.96
			c-3.09-9.71-0.18-19.81,4.13-28.64c3.85-7.89,7.69-15.09,9.75-23.69c1.73-7.23,5.01-13.18,9.72-18.94
			c3.85-4.7,6.17-10.83,2.64-15.83c5.78-3.08,12.21-4.93,17.11-9.48c0.86-0.79,0.62-2.27-0.37-2.84c-2.53-1.45-3.98-2.79-1.64-5.15
			c5.33-5.36,13.36-7.29,17.12-8.32c1.49-0.41,3-0.75,4.51-1.07c-0.64,0.91-0.5,2.46,0.89,2.92c0.76,0.26,1.48,0.53,2.17,0.85
			c-3.12,2.75-6.54,5.15-9.72,7.85c-1.06,0.9-0.43,2.68,0.8,3.02c3.5,0.96,7.21,1.83,10.44,3.54c0.5,0.27,0.65,0.48,0.72,0.54
			c-0.33,0.41-0.88,0.76-1.26,1.05c-4.59,3.33-9.35,6.03-13.16,10.34c-0.6,0.68-0.8,1.91,0,2.56c2.55,2.06,0.59,9.77,0.18,12.37
			c-1.03,6.55-2.58,13.01-4.03,19.48c-1.27,5.71-2.03,11.42-3.02,17.18c-1.74,10.16-4.21,20.17-4,30.54c0.05,2.33,3.66,2.33,3.62,0
			c-0.22-11.35,2.79-22.29,4.5-33.42c0.89-5.82,1.99-11.51,3.27-17.25c1.47-6.55,2.92-13.11,3.74-19.77
			c0.34-2.79,1.06-7.46-0.58-10.32c2.43-2.49,5.19-4.54,8.11-6.46c1.93-1.26,4.51-2.51,5.8-4.51c2.94-4.56-4.86-7.17-9.91-8.49
			c2.99-2.36,6.06-4.61,8.79-7.28c0.91-0.88,0.54-2.16-0.37-2.84c-1.47-1.1-3.06-1.75-4.77-2.33c10.18-1.85,20.64-1.73,30.82,0.06
			c-0.77,2.51-0.72,5.07-0.51,7.68c0.1,1.19,1.08,2.04,2.29,1.74c5.19-1.25,11.5,6.52,14.57,9.71c4.49,4.68,8.42,9.93,13.11,14.41
			c7.09,6.76,12.61,14.59,17.12,23.26c5.01,9.65,8.62,19.94,13.49,29.66c1.04,2.09,4.16,0.25,3.12-1.82
			c-5.19-10.36-9.05-21.31-14.48-31.56c-4.57-8.62-10.49-15.95-17.4-22.78c-5.2-5.15-9.63-11.04-14.84-16.19
			c-3.36-3.32-8.29-8.21-13.48-8.38c-0.06-1.68,0.03-3.33,0.56-4.97c0.01-0.02,0.01-0.03,0.01-0.05c5.38,1.16,10.67,2.77,15.76,4.83
			c37.26,15.05,58.93,55.34,57.29,94.5c-0.28,6.75-1.42,13.22-3.02,19.58c-2.34-1.15-4.73-1.3-6.9,0.41
			c-0.03-3.92-0.38-7.84-0.46-11.78c-0.05-2.33-3.67-2.33-3.62,0c0.13,5.86-0.01,22.99,1.79,30.04c0.49,1.92,0.97,3.83,1.56,5.72
			c-0.18,0.52-0.35,1.04-0.53,1.56c-1.63-1.66-3.45-3.15-5.57-4.43c-3.79-2.29-8.75-3.66-12.49-1.38
			c0.27-5.77,0.01-11.58-0.45-17.26c-1.03-12.71-3.47-25.27-5.81-37.79c-0.43-2.29-3.91-1.32-3.49,0.96
			c2.21,11.84,4.45,23.67,5.58,35.68c1.15,12.25,1.07,26.45-5.12,40.14c-1.51,3.34-0.87,7.45-0.37,10.99
			c0.17,1.2,0.38,2.4,0.61,3.59c-1.36,1.18-2.76,2.32-4.23,3.36c-16.13,11.43-35.83,17.27-55.53,17.12
			c-2.43-0.02-4.84-0.16-7.22-0.39c0.07-0.18-1.36-15.97-1.7-23.71c-0.34-7.71,0.35-15.51,1.19-23.16
			c1.69-15.46,4.84-30.71,6.85-46.13c0.3-2.31-3.32-2.28-3.62,0c-2.02,15.42-5.08,30.68-6.85,46.13c-0.88,7.7-1.3,15.42-1.19,23.16
			c0.12,7.76,1.84,23.23,1.84,23.3c-12.5-1.74-24.32-6.22-35.56-12.19c1.62-4.63,3.58-10.8,1.59-15.56
			c-3.08-7.37-10.83-2.25-16.05,2.56c1.25-5.09,2.89-10.09,4.24-15.13c2.65-9.91,2.37-26.96,2.88-36.45
			c0.53-9.72,1.19-19.86,4.7-29.04c0.83-2.18-2.66-3.12-3.49-0.96c-3.35,8.76-4.09,18.4-4.69,27.68c-0.53,8.15-0.7,16.31-1.12,24.47
			c-0.04-0.02-0.08-0.05-0.13-0.06c-4.75-1.85-9.44,2.96-12.61,5.84c-2.61,2.36-5.01,4.93-7.42,7.49c-0.47-0.81-0.94-1.62-1.4-2.43
			c0.22-6.8-1.1-13.76-7.34-14.39C184.21,189.64,196.16,147.92,221.72,119.56z M201.76,241.89c-0.2,2.44-0.63,4.87-1.07,7.09
			c-0.33,0.45,0.06,1.61,1.03,2.14c0.97,0.52,2.27-0.26,2.3-0.39c0.7-0.68,1.39-1.36,2.06-2.06l2.5-2.63
			c1.46-1.56,2.92-3.13,4.43-4.65c1.94-1.96,3.95-3.86,6.07-5.63c1.39-1.17,3.56-3.14,5.51-3.12c1.35,0.02,1.86,1.16,1.92,2.77
			c-0.06,0.81-0.12,1.63-0.18,2.44c-0.49,3.2-1.79,6.88-2.11,7.95c-1.28,4.18-2.51,8.45-3.52,12.75c0,0-1.59,5.76-0.17,6.61
			c1.85,1.12,4.64-2.15,4.64-2.15c2.47-2.68,5.31-5.19,8.69-6.28c4.75-1.53,3.68,5.46,3.2,8.02c-0.35,1.85-0.83,3.69-1.39,5.51
			l-1.17,3.44c-1.39,3.83-3.05,7.6-4.58,11.27c-2.87,6.9-6.01,13.68-9.04,20.51c-5.72,12.89-11.05,26-13.94,39.86
			c-1.5,7.19-1.82,13.9-1.86,21.07c-0.44,0.33-20.09,26.32-65.92,24.48c0.69-3.18,1.4-6.35,2.13-9.51
			c8.54-37.03,20.22-73.27,31.56-109.51c3.97-12.68,8.07-27.2,16.56-37.71c1.37-1.7,5.87-6.2,8.98-4.46
			C203.14,232.37,201.76,241.89,201.76,241.89z M351.21,371.4c-5.16-6.13-16.25-10.52-22.35-5.21c-3.94,3.43-2.6,9.95-0.85,14.06
			c2.04,4.79,6.08,8.49,10.74,10.73c-6.23,2.52-12.85,2.31-19.29-0.49c-3.52-1.53-6.69-3.8-9.56-6.31
			c-2.26-1.97-5.37-4.68-6.64-7.43c-0.38-0.83-1.73-1.19-2.47-0.65c-7.11,5.2-14.45,10.57-23.03,13c-4.4,1.25-8.94,1.16-13.35,0.08
			c-3.29-0.8-5.96-2.65-8.81-4.16c7.19-6.37,6.9-17.2-0.41-24.12c-3.25-3.07-7.93-4.53-12.17-2.81c-4.91,1.99-7.12,6.57-8.16,11.4
			c-0.84-1.11-1.65-2.24-2.41-3.41c-0.7-1.08-1.36-2.18-1.98-3.31c-0.05-0.12-0.11-0.24-0.19-0.35c-1.62-2.98-3-6.09-4.33-9.19
			c-2.02-4.72-4.18-9.34-4.03-14.59c0.12-4.02,2.46-7.63,5.37-10.2c5.22-4.62,13.19-5.73,19.89-5.53
			c8.02,0.24,17.48,2.61,23.17,8.68c1.05,1.12,3.17,0.29,3.09-1.28c-0.2-3.94-1.6-8.34,0.22-12.07c0.71-1.44,2.53-3.91,4.36-5.43
			c-1,6.22-0.67,12.2,3.76,17.19c0.07,1.21,1.43,2.09,2.71,1.46c13.84-6.79,30.95-7.47,45.45-2.46c7.43,2.57,14.18,7.23,18.66,13.74
			c2.34,3.4,3.83,7.25,4.77,11.25C354.77,360.04,353.47,365.83,351.21,371.4z M357.65,359.09c-0.02-0.87-2.21-11.46-4.35-15.52
			c-4.07-7.7-11.24-13.3-19.1-16.73c-15.39-6.71-34.47-6.15-49.78,0.71c-4.4-5-3.62-11.14-2.23-17.35c0.23-1.02-0.51-2.45-1.74-2.29
			c-3.66,0.49-6.76,3.88-8.81,6.81c-2.57,3.67-2.49,7.36-2.16,11.33c-6.11-4.43-14.15-6.16-21.47-6.7
			c-7.65-0.56-16.05,1.11-22.27,5.74c-7.35,5.46-8.7,14.32-5.94,22.64c1.71,5.14,4.13,10.22,6.57,15.04
			c0.04,0.07,0.08,0.15,0.12,0.22c-6.41,6.02-12.43,12.39-17.8,19.32c0.04-6.15-0.25-12.31-0.2-18.46
			c0.06-8.31,1.52-16.54,3.61-24.56c4.1-15.7,11.27-30.39,17.8-45.16c2.74-6.2,5.35-12.45,7.69-18.8
			c8.04,4.18,16.22,7.89,25.21,10.27c18.23,4.83,37.8,3.62,55.57-2.43c9.78-3.33,19.28-8.16,27.3-14.74
			c0.63,2.73,1.35,5.43,2.11,8.12c4.78,16.87,11.01,33.25,17.35,49.58c3.44,8.86,6.87,17.73,10.05,26.69
			c2.71,7.62,4.84,15.36,6.94,23.15C374.89,369.2,366.68,363.47,357.65,359.09z M374.47,226.38c-1.3-4.65-2.78-11.25,0.33-14.55
			c1.33-1.41,2.84-1.47,4.43-0.66l3.19,2.62c5.48,6,10.9,18.7,11.88,21.06c6.09,14.51,10.94,29.58,16.55,44.28
			c7.59,19.88,15.39,39.68,23.04,59.53c2.11,5.47,4.18,10.95,6.23,16.45c-15.14,16.23-38.53,19.06-57.41,7.46
			c-0.21-0.13-0.41-0.2-0.61-0.24c-0.53-1.78-1.09-3.55-1.68-5.32c-2.75-8.16-5.8-16.21-8.89-24.24
			c-6.18-16.05-12.59-32.01-17.69-48.44c-1.87-6.03-3.9-12.22-5.2-18.5l-0.75-4.2c-0.24-1.66-0.43-3.33-0.52-5
			c-0.11-1.99-0.43-6.3,2.14-6.93c2.06-0.51,4.71,0.89,7.12,2.64l2.76,2.19c1.06,0.9,1.98,1.73,2.64,2.3
			c0.78,0.66,1.71,0.53,2.36,0.06c0.84-0.57,1.31-1.85,0.47-2.87c-0.78-0.95-1.57-1.89-2.36-2.84l-2.29-2.82
			c-0.64-0.82-1.28-1.65-1.89-2.5c-2.27-3.16-5.31-7.56-4.67-11.66c1.01-6.56,9.22-2.62,12.38-0.56c1.65,1.07,3.05,2.37,4.3,3.81
			l2.21,2.93c1.39,2.12,2.55,4.41,3.57,6.74c0.84,1.92,3.43,0.62,3.28-1.2c0.73-0.32,1.23-1.05,0.88-2.03
			c-1.34-3.85-2.79-7.64-4.05-11.51L374.47,226.38z"/>
		<path d="M295.48,101.57c-1.51,5.39-0.82,9.9,2.77,14.67c2.19,2.91,4.56,5.84,5.58,9.4c1.28,4.43,0.7,9.27,1.87,13.78
			c1.09,4.23,3.8,8.2,5.71,12.1c2.31,4.69,4.4,9.49,6.15,14.42c3.54,9.98,4.79,20.67,6.7,31.04c0.42,2.29,3.91,1.32,3.49-0.96
			c-1.76-9.58-3.01-19.35-5.91-28.67c-2.78-8.94-7.07-17.35-11.35-25.65c-2.34-4.54-2.16-9.54-2.73-14.48
			c-0.39-3.33-1.76-6.18-3.57-8.97c-1.5-2.33-3.4-4.37-4.82-6.75c-2.09-3.49-1.07-7.39,0.23-10.96c0.42-1.15-0.65-2.25-1.74-2.29
			c-4.58-0.18-10.67-3.48-5.52-8.01c1.75-1.54-0.81-4.09-2.56-2.56C282.9,93.73,288.58,100.11,295.48,101.57z"/>
		<path d="M304.84,407.59c-0.65,0.18-1.02,0.6-1.18,1.09c-0.29,0.6-0.26,1.34,0.39,1.94c12.67,11.81,27.86,20.5,44.81,24.35
			c8.35,1.9,17,2.4,25.52,1.78c4.11-0.3,8.2-0.95,12.23-1.79c2.46-0.51,4.88-1.21,7.29-1.92c1.98-0.58,4.31-2.01,6.32-2.2
			c1.55-0.15,2.42-1.86,1.28-3.09C377.75,402.41,336.71,398.88,304.84,407.59z M370.56,412.3c0,0.01-0.01,0.01-0.01,0.02
			c-5.49,14.04-23.38,16.69-36.34,13.24c-0.58-0.15-1.07-0.04-1.44,0.23c-8.61-3.94-16.59-9.27-23.73-15.54
			C328.48,405.54,351.06,405.45,370.56,412.3z M390.48,430.26c-4.51,1.27-9.11,2.13-13.76,2.66c-8.59,0.97-17.32,0.49-25.79-1.2
			c-1.71-0.34-3.41-0.75-5.08-1.21c11.79-0.31,23.4-5.4,28.08-16.94c8.44,3.38,16.22,8.13,22.79,14.47
			C394.61,428.73,392.5,429.69,390.48,430.26z"/>
		<path d="M288.29,412.95c0.22-0.27,0.35-0.57,0.4-0.86c0.28-0.85,0-1.84-1.06-2.12c-0.27-0.14-0.56-0.2-0.86-0.17
			c-32.27-6.11-72.58,0.37-94.24,27.19c-0.48,0.6-0.78,1.48-0.28,2.19c1.93,2.75,6.05,2.99,9.15,3.66
			c4.73,1.02,9.53,1.63,14.35,1.94c9.25,0.59,18.59-0.39,27.57-2.66C261.06,437.63,276.72,427.01,288.29,412.95z M283.61,412.89
			c-6.69,7.56-14.52,13.84-23.26,18.59c-0.29-0.08-0.62-0.08-0.98,0.05c-13.24,4.56-30.53,1.33-37.17-12.11
			C241.21,411.12,263.81,409.55,283.61,412.89z M220.2,441.32c-4.33-0.01-8.67-0.4-12.96-1.04c-2.48-0.37-4.95-0.92-7.39-1.48
			c-0.94-0.22-2.43-0.37-3.47-0.77c6.25-7.26,13.96-12.9,22.52-17.08c0,0,0,0.01,0.01,0.01c5.23,10.96,16.93,16.09,28.61,16.13
			c-1.02,0.35-2.05,0.67-3.1,0.98C236.57,440.38,228.38,441.34,220.2,441.32z"/>
	</g>
	<g>
		<path d="M149.23,538.41c1.12,0.99,0.77,2.69-0.22,3.72v0.01c-8.7,7.5-23.91,2.57-26.48-8.72c-2.39-10.98,5.08-23.87,15.28-25.85
			c12.71-3.09,15.8,8.62,7.67,5.6c-16.61-6.85-26.15,26.15-7.53,27.41C142.92,541.6,145.58,536.09,149.23,538.41z"/>
		<path d="M177.81,533.94c-0.47-4.54-3.74-7.5-6.94-9.5c2.07-1.82,3.97-5.38,3.22-8.37c-0.9-6.03-9.07-10.34-15.01-9.55
			c-4.05,3.79-1.72,8.9-3.31,15.77c-0.24,9.4-3.56,18.19-0.73,25.44C163.97,552.07,179.81,545.2,177.81,533.94z M161.66,518.8
			c0.2-1.18,0.34-5.86,0.91-6.9c2.31,0.44,6.36,2.77,6.21,5.64c0,2.9-4.46,5.08-7.07,5.34C160.75,522.13,161.57,521.19,161.66,518.8
			z M171.69,538.65c-1.74,4.04-8.2,5.57-12.09,5.24c-0.42-2,0.12-3.31,0.52-9.53c0.37-3.92,0.7-5.94,1-6.05
			C167.6,527.14,175.21,531.72,171.69,538.65z"/>
		<path d="M211.81,537.77c-1.49-10.82,1.22-24.82-4.3-30.41c-9.37-4.04-25.57-1.26-25.58,11.4c-0.42,5.53,5.44,9.22,9.8,10.68
			c0,0.37-1.05,2.4-3.16,6.1c-2.51,5.06-5.21,7.43-6.37,11.23c0.18,1.97,2.78,3.23,4.4,1.64c3.29-3.52,8.11-13.53,10.93-17.88
			c0.89-0.72,7.52-0.7,8.43-1.09c0.26,5.33,0.47,11.58,0.39,16.09c0.17,1.16,1.6,2.14,2.65,2.12
			C212.83,547.17,211.85,541.33,211.81,537.77z M205.74,522.96l-0.09,1.31c-21.1,5.12-24.08-12.67-8.35-13.33
			c3.02,0.22,6.48-0.51,7.35,1.39C205.04,513.64,205.85,521.49,205.74,522.96z"/>
		<path d="M243.28,509.21c-0.53,4.19-8.87,1.54-11.31,3.24c-1.73,6.12-0.22,23.33-0.39,29.94c0.69,3.67-2.64,5.4-4.85,2.86
			c-1.72-8.77-0.66-22.29-1-32.67c-2.04,0-6.16,0.09-8.2,0.17c-5.42-6.45,5.46-4.93,11.29-5.62c6.44-0.46,8.07-0.52,12.51-0.57
			C241.99,507.22,243.38,508.38,243.28,509.21z"/>
		<path d="M280.69,520.02c-4.87-23.14-39.69-12.27-32.53,13.84c2.13,7.84,11.39,10.92,18.79,9.42
			C277.16,541.2,282.17,529.56,280.69,520.02z M274.16,530.47c-2.37,7.35-10.3,9.64-16.73,7.04c-5.06-2.6-5.03-10.87-4.08-15.66
			C260,505.06,281.75,512.74,274.16,530.47z"/>
		<path d="M305.18,506.56c-0.11,2.51-8.23,7.52-8.71,2.27C296.61,506.04,304.51,501.52,305.18,506.56z"/>
		<path d="M310.89,530.87c0.25,7.97,0.37,10.93,0.36,11.73c-0.21,2.8-4.9,2.64-5.35,0c-0.12,0.26-0.7-20.54-0.99-20.31
			c-3.19,3.8-5.94,7.38-8.28,11.38c-2.6,3.37-5.3,12.36-10.31,9.56c-3.63-6.97-0.09-21.18-0.66-30.21c-0.27-2.8,2.44-4.25,4.33-2.4
			c2.58,6.57,0.23,15.29,0.5,22.73c4.75-7.42,9.42-13.17,13.33-18.67c1.6-3.42,7.14-7.08,7.8-1.14
			C310.68,520.38,310.46,521.98,310.89,530.87z"/>
		<path d="M354.92,542.98c-3.05,9.2-14.43-9.05-17.59-11.98c-0.43,0.97-0.71,10.76-0.91,11.94c-0.73,3.52-5.91,2.78-5.44-1.26
			c0.99-9.04,0.86-24.2,3.49-32.72c7.58-4.24,3.2,9.2,3.81,12.2c3.21-2.27,9.31-10.79,13.06-11.86c5.66,1.78,1.32,5.15-2.68,9.16
			c-4.56,4.47-5.22,5.04-7.98,8c3.64,4.53,5.6,7.47,10.05,11.83C353.52,541.49,354.31,540.03,354.92,542.98z"/>
		<path d="M391.11,544.54c-0.08-0.67-0.34-1.8-0.78-3.39c-2.25-7.61-5.73-16.4-7.48-24.45c-0.69-3.01-1.74-7.61-3.49-9.29
			c-5.9-3.2-7.97,7.51-9.88,11.48c-2.21,5.68-3.73,9.1-6.04,14.94c-1,4.17-8.66,14.68-0.36,12.81c3.06-2.58,5.45-11.86,7.21-15.22
			c3.42-0.2,7.4-0.43,10.79-0.68c1.49,3.58,3.52,13.36,5.9,15.9C388.53,548.22,391.7,546.76,391.11,544.54z M378.91,525.7
			c-1.8,0.05-4.88,0.86-6.35,0.38c0.66-1.6,3.02-9.25,4.31-10.26c0.62,1.62,0.84,4.41,1.72,6.93c0,0,0.86,2.82,0.86,2.82
			C379.45,525.6,379.27,525.64,378.91,525.7z"/>
		<path d="M419.08,533.94c-0.46-4.54-3.73-7.5-6.93-9.5c4.27-3.34,4.26-10.3,0.22-13.92c-3.86-2.87-15.01-8.48-14.33,1.76
			c-0.37,10.48-4.07,26.07-2.18,34.92c3.96,3.5,10.45,1.41,15.11-0.18C416.56,545.54,419.91,539.02,419.08,533.94z M402.94,518.8
			c0.2-1.19,0.32-5.86,0.91-6.9c2.65,0.52,7.23,3.29,6.03,6.69c-0.75,2.15-4.59,4.12-6.89,4.29
			C402.03,522.13,402.85,521.19,402.94,518.8z M412.96,538.65c-1.72,4.09-7.99,5.33-11.88,5.34c-0.44-0.11-0.31-0.64-0.36-1.01
			c-0.02,0.59,0.85-14.28,1.68-14.67C408.88,527.15,416.48,531.72,412.96,538.65z"/>
		<path d="M449.19,511.9c-3.17,8.99-8.62,21.5-15.19,32.55c-9.77,3.35,0.65-11.25,1.59-15.18c-0.74-3.81-18.11-18.59-9.84-20.86
			c4.21,0.91,9.29,12.9,12.56,14.89C440.92,520.7,444.41,503.03,449.19,511.9z"/>
		<path d="M477.12,544.75c0.02,2.86-4.04,3.92-5.26,1.26c-0.47,0.81-1.06-13.19-1.31-19.03c-0.36-1.62-1.55-0.19-4.81-0.27
			c0.2,0.16-4.99,0.3-6.98,0.63c-0.06,3.43-0.22,14.14-0.27,17.58c-6.5,5.03-5.15-3.82-5.31-11.4c0-9.09,0.16-15.35,0.49-18.77
			c-0.18-3.45,2.46-5.85,5.02-3.67c0.89,2.65,0.1,9.52-0.16,11.17c2.46-0.28,9.47-0.7,11.97-1.3c0.27-4.1-1.02-15.91,5.49-10.01
			C476.03,519.83,476.24,540.64,477.12,544.75z"/>
	</g>
</g>
<image class="sticker-draft" width="600" height="600" xlink:href="sticker-melon.webp"></image>
</g>
</svg>
