<?xml version="1.0" encoding="utf-8"?>
<svg xmlns="http://www.w3.org/2000/svg" xmlns:xlink="http://www.w3.org/1999/xlink"
	viewBox="0 0 600 600">
<style type="text/css">
	.st0{fill:#FFFFFF;}
	.st1{fill:#FF8E8E;}
	.st2{fill:#FFB9B5;}
	.st3{fill:#EC9B39;}
	.st4{fill:#F34560;}
	.st5{fill:#BD601D;}
	.st6{fill:#FFDABB;}
	.st7{fill:#72B6D3;}
	.st8{fill:#AE0000;}
	.st9{fill:#FFEDDF;}
	.st10{fill:#5B92A9;}
	.st11{fill:#BD7C2E;}
	.st12{fill:#974D17;}
	.st13{fill:#000B1F;}

	.shw{fill:#2C191C;transform: scale(103%);transform-origin: 50% 50%;filter:blur(3px);opacity:0.13;}

	.sticker-draft,.sticker{transition:all .5s cubic-bezier(0.75, 0.35, 0.4, 0.99);}
	.sticker{overflow:visible;opacity:1;}
	.sticker-draft{overflow:visible;opacity:0;}

	.main:hover{
		.sticker{opacity:0;}
		.sticker-draft{opacity:1;}
	}
</style>

<g class="main">
<g>
	<g class="shw">
		<path d="M348.33,494.28c-0.37,10.84-17.24,9.37-24.73,10.96c-0.03,12.95-0.41,36.09-2.15,42.02
			c-1.96,4.99-9.53,7.49-14.3,2.48c-0.74-0.73-2.28-2.23-3.04-2.95c0.66-13.49,1.54-8.45,1.73-25.62
			c-2.72,3.39-6.96,5.7-11.34,6.33c0.54,9.02-6.88,15.93-14.56,10.3c4.5,9.49-4.35,18.6-12.78,12.28c-4.4-3.53-6-14.26-8.6-20.69
			c-2.43,0.15-5.59,0.33-7.98,0.48c-2.31,4.53-5.97,18.73-11.39,20.89c-5.26,2.87-12.65-0.97-12.54-7.06
			c-0.53-2.03,3.22-8.92,3.7-10.48c4.74-11.6,9.94-25.49,15.19-37.45c4.05-9.74,8.92-11.65,16.7-8.39
			c7.11,6.08,6.34,17.03,10.11,26.71c3.24,9.88,2.2,7.81,4.43,13.9c0.5-6.06-0.65-15.28,2.02-20.66
			c5.38-9.21,20.65-9.71,27.33-1.73c-0.74-11.21,2.6-16.8,14.16-17.35C330.32,487.92,346.33,480.58,348.33,494.28z"/>
		<path d="M381.02,532.01c-1.02,10.04-12.36,10.62-18.01,2.96c-5.23,10.15-20.52,8.87-18.75-3.5
			c1.34-3.67,4.2-5.59,7.2-10.48c-2.36-3.04-5.06-5.97-5.83-7.11c-6.67-11.22,9.38-18.61,16.59-7.35
			c4.67-7.62,16.86-5.89,17.41,3.17c0.48,2.99-4.29,8.32-6.45,11.13C376.46,523.68,381,527.07,381.02,532.01z"/>
		<path d="M518.25,517.05c-0.15,7.18-9.93,10.37-14.6,4.05c-6.36,10.53-21.81,0.86-13.05-8.65
			c0.52-0.59,1.18-1.42,2.68-3.62c-4.04-4.63-7.39-8.21-3.78-13.4c-2.63,1.4-10.99,2.15-14.32,2.67
			c-0.07,11.07-0.26,25.59-1.67,30.8c-1.68,4.49-8.52,6.81-12.77,2.34c-0.63-0.6-2.05-2-2.7-2.61c0.29-7.75,1.1-7.71,1.27-16.7
			c-1.8,1.39-3.82,2.32-6.03,2.79c-0.05,6.13-4.28,10.76-10.21,9.06c2.26,7-6.85,12.69-12.25,7.79
			c-3.44-2.58-4.78-10.77-6.54-15.18c-1.42,0.07-2.95,0.18-4.24,0.25c-2.6,5.2-3.62,12.7-8.89,15.61
			c-7.43,3.62-14.36-4.9-9.61-11.83c5.51-11.11,9.29-27.47,16.6-37.25c15.21-8.92,15.76,13.38,19.54,23.19
			c-1.46-12.33,12.77-18.62,21.98-11.88c-1.43-11.4,10.98-11.44,19.12-12.47c8.67-2.74,19.12,2,13.26,11.24
			c3.77-2.14,8.13-0.28,10.88,2.83c9.18-9.2,20.23,3.82,9.91,12.41C515.2,510.44,518.2,513.19,518.25,517.05z"/>
		<path d="M215.96,515.9c-0.27,6.3-8.05,9.55-12.6,4.67c-6.31,8.52-18.83-1.23-11.29-9c0.34-0.39,0.7-0.81,1.67-2.2
			c-2.84-3.35-4.73-5.15-3.72-9.07c-1.86,0.37-6.66,1.1-8.54,1.33c-0.59,10.08,1.47,25.5-4.85,27.78c-3.98,2.2-7.9-0.48-10.87-3.85
			c0.13-4.74,0.83-7.24,0.99-11.87c-0.9,0.5-1.86,0.88-2.86,1.15c-0.22,4.61-3.33,8.03-7.9,7.71c0.79,5.99-7.25,9.77-11.61,5.74
			c-3.02-2.47-3.51-7.06-5.31-11.88c-0.68,0.04-1.35,0.08-1.99,0.12c-2.21,4.53-2.8,9.93-7.38,12.43c-4.41,2.37-10.47-1-10.36-6.05
			c0.37-4.17,4.02-10.3,5.35-14.45c2.47-5.46,5.55-16.27,9.53-20.42c10.94-6.88,14.1,6.06,15.83,14.49
			c1.41-7.28,11.24-9.67,17.12-6.43c-0.32-8.26,9.91-8.44,16.05-9.22c6.57-2.07,14.8,0.93,12.82,8.31c2.53-0.4,4.88,0.86,6.67,2.54
			c7.88-6.89,17.2,4.34,9.3,11.18C213.8,510.47,215.96,512.82,215.96,515.9z"/>
		<path d="M554.54,288.23c-10.83,35.93-56.98,43.82-88.4,53.51c37.74,24.25,62.72,67.19,67.92,111.44
			c-0.89,15.57-22.37,8.53-32.64,10.09c1.14,13.64-10.04,14.09-20.5,13.55c-14.95,0.21-29.9,0.42-44.85,0.62
			c-12.61-1.71-41.62,7.99-37.99-13.74c-53.19,0.21-106.39,0.44-159.57,0.66c2.56,13.27-9.66,14.36-19.6,13.33
			c-14.41-0.21-28.82-0.41-43.23-0.62c-11.82-2.16-38.02,6.49-37.36-12.3c-10.8-1.73-34.77,6.28-35.81-9.89
			c0.95-39.18,20.23-76.79,50.09-101.88C16.01,333.78,3.41,237.48,151.68,227.43c0.39-8.26,4.56-16.09,10.69-21.56
			c-23.01-13.87-22.2-47.79-12.8-69.87c8.97-19.87,31.07-30.96,52.4-29.5c-2.98-14.3,0.19-28.84,3.07-42.9
			c0.98-4.89,6.37-7.78,10.98-7.16c11.23,2.04,6.04,14.99,21.86,21.59c15.32-39.52,56.56-39.11,80.53-7.57
			c52.88-22.55,82.87-7.52,94.51,48.82c48.73,5.54,48.27,85.55,19.72,67.27c-5.55-4.81,0.4-14.8-8.14-17.31
			c1.71,6.14,3.21,12.33,4.59,18.53c15.31,4.36,25.63,20.04,26.47,35.53C491.85,230.85,558.93,238.14,554.54,288.23z"/>
	</g>
	<g class="st0">
		<path  d="M348.33,494.28c-0.37,10.84-17.24,9.37-24.73,10.96c-0.03,12.95-0.41,36.09-2.15,42.02
			c-1.96,4.99-9.53,7.49-14.3,2.48c-0.74-0.73-2.28-2.23-3.04-2.95c0.66-13.49,1.54-8.45,1.73-25.62
			c-2.72,3.39-6.96,5.7-11.34,6.33c0.54,9.02-6.88,15.93-14.56,10.3c4.5,9.49-4.35,18.6-12.78,12.28c-4.4-3.53-6-14.26-8.6-20.69
			c-2.43,0.15-5.59,0.33-7.98,0.48c-2.31,4.53-5.97,18.73-11.39,20.89c-5.26,2.87-12.65-0.97-12.54-7.06
			c-0.53-2.03,3.22-8.92,3.7-10.48c4.74-11.6,9.94-25.49,15.19-37.45c4.05-9.74,8.92-11.65,16.7-8.39
			c7.11,6.08,6.34,17.03,10.11,26.71c3.24,9.88,2.2,7.81,4.43,13.9c0.5-6.06-0.65-15.28,2.02-20.66
			c5.38-9.21,20.65-9.71,27.33-1.73c-0.74-11.21,2.6-16.8,14.16-17.35C330.32,487.92,346.33,480.58,348.33,494.28z"/>
		<path d="M381.02,532.01c-1.02,10.04-12.36,10.62-18.01,2.96c-5.23,10.15-20.52,8.87-18.75-3.5
			c1.34-3.67,4.2-5.59,7.2-10.48c-2.36-3.04-5.06-5.97-5.83-7.11c-6.67-11.22,9.38-18.61,16.59-7.35
			c4.67-7.62,16.86-5.89,17.41,3.17c0.48,2.99-4.29,8.32-6.45,11.13C376.46,523.68,381,527.07,381.02,532.01z"/>
		<path d="M518.25,517.05c-0.15,7.18-9.93,10.37-14.6,4.05c-6.36,10.53-21.81,0.86-13.05-8.65
			c0.52-0.59,1.18-1.42,2.68-3.62c-4.04-4.63-7.39-8.21-3.78-13.4c-2.63,1.4-10.99,2.15-14.32,2.67
			c-0.07,11.07-0.26,25.59-1.67,30.8c-1.68,4.49-8.52,6.81-12.77,2.34c-0.63-0.6-2.05-2-2.7-2.61c0.29-7.75,1.1-7.71,1.27-16.7
			c-1.8,1.39-3.82,2.32-6.03,2.79c-0.05,6.13-4.28,10.76-10.21,9.06c2.26,7-6.85,12.69-12.25,7.79
			c-3.44-2.58-4.78-10.77-6.54-15.18c-1.42,0.07-2.95,0.18-4.24,0.25c-2.6,5.2-3.62,12.7-8.89,15.61
			c-7.43,3.62-14.36-4.9-9.61-11.83c5.51-11.11,9.29-27.47,16.6-37.25c15.21-8.92,15.76,13.38,19.54,23.19
			c-1.46-12.33,12.77-18.62,21.98-11.88c-1.43-11.4,10.98-11.44,19.12-12.47c8.67-2.74,19.12,2,13.26,11.24
			c3.77-2.14,8.13-0.28,10.88,2.83c9.18-9.2,20.23,3.82,9.91,12.41C515.2,510.44,518.2,513.19,518.25,517.05z"/>
		<path d="M215.96,515.9c-0.27,6.3-8.05,9.55-12.6,4.67c-6.31,8.52-18.83-1.23-11.29-9c0.34-0.39,0.7-0.81,1.67-2.2
			c-2.84-3.35-4.73-5.15-3.72-9.07c-1.86,0.37-6.66,1.1-8.54,1.33c-0.59,10.08,1.47,25.5-4.85,27.78c-3.98,2.2-7.9-0.48-10.87-3.85
			c0.13-4.74,0.83-7.24,0.99-11.87c-0.9,0.5-1.86,0.88-2.86,1.15c-0.22,4.61-3.33,8.03-7.9,7.71c0.79,5.99-7.25,9.77-11.61,5.74
			c-3.02-2.47-3.51-7.06-5.31-11.88c-0.68,0.04-1.35,0.08-1.99,0.12c-2.21,4.53-2.8,9.93-7.38,12.43c-4.41,2.37-10.47-1-10.36-6.05
			c0.37-4.17,4.02-10.3,5.35-14.45c2.47-5.46,5.55-16.27,9.53-20.42c10.94-6.88,14.1,6.06,15.83,14.49
			c1.41-7.28,11.24-9.67,17.12-6.43c-0.32-8.26,9.91-8.44,16.05-9.22c6.57-2.07,14.8,0.93,12.82,8.31c2.53-0.4,4.88,0.86,6.67,2.54
			c7.88-6.89,17.2,4.34,9.3,11.18C213.8,510.47,215.96,512.82,215.96,515.9z"/>
		<path d="M554.54,288.23c-10.83,35.93-56.98,43.82-88.4,53.51c37.74,24.25,62.72,67.19,67.92,111.44
			c-0.89,15.57-22.37,8.53-32.64,10.09c1.14,13.64-10.04,14.09-20.5,13.55c-14.95,0.21-29.9,0.42-44.85,0.62
			c-12.61-1.71-41.62,7.99-37.99-13.74c-53.19,0.21-106.39,0.44-159.57,0.66c2.56,13.27-9.66,14.36-19.6,13.33
			c-14.41-0.21-28.82-0.41-43.23-0.62c-11.82-2.16-38.02,6.49-37.36-12.3c-10.8-1.73-34.77,6.28-35.81-9.89
			c0.95-39.18,20.23-76.79,50.09-101.88C16.01,333.78,3.41,237.48,151.68,227.43c0.39-8.26,4.56-16.09,10.69-21.56
			c-23.01-13.87-22.2-47.79-12.8-69.87c8.97-19.87,31.07-30.96,52.4-29.5c-2.98-14.3,0.19-28.84,3.07-42.9
			c0.98-4.89,6.37-7.78,10.98-7.16c11.23,2.04,6.04,14.99,21.86,21.59c15.32-39.52,56.56-39.11,80.53-7.57
			c52.88-22.55,82.87-7.52,94.51,48.82c48.73,5.54,48.27,85.55,19.72,67.27c-5.55-4.81,0.4-14.8-8.14-17.31
			c1.71,6.14,3.21,12.33,4.59,18.53c15.31,4.36,25.63,20.04,26.47,35.53C491.85,230.85,558.93,238.14,554.54,288.23z"/>
	</g>
	
	<polygon class="st1" points="187.56,205.41 184.2,233.36 161.15,235.52 167.5,214.48 	"/>
	<polygon class="st1" points="439.8,205.85 446.14,231.33 424.99,228.76 420.26,196.27 	"/>
	<path class="st2" d="M311.22,400.08c61.04,0,91.43-53.73,91.43-53.73l22.88-120.43l-19.67-92.13l-212.3,2.54l-8.38,96.02
		l25.72,118.34C210.89,350.7,250.18,400.08,311.22,400.08z"/>
	<path class="st3" d="M149.8,237.64C25.56,248.57,22.24,318,145.74,340.95c116.08,17.39,259.45,11.4,345.34-16.92
		c75.38-21.13,69.39-71.8-17.38-87.36C426.45,225.22,350.5,219.34,149.8,237.64z"/>
	<path class="st1" d="M202.28,192.16c-4.25-37.59,20.21-35.32,30.18-11.55c23.55,11.82,50.78,0.86,51.56-21.91
		c18.33,17.29,50.84,26.15,70.11,12.85c-0.27-6.69,0.37-12.4,5.42-13.43c7.17,14.02,18.75,23.1,36.88,20.62
		c-0.69-17.69,7.34-20.71,17.32-7.96l-8.55-42.37L177,135.62L202.28,192.16z"/>
	<path class="st4" d="M112.5,454.53l411.98-1.43c-12.07-57.77-42.46-104.46-94.16-114.22l-26.25,4.11c0,0-31.11,57.1-92.85,57.1
		S210.89,350.7,210.89,350.7l-33.76-4.14C137.96,374.67,111.83,408.61,112.5,454.53z"/>
	<path class="st1" d="M307.34,177.55l12.39,36.33l-15.61,0.65C308.97,209.25,309.02,195.01,307.34,177.55z"/>
	<path class="st1" d="M208.17,350.12c0,0,29.5,17.09,102.46,15.38c76.21-1.78,92.53-19.15,92.53-19.15
		C311.98,353.15,245.09,352.34,208.17,350.12z"/>
	<path class="st5" d="M77.07,254.72l48.34-14.29c0,0,12.72,48.12-11.93,55.17C86.35,302.64,77.07,254.72,77.07,254.72z"/>
	<path class="st6" d="M223.03,348.9c49.83,3.12,104.56,1.32,162.41-3.61c-6.39-12.51-14.43-15-24.65-4.34
		c-10.32-13-20.05-14.49-28.96,0c-10.99-14.62-20.94-13.95-29.74,3.7c-10.02-9.62-18.38-9.8-25.14-0.99
		c-8.95-10.69-17.97-10.54-27.04,0C238.23,330.93,229.53,334.04,223.03,348.9z"/>
	<path class="st7" d="M255.36,350.34c0,0,4.14,52.63,12.52,52.34c6.7-0.23,7.79-33.16,12.03-35.37c0,0,2.38,7.69,9.75,6.61
		s7.37-23.58,7.37-23.58H255.36z"/>
	<path class="st2" d="M148.24,467.31l80.74,1.17c-1.12-13.88,7.44-25.61,18.65-36.75c6.22-20.44-0.45-27.2-18.68-21.72
		c22.74-21.52,11.44-32.9-20.45-15.36c8.63-31.24,1.21-41.49-31.79-18.29C159.02,400.14,148.94,429.98,148.24,467.31z"/>
	<path class="st2" d="M408.26,467.31l82.7-1.5c0.89-35.35-12.02-70.08-35.22-92.61c-25.2-15.23-38.97-14.61-27.26,21.26
		c-32.64-17.32-44.88-7.24-21,16.04c-17.63-4.83-26.44-0.44-16.43,23.61C401.07,442.85,407.9,453.63,408.26,467.31z"/>
	<path class="st8" d="M316.3,84.03c-20.65-32.32-56.52-40.39-72.26,5.87c-14.1-2.68-23.58-10.5-29.74-22.04
		c-5.17,14.24-5.09,31.27,0,50.98c-33-7.85-51.54,6.51-60,36.35c-2.45,41.15,14.84,50.72,45.31,39.21
		c-7.3-19.68-6.77-35.64,8.28-44.69c14.13-3.6,22.88,7.72,27.41,30.72c26.79,3.87,40.31-9.64,44.02-36
		c25.8,24.08,49.93,33.69,72.1,26.22c-3.15-12.41,1.9-20.86,11.77-27c-0.61,17.94,15.07,29.44,39.79,37.37
		c-6.89-17.23-6.09-27.38,7.44-25.84c19.43,0.21,27.85,9.16,29.38,23.57c5.73-24.96,0.27-44.61-34.61-50.33
		c0,0-8.86-50.16-32.15-55.99C341.09,65.12,316.3,84.03,316.3,84.03z"/>
	<path class="st7" d="M353.97,266.07l6.8,3.86l-3.75,10.56C351.61,278.01,350.99,273.18,353.97,266.07z"/>
	<path class="st7" d="M370.27,265.43l22.28-5.28c1.05,8.41-2.06,15.28-10.12,22.57c0.64,8.74-1.76,15.82-7.7,20.97
		C366.91,302.75,368.49,280.86,370.27,265.43z"/>
	<path class="st5" d="M161.68,235.52l75.88-7.3c0,0-0.71,65.19-28.66,65.19C177.98,293.41,161.68,235.52,161.68,235.52z"/>
	<path class="st9" d="M205.31,205.41c27.84,15.85,76.66,3.09,92.54-23.62C282.16,176.7,214.86,194.22,205.31,205.41z"/>
	<path class="st9" d="M323.93,180.88c20.18,31.16,52.18,36.62,91.96,25.17C411.78,196.61,333.03,177.55,323.93,180.88z"/>
	<path class="st5" d="M286.17,225.92l70.34,0c0,0-7.21,60.28-39.42,60.28S286.17,225.92,286.17,225.92z"/>
	<path class="st10" d="M255.36,362.71c11.49,1.74,25.14,2.39,41.18,2.9l0.49-15.26h-41.67V362.71z"/>
	<path class="st5" d="M392.74,225.92l78.78,9.69c0,0,3.35,56.26-33.67,59.74C409.63,298.01,392.74,225.92,392.74,225.92z"/>
	<path class="st11" d="M286.68,231.1c0.18,4.11,0.62,9.9,1.67,16.18c-2.28,2.8-6,5.26-12.06,5.26c-14.08,0-21.55-13.72-21.55-13.72
		s-2.8,15.38-13.47,15.29c-1.96-0.02-3.94-0.38-5.84-0.95c1.6-9.25,2.19-17.76,2.4-22.34L286.68,231.1z"/>
	<path class="st11" d="M401.3,251.29c-8.4-2.87-10.94-14.2-10.94-14.2s-3.82,15.16-18.29,13.89c-14.48-1.28-14.48-10.67-14.48-10.67
		c0,0.16-0.04,9.41-7.86,13.57c3.18-8.5,5.08-16.87,6.12-22.4l39.05,0.22C396.27,236.58,398.43,243.65,401.3,251.29z"/>
	<path class="st12" d="M237.83,230.82c-0.21,4.58-0.8,13.09-2.4,22.34c-8.45-2.55-15.68-9.3-15.68-9.3l-2.3-13.15L237.83,230.82z"/>
	<path class="st12" d="M355.85,231.48c-1.04,5.53-2.94,13.9-6.12,22.4c-2.32,1.25-5.4,2.05-9.42,1.99
		c-17.35-0.26-16.64-15.72-16.64-15.72s-0.55,12.39-15.36,11.41c-14.8-0.97-16.46-12.32-16.46-12.32s-0.48,4.32-3.5,8.04
		c-1.05-6.28-1.49-12.07-1.67-16.18L355.85,231.48z"/>
	<path class="st12" d="M419.75,231.84c0,0-5.62,21.29-15.99,20.02c-0.87-0.11-1.69-0.3-2.46-0.57c-2.87-7.64-5.03-14.71-6.4-19.59
		L419.75,231.84z"/>
	<path class="st13" d="M238.82,212.34c18.84,0.37,33.62-5.73,45.2-16.96C269.93,186.19,245.28,196.03,238.82,212.34z"/>
	<path class="st13" d="M337.04,195.39c10.38,11.22,26.05,15.82,45.1,16.18C376.27,196.03,351.23,187.37,337.04,195.39z"/>
	<path class="st5" d="M496.69,241.07l34.33,15.08c0,0-0.08,20.88-16.42,15.83S496.69,241.07,496.69,241.07z"/>
	<path class="st7" d="M228.32,262.32l6.33,0.53c0,0,8.97,16.93-0.39,16.93C224.9,279.78,228.32,262.32,228.32,262.32z"/>
	<path class="st7" d="M197.09,256.15c0,0,3.85,2.33,10.71-10.71c6.86,1.11-2.38,28.89,5.4,29.09c11.71,0.59,14.86-23.83,14.11-43.36
		l-35.76,1.19C191.12,241.68,191.48,250.52,197.09,256.15z"/>
	<path class="st6" d="M189.81,231.78c6.76,15.49,16.95,21.46,31.7-0.44l5.79-0.17v13.08c12.62,8.31,20.83,1.94,26.65-12.37
		c13.8,17.16,26.56,20.12,37.7,0.63c9.43,17.83,20.34,16.31,32.28,1.38c11.18,18.82,22.32,20.4,33.39,0
		c8.87,13.55,19.36,14.91,32.37-2.8c12.24,14.87,24.1,13.49,31.08-2.72C341.49,223.92,264.57,225.23,189.81,231.78z"/>
	<g>
		<g>
			<path d="M276.05,543.29c-2.45-11.83-8.94-26.21-11.46-38.68c-1.52-6.05-3.13-17.17-11.02-12.73
				c-4.49,5.83-7.54,16.46-10.71,23.66c-3.77,9.79-8.05,18.66-11.21,28.16c6.09,12.59,13.44-15.15,15.49-18.64
				c4.74-0.27,10.28-0.59,14.99-0.93c2.08,4.98,4.89,18.55,8.19,22.08C272.47,548.39,276.9,546.37,276.05,543.29z M259.11,517.12
				c-2.49,0.07-6.78,1.2-8.82,0.52c0.92-2.24,4.19-12.85,5.99-14.25c0.87,2.27,1.16,6.12,2.39,9.64c0,0,1.2,3.91,1.2,3.91
				C259.87,516.98,259.61,517.04,259.11,517.12z"/>
			<path d="M303.01,509.81c-3.97-6.35-15.81-6.52-19.84-0.05c-2.09,5.89-0.79,14.31-1.51,20.56c-0.44,4.16,4.97,6.17,6.83,2.66
				c0.78-1.38,1.18-7.83,1.42-10.26C297.13,523.66,306.48,517.42,303.01,509.81z M294.73,514.75c-1.4,0.65-3.68,1.56-4.98,0.58
				C288.19,510.61,299.82,511.54,294.73,514.75z"/>
			<path d="M343.33,494.28c-0.86,6.66-21.02,4.16-24.57,7.12c-0.28-0.6-0.32,35.78-0.95,35.23c-0.64,1.56-0.56,7.46-1.07,8.93
				c-1.76,3.19-5.64,1.83-7.49-0.76c0.96-12.81,1.53-8.96,1.7-29.09c1.37-14.01-4.09-21.73,9.89-22.49
				C327.36,493.63,341.6,487.13,343.33,494.28z"/>
			<path d="M376.02,532.01c-2.81,8.58-10.42-1.98-13.8-4.44c-1.67,2.33-4.88,6.83-6.46,8.06c-2.57,2.89-7.19,0.86-6.7-2.74
				c1.79-3.05,6.11-8.03,8.56-11.98c-2.8-4.61-7.29-7.85-8.63-11.62c2.14-8.99,9.83,0.93,13.29,4.91c3.48-3.86,9.31-12.41,12.35-4.5
				c-0.75,3.33-6.26,8.55-7.87,11.51C368.57,524.16,376.18,528.83,376.02,532.01z"/>
			<path d="M438.28,525.5c-1.66-7.9-3.84-11.93-6.35-20.76c-2.92-6.03-1.75-17.35-8.05-18.45c-5.45-1.7-14.3,31.03-17.86,36.37
				c-2.19,3.06-0.44,6.58,3.07,5.04c3.18-2.71,5.68-12.35,7.51-15.86c3.56-0.22,7.71-0.44,11.24-0.71
				c1.56,3.74,3.66,13.92,6.15,16.57C435.6,529.35,438.92,527.81,438.28,525.5z M425.58,505.88c-1.87,0.05-5.09,0.9-6.62,0.39
				c0.7-1.68,3.16-9.64,4.49-10.69c0.66,1.7,0.88,4.6,1.8,7.23c0,0,0.89,2.93,0.89,2.93C426.14,505.77,425.95,505.82,425.58,505.88z
				"/>
			<path d="M458.5,500.4c-2.97-4.77-11.86-4.89-14.88-0.04c-1.56,4.42-0.6,10.74-1.13,15.42c-0.33,3.11,3.73,4.63,5.12,1.99
				c0.58-1.03,0.9-5.87,1.07-7.69C454.09,510.78,461.09,506.11,458.5,500.4z M452.29,504.1c-1.05,0.49-2.76,1.17-3.73,0.44
				C447.33,501.03,456.06,501.66,452.29,504.1z"/>
			<path d="M488.74,488.75c-1.27,5.26-15.26,2.94-18.43,5.34c-0.21-0.41-0.21,26.65-0.71,26.42c-0.49,1.18-0.41,5.6-0.8,6.7
				c-1.34,2.39-4.22,1.37-5.62-0.57c0.73-9.61,1.14-6.72,1.28-21.82c0.99-10.53-3.06-16.21,7.41-16.86
				C477,488.32,487.04,483.28,488.74,488.75z"/>
			<path d="M513.25,517.05c-2.11,6.44-7.81-1.49-10.34-3.33c-2.08,3.42-8.56,11.69-9.87,3.99c1.35-2.28,4.57-6.03,6.42-8.99
				c-2.11-3.46-5.47-5.88-6.47-8.71c1.49-6.76,7.44,0.74,9.97,3.68c2.49-2.9,7.14-9.26,9.26-3.38c-0.57,2.5-4.69,6.41-5.91,8.63
				C507.66,511.16,513.38,514.65,513.25,517.05z"/>
			<path d="M150.99,522.66c-1.35-6.32-3.07-9.54-5.09-16.61c-2.03-5.42-1.78-10.36-4.7-14.34c-3.11-1.23-4.14-0.04-5.82,3.75
				c-2.95,6.6-4.63,11.62-7.45,18.28c-0.86,3.59-7.22,12.07-0.3,10.67c2.55-2.16,4.55-9.89,6.01-12.69
				c2.85-0.16,6.17-0.35,8.99-0.56c1.25,2.98,2.92,11.14,4.92,13.25C148.84,525.73,151.48,524.51,150.99,522.66z M140.82,506.96
				c-1.5,0.04-4.07,0.74-5.29,0.31c0.55-1.33,2.52-7.71,3.59-8.55c0.52,1.36,0.71,3.68,1.43,5.78
				C140.46,504.79,141.85,507.22,140.82,506.96z"/>
			<path d="M167.16,502.58c-0.05-0.09-0.1-0.17-0.18-0.26v-0.01c-2.55-3.55-9.35-3.56-11.72,0.23c-1.27,3.54-0.48,8.59-0.91,12.34
				c-0.26,2.49,2.99,3.7,4.1,1.59c0.46-0.82,0.72-4.7,0.85-6.15c2.96,0.19,6.05-0.88,7.61-3.36v-0.01
				C167.7,505.73,167.81,503.78,167.16,502.58z M162.19,505.54c-1.18,0.75-4.06,1.08-2.66-1.04
				C160.2,503.34,164.85,504.04,162.19,505.54z"/>
			<path d="M191.35,493.25c-1.25,4.31-12.03,2.3-14.74,4.28c-1.02,2.42,2.39,35.49-5.71,26.04c0.68-5.87,1.12-14.12,1.11-22.36
				c-0.09-5.61-0.26-8.46,5.85-8.59C182.07,492.95,189.78,488.84,191.35,493.25z"/>
			<path d="M210.96,515.9c-1.68,5.14-6.25-1.19-8.27-2.67c-1.65,2.76-6.86,9.31-7.9,3.19c1.08-1.82,3.66-4.82,5.14-7.18
				c-1.68-2.78-4.38-4.71-5.18-6.98c1.19-5.4,5.95,0.58,7.97,2.95c1.99-2.29,5.74-7.43,7.41-2.7c-0.44,2-3.76,5.12-4.72,6.9
				C206.49,511.19,211.06,513.98,210.96,515.9z"/>
		</g>
		<g>
			<path d="M250.06,410.45c-4.12-5.55-11.55-4.72-17.38-2.74c30.36-23.62-3.37-31.55-22.77-15.5
				c18.79-35.57-13.73-38.05-34.62-16.78c-12.47,13.88-19.07,32.09-23.98,49.82c-2,3.74-11.2,55.55-0.46,41.44
				c-1.33-30.09,17.06-105.77,56.93-98.95c0.31,0.27,0.77,0.74,0.99,1.04c5.66,11.24-4.88,22.82-9.85,32.42
				c-1.43,2.48,1.87,4.99,3.93,3.03c3.94-3.77,8.35-7.06,13.03-9.85c6.77-3.79,17.17-9.42,23.94-3.31
				c2.48,6.58-33.05,26.41-18.16,27.04c6.58-2.81,21.48-12.68,25.42-2.57c5.19,21.15-26.78,29.37-20.67,52.97
				c0.79,3.09,5.65,1.82,4.82-1.33C226.64,445.07,263.83,433.24,250.06,410.45z"/>
			<path d="M306.11,216.51c28.08,0.28,9.65,0.26,4.96-37.98c-0.28-1.32-1.83-2.09-3.08-1.75c-5.07,0.79,4.59,30.98,6.89,34.63
				c-2.92,0.09-5.85,0.1-8.78,0.1C302.89,211.51,302.89,216.51,306.11,216.51z"/>
			<path d="M329.23,191.7c9.16,10.36,21.65,17.47,35.07,20.61c17.39,4.31,36.35,2.42,52.95-4.04c7.29-10.98-35.85-17.72-43.02-21.08
				c-16.36-5.99-33.63-7.77-50.95-8.28C316.87,179.96,327.97,188.99,329.23,191.7z M343.1,198.39c-0.91-0.62-1.8-1.28-2.67-1.96
				c12.73-6.37,30.46,3.31,38.25,13.7C366.05,209.44,353.54,205.61,343.1,198.39z M377.65,208.62
				C377.65,208.63,377.65,208.63,377.65,208.62C377.57,208.52,377.56,208.5,377.65,208.62z M371.82,190.87
				c13.89,4.72,28.85,6.83,41.67,14.28c-9.39,3.33-19.27,5.09-29.17,5.14c-7.2-14.71-33.04-27.56-47.72-17.16
				c-3.19-2.94-6.01-6.17-8.53-9.71C342.94,184.03,357.8,185.56,371.82,190.87z"/>
			<path d="M362.81,269.98c0.03-2.15-2.77-3.35-4.27-1.77c-1.9,2.59,0.84,7.08-1.97,9.43c-1.93-0.86-1.88-3.67-1.74-5.5
				c-0.03-2.56,3.25-5.81,0.38-7.72c-5.53-1.79-6.02,9.39-4.89,12.87C355.36,289.11,365.23,279.28,362.81,269.98z"/>
			<path d="M374.03,300.99c0.02,0,0.04-0.01,0.06-0.02c0.01-0.02-0.01-0.04-0.1-0.02C374,300.97,374.01,300.98,374.03,300.99z"/>
			<path d="M389.75,260.45c4.85,10.75-7.23,15.63-10.73,23.99c-2.23,5.32,0.87,13.1-4.93,16.54c0,0.01-0.03,0.03-0.05,0.03
				c-0.01-0.01-0.01-0.01-0.01-0.02c-0.02,0.02-0.13,0-0.1,0.02c-0.01,0-0.03-0.01-0.04-0.01c0.03-0.01,0.08-0.04,0.1-0.04
				c-4.62-10.82-2.15-24.9-1.7-35.79c0.14-1.28-0.41-2.54-1.76-2.91c-6.44-1.91-3.7,27.72-3.54,32.18
				c0.09,7.31,5.31,16.52,12.53,8.52c6.8-10.09-0.84-16.49,11.83-25.95c4.41-4.88,5.25-11.75,3.21-17.88
				C393.7,256.03,388.88,257.34,389.75,260.45z M373.89,301.02c-0.02,0-0.03,0.01-0.06,0c0.01-0.01,0.02-0.01,0.04-0.02
				C373.87,301.01,373.88,301.01,373.89,301.02z M373.81,301.03c0.01,0,0.02,0.01,0.03,0.01c-0.05,0.01-0.1,0.01-0.15,0.04
				C373.75,301.05,373.77,301.05,373.81,301.03z"/>
			<path d="M473.08,390.55c-7.73-13.32-19.86-24.69-35.12-28.4c-19.83-4.93-19.53,18.39-11.4,30.02
				c-19.45-16.02-52.93-8.01-22.64,15.57c-14.48-6.28-23.81,5.94-19.1,19.65c3.44,10.27,13.31,16.31,18.35,25.6
				c2.26,4.34,2.86,9.37,2.14,14.18c-0.81,3.08,4.02,4.49,4.82,1.33c6.17-23.4-25.71-31.74-20.72-52.84
				c3.99-10.37,18.87-0.31,25.46,2.44c14.05,0.09-16.95-19.47-17.53-24.27c-2.65-3.68,2.81-5.27,5.62-5.36
				c11.75,0.18,22.25,8.22,30.73,15.74c2.03,1.95,5.37-0.53,3.93-3.03c-4.5-8.09-10.72-16.04-11.55-25.54
				c-0.87-14.11,14.74-8.52,22.01-3.96c8.38,4.41,14.64,11.81,19.64,19.72c12.98,21.16,21.37,46.02,21.24,70.99
				c0.13,2.42-1.37,6.53,2.26,6.77c1.45,0,2.39-1.15,2.5-2.5C495.3,440.08,486.42,413.31,473.08,390.55z"/>
			<path d="M533.81,256.7c-24.83-18.02-56.72-21.77-86.15-27.13c2.77-15.39-8.59-33.98-24.83-35.29
				c-2.49-12.24-5.76-24.37-9.44-36.31c11.35,1.93,26.14,7.24,23.82,21.51c-0.24,2.87,3.73,3.15,4.76,0.89
				c10.48-23.29-8.82-54.52-34.89-54.02c-6.01-21.48-10.91-50.89-36.26-56.98c-18.42-2.79-38.88,0.54-54.38,11.22
				c-21.95-34.86-61.81-35.52-74.12,6.96c-10.75-2.63-21.97-10.32-25.13-21.29c-6.2-12.46-8.84,23.29-8.94,26.61
				c-0.14,7.81,1.4,15.33,4.12,22.54c-74.92-16.91-78.71,97.9-27.36,85.78c-0.11,0.97-0.21,1.94-0.31,2.91
				c-14.85,0.84-28.35,14.53-25.31,29.89c-27.73,3.54-60.64,6.62-84.45,20.09s-29.78,30.12-16.16,48.85
				c26.21,33.17,73.62,39.33,112.87,45.01c-35.82,23.38-60.61,63.81-61.64,106.94c-0.12,3.21,4.88,3.21,5,0
				c1.15-43.68,27.43-84.14,64.74-106.13c9.37,0.87,18.78,1.5,28.18,2.02c12.25,17.31,29.93,30.25,49.23,38.73
				c1.08,12.26,13.04,23.69,18.87,7.02c48.67,15.83,105.01-5.69,129.4-50.98c57.22-16.68,100.79,43.48,113.48,92.74
				c2.05,4.01,0.95,17.17,5.15,17.4c1.24,0,2.63-1.15,2.5-2.5c-6.37-47.71-36.73-98.1-84.15-113.76
				C477.53,332.2,586.26,307.75,533.81,256.7z M510.3,249.54c5.85,2.29,12.09,5.09,17.56,8.82c-1.26,3.78-2.14,8.08-5.05,10.86
				c-13.38,4.07-20.75-12.8-23.14-23.41C503.26,246.93,506.8,248.17,510.3,249.54z M428.73,200.93
				c9.63,5.09,15.83,16.78,14.04,27.61c-4.99-0.61-9.99-1.22-14.98-1.83c-0.93-9.08-2.28-18.09-3.2-27.17
				C426.02,199.82,427.41,200.27,428.73,200.93z M425.38,231.42c14.61,1.63,29.15,4.05,43.56,6.92
				c1.97,18.39-4.87,38.84-19.17,50.92c-27,15.85-44.26-26.78-50.29-46.92c9.37,4.82,18.97-2.83,22.82-11.25
				C423.32,231.2,424.34,231.31,425.38,231.42z M397.97,235.14c-1.81-1.78-3.26-3.88-4.48-6.1c7.82,0.34,15.62,0.84,23.41,1.53
				C413.33,237.85,404.01,242.22,397.97,235.14z M420.96,211.72c0.56,4.83,1.08,9.66,1.64,14.49c-78.03-6.31-156.7-0.95-234.73,3.45
				c0.82-10.01,1.21-20.04,2.3-30.01c3.23-2.01,13.64-3.13,11.96-8.13c-4.21-9.38-6.92-21.71-1.84-31.3
				c9.34-18.11,26.22-5.92,29.38,9.28c1.99,3.49,0.26,10.98,3.6,12.67c14.48,5.35,30.78-1.29,40.19-12.88
				c4.83-6.11,5.07-14.13,7.25-21.32c18.49,18.43,46.08,35.84,72.48,24.58c1.15-0.48,2-1.41,1.8-2.74
				c-5.7-7.43,0.43-15.83,6.02-21.34c3.8,21.06,25.5,29.15,43.6,34.64c7.84-0.52-7.92-16.12-2.71-23.74c1.38-1.66,3.73-2,6.1-1.97
				C413.48,175.21,418.17,193.27,420.96,211.72z M386.07,228.75c-2.98,5.56-7.37,11.65-13.88,12.97c-0.6,0.07-1.41,0.04-1.98-0.02
				c-5.81-1.19-8.83-8.06-9.99-13.33C368.83,228.37,377.46,228.46,386.07,228.75z M301.61,245.92c9.03,5.23,18.26-2.89,22.02-10.86
				c3.19,9.5,14.04,20.03,24.43,14.3c-17.52,51.96-55.82,41.72-58.92-10.17c0.9-1.52,1.7-3.12,2.4-4.76
				C293.86,239.1,297.08,243.49,301.61,245.92z M294.86,229.69c8.71-0.22,17.41-0.47,26.12-0.7
				C314.63,246.08,301.71,247.06,294.86,229.69z M347.61,243.6c-9.23,7.95-19.47-6-20.49-14.76c8.84-0.21,17.68-0.38,26.52-0.44
				C353.15,233.87,351.66,239.61,347.61,243.6z M288.01,229.86c-7.03,20.6-19.65,16.01-29.99,0.94
				C268.01,230.41,278,230.12,288.01,229.86z M237.29,245.42c-3.23-0.59-5.58-2.37-7.79-4.52c0.16-2.94,0.27-5.88,0.42-8.8
				c6.52-0.33,13.04-0.64,19.56-0.93c-1.2,5.98-4.8,14.86-12.2,14.24C237.29,245.42,237.29,245.42,237.29,245.42z M230.84,275.81
				c-4.04-5.46,2.85-17.25-3.54-15.99c0,0,1.45-8.41,1.82-12.66c1.45,1.02,3.03,1.9,4.7,2.49c0.63,4.4-3.71,13.02-0.87,15.92
				c1.24,1.84,1.87,2.42,2.29,6.21C235.66,275.57,233.9,279.94,230.84,275.81z M193.55,234.25c7.83-0.58,15.67-1.01,23.51-1.46
				c-2.31,3.63-5.14,7.07-9.19,8.89C201.79,244.5,196.16,239.46,193.55,234.25z M203.8,247.45c-4.75,9.39-8.81,5.52-8.5-3.2
				C197.64,246.13,200.74,247.46,203.8,247.45z M212.09,246.82c-0.3-0.47-0.66-0.87-1.06-1.18c5.1-2.81,9.61-7.73,11.68-13.16
				c0.73-0.04,1.46-0.08,2.19-0.12c-1.19,12.92,0,39.97-9.62,39.97C204.68,272.33,217.28,254.09,212.09,246.82z M166.04,193.44
				c-12.89-11.69-11.48-32.86-6.85-48.2c7.45-23.02,34.82-30.92,56.25-23.92c9.89,0.42-8.42-15.4,0.08-46.53
				c6.42,9.46,16.98,16.35,28.32,18.03c4.3-1.2,3.94-8.02,6.13-11.42c3.97-9.07,10.81-17.8,20.6-20.77
				c10.7-3.13,21.79,2.03,29.9,9.05c5.35,4.62,9.82,10.15,13.39,16.24c0.9,1.54,3.46,1.71,4.32,0c9.83-8.88,24.09-11.28,36.91-12.39
				c34.04-5.1,41.17,30.61,47.67,55.95c2.01,3.71,10.41,0.97,14.85,3.73c13.3,5.08,22.24,19.24,22.19,33.34
				c-4.29-7.68-13.73-10.58-21.74-12.66c-18.48-6.11-27.65,5.15-18.55,22.27c-16.79-5.16-33.25-14.45-34.66-33.86
				c-0.35-2.1-3.65-2.43-4.57-0.59c-1.51,2.09-3.67,3.91-5.31,5.96c-5.09,5.6-9.56,13.63-6.16,21.2
				c-40.23,13.64-70.04-38.76-71.81-25.62c-2.81,6.93-2.69,15.04-6.53,21.6c-7.46,10.37-21.5,17.05-34.12,13.02
				c-6.46-53.85-58.87-31.32-39.61,13.66C187.1,195.94,175.03,200.55,166.04,193.44z M186.9,234.81c0.06-0.02,0.09-0.01,0.13-0.03
				c0.01,0,0.01,0,0.01,0c0.37-0.03,0.76-0.08,1.13-0.11c0.63,1.33,1.36,2.67,2.19,3.95c-2.27,14.43,7.04,29.11,17.76,11.52
				c0.31,1.23,0.35,2.41,0.24,3.65c-1.05,6.51-4.89,14.55,0.5,20.12c6.76,6.61,14.3-1.43,16.37-8.23
				c-0.29,3.88-0.52,7.94,0.87,11.67c-22.69,37.68-57.52-13.72-60.91-39.07C172.46,237.33,179.7,236.24,186.9,234.81z
				 M168.91,216.97c3.95-4.47,9.44-7.17,15.29-7.81c-0.65,7.11-1.14,14.23-1.43,21.36c-6.1,1.15-12.25,2.04-18.4,2.84
				C163.31,227.5,164.89,221.53,168.91,216.97z M94.46,250.91c9.31-3.26,18.89-5.44,28.56-7.09c20.24,52.75-33.18,72.74-42.78,13.1
				C84.81,254.55,89.63,252.6,94.46,250.91z M220.12,357.9c-2.03-2.17-3.95-4.44-5.76-6.8c12.96,0.68,25.92,1.2,38.89,1.46
				c0.72,10.33,1.04,20.72,2.77,30.96C242.69,377.12,230.25,368.74,220.12,357.9z M226.86,346.77c0.85-2.59,2.52-5.07,4.71-6.65
				c6.34-5,15.09-0.66,15.25,7.31C240.17,347.26,233.51,347.04,226.86,346.77z M253.14,347.57c3.61-12.13,17.91-12.4,20.84,0.25
				C267.03,347.8,260.09,347.72,253.14,347.57z M269.72,398.46c-0.76,1.07-1.77,2.07-2.43,1.42c-8.61-8.81-7.71-34.8-9.05-47.22
				c0.01,0,0.01,0,0.01,0c11.98,0.21,23.96,0.23,35.93,0.07c0.02,5.74,0.55,12.19-2.59,17.23c0,0.01-0.01,0.01-0.01,0.02
				c-0.33,0.41-0.84,0.8-1.28,1.07c-6.19,1.98-5.53-11.4-13.91-3.51C269.7,376.28,275.1,389.13,269.72,398.46z M279.91,347.82
				c3.39-12.66,13.94-9.33,19.5-0.2C292.91,347.75,286.41,347.81,279.91,347.82z M385.25,364.68
				c-26.82,29.02-71.02,38.95-108.31,26.9c1.45-6.87-0.8-15.41,3.67-21.18c2.97,7.11,13.14,8.02,16.21,0.52
				c2.65-5.59,2.55-12.22,2.36-18.27c33.33-0.69,66.66-2.36,99.76-6.29C394.76,352.74,390.35,358.99,385.25,364.68z M305.16,347.49
				c2.1-4.14,3.45-8.98,6.65-12.42c7.58-6.34,16.48,4.37,18.28,11.54C321.78,347,313.47,347.3,305.16,347.49z M335.39,346.36
				c1.99-18.35,17.24-16.16,22.85-1.31C350.63,345.55,343.01,345.97,335.39,346.36z M363.98,344.65c0.32-2.25,1.25-4.47,3.08-5.9
				c2.41-1.76,5.7-1.91,8.42-0.78c1.38,0.57,2.7,1.53,3.65,2.7c0.02,0.01,0.03,0.02,0.03,0.04c0.02,0.01,0.03,0.02,0.03,0.03
				c0.45,0.58,0.8,1.22,1.1,1.88c0.02,0.07,0.04,0.12,0.05,0.14c0.07,0.18,0.12,0.37,0.18,0.56
				C375.01,343.82,369.5,344.26,363.98,344.65z M502.95,317.3c-37.35,14.52-77.59,21.51-117.38,25.54
				c-2.2-11.19-19.3-14.74-24.77-4.23c-6.21-12.1-24.77-15.11-28.62,0.34c-8.91-15.63-25.27-13.74-30.24,3.65
				c-5.78-9-19.93-11.92-24.96-0.7c-4.96-11.2-21.15-11.08-26.58-0.31c-5.52-14.37-26.33-8.73-28.68,4.97
				c-46.98-2.23-96.45-5.24-138.46-28.45c-25.47-13.66-38.08-41.7-7.55-58.65h0.01C87.12,324.37,149.8,300.78,128,243
				c10.71-1.65,21.5-2.78,32.23-4.09c3.79,29.4,42.89,82.48,69.2,42.52c11.72,4.92,13.37-12.12,7.55-18.75
				c0.86-4.04,1.42-8.14,1.77-12.25c8.5-0.33,13.5-9.31,15.26-16.63c6.32,9.76,20.18,21.57,30.85,10.95
				c6.54,63.57,59.98,53.06,69.72-2.07c1.28-2.17,2.19-4.48,2.83-6.88c7.28,18,25.43,10.82,32.3-3.29c1.07,1.82,2.3,3.59,3.72,5.17
				c4.48,23.45,25.06,71.34,55.61,57.99c18.18-11.42,26.53-35.59,25-56.31c6.73,1.37,13.44,2.93,20.07,4.79
				c2.08,8.62,4.73,17.73,11.03,24.27c10.3,10.24,24.1,8.75,26.95-6.84C560.64,284.54,525.49,310.4,502.95,317.3z"/>
			<path d="M204.13,208.1c33.26,13.7,75.22,5.43,95.47-25.74c1.26-1.26,0.39-3.73-1.5-3.62c-8.79,0.48-17.76,0.82-26.48,2.05
				C265.36,182.05,189.76,199.48,204.13,208.1z M254.72,208.33c-3.98,0.85-8,1.38-12.03,1.63c8.08-10.52,25.35-20.04,38.26-13.71
				C273.25,202.2,264.23,206.29,254.72,208.33z M249.56,190.7c14.02-5.31,28.87-6.84,43.76-7.45c-2.53,3.53-5.34,6.77-8.53,9.7
				c-14.69-10.36-40.44,2.47-47.72,17.17c-9.91-0.05-19.79-1.81-29.18-5.14C220.7,197.54,235.67,195.42,249.56,190.7z"/>
		</g>
	</g>
</g>
<image class="sticker-draft" width="600" height="600" xlink:href="sticker-bread.webp"></image>
</g>
</svg>
