<?xml version="1.0" encoding="utf-8"?>
<svg xmlns="http://www.w3.org/2000/svg" xmlns:xlink="http://www.w3.org/1999/xlink"
	viewBox="0 0 600 600">
<style type="text/css">
	.st0{fill:#FFFFFF;}
	.st1{fill:#003E76;}
	.st2{fill:#0075C5;}
	.st3{fill:#003249;}
	.st4{fill:#FFDBBC;}
	.st5{fill:#EDEDED;}
	.st6{fill:#AF0000;}

	.shw{fill:#2C191C;transform: scale(103%);transform-origin: 50% 50%;filter:blur(3px);opacity:0.13;}

	.sticker-draft,.sticker{transition:all .5s cubic-bezier(0.75, 0.35, 0.4, 0.99);}
	.sticker{overflow:visible;opacity:1;}
	.sticker-draft{overflow:visible;opacity:0;}

	.main:hover{
		.sticker{opacity:0;}
		.sticker-draft{opacity:1;}
	}
</style>

<g class="main">
<g>
	<path class="shw" d="M474.83,238.91c-7.81-29.16-25.55-13.94-45-18.53c0.6-17.93-2.3-36.09-8.48-52.91
		c-2.59-6.38-6.9-10.94-0.85-16.6c7.47-11.05,21.89-15.77,28.22-27.31c9.78-25.16-22.94-43.5-40.45-23.71
		c-6.69,8.62-6.33,20.79-11.96,30.16c-22.04-24.65-55.98-35.84-88.52-33.95c1.92-10.24,12.59-18.19,8.33-29.54
		c-6.88-20.2-38.25-22.04-49.44-4.78c-9.28,12.89,4.04,25.42,4.52,38.78c-20.66,3.74-39.85,13.82-55.83,27.29
		c7.97-51.16-56.72-30.14-55.57,6.78c0.33,12.55,13.31,20.64,24.97,17.21c2.16,2.12,3.46,4.94,4.8,7.62
		c-5.28,10.26-9.3,21.27-12.14,32.42c-3.47,13.61-5.47,27.97-4.53,42.02c-5.98-4.06-3.57-13.54-9.61-18.58
		c-25.02-25.31-52.79,20.86-30.48,40.66c6.46,6.02,16.57,7.76,24.25,3.03c8.63,6.32,21.98,13.07,22.84,24.8
		c-19.81-1.43-40.3,18.51-19.33,33.49c-11.93,9.58-4.12,29.05,10.99,28.26c3.58,13.27,20.72,10.21,30.47,6.36
		c13.37,16.21,30.99,28.33,50.3,36.15c-31.37,7.1-27.12,15.41-17.37,42.26c-1.25,0.48-4.46,3.17-5.7,3.93
		c-9.17-6.46-18.4-27.3-30.35-19.22c-10.76,8.1-0.22,25.86,2.28,38.75c-1.99,1.33-3.71,3.07-4.44,4.79
		c-10.62-6.12-23.47-15.4-29.35-14.85c-26.78,5.55-24.2,54.2,7.02,41.59c3.86,6.27,4.83,13.41,9.37,17.29
		c5.51,3.55,13.08-1.31,12.15-7.58c0.37-5.57-10.16-17.62-8.74-23.23c4.88,2.93,7.42,4.73,11.16,7.21
		c6.68,3.87,19.47-7.72,15.82-14.59c4.24-2.72,15.94-11.21,21.53-15.23c5.77,4.47,11.25-2.45,16.97-2.19
		c-11.8,10.22-25.04,18.67-38.77,26.02c-14.59,16.23-8.6,44.09-22.86,61.61c-7.51,22.29,25.91,13.38,38.19,14.98
		c25.6-0.07,51.17-0.12,76.76-0.19c29.05-0.07,58.14-0.13,87.19-0.21c11.66-2.17,34.96,6.8,37.12-10.06
		c-0.18-5.76-5.28-9.81-6.98-15.17c-6.14-15.12-6.99-31.83-12.91-47c2.55,0.82,5.51,0.47,7.81-1.45
		c-0.53,5.03-2.75,11.48,0.53,15.59c3.48,4.99,11.71,4.34,13.94-1.41c1.03-7.02,1.42-13.37,3.38-19.76
		c5.33,0.31,17.64,4.07,21.89,0.64c7.63-6.67,0.07-15.96-8.73-15.06c5.35-4.09,1.68-13.65-4.87-13.84
		c-5.7-0.17-11.52,5.67-18.09,9.17c5.67-7.01,15.08-13.53,6.94-21.17c-7.85-4.42-16.04,2.97-24.17,4.85
		c6.98-6.33,13.11-19.14-0.15-21.14c-7.07,0.18-13.86,14.05-16.82,16.26c-1.56-7.85-9.03-13.16-16.28-15.86
		c0.46-0.97,1.54-3.23,2.05-4.29c8.77,2.76,22.15,10.11,22.87-3.39c-0.91-6.68-6.49-7.8-12.9-10.1c-4.34-1.03-16.1-7.21-20.89-1.09
		c-3.1,6.4-12.3,23.85-15.16,36.26c-9.46-9.77-15.77-20.88-12.52-34.7c24.08-5.36,45.36-20.42,59.55-40.49
		c9.93,3.84,27.41,7.39,31.08-6.27c15.19,0.88,22.92-18.67,10.95-28.24c19.93-13.27,2.28-34.18-17-33.21
		c1.7-9.53,3.04-19.15,4.33-28.74c10.74-2.77,14.88,8.83,25.2,8.96C468.21,269.2,477.79,252.27,474.83,238.91z M172.46,465.56
		c-7.29,11.79-11.24,2.46-3.93-4.88c1.38,0.67,4.19,2.17,5.27,2.8C173.47,464.03,173.03,464.72,172.46,465.56z M215.31,444.52
		c-0.21-0.69-0.41-1.35-0.59-1.97c0.33,0.33,0.77,0.79,1.37,1.43C215.82,444.17,215.56,444.35,215.31,444.52z M282.59,410.51
		c-3.27,6.24-6.93,12.29-11.44,17.72c-5.31-5.6-13.34,0.44-19.04,1.97c-0.83-2.4-2.2-6.32-3.18-9.08
		c10.69-2.21,18.88-11.91,7.38-17.83c6.35-1.38,8.38-7.25,6.47-11.46c6.86,2.22,13.87,3.91,20.97,5.2
		C283.27,401.51,282.89,406.01,282.59,410.51z M403.33,453.87c-7.32,9.33-6.39,13.44,1.62,17.08c0.07,0.35,0.16,0.69,0.29,1.02
		c-10.96-5.83-21.48-12.51-31.32-20.09c2.37-0.05,4.69-0.44,6.81-1.19C383.65,461.7,395.74,456.32,403.33,453.87z M369.88,428.51
		c10.48,3.06,6.62,10.58-2.2,6.2C368.3,432.95,369.38,429.95,369.88,428.51z"/>
	
	<path class="st0" d="M474.83,238.91c-7.81-29.16-25.55-13.94-45-18.53c0.6-17.93-2.3-36.09-8.48-52.91
		c-2.59-6.38-6.9-10.94-0.85-16.6c7.47-11.05,21.89-15.77,28.22-27.31c9.78-25.16-22.94-43.5-40.45-23.71
		c-6.69,8.62-6.33,20.79-11.96,30.16c-22.04-24.65-55.98-35.84-88.52-33.95c1.92-10.24,12.59-18.19,8.33-29.54
		c-6.88-20.2-38.25-22.04-49.44-4.78c-9.28,12.89,4.04,25.42,4.52,38.78c-20.66,3.74-39.85,13.82-55.83,27.29
		c7.97-51.16-56.72-30.14-55.57,6.78c0.33,12.55,13.31,20.64,24.97,17.21c2.16,2.12,3.46,4.94,4.8,7.62
		c-5.28,10.26-9.3,21.27-12.14,32.42c-3.47,13.61-5.47,27.97-4.53,42.02c-5.98-4.06-3.57-13.54-9.61-18.58
		c-25.02-25.31-52.79,20.86-30.48,40.66c6.46,6.02,16.57,7.76,24.25,3.03c8.63,6.32,21.98,13.07,22.84,24.8
		c-19.81-1.43-40.3,18.51-19.33,33.49c-11.93,9.58-4.12,29.05,10.99,28.26c3.58,13.27,20.72,10.21,30.47,6.36
		c13.37,16.21,30.99,28.33,50.3,36.15c-31.37,7.1-27.12,15.41-17.37,42.26c-1.25,0.48-4.46,3.17-5.7,3.93
		c-9.17-6.46-18.4-27.3-30.35-19.22c-10.76,8.1-0.22,25.86,2.28,38.75c-1.99,1.33-3.71,3.07-4.44,4.79
		c-10.62-6.12-23.47-15.4-29.35-14.85c-26.78,5.55-24.2,54.2,7.02,41.59c3.86,6.27,4.83,13.41,9.37,17.29
		c5.51,3.55,13.08-1.31,12.15-7.58c0.37-5.57-10.16-17.62-8.74-23.23c4.88,2.93,7.42,4.73,11.16,7.21
		c6.68,3.87,19.47-7.72,15.82-14.59c4.24-2.72,15.94-11.21,21.53-15.23c5.77,4.47,11.25-2.45,16.97-2.19
		c-11.8,10.22-25.04,18.67-38.77,26.02c-14.59,16.23-8.6,44.09-22.86,61.61c-7.51,22.29,25.91,13.38,38.19,14.98
		c25.6-0.07,51.17-0.12,76.76-0.19c29.05-0.07,58.14-0.13,87.19-0.21c11.66-2.17,34.96,6.8,37.12-10.06
		c-0.18-5.76-5.28-9.81-6.98-15.17c-6.14-15.12-6.99-31.83-12.91-47c2.55,0.82,5.51,0.47,7.81-1.45
		c-0.53,5.03-2.75,11.48,0.53,15.59c3.48,4.99,11.71,4.34,13.94-1.41c1.03-7.02,1.42-13.37,3.38-19.76
		c5.33,0.31,17.64,4.07,21.89,0.64c7.63-6.67,0.07-15.96-8.73-15.06c5.35-4.09,1.68-13.65-4.87-13.84
		c-5.7-0.17-11.52,5.67-18.09,9.17c5.67-7.01,15.08-13.53,6.94-21.17c-7.85-4.42-16.04,2.97-24.17,4.85
		c6.98-6.33,13.11-19.14-0.15-21.14c-7.07,0.18-13.86,14.05-16.82,16.26c-1.56-7.85-9.03-13.16-16.28-15.86
		c0.46-0.97,1.54-3.23,2.05-4.29c8.77,2.76,22.15,10.11,22.87-3.39c-0.91-6.68-6.49-7.8-12.9-10.1c-4.34-1.03-16.1-7.21-20.89-1.09
		c-3.1,6.4-12.3,23.85-15.16,36.26c-9.46-9.77-15.77-20.88-12.52-34.7c24.08-5.36,45.36-20.42,59.55-40.49
		c9.93,3.84,27.41,7.39,31.08-6.27c15.19,0.88,22.92-18.67,10.95-28.24c19.93-13.27,2.28-34.18-17-33.21
		c1.7-9.53,3.04-19.15,4.33-28.74c10.74-2.77,14.88,8.83,25.2,8.96C468.21,269.2,477.79,252.27,474.83,238.91z M172.46,465.56
		c-7.29,11.79-11.24,2.46-3.93-4.88c1.38,0.67,4.19,2.17,5.27,2.8C173.47,464.03,173.03,464.72,172.46,465.56z M215.31,444.52
		c-0.21-0.69-0.41-1.35-0.59-1.97c0.33,0.33,0.77,0.79,1.37,1.43C215.82,444.17,215.56,444.35,215.31,444.52z M282.59,410.51
		c-3.27,6.24-6.93,12.29-11.44,17.72c-5.31-5.6-13.34,0.44-19.04,1.97c-0.83-2.4-2.2-6.32-3.18-9.08
		c10.69-2.21,18.88-11.91,7.38-17.83c6.35-1.38,8.38-7.25,6.47-11.46c6.86,2.22,13.87,3.91,20.97,5.2
		C283.27,401.51,282.89,406.01,282.59,410.51z M403.33,453.87c-7.32,9.33-6.39,13.44,1.62,17.08c0.07,0.35,0.16,0.69,0.29,1.02
		c-10.96-5.83-21.48-12.51-31.32-20.09c2.37-0.05,4.69-0.44,6.81-1.19C383.65,461.7,395.74,456.32,403.33,453.87z M369.88,428.51
		c10.48,3.06,6.62,10.58-2.2,6.2C368.3,432.95,369.38,429.95,369.88,428.51z"/>
	
	<path class="st1" d="M410.18,297.88c0,0,29.29-0.65,27.91,9.91c-1.38,10.57-10.34,2.67-12.07,11.22
		c-1.73,8.54,11.51,7.57,9.39,16.76s-21.85,1.11-21.85,1.11s6.94,8.32,5.41,11.29c-2.63,5.11-26.01-3.81-26.01-3.81L410.18,297.88z"
		/>
	<path class="st1" d="M189.63,293.5c0,0-31.12-0.82-28.58,9.8c1.87,7.8,11.28,4.89,12.62,11.45s-13.11,10.78-9.49,17.08
		c5.09,8.98,21.13-0.55,22.01,0.92c0.88,1.47-6.77,8.12-5.28,11.54c1.49,3.42,24.65-3.33,24.65-3.33L189.63,293.5z"/>
	<path class="st2" d="M200.28,540.71l217.56-0.53c-6.91-14.5-12.2-35.52-17.12-58.06c-30.35-14.9-54.74-36.84-73.66-65.25
		l1.57-28.53c58.09-11.54,85.13-60.94,90.57-136.67c7.7-3.71,15.67-3.03,23.78,0c22.4,27.16,32.38-32.51,3.2-19.93
		c-10.34,0.26-20.03-0.91-28.53-4.75c3.8-25-0.45-47.69-13.7-67.81c6.44-14.76,16.66-25.07,28.76-33.15
		c21.72-14.09-9.98-38.79-20.84-12.92c-2.75,13.06-7.73,24.65-15.46,34.44c-23.81-31.67-56.72-45.75-99.98-39.78
		c-0.4-8.96,0.8-17.35,3.56-25.17c26.02-23.51-40.47-34.7-23.81,0c3.53,8.34,5.09,17.41,4.73,27.2
		c-28.75,3.09-52.72,15.17-71.64,36.72l-6.02-22.26c6.45-15.89-8.21-25.73-26.85-7.41c-20.39,20.03,3.67,30.23,7.14,24.56
		c6.76,2.19,12.32,7.62,16.34,17.31c-15.12,27.76-21.59,58.44-14.84,93.59c-9.03-2.43-17.74-7.86-26.25-15.23
		c3.91-14.38-17.33-30.12-25.13-6.76c-3.92,18.79,14.33,27.1,22.2,16.84c16.36,9.46,29.07,19.83,32.71,32.46
		c0.61,60.92,34.52,97.66,104.61,108.74l-2.47,29.19c-18.78,27.63-43.25,49.45-73.89,64.97
		C212.84,504.65,207.73,524.78,200.28,540.71z"/>
	<path class="st1" d="M304.2,292.4c2.54,20.12,2.89,35.7-2.74,38.94c6.55,1.93,10.72,0.12,9.95-9.48L304.2,292.4z"/>
	<path class="st1" d="M314.05,155.32c1.17,8.35,8.25,11.64,15.1,11.84l5.67-5.67c-7.9-1.99-13.7-6.88-17.18-14.97L314.05,155.32z"/>
	<path class="st1" d="M221.38,210.9c1.49,37.6,45.66,62.24,62.18,46.98L221.38,210.9z"/>
	<path class="st1" d="M323.62,254.33c33.26,17.43,66.34-24.1,61.49-46.26L323.62,254.33z"/>
	<path class="st1" d="M311.41,277.66c19.94,47.28,79.92,16.5,95.71-24.64L311.41,277.66z"/>
	<path class="st1" d="M199.47,255.3c17.14,55.43,93.71,61.68,96.58,25.22L199.47,255.3z"/>
	<path class="st1" d="M286.44,308.12c4.27,32.4-47.9,43.84-75.82,16.82L286.44,308.12z"/>
	<path class="st1" d="M321.35,305.11c-3.64,35.56,43.28,40.94,73.53,16.44L321.35,305.11z"/>
	<path class="st1" d="M435.7,231.44c-4.85,3.77-6.72,12.28-1.56,17.95l8.59,0.56l1.71-18.21L435.7,231.44z"/>
	<path class="st1" d="M409.3,122.9c1.01,6.21,6.97,9.87,14.36,9.95l7.24-6.48l-19.51-11.08L409.3,122.9z"/>
	<path class="st1" d="M324.74,134.97c-0.78,10.92,17.42,23.31,17.42,9.15S325.52,124.04,324.74,134.97z"/>
	<path class="st1" d="M279.33,92.31c5.56,4.18,15.19,3.28,18.1,0l1.64-7.92l-22.58-1.06L279.33,92.31z"/>
	<path class="st1" d="M193.06,147.58c7.12,0.66,12.35-4.14,13.52-8.68c1.17-4.55-2.93-12.08-2.93-12.08l-17.64,14.37L193.06,147.58z
		"/>
	<path class="st1" d="M163.2,240.98c0.33,3.55-0.95,6.29-3.84,8.21l-3.5-2.04l2.93-10.08L163.2,240.98z"/>
	<path class="st1" d="M451.25,234.82c5.38-5.38,14.29,20.54,2.01,19.17C445.18,252.48,445.87,240.2,451.25,234.82z"/>
	<path class="st1" d="M419.21,108.62c5.12-8.8,21.46,3.52,14.43,10.81C424.39,122.9,417.77,116.34,419.21,108.62z"/>
	<path class="st1" d="M279.51,71.52c-4.83-8.88,24.11-8.71,20.11-0.51S283.55,78.13,279.51,71.52z"/>
	<path class="st1" d="M191.23,114.07c9.39-3.89,7.43,11.89-3.94,18.95C175.24,140.51,181.84,117.96,191.23,114.07z"/>
	<path class="st1" d="M143.98,244.48c-7.74-1.32-6.66-16.36,2.07-17.87C153.81,225.27,152.18,245.87,143.98,244.48z"/>
	<path class="st1" d="M227.37,540.64l54.98-0.13l-1.24-8.37l11.61-10.5c5.07-8.87,2-10.62-5.28-8.67l-10.96,7.63l6.59-21.2
		c6.63-0.65,7.16-4.72,2.28-11.8l-15.39-12C249.09,485.46,233.01,503.79,227.37,540.64z"/>
	<path class="st1" d="M327.16,540.29l51.85-0.02c-14.16-49.9-28.88-78.58-44.22-83.98c-10.43-1.71-18.97,1.82-24.95,12.44l0.29,7.32
		c7.5,0.16,9.49,8.85,9.07,21.27c-7.65-8.69-17.23-9.29-12.54,2.99l18.08,11.41L327.16,540.29z"/>
	<path class="st3" d="M272.7,342.69c-10.17,2.67-22.96,13.41,6.13,25.24l60.2-1.04c14.41-8.77,6.81-19.79-0.13-24.78L272.7,342.69z"
		/>
	<path class="st4" d="M210.61,323.64c44.35,23.45,72.54-1.79,74.24-15.52L210.61,323.64z"/>
	<path class="st5" d="M265.53,346.09c8.74-7.9,72.59-12.56,80.31,1.88l-6.03,5.09l-5.22-6.96l-5.28,6.96l-8.8-7.89l-8.74,7.89
		l-9.8-7.89l-8.78,8.78l-11.13-8.78l-8.71,9.88L265.53,346.09z"/>
	<path class="st5" d="M277.33,367.08l7.53-6.23l6.65,6.75l8.54-6.75l6.04,6.75l6.78-7.83l6.46,5.52l6.64-6.64l4.93,4.93l6.34-4.93
		l6.02,5.23C328.08,375.62,305.83,376.26,277.33,367.08z"/>
	<path class="st4" d="M201.99,255.19c17.09,35.57,65.88,52.93,94.05,25.33L201.99,255.19z"/>
	<path class="st4" d="M222.48,211.55c9.53,27.51,28.97,43.28,60.67,44.53C276.87,243.49,243.11,218.36,222.48,211.55z"/>
	<path class="st4" d="M323.62,253.03c24.4,4.23,59.49-22.79,60.07-43.53C367.03,213.95,330.87,238.14,323.62,253.03z"/>
	<path class="st1" d="M292.58,396.42c7.87,8.29,28.22,8.83,35.56,1.72l0.48-8.8h-35.45L292.58,396.42z"/>
	<path class="st4" d="M311.41,276.71c23.18,28.4,77.58,9.56,94.01-23.69L311.41,276.71z"/>
	<path class="st4" d="M322.75,305.11c5.48,26.22,45,33.01,73.24,15.77L322.75,305.11z"/>
	<path class="st6" d="M243.47,315.96l7.24,17.97c22.8-2.81,30.1-13.2,33.51-25.5L243.47,315.96z"/>
	<path class="st6" d="M233.13,263.58l52.62,14.84l-5.07,12.99c-14.04,4.51-28.94,3.23-44.42-1.92L233.13,263.58z"/>
	<path class="st6" d="M257.89,231.42l-9.43,15.38c12.31,8.08,24.06,11.2,35.11,7.94L257.89,231.42z"/>
	<path class="st6" d="M323,251.67l26.76-23.49l8.81,15.23C347.64,251.24,335.86,254.43,323,251.67z"/>
	<path class="st6" d="M320.12,274.52l6.75,14.42c15.62,3.96,30.2,2.87,43.75-3.24l2.88-24.63L320.12,274.52z"/>
	<path class="st6" d="M323.1,304.71c1.14,13.03,11.38,21.91,32.82,25.67l7.12-17.23L323.1,304.71z"/>
	<g>
		<g>
			<path d="M279.5,515.96c1.12-4.8,4.27-9.61,4.46-14.44c15.71-3.43-1.52-21.29-8.95-25.38c-5.2-4.84-10.38-0.54-15.06,2.72
				c-20.2,13.63-30.76,36.97-34.28,60.47c-0.38,2.24,3.04,3.19,3.42,0.94c3.64-24.7,15.39-49.34,38-61.77
				c2.08-2.05,3.65-0.86,5.63,0.38c4.67,3.58,16.3,11.25,13.56,18.09c-6.17,5.31-10.74-14.34-18.5-7.43
				c-5.34,3.2,12.9,22.4,3.4,17.65c-3.21-3.09-5.41-8.93-10.79-7.99c-3.68,0.64-3.48,4.77-2.37,7.37c1.62,3.79,4.29,7.03,6.05,10.75
				c0.54,1.15,1.06,2.25-0.38,2.59c-6.11-0.25-8.11-11.91-15.23-10.6c-8.17,3.76,5.12,13.85,7.46,18.05
				c-3.14,2.09-6.83-1.72-8.86-3.96c-1.77-1.72-3.66-3.39-6.11-4.03c-2.22-0.58-3.15,2.84-0.94,3.42
				c6.16,2.08,12.63,14.18,19.53,6.07c1.59-4.48-10.76-12.54-10.05-16.16c1.13-0.84,9.01,9.1,10.38,10.02
				c2.57,1.71,7.58,0.86,8.21-2.59c0.57-5.93-5.47-10.4-7.12-15.72c-0.78-2.25,1.13-2.06,2.54-0.82c3.09,2.7,5.73,9.72,10.93,8
				c8.84-4.6-3.77-13.42-4-19.47c4.39-1.16,6.71,7.59,11,8.73c-1.3,1.74-11.66,27.15-3.66,21.23c3.29-5.02,22.17-14.68,13.15-1.44
				c-2.96,3.4-7.25,5.33-10.12,8.83c-5.93,6.24,2.86,17.19,2.82,9.32c-5.51-11.02,15.16-12.96,13.15-24.4
				C296.02,506.31,285.44,511.62,279.5,515.96z"/>
			<path d="M367.97,500.37c-7.61-16-19.5-51.1-41.86-46.53c-6.5,2.39-13.87,6.94-17.23,13.23c-2.25,3.9-1.54,12.44,4.73,11.6
				c2.81,4.33,3.94,9.15,4.02,14.15c-10.43-11.31-20.8,4.2-8.72,11.21c20.76,6.73,14.66,18.63,16.17,35.92
				c0.35,2.25,3.77,1.29,3.42-0.94c-1.13-25.4,4.16-27.37-20.34-39.98c-1.92-1.86-1.84-6.39,1.57-6.75c3.45-0.34,6.4,4.12,8.61,6.43
				c4.78,1.54,2.38-8.71,2.35-11.31c7.77,2.61,12.83-8.71,20.49-8.23c-3.4,6.31-14.62,9.63-13.4,17.93
				c1.45,4.27,6.64,2.25,9.45,0.91c3.26-0.78,10.81-8.21,13.24-5.08c-4.23,4.64-18.45,12.53-9.35,19.11
				c5.49,2.43,12.3-5.03,16.89-7.03c2.09-0.91,0.28-3.97-1.79-3.06c-4.6,1.8-8.16,6.07-13.09,6.95c-2.22,0.17-1.08-2.89-0.56-3.83
				c2.63-5.08,19.67-12.38,6.9-16.53c-4.42-0.11-9.23,3.88-12.93,5.85c-14.15,6.98,3.58-9.15,6.4-11.8c1.94-2.14,3.26-5.39-0.27-6.7
				c-6.01-4.35-21,14.2-20.97,6.21c0.52-3.77,15.38-15.55,7.11-17.75c-5.02,0.72-9.09,6.62-13.01,9.41
				c-2.16,1.54-4.18,2.05-4.61-1.22c0.85-9.02,13.57-17.05,22.23-15.57c28.21,16.45,32.94,54.72,43.73,82.97
				c0.8,2.12,4.23,1.2,3.42-0.94C375.78,526.29,373.04,512.99,367.97,500.37z M327.05,468.74c-1.57,4.25-6.82,7.24-8.49,11.58
				c-0.44-0.97-0.95-1.92-1.51-2.84C320.61,475.3,323.51,470.78,327.05,468.74z"/>
			<path d="M392.53,188.67c2.29,0.1,2.28-3.45,0-3.55c-11.52-0.51-13.05-13.21-12.89-22.35
				C372.7,152.84,374.93,190.58,392.53,188.67z"/>
			<path d="M466.07,246.82c1.74-10.07-7.71-23.16-18.34-17.53c-9.43,1.69-18.69,0.24-27.83-2.82c2.56-22.94-1.11-49.08-13.88-68.65
				c10.51-27.05,42.12-29.54,33.92-48.74c-4.42-13.83-26.6-10.57-28.95,2.1c-3.72,11.35-7.05,22.91-14.27,32.65
				c-23.28-29.75-61.59-44.06-98.81-38.6c0.09-9.16,1.46-18.04,7.66-25.37c6.99-10.37-3.14-19.83-13.18-21.47
				c-11.29-1.85-27.44,8.54-20.04,20.78c4.85,8.58,6.03,18.89,6.88,28.54c-26.48,2.82-50.96,16.53-69.2,35.68
				c-2.6-6.66-4.2-13.64-3.96-20.81c0.18-3.96,1.44-7.97-0.76-11.88c-12.66-17.55-46.94,12.69-36.39,29.3
				c3.77,5.83,10.19,5.33,16.12,2.85c6.64,3.46,9.98,10.05,12.79,16.98c-14.21,27.17-22.72,60.04-14.9,90.36
				c-8.31-3.12-15.61-9.3-22.41-14.73c1.64-20.65-21.15-26.38-27.69-6c-4.9,13.77,9.67,33.52,22.44,19.55
				c15.94,9.44,35.22,21.78,32.23,42.86c-7.62,0.01-15.86,0.21-22.84,3.48c-8.23,3.31-6.16,14.53,2.06,16.11
				c2.65,0.83,4.72,1.26,4.72,4.52c0,2.11-2.41,3.92-3.8,5.21c-14.81,12.81,1.59,20.75,15.42,13.78
				c-14.63,19.38,11.82,10.19,21.22,7.99c20.73,27.51,53.84,43.28,87.57,47.28c-1.02,8.07-1.76,16.19-2.2,24.33
				c-16.15,29.21-45.02,50.94-73.82,66.93c-6.47,19.11-7.01,40.27-18.62,57.39c-1.29,1.9,1.79,3.67,3.06,1.79
				c11.65-17.18,12.39-38.26,18.73-57.47c27.27-14.37,54.92-34.7,70.35-62.1c0.36,2.71-2.54,28.61,3.39,20.07
				c-0.34-16.85,0.51-33.81,2.6-50.53c10.5,1.18,21.24,1.17,31.78-0.32c-1.83,17.02-1.12,34.21-3.17,51.21
				c5.2,8.76,4.57-17.98,5.02-20.57c15.47,27.2,42.98,47.41,70.13,61.71c6.33,19.21,7.08,40.3,18.73,57.47
				c1.27,1.88,4.35,0.11,3.06-1.79c-11.61-17.13-12.15-38.28-18.62-57.39c-28.1-16.23-57.99-36.6-73.05-66.66
				c0.29-8.2,0.61-16.4,1.51-24.55c26.29-4.09,49.45-20.53,63.38-42.98c9.03,2.59,37.3,11.82,22.5-7.46
				c7.41,2.93,17.92,4.9,20.88-3.45c1.94-6.93-7.16-9.65-9.29-15.03c-1.1-3.41,2.21-4.4,4.65-5.12c8.27-2.48,10.03-12,2.05-16.11
				c-6.41-3.3-14.53-3.48-21.76-3.49c3.01-14.44,4.84-29.18,6.83-43.69c7.01-2.12,15.35-1.09,22.34,0.03
				C449.07,266.63,463.92,259.98,466.07,246.82z M424.22,103.58c5.43-1.1,9.89,1.5,12.27,6.37
				C446.08,138.21,393.84,112.77,424.22,103.58z M274.51,70.67c3.85-13.29,32.22-11.1,29.34,4.29
				C299.87,87.54,271.66,85.78,274.51,70.67z M171.69,137.73c-7.77-12.56,20.57-38.12,30.57-25.25
				C208.82,124.26,181.28,149.92,171.69,137.73z M143.06,249.57c-13.33-4.96-7.61-34.02,7.56-28.67
				C162.12,226.67,157.54,253.36,143.06,249.57z M183.49,343.46c-3.94-0.04,5.2-8.4,4.55-11.38c0.68-5.6-11.83,3.08-15.7,1.86
				c-4.84,0.35-9.12-2.95-5.19-7.37c4.81-4.04,12.01-11.23,4.96-16.78c-3.2-2.4-7.85-1.27-9.16-5.94c-0.95-3.38,2.66-5.21,5.26-6.14
				c6.13-2.21,13.05-2.28,19.53-2.28c1.25,15.66,5.14,31.25,14.25,44.34C195.79,341.02,189.91,344.41,183.49,343.46z M431.35,301.97
				c2.81,0.93,5.96,2.75,5.26,6.14c-0.89,4.33-6.03,4.08-9.16,5.94c-7.11,5.3,0.14,12.92,4.96,16.78
				c6.95,10.95-13.77,7.06-18.28,3.51c-5.24-0.97-1.17,6.34,0.34,8.3c9.87,11.41-14.07,1.8-18.48,1.15
				c8.07-13.59,12.95-28.76,16.39-44.09C418.75,299.71,425.28,299.96,431.35,301.97z M416.28,249.95
				c-6.95,98.22-51.96,161.06-153.28,130.08c-42.75-13.07-76.02-52.61-72.27-98.61c10.51-5.12,7.25-26.05,3.24-16.73
				c1.16,4.79-0.18,9.66-3.82,12.76c-5.61-14.58-20.04-23.51-32.81-31.33c1.22-2.06,2.09-4.28,2.6-6.61
				c8.39,6.74,17.52,14.06,28.29,15.78c2.24,0.36,3.2-3.06,0.94-3.42c-0.73-0.12-1.45-0.26-2.17-0.43
				c-8.47-29.01-0.59-60.84,12.53-87.29c1.47,3.76,2.95,7.45,4.89,10.64c1.19,1.95,4.26,0.17,3.06-1.79
				c-6.29-10.31-8.04-25-18.63-32.03c6.02-3.54,9.94-6.87,13.84-12.61c-2.2,3.69,16.75,49.12,18.27,35.42
				c-3.45-5.26-6.79-10.9-9.44-16.8c17.73-19.04,41.83-33.01,67.94-35.74c0.33,5.99,0.26,12.02-0.33,17.97
				c8.29,10.51,2.25-41.61-0.57-44.82c6.05,3,13.45,3.16,19.65,0.64c-6,13.36-2.75,28.85-3.48,43c6,8.43,2.86-16.31,3.19-19.27
				c36.51-5.34,74.21,8.57,96.74,38.12c-1.24,2.21-18,24.2-8.19,19.63c8.98-16.44,22.12-30.49,26.22-49.27
				c3.09,4.78,9.86,8.55,16.26,9.13c-17.89,11.33-26.01,30.57-36.79,47.81c0.27,9.99,10.63-10.95,12.01-12.94
				c11.21,19.23,15.16,44.2,11.93,66.1c2.05,5.48,21.82,6.43,27.44,6.06c-2.95,4.48-3.64,10.17-2.51,15.35
				C433.51,247.48,423.43,247.33,416.28,249.95z M450.84,256.45c-10.63-4-8.63-27.09,4.3-24.51
				C466.9,235.27,463.98,259.44,450.84,256.45z"/>
			<path d="M305.35,172.3c5.78-6.51,10.99-14.45,13.27-23.04c2.94,6.07,7.93,11.18,14.42,12.81c-7.49,5.16-14.52,10.39-19.37,18.48
				c-1.18,1.97,1.89,3.75,3.06,1.79c5.23-8.74,13.22-13.88,21.4-19.48c7.24-0.03,10.62-7.37,11.24-14.31
				c3.18-20.66-20.54-40.8-32.23-16.42c-1.11,3.09-1.1,6.36-0.88,9.59c-0.47,10.46-6.65,20.43-13.43,28.07
				C301.33,171.5,303.83,174.02,305.35,172.3z M336.89,126.01c10.07,4.95,14.53,33.86-0.4,33.16
				C316.12,157.77,312.95,118.06,336.89,126.01z"/>
			<path d="M296.17,173.65c5.61,28.9,31.36,15.74,20.27,14.07c-8.14,4.87-15.91-7.11-16.72-14.07
				C299.46,171.41,295.91,171.38,296.17,173.65z"/>
			<path d="M291.32,145.8c2.18-0.66,1.25-4.09-0.94-3.42c-5.38,1.64-9.49-2.31-12.94-5.93C267.6,134.57,284.37,149.93,291.32,145.8z
				"/>
			<path d="M298.02,136.36c1.54-1.68-0.96-4.2-2.51-2.51c-3.26,3.56-7.93,3.33-11.44,0.24C274.08,133,290.38,146.1,298.02,136.36z"
				/>
			<path d="M454.26,251.34c-6.03-2.57-5.62-9.54-1.83-14c0.83-11.43-14.5,11.3,0.04,17.07
				C454.55,255.29,456.36,252.23,454.26,251.34z"/>
			<path d="M432.73,120.33c2.25-0.22,2.28-3.77,0-3.55c-4.61,0.45-11.56-0.89-10.59-6.98C417.82,100.49,414.14,122.43,432.73,120.33
				z"/>
			<path d="M332.04,150.64c12.97,6.67,12.04-15,6.94-7.02c0.71,4.34-2.6,5.99-6.01,3.48c-3.55-2.06-6.4-6.39-5.4-10.58
				C324.1,127.92,319.94,145.07,332.04,150.64z"/>
			<path d="M299.95,71.21c0.99-2.05-2.07-3.85-3.06-1.79c-3.25,6.7-11.25,7.46-14.67,0.47c-1.01-2.05-4.06-0.26-3.06,1.79
				C283.69,80.96,295.57,80.25,299.95,71.21z"/>
			<path d="M302.2,329.19c-2.16-0.78-3.08,2.65-0.94,3.42c3.48,1.25,7.86,1.71,10.25-1.74c5.44-12.43-3.04-26.17-5.46-38.51
				c-0.56-2.22-3.98-1.28-3.42,0.94C303.54,300.45,318.97,334.32,302.2,329.19z"/>
			<path d="M207.86,181.12c14.18,1.91,27-13.79,17.29-10.53c-4.37,5.87-10.33,7.02-17.29,6.98
				C205.57,177.56,205.57,181.11,207.86,181.12z"/>
			<path d="M221.02,181.15c-2.58,2.69-8.46,2.95-11.75,2.08c-2.21-0.58-3.15,2.84-0.94,3.42
				C221.21,190.08,228.6,179.32,221.02,181.15z"/>
			<path d="M412.09,228.91c-3.78,3.62-5.08,8.54-4.78,13.67c0.14,2.27,3.68,2.29,3.55,0c-0.25-4.23,0.59-8.15,3.74-11.16
				C416.25,229.83,413.74,227.33,412.09,228.91z"/>
			<path d="M220,280.84c22.03,17.63,56.74,21.78,77.78,0.47c3.46-5.71-17.61-4.88-21.12-6.86c-8.63-1.84-17.13-4.25-25.58-6.8
				c-16.7-4.87-33.15-11.09-50.17-14.63C193.38,254.15,216.57,278.88,220,280.84z M204.48,257.4c9.6,2.44,19.06,5.35,28.5,8.32
				c-3.26,6.49-0.96,14.04,2.43,20.4C222.19,280.18,211.8,269.71,204.48,257.4z M290.4,280.47c0.51,0.08,1.69,0.15,2.77,0.28
				c-3.11,2.72-6.47,4.94-10.02,6.67c1.28-2.39,2.18-4.97,2.9-7.63C287.5,280.02,288.95,280.23,290.4,280.47z M271.84,277
				c3.54,0.84,7.12,1.57,10.71,2.2c-2.54,16.95-23.04,13.72-36.01,11.03c-9.41-1.15-13.95-15.68-10.1-23.43
				C248.14,270.52,259.88,274.19,271.84,277z"/>
			<path d="M221.02,209.99c3.89,25.9,34.53,51.85,62.49,47.89c1.93-0.38,1.36-2.88,0.78-4.15c-7.74-9.97-17.14-18.38-27.73-25.25
				c-10.58-7.17-21.9-13.23-33.4-18.77C222.45,209.37,221.62,209.4,221.02,209.99z M280.5,254.7c-10.11,0.45-20.38-3.02-29.04-7.97
				c-0.15-5.32,2.69-9.48,6.43-13.05C266.43,239.54,274.14,246.55,280.5,254.7z M254.9,231.64c-3.6,3.57-6.38,7.81-6.91,12.8
				c-10.45-7.34-17.33-18.48-22.84-29.82C235.39,219.71,245.41,225.25,254.9,231.64z"/>
			<path d="M286.42,308.2c0.24-1.66-1.57-3.62-3.31-2.95c-23.51,9.1-49.6,9.39-73.83,16.14c-1.69,0.43-1.8,3.36-0.42,4.19
				C234.02,339.02,277.29,342.38,286.42,308.2z M213.8,323.96c9.86-2.29,19.82-4.11,29.79-5.9c-0.27,5.33,2.01,10.01,5.66,13.71
				C237.14,332.29,224.86,328.86,213.8,323.96z M254.07,331.34c-4.49-3.56-7.39-8.1-6.89-13.92c11.73-2.12,24.04-3.58,35.18-8.04
				C278.19,322.23,267.03,329.48,254.07,331.34z"/>
			<path d="M405.87,249.95c-31.53,7.97-59.32,17.91-94.59,25.36c-2.34,0.49-1.4,1.88-0.92,2.57c15.5,22.49,56.21,16.69,76.06,0.16
				C390.07,276.14,413.4,251.05,405.87,249.95z M320.73,276.71c0.72,2.66,1.62,5.24,2.89,7.63c-3.52-1.72-6.85-3.91-9.91-6.57
				C316.2,277.51,318.3,277.02,320.73,276.71z M329.66,286.78c-2.85-3.02-4.35-6.73-5.42-10.64c15.7-2.79,30.93-7.62,46.11-12.4
				C378.85,289.41,347.18,292.78,329.66,286.78z M385.06,274.64c-4.19,3.35-8.82,6.15-13.69,8.41c3.38-6.36,5.69-13.9,2.44-20.39
				c9.44-2.97,18.89-5.89,28.48-8.33C397.47,261.93,392.21,268.92,385.06,274.64z"/>
			<path d="M322.48,250.67c-0.63,1.31-1.1,3.73,0.78,4.15c28.55,3.76,56.88-21.26,62.97-47.42c-0.66-0.82-1.64-1.29-2.62-0.75
				C361.04,217.75,338.06,230.37,322.48,250.67z M381.63,211.55c-5.45,11.06-12.12,21.88-22.15,29.36
				c-0.6-4.96-3.42-9.17-7.03-12.72C361.72,221.92,371.59,216.51,381.63,211.55z M349.45,230.23c3.76,3.56,6.66,7.69,6.59,12.98
				c-8.84,5.2-19.33,8.94-29.75,8.41C332.83,243.34,340.66,236.13,349.45,230.23z"/>
			<path d="M397.51,318.31c-24.21-6.76-50.35-6.98-73.83-16.14c-1.13-0.51-2.18,0.17-2.56,1.05c3.23,35.35,52.71,33.33,76.81,19.27
				C399.33,321.68,399.18,318.74,397.51,318.31z M324.41,306.3c11.17,4.46,23.44,5.86,35.18,8.04
				C359.47,340.81,327.97,321.88,324.41,306.3z M357.67,328.71c-0.05,0-0.09,0-0.14-0.01c3.66-3.69,5.94-8.38,5.67-13.71
				c9.96,1.79,19.92,3.61,29.78,5.89C381.88,325.78,369.84,328.99,357.67,328.71z"/>
			<path d="M193.43,116.96c2.17-0.7,1.24-4.12-0.94-3.42c-7.47,2.06-19.18,13.74-11.97,21.06c2.81,1.44,6.2-0.84,8.37-2.45
				c1.82-1.34,0.05-4.43-1.79-3.06c-0.96,0.71-3.64,3.03-5.03,2.32C180.8,125.08,187.78,118.79,193.43,116.96z"/>
			<path d="M149.26,226.37c-2.59-1.71-5.68,0.16-7.69,1.84c-1.75,1.47,0.77,3.97,2.51,2.51c6.78-5.98,6.55,11.73-0.07,10.45
				c-2.27-0.25-2.25,3.3,0,3.55C152.76,245.44,155.37,230.9,149.26,226.37z"/>
			<path d="M346.24,346.04c-7.45-8.89-20.25-9.16-31.08-9.04c-3.57,0.55-43.09-1.06-52.63,9.26
				c-13.81,18.57,23.18,25.23,35.39,27.69C315.21,378.3,359.56,372.01,346.24,346.04z M297.4,341.07
				c14.79,0.87,33.48-4.49,45.45,6.5c-0.99,0.88-2.07,1.79-2.98,2.75c-1.23-1.68-2.31-3.49-3.39-5.25c0,0.01-0.01,0.02-0.01,0.02
				c-0.37-0.98-2.04-1.22-2.76-0.37c0,0,0-0.01,0-0.01c-1.45,1.83-3,3.58-4.57,5.31c-11.18-11.22-6.79-7.88-17.38,0.93
				c-10.39-10.36-9-9.81-18.89,0.47c-9.39-9.57-11.48-9.91-19.59,1.17c-1.89-1.9-3.42-4.16-5.24-6.12
				C277.48,342.08,287.31,341.71,297.4,341.07z M284.98,363.34c2.07,1.53,3.59,4.29,5.73,5.63c-3.4-0.78-6.76-1.74-10.07-2.86
				C282.04,365.13,283.5,364.22,284.98,363.34z M296.54,370.14c-1.68-0.28-3.36-0.61-5.04-0.99c3.46-0.78,5.93-3.98,8.62-6.21
				c5.64,8.97,7.52,5.99,13.06-0.96c7.32,8.07,6.04,4.89,12.82-1.14c4.59,6.95,6.28,3.58,11.23,0.03c1.09,0.81,2.12,1.69,3.16,2.56
				C326.94,372.74,311.7,372.55,296.54,370.14z M343.06,361.06c-5.87-5.55-5.96-4.64-11.98-0.08c-5.09-7.51-7.29-3.21-11.91,1.85
				c-5.74-8.27-8.48-3.73-13.14,1.96c-6.88-10.37-6.64-4.46-14.26,0.52c-5.61-7.27-8.63-7.28-14.69-0.47
				c-6.21-1.91-19.98-8.59-11.97-16.3c10.2,13.17,7.94,7.36,17.77-0.97c11.92,9.58,8.05,11.01,19.39-0.48
				c10.15,8.94,8.33,11.19,18.74,0.16c7.46,5.43,6.21,11.92,13.74,1.76c4.43,6.45,4.04,8.37,10.06,1.58
				C346.79,354.31,345.75,358.25,343.06,361.06z"/>
		</g>
		<path d="M204.89,471.24c-0.22-1.36-2.61-3.51-4.96-4.95h-0.01c-10.24-5.52-24.61-16.64-32.51-17.6
			c-11.69,3.52-20.03,24.17-7.68,32.07c5.02,3.89,12.24,0.82,16.38-2.51c0.47,0.24,1.61,2.5,3.85,6.92
			c3.45,4.85,4.02,14.13,8.73,13.47c7.21-2.01-6.77-20.51-7.77-25.2c-0.11-1.32,4.12-7.62,4.35-8.73
			c3.96,2.42,10.39,6.34,13.32,8.38C200.94,475.63,205.44,475.38,204.89,471.24z M179.54,463.3c-9.59,22.48-27.62,11.75-16.5-3.56
			c2.64-3.24,2.56-4.7,5.1-4.73c2.33,0.91,10.1,4.93,12.01,6.69L179.54,463.3z"/>
		<path d="M242.82,440.63c-1.25-1.7-2.59-3.42-3.81-5.05c-0.64-0.02-2.03-0.17-2.77-0.21c-1.44,0.98-7.41,5.46-7.88,5.34
			c-3.4-4.19-9.01-8.95-12.46-12.95c-3.48-2.98-7.05-8.95-11.18-9.82c-4.44,0.53-6.75,4.81-5.13,9.18c1.97,11.34,4,17.15,7.51,28.85
			c-7.55,3.99-7.01,5.96-3.07,12.87c0.93,2.62,4.47,2.39,5.55,0.06c0.76-0.82-0.52-4.48-1.7-6.49c6.82-4.01,20.51-14.23,28.52-19.92
			c0.58,0.66,2.09,2.59,2.61,2.88C241.91,446.81,245.25,443.4,242.82,440.63z M220.75,446.8c-4.95,3.5-7.51,5.31-8.11,5.2
			c-2.86-7.3-5.41-17.52-6.87-25.44c3.38,3,8.55,9.05,11.16,11.23c0.52,0.21,6.21,6.39,6.53,6.89
			C223.52,444.76,222.61,445.47,220.75,446.8z"/>
		<path d="M267.69,435.49c-3.23,2.21-14.31,5.62-17.31,6.92c-7.12,1.86-7.81-6.39-10.01-11.77h-0.01
			c-7.98-28.74-17.43-28.98,12.17-37.49c3.48-2.12,7.76,0.57,5.34,3.78c-1.25,1.29-7.14,2.9-9.76,3.78
			c-12.21,3.93-9.42,2.88-7.26,11.77c3.28-1.16,9.86-3.54,13.12-4.75c10.53,5.06-10.22,8.66-11.21,11.08
			c8.79,21.44,0.63,19.54,22.56,11.9C267.65,430.95,269.59,433.81,267.69,435.49z"/>
		<path d="M395.74,406.44c-1.26-4.02-4.99-3.79-9.5-5.72c-2.27-0.29-10-4.34-14.24-3.33c-1.61,0.75-1.52,0.94-2.36,2.77
			c-4.74,10.35-10.37,22.76-13.51,33.73c-3.55,9.38,11.78,12.71,17.68,13.09c5.3,0.31,10.77-3.64,12.84-8.44
			c4.48-13.22-8.17-18.45-17.44-21.92c0.46-2.36,4.59-9.95,6.03-13.29c4.82,1.65,10.44,3.37,14,4.7
			C393.31,409.48,395.27,410.24,395.74,406.44z M373.31,424.47c9.71,2.37,10.85,15.71,0.41,16.69c-3.29-0.22-9.96-1.58-11.79-4.44
			c0.06-1.67,4.31-12.36,4.49-13.87C368.85,423.08,370.66,423.31,373.31,424.47z"/>
		<path d="M431.41,436.54c-4.19,6.89-9.84,11.09-16.19,20.19c-3.87,3.85-6.15,11.18-10.35,8.79c-3.52-3.84,0.28-4.48,5.59-12.93
			c0,0,6.94-9.32,6.94-9.32c-38.45,15.28-41.12,12.51-12.62-21.4c3.28-6.35,10.06-2.61,5.69,2.84
			c-3.57,5.63-12.97,14.05-15.03,19.86c8.82-2.34,17.93-6.75,25.99-9.33C425.12,434.09,430.96,430.67,431.41,436.54z"/>
		<path d="M456.06,464.05c-0.96,5.17-5.13,2.38-10.85,2.14c-7.26-1.08-8.22-1.27-12.84-1.73c-1.65,6.57-4.32,15.29-4.08,22.05
			c0.24,3.95-5.84,3.71-6.25,0.02c0.07-7.65,2.16-14.42,3.85-21.99c-2.41,0.75-10.43,7.66-12.96,7.84c-7.41-2.08-0.51-7.14,3.92-9.6
			c8.14-4.77,18.95-13.37,27.18-16.15c2.11,0.11,3.68,3.2,2.26,4.82c-1.69,1.35-7.97,5.37-9.97,6.41c-0.68,0.38-0.94,0.62-0.78,0.72
			c0.04,0.18,13.21,1.79,13.28,1.92C451.25,460.98,456.1,460.53,456.06,464.05z"/>
	</g>
</g>
<image class="sticker-draft" width="600" height="600" xlink:href="sticker-alien.webp"></image>
</g>
</svg>
