<?xml version="1.0" encoding="utf-8"?>
<svg xmlns="http://www.w3.org/2000/svg" xmlns:xlink="http://www.w3.org/1999/xlink"
	viewBox="0 0 600 600">
<style type="text/css">
	.st0{fill:#FFFFFF;}
	.st1{fill:#808080;}
	.st2{fill:#666666;}
	.st3{fill:#FF8F8F;}
	.st4{fill:#007841;}
	.st5{fill:#FFEEE0;}
	.st6{fill:#FFDBBC;}
	.st7{fill:#003E76;}
	.st8{fill:#002A48;}
	.st9{fill:#004520;}
	.st10{fill:#640000;}
	.st11{fill:#FF7474;}
	.st12{fill:#58295A;}
	.st13{fill:#005B2D;}
	.st14{fill:#AF0000;}
	.st15{fill:#0075C5;}
	.st16{fill:#000B1F;}
	.st17{fill:#FFA100;}

	.shw{fill:#2C191C;transform: scale(103%);transform-origin: 50% 50%;filter:blur(3px);opacity:0.13;}

	.sticker-draft,.sticker{transition:all .5s cubic-bezier(0.75, 0.35, 0.4, 0.99);}
	.sticker{overflow:visible;opacity:1;}
	.sticker-draft{overflow:visible;opacity:0;}

	.main:hover{
		.sticker{opacity:0;}
		.sticker-draft{opacity:1;}
	}
</style>

<g class="main">
<g>
	<path class="shw" d="M547.58,466.04c-9.67-10.29-34.37-33-35.54-35.51c-0.34-0.93-3.34-7.5-5.55-8.8
		c-1.39-0.81-3.22-1.31-4.99-1.36h-0.06c-8.01-0.34-16.02-0.82-24.01-1.59c-1.66-5.63-4.95-10.79-8.82-15.14
		c-7.38-8.49-20.29-13.81-22.52-14.63c5.81-5.21,3.77-14.95,1.8-18.95c-3.75-9.48-11.24-8.54-11.79-8.64
		c-2.31-4.42-7.35-7.1-14.63-5.55c-0.06-0.09-0.12-0.18-0.17-0.27c1.08-0.31,9.35-2.59,10.38-9.38c1.03-6.8-5.71-10.37-6.18-10.56
		c0.06-0.47,2.24-6.92-4.87-10.07c-7.63-3.68-16.01,6.96-16.14,7.16c0.86-8.15,1.65-16.31,2.24-24.5
		c1.54-21.47,4.61-48.05,2.94-72.88c0.14-5.23-11.19-9.89-11.77-9.77c0.54-0.74,12.53-39.96,12.8-42.24
		c0.73-6.08-0.15-12.11-2.79-17.65c-4.64-9.74-15.88-13.67-26-13.66c-2.55,0-5.13,0.22-7.69,0.59c-0.76-1.9-4.07-8.93-4.96-10.52
		c0.02-0.01,0.04-0.01,0.07-0.02c2.49-0.81,4.61-2.31,5.97-4.6c1.52-2.53,2.56-12.54-0.12-17.08c-4.49-9.28-17.16-9.74-17.55-9.72
		c-0.89-1.57-1.97-3.04-3.1-4.45c-1.86-2.3-9.26-9.68-16.37-9.41s-10.07,7.88-10.09,10.1c-1.86-0.71-24.7-5.44-34.13-3.78
		c-0.03-0.12,0.91-8.14,1.69-10.18c1.12-2.42,4.31-6.43,4.93-9.33c0.62-2.91-0.96-8.26-2.57-9.73c-1.28-1.18-5.25-5.06-11.4-1.89
		c-6.15,3.16-13.8,10.16-15.45,12.69c-2.09,3.2-3.66,6.72-5.74,9.93c-2.15-1.65-16.29-10.13-20.38-13.11
		c-1.66-1.38-3.2-2.88-4.59-4.53c-1.43-2.06-8.25-15.53-8.36-15.69c-0.01-0.02-0.02-0.03-0.04-0.05
		c-1.63-2.36-9.79-13.63-20.5-9.39c-10.72,4.24-6.89,30.03-5.73,33.69c1.65,5.25,3.97,10.29,5.66,15.52
		c-21.19,8.32-31.18,19.2-35.58,44.45c-20.76-10.82-17.51,25.58-15.89,30.96c-3.16,3.53-5.63,7.63-6.95,12.28
		c-2.43,8.59-0.04,17.49,5.96,24.01c1.72,1.87,6.14,4.96,6.24,5.02c-0.08,1.91,0.34,3.82,1.32,5.49
		c-4.31,1.14-7.82,4.86-7.69,9.63c0.71,26.22,6.34,51.87,11.22,77.55c-4.15,4.03-8.28,8.07-12.35,12.18
		c-9.09-1.46-15.35-5.69-26.84,3.92c-11.48,9.61-12.4,18.76-8.22,36.62c-6.64,10.01-12.91,24.34-17.9,35.35
		c-6.23,17.34-3.75,42.77,3.22,62.14c4.08,10.09,8.1,17.88,19.61,26.13c11.51,8.24,22.07,13.59,35.68,14.69
		c0.22,0.28,0.49,0.53,0.8,0.76c-0.38,0.1-0.72,0.3-1.08,0.37c-5.61,2.94-6.17,9.93-2.16,12.19l3.14,1.63
		c-5.34,1.04-4.8,8.54-1.85,10.58c2.36,1.63,2.71,1.94,5.97,2.53c1.16,0.21,3.78,0.19,5.31,0.08c0.31-0.01,0.62-0.03,0.91-0.04
		c1.17,2.53-5.37,4.27-10.72,2.37c-7.03-2.5-12.1,10.37-2.71,13.55l0.06,0.03l0.06,0.02c2.68,0.99,7.51,1.44,8.97,1.43
		c11.03-0.06,13.08-4.81,14.2-5.89c0.74,2.75,2.49,5.34,7.02,5.34c6.38,0,7.32-4.22,7.32-4.22l0.21-13.22
		c0.42-0.04,0.77-0.07,1.06-0.1c0.48,12.6,1.6,14.65,1.6,14.65s1.57,4.02,6.58,4.02c6.25,0,7.61-5.53,7.61-7.56
		c0-0.23-0.96-23.62-0.96-23.62l3.51-0.11c0,0,0.4,22.52,0.45,23.1c0.16,1.67,0.6,7.13,7.57,7.13s7.32-6.44,7.32-8.61
		c0-1.06-0.28-21.23-0.26-22.44c0.32-0.02,6.08-0.61,6.48-0.78c-0.29,0.58-2.36,12.45-0.84,17.12c1.52,4.67,3.58,7.44,8.35,10.04
		c4.77,2.6,5.66,2.19,11.05,2.19c5.39,0,13.62-4.23,16.96-10.45l0.02-0.03l0.01-0.03c2.21-4.1,3.02-13.03,3.02-16.43
		c0-3.4-1.96-6.34-2.76-7.53c-2.32-3.53-5.82-5.95-10.42-7.17c-1.51-0.43-5.69-1.33-10.38-0.2c-4.69,1.13-9.3,4.57-10.55,6
		c0-1.33-0.7-3.87-2.49-5.2s-3.57-2.17-7.33-2.14c-0.91,0.02-2.14,0.07-3.72,0.15c4.29-1.3,7.84-2.53,8.34-2.97
		c8.14,1.64,34.2-0.1,38.83,0.17c2.91,0.17,16.58,1.39,20.52,1.45c12.95,0.2,25.86-1.05,38.71-2.55c-0.01,0.16,0.47,4.3,1.33,5.78
		c0.02,0.03,0.03,0.05,0.05,0.08c-1.74-0.58-5.54,1.89-5.77,2.94c-0.06-0.04-3.79-2.21-7.95-0.21c-4.16,2-6.48,6.41-6.59,6.58
		c0,0-1.4-6.94-7.36-6.94c-5.96,0-6.37,3.12-6.97,4.39c-0.68-0.82-6.28-5.78-8.77-5.78c0,0-3.23-0.68-5.98,2.84
		c-1.04,1.31-1.59,2.83-1.59,4.38c0,1.67,0.63,4.15,3.6,6.45c2.77,2.43,2.19,4.19,2.49,6.81c0,2.35-0.49,6.13-3.74,10.12
		c-2.11,2.43-3.42,4.39-3.42,6.67c0,1.16,0.34,2.91,1.96,4.68c1.94,2.16,4.05,2.62,5.48,2.62c3.36,0,5.79-2.52,7.32-4.42
		c0.59-0.71,1.14-1.42,1.66-2.14c0.08,0.15,2.01,3.47,6.3,3.47c4.29,0,6.65-4.15,6.72-4.32c0.12,0.19,4.34,6.73,9.64,6.73
		c5.3,0,5.33-1.79,6.24-3.13c0.11,0.16,1.51,3.83,6.91,4.28c5.4,0.45,10.28-1.68,12.41-2.68c2.16-1.03,3.99-2.45,5.44-4.22
		c0,0,1.05,5.49,7.31,5.49c6.26,0,6.41-3.61,6.77-4.32c0.58,0.41,5.19,3.83,10.83,3.83c5.64,0,9-1.97,10.7-3.11l0.02-0.02
		l0.02-0.01c0.81-0.55,1.52-1.1,2.15-1.64c0.85,1.94,0.95,4.14,6.58,4.14s7.32-4.22,7.32-4.22l0.16-9.85l0.05-3.37
		c0.42-0.04,0.77-0.07,1.06-0.1c0.48,12.6,3.02,16.58,4,17.31c0,0,2.72,1.36,4.18,1.36c1.96,0,3.78-0.75,5.25-2.16
		c0.65-0.62,1.18-1.33,1.55-2.1c0.39,0.77,0.9,1.48,1.53,2.07c1.12,1.09,5.27,2.61,10.3,2.86c5.03,0.25,8.01-0.73,11.18-2.13
		c3.17-1.4,5.12-2.84,7.08-6.38c1.96-3.54,1.82-7.67,1.82-7.67c0.14-9.68-7.83-13.24-10.27-13.77c-2.44-0.53-4.2-1.04-6.93-1.14
		c0,0-0.08-8.79-1.38-10.55c-1.03-1.4-6.88-3.61-8.98-3.74c0,0-5.36-0.97-7.58,1.96c-2.75-1.83-5.52-1.74-8.07-0.55
		c-2.55,1.19-3.82,10.03-3.82,10.03c-0.18,0.02-0.38,0.03-0.59,0.05c0.02-0.6,0.03-1.35,0.03-2.21c0-1.64-0.14-3.54-1.24-5.12
		c-1.03-1.49-2.03-2.78-4.74-2.78s-4.52,0.44-5.8,1.45c-0.28-0.34-1.31-1.4-1.52-1.58c11.2-1.83,22.27-4.27,33.35-6.67
		c9.7,1.17,19.44,2.01,29.14,3.27c7.66,1.08,50.16,11.68,52.36,10.75c6.67,1,6.07-5.33,6.15-9.14c0.12-2.79-5.69-10.51-7.07-12.22
		c1.63-0.09,7.29-1.34,10.94-2.57c4.06-0.8,3.78-6.21,3.82-6.71c1.33,0.22,10.84,1.51,16.42,2.27c5.58,0.75,8.3-4.17,9.14-6.15
		C551.23,473.21,550.37,469,547.58,466.04z M203.48,504.29c-1.71,0.94-2.9,2.57-3.37,4.6c-0.17,0.72-0.36,1.93-0.44,5.33
		l-0.01,0.1c-0.18,0.02-0.38,0.03-0.59,0.05c0.02-0.6,0.03-1.35,0.03-2.21c0-1.64-0.14-3.54-1.23-5.12
		c-1.04-1.49-2.63-2.42-4.75-2.78l-0.42-0.07h-0.15c-0.19-0.02-0.4-0.04-0.64-0.04c-2.77,0-5.15,1.41-6.51,3.82
		c-0.18-0.19-0.37-0.38-0.57-0.57c-1.41-1.38-2.77-2.41-4.15-3.17l-0.08-0.04l-0.08-0.04c-1.18-0.6-2.57-1.07-4.21-1.45
		c1.08-0.55,1.92-1.3,2.37-2.24c1.64,4.12,10.68,4.42,12.72,0.51c0.5,2.49,7.77,4.58,10.65,2.31c0.66,0.11,1.64,0.27,2.76,0.45
		C204.34,503.87,203.9,504.06,203.48,504.29z M253.18,520.86c0.56-1.51,2.17-3.89,3.47-4.23c1.3-0.34,3.71-0.64,5.17,0.01
		c1.46,0.65,1.65,7.48,0.93,8.69c-0.72,1.21-2.19,3.68-3.44,3.95c-1.25,0.27-3.66,0.74-4.91-0.23
		C253.15,528.08,252.62,522.37,253.18,520.86z M329.83,534.73c-3.41-0.15-3.36-12.3,0.2-13.4
		C330.09,524.82,330.06,534.82,329.83,534.73z M358.53,509.47c-0.16,0.69-1.18,10.73-1.35,15.91c-0.46-0.76-2.77-3.37-3.77-4.1
		c-2.04-1.82-5.04-2.85-8.11-2.95c0.02-0.17,0.79-11.01,0.79-11.01s7.71-0.54,13.58-0.69
		C359.14,507.47,358.76,508.43,358.53,509.47z M381,532.58c0,0-4.75-2.75-6.53-2.75s-1.85,0.14-2.61,0.4
		c0.03-0.44,1.56-19.59,1.56-20.06c0-1.04-0.27-2.52-1.44-3.99c0.96-0.05,1.91-0.09,2.86-0.14c-0.68,1.05-0.98,4.37-0.88,4.82
		c0.47,2.37,1.85,4.18,3.79,5.12c-1.28,1.31-1.99,3.1-1.99,5.07c-0.29,5.22,8.1,7.25,8.28,7.29c0.62,0.3,1.15,0.29,0.7,1.67
		C384.29,531.39,382.79,533.71,381,532.58z M438.72,531.71c4.87,0.1,3.78,1.64-0.07,1.58
		C438.67,532.79,438.69,532.26,438.72,531.71z"/>
	<path class="st0" d="M547.58,466.04c-9.67-10.29-34.37-33-35.54-35.51c-0.34-0.93-3.34-7.5-5.55-8.8
		c-1.39-0.81-3.22-1.31-4.99-1.36h-0.06c-8.01-0.34-16.02-0.82-24.01-1.59c-1.66-5.63-4.95-10.79-8.82-15.14
		c-7.38-8.49-20.29-13.81-22.52-14.63c5.81-5.21,3.77-14.95,1.8-18.95c-3.75-9.48-11.24-8.54-11.79-8.64
		c-2.31-4.42-7.35-7.1-14.63-5.55c-0.06-0.09-0.12-0.18-0.17-0.27c1.08-0.31,9.35-2.59,10.38-9.38c1.03-6.8-5.71-10.37-6.18-10.56
		c0.06-0.47,2.24-6.92-4.87-10.07c-7.63-3.68-16.01,6.96-16.14,7.16c0.86-8.15,1.65-16.31,2.24-24.5
		c1.54-21.47,4.61-48.05,2.94-72.88c0.14-5.23-11.19-9.89-11.77-9.77c0.54-0.74,12.53-39.96,12.8-42.24
		c0.73-6.08-0.15-12.11-2.79-17.65c-4.64-9.74-15.88-13.67-26-13.66c-2.55,0-5.13,0.22-7.69,0.59c-0.76-1.9-4.07-8.93-4.96-10.52
		c0.02-0.01,0.04-0.01,0.07-0.02c2.49-0.81,4.61-2.31,5.97-4.6c1.52-2.53,2.56-12.54-0.12-17.08c-4.49-9.28-17.16-9.74-17.55-9.72
		c-0.89-1.57-1.97-3.04-3.1-4.45c-1.86-2.3-9.26-9.68-16.37-9.41s-10.07,7.88-10.09,10.1c-1.86-0.71-24.7-5.44-34.13-3.78
		c-0.03-0.12,0.91-8.14,1.69-10.18c1.12-2.42,4.31-6.43,4.93-9.33c0.62-2.91-0.96-8.26-2.57-9.73c-1.28-1.18-5.25-5.06-11.4-1.89
		c-6.15,3.16-13.8,10.16-15.45,12.69c-2.09,3.2-3.66,6.72-5.74,9.93c-2.15-1.65-16.29-10.13-20.38-13.11
		c-1.66-1.38-3.2-2.88-4.59-4.53c-1.43-2.06-8.25-15.53-8.36-15.69c-0.01-0.02-0.02-0.03-0.04-0.05
		c-1.63-2.36-9.79-13.63-20.5-9.39c-10.72,4.24-6.89,30.03-5.73,33.69c1.65,5.25,3.97,10.29,5.66,15.52
		c-21.19,8.32-31.18,19.2-35.58,44.45c-20.76-10.82-17.51,25.58-15.89,30.96c-3.16,3.53-5.63,7.63-6.95,12.28
		c-2.43,8.59-0.04,17.49,5.96,24.01c1.72,1.87,6.14,4.96,6.24,5.02c-0.08,1.91,0.34,3.82,1.32,5.49
		c-4.31,1.14-7.82,4.86-7.69,9.63c0.71,26.22,6.34,51.87,11.22,77.55c-4.15,4.03-8.28,8.07-12.35,12.18
		c-9.09-1.46-15.35-5.69-26.84,3.92c-11.48,9.61-12.4,18.76-8.22,36.62c-6.64,10.01-12.91,24.34-17.9,35.35
		c-6.23,17.34-3.75,42.77,3.22,62.14c4.08,10.09,8.1,17.88,19.61,26.13c11.51,8.24,22.07,13.59,35.68,14.69
		c0.22,0.28,0.49,0.53,0.8,0.76c-0.38,0.1-0.72,0.3-1.08,0.37c-5.61,2.94-6.17,9.93-2.16,12.19l3.14,1.63
		c-5.34,1.04-4.8,8.54-1.85,10.58c2.36,1.63,2.71,1.94,5.97,2.53c1.16,0.21,3.78,0.19,5.31,0.08c0.31-0.01,0.62-0.03,0.91-0.04
		c1.17,2.53-5.37,4.27-10.72,2.37c-7.03-2.5-12.1,10.37-2.71,13.55l0.06,0.03l0.06,0.02c2.68,0.99,7.51,1.44,8.97,1.43
		c11.03-0.06,13.08-4.81,14.2-5.89c0.74,2.75,2.49,5.34,7.02,5.34c6.38,0,7.32-4.22,7.32-4.22l0.21-13.22
		c0.42-0.04,0.77-0.07,1.06-0.1c0.48,12.6,1.6,14.65,1.6,14.65s1.57,4.02,6.58,4.02c6.25,0,7.61-5.53,7.61-7.56
		c0-0.23-0.96-23.62-0.96-23.62l3.51-0.11c0,0,0.4,22.52,0.45,23.1c0.16,1.67,0.6,7.13,7.57,7.13s7.32-6.44,7.32-8.61
		c0-1.06-0.28-21.23-0.26-22.44c0.32-0.02,6.08-0.61,6.48-0.78c-0.29,0.58-2.36,12.45-0.84,17.12c1.52,4.67,3.58,7.44,8.35,10.04
		c4.77,2.6,5.66,2.19,11.05,2.19c5.39,0,13.62-4.23,16.96-10.45l0.02-0.03l0.01-0.03c2.21-4.1,3.02-13.03,3.02-16.43
		c0-3.4-1.96-6.34-2.76-7.53c-2.32-3.53-5.82-5.95-10.42-7.17c-1.51-0.43-5.69-1.33-10.38-0.2c-4.69,1.13-9.3,4.57-10.55,6
		c0-1.33-0.7-3.87-2.49-5.2s-3.57-2.17-7.33-2.14c-0.91,0.02-2.14,0.07-3.72,0.15c4.29-1.3,7.84-2.53,8.34-2.97
		c8.14,1.64,34.2-0.1,38.83,0.17c2.91,0.17,16.58,1.39,20.52,1.45c12.95,0.2,25.86-1.05,38.71-2.55c-0.01,0.16,0.47,4.3,1.33,5.78
		c0.02,0.03,0.03,0.05,0.05,0.08c-1.74-0.58-5.54,1.89-5.77,2.94c-0.06-0.04-3.79-2.21-7.95-0.21c-4.16,2-6.48,6.41-6.59,6.58
		c0,0-1.4-6.94-7.36-6.94c-5.96,0-6.37,3.12-6.97,4.39c-0.68-0.82-6.28-5.78-8.77-5.78c0,0-3.23-0.68-5.98,2.84
		c-1.04,1.31-1.59,2.83-1.59,4.38c0,1.67,0.63,4.15,3.6,6.45c2.77,2.43,2.19,4.19,2.49,6.81c0,2.35-0.49,6.13-3.74,10.12
		c-2.11,2.43-3.42,4.39-3.42,6.67c0,1.16,0.34,2.91,1.96,4.68c1.94,2.16,4.05,2.62,5.48,2.62c3.36,0,5.79-2.52,7.32-4.42
		c0.59-0.71,1.14-1.42,1.66-2.14c0.08,0.15,2.01,3.47,6.3,3.47c4.29,0,6.65-4.15,6.72-4.32c0.12,0.19,4.34,6.73,9.64,6.73
		c5.3,0,5.33-1.79,6.24-3.13c0.11,0.16,1.51,3.83,6.91,4.28c5.4,0.45,10.28-1.68,12.41-2.68c2.16-1.03,3.99-2.45,5.44-4.22
		c0,0,1.05,5.49,7.31,5.49c6.26,0,6.41-3.61,6.77-4.32c0.58,0.41,5.19,3.83,10.83,3.83c5.64,0,9-1.97,10.7-3.11l0.02-0.02
		l0.02-0.01c0.81-0.55,1.52-1.1,2.15-1.64c0.85,1.94,0.95,4.14,6.58,4.14s7.32-4.22,7.32-4.22l0.16-9.85l0.05-3.37
		c0.42-0.04,0.77-0.07,1.06-0.1c0.48,12.6,3.02,16.58,4,17.31c0,0,2.72,1.36,4.18,1.36c1.96,0,3.78-0.75,5.25-2.16
		c0.65-0.62,1.18-1.33,1.55-2.1c0.39,0.77,0.9,1.48,1.53,2.07c1.12,1.09,5.27,2.61,10.3,2.86c5.03,0.25,8.01-0.73,11.18-2.13
		c3.17-1.4,5.12-2.84,7.08-6.38c1.96-3.54,1.82-7.67,1.82-7.67c0.14-9.68-7.83-13.24-10.27-13.77c-2.44-0.53-4.2-1.04-6.93-1.14
		c0,0-0.08-8.79-1.38-10.55c-1.03-1.4-6.88-3.61-8.98-3.74c0,0-5.36-0.97-7.58,1.96c-2.75-1.83-5.52-1.74-8.07-0.55
		c-2.55,1.19-3.82,10.03-3.82,10.03c-0.18,0.02-0.38,0.03-0.59,0.05c0.02-0.6,0.03-1.35,0.03-2.21c0-1.64-0.14-3.54-1.24-5.12
		c-1.03-1.49-2.03-2.78-4.74-2.78s-4.52,0.44-5.8,1.45c-0.28-0.34-1.31-1.4-1.52-1.58c11.2-1.83,22.27-4.27,33.35-6.67
		c9.7,1.17,19.44,2.01,29.14,3.27c7.66,1.08,50.16,11.68,52.36,10.75c6.67,1,6.07-5.33,6.15-9.14c0.12-2.79-5.69-10.51-7.07-12.22
		c1.63-0.09,7.29-1.34,10.94-2.57c4.06-0.8,3.78-6.21,3.82-6.71c1.33,0.22,10.84,1.51,16.42,2.27c5.58,0.75,8.3-4.17,9.14-6.15
		C551.23,473.21,550.37,469,547.58,466.04z M203.48,504.29c-1.71,0.94-2.9,2.57-3.37,4.6c-0.17,0.72-0.36,1.93-0.44,5.33
		l-0.01,0.1c-0.18,0.02-0.38,0.03-0.59,0.05c0.02-0.6,0.03-1.35,0.03-2.21c0-1.64-0.14-3.54-1.23-5.12
		c-1.04-1.49-2.63-2.42-4.75-2.78l-0.42-0.07h-0.15c-0.19-0.02-0.4-0.04-0.64-0.04c-2.77,0-5.15,1.41-6.51,3.82
		c-0.18-0.19-0.37-0.38-0.57-0.57c-1.41-1.38-2.77-2.41-4.15-3.17l-0.08-0.04l-0.08-0.04c-1.18-0.6-2.57-1.07-4.21-1.45
		c1.08-0.55,1.92-1.3,2.37-2.24c1.64,4.12,10.68,4.42,12.72,0.51c0.5,2.49,7.77,4.58,10.65,2.31c0.66,0.11,1.64,0.27,2.76,0.45
		C204.34,503.87,203.9,504.06,203.48,504.29z M253.18,520.86c0.56-1.51,2.17-3.89,3.47-4.23c1.3-0.34,3.71-0.64,5.17,0.01
		c1.46,0.65,1.65,7.48,0.93,8.69c-0.72,1.21-2.19,3.68-3.44,3.95c-1.25,0.27-3.66,0.74-4.91-0.23
		C253.15,528.08,252.62,522.37,253.18,520.86z M329.83,534.73c-3.41-0.15-3.36-12.3,0.2-13.4
		C330.09,524.82,330.06,534.82,329.83,534.73z M358.53,509.47c-0.16,0.69-1.18,10.73-1.35,15.91c-0.46-0.76-2.77-3.37-3.77-4.1
		c-2.04-1.82-5.04-2.85-8.11-2.95c0.02-0.17,0.79-11.01,0.79-11.01s7.71-0.54,13.58-0.69
		C359.14,507.47,358.76,508.43,358.53,509.47z M381,532.58c0,0-4.75-2.75-6.53-2.75s-1.85,0.14-2.61,0.4
		c0.03-0.44,1.56-19.59,1.56-20.06c0-1.04-0.27-2.52-1.44-3.99c0.96-0.05,1.91-0.09,2.86-0.14c-0.68,1.05-0.98,4.37-0.88,4.82
		c0.47,2.37,1.85,4.18,3.79,5.12c-1.28,1.31-1.99,3.1-1.99,5.07c-0.29,5.22,8.1,7.25,8.28,7.29c0.62,0.3,1.15,0.29,0.7,1.67
		C384.29,531.39,382.79,533.71,381,532.58z M438.72,531.71c4.87,0.1,3.78,1.64-0.07,1.58
		C438.67,532.79,438.69,532.26,438.72,531.71z"/>
	<g>
		<g>
			<path d="M273.33,517.89c-3.5-19.28-32.44-11.54-30.4,6.89C244.02,548.83,277.61,540.14,273.33,517.89z M267.37,527.24
				c-2.22,6.64-9.45,8.6-15.28,6.31c-4.61-2.3-4.6-9.7-3.73-14.03C254.16,504.57,274.41,511.42,267.37,527.24z"/>
		</g>
		<g>
			<path d="M331.15,512.24c0.02,0.72-0.98,1.88-1.62,1.96c-3.07,1.96-4.65,5.88-5.78,9.73c-2.43,9.48-0.08,10.44,4.08,16.92
				c-0.88,4.46-6.02,0.34-7.6-2.07c-1.95-3.07-2.55-7.23-2.38-10.77h-5.42c-0.42,1.99-0.37,9.1-1.33,11.36
				c-6.49,4.82-4.06-7.36-3.73-11.09h-3.89c-0.21,3.33-8.24,21.22-12.13,12.95c1.15-2.86,6.08-7.6,6.58-11.41
				c0.92-3.95,1.22-10.13-1.68-13.74c-2.01-2.52-6.72-5.94-1.3-7.12c5.18,1.92,8.68,9.19,8.74,14.61c0.5,0.25,3.02,0.04,3.81,0.04
				c0.61-4.15-1.74-15.81,4.97-12.65c1.38,2.13-0.25,8.86,0.08,12.53c1.17-0.03,5.89,0.12,6.05-0.3
				C319.51,519.22,327.1,503.82,331.15,512.24z"/>
		</g>
		<path d="M367.8,509c-6.43-4.76-4.86,11.95-5.63,16.98c-0.02,3.08-0.72,10.76-0.92,14.53c-0.02,1.25,1.26,2.11,2.49,2.08
			c4.23-0.48,2.3-8.86,3.21-14.01c0.42-7.45,0.79-11.61,1.43-18C368.52,510.02,368.34,509.52,367.8,509z"/>
		<path d="M354.52,533.45c0.19-7.76-7.53-11.1-14.39-10.22c-0.12-4.44,0.62-8.46,0.83-13.82c-8.05-7.32-5.46,17.19-6.13,24.33
			c0.13,6.75-0.74,8.15,4.52,10.13C345.95,543.43,354.71,541.19,354.52,533.45z M342.62,538.86c-2.82,0.25-2.75,1.06-2.69-2.75
			c0-5.12,0.11-7.82,0.33-8.1C349.35,525.04,354.58,537.74,342.62,538.86z"/>
		<g>
			<path d="M394.22,526.7c3.37,10.46-10.03,19.56-18.93,13.7c-4.21-1.44-4.08-6.7,0.36-5.31c0.7,0.25,2.91,1.89,3.74,2.49
				c6.23,1.18,13.01-5.05,9.3-11.2c-1.37-2.39-2.27-2.79-4.91-3.15c-4.12-0.19-3.82-4.23-0.33-4.74c3.45-0.6,9.35-5,4.35-7.68
				c-2.85-1.22-8.42,3.49-8.99-1.43c7.48-9.27,24.02,1.92,11.52,11.37C392.15,522.38,393.64,524.33,394.22,526.7z"/>
		</g>
		<g>
			<path d="M420.19,540.03c-0.01,2.58-3.68,3.49-4.81,1.13c-0.38-0.71-0.73-5.24-1.03-13.6c-0.23-2.3,0.22-3.26-0.5-4.14
				c-2,0.37-6.41,0.61-10.44,1.02c-0.03,3.07-0.21,12.67-0.24,15.74c-7.91,7.37-4-17.62-4.72-21.2l0.01-0.01
				c-0.01-0.01-0.01-0.01,0-0.02c0.37-6.46-0.34-11.54,4.89-9.07c0.82,2.37,0.09,8.53-0.14,10c2.25-0.25,8.65-0.63,10.93-1.17
				c0.24-3.75-0.9-14.21,5.01-8.96C419.22,517.96,419.37,536.08,420.19,540.03z"/>
		</g>
		<path d="M450.21,527.82c-3.34-5.46-9.97-6.22-16.23-5.45c0.03-1.75,0.2-9.33,0.2-10.13c0.45-5.13-3.31-4.54-8.65-4.56
			c-3.76-0.02-3.27,4.58,3.64,4.9c0.04,9.24-0.96,22.7-0.47,28.1c2.18,3.91,7.82,2.49,12.07,2.06
			C448.61,542.35,453.68,534.85,450.21,527.82z M445.57,535.36c-1.74,3.4-8.63,3.19-11.88,3.27c-0.15-2.9-0.09-8.86,0.45-11.48
			C439.36,525.28,449.19,527.78,445.57,535.36z"/>
		<path d="M185.28,522.67c2.69,23.28-28.29,22.28-23.85,14.38c1.42-1.14,2.04-0.66,4.06-0.07c8.14,2.98,15.42-4.41,14.99-12.43
			c-3.73-0.43-9.41,0.7-13.36,0.04c-6.76-5.55,7.88-4.23,12.95-4.78c-0.3-8.12-8.53-8.96-15.53-8.36
			C157.13,504.08,187.18,503.17,185.28,522.67z"/>
		<path d="M239.16,508.21c-0.52,3.78-8.11,1.36-10.33,2.9c-1.58,5.48-0.21,20.89-0.35,26.81c0.63,3.32-2.45,4.81-4.43,2.56
			c-1.59-7.85-0.6-19.96-0.91-29.26c-1.87,0-5.63,0.08-7.5,0.15c-0.26-0.29-0.88-0.9-1.08-1.22v-0.01
			c-1.03-5.26,6.18-2.76,11.39-3.8c5.89-0.4,7.37-0.48,11.43-0.5C238,506.42,239.26,507.46,239.16,508.21z"/>
		<g>
			<path d="M210.59,540.03c-0.01,2.58-3.68,3.49-4.81,1.13c-0.38-0.71-0.73-5.24-1.03-13.6c-0.23-2.3,0.22-3.26-0.5-4.14
				c-2,0.37-6.41,0.61-10.44,1.02c-0.03,3.07-0.2,12.67-0.24,15.74c-6.13,5.02-4.71-5.84-4.85-10.21
				c0.76-7.44-1.81-20.01,3.19-20.82c3.94-0.49,1.63,9.5,1.7,10.73c2.25-0.25,8.65-0.63,10.93-1.17c0.24-3.75-0.9-14.21,5.01-8.96
				C209.62,517.88,209.78,536.17,210.59,540.03z"/>
		</g>
	</g>
	<path class="st1" d="M273.36,486.88c22.28,2.59,47.25,1.83,73.56-0.61l24.26-28.68l13.31-36.76c9.1-52.7,13.81-116.67,16.59-185.58
		c-47.49-17.47-204.04-18.57-230.12-3.13l11.51,81.46c-79.73,68.77-94.99,136.23-28.99,174.91c6.96,9.29,35.98-15.95,81.73-3.67
		C245.01,487.45,257.4,488.49,273.36,486.88z"/>
	<path class="st2" d="M296.51,464.28c27.33-6.48,17.01-222.23,17.01-222.23l-23.21,0.87c-0.88,5.93-3.6,10.51-8.8,13.25
		c-5.01,6.93-1.96,15.64-3.65,29.54c-3.27,3.25-6.81,3.3-10.57,0.85c5.26,33.74,3.13,63.41,4.43,102.92
		C271.72,389.47,275.57,467.68,296.51,464.28z"/>
	<path class="st2" d="M246.26,457.46c26.15-2.99-6.36-138.7-15.04-198.54c-9.31-9.31-27.14-31.15-44.41,3.43
		c12.53,70.03,23.62,133.37,37.76,168.6l10.3,4.67C228.8,448.24,238.58,455.52,246.26,457.46z"/>
	<path d="M172.19,233.05c-1.45,6.77,3.21,21.56,8.41,28.06c3.43,4.29,6.8,6.23,13.52,4.37c4.61-1.28,5.15-5.86,5.15-5.86
		s-0.08,5.78,6.4,6.34c7.52,0.65,11.1-6.3,10.46-10.3c2.35,4.05,7.91,9.5,13.55,8.3c10.75-2.27,4.58-20.95,0.67-24.61L172.19,233.05
		z"/>
	<path class="st2" d="M346.6,459.73c30.07-1.27,39.46-196.62,39.46-196.62l-15.39-7.54l-11.84,1.16l-1.76-6.64l-12.23,13.59
		C344.83,263.68,320.97,459.73,346.6,459.73z"/>
	<path d="M342.26,239.15c-3.8,6.39-10.56,20.71-4.52,24.53c12.42,7.85,17.35-5.87,17.35-5.87s0.87,8.83,7.08,10.07
		c8.87,1.78,10.15-5.57,10.15-5.57s1.93,4.8,6.5,6.11c12.41,2.4,16.02-13.97,20.69-30.38L342.26,239.15z"/>
	<path class="st3" d="M170.74,231.65l20.36-5.77l9.26-74.7l160.31-6.69l19.43,83.78l21,5.6l-17.38,19.42l-24.89,3.42l-2.9-7.72
		l-4.72,8.13l-9.37-10.67l3-9.1c-40.14,6.62-79.03,7.08-116.61,1.09l4.57,9.67l-12.96,7.97c-4.46-10.22-6.38-9.13-6.4,0.06
		c-4.51,8.07-9.85,8.99-14.09-2.03c-4.3,10.16-11.12,9.7-15.78,2.8L170.74,231.65z"/>
	<path class="st4" d="M283.53,203.72c0.29,7.04,9.03,10.89,13.21,4.57C296.35,202.61,287.74,197.65,283.53,203.72z"/>
	<path class="st5" d="M381.21,446.56l106.19,10.11l27.26,21.05c-68.96-3.6-118.24,20.96-166.96,19.22
		C354.89,478.21,369.17,457.15,381.21,446.56z"/>
	<path class="st6" d="M432.87,485.84c26.94,2.57,51.32,7.05,73.21,14.78l-14.67-21.68C471.82,476.79,452.53,480.05,432.87,485.84z"
		/>
	<path class="st7" d="M419.36,368.46l7.53,15.65c19.22,1.91,20.35-15.65,2.1-12.82C431.39,362.98,424.1,363.08,419.36,368.46z"/>
	<path class="st6" d="M366.68,448.14l26.18-32.27l111.08,14.02c3.65,15.75,20.57,25.92,38.13,41.49
		C465.29,458.26,406.74,461.83,366.68,448.14z"/>
	<path class="st8" d="M443.92,463.13l8.66-7.9c31.43-21.14,17.45-54.49-22.24-62.18c-6.24-15.14-13.38-29.28-21.7-42.11h-5.19
		c-2.81,16.07-1.59,33.1,2.62,50.85C383.8,443.63,405.5,475.76,443.92,463.13z"/>
	<path class="st9" d="M340.49,469.85c10.71-1.35,15.04-10.12,10.71-21.24c8.04,0.11,15.62,1.89,16.46,11.12
		c9.47,0.27,14.73,4.25,13.33,12.23c-8.02,4.98-14.11,12.22-20.1,18.64c-4.85,2.06-8.47,0.15-10.57-7.13
		C341.85,482.4,339.26,476.97,340.49,469.85z"/>
	<path class="st10" d="M377.83,453.05c5.57-0.31,9.15,1.81,10.6,6.55C383.17,460.28,379.59,458.18,377.83,453.05z"/>
	<path class="st3" d="M392.34,492.44c4.49-6.64,10.21-12.9,24.01-14.71c14.38,3.23,23.78,6.6,35.45,6.68
		c9.03-2.14,13.12-7.57,12.85-15.91c-2.37-6.46-6.69-10.58-12.68-12.68c-3.96,0.61-6.06,3.2-7.41,6.57
		c1.67,2.51,2.86,5.06,1.69,7.82c-4.65,2.38-16,0.11-29.6-3.72C397.71,464.37,388.99,472.4,392.34,492.44z"/>
	<path class="st2" d="M133.22,367.12l10.01-13.56c-4.51-7.64,2.63-14.11,8.96-10.54l9.87-10.45
		C137.3,326.65,125.91,334.99,133.22,367.12z"/>
	<path class="st11" d="M194.12,224.62c17.62-0.91,24.26-10.34,24.4-23.84c1.81,13.99,17.22,16.86,24.8,7.43
		c-6.83-7.26-5.53-13.6-1.5-19.37c-0.29,32.44,34.37,27.38,36.88,13.28l-1.17-36.3l-79.57,7.3L194.12,224.62z"/>
	<path class="st4" d="M278.25,200.39l11.89-6.82c5.9,5.5,12.83,9.51,21.18,11.47c8.58,0.3,12.86-5.01,14.53-13.71l-7.72-45.07
		l-63.35,1.82C261.05,170.93,266.82,195.55,278.25,200.39z"/>
	<path class="st4" d="M213.26,299.56c-0.38,12.66,4.14,13.24,8.32,5.87C221.18,299.75,215.51,295.45,213.26,299.56z"/>
	<path class="st3" d="M402.07,345.3c0.96,6.09,4.58,5.21,6.97,2.96C408.65,342.58,404.32,341.19,402.07,345.3z"/>
	<path class="st4" d="M180.06,228.6c11.12-3.84,22.24-4.37,33.36-1.58c-0.64,5.49-2.08,10.32-5.74,13.36
		c-8.23-5.14-8.48-6.68-12.33,1.67C189.21,240.6,184.29,235.6,180.06,228.6z"/>
	<path class="st4" d="M346.48,244.56c7.32,1.5,7.92-6.51,19.66-3.12c0.53-3.6,3-8.17,6.18-13.09
		C353.6,224.04,339.98,240.21,346.48,244.56z"/>
	<path class="st4" d="M309.78,299.74c-0.45,10.03,4.89,10.49,9.82,4.65C319.13,299.9,312.43,296.49,309.78,299.74z"/>
	<polygon class="st4" points="294.34,258.16 305.59,261.53 304.56,277.68 297.67,281.93 	"/>
	<path class="st4" d="M179.51,246.19c-0.38,12.66,9.59,18.7,14.41,14.21C195.98,246.27,181.76,242.08,179.51,246.19z"/>
	<path class="st4" d="M221.64,255.73c2.58,10.3,15.03,1.84,11.15-7.6C231.22,240.38,223.89,251.62,221.64,255.73z"/>
	<path class="st12" d="M217.07,219.24c0,0,3.57,20.17,35.05,22.04c22.99,1.37,25.56-6.04,31.4-23.64L217.07,219.24z"/>
	<path class="st12" d="M291.36,216.23l66.78,1.78c-9.81,12.31-12.84,21.44-33.39,22.71S300.94,239.54,291.36,216.23z"/>
	<path class="st4" d="M340.61,245.88c-8.12,11.25,0.64,21.13,9.59,14.56C354.18,255.76,345.6,246.03,340.61,245.88z"/>
	<path class="st13" d="M278.25,200.39c-4.91-11.08-6.48-21.35-1.24-30c0.09,12.11,9.98,20.47,18.89,21.57
		c10.52-26.14,19.26-2.07,6.3,3.26c8.39,8.18,17.17,4.35,24.09-1.58l-11.84-47.37l-61.3-1.77
		C258.5,168.75,262.12,196.26,278.25,200.39z"/>
	<path class="st4" d="M371.93,253.86c2.58,12.42,14.95,20.45,22.79-10.75C383.14,239.54,383.8,250.3,371.93,253.86z"/>
	<path class="st4" d="M358.82,258.97c2.58,10.3,10.93,7.52,11.74-2.24C365.04,253.49,361.07,254.86,358.82,258.97z"/>
	<path class="st11" d="M326.28,193.64c0,0,4.89-2.67,8.15-6.11c2.51,19.78,9.82,25.26,17.28,24.46
		c-1.34-20.59,21.88-14.09,12.48,6.7l12.47-12.47l-36.2-52.59C329.13,167.75,321.89,180.73,326.28,193.64z"/>
	<path class="st2" d="M185.51,337.35c-55.12,51.13-75.58,108.16-31.01,138.82c2.92-16.65,5.02-26.48,10.47-15.03l38.06-6.65
		c-6.65-18.39-7.02-25.57,3.87-24.99L185.51,337.35z"/>
	<path class="st14" d="M163.5,456.06c3.73,11.95,4.86,23.38,0,33.6l10.46,1.79c5.31-8.83,9.62-7.43,13.39-0.37
		c4.66-10.45,9-8.05,13.18,0.87c4.13-3.47,10.01-1.33,15.98,1.06c4.31-11.37,3.24-24.72-1.94-37.35
		c-6.71-2.12-11.61-1.98-16.98,0.61c-3.92-7.25-7.34-10.5-13.21,0.15c-4.45-8.3-8.83-8.87-11.57,0.15L163.5,456.06z"/>
	<path class="st6" d="M173.97,491.46c5.31-8.83,9.62-7.43,13.39-0.37c4.66-10.45,9-8.05,13.18,0.87
		c2.48-15.76,1.65-27.82-2.94-35.68c-3.92-7.25-7.34-10.5-13.21,0.15c-4.45-8.3-8.83-8.87-11.57,0.15
		C177.32,465.93,176.49,478.23,173.97,491.46z"/>
	<path class="st15" d="M198.76,437.52c11.48,5.41,23.5,5.32,35.95,0.78l-1.72,8.67c10.16,5.3,8.78,9.47,0,12.91
		c9.76,4.39,10.05,8.22,0,11.42c3.28,5.75,3.9,11.56,1.05,17.46l-17.31,5.17c4.13-12.03,2.65-24.42-1.69-36.98l-12.26-3.07
		C197.41,449.24,196.43,443.71,198.76,437.52z"/>
	<path class="st4" d="M247.43,240.72l42.88,2.2c-1.91,6.91-6.83,12.85-12.21,16.01c-1.33,6.65,1.66,16.94-0.24,27.62h-10.57
		l-3.13-22.25l-10.57,3.99C248.41,264.5,247.31,253.67,247.43,240.72z"/>
	<path class="st6" d="M217.07,219.24c17.48,23.87,51.65,21.49,66.08,0C264.5,215.67,244.65,213.36,217.07,219.24z"/>
	<path class="st6" d="M292.47,216.23c14.64,28.14,49.79,21.82,65.67,1.78C339.48,214.43,327.26,212.08,292.47,216.23z"/>
	<path class="st16" d="M232.04,216.61c7.04,20.86,34.48,15.14,37.29,0.5L232.04,216.61z"/>
	<path class="st16" d="M305.52,215.21c5.49,20.99,33.78,14.27,37.33,0H305.52z"/>
	<path class="st12" d="M187.42,149.92c9.88-11.06,21.31,2.15,4.03,11.93c-21.4,8.29-17.88-7.72-17.88-7.72
		c-4.78,6.14-6.11,13.92,0.88,23.18c-14.72,9-13.5,24.42,0,31.66c-1.08-12.84,4.57-14.17,15.68-6.16
		c3.82,11.41-0.79,16.42-14.07,14.84c14.63,14.15,29.21,4.17,43.76-22.93c2.4,13.15,10.44,16.13,21.74,13.21
		c-15.82-11.25-5.05-26.97,8.67-26.05c-13.21,20.67,14.99,36.27,28.47,20.26c-14.77-11.81-8.97-38.23,1.69-48
		c0.72,14,5.44,26.12,14.74,36.09c11.39-49.6,42.5-5.67,8.72,5.06c14.86,4.84,26.33-5.52,35.64-25.5
		c-3.07,15.85,0.05,29.46,10.86,40.29c-4.21-41.23,34.66-20.36,13.85,8.63c14.55,12.41,25.13,8.17,32.06-11.43
		c-31.42,1.7-14.22-46.84-0.61-11.47c15.26-16.43,6.71-43.83-26.92-32.87c-8.78-30.91-39.4-59.5-78.44-49.05
		c-6.18-10.54-6.08-21.24,0-32.11c-3.77-1.87-10.45,9.44-21.03,24.71l-46.08-1.17C200.99,117.61,187.21,131.13,187.42,149.92z"/>
	<path class="st17" d="M218.77,60.37c7.49,7.13,13.45,15.69,18,25.57c28.27,16.79,39.74,28.82,37.76,37.76
		c-11.28,0.52-21.49-5.2-30.52-17.74c-10.05,11.09-15.07,24.78-22.63,42.13c-3.14-1.63-0.16-15.98,3.46-40.01
		C216.7,81.65,211.14,68.62,218.77,60.37z"/>
	<path class="st10" d="M223.53,120.63c0.95,8.69,4.31,8.24,9.13,2.26c0,0-8.56,25.67-11.82,25.67
		C217.58,148.56,223.53,120.63,223.53,120.63z"/>
	<path class="st10" d="M258.99,100.75c5.2,9.14,4.07,14.29-10.09,11.21c0,0,22.63,17.02,25.63,11.74S258.99,100.75,258.99,100.75z"
		/>
	<path class="st10" d="M218.77,60.37c-4.37,1.5-2.03,20.88-2.03,20.88c1.88-9.93,7.26-9.76,14.11-5.35
		C230.85,75.91,223.14,58.87,218.77,60.37z"/>
	<path class="st14" d="M320.77,120.63c16.12,6.84,21.92,1.14,19.83-14.15c7.51,2.86,12.17,7.48,9.78,16.44
		c8.8,3.51,10.46,8.96,6.39,15.98c-9.25,1.92-17.94,4.64-25.76,8.61c-5.27,0.26-7.58-3.46-7.04-11.02
		C316.38,132.56,317.17,126.89,320.77,120.63z"/>
	<path class="st10" d="M361.95,120.63c6.03,1.09,7.23,3.59,6.63,9.19C364.51,130.18,361.95,125.28,361.95,120.63z"/>
	<g>
		<path d="M543.21,470.77c-13.03-13.74-32.87-22.92-38.65-42.03c-0.15-0.51-0.81-1.16-1.56-1.17c-10.4-0.14-20.76-1.14-31.08-2.35
			c-0.04-0.65-1.69-19.36-22.67-27.71c-5.54-2.21-11.23-4.32-17.16-5.09c-1.02-0.13-0.94,0.04-1.36-1.38
			c-0.47-1.56-1.77-5.23-1.88-5.52c6.61,0.68,15.13-1.14,14.27-9.32c-0.67-6.4-6.4-8.5-11.76-7.35c0.4-2.07-0.17-4.12-2.4-5.45
			c-3.23-1.93-6.78,0.16-8.91,2.73c-1.81-3.34-3.75-6.6-5.85-9.76c-1.16-1.75-2.79-4.79-4.61-6.38c0,0,0,0-0.01-0.01
			c0.38-0.34,0.69-0.75,0.91-1.23c0.18,0.01,0.37,0,0.58-0.06c4.25-1.2,8.62-1.94,12.76-3.49c1.93-0.72,1.09-3.79-0.86-3.06
			c-3.4,1.27-6.96,2-10.48,2.88c1.73-0.7,3.46-1.38,5.27-1.87c2.01-0.54,1.16-3.6-0.86-3.06c-1.37,0.37-2.69,0.85-4,1.36
			c2.08-2.2,3.43-4.88,5.36-7.32c1.26-1.6-1.01-3.86-2.29-2.24c-2.3,2.91-3.82,6.64-6.99,8.77c-0.53,0.36-0.74,0.87-0.73,1.37
			c-2.21-1.59-6.8,0.02-7.62,1.67c-0.17-0.14-2.98-1-4.07-1.47v-0.01c0.52-4.8,1.03-9.6,1.53-14.4c3.19-30.99,3.92-62.16,4.72-93.28
			c0.05-1.76-1.76-2.36-2.13-2.48c-5.92-1.95-12.09-3.66-18.34-4.7c6.67-0.77,13.89-12.5,15.84-20.13c0.36-1.41-1.12-2.41-2.38-1.79
			c-4.96,2.43-9.85-0.66-12.83-4.59c-3.22-4.23-3.88-9.51-1.58-14.31c1.8-3.76,5.3-2.57,7.87-0.32c2.98,2.6,4.84,6.42,5.48,10.24
			c0.12,0.69,0.9,1.17,1.56,1.17c2.95,0,4.24-4.34,5.25-6.56c1.54-3.41,2.17-7.08,2.49-10.78c0.48-5.49-0.67-11.15-4.46-15.36
			c-6.94-7.74-19.89-6.25-29.22-3.82c-0.36-1.45-0.99-2.88-1.46-4.22c-1.01-2.89-2.25-5.69-3.58-8.45
			c-1.55-3.19-3.39-7.13-5.88-9.93c1.46-1.86,2.01-4.35,1.54-6.74c-0.77-3.97-3.3-7.11-6.71-9.11c0,0,0,0-0.01,0c0,0,0,0,0,0
			c1.94-0.96,3.94-1.74,6.11-1.48c-0.03,0.17-0.3,2.67,0.69,4.36c1.36,2.33,3.03,4.51,5.11,6.19c0.22,0.18,0.46,0.29,0.7,0.34
			c0.61,0.87,2.07,1.18,2.73-0.02c3.37-6.13-1.32-11.34-6.84-14.03c-0.59-0.29-1.21-0.23-1.67,0.05c0,0,0,0-0.01,0c0,0,0,0,0,0
			c-2.95-0.43-5.56,0.53-8.16,1.75c0.52-3.05-0.56-6.11-2.69-8.7c-2.22-2.73-6.66-7.08-10.53-7.08c-0.98,0-1.95,1.03-1.57,2.01
			c1.67,4.22,2.39,9.16-0.14,12.98c-3.24-2.52-7.89-4.1-11.6-5.53c-11.2-4.34-23.81-5.37-35.34-1.81
			c-7.52-9.47-3.32-21.93,2.8-31.11c0.95-1.43-0.85-2.84-2.21-2.17c-4.16,2.03-7.59,3.7-10.43,7.5c-2.71,3.63-4.51,7.78-6.92,11.61
			c-1.34,2.13-5.77,7.69-8.45,6.8c-2.51-2.29-5.22-4.35-8.07-6.25c-5.31-3.54-11.14-6.29-16.22-10.16
			c-5.52-4.2-8.8-9.65-11.53-15.83c-2.5-5.64-5.84-11.6-11.09-13.28c-3.6-1.15-5.11,7.63-5.3,9.5c-0.38,3.6,0.05,7.08,0.87,10.59
			c1.9,8.16,6.04,16.59,7.85,24.78c0.1,0.45-17.8,10.86-24.85,17.92c-7.92,7.95-11.99,18.17-12.09,29.24
			c-0.01,1.26,1.86,2.26,2.77,1.12c2.12-2.68,9.08-7.81,10.62-1.74c1.17,4.62-5.3,8.83-8.87,10.47c-3.2,1.48-7.21,2.43-10.74,1.88
			c-4.54-0.71-4.24-4.73-3.15-8.24c0.81-2.62-2.93-3.96-4.52-1.53c-2.84,4.34-4.42,9.57-3.58,14.68c0.4,2.42,1.76,7.1,4.16,9.41
			c-5.66,4.39-10.03,10.51-10.12,17.84c-0.05,3.52,1.34,7.09,3.56,9.83c2.24,2.76,6.7,6.92,10.51,6.92c1.32,0,1.9-1.33,1.4-2.39
			c-1.15-2.46-3.32-7.46-0.08-9.33c2.36-1.36,5.86-0.06,7.99,1.11c2.8,1.52,5.15,4.19,5.34,7.42c0.14,2.3-1.03,4.53-2.49,6.25
			c-2.81,3.27-7.62,2.29-11.1,0.9c-1.57-0.64-2.64,1.6-1.58,2.65c3.31,3.23,7.15,6.03,11.63,7.17c-1.95,0.37-14.88,3.93-16.23,4.37
			c-2.27,0.74-2.12,2.51-2.12,2.52c0.59,19.58,3.93,38.9,7.64,58.12c1.41,7.31,2.86,14.61,4.23,21.93
			c-5.98,5.76-18.6,18.38-18.6,18.38c-32.3-7.74-33.38,15.62-32.91,18.88c0.88,6.07,1.65,12.01,1.7,18.16
			c-19.37,28.21-29.59,59.87-11.65,92.38c7.36,13.35,19.73,26.01,34.87,30.19c0.98,1.49,2.46,2.5,4.63,2.71
			c1.87,0.18,4.77-1.12,4.98-1.62c0.31,0.48,0.85,0.52,1.09,0.55c4.1,0.44,9.53,3.56,12.1-0.73c5.52-9.22,5.98-2.06,8.58,1.62
			c0.61,0.86,1.76,1.04,2.55,0.32c2.08-1.9,3.33-4.59,5.17-6.71c1.4-1.61,2.12,0.43,2.75,1.72c0.71,1.43,1.18,2.95,1.93,4.36
			c0.41,0.79,1.47,0.97,2.21,0.57c4.5-2.43,9.04-0.38,13.36,1.42c0.41,0.17,0.81,0.18,1.16,0.07c0,0,0,0,0,0
			c0.19,0.56,0.68,1,1.47,0.96c5.9-0.31,12.09-1.33,17.12-4.51c0.76,0.14,1.64-0.15,2-1.02c0.42-0.99,0.76-2.03,1.02-3.1
			c2.59,1.1,5.4,1.76,8.19,2.14c11.6,1.59,23.32-0.95,34.96-0.33c9.27,0.49,18.34,1.6,27.67,1.42c10.12-0.2,20.22-1.23,30.27-2.37
			c3.99-0.46,8.44-0.62,12.5-1.63c0.09,0.23,0.17,0.44,0.25,0.61c-0.3,0.61-2.38,6.99-3.11,9.59c-0.56,2.01,1.1,2,1.57,2.01
			c21.78,1.47,80.85-10.38,81.2-10.46c0,0,23.67,2.33,35.41,4.15c7.14,1.1,14.18,2.7,21.07,4.85c7.04,2.2,14.02,4.6,21.3,5.89
			c1.68,0.3,2.58-1.39,1.58-2.65c-5.12-6.43-10.47-12.72-14.91-19.61c7.2-0.03,14.39,0.58,21.57-0.32c1.59-0.2,2.23-2.01,0.82-2.96
			c-4.79-3.23-9.48-6.59-13.99-10.18c1.12,0.2,27.34,5.46,39.47,6.54C543.56,473.62,544.09,471.7,543.21,470.77z M367.47,128.64
			c-1.48-1.3-2.79-2.76-3.53-4.6c-0.26-0.63-0.32-1.25-0.33-1.87C365.97,123.76,367.92,125.95,367.47,128.64z M426.81,365.97
			c2.74,0.47,1.04,3.62,0.12,4.89c-0.98,1.35,0.89,2.92,2.22,2.17c4.14-2.32,9.66-2.14,10.75,3.25c1.36,6.72-8.22,6.67-12.35,5.85
			c-0.75-1.85-4.59-10.42-5.82-12.84c0,0,0,0,0,0C422.77,367.15,424.56,365.58,426.81,365.97z M422.4,378.24
			c1.33,2.96,4.71,14.47,6.18,15.92c1.57,1.53,11.27,3.1,14.09,4.06c24.28,8.3,26.16,28.73,26.16,29.81
			c-0.05,15.66-11.24,21.87-17.12,26.2c-0.09,0.02-6.31,1.17-8.18,6.74c-0.16,0.48-16.69,4.28-24.95,2
			c-3.55-0.98-6.84-2.62-9.68-4.86c-1.14-0.89-4.94-5.08-5.47-5.88c-4.6-7.02-5.22-16.17-4.34-24.27
			c0.36-3.29,3.33-16.32,6.77-21.92c0.96-1.57,2.41-3.34,2.07-5.27c-2.93-16.34-7.28-32-2.85-48.43h1.97
			C408.26,352.34,419.62,372.06,422.4,378.24z M462.91,468.67L462.91,468.67c-3.88-3.78-9.62-3.79-14.36-1.04
			c0-0.01,0.2-3.37-2.32-4.88c1.23-2.97,3.66-4.77,5.55-5.16C453.23,458.04,460.01,460.74,462.91,468.67z M426.9,478.11
			c-2.66-0.69-5.33-1.25-8.05-1.49c1.56-2.46,1.68-5.34,0.75-8.12c0,0,0.01,0,0.01,0h0.01c2.49,0.49,4.95,1.14,7.4,1.79
			c0,0,0,0,0.01,0C428.14,472.03,428.95,476.02,426.9,478.11C426.9,478.11,426.9,478.11,426.9,478.11z M392.87,489.8
			c-0.38-1.81-0.57-3.6-0.53-5.36c0,0,0,0,0,0c1.54-0.2,2.65,0.52,3.45,1.82C394.76,487.38,393.79,488.57,392.87,489.8z
			 M398.11,483.92C398.11,483.92,398.11,483.92,398.11,483.92c-1.32-1.74-3.26-2.75-5.44-2.7c0,0,0,0,0,0
			c0.34-1.71,0.94-3.37,1.86-4.96c0,0,0-0.01,0-0.01c0.08,0,0.15,0,0.23-0.02c3.35-0.56,7.14,0.41,7.57,4.21
			c0.01,0.05,0.02,0.09,0.03,0.14c0,0,0,0,0,0C400.86,481.56,399.44,482.69,398.11,483.92z M405.28,478.94
			C405.28,478.94,405.28,478.94,405.28,478.94c-1.08-3.87-4.39-5.78-8.28-5.96c1.89-1.92,4.29-3.2,6.86-4.02c0,0,0,0,0,0
			c6.01,2.63,3.83,8.72,3.86,8.93C407.01,478.15,405.96,478.6,405.28,478.94z M407.84,468.01c2.78-0.45,5.52-0.4,8.24-0.08
			c-0.01,0.19,1.41,5.5-0.3,7.5c-0.29,0.34-0.4,0.72-0.4,1.08c0,0,0,0-0.01,0c-0.81,0.02-3.54,0.04-4.55,0.52
			C411.51,473.52,410.32,470.38,407.84,468.01z M444.1,465.17c1.09,1.37,4.18,6.22-5.95,4.39c-3.08-0.56-6.09-1.26-9.08-2.07
			C434.09,467.38,439.07,466.4,444.1,465.17z M431.15,471.39c1.74,0.45,3.54,0.88,5.34,1.2c0,0,0,0,0,0
			c-0.02,0.27,0.02,0.57,0.17,0.87c1.21,2.4,2.29,4.89,1.32,7.54c-0.27-0.06-5.37-1.35-7.64-1.98
			C431.87,476.76,432.08,473.98,431.15,471.39z M441.16,481.66C441.16,481.66,441.16,481.66,441.16,481.66
			c1.02-2.96,0.14-5.86-1.13-8.6c1.5,0.11,2.99,0.11,4.46-0.06c3.32,2.3,4.4,8.79,4.56,9.45
			C446.73,482.48,441.46,481.72,441.16,481.66z M452.3,482.18c-0.17-0.77-2.55-8.03-4.49-10.33c2.51-2.9,11-3.92,13.94,0.38
			c0.24,0.35,0.55,0.55,0.88,0.65c0,0,0,0,0,0C462.07,475.02,459.79,481.77,452.3,482.18z M352.06,482.86
			c-0.15-0.25-0.87-1.03-1.1-1.15c-2.58-1.4-5.12,1.01-7.54-2.62c-1.42-2.13-1.6-5.07-1.67-7.7c7.75,0.12,15.44-10.63,12.85-19.07
			c-0.26-0.84-0.48-1.71-0.85-2.51c0.69,0.03,1.47,0.16,2.26,0.36c1.07,0.24,8.47,1.59,10.26,7.48c0.18,0.59,0.14,1.27,0.05,1.96
			c-0.25,1.93,1.14,1.71,4.88,1.77c3.01,0.05,5.82,1.63,7.66,4.08c2.35,3.12,0.84,5.85-1.7,8.1c-2.25,2-4.95,3.46-7.33,5.31
			c-2.68,2.09-4.24,4.79-6.44,7.32c-1.58,1.84-4.03,4.33-6.73,3.56C355.29,489.36,352.43,483.51,352.06,482.86z M341.41,247.2
			c1.25,0.68,7.81,7.58,7.63,11.8c-2.51,3.76-6.89,1.42-7.04,1.34C337.61,258.05,339.25,251.98,341.41,247.2z M313.48,339.94
			c0.13,20.6-0.01,41.21-1.25,61.78c-0.61,10.25-1.63,20.44-2.76,30.64c-0.93,8.43-2.7,16.94-7.15,24.31
			c-0.93,1.55-4.18,6.24-8.27,5.69c-4.14-0.56-7.18-3.88-8.59-7.64c-3.04-8.12-5.17-16.52-7.56-24.84
			c-9.18-32.01-3.11-86.85-5.63-110.09c-0.94-8.67-3.29-29.62-3.55-31.4c0,0,2.64,1.32,4.46,1.36c4.49,0.09,6.75-3.83,7.15-7.7
			c0.52-5.08-0.47-10.22-1.34-15.2c-1.38-7.92,4.35-10.65,6.69-12.46c3.38-2.62,5.3-5.81,5.79-9.89c3.32,0.47,16.69-0.48,20.46-0.84
			c0.88,17.55,1.2,35.14,1.33,52.74c-10.16,3.11-5.82,12.79,0.09,13.12C313.39,319.66,313.42,329.81,313.48,339.94z M288.22,244.49
			c-0.49,3.32-2.19,5.81-5.07,7.82c-9.47,6.62-7.69,12.83-7.03,17.12c0.73,4.68,2,10.08,0.45,14.72c-0.76,2.28-3.12,2.76-5.27,2.17
			c-2.43-0.67-2.69-4.15-2.81-6.13c-0.26-4.25,0.95-8.9-0.36-13.03c-1.66-5.25-5.43-5.28-10.3-2.16c-2.33,1.49-4.61,1.87-6.04-0.86
			c-1.22-2.33-2.23-17.36-2.72-22.08C260.83,243.65,275.44,245.09,288.22,244.49z M316.44,306.31c-0.98,0.4-5,1.28-6.25-2.88
			c-0.9-2.99,2.49-3.79,3.09-3.88c4.65-0.68,5.63,5.65,3.3,6.69C316.53,306.27,316.49,306.29,316.44,306.31z M296.48,241.07
			c-0.41-1.34-6.08-12.4-5.94-16.94c0.06-2.05-3.18-2.04-3.24,0c-0.13,4.22,4.82,15.42,5.74,17.05c-6.38,1.2-56.57-2.04-63.9-4.86
			c-1.14-1.72-2.4-3.36-3.73-4.91c-2.9-3.37-13.99-9.77-26.68-7.65c8.35-3.46,18.97-21.6,19.88-23.11c0.56,2.63,2.05,5.03,4.72,6.87
			c5.45,3.75,12.9,4.31,19.06,2.04c1.33-0.5,1.6-2.1,0.39-2.9c-5.45-3.64-9.66-9.34-6.43-15.81c2.1-4.21,6.51-6.9,11.14-7.88
			c-5.09,8.02-3.1,17.63,5.1,23.73c4.19,3.12,9.88,4.19,15.13,3.75c9.27-0.77,13.19-9.33,13.19-9.45c0.22-0.08,4.68-3.24,6.64-4.65
			c1.94-1.4,2.76-1.38,4.56,0.06c3.8,3.06,7.06,6.59,11.57,8.69c4.61,2.15,10.37,1.71,15-0.12c8.1-3.2,8.9-14.1,8.96-14.67
			c3.07-2.67,5.73-5.73,8.07-9.07c0.27-0.38,0.53-0.77,0.77-1.16c-0.17,3.91,0.19,7.82,1.26,11.72c2.03,7.45,6.36,14.24,11.63,19.81
			c1.95,2.06,4.77-0.98,3.49-2.85c-3.73-5.42-1.75-14,3.02-18.8c2.69-2.71,6.15-1.51,8.55,0.85c7.4,7.29,4.76,19.75-1.25,26.86
			c-0.59,0.69-0.64,1.56,0,2.24c2.4,2.59,5.25,4.9,8.4,6.36c-10.92-0.69-20.38,1.78-26.69,9.19c0,0,0,0,0,0
			C328.88,238.35,312.72,240.4,296.48,241.07z M229.36,258.06c-3.35,1.72-4.65,0.64-6.43-1.13c0.21-0.24,0.36-0.54,0.41-0.91
			c0.33-2.56,2.54-4.38,4.48-6.03c0.3-0.25,3.12-3.14,3.25-3.33C232.66,250.68,233.49,255.96,229.36,258.06z M242.99,336.15
			c3.63,22.38,6.18,44.93,9.47,67.36c2.31,15.76,1.94,31.07,1.71,34c-0.41,5.27-1.09,14.48-6.13,17.86
			c-2.12,1.42-4.46,0.47-6.48-1.08c0.12-0.83-0.07-1.79-0.69-2.9c-1.27-2.29-4.24-3.05-5.67-5.18c-0.66-0.98,1.1-7.29,1.28-8.63
			c0.05-0.35,2.49-4.94-10.01-7.3c-4.56-7.04-13.12-39.35-17.02-58.05c-7.53-36.02-13.37-72.36-19.98-108.54
			c5,1.55,8.13-2.26,9.99-7.02c0.92,4.68,3.12,8.55,8.51,7.58c5.55-1,7.16-7.33,7.86-13.18c4.55,13.65,13.78,10.25,14.11,10.13
			C230.65,265.08,239.57,315.02,242.99,336.15z M208.1,439.76c-6.29-0.94-7.99-4.53-8.03-4.87c-0.37-2.79,3.21-3.94,9.08-3.94
			c4.21,0,12.57,1.72,15.02,2.13c4.12,0.7,6.74,2,8.03,2.71c1,0.56,1.03,0.55,0.22,1.11c-0.73,0.5-2.14,1.38-5.41,2.33
			C223.39,440.28,214.56,440.72,208.1,439.76z M184.26,454.52c-1.84-3.4-3.91-7.51-8.32-5.06c-2.32,1.29-3.04,4.21-5.18,5.65
			c-1.01,0.68-7.45-1.08-8.83-1.09c-6.88-0.04-8.42,19.67-8.44,19.81c-4.49-2.38-8.6-6.09-11.58-10.1
			c-8.39-11.28-11.15-25.83-9.67-39.51c1.79-16.44,10.04-31.74,19.31-45.26c9.75-14.23,21.48-27,33.42-39.5
			c3.38,22.85,15.07,70.81,20.01,88.36c-4.11,0.37-7.6,1.89-8.09,6.01c-0.15,1.23,0.46,3.24,0.46,3.25
			c-0.79,3.3-1.37,6.77-1.05,10.15c0.28,3.03,2.31,4.61,4.37,6.37c0,0-2.38,0.7-3.49,1.2c-1.23-3.03-2.86-7.86-6.48-7.09
			C187.64,448.35,186.1,451.93,184.26,454.52z M180.6,247.32c9.86-2.38,12.05,5.48,12.39,12.97
			C187.89,261.45,182.15,253.32,180.6,247.32z M189.34,228.35c3.07-0.55,12.58-1.6,15.27-1.26c2.35,0.3,4.71,0.61,7.06,0.91
			c-0.52,0.95-0.9,1.99-1.23,3.05c-0.66,2.13-0.75,5-2.21,6.8c-1.88,2.31-3.48-0.53-4.72-1.69c-1.3-1.21-3.32-1.69-4.99-0.99
			c-1.73,0.72-2.24,2.25-2.66,3.92c-0.69,2.75-3.6,0.41-4.94-0.54c-3.14-2.22-6.4-5.5-8.51-8.95
			C184.73,229.18,187.04,228.76,189.34,228.35z M279.35,157.32c0.25,5.2,1.01,10.27,2.8,15.29c2.55,7.12,7.04,13.33,12,19.02
			c0.74,0.84,2.55,0.46,2.71-0.7c1.02-7.34,4.69-24.26,15.56-21.43c4.82,1.26,5.09,7.79,4.18,11.59
			c-0.73,3.09-10.59,12.13-12.83,12.13c-1.56,0-2.29,2.22-0.82,2.96c7.15,3.59,14.89,1.26,21.09-3.02c-0.4,1.79-1.01,3.51-1.92,5.11
			c-3.9,5.32-13.83,8.12-23.37-0.14c-2.37-2-4.89-5.26-8.07-6.01c-3.56-0.84-8.31,6.7-12.29,6.39
			C271.48,197.84,266.39,175.28,279.35,157.32z M348.58,237.51c1.7-2.56,3.64-5.82,11.17-6.87c3.31-0.46,6.66-0.6,9.99-0.9
			c-0.77,1.4-2.62,7.06-3.36,8.08c-0.4,0.57-1.32,3.34-7.2,0.88c-2.63-1.1-5.53,0.95-7.74,2.92c-1.24,1.09-3.29,3.21-4.19,0.58
			C346.76,240.75,347.83,238.63,348.58,237.51z M344.49,273.88c0.29-3.09,0.92-6.39,1.16-9.6c4.84-0.36,8.06-5.67,10.16-10.79
			c0.67,5.62,2.16,11.58,7.38,13.11c4.17,1.23,8.95-3.49,9.08-7.29c2,4.99,5.76,9.04,12.22,5.79c-0.68,11.72-1.88,23.41-2.9,35.11
			c-1.64,18.78-3.18,37.56-4.93,56.33c-1.82,19.53-3.87,39.07-8.28,58.23c-2.14,9.29-4.92,18.45-8.5,27.31
			c-0.66,1.63-1.4,3.41-2.28,5.18c-2.54-0.64-5.22-0.84-7.16,0.03c-0.77,0.34-1.04,1.5-0.58,2.17c1.16,1.68,1.75,3.85,1.81,6.12
			c-0.79,0.69-1.64,1.29-2.55,1.78c-8.92,4.76-12.11-17.6-12.64-22.73c-1.99-19.31-0.77-39.09,0.18-58.43
			c1.15-23.31,2.92-46.58,4.9-69.84C342.49,295.53,343.47,284.7,344.49,273.88z M384.69,261.22c-2.6,2.36-5.93,2.9-8.35-0.68
			c-0.74-1.09-2.74-3.91-2.92-5.73c0,0,2.78-0.12,5.47-1.76c1.68-1.03,2.85-2.13,3.75-3.82c0.35-0.66,2.45-3.46,3.37-4.03
			c0.81-0.51,5.56-1.5,6.84-1.69C392.72,243.84,392.46,254.16,384.69,261.22z M360.15,258.67c1.62-1.97,6.07-2.46,9.23-1.39
			c0,0-2.12,7.75-5.89,6.18C361.72,262.74,360.15,258.68,360.15,258.67z M386.21,458.38c-3.08,0.64-6.29-2.54-6.15-4.32
			C382.85,454.01,386.28,455.55,386.21,458.38z M369.08,447.44c6.8-10.89,18.64-25.89,22.11-29.19c1.18-1.12,6.28-0.4,6.62-0.37
			c-6.61,22.12,2.76,35.69,3.06,36.13C399.02,453.77,372.98,450.2,369.08,447.44z M396.22,345.52c0.64,0.25,1.3,0.46,1.97,0.66
			c-0.71,0.22-1.42,0.46-2.12,0.71c0,0,0-0.01,0-0.01C396.12,346.42,396.17,345.97,396.22,345.52
			C396.22,345.52,396.22,345.52,396.22,345.52z M393.21,373.24c0.55-7.63,1.64-15.21,2.47-22.82c1.75-0.68,5.35-2.37,5.73-1.6
			c-2.29,1.7-4.37,3.57-5.96,5.95c-1.15,1.72,1.66,3.31,2.8,1.6c0.94-1.4,2.12-2.6,3.4-3.69c-1.95,7.73-2.07,15.56-1.19,23.52
			c0.44,4.05,4.28,21.02,4.28,25.3c0,0.62-5.22,10.97-5.96,13.23c-7.74-1.95-11.22,2.27-12.15,3.33
			C387.1,416.04,391.84,392.13,393.21,373.24z M405.8,344.18c0.77,0,1.49,1.47,1.76,2.53c0.31,1.21-0.72,1.28-1.72,1.23
			c-1.16-0.06-2.06-0.97-2.35-2.01C403.16,344.69,405.03,344.18,405.8,344.18z M397.47,294.41c-0.86,15.42-2.42,30.75-4.06,46.08
			c-0.73-0.49-1.43-1.03-2.11-1.63c-1.55-1.36-3.85,0.87-2.29,2.25c1.26,1.11,2.6,2.06,4.02,2.88c0,0-3.49,34.43-5.28,48.78
			c-1.41,11.35-3.85,22.17-6.65,33.24c0,0-11.48,13.75-15.82,21.55c-0.52,0.93-0.04,2.01,0.97,2.33c2.16,0.69,4.69,1.8,6.88,2.38
			c-0.59,0.27-2.27,1.54-3.47,4.41c-0.83-2.99-5.28-8.07-9.01-8.43c1.52-3.06,9.05-23.04,11.85-37.16
			c3.72-18.77,5.83-37.82,7.6-56.83c1.74-18.73,7.11-79.88,7.74-91.75c2.71-2.77,4.47-6.47,5.64-10.09
			c1.7-5.26,2.69-10.24,6.02-14.36C399.02,256.85,398.53,275.64,397.47,294.41z M398.43,234.57c-1.63,1.59-2.92,3.37-3.97,5.32
			c-3.84,1.35-7.72,1.02-10.89,3.06c-0.84,0.53-3.81,5.17-4.76,6.36c-0.88,1.09-5.03,1.86-5.51,2.17c-0.16-1.29-0.26-2.57-0.31-3.79
			c-0.09-1.98-3.04-1.97-3.14,0c-0.06,1.13,0.01,3.64-0.15,6.36c0,0,0,0,0,0c-5.51-2.12-10.32,1.18-10.32,1.18
			c-0.01-0.07-0.76-6.12-1.14-9.07c0-0.01,0-0.02-0.01-0.03c-0.23-1.63-2.53-2.15-3.07-0.38c-0.32,1.06-2.51,7.43-3.33,9.07
			c-0.23-1.53-4.86-7.19-8.94-10.96c0.27-0.47,0.95-1.31,1.16-1.67c0.22,2.06,1.34,4.15,3.46,4.46c4.23,0.64,5.62-3.79,9.19-4.79
			c0.63-0.18,5.86,1.01,5.97,1.02c3.31,0.63,4.5-0.35,5.47-2.04c0.97-1.69,3.37-9.45,5.83-11.44
			C382.3,229.94,390.59,232.04,398.43,234.57z M342.2,108.08c1.82,1.09,3.65,2.97,4.67,4.01c2.56,2.61,4.02,6.13,2.03,9.46
			c-0.39,0.65-0.26,1.28,0.11,1.72l0.01,0.01c0,0,0.01,0.01,0.01,0.01c0.27,0.56,0.84,1.01,1.53,1.02c0.01,0,0.01,0.01,0.02,0.01
			c0,0,0,0,0.01,0c0.11,0.08,0.23,0.14,0.36,0.19c4.43,1.71,7.84,6.12,6.64,10.9c-0.08,0.33-0.22,0.63-0.4,0.91
			c-0.55,0.88-1.52,1.49-2.62,1.95c-1.64,0.67-3.56,0.98-4.86,1.24c-2.81,0.57-5.67,0.93-8.37,1.9c-2.92,1.05-5.38,3.05-8.34,4.09
			c-2,0.71-4.66,1.21-6.06-0.77c-0.84-1.19-0.97-2.83-1.06-4.21c-0.09-1.43,0.65-3.6-0.27-4.8c-1.81-2.37-5.39-2.11-5.87-5.66
			c-0.33-2.44,0.66-5.05,1.67-7.42c5.07,3.24,11.41,4.83,16.7,0.94c0.05-0.03,0.09-0.07,0.13-0.1c0.9-0.67,1.64-1.44,2.25-2.27
			C343.2,117.54,343.34,112.55,342.2,108.08z M218.5,81.11c-1.23-3.84-1.95-7.77-1.72-11.8c0.12-2.13,1.89-6.63,2.02-6.85
			c4.14,2.79,6.39,6.63,8.44,11.22c2.26,5.07,4.77,9.63,8.74,13.62c7.11,7.13,16.96,10.86,24.92,16.99c0.71,0.54,3.19,2.68,3.72,3.2
			c2.93,2.76,5.59,5.92,7.7,9.3c0.7,1.12,2.48,3.88,1.41,5.2c-1.23,1.52-4.58,0.59-6.09,0.15c-7.67-2.24-21.45-16.48-22.23-17.19
			c-1.05-0.94-2.65-0.13-2.98,0.32c-0.53,0.69-10.42,13.37-13.17,20.2c-2.69,6.7-4.31,13.87-8.05,20.08
			c-0.74-2.78,0.06-5.67,0.81-8.58c1.06-4.04,2.01-8.11,2.87-12.19c1.22-5.82,1.86-11.66,1.44-17.54c-0.07-1.06-0.43-3.92-0.49-4.29
			C224.61,95.39,220.84,88.37,218.5,81.11z M182.5,219.71c5.37-0.06,10.07-3.12,11.28-9.27c0.96-4.92-2.03-9.26-6.04-11.89
			c-3.4-2.24-8.51-3.55-12.25-1.39c-3.7,2.13-3.33,6.48-2.14,10.18c-1.98-1.19-7.55-3.85-8.11-13.28
			c-0.4-6.71,5.36-12.47,10.71-16.03c1.29-0.85,0.85-2.67-0.82-2.95c-4.21-0.71-5.42-13.69-2.97-16.81c0.06,3.33,1.65,6.2,5.71,7.25
			c5.08,1.32,11.19-0.61,15.61-3.05c5.02-2.78,11.21-9.41,7.52-15.34c-2.93-4.7-8.3-3.08-12.11-0.26
			c0.95-9.01,4.85-16.95,11.48-23.59c6.57-6.59,14.86-11.25,22.82-16c0.59,7.09-0.84,14.29-2.42,21.17
			c-1.52,6.58-5.44,14.92-1.23,21.19c0.71,1.06,2.07,0.98,2.79,0c4.52-6.09,6.52-13.51,9.01-20.53c2.82-7.97,7.7-14.19,12.78-20.78
			c6.33,7.08,14.59,14.91,23.99,17.23c3.32,0.81,8.31,0.4,9.05-3.61c0.78-4.25-7.49-13.87-8.42-14.83
			c2.37-0.89,8.92-8.29,12.73-16.66c2.34-5.13,6.35-6.64,6.93-6.98c-5.15,9.73-7,21.25,0.32,30.39c0,0,0.01,0,0.01,0.01
			c0.94,1.55,2.61,1.19,2.87,0.97c0.01,0,0.01-0.01,0.02-0.01c11.24-3.54,22.97-2.33,33.93,1.72c3.19,1.18,7.35,2.68,10.25,4.82
			c-4.23,3.06-10.25,0.55-13.94-2.27c-1.03-0.78-2.22-0.47-2.71,0.71c-1.43,3.39-3.38,7.52-2.5,11.29c0.36,1.58,1.09,2.84,2.24,3.99
			c1.14,1.14,3.88,1.53,3.79,2.68c-0.27,3.39,0,7.47,2.66,9.97c2.28,2.15,5.79,1.68,8.52,0.82c3.87-1.2,6.97-3.87,10.91-4.85
			c4.06-1.03,8.29-1.25,12.1-3.11c1.39,1.7,2.49,3.65,3.61,5.57c1.59,2.72,2.94,5.58,4.15,8.48c1.01,2.43,2.78,5.82,2.78,8.47
			c0,1.02,1.03,1.82,2.05,1.53c7.99-2.29,18.02-4.03,25.52,0.57c9.1,5.56,6.46,19.02,2.14,27.33c-1.37-4.08-4.06-7.79-7.66-10.21
			c-4.02-2.71-8.55-1.53-10.85,2.59c-5.67,10.15,3.73,26.76,15.61,24.35c-1.89,5.65-5.17,11.25-10.51,14.16
			c-6.26,3.42-12.77-0.33-17.26-4.76c4.01-5.22,6.17-11.4,5.55-18.03c-0.47-5.05-2.77-10.67-7.14-13.67
			c-3.89-2.67-8.37-2.18-11.67,1.13c-4.4,4.43-5.81,11.21-4.69,17.27c-3.29-4.4-6.05-9.13-7.64-14.42
			c-2.09-6.99-1.32-14.33,0.55-21.27c0.41-1.53-2.08-3.03-2.71-1.54c-1.84,4.35-12.99,28.22-30.08,26.54
			c4.05-1.84,9.36-7.98,10.7-11.47c1.9-4.91,1.33-12.29-3.44-15.52c-5.38-3.64-11.94-0.96-15.48,3.8c-3.3,4.44-5.11,9.88-6.13,15.3
			c-3.71-4.58-11.11-14.69-11.79-34.14c-0.05-1.29-1.89-2.27-2.76-1.12c-19.82,26.17-10.42,48.58-2.41,50.06
			c-1.75,3.33-7.3,5.4-10.67,5.81c-4.24,0.52-8.41-0.82-11.91-3.1c-8.16-5.33-8.98-15.3-2.53-22.23c0.92-0.98,0.33-2.74-1.14-2.71
			c-7.3,0.15-14.52,3.9-17.8,10.46c-3.34,6.71,0.01,13.06,5.15,17.49c-8.51,1.44-18.57-2.9-16.56-11.72
			c1.05-1.47-1.14-4.13-2.85-1.72c-4.87,7.84-9.34,16.08-15.93,22.67c-3.17,3.17-7.14,5.84-11.79,6.04
			C188.1,222.73,185.13,221.48,182.5,219.71z M179.15,230.35C179.15,230.35,179.16,230.35,179.15,230.35
			c3.41,5.53,16.06,19.6,19.69,10.12c0.4-1.05,0.54-3.47,2.39-2.06c0.77,0.59,1.33,1.46,2.02,2.15c1.37,1.39,3.41,1.7,5.18,0.88
			c5.39-2.5,3.4-9.23,6.88-13c6.63,1.75,10.47,8.3,12.29,11.29c0.5,0.82,1.11,1.86,1.72,3.05c0.02,0.03,0.03,0.05,0.04,0.08
			c-0.19,1.37-1.13,2.55-2.24,3.6c-0.99,0.93-2.13,1.77-2.98,2.55c-1.57,1.43-2.8,2.98-3.49,4.84c-2.1-3.61-3.47-8.27-4.15-10.54
			c-0.54-1.78-2.87-1.24-3.08,0.4c-0.35,2.74-0.53,5.49-0.98,8.22c-0.49,2.91-1.19,7.06-3.85,8.87c-3.75,2.55-6.6-1.87-6.78-15.55
			c-0.03-1.97-3.05-1.98-3.14,0c-0.17,4.22-0.96,8.56-3.02,12.31l-0.03,0.06c-1.59-12.03-7.02-15.11-15.83-13.37c0,0,0,0,0-0.01
			c-0.12-0.47-0.25-0.93-0.38-1.38c-1.22-4.12-3.15-7.77-6.19-10.74C175.17,231.5,177.15,230.9,179.15,230.35z M172.19,235.66
			c2.15,7,8.8,25.38,13.67,26.18c0,0,12.81,74.32,20.47,111.24c3.88,26.36,16.15,56,16.32,56.42c-2.55-0.46-11.11-1.66-14.33-1.76
			c-0.95-3.7-17.01-64.54-19.11-82.14C185.9,317.88,173.21,264.3,172.19,235.66z M143.91,350.57c-1.63-4.16,1.88-8.32,6.42-7.42
			C148.16,345.59,146.01,348.06,143.91,350.57z M132.58,343.11c3.8-11.38,17-11.75,26.94-9.87c-2.41,2.52-7.11,7.56-7.05,7.54
			c-8-2.55-15.1,5.41-10.85,12.41c0.02,0.03-5.16,6.65-7.61,10.01C134,363.2,131.17,347.35,132.58,343.11z M133.83,474.12
			c-11.56-11.41-18.86-27.09-20.34-43.07c-1.39-15.04,2.8-29.98,9.37-43.46c13.54-27.74,36.26-50.2,58.52-71.63
			c0.22,1.2,2.26,14.15,3,19.45c-20.49,21.34-41.49,44-51.45,71.97c-4.81,13.54-5.86,28.22-1.66,42.03
			c3.41,11.19,10.5,22.38,21.43,27.72c-0.34,2.85-0.56,6.24-0.03,9.14C145.68,483.81,139.22,479.44,133.83,474.12z M156.3,487.35
			c-0.84-2.35-0.7-5.97-0.45-8.9c0.6-7.17,2.02-16.22,4.29-20.18c0.55-0.96,0.54-1.08,1.13-0.28c3.04,4.09,3.84,11.05,3.96,15.97
			c0.02,0.76-0.64,11.56-3.15,14.34C161.46,488.99,157.77,491.46,156.3,487.35z M202.63,488.85c1.66-4.51,1.32-9.87,0.84-14.47
			c-0.24-2.31-3.33-1.6-3.24,0c0.02,0.35,0.78,9.78-0.75,13.6c-1.18-2.9-4.34-9.37-9.68-2.82c0.21-0.91,1.56-9.67,1.56-11.1
			c0-2.05-3.24-2.05-3.24,0c0,2.25-1.9,12.29-2.08,13.07c-0.31-0.52-0.63-1-0.97-1.46c-0.73-0.99-1.57-1.78-2.58-2.13
			c-1.02-0.36-3.63-1.06-5.88,2.69c-0.79,1.33-1.68,2.64-2.97,3.5c-1.01,0.68-6.94-0.84-8.05-0.99l0,0c0.07-0.11,7-19.47-0.62-31.01
			c3.26,0.68,6.59,1.37,9.06-1.26c0.84-0.9,3.14-5.3,4.68-4.61c1.53,0.67,2.53,3.58,3.44,5.4c-0.76,0.62-0.83,3.24-1.47,4.43
			c-0.98,1.81,1.81,3.41,2.8,1.6c0.78-1.44,1.53-4.72,1.53-4.78c0.05-0.04,0.81-0.73,1.1-1.08c1.56-1.78,2.69-3.95,4.23-5.72
			c1.39-1.61,3.93,4.67,4.67,6.08c0.41,0.77,1.49,0.99,2.22,0.57c1.85-1.06,8.64-4.06,16.48-1.47c0.03,0.05,8.79,24.67,1.02,34.47
			c-0.02,0.04-0.05,0.07-0.06,0.11c0,0,0,0,0,0c0,0,0,0,0,0C210.64,489.79,206.68,488.27,202.63,488.85z M232.69,487.42
			C232.69,487.42,232.69,487.42,232.69,487.42c-4.22,3.07-9.43,4.24-14.6,4.69c0,0,0,0,0-0.01c6.94-13.63-1.54-35.77-1.54-35.77
			s-0.86-1.85-1.24-1.99c-1.03-0.39-5.54-2.11-10.64-1.42c0,0,0,0-0.01,0c-8.32-3.63-5.66-10.61-4.86-13.34
			c10.88,5.57,28.35,3.28,33.59,0.46c-2.89,4.54-1.73,7.4,0.4,9.39c0.82,0.77,5.58,3.45,4.5,4.78c-0.23,0.29-4.27,2.49-5.83,3.31
			c0,0-3.43-0.15-4.05-0.47c-1.85-0.94-3.49,1.8-1.63,2.74c1.67,0.85,5.18,0.84,5.19,0.84c1.87,1.89,4.41,3.13,6.41,4.86
			c1.77,1.53-5.07,3.86-6.33,4.47c-0.21,0.1-1.52,0.46-0.58,2.17C231.84,472.83,235.79,478.37,232.69,487.42z M307.06,486.84
			c-8.85,0.22-17.52-0.53-26.31-1.32c-10.85-0.98-21.73,1.19-32.59,0.6c-3.93-0.21-7.85-0.93-11.37-2.61
			c0.3-3.01,0.03-6.11-0.83-8.97c-0.26-0.83-0.56-1.64-0.91-2.42c0.09-0.03,7.03-2.31,7.42-5.81c0.3-2.77-4.05-5.01-6.82-6.86
			c1.46-0.73,3.04-1.5,4.2-2.47c1.41,1,2.96,1.75,4.66,2.07c10.87,2.09,12.59-16.2,12.98-22.75c0.42-7.03-0.12-14.14-0.68-21.15
			c-1.72-21.3-4.87-42.49-8.13-63.6c-4.74-30.78-10.3-61.4-15.83-92.05c6.47-6.27-1.63-19.75-1.63-19.75
			c4.86,0.66,9.71,1.31,14.57,1.91c0.55,4.84,0.43,9.76,0.95,14.61c0.44,4.08,0.95,9.82,4.75,12.35c1.86,1.24,4.36,0.82,6.27-0.05
			c1.46-0.66,3.59-2.27,5.26-2.19c0,0.04,0.53,8.35,1.1,12.49c0.72,5.24,1.5,10.48,2.24,15.72c1.49,10.51,2.61,20.93,2.85,31.54
			c0.48,21.09-0.22,42.19,0.62,63.27c0.8,19.96,2.87,46.42,14.29,69.89c1.5,3.09,5.03,4.65,8.19,5.89c3.84,1.51,7.23-0.03,8.38-1.19
			c2.85-2.87,5.44-6.17,6.7-9.96c6.13-18.4,7.45-42.06,8.08-52.3c1.28-20.57,1.17-82.04,1.12-92.18c8.38-3.98,2.74-12.22-0.08-12.68
			c-0.15-18-0.48-35.99-1.38-53.94c9.09-0.93,27.13-3.77,27.13-3.77c-0.68,1.05-2.95,5.24-3.33,6.05c-2.89,6.27-4.87,15.8,3.44,18.6
			c-3.48,39.22-6.6,72.92-7.99,95.26c-1.33,21.48-2.54,43.08-1.83,64.6c0.29,8.62,0.98,17.23,3.64,25.5
			c1.35,4.21,3.73,9.92,8.41,11.5c2.37,0.8,4.62,0.29,6.6-0.85c-1.26,5.05-5.02,9.34-10.68,8.31c-0.99-0.18-2.08,0.43-2.05,1.53
			c0.14,3.75,0.24,7.69,2.15,11.04c0.75,1.31,3.68,3.09,3.86,3.14C341.22,484.26,316.35,486.6,307.06,486.84z M350.32,495.09
			c0.49-0.86,1.71-5.02,1.75-5.1c0.99,1.31,2.21,2.2,3.73,2.83c3.22,1.33,6.67-1.21,8.82-3.26c1.5-1.43,4.02-6.58,8.99-9.51
			c3.31-1.95,6.61-4.23,8.71-7.52c4.08-6.4-3.31-12.1-9.62-13.83c-0.16-0.05,2.46-4.01,3.2-4.23c0.09,0.26,3.11,6.83,10.6,7.3
			c0.22,0.01,2.9,0.04,3.12-1.31c0.34-2.08-0.89-4.62-1.28-5.18c2.33,0.42,12.46,1.91,15.18,2.23c0.35,0.39,6.77,5.65,10.13,7.06
			c-5.2-0.18-10.4,0.65-14.97,3.15c-3.65,2-6.33,5.32-7.99,9.03c-2.32,5.14-1.97,10.31-0.54,15.59
			C377.86,494.19,362.75,495.08,350.32,495.09z M395.66,491.44c6.38-8.35,13.79-13.33,26.02-11.53c1.66,0.24,10.87,2.78,13.39,3.45
			C433.34,483.74,406.95,489.26,395.66,491.44z M503.95,498.69c-5.35-1.26-10.57-2.99-15.81-4.65c-6.87-2.18-13.85-3.81-20.97-5
			c-9.26-1.55-18.6-2.38-27.93-3.36c1.07-0.24,2.11-0.47,3.18-0.7c1.23,0.2,2.48,0.35,3.74,0.44c5.36,0.38,10.78-0.63,14.65-3.81
			c3.85-0.53,7.71-0.91,11.58-1.07c6-0.25,18.02-0.12,18.02-0.12C494.36,486.88,499.18,492.78,503.95,498.69z M511.23,477.31
			c-5.68,0.31-42.4-0.63-47.33,0.71c4.57-7.01-0.09-15.32-0.33-15.63c0.75,0.05,22.41,0.74,32.89,3.53
			C496.53,466.05,506.26,473.85,511.23,477.31z M506.14,464.37c-12.74-2.45-25.63-3.9-38.57-4.86c-2.46-0.19-7.4-0.55-7.4-0.55
			c-1.58-1.24-3.36-2.29-5.12-3.24c5.2-3.87,10.48-8.06,13.58-13.74c2.24-4.1,3.33-8.85,3.4-13.55c9.88,1.15,19.82,1.82,29.77,2.26
			c5.91,17.62,22.92,26.85,35.94,39.17C527.14,468.62,516.59,466.38,506.14,464.37z"/>
		<path d="M282.18,215.66c-11.85-2.7-23.73-6.56-35.98-6.69c-2.09-0.02-2.09,3.15,0,3.18c6.82,0.07,13.53,1.35,20.19,2.92
			c-5.24-0.28-32.69-1.87-49.5,2.73c-1.1,0.09-2.08,1.62-1.14,2.79c7.78,9.68,20,16.12,32.41,17.63
			c12.38,1.51,23.09-3.69,30.79-12.27c-1.39,3.46-3.1,6.77-5.51,9.72c-1.29,1.58,0.98,3.84,2.29,2.24
			c4.76-5.83,7.16-12.72,9.32-19.78C285.6,216.31,282.54,215.66,282.18,215.66z M247.23,234.91c-10.31-1.43-20.4-6.88-27.41-14.51
			c10.18-1.9,20.45-2.76,30.82-2.76c9.93,0,19.82,0.99,29.74,1.16C272.96,230.02,261.37,236.87,247.23,234.91z"/>
		<path d="M326.47,236.79c12.35-1.29,24.72-8.07,32.41-17.63c0.94-1.17,0.47-2.47-1.56-2.93c-12.95-2.93-21.36-3.12-32.2-3.18
			c-8.15-0.05-16.27,0.6-24.41,0.96c9.91-3.22,20.33-4.98,30.7-5.78c2.07-0.16,2.08-3.34,0-3.17c-13.87,1.07-27.69,3.8-40.49,9.26
			c-0.99,0.44-1.29,1.21-0.96,2.33c0.01,0.01,6.52,16.26,12.81,22.43c1.48,1.45,3.77-0.8,2.29-2.24c-3.31-3.24-6.01-6.94-8.12-10.94
			C304.55,233.63,314.67,238.02,326.47,236.79z M354.79,218.99c-7.06,7.68-17.04,12.89-27.41,14.51c-14.05,2.19-25.78-5-33.15-16.1
			c9.54-0.16,19.04-1.05,28.58-1.16C333.56,216.12,344.25,217.02,354.79,218.99z"/>
		<path d="M217.75,295.77c-8.54,0-9.03,11.7-2.73,15.29c3.44,1.96,7.8-0.29,8.46-3.97C224.11,303.56,221.88,295.77,217.75,295.77z
			 M216.65,308.32c-3.67-1.69-3.87-8.94,0.63-9.33c1.72,1.42,2.75,3.75,3.03,5.91C220.59,307.04,219.25,309.51,216.65,308.32z"/>
		<path d="M307.2,263.03c-0.67-4.24-9.78-8.87-14.18-5.96c-1.92,1.27-0.65,4.06,0.04,5.81c0.76,1.94,1.82,3.77,1.98,5.88
			c0.13,1.67-0.33,3.42-0.52,5.08c-0.33,2.87-0.14,6.48,2.37,8.42c2.24,1.74,5.35,0.49,7.12-1.3c2.09-2.12,2.64-5.71,2.97-8.49
			C307.33,269.46,307.68,266.05,307.2,263.03z M303.96,270.26c-0.16,2.12-0.49,4.21-1.12,6.25c-0.69,2.22-3.71,5.18-4.92,1.66
			c-1.28-3.75,0.9-7.88-0.01-11.76c-0.51-2.17-3.18-6.89-2.57-6.88c1.34,0.01,3.08,0.36,4.34,0.77
			C305.12,262.02,304.26,266.16,303.96,270.26z"/>
		<path d="M296.27,211.97c7.21-5.3-5.37-16.81-12.14-11.62c-4.22,4.7-1.12,8.86,0.49,10.06
			C287.65,212.69,292.85,214.48,296.27,211.97z M285.19,206.48c-1.06-1.53-0.21-2.38,0.8-3.54c3.53-3.2,11.78,3.98,8.29,6.54
			c-1.84,1.35-5,0.02-6.7-0.91C286.65,208.06,285.8,207.35,285.19,206.48z"/>
	</g>
</g>
<image class="sticker-draft" width="600" height="600" xlink:href="sticker-live.webp"></image>
</g>
</svg>
