<?xml version="1.0" encoding="utf-8"?>
<svg xmlns="http://www.w3.org/2000/svg" xmlns:xlink="http://www.w3.org/1999/xlink"
	viewBox="0 0 600 600">
<style type="text/css">
	.st0{fill:#FFFFFF;}
	.st1{fill:#F54560;}
	.st2{fill:#FFBAB6;}
	.st3{fill:#FF8F8F;}
	.st4{fill:#003E76;}
	.st5{fill:#FFEEE0;}
	.st6{fill:#000B1F;}
	.st7{fill:#4A4A4A;}
	.st8{fill:#686868;}

	.shw{fill:#2C191C;transform: scale(103%);transform-origin: 50% 50%;filter:blur(3px);opacity:0.13;}

	.sticker-draft,.sticker{transition:all .5s cubic-bezier(0.75, 0.35, 0.4, 0.99);}
	.sticker{overflow:visible;opacity:1;}
	.sticker-draft{overflow:visible;opacity:0;}

	.main:hover{
		.sticker{opacity:0;}
		.sticker-draft{opacity:1;}
	}
</style>

<g class="main">
<g>
	<g class="shw">
		<path d="M223.04,534.34c-0.33-5.33-0.54-9.69-0.64-12.95c-0.46-12.29-1.19-15.92-1.77-17.73
			c-0.92-2.89-2.48-5.06-4.62-6.4c-1.83-1.15-4.31-1.85-7.84-2.21l-0.03-0.01h-0.03c-2.19-0.19-4.35-0.29-6.43-0.29
			c-2.53,0-3.62,0.12-4.41,0.32c-2.72,0.61-4.96,1.37-6.84,2.32l-0.07,0.03l-0.06,0.04c-2,1.07-3.84,2.65-5.48,4.68
			c-1.58,1.96-2.76,4.07-3.51,6.27c-0.57,1.73-0.86,3.57-0.86,5.51c0,2.67,0.54,5.01,1.59,6.96l0.03,0.06l0.04,0.06
			c1.14,1.98,2.84,3.81,5.2,5.6c0.69,0.52,1.36,0.99,2.03,1.4c-0.29,0.51-0.62,1.1-0.99,1.75c-2.2,3.87-3.99,6.84-5.33,8.8
			c-1.55,2.22-2.27,4.1-2.27,5.92c0,1.41,0.44,3.51,2.54,5.45c1.93,1.79,3.91,2.16,5.23,2.16c1.74,0,3.44-0.62,5.05-1.84l0.14-0.11
			l0.13-0.11c0.87-0.76,1.94-2.05,4.35-5.9c1.74-2.76,3.61-5.99,5.56-9.62c0.83-1.53,1.42-2.59,1.85-3.32
			c0.26-0.03,0.58-0.05,0.94-0.07h0.06c0.1-0.01,0.2-0.01,0.29-0.02l0.03,0.61c0.13,3.46,0.19,6.06,0.19,7.72v1.1
			c0,0.19-0.01,0.44-0.02,0.73c-0.02,0.49-0.03,0.81-0.03,0.97c0,0.51,0.01,0.91,0.04,1.27c0.07,0.98,0.36,1.91,0.85,2.75
			c0.27,0.46,0.52,0.81,0.79,1.12c0.06,0.08,0.23,0.26,0.48,0.54l0.14,0.15l0.14,0.13c2.01,1.86,4.09,2.25,5.48,2.25
			c2.12,0,4.11-0.9,5.61-2.53l0.04-0.05l0.04-0.04c1.72-1.97,2.52-4.84,2.52-9.03C223.19,537.52,223.14,536.03,223.04,534.34z
			 M199.53,515.4h-0.03c-1.19-0.18-1.66-0.41-1.74-0.46c-0.17-0.09-0.54-0.34-1.08-0.96c-0.09-0.11-0.17-0.2-0.23-0.29
			c0.04-0.83,0.33-1.4,0.97-1.99l0.05-0.04l0.04-0.04c0.72-0.69,1.19-0.89,1.36-0.94c0.21-0.07,1.09-0.29,3.35-0.29h1.53
			c0.82,0.02,1.48,0.04,2,0.06c0.07,0.52,0.14,1.17,0.23,1.95c0.15,1.35,0.25,2.4,0.31,3.23c-0.56,0.02-1.26,0.03-2.09,0.03
			c-2.53,0-3.92-0.14-4.64-0.25L199.53,515.4z"/>
		<path d="M376.61,503.51c0,1.22-0.34,3.05-1.97,4.89c-1.09,1.26-2.49,2.09-4.03,2.4c-0.51,0.1-1.35,0.22-4.87,0.41
			c-0.89,0.04-1.61,0.09-2.17,0.12c-0.04,1.47-0.06,3.86-0.06,7.73c0,6.47,0.06,11.68,0.19,15.48c0.1,2.19,0.15,3.88,0.15,5.16
			c0,2.46-0.22,3.95-0.76,5.16c-0.53,1.16-1.66,2.75-4.03,3.69c-0.9,0.37-1.9,0.55-2.98,0.55c-2.65,0-4.98-1.18-6.52-3.29
			c-0.87-1.16-1.37-2.61-1.54-4.43c-0.06-0.63-0.16-2.06-0.3-7.2c-0.16-4.84-0.25-10.75-0.25-17.55v-4.39l-3.8,0.12l-2.29,0.07
			l-1.1-1.21c-0.08,0.08-0.16,0.15-0.23,0.22l-0.1,0.09l-0.1,0.09c-1.58,1.31-3.29,1.98-5.08,1.98c-1.36,0-2.82-0.42-4.6-1.33
			l-0.04-0.02l-0.04-0.02c-0.45-0.23-0.67-0.28-0.67-0.28c-0.54,0-1.03,0.01-1.43,0.03l-0.06,0.01h-0.06
			c-1.52,0.05-2.4,0.28-2.87,0.46c-0.67,0.25-1.38,0.7-2.1,1.31c-1,0.87-1.95,2.07-2.79,3.58c-0.89,1.57-1.52,3.16-1.87,4.74
			c-0.09,0.42-0.18,1.18-0.18,2.44c0,2.76,0.37,3.94,0.54,4.33c0.04,0.1,0.31,0.66,1.36,1.7c0.88,0.87,1.76,1.56,2.63,2.04
			c0.07,0.04,0.29,0.14,0.8,0.14h0.84c2.18,0,3.86-0.4,4.86-1.16l0.02-0.01l0.02-0.02c1.86-1.36,3.64-2.03,5.44-2.03
			c1.25,0,2.5,0.35,3.82,1.07l0.05,0.03l0.05,0.02c2.41,1.39,3.8,3.72,3.8,6.41c0,1.92-0.69,5.53-5.34,8.08
			c-3.77,2.13-8.08,3.2-12.82,3.2c-1.79,0-3.36-0.16-4.73-0.49c-1.76-0.41-3.37-1.01-4.76-1.77c-1.3-0.71-2.84-1.82-4.73-3.39
			c-1.37-1.08-2.32-1.97-3-2.78c-0.69-0.83-1.36-1.9-2.06-3.27c-1.13-2.17-1.87-3.95-2.27-5.43c-0.41-1.55-0.61-3.37-0.61-5.57v-0.6
			c0-1.63,0.1-3.11,0.31-4.49c-1.09,2.38-3.02,6.43-6.56,13.61c-0.7,1.39-1.02,2.09-1.16,2.41c-0.22,1.19-0.84,2.54-2.14,4.76
			c-1.7,2.89-2.57,3.89-3.42,4.56c-1.54,1.22-3.31,1.86-5.12,1.86c-1.97,0-3.79-0.74-5.29-2.12c-1.93-1.79-2.34-3.73-2.34-5.04
			c0-0.53,0.04-1,0.1-1.42c0.15-1.17,0.57-2.51,1.33-4.2c0.59-1.32,1.81-3.87,3.74-7.8c0.27-0.53,0.49-0.98,0.66-1.34
			c-0.23-0.3-0.52-0.67-0.88-1.1c-1.64-1.99-3.67-4.67-6.05-7.95c-0.06-0.08-0.12-0.16-0.17-0.24v7.18l-0.05,18.9l-0.01,2.36
			l-1.83,1.5l-0.84,0.69l-0.1,0.08c-1.47,1.13-3.19,1.73-4.99,1.73s-3.52-0.6-4.99-1.73l-0.05-0.04l-0.06-0.04l-0.84-0.69
			l-1.74-1.43l-0.09-2.26l-0.24-6.62c-0.11-2.45-0.16-6.01-0.16-10.9c0-3.2,0.02-5.46,0.05-6.86l0.08-5.57
			c-1.58,0.13-3.66,0.34-6.21,0.63c-0.83,0.1-1.54,0.18-2.13,0.25c-0.14,2.65-0.3,7.53-0.43,16.51c-0.09,8.24-0.26,10.45-0.39,11.46
			c-0.52,3.88-2.75,5.55-4.03,6.2l-0.08,0.04l-0.09,0.04c-1.12,0.52-2.29,0.79-3.48,0.79c-1.99,0-3.87-0.69-5.41-1.97l-0.89-0.74
			l-1.86-1.53l0.05-2.41l0.19-11.74c0.36-22.82,1.22-24.91,1.92-26.33c0.75-1.61,1.95-2.95,3.49-3.88c1.5-0.9,3.12-1.36,4.84-1.36
			c0.16,0,1.2-0.03,5.28-0.6c2.42-0.31,5.27-0.6,8.47-0.85h0.07l0.06-0.01c3.32-0.17,4.34-0.19,4.81-0.19c2.78,0,6.41,0.28,8.91,2.3
			c1.5-1.2,3.09-1.79,4.69-1.79c1.58,0,3.13,0.5,4.61,1.51c1.18,0.81,2.18,1.85,2.99,3.12c1.17,1.86,2.84,4.29,4.97,7.22
			c0.45-1.1,0.96-2.23,1.53-3.4c1.28-2.62,2.21-4.07,3.23-5.01l0.08-0.08l0.08-0.07c1.69-1.43,3.47-2.15,5.31-2.15
			c1.32,0,3.31,0.38,5.28,2.21c1.61,1.49,2.49,3.42,2.49,5.45c0,0.43-0.04,0.89-0.14,1.38c3.71-5.62,8.92-9.29,15.57-10.96
			c1.77-0.43,3.43-0.65,4.94-0.65c0.16,0,0.44,0.01,0.84,0.04c0.11,0,0.2,0.01,0.25,0.01h0.21c3.98,0.17,7.3,1.3,9.87,3.37
			c0.16-0.17,0.33-0.35,0.52-0.52c1.03-0.96,1.99-1.57,3-1.92c0.89-0.3,1.92-0.43,3.56-0.43c1.05,0,3.53-0.08,9.39-0.51
			c4.98-0.36,8.37-0.55,10.38-0.59l3.56-0.04l2.07-0.03l1.48,1.44l1.01,0.98C376.16,500.05,376.61,502.13,376.61,503.51z"/>
		<path d="M450.11,517.86c0-1.47,0.16-3.08,0.46-4.8c0.51-2.98,0.58-4.14,0.58-4.83c0-0.83-0.11-1.66-0.32-2.45
			c-0.49-1.79-1.5-3.32-2.93-4.41c-1.12-0.86-2.43-1.39-3.83-1.59c-0.16-1.33-0.77-3.02-2.48-4.62c-1.93-1.78-3.91-2.16-5.23-2.16
			c-1.73,0-3.61,0.65-6.09,2.11l-0.04,0.02l-0.04,0.02c-2.65,1.62-4.36,3.45-5.12,5.47c-1.31-0.96-2.86-1.47-4.49-1.47
			c-0.9,0-1.85,0.17-2.82,0.52l-0.05,0.02l-0.05,0.02c-2.2,0.83-3.31,2.31-3.85,3.4c-0.21,0.42-0.38,0.87-0.52,1.38
			c-2.6-3.37-6.27-5.72-10.95-6.99c-1.71-0.49-3.69-0.74-6.05-0.74c-1.8,0-3.81,0.18-5.98,0.53c-3.06,0.48-5.72,1.51-7.89,3.06
			c-2.01,1.43-4.09,3.63-6.34,6.73c-1.87,2.58-3.1,4.79-3.76,6.76c-0.66,1.94-1.03,4.51-1.15,7.84l-0.01,0.09v0.09
			c0,0.16,0,0.41-0.02,0.73c-0.02,0.51-0.02,0.88-0.02,1.1c0,3.3,0.34,5.98,1.05,8.21c0.72,2.29,1.98,4.57,3.74,6.78
			c1.69,2.15,3.61,3.77,5.71,4.82c1.94,0.98,4.41,1.65,7.54,2.07c2.3,0.34,3.97,0.5,5.26,0.5s2.66-0.18,4.18-0.55
			c5.65-1.32,10.15-4.27,13.41-8.76c0.29,3.04,1.13,5.93,3.37,7.73c1.43,1.19,3.24,1.81,5.25,1.81c1.83,0,3.54-0.55,4.93-1.59
			c0.79-0.59,1.73-1.54,3.65-4.19c1.32-1.84,2.6-3.82,3.8-5.88l0.79-1.37l0.34-0.61c0.15-0.26,0.29-0.49,0.4-0.69
			c0.35,8.27,0.38,8.42,0.46,8.85l0.02,0.12l0.03,0.13c0.45,1.92,1.53,3.52,3.14,4.62c1.41,0.97,3.07,1.48,4.79,1.48
			c1.83,0,3.58-0.59,5.04-1.73l0.05-0.04l0.05-0.03c1.7-1.39,2.63-3.32,2.63-5.44v-0.42c0-0.15,0-0.24-0.4-12.54
			C450.15,520.61,450.11,518.51,450.11,517.86z M400.66,524.82c-0.71,1.76-1.61,3.11-2.67,4.01l-0.02,0.02l-0.02,0.02
			c-1,0.88-1.65,1.21-1.95,1.33c-0.45,0.18-1.08,0.28-1.83,0.28c-0.39,0-1.15-0.04-2.54-0.2c-1.27-0.15-1.95-0.29-2.26-0.37
			c-0.19-0.18-0.54-0.53-1.09-1.2c-0.77-0.93-0.91-1.39-0.92-1.4c-0.01-0.07-0.21-0.99-0.21-4.31c0-3.31,0.24-4.29,0.27-4.39
			c0.01-0.03,0.2-0.73,1.44-2.37c1.51-2,2.56-2.98,3.21-3.46c0.17-0.07,1.18-0.46,3.93-0.46h0.56c1.54,0.08,2.25,0.34,2.48,0.45
			l0.05,0.02l0.05,0.02c0.56,0.25,1.89,0.83,2.48,3.89c0.14,0.7,0.21,1.44,0.21,2.22C401.83,520.95,401.45,522.88,400.66,524.82z
			 M429.75,511.75c-0.34,0.45-0.7,0.91-1.07,1.4c0.01-0.81,0.01-1.6,0.01-2.4v-0.93c0.62,0.34,1.29,0.59,1.99,0.73
			C430.39,510.93,430.08,511.33,429.75,511.75z"/>
	<path d="M449.94,115.36c-2.91-1.43-5.81-2.9-8.89-3.93c2.18-10.67,1.13-21.97-4.55-31.5
		c-6.81-11.39-18.86-18.76-31.74-21.21c-5.79-1.11-11.64-1.55-17.5-1.24c-9.84-8.86-16.53-10.19-19.64-9.35
		c-5.59,1.53-9.21,7.06-8.62,12.54c-0.56,0.8-8.39,13.75-8.67,14.21c-2.03,0.81-25.68,13.62-30.8,17.39
		c-6.65,2.76-25.31,8.05-46.83,2.83c-19.83-4.81-32.58-33.31-34.68-34.92c-0.54-5.95-5.44-11.28-11.73-11.08
		c-3.52,0.11-12.42,9.27-13.45,10.12c-12.82-3.08-58-12.9-57.95,36.55c0,4.57,0.52,9.16,0.59,13.74c-1.55-1.11-3.16-2.31-5.1-2.1
		c-21.29,2.26-16.92,33.87-13.91,38.39c1,1.5,2.13,2.83,3.37,4c-6.56,14.12-7.38,32.31,6.18,41.64c3.16,2.17,7.35,3.49,11.52,3.81
		c4.22,5.39,9.79,9.59,16.27,11.43c-2.06,4.65-3.16,9.8-3.39,14.7c-0.36,7.52,1.79,15.13,5.36,21.71
		c7.8,14.4,23.25,24.02,39.46,25.37c6.45,0.54,13.44-0.54,19.57-3.19c8.73,4.51,17.92,8.18,27.36,10.9
		c0.03,0.65,0.17,5.15,0.21,6.76c-36.39,22.24-74.47,48.65-86.98,91.63c-6.51,22.37-5.44,47.42,3.2,69.09
		c4.57,11.44,10.63,22.29,19.38,31.1c8.61,8.67,20.08,13.81,32.29,15.75c7.65,1.21,38.01,2.66,45.45,1.5
		c6.72-1.05,39.34-2.12,40.44-2.21c5.42-0.41,59.28-0.72,62.56-0.68c3.96,0.05,51.04-1.4,56.29-1.25c5.15,0.15,9.68-3.2,11.39-8.11
		c3.95-11.36-12.96-79.74-16.68-90.02c-7.6-21-17.76-41.11-31.33-58.9c-14.88-19.5-32.99-35.72-52.43-50.48
		c0.39-2.32,0.71-4.66,0.89-7c9.17-3.26,18.02-7.47,26.3-12.56c11.84,1.36,23.89-0.21,34.51-5.98
		c13.16-7.15,21.48-20.48,21.75-35.48c0.09-5-0.63-10.61-2.18-15.79c5.89-0.86,24.12-13.96,25.41-18.33
		c0.56-1.87,0.58-3.84,0.17-5.71c0.85-0.41,1.67-0.8,2.65-1.95c6.73-7.92,8.41-15.79,9.63-19.91
		C467.42,149.74,466.79,123.66,449.94,115.36z"/>
	</g>
	<g class="st0">
		<path d="M223.04,534.34c-0.33-5.33-0.54-9.69-0.64-12.95c-0.46-12.29-1.19-15.92-1.77-17.73
			c-0.92-2.89-2.48-5.06-4.62-6.4c-1.83-1.15-4.31-1.85-7.84-2.21l-0.03-0.01h-0.03c-2.19-0.19-4.35-0.29-6.43-0.29
			c-2.53,0-3.62,0.12-4.41,0.32c-2.72,0.61-4.96,1.37-6.84,2.32l-0.07,0.03l-0.06,0.04c-2,1.07-3.84,2.65-5.48,4.68
			c-1.58,1.96-2.76,4.07-3.51,6.27c-0.57,1.73-0.86,3.57-0.86,5.51c0,2.67,0.54,5.01,1.59,6.96l0.03,0.06l0.04,0.06
			c1.14,1.98,2.84,3.81,5.2,5.6c0.69,0.52,1.36,0.99,2.03,1.4c-0.29,0.51-0.62,1.1-0.99,1.75c-2.2,3.87-3.99,6.84-5.33,8.8
			c-1.55,2.22-2.27,4.1-2.27,5.92c0,1.41,0.44,3.51,2.54,5.45c1.93,1.79,3.91,2.16,5.23,2.16c1.74,0,3.44-0.62,5.05-1.84l0.14-0.11
			l0.13-0.11c0.87-0.76,1.94-2.05,4.35-5.9c1.74-2.76,3.61-5.99,5.56-9.62c0.83-1.53,1.42-2.59,1.85-3.32
			c0.26-0.03,0.58-0.05,0.94-0.07h0.06c0.1-0.01,0.2-0.01,0.29-0.02l0.03,0.61c0.13,3.46,0.19,6.06,0.19,7.72v1.1
			c0,0.19-0.01,0.44-0.02,0.73c-0.02,0.49-0.03,0.81-0.03,0.97c0,0.51,0.01,0.91,0.04,1.27c0.07,0.98,0.36,1.91,0.85,2.75
			c0.27,0.46,0.52,0.81,0.79,1.12c0.06,0.08,0.23,0.26,0.48,0.54l0.14,0.15l0.14,0.13c2.01,1.86,4.09,2.25,5.48,2.25
			c2.12,0,4.11-0.9,5.61-2.53l0.04-0.05l0.04-0.04c1.72-1.97,2.52-4.84,2.52-9.03C223.19,537.52,223.14,536.03,223.04,534.34z
			 M199.53,515.4h-0.03c-1.19-0.18-1.66-0.41-1.74-0.46c-0.17-0.09-0.54-0.34-1.08-0.96c-0.09-0.11-0.17-0.2-0.23-0.29
			c0.04-0.83,0.33-1.4,0.97-1.99l0.05-0.04l0.04-0.04c0.72-0.69,1.19-0.89,1.36-0.94c0.21-0.07,1.09-0.29,3.35-0.29h1.53
			c0.82,0.02,1.48,0.04,2,0.06c0.07,0.52,0.14,1.17,0.23,1.95c0.15,1.35,0.25,2.4,0.31,3.23c-0.56,0.02-1.26,0.03-2.09,0.03
			c-2.53,0-3.92-0.14-4.64-0.25L199.53,515.4z"/>
		<path d="M376.61,503.51c0,1.22-0.34,3.05-1.97,4.89c-1.09,1.26-2.49,2.09-4.03,2.4c-0.51,0.1-1.35,0.22-4.87,0.41
			c-0.89,0.04-1.61,0.09-2.17,0.12c-0.04,1.47-0.06,3.86-0.06,7.73c0,6.47,0.06,11.68,0.19,15.48c0.1,2.19,0.15,3.88,0.15,5.16
			c0,2.46-0.22,3.95-0.76,5.16c-0.53,1.16-1.66,2.75-4.03,3.69c-0.9,0.37-1.9,0.55-2.98,0.55c-2.65,0-4.98-1.18-6.52-3.29
			c-0.87-1.16-1.37-2.61-1.54-4.43c-0.06-0.63-0.16-2.06-0.3-7.2c-0.16-4.84-0.25-10.75-0.25-17.55v-4.39l-3.8,0.12l-2.29,0.07
			l-1.1-1.21c-0.08,0.08-0.16,0.15-0.23,0.22l-0.1,0.09l-0.1,0.09c-1.58,1.31-3.29,1.98-5.08,1.98c-1.36,0-2.82-0.42-4.6-1.33
			l-0.04-0.02l-0.04-0.02c-0.45-0.23-0.67-0.28-0.67-0.28c-0.54,0-1.03,0.01-1.43,0.03l-0.06,0.01h-0.06
			c-1.52,0.05-2.4,0.28-2.87,0.46c-0.67,0.25-1.38,0.7-2.1,1.31c-1,0.87-1.95,2.07-2.79,3.58c-0.89,1.57-1.52,3.16-1.87,4.74
			c-0.09,0.42-0.18,1.18-0.18,2.44c0,2.76,0.37,3.94,0.54,4.33c0.04,0.1,0.31,0.66,1.36,1.7c0.88,0.87,1.76,1.56,2.63,2.04
			c0.07,0.04,0.29,0.14,0.8,0.14h0.84c2.18,0,3.86-0.4,4.86-1.16l0.02-0.01l0.02-0.02c1.86-1.36,3.64-2.03,5.44-2.03
			c1.25,0,2.5,0.35,3.82,1.07l0.05,0.03l0.05,0.02c2.41,1.39,3.8,3.72,3.8,6.41c0,1.92-0.69,5.53-5.34,8.08
			c-3.77,2.13-8.08,3.2-12.82,3.2c-1.79,0-3.36-0.16-4.73-0.49c-1.76-0.41-3.37-1.01-4.76-1.77c-1.3-0.71-2.84-1.82-4.73-3.39
			c-1.37-1.08-2.32-1.97-3-2.78c-0.69-0.83-1.36-1.9-2.06-3.27c-1.13-2.17-1.87-3.95-2.27-5.43c-0.41-1.55-0.61-3.37-0.61-5.57v-0.6
			c0-1.63,0.1-3.11,0.31-4.49c-1.09,2.38-3.02,6.43-6.56,13.61c-0.7,1.39-1.02,2.09-1.16,2.41c-0.22,1.19-0.84,2.54-2.14,4.76
			c-1.7,2.89-2.57,3.89-3.42,4.56c-1.54,1.22-3.31,1.86-5.12,1.86c-1.97,0-3.79-0.74-5.29-2.12c-1.93-1.79-2.34-3.73-2.34-5.04
			c0-0.53,0.04-1,0.1-1.42c0.15-1.17,0.57-2.51,1.33-4.2c0.59-1.32,1.81-3.87,3.74-7.8c0.27-0.53,0.49-0.98,0.66-1.34
			c-0.23-0.3-0.52-0.67-0.88-1.1c-1.64-1.99-3.67-4.67-6.05-7.95c-0.06-0.08-0.12-0.16-0.17-0.24v7.18l-0.05,18.9l-0.01,2.36
			l-1.83,1.5l-0.84,0.69l-0.1,0.08c-1.47,1.13-3.19,1.73-4.99,1.73s-3.52-0.6-4.99-1.73l-0.05-0.04l-0.06-0.04l-0.84-0.69
			l-1.74-1.43l-0.09-2.26l-0.24-6.62c-0.11-2.45-0.16-6.01-0.16-10.9c0-3.2,0.02-5.46,0.05-6.86l0.08-5.57
			c-1.58,0.13-3.66,0.34-6.21,0.63c-0.83,0.1-1.54,0.18-2.13,0.25c-0.14,2.65-0.3,7.53-0.43,16.51c-0.09,8.24-0.26,10.45-0.39,11.46
			c-0.52,3.88-2.75,5.55-4.03,6.2l-0.08,0.04l-0.09,0.04c-1.12,0.52-2.29,0.79-3.48,0.79c-1.99,0-3.87-0.69-5.41-1.97l-0.89-0.74
			l-1.86-1.53l0.05-2.41l0.19-11.74c0.36-22.82,1.22-24.91,1.92-26.33c0.75-1.61,1.95-2.95,3.49-3.88c1.5-0.9,3.12-1.36,4.84-1.36
			c0.16,0,1.2-0.03,5.28-0.6c2.42-0.31,5.27-0.6,8.47-0.85h0.07l0.06-0.01c3.32-0.17,4.34-0.19,4.81-0.19c2.78,0,6.41,0.28,8.91,2.3
			c1.5-1.2,3.09-1.79,4.69-1.79c1.58,0,3.13,0.5,4.61,1.51c1.18,0.81,2.18,1.85,2.99,3.12c1.17,1.86,2.84,4.29,4.97,7.22
			c0.45-1.1,0.96-2.23,1.53-3.4c1.28-2.62,2.21-4.07,3.23-5.01l0.08-0.08l0.08-0.07c1.69-1.43,3.47-2.15,5.31-2.15
			c1.32,0,3.31,0.38,5.28,2.21c1.61,1.49,2.49,3.42,2.49,5.45c0,0.43-0.04,0.89-0.14,1.38c3.71-5.62,8.92-9.29,15.57-10.96
			c1.77-0.43,3.43-0.65,4.94-0.65c0.16,0,0.44,0.01,0.84,0.04c0.11,0,0.2,0.01,0.25,0.01h0.21c3.98,0.17,7.3,1.3,9.87,3.37
			c0.16-0.17,0.33-0.35,0.52-0.52c1.03-0.96,1.99-1.57,3-1.92c0.89-0.3,1.92-0.43,3.56-0.43c1.05,0,3.53-0.08,9.39-0.51
			c4.98-0.36,8.37-0.55,10.38-0.59l3.56-0.04l2.07-0.03l1.48,1.44l1.01,0.98C376.16,500.05,376.61,502.13,376.61,503.51z"/>
		<path d="M450.11,517.86c0-1.47,0.16-3.08,0.46-4.8c0.51-2.98,0.58-4.14,0.58-4.83c0-0.83-0.11-1.66-0.32-2.45
			c-0.49-1.79-1.5-3.32-2.93-4.41c-1.12-0.86-2.43-1.39-3.83-1.59c-0.16-1.33-0.77-3.02-2.48-4.62c-1.93-1.78-3.91-2.16-5.23-2.16
			c-1.73,0-3.61,0.65-6.09,2.11l-0.04,0.02l-0.04,0.02c-2.65,1.62-4.36,3.45-5.12,5.47c-1.31-0.96-2.86-1.47-4.49-1.47
			c-0.9,0-1.85,0.17-2.82,0.52l-0.05,0.02l-0.05,0.02c-2.2,0.83-3.31,2.31-3.85,3.4c-0.21,0.42-0.38,0.87-0.52,1.38
			c-2.6-3.37-6.27-5.72-10.95-6.99c-1.71-0.49-3.69-0.74-6.05-0.74c-1.8,0-3.81,0.18-5.98,0.53c-3.06,0.48-5.72,1.51-7.89,3.06
			c-2.01,1.43-4.09,3.63-6.34,6.73c-1.87,2.58-3.1,4.79-3.76,6.76c-0.66,1.94-1.03,4.51-1.15,7.84l-0.01,0.09v0.09
			c0,0.16,0,0.41-0.02,0.73c-0.02,0.51-0.02,0.88-0.02,1.1c0,3.3,0.34,5.98,1.05,8.21c0.72,2.29,1.98,4.57,3.74,6.78
			c1.69,2.15,3.61,3.77,5.71,4.82c1.94,0.98,4.41,1.65,7.54,2.07c2.3,0.34,3.97,0.5,5.26,0.5s2.66-0.18,4.18-0.55
			c5.65-1.32,10.15-4.27,13.41-8.76c0.29,3.04,1.13,5.93,3.37,7.73c1.43,1.19,3.24,1.81,5.25,1.81c1.83,0,3.54-0.55,4.93-1.59
			c0.79-0.59,1.73-1.54,3.65-4.19c1.32-1.84,2.6-3.82,3.8-5.88l0.79-1.37l0.34-0.61c0.15-0.26,0.29-0.49,0.4-0.69
			c0.35,8.27,0.38,8.42,0.46,8.85l0.02,0.12l0.03,0.13c0.45,1.92,1.53,3.52,3.14,4.62c1.41,0.97,3.07,1.48,4.79,1.48
			c1.83,0,3.58-0.59,5.04-1.73l0.05-0.04l0.05-0.03c1.7-1.39,2.63-3.32,2.63-5.44v-0.42c0-0.15,0-0.24-0.4-12.54
			C450.15,520.61,450.11,518.51,450.11,517.86z M400.66,524.82c-0.71,1.76-1.61,3.11-2.67,4.01l-0.02,0.02l-0.02,0.02
			c-1,0.88-1.65,1.21-1.95,1.33c-0.45,0.18-1.08,0.28-1.83,0.28c-0.39,0-1.15-0.04-2.54-0.2c-1.27-0.15-1.95-0.29-2.26-0.37
			c-0.19-0.18-0.54-0.53-1.09-1.2c-0.77-0.93-0.91-1.39-0.92-1.4c-0.01-0.07-0.21-0.99-0.21-4.31c0-3.31,0.24-4.29,0.27-4.39
			c0.01-0.03,0.2-0.73,1.44-2.37c1.51-2,2.56-2.98,3.21-3.46c0.17-0.07,1.18-0.46,3.93-0.46h0.56c1.54,0.08,2.25,0.34,2.48,0.45
			l0.05,0.02l0.05,0.02c0.56,0.25,1.89,0.83,2.48,3.89c0.14,0.7,0.21,1.44,0.21,2.22C401.83,520.95,401.45,522.88,400.66,524.82z
			 M429.75,511.75c-0.34,0.45-0.7,0.91-1.07,1.4c0.01-0.81,0.01-1.6,0.01-2.4v-0.93c0.62,0.34,1.29,0.59,1.99,0.73
			C430.39,510.93,430.08,511.33,429.75,511.75z"/>
	<path d="M449.94,115.36c-2.91-1.43-5.81-2.9-8.89-3.93c2.18-10.67,1.13-21.97-4.55-31.5
		c-6.81-11.39-18.86-18.76-31.74-21.21c-5.79-1.11-11.64-1.55-17.5-1.24c-9.84-8.86-16.53-10.19-19.64-9.35
		c-5.59,1.53-9.21,7.06-8.62,12.54c-0.56,0.8-8.39,13.75-8.67,14.21c-2.03,0.81-25.68,13.62-30.8,17.39
		c-6.65,2.76-25.31,8.05-46.83,2.83c-19.83-4.81-32.58-33.31-34.68-34.92c-0.54-5.95-5.44-11.28-11.73-11.08
		c-3.52,0.11-12.42,9.27-13.45,10.12c-12.82-3.08-58-12.9-57.95,36.55c0,4.57,0.52,9.16,0.59,13.74c-1.55-1.11-3.16-2.31-5.1-2.1
		c-21.29,2.26-16.92,33.87-13.91,38.39c1,1.5,2.13,2.83,3.37,4c-6.56,14.12-7.38,32.31,6.18,41.64c3.16,2.17,7.35,3.49,11.52,3.81
		c4.22,5.39,9.79,9.59,16.27,11.43c-2.06,4.65-3.16,9.8-3.39,14.7c-0.36,7.52,1.79,15.13,5.36,21.71
		c7.8,14.4,23.25,24.02,39.46,25.37c6.45,0.54,13.44-0.54,19.57-3.19c8.73,4.51,17.92,8.18,27.36,10.9
		c0.03,0.65,0.17,5.15,0.21,6.76c-36.39,22.24-74.47,48.65-86.98,91.63c-6.51,22.37-5.44,47.42,3.2,69.09
		c4.57,11.44,10.63,22.29,19.38,31.1c8.61,8.67,20.08,13.81,32.29,15.75c7.65,1.21,38.01,2.66,45.45,1.5
		c6.72-1.05,39.34-2.12,40.44-2.21c5.42-0.41,59.28-0.72,62.56-0.68c3.96,0.05,51.04-1.4,56.29-1.25c5.15,0.15,9.68-3.2,11.39-8.11
		c3.95-11.36-12.96-79.74-16.68-90.02c-7.6-21-17.76-41.11-31.33-58.9c-14.88-19.5-32.99-35.72-52.43-50.48
		c0.39-2.32,0.71-4.66,0.89-7c9.17-3.26,18.02-7.47,26.3-12.56c11.84,1.36,23.89-0.21,34.51-5.98
		c13.16-7.15,21.48-20.48,21.75-35.48c0.09-5-0.63-10.61-2.18-15.79c5.89-0.86,24.12-13.96,25.41-18.33
		c0.56-1.87,0.58-3.84,0.17-5.71c0.85-0.41,1.67-0.8,2.65-1.95c6.73-7.92,8.41-15.79,9.63-19.91
		C467.42,149.74,466.79,123.66,449.94,115.36z"/>
	</g>
	<path class="st1" d="M333.99,286.71c0.33,4.62,89.42,40.03,101.36,191.19c0,0-25.4,1.05-57.98,2.29
		c-53.31,2.03-124.03,6.79-144.3,1.39c-50.21-17.14-59.02-78.88-40.99-116.35c16.57-34.43,58.44-63.82,82.37-75.19L333.99,286.71z"/>
	<path class="st2" d="M273.75,267.46l0,21.57l-10.25,6.88c6.77,40.94,62.15,48,82.7,0.31l-12.82-11l1.66-20.13
		c39.89-11.14,65.67-37.55,83.09-73.04l-18.98-84.29l-226.37,23.07l10.93,65.5C198.22,231.35,230.05,253.74,273.75,267.46z"/>
	<path class="st3" d="M364.26,112.12l72.39,35.05l-18.52,44.86c-5.79,2.31-12.85,0.29-12.03-11.12
		c-15.85,16.26-38.8,2.74-36.77-21.49c32.8,5.9,27.99-15.54,15.15-23.57c-8.26-5.16-22.79-4.26-13.42,12.6
		c-1.43,11.88-26.03,15.44-33.71,3.89L364.26,112.12z"/>
	<path class="st4" d="M440.57,182.23c-22.04-5.48-6.39-31.96,6.13-13.3c15.26-24.02,13.58-42.37-20.74-49.79
		c15-32.32-9.99-52.48-43.18-49.34l-7.16-5.76c-18.36,22.68-29.3,53.06-36.88,86.93c10.72,4.06,20.86,3.94,30.12-2.72
		c-11.8-18.93,16.66-33.64,24.85-13.7c7.36,17.93,1.37,32.67-23.16,24.87c7.14,20.47,18.22,29.3,35.48,19.79
		C416.48,194.53,427.84,197.56,440.57,182.23z"/>
	<path class="st3" d="M208.01,171"/>
	<path class="st3" d="M183.47,198.85c7.08,1.5,22.9-3.71,21.93-18.21c-18.95,1.5-12.93-9.37-9.14-14.71
		c3.79-5.35,12.49-5.12,14.35,5.75c11.75,14.78,37.13-4.9,35.72-20.88c0,0,5.89,9.46,14.88,6.43l-8.63-36.97l-84.23,37.29
		L183.47,198.85z"/>
	<path class="st3" d="M341.37,187.51c0.51-2.05,59.93,30.57,58.47,32.13C381.06,239.64,332.3,224.25,341.37,187.51z"/>
	<path class="st3" d="M262.44,190.86c-0.59-2.03-62.24,25.67-60.92,27.34C224.7,247.59,271.13,220.52,262.44,190.86z"/>
	<path class="st4" d="M221.7,66.86l-6,5.61c0,0-19.43-8.56-37.17-0.63c-22.42,11.06-3.16,47.25-17.22,53.71
		c-9.26,3.53-13.3-5.8-13.3-5.8s-13.55,22.79,9.39,24.52c-22.43,32.05-4.97,41.15,5.87,39.04c13.78,19.47,26.92,14.58,39.79-1.34
		c-37.49,1.34,5.73-49.91,7.43-12.5c16.24,5.15,26.87-4.6,33.46-25.07c4.38,4.3,9.69,6.5,16.34,5.61l2.19-8.09
		C253.51,110.37,239.74,85.6,221.7,66.86z"/>
	<path class="st5" d="M197.96,206.95c10.47,39.91,71.9,8.53,63.42-28.55C253.23,173.79,214.39,191.1,197.96,206.95z"/>
	<path class="st5" d="M404.42,206.21c-7.8,39.15-72.79,7.7-61.48-31.35C350.48,170.86,387.98,190.36,404.42,206.21z"/>
	<path class="st0" d="M245.76,98.28c32.6,16.6,79.44-0.35,115.93-14.87c-9.86,23.19-16.67,44.99-26.22,69.04
		c-12.64,47.56-18.72,181.78-26.05,228.33l-4.11-0.18c-4.56-60.27-17.67-118.74-23.91-162.66
		C273.95,165.49,258.43,133.76,245.76,98.28z"/>
	<path class="st6" d="M216.21,195.8c5.64,19.34,30,11.35,35.82-2.9c1.24-3.28,2.09-10.71,1.68-14.19
		C239.68,182.55,227.35,188.46,216.21,195.8z"/>
	<path class="st6" d="M387.11,194.63c-6.15,19.18-30.29,10.55-35.73-3.86c-1.15-3.31-1.8-10.76-1.3-14.23
		C365.52,179.82,378.05,185.68,387.11,194.63z"/>
	<g>
		
			<rect x="305.37" y="342.49" transform="matrix(0.1081 -0.9941 0.9941 0.1081 -66.0265 619.8499)" class="st7" width="14.17" height="8.47"/>
		
			<rect x="307.68" y="322.5" transform="matrix(0.1082 -0.9941 0.9941 0.1082 -44.1126 604.3007)" class="st7" width="14.17" height="8.47"/>
		
			<rect x="309.56" y="302.48" transform="matrix(0.1083 -0.9941 0.9941 0.1083 -22.5631 588.272)" class="st7" width="14.17" height="8.47"/>
		
			<rect x="311.77" y="281.54" transform="matrix(0.1083 -0.9941 0.9941 0.1083 0.2429 571.819)" class="st7" width="14.17" height="8.47"/>
		
			<rect x="314.31" y="261.54" transform="matrix(0.108 -0.9941 0.9941 0.108 22.4633 556.5726)" class="st7" width="14.17" height="8.47"/>
		
			<rect x="316.59" y="240.75" transform="matrix(0.1082 -0.9941 0.9941 0.1082 45.094 540.2307)" class="st7" width="14.17" height="8.47"/>
		
			<rect x="319.13" y="220.74" transform="matrix(0.1081 -0.9941 0.9941 0.1081 67.3037 524.9633)" class="st7" width="14.17" height="8.47"/>
		
			<rect x="321.26" y="201.7" transform="matrix(0.1619 -0.9868 0.9868 0.1619 71.9838 496.6205)" class="st7" width="14.17" height="8.47"/>
		
			<rect x="324.66" y="181.07" transform="matrix(0.1617 -0.9868 0.9868 0.1617 95.2444 482.7201)" class="st7" width="14.17" height="8.47"/>
		
			<rect x="328.28" y="161.23" transform="matrix(0.2487 -0.9686 0.9686 0.2487 91.6974 449.1389)" class="st7" width="14.17" height="8.47"/>
		
			<rect x="363.13" y="68" transform="matrix(0.5889 -0.8082 0.8082 0.5889 93.8265 328.914)" class="st7" width="14.17" height="8.47"/>
		
			<rect x="333.82" y="140.23" transform="matrix(0.2834 -0.959 0.959 0.2834 105.7539 430.4513)" class="st7" width="14.17" height="8.47"/>
		
			<rect x="339.89" y="120.99" transform="matrix(0.3064 -0.9519 0.9519 0.3064 121.4689 417.151)" class="st7" width="14.17" height="8.47"/>
		
			<rect x="345.75" y="102.5" transform="matrix(0.3062 -0.952 0.952 0.3062 143.2081 409.9476)" class="st7" width="14.17" height="8.47"/>
		
			<rect x="353.82" y="84.98" transform="matrix(0.4161 -0.9093 0.9093 0.4161 129.6033 380.2661)" class="st7" width="14.17" height="8.47"/>
		<polygon class="st7" points="306.79,362.11 298.42,363.36 300.52,377.37 308.89,376.12 308.61,374.25 314.01,374.25 
			315.55,360.16 307.13,359.25 		"/>
		
			<rect x="296.74" y="342.72" transform="matrix(0.989 -0.148 0.148 0.989 -48.4541 48.3929)" class="st7" width="8.47" height="14.17"/>
		
			<rect x="294.29" y="322.86" transform="matrix(0.989 -0.1481 0.1481 0.989 -45.5602 47.8347)" class="st7" width="8.47" height="14.17"/>
		
			<rect x="291.61" y="302.93" transform="matrix(0.989 -0.148 0.148 0.989 -42.6239 47.199)" class="st7" width="8.47" height="14.17"/>
		
			<rect x="287.9" y="282.08" transform="matrix(0.989 -0.148 0.148 0.989 -39.5682 46.4051)" class="st7" width="8.47" height="14.17"/>
		
			<rect x="284.56" y="262.19" transform="matrix(0.989 -0.1479 0.1479 0.989 -36.6544 45.6802)" class="st7" width="8.47" height="14.17"/>
		
			<rect x="281.45" y="241.51" transform="matrix(0.989 -0.148 0.148 0.989 -33.6453 45.0179)" class="st7" width="8.47" height="14.17"/>
		
			<rect x="278.11" y="221.62" transform="matrix(0.989 -0.148 0.148 0.989 -30.7366 44.3007)" class="st7" width="8.47" height="14.17"/>
		
			<rect x="275.21" y="202.68" transform="matrix(0.9795 -0.2012 0.2012 0.9795 -36.4968 60.5273)" class="st7" width="8.47" height="14.17"/>
		
			<rect x="270.99" y="182.2" transform="matrix(0.9795 -0.2014 0.2014 0.9795 -32.4847 59.3138)" class="st7" width="8.47" height="14.17"/>
		
			<rect x="266.58" y="162.52" transform="matrix(0.9578 -0.2874 0.2874 0.9578 -37.3244 85.0028)" class="st7" width="8.47" height="14.17"/>
		
			<rect x="228.02" y="70.77" transform="matrix(0.7839 -0.6209 0.6209 0.7839 1.8551 161.0317)" class="st7" width="8.47" height="14.17"/>
		
			<rect x="260.2" y="141.76" transform="matrix(0.9468 -0.3217 0.3217 0.9468 -33.8282 92.982)" class="st7" width="8.47" height="14.17"/>
		
			<rect x="253.37" y="122.79" transform="matrix(0.9389 -0.3443 0.3443 0.9389 -28.9647 96.6289)" class="st7" width="8.47" height="14.17"/>
		
			<rect x="246.77" y="104.54" transform="matrix(0.9389 -0.3441 0.3441 0.9389 -23.0819 93.1745)" class="st7" width="8.47" height="14.17"/>
		
			<rect x="238" y="87.36" transform="matrix(0.8919 -0.4523 0.4523 0.8919 -16.5257 119.7636)" class="st7" width="8.47" height="14.17"/>
		<polygon class="st7" points="312.82,382.55 303.09,382.18 303.69,392.9 312.1,393.23 		"/>
		
			<rect x="301.69" y="462.32" transform="matrix(6.698049e-03 -1 1 6.698049e-03 -159.8363 772.1937)" class="st7" width="14.17" height="8.47"/>
		
			<rect x="304.64" y="445.03" transform="matrix(0.9997 -0.023 0.023 0.9997 -10.3116 7.2201)" class="st7" width="8.47" height="14.17"/>
		<path class="st7" d="M304.86,483.66c2.83-0.23,5.65-0.53,8.47-0.77l0.02-9.06l-8.47-0.06L304.86,483.66z"/>
	</g>
	<path class="st3" d="M187.92,205.97c-15.13,21.14,6.78,63.3,46.3,46.51C213.29,238.99,198.43,223.27,187.92,205.97z"/>
	<path class="st3" d="M413.44,203.04c12.65,19.81-3.42,52.42-40.85,46.05C390.18,234.52,403.28,218.04,413.44,203.04z"/>
	<path class="st8" d="M314.82,393.23l0.89,19.74l-4.31,0.64c0,0,12.8,29.51-3.61,30.66c-20.53-7.57-3.72-31.17-3.72-31.17
		l-3.53-0.58l-0.36-19.29H314.82z M307.52,427.55c-1.68,0-3.04,1.64-3.04,3.67c0,2.03,1.36,3.67,3.04,3.67s3.04-1.64,3.04-3.67
		C310.56,429.19,309.2,427.55,307.52,427.55z"/>
	<path class="st2" d="M361.69,391.27c19.33,3.15,34.05-6.25,45.48-24.66c16.1,30.42,24.85,69.16,28.17,111.29l-57.98,2.29
		L361.69,391.27z"/>
	<path class="st2" d="M190.39,367.51c11.91,16.41,27.35,23.91,46.3,22.5c-5.88,14.9-7.17,28.48,6.39,37.76
		c13.56,7.55,30.72,6.96,49.57,2.54c11.83,4.47,18,16.17-2.87,25.17c-0.01,3.96-1.54,7.34-5.54,9.78c5.79,11,0.12,15.31-9.65,17.22
		c-40.79,3.71-69.2-5.52-80.41-32.74C179.13,419.43,181.28,392.29,190.39,367.51z"/>
	<path class="st3" d="M288.99,454.64l-4.16-5.62l17.47-8.32C306.27,445.09,298.72,454.44,288.99,454.64z"/>
	<g>
		<path d="M455.44,135.7c-4.2-10.96-16.26-15.3-27.04-17.08c3.24-7.78,4.73-15.61,3.12-24.08c-1.25-6.57-4.82-12.5-9.75-16.95
			c-9.98-9.01-24.72-11.23-37.72-9.88c-3.95-3.39-8.16-6.43-12.26-9.62c-1.66-1.29-4.02,1.03-2.34,2.34
			c2.13,1.66,0.69,1.94,0.2,2.61c-2.78,3.82-5.56,7.63-8.34,11.45c-0.57,0.78-0.29,1.54,0.29,1.99c0.09,0.1,0.18,0.19,0.3,0.28
			c0.74,0.54,1.48,1.08,2.21,1.61c-0.44,0.64-0.85,1.29-1.27,1.94c-0.63-0.29-1.26-0.58-1.89-0.86c-0.75-0.34-1.86-0.28-2.26,0.59
			c-0.48,1.05-0.96,2.1-1.44,3.15c-0.26-0.07-23.71,10.98-33.89,18.6c-0.15-0.01-0.3,0-0.46,0.03c-21.34,4.25-45.29,5.23-66.32-1.44
			c-3.1-3.18-6.23-6.34-9.37-9.48c-0.96-1.88-1.91-3.77-2.87-5.65c-0.43-0.84-1.5-0.98-2.26-0.59c-0.25,0.13-0.5,0.25-0.75,0.38
			c-0.61-0.61-1.23-1.22-1.84-1.83c0.59-0.47,1.18-0.93,1.76-1.4c0.76-0.61,0.68-1.42,0.21-2c-0.06-0.12-0.13-0.23-0.21-0.34
			c-2.93-3.7-5.86-7.41-8.8-11.11c-0.6-0.76-1.7-0.51-2.34,0c-0.98,0.78-1.96,1.55-2.94,2.33c-1.1-1.25-2.23-2.49-3.37-3.71
			c1.55-1.62,2.96-3.37,4.05-5.39c1.01-1.88-1.84-3.55-2.86-1.67c-2.27,4.22-6.05,7.18-9.57,10.31c-9.14-2.59-18.64-4.58-28.14-3.09
			c-8.45,1.33-17.3,7.24-20.45,15.44c-3.11,8.09-1.62,17.43-1.42,25.87c0.1,4.12,0.17,8.67-1.58,12.49
			c-0.98,2.14-2.98,3.84-5.38,4.06c-3.49,0.32-9.94-8.22-10.8-7.3c-8.24,8.88-6.7,27.66,6.5,27.86
			c-11.24,12.57-15.48,41.77,8.56,39.49c0.22-0.02,8.25,15.53,19.63,12.62c1.18,2.64,3.92,7.65,3.84,7.78
			c-10.03,14.2-5.87,31.94,6.55,43.02c5.87,5.24,13.47,8.85,21.29,9.85c6.49,0.83,15.04-0.61,20.63-4.14
			c0.1-0.06,0.18-0.13,0.26-0.2c11.64,6.59,24.25,11.49,37.25,14.47c0,0.03-0.01,0.07-0.01,0.1c-0.13,6.64,0.25,13.27,0.34,19.91
			c-31.12,18.82-64.28,39.51-81.26,72.99c-0.84,1.66-2.71,5.64-2.75,5.97c-11.86,28.36-9.04,62.23,7.23,88.41
			c6.87,11.06,16.53,20.75,28.97,24.87c10.24,3.38,27.63,3.75,31.97,3.99c7.91,0.44,16.76,0.64,24.22-2.43
			c7.59-3.13,8.41-9.83,5.12-16.46c3.63-2.31,5.33-5.94,5.02-9.44c4.83-1.06,8.8-4.08,11.99-7.8c0.08,3.33,0.15,6.65,0.23,9.98
			c-0.13,0.23-0.2,0.49-0.21,0.77c-0.03,4.72-0.06,9.44-0.09,14.17c0,0.46,0.15,0.81,0.39,1.07c-0.02,2.46,0.19,7.06,0.17,9.52
			c1.1-0.08,2.21-0.16,3.31-0.26c0.01-2.12-0.19-6.38-0.18-8.5c1.72,0.01,3.44,0.02,5.16,0.03c-0.03,4.09-0.1,8.37-0.1,8.08
			c1.1-0.1,2.21-0.2,3.31-0.28c0-0.35,0.08-4.87,0.11-9.4c0-0.4-0.15-0.78-0.39-1.08c0.03-4.27,0.06-8.55,0.09-12.82
			c0.14-0.23,0.23-0.52,0.22-0.87c-0.11-4.72-0.22-9.44-0.33-14.16c-0.01-0.46-0.21-0.89-0.53-1.2c1.56-1.71,2.67-3.98,3.26-5.93
			c2.24-7.5-2.66-15.1-4.13-22.42c1.29-0.08,2.51-0.33,3.23-1.02c1.81-1.72,1.6-6.72,1.53-8.98c-0.11-3.72-1.08-7.4-1.56-11.08
			c-0.05-0.36-0.12-2.86-1.32-2.82c-0.19,0.01-1.01,0-1.2,0.01c0.2-2.98,0.41-5.96,0.61-8.94c0.06-0.93-0.8-1.62-1.65-1.65
			c-0.22-0.01-0.44-0.02-0.67-0.03c0-1.74,0-3.46,0.1-5.16c0.59,0.06,1.17,0.13,1.76,0.19c0.97,0.1,1.57-0.84,1.65-1.65
			c0.51-4.69,1.02-9.39,1.53-14.08c0.11-0.97-0.84-1.57-1.65-1.65c-0.33-0.04-0.66-0.07-0.99-0.11c0.09-0.88,0.17-1.76,0.25-2.64
			c0.36,0.04,0.72,0.08,1.08,0.12c0.97,0.1,1.57-0.84,1.65-1.65c0.51-4.69,1.02-9.39,1.53-14.08c0.11-0.97-0.84-1.57-1.65-1.65
			c-0.44-0.05-0.88-0.1-1.32-0.14c0.07-0.89,0.13-1.77,0.17-2.66c0.64,0.07,1.28,0.14,1.92,0.21c0.97,0.11,1.57-0.84,1.65-1.65
			c0.21-1.9,0.41-3.8,0.62-5.7c11.18-7.78,22.3-16.87,26.78-30.16c21.7,17.61,41.06,37.86,54.97,62.4c0.86,1.52,1.69,3.06,2.5,4.6
			c-5.31,15.72-25.63,27.72-42,24.52c-1.65-8.02-3.34-16.03-5.14-24.02c-0.47-2.08-3.66-1.2-3.19,0.88
			c4.14,18.43,20.42,104.16,21.27,113.56c0.19,2.11,3.5,2.13,3.31,0c-0.81-9-13.56-77.25-15.53-86.95
			c16.79,2.42,36.23-8.65,43.27-24.09c5.99,11.98,10.79,24.65,14.54,37.44c3.29,11.21,11.12,59.67,12.33,71.63
			c0.21,2.1,3.52,2.12,3.31,0c-0.98-9.75-3.35-26.62-4.81-36.3c-2.43-16.03-7.66-69.62-47.94-112.89
			c-15.1-16.22-31.35-31.32-49.16-44.4c1.07-6.14,2.46-12.27,1.73-18.5c12.07-3.51,23.57-8.85,34.08-15.71
			c14.66,2.77,31.54-0.4,41.62-12.2c9-10.53,8.27-24.93,3.05-36.99c-0.01-0.02-0.02-0.04-0.04-0.06c1.33-2.59,2.56-5.22,3.7-7.9
			c1.03,0.3,2.1,0.51,3.23,0.61c7.99,0.69,15.39-5.17,20.21-10.84c4.12-4.85-6.81-1.01-10.51-7.77c-1.22-2.23-0.95-5.25,0.06-7.52
			c0.9-2.04,2.61-3.9,4.97-3.93c3.58-0.04,5.91,4.36,7.82,6.76c1.5,1.89,3.23,0.2,3.53-0.31
			C454.35,160.21,459.89,147.31,455.44,135.7z M371.44,66.18c1.39,1.02,2.79,2.03,4.18,3.05c-2.14,2.93-4.27,5.86-6.4,8.79
			c-1.39-1.02-2.79-2.03-4.18-3.05C367.17,72.04,369.3,69.11,371.44,66.18z M360.93,83.06c1.57,0.72,3.14,1.44,4.7,2.15
			c-1.51,3.3-3.02,6.59-4.52,9.89c-1.57-0.72-3.14-1.43-4.7-2.15C357.91,89.65,359.42,86.36,360.93,83.06z M352.66,93.32
			c-0.29,0.68-0.15,1.47,0.72,1.87c0.49,0.23,0.99,0.45,1.48,0.68c-0.28,0.63-0.56,1.27-0.83,1.9c-0.84-0.27-1.67-0.54-2.51-0.81
			c-0.89-0.29-1.77,0.33-2.04,1.16c-1.45,4.5-2.89,8.99-4.34,13.49c-0.25,0.79,0.07,1.4,0.6,1.73c0.15,0.12,1.47,0.6,1.93,0.74
			c-0.21,0.61-0.43,1.21-0.64,1.82c-0.46-0.15-0.92-0.3-1.38-0.45c-0.89-0.29-1.77,0.33-2.04,1.16c-0.62,1.94-1.25,3.88-1.87,5.83
			c-3.61-8.43-5.98-18.34-3.02-27.13c5.37-3.21,10.95-6,16.73-8.2C354.57,89.05,352.69,93.19,352.66,93.32z M353.74,112.56
			c-1.64-0.53-3.27-1.05-4.91-1.58c1.11-3.45,2.22-6.89,3.33-10.34c0.64,0.21,4.13,1.33,4.91,1.58
			C355.96,105.66,354.85,109.11,353.74,112.56z M347.87,131.05c-1.64-0.53-3.27-1.05-4.91-1.58c1.11-3.45,2.22-6.89,3.32-10.34
			c1.64,0.53,3.27,1.05,4.91,1.58C350.09,124.16,348.98,127.61,347.87,131.05z M341.95,150.26c-1.65-0.49-3.3-0.97-4.94-1.46
			c1.03-3.47,2.05-6.94,3.08-10.41c1.65,0.49,3.3,0.97,4.94,1.46C344,143.32,342.98,146.79,341.95,150.26z M333.53,190.95
			c-1.7-0.28-3.4-0.56-5.11-0.84c0.59-3.58,1.17-7.15,1.76-10.73c1.7,0.28,3.4,0.56,5.11,0.84
			C334.7,183.8,334.11,187.37,333.53,190.95z M330.13,211.59c-1.7-0.28-3.4-0.56-5.11-0.84c0.59-3.58,1.17-7.16,1.76-10.73
			c1.7,0.28,3.4,0.56,5.11,0.84C331.3,204.43,330.72,208.01,330.13,211.59z M321.14,187.09c0.08-0.1,3.22-4.72,5.44-6.11
			c-0.55,3.35-1.69,10.02-1.68,10.15c-0.11,1.71,1.57,2.01,1.76,2.04c-0.17,1-0.34,2-0.51,3.01
			C324.32,193.24,322.7,190.18,321.14,187.09z M281.33,189.09c-0.56-2.72-1.12-5.44-1.68-8.16c-0.19-0.92-1.2-1.33-2.04-1.16
			c-0.86,0.18-1.73,0.36-2.59,0.53c-0.19-0.92-0.39-1.84-0.58-2.76c1-0.3,2.01-0.6,3.01-0.9c0.32-0.09,0.55-0.26,0.74-0.45
			c0.4-0.36,0.62-0.9,0.42-1.58c-0.12-0.39-0.23-0.77-0.35-1.16c11.29-2.84,22.95-4.77,33.28,2.2c0.18,0.12,2.61,4.76,3.7,6.96
			C303.65,180.09,290.84,181.85,281.33,189.09z M280.99,203.79c0.73,3.55,1.46,7.09,2.19,10.64c-1.69,0.35-3.37,0.69-5.06,1.04
			c-0.73-3.55-1.46-7.09-2.19-10.64C277.62,204.49,279.3,204.14,280.99,203.79z M273.54,201.95c-0.92,0.19-1.33,1.2-1.16,2.04
			c0.95,4.63,1.9,9.25,2.85,13.88c0.19,0.92,1.2,1.33,2.04,1.16c0.66-0.14,1.33-0.27,1.99-0.41c0.11,0.52,0.21,1.04,0.32,1.57
			c-0.94,0.14-1.87,0.28-2.81,0.42c-0.97,0.14-1.28,1.23-1.16,2.04c0.48,3.22,0.96,6.44,1.44,9.66c-8.52,1.06-16.89,2.81-25.12,5.29
			c-2.04,0.61-1.17,3.81,0.88,3.19c8.09-2.44,16.34-4.21,24.73-5.23c0.06,0.37,0.11,0.74,0.17,1.11c0.14,0.97,1.23,1.28,2.04,1.16
			c1.08-0.16,2.16-0.32,3.25-0.49c0.18,0.89,0.36,1.77,0.54,2.66c-1.14,0.17-2.28,0.34-3.42,0.51c-0.97,0.14-1.28,1.23-1.16,2.04
			c0.7,4.67,1.4,9.34,2.1,14.01c0.14,0.97,1.23,1.28,2.04,1.16c1.29-0.19,2.58-0.39,3.86-0.58c0.21,1.13,0.41,2.27,0.62,3.4
			c-1.45,0.22-2.9,0.43-4.35,0.65c-0.97,0.14-1.28,1.23-1.16,2.04c0.2,1.31,0.39,2.61,0.59,3.92c-40.92-6.29-79.32-31.9-96.9-69.93
			c7.86-1.82,14.44-7.98,19.18-14.19c0.55-0.72,1.49-3.69-1.74-3.16c-4.28,0.7-11.29,0.28-13.06-4.76
			c-1.35-3.83,0.69-8.21,2.8-11.35c1.97-2.92,5.37-6.34,9.02-6.54c4.65-0.26,6.08,6.26,6.56,9.92c0.13,0.99,0.13,3.47,2.11,4.56
			c15.64,6.58,31.21-10.25,34.43-24.9c3.44,3.2,7.67,5.33,12.55,5.3c0.81,0,1.31-0.48,1.5-1.07c0.7,2.07,1.41,4.14,2.11,6.22
			c0.28,0.81,1.14,1.46,2.04,1.16c0.82-0.28,1.65-0.56,2.47-0.84c0.39,1.34,0.78,2.68,1.16,4.03c-0.83,0.25-1.66,0.5-2.49,0.75
			c-0.85,0.25-1.42,1.16-1.16,2.04c1.36,4.52,2.71,9.05,4.07,13.57c0.25,0.85,1.16,1.42,2.04,1.16c0.64-0.19,1.28-0.39,1.93-0.58
			c0.17,0.82,0.35,1.65,0.52,2.47c-0.82,0.17-1.64,0.34-2.47,0.51c-0.93,0.19-1.33,1.2-1.16,2.04c0.95,4.63,1.9,9.25,2.85,13.88
			c0.19,0.93,1.2,1.33,2.04,1.16c0.78-0.16,1.57-0.32,2.35-0.48c0.26,1.12,0.49,2.24,0.7,3.37
			C275.25,201.6,274.4,201.78,273.54,201.95z M284.21,222.81c0.54,3.59,1.07,7.17,1.61,10.76c-1.71,0.26-3.42,0.51-5.12,0.77
			c-0.54-3.59-1.07-7.17-1.61-10.76C280.79,223.32,282.5,223.06,284.21,222.81z M287.55,242.7c0.54,3.59,1.07,7.17,1.61,10.76
			c-1.71,0.26-3.42,0.51-5.12,0.77c-0.54-3.59-1.07-7.17-1.61-10.76C284.13,243.21,285.84,242.95,287.55,242.7z M287.14,274.9
			c-0.54-3.59-1.07-7.17-1.61-10.76c1.71-0.26,3.42-0.51,5.12-0.77c0.54,3.59,1.07,7.17,1.61,10.76
			C290.56,274.39,288.85,274.65,287.14,274.9z M257.15,135.73c-1.25-3.4-2.49-6.8-3.74-10.21c1.62-0.59,3.23-1.19,4.85-1.78
			c1.25,3.4,2.49,6.8,3.74,10.21C260.39,134.54,258.77,135.14,257.15,135.73z M250.55,117.48c-1.25-3.4-2.49-6.8-3.74-10.21
			c1.62-0.59,3.23-1.19,4.85-1.78c1.25,3.4,2.49,6.8,3.74,10.21C254.73,115.95,251.14,117.27,250.55,117.48z M242.5,100.32
			c-1.64-3.23-3.28-6.46-4.91-9.69c1.03-0.52,2.06-1.05,3.1-1.57c1.28,1.28,2.56,2.56,3.84,3.84c0.86,1.7,1.72,3.39,2.58,5.09
			C245.56,98.77,244.03,99.55,242.5,100.32z M250.15,100.14c0.4-0.2,0.63-0.49,0.75-0.8c0.43,0.44,0.85,0.88,1.28,1.31
			c-0.1,0.37-0.09,0.77,0.04,1.13c-0.01,0-0.01,0-0.01,0c-1.07,0.39-2.13,0.78-3.2,1.17c-0.27-0.61-0.53-1.22-0.8-1.83
			C248.86,100.8,249.5,100.47,250.15,100.14z M258.34,118.09c0.66-0.29,1.1-0.95,0.78-1.84c-1.6-4.37-5.29-12.77-5.15-12.72
			c4.66,4.23,9.59,7.97,14.02,13.96c0,4.61,0.75,9.94-3.59,13.32c-0.01,0-0.01,0.01-0.01,0.02c0,0-0.01,0-0.01,0
			c-1.18-3.21-2.35-6.42-3.53-9.64c-0.29-0.79-1.14-1.49-2.04-1.16c-0.82,0.3-1.64,0.6-2.46,0.9c-0.23-0.61-0.45-1.21-0.67-1.82
			C256.44,118.84,258.23,118.16,258.34,118.09z M331.54,156.97c-1.17,4.57-2.35,9.15-3.52,13.72c-0.09,0.35-0.51,1.94,2.41,2.36
			c-0.2,0.98-0.4,1.96-0.6,2.94c-0.19-0.03-0.38-0.06-0.56-0.09c-0.78-0.13-1.79,0.18-2.01,1.06c-3.15,1.23-6,4.74-7.86,7.61
			c-1.28-2.61-3.89-9.16-3.93-9.38c-1.57-9.74,7.36-17.11,14.8-21.65c1.13,0.45,2.25,0.91,3.36,1.4c-0.05,0.29-0.09,0.58-0.13,0.87
			C332.65,155.63,331.76,156.12,331.54,156.97z M270.01,175.42c-1.04-3.47-2.08-6.93-3.12-10.4c1.65-0.49,3.29-0.99,4.94-1.48
			c0.76,2.54,2.36,7.74,3.12,10.28C273.7,174.45,271.44,174.99,270.01,175.42z M271.09,120.7c3.85,4.28,7.63,8.63,11.31,13.06
			c-4.64-1-9.32-1.83-14.03-2.46C270.51,128.28,270.87,124.47,271.09,120.7z M326.43,152.06c-6.58,4.39-12.81,10.44-14.13,18.1
			c-2.09-3.6-4.29-7.14-6.57-10.62c0.09-0.21,0.13-0.47,0.1-0.77c-0.54-5.01,0.04-9.98,4.35-13.18c3.65,1.42,7.27,2.92,10.91,4.4
			C322.85,150.71,324.64,151.38,326.43,152.06z M302.4,154.58c-3.06-4.44-6.25-8.8-9.53-13.07c-0.56-0.73-1.14-1.46-1.71-2.19
			c4.11,1.13,14.44,4.54,15.55,4.95C303.88,147.11,302.62,150.67,302.4,154.58z M297.87,153.83c-6.75-2.36-14.45-1.92-21.48-0.36
			c3.37-4.79,6.86-9.43,10.74-13.9C287.93,140.59,295.19,150.02,297.87,153.83z M290.62,135.72c3.76-4.05,7.66-7.97,11.67-11.76
			c-1.09,5.75-0.59,11.42,2.7,16.18C300.26,138.48,295.47,137.01,290.62,135.72z M284.45,137.61c-3.57,4.13-6.81,8.42-9.95,12.83
			c-0.38-5.53-1.22-11.3-4.41-15.56C274.92,135.58,279.7,136.5,284.45,137.61z M270.74,155.84c-0.48,0.71-0.97,1.42-1.45,2.13
			c-0.14-0.5-0.28-0.99-0.43-1.49C269.48,156.26,270.11,156.05,270.74,155.84z M274.54,161.03c-0.25-0.85-1.16-1.42-2.04-1.16
			c-0.22,0.07-0.44,0.13-0.66,0.2c0.56-0.83,1.71-2.47,1.72-2.48c9.08-2.56,19.95-3.67,28.14,1.85c2.42,3.64,4.74,7.34,6.96,11.1
			c-9.94-4.58-20.75-2.94-31.36-0.28C276.38,167.19,275.46,164.11,274.54,161.03z M311.35,142.54c-8.13-7.43-7.89-16.44-4.52-22.76
			c0.04-0.03,8.49-7.48,11.71-10.1c-4.44,12.25-3.36,27,4.26,37.46C318.97,145.63,315.18,144.05,311.35,142.54z M287.27,134.45
			c-3.88-4.78-7.88-9.46-11.98-14.06c3.97,1.02,20.06,2.35,24.09,1.77C295.22,126.13,291.17,130.23,287.27,134.45z M264.56,136.53
			c0.14-0.05,0.27-0.12,0.38-0.19c0.49-0.22,0.86-0.65,0.88-1.22c4.08,3.52,5.02,9.37,5.38,14.91c-1.11-3.27-2.22-6.54-3.33-9.81
			c-0.28-0.81-1.14-1.46-2.04-1.16c-0.81,0.27-1.62,0.55-2.43,0.82c-0.31-0.86-0.62-1.72-0.93-2.58
			C263.17,137.04,263.86,136.78,264.56,136.53z M265.24,142.74c1.16,3.43,2.33,6.86,3.49,10.29c-1.63,0.55-3.26,1.11-4.89,1.66
			c-1.16-3.43-2.33-6.86-3.49-10.29C260.99,144.18,264.77,142.9,265.24,142.74z M273.9,194.99c-0.73-3.55-1.46-7.09-2.19-10.64
			c0.46-0.1,4.43-0.91,5.06-1.04c0.73,3.55,1.46,7.09,2.19,10.64C277.27,194.3,275.58,194.65,273.9,194.99z M333.62,175.06
			c0.01,0.02,0.01,0.02,0.03,0.05c0.02,0.04,0.04,0.08,0.06,0.12c-0.01,0,0.09,0.22,0.1,0.26c0.14,0.42,0.29,0.83,0.47,1.24
			c-0.4-0.07-0.8-0.13-1.2-0.2c0.11-0.55,0.23-1.11,0.34-1.66 M336.62,171.23c-1.66-0.43-3.33-0.85-4.99-1.28
			c0.9-3.51,1.8-7.01,2.7-10.52c1.66,0.43,3.33,0.86,4.99,1.28C338.42,164.22,337.52,167.72,336.62,171.23z M339.4,134.74
			c-0.88-0.26-1.78,0.3-2.04,1.16c-1.34,4.53-2.68,9.06-4.02,13.59c-0.2,0.66,0.01,1.2,0.39,1.55c0.12,0.13,0.26,0.25,0.44,0.35
			c-0.01,0.07-0.02,0.13-0.03,0.2c-1.5-0.64-3.01-1.25-4.53-1.83c-12.18-10.92-13.21-30.68-5.4-44.54c3.38-2.57,6.84-5.04,10.4-7.34
			c-1.92,9.78,1.42,20.43,5.58,29.15c0.02,0.03,0.04,0.06,0.05,0.09c-0.32,1-0.64,2-0.97,3c-0.25,0.79,0.07,1.4,0.6,1.74
			c0.15,0.12,0.33,0.23,0.55,0.3c0.68,0.22,1.37,0.44,2.05,0.66c-0.41,0.83-0.8,1.66-1.17,2.51
			C340.68,135.12,340.04,134.93,339.4,134.74z M317.81,106.1c-3.21,2.57-11.69,9.88-12.82,10.89c-7.12,3.72-27.77,2.15-34.37-1.77
			c-3.11-3.39-6.26-6.74-9.44-10.06C279.4,109.75,299.34,109.19,317.81,106.1z M237.77,80.37c-0.89,0.7-3.14,2.31-3.32,2.5
			c-0.1,0.1-0.57,0.59-0.74,0.72c-2.25-2.84-4.5-5.69-6.76-8.53c0.26-0.21,3.06-2.43,4.06-3.22
			C233.26,74.69,235.51,77.53,237.77,80.37z M164.86,181.97c-0.59-1.2-1.94-0.99-2.62-0.19c-9.87,3.25-24.48-11.81-2.61-36.72
			c1.36-1.55,0.18-3.56-2.6-3.06c-12.87,2.32-12.91-12.89-8.76-19.6c2.24,3.51,5.77,5.75,10.18,5.92c3.77,0.15,7.03-3.07,8.49-6.25
			c3.58-7.82,1.45-17.99,1.37-26.27c-0.04-4.41,0.14-9.13,2.1-13.16c2.49-5.11,7.62-9.06,12.84-11.03
			c10.04-3.78,21.66-1.08,31.52,1.88c1.37,0.41,2.36-0.35,2.78-0.73c1.29-1.16,2.6-2.29,3.88-3.47c1.07,1.13,2.11,2.28,3.14,3.45
			c-0.37,0.29-0.74,0.58-1.11,0.88c-0.76,0.61-0.51,1.7,0,2.34c2.93,3.7,5.86,7.4,8.8,11.11c0.6,0.76,1.7,0.51,2.34,0
			c0.29-0.23,0.58-0.46,0.87-0.69c0.32,0.37,0.64,0.75,0.96,1.13c-0.64,0.32-1.27,0.65-1.91,0.97c-0.84,0.42-0.98,1.5-0.59,2.26
			c2.14,4.21,4.27,8.42,6.41,12.64c0.43,0.84,1.5,0.98,2.26,0.59c0.89-0.45,1.78-0.9,2.67-1.35c0.22,0.49,0.43,0.98,0.65,1.47
			c-0.55,0.2-1.11,0.41-1.66,0.61c-0.79,0.29-1.48,1.14-1.16,2.04c1.63,4.43,3.25,8.87,4.88,13.3c0.29,0.79,1.14,1.48,2.04,1.16
			c0.86-0.31,1.71-0.63,2.57-0.94c0.22,0.61,0.45,1.21,0.67,1.82c-0.8,0.29-1.6,0.59-2.4,0.88c-0.79,0.29-1.48,1.14-1.16,2.04
			c1.62,4.43,3.25,8.87,4.88,13.3c0.29,0.79,1.14,1.49,2.04,1.16c0.92-0.34,1.84-0.67,2.76-1.01c0.31,0.83,0.61,1.67,0.91,2.5
			c-0.82,0.28-1.64,0.56-2.46,0.84c-0.81,0.28-1.46,1.14-1.16,2.04c0.58,1.72,1.17,3.44,1.75,5.16c-0.22-0.13-0.49-0.21-0.81-0.21
			c-5.21,0.03-9.43-2.86-12.55-6.81c-0.88-1.12-2.56-0.48-2.85,2.16c-1.4,12.56-16.09,30.79-30.22,24.58
			c-0.41-5.02-1.5-11.19-6.11-13.87c-3.67-2.13-8.01-0.33-11.04,2.05c-6.07,4.76-12.33,16.21-5.52,22.87
			c2.89,2.82,7.21,3.51,11.22,3.5c-4.47,5.3-10.22,9.76-17.17,11.02C174.66,195.84,168.37,189.08,164.86,181.97z M215.77,255.23
			c-7.62-0.59-14.93-4.17-20.69-9.08c-11.25-9.61-15.16-24.92-7.1-37.56c10.54,17.95,25.87,32.74,43.7,43.5
			C227.1,254.47,220.62,255.6,215.77,255.23z M282.25,270.39c0.33,0.05,0.62,0.01,0.88-0.09c0.34,2.3,0.69,4.61,1.03,6.91
			c0.14,0.97,1.23,1.28,2.04,1.16c1.47-0.22,2.94-0.44,4.41-0.66c0.15,0.89,0.31,1.78,0.46,2.67c-1.5,0.22-3,0.45-4.5,0.67
			c-0.97,0.14-1.28,1.23-1.16,2.03c0.7,4.67,1.4,9.34,2.1,14.01c0.14,0.97,1.23,1.28,2.04,1.16c1.46-0.22,2.93-0.44,4.39-0.66
			c0.2,1.22,0.39,2.45,0.58,3.67c-1.41,0.21-2.82,0.42-4.24,0.63c-0.97,0.14-1.27,1.23-1.16,2.04c0.7,4.67,1.4,9.34,2.1,14.01
			c0.14,0.97,1.23,1.28,2.04,1.16c1.26-0.19,2.53-0.38,3.79-0.57c0.12,0.88,0.24,1.75,0.35,2.63c-1.48,0.22-2.96,0.44-4.44,0.67
			c-0.97,0.14-1.27,1.23-1.16,2.04c0.12,0.79,0.24,1.58,0.36,2.38c-7.28-1.2-13.41-4.52-18.16-10.26
			c-4.51-5.45-6.94-12.46-8.73-19.21c3.2-1.98,6.38-3.92,9.52-5.82c0.16-0.1,0.29-0.22,0.4-0.34c0.38-0.26,0.65-0.69,0.64-1.3
			c-0.07-6.72-0.46-13.42-0.36-20.14C277.73,269.64,279.98,270.05,282.25,270.39z M290.48,294.79c-0.54-3.59-1.07-7.17-1.61-10.76
			c1.71-0.26,3.41-0.51,5.12-0.77c0.54,3.59,1.07,7.17,1.61,10.76C293.9,294.28,292.19,294.54,290.48,294.79z M294.2,315.64
			c-0.54-3.59-1.07-7.18-1.61-10.76c1.71-0.26,3.41-0.51,5.12-0.77c0.54,3.59,1.07,7.17,1.61,10.76
			C297.61,315.13,295.9,315.39,294.2,315.64z M296.88,335.58c-0.54-3.59-1.07-7.17-1.61-10.76c1.71-0.26,3.41-0.51,5.12-0.77
			c0.54,3.59,1.07,7.17,1.61,10.76C300.29,335.06,298.59,335.32,296.88,335.58z M262.34,298.61c4.23,15.14,12.64,28.78,30.31,30.7
			c0.42,2.79,0.83,5.79,1.25,8.58c0.15,0.97,1.23,1.28,2.04,1.16c1.16-0.17,2.32-0.35,3.48-0.52c0.09,0.85,0.17,1.69,0.25,2.54
			c-1.42,0.21-2.84,0.43-4.27,0.64c-0.97,0.14-1.27,1.23-1.16,2.04c0.7,4.67,1.4,9.34,2.1,14.01c0.15,0.97,1.23,1.28,2.04,1.16
			c0.88-0.13,1.76-0.26,2.63-0.39c0.05,0.89,0.1,1.78,0.15,2.66c-1.02,0.15-2.05,0.31-3.07,0.46c-0.97,0.14-1.27,1.23-1.16,2.04
			c0.7,4.67,1.4,9.34,2.1,14.01c0.15,0.97,1.23,1.28,2.04,1.16c0.83-0.12,1.66-0.25,2.48-0.37c-0.01,0.65,0.1,1.93,0,1.93
			c-0.86-0.03-2.05,0.78-2,1.65c0.17,3.06,0.34,6.12,0.51,9.18c-1.54-0.05-3.43-0.03-4.17,1.23c-0.51,0.88,0.69,16.78,0.61,20.39
			c-0.02,0.71,0.51,1.43,1.21,1.6c0.5,0.12,1,0.2,1.5,0.29c-2.02,4.87-4.63,9.59-4.8,14.94c-8.13-2.55-19.14,1.36-26.65,2.01
			c-14.53,1.26-35.91-3.92-35.92-21.72c-0.01-6.88,2.59-13.72,5.17-19.98c2.69-6.54,10-22.18,10.56-23.63
			c0.77-2-2.43-2.85-3.19-0.88c-3.07,7.99-7.19,15.58-10.5,23.47c-17.96,1.1-31.95-9.32-43.8-21.73
			C205.44,337.46,234.3,316.19,262.34,298.61z M310.58,340.9c1.72,0.19,3.43,0.37,5.15,0.56c-0.39,3.6-0.78,7.21-1.18,10.81
			c-1.72-0.19-3.43-0.37-5.15-0.56C309.79,348.11,310.19,344.51,310.58,340.9z M313.84,361.49c-0.39,3.6-0.78,7.21-1.18,10.81
			c-0.87-0.09-1.73-0.19-2.6-0.28c-0.5-3.36-1-6.71-1.51-10.07c0.04-0.34,0.08-0.68,0.12-1.02
			C309.76,361.04,313.72,361.47,313.84,361.49z M302.01,375.37c-0.54-3.59-1.07-7.17-1.61-10.76c1.71-0.26,3.41-0.51,5.12-0.77
			c0.54,3.59,1.07,7.17,1.61,10.76C305.42,374.86,303.71,375.11,302.01,375.37z M306.33,357.71c-0.43,0.32-0.68,0.89-0.74,1.4
			c-0.06,0.47-0.11,0.95-0.17,1.42c-0.32,0.05-0.65,0.1-0.97,0.15c-0.05-0.89-0.09-1.78-0.15-2.66
			C304.98,357.91,305.65,357.81,306.33,357.71z M299.33,355.44c-0.54-3.59-1.07-7.17-1.61-10.76c1.71-0.26,3.41-0.51,5.12-0.77
			c0.54,3.59,1.07,7.17,1.61,10.76C302.74,354.93,301.03,355.18,299.33,355.44z M307.96,391.27c-0.54-0.02-1.08-0.04-1.63-0.06
			c0.02-0.09,0.32-5.01,0.4-7.38c0.74,0.03,1.48,0.06,2.22,0.09C308.88,386.43,308.66,388.91,307.96,391.27z M283.27,463.58
			c-0.76,0.39-0.94,1.08-0.77,1.71c-0.1,0.37-0.08,0.78,0.16,1.21c2.35,4.23,3.44,8.92-1.24,11.83c-4.15,2.57-9.72,2.92-14.46,3.15
			c-4.73,0.23-9.49,0.01-14.21-0.36c-6.84-0.54-13.92-0.31-20.64-1.69c-34.8-7.16-49.36-50.53-47.49-81.84
			c0.58-9.75,2.72-18.75,6.07-27.09c11.94,12.27,26.16,22.36,43.86,21.8c-1.38,3.61-2.54,7.3-3.3,11.14
			c-1.13,5.71-1.02,11.6,1.53,16.91c3.12,6.51,10.26,9.93,16.68,12.27c7.64,2.78,15.9,2.96,23.88,1.98
			c6.19-0.76,12.4-2.6,18.67-2.37c2.94,0.11,5.52,1.4,7.71,3.33c2.3,2.02,0.99,3.79-1.07,5.26c-4.32,3.08-9.79,4.23-14.54,6.47
			c-2.78,1.31-2.37,3.14-1.11,3.69C289.33,453.77,289.38,460.46,283.27,463.58z M290.18,453.21c-0.64-1.34-1.65-2.56-3-3.59
			c3.95-1.44,10.81-3.71,14.58-6.96c0.28,0.35,0.58,0.68,0.89,0.99c-0.02,0.02-0.04,0.04-0.05,0.06
			C299.67,447.96,295.46,452.23,290.18,453.21z M311.42,471.86c-1.72-0.01-3.44-0.02-5.16-0.03c0.02-3.62,0.05-7.24,0.07-10.86
			c1.72,0.01,3.44,0.02,5.16,0.03C311.47,464.63,311.45,468.25,311.42,471.86z M311.69,457.35c-1.72,0.04-3.44,0.08-5.16,0.12
			c-0.08-3.62-0.17-7.24-0.25-10.86c1.72-0.04,3.44-0.08,5.16-0.12C311.52,450.11,311.61,453.73,311.69,457.35z M313.47,438.82
			c-0.86,1.78-2.7,3.93-4.76,4.2c-1.97,0.26-3.57-1.4-4.67-2.77c-0.05-0.06-0.1-0.1-0.15-0.15c0.84-1.67,0.79-3.55-0.73-5.64
			c-1.03-1.41-2.22-2.5-3.54-3.33c0.06-0.17-1.71-5.6,4.96-15.96c1.61,0.12,3.22,0.14,4.86,0.09c0.17,0,0.36,0,0.55,0
			c0.89,4.99,2.96,9.67,4.11,14.61C314.79,432.87,314.83,435.99,313.47,438.82z M314.14,411.44c-5.44,0.99-11.74,0.15-12.39,0.02
			c-0.15-1.97-0.68-16.55-0.91-17.05c0.84,0.07,12.26,0.25,12.43,0.25C315.91,406.9,314.23,411.06,314.14,411.44z M306.81,380.53
			c0.02-0.77-0.01-1.97,0-2.74c0-0.09,1.46-0.03,2.18-0.14c-0.01,0.98-0.01,1.97-0.01,2.96
			C308.25,380.58,307.53,380.55,306.81,380.53z M311.39,357.91c-1.37-0.15-2.73-0.3-4.1-0.45c0.54-0.3,0.73-0.87,0.63-1.45
			c0.01-0.13,0.01-0.26-0.01-0.4c-0.04-0.25-0.08-0.51-0.11-0.76c1.28,0.14,2.57,0.28,3.85,0.42
			C311.57,356.15,311.48,357.03,311.39,357.91z M312.93,337.85c-1.27-0.14-2.54-0.28-3.81-0.42c-0.97-0.11-1.57,0.84-1.65,1.65
			c-0.28,2.61-0.57,5.23-0.85,7.84c-0.27-1.78-0.53-3.55-0.8-5.33c-0.15-0.97-1.23-1.28-2.04-1.16c-0.28,0.04-0.56,0.08-0.85,0.13
			c-0.08-0.85-0.16-1.7-0.25-2.54c0.54-0.08,1.09-0.16,1.63-0.24c0.96-0.14,1.29-0.89,1.17-1.63c0.01-0.13,0.01-0.26-0.01-0.4
			c-0.7-4.67-1.4-9.34-2.1-14.01c-0.14-0.97-1.23-1.28-2.04-1.16c-0.23,0.03-0.46,0.07-0.69,0.1c-0.12-0.88-0.23-1.75-0.35-2.63
			c0.45-0.07,0.89-0.13,1.34-0.2c0.97-0.14,1.29-0.89,1.17-1.63c0.01-0.13,0.01-0.26-0.01-0.4c-0.7-4.67-1.4-9.34-2.1-14.01
			c-0.15-0.97-1.23-1.28-2.04-1.16c-0.29,0.04-0.59,0.09-0.88,0.13c-0.19-1.22-0.39-2.45-0.58-3.67c0.24-0.04,0.49-0.07,0.73-0.11
			c0.96-0.14,1.29-0.89,1.17-1.63c0.01-0.13,0.01-0.26-0.01-0.4c-0.7-4.67-1.4-9.34-2.1-14.01c-0.14-0.97-1.23-1.28-2.04-1.16
			c-0.2,0.03-0.41,0.06-0.61,0.09c-0.15-0.89-0.31-1.78-0.46-2.67c0.23-0.04,0.47-0.07,0.7-0.11c0.97-0.14,1.29-0.89,1.17-1.63
			c0.01-0.13,0.01-0.26-0.01-0.4c-0.7-4.67-1.4-9.34-2.1-14.01c-0.14-0.97-1.23-1.27-2.04-1.16c-0.25,0.04-0.5,0.08-0.76,0.11
			c-0.21-1.14-0.41-2.27-0.62-3.4c0.42-0.06,0.83-0.12,1.25-0.19c0.96-0.14,1.29-0.89,1.17-1.63c0.01-0.13,0.01-0.26-0.01-0.4
			c-0.7-4.67-1.4-9.34-2.1-14.01c-0.15-0.97-1.23-1.28-2.04-1.16c-0.56,0.08-1.12,0.17-1.68,0.25c-0.18-0.89-0.36-1.77-0.54-2.66
			c0.62-0.09,1.24-0.19,1.86-0.28c0.96-0.14,1.29-0.89,1.17-1.63c0.01-0.13,0.01-0.26-0.01-0.41c-0.7-4.67-1.4-9.34-2.1-14.01
			c-0.15-0.97-1.23-1.28-2.04-1.16c-0.76,0.11-1.53,0.23-2.29,0.34c-0.12-0.58-0.24-1.16-0.36-1.74c1.02-0.21,2.04-0.42,3.07-0.63
			c0.89-0.18,1.23-0.86,1.18-1.55c0.01-0.15,0.01-0.31-0.03-0.49c-0.95-4.63-1.9-9.25-2.85-13.88c-0.19-0.92-1.2-1.33-2.04-1.16
			c-0.83,0.17-1.67,0.34-2.5,0.51c-0.21-1.13-0.44-2.25-0.69-3.37c0.9-0.19,1.8-0.37,2.7-0.56c0.89-0.18,1.23-0.86,1.18-1.56
			c0.01-0.15-0.33-1.92-0.47-2.65c0.12-0.06,7.32-6.37,16.52-7.31c0.15,10.46,1.17,20.88,1.48,31.33c-0.57-0.48-1.09-1.02-1.52-1.64
			c-0.52-0.74-1.44-1.08-2.26-0.59c-0.73,0.43-1.11,1.52-0.59,2.26c0.68,0.97,1.46,1.81,2.35,2.55c-0.24,0.3-0.45,0.62-0.63,0.96
			c-0.85,0-1.69-0.09-2.53-0.27c-0.88-0.19-1.79,0.25-2.04,1.16c-0.23,0.83,0.27,1.85,1.16,2.04c0.96,0.21,1.94,0.34,2.92,0.38
			c-0.06,0.03-1.34,0.85-2.04,0.98c-0.89,0.17-1.38,1.22-1.16,2.04c0.25,0.92,1.15,1.32,2.04,1.16c0.73-0.14,3.43-1.48,3.48-1.44
			c-0.23,1-0.47,1.99-0.86,2.94c-0.35,0.83,0.37,1.82,1.16,2.04c0.95,0.26,1.69-0.32,2.04-1.16c0.34-0.82,0.57-1.67,0.77-2.53
			c1.27,0.22,2.59,0.13,3.67-0.37c0.01,0.01,0.01,0.01,0.02,0.03c0.16,0.22,0.97,1.61,1.26,2.05c0.5,0.75,1.45,1.07,2.26,0.59
			c0.75-0.44,1.09-1.51,0.59-2.26c-0.65-0.98-1.14-2.11-1.99-2.95c0.03-0.1,0.06-0.19,0.08-0.29c1.46,0.49,2.93,0.9,4.46,1.14
			c0.89,0.14,1.78-0.22,2.04-1.16c0.22-0.8-0.26-1.89-1.16-2.04c-1.32-0.21-2.61-0.54-3.87-0.95c1.07-0.65,2.21-1.1,3.46-1.39
			c2.08-0.49,1.2-3.68-0.88-3.19c-1.45,0.34-2.85,0.88-4.12,1.64c0.09-0.13,0.95-1.92,1.41-2.52c0.55-0.71,0.7-1.64,0-2.34
			c-0.58-0.58-1.79-0.71-2.34,0c-0.84,1.08-1.5,2.18-2,3.45c-0.57-0.36-1.2-0.64-1.87-0.83c-0.33-10.42-1.35-20.8-1.47-31.22
			c5.15-0.39,10.4,0.2,15.28,1.56c2.02,4.09,4.09,8.15,6.54,11.99c-0.72,4.4-1.44,8.79-2.16,13.19c-0.02,0.14-0.03,0.28-0.02,0.41
			c-0.11,0.73,0.22,1.47,1.17,1.62c0.26,0.04,0.53,0.09,0.79,0.13c-0.03,0.08-0.06,0.16-0.07,0.25c-0.08,0.54-0.16,1.09-0.23,1.63
			c-0.1-0.01-0.2-0.02-0.3-0.03c-0.97-0.11-1.56,0.84-1.65,1.65c-0.51,4.69-1.02,9.39-1.53,14.08c-0.1,0.96,0.52,1.48,1.25,1.56
			c0.12,0.04,0.26,0.08,0.4,0.09c0.01,0,0.02,0,0.03,0c-0.08,0.9-0.15,1.8-0.23,2.7c-0.27-0.03-0.54-0.06-0.81-0.09
			c-0.97-0.1-1.57,0.84-1.65,1.65c-0.51,4.69-1.02,9.39-1.53,14.08c-0.1,0.96,0.52,1.48,1.26,1.56c0.12,0.04,0.26,0.07,0.4,0.09
			c0.32,0.03,0.64,0.07,0.96,0.1c0,0.02-0.01,0.04-0.01,0.07c-0.09,1.13-0.17,2.25-0.25,3.38c-0.48-0.05-0.96-0.1-1.44-0.16
			c-0.97-0.11-1.57,0.84-1.65,1.65c-0.51,4.7-1.02,9.39-1.53,14.08c-0.1,0.96,0.52,1.48,1.26,1.56c0.12,0.04,0.25,0.07,0.4,0.09
			c0.59,0.06,1.18,0.13,1.77,0.19c-0.06,0.9-0.11,1.8-0.17,2.71c-0.87-0.09-1.74-0.19-2.62-0.28c-0.97-0.11-1.57,0.84-1.65,1.65
			c-0.51,4.69-1.02,9.39-1.53,14.08c-0.1,0.96,0.52,1.48,1.26,1.56c0.12,0.04,0.26,0.07,0.4,0.09c1.1,0.12,2.19,0.24,3.29,0.36
			c-0.01,1.2-0.03,2.41-0.05,3.61c-1.31-0.14-2.61-0.28-3.92-0.43c-0.97-0.1-1.57,0.84-1.65,1.65c-0.51,4.69-1.02,9.39-1.53,14.08
			c-0.1,0.96,0.52,1.48,1.25,1.56c0.12,0.04,0.26,0.08,0.4,0.09c0.99,0.11,1.98,0.22,2.96,0.32c-0.03,0.89-0.05,1.77-0.08,2.66
			c-1.08-0.12-2.15-0.23-3.23-0.35c-0.97-0.1-1.57,0.84-1.65,1.65c-0.51,4.69-1.02,9.39-1.53,14.08c-0.1,0.96,0.52,1.48,1.26,1.56
			c0.12,0.04,0.26,0.07,0.4,0.09c1.07,0.12,2.14,0.23,3.21,0.35C313.06,336.08,313,336.96,312.93,337.85z M328.31,230.53
			c-1.72-0.19-3.43-0.37-5.15-0.56c0.39-3.6,0.78-7.21,1.18-10.81c1.72,0.19,3.43,0.37,5.15,0.56
			C329.09,223.32,328.7,226.92,328.31,230.53z M325.77,250.53c-1.72-0.19-3.43-0.37-5.15-0.56c0.39-3.6,0.78-7.21,1.18-10.81
			c1.72,0.19,3.43,0.37,5.15,0.56C326.55,243.32,326.16,246.93,325.77,250.53z M323.49,271.32c-1.72-0.19-3.43-0.37-5.15-0.56
			c0.39-3.6,0.78-7.21,1.18-10.81c1.72,0.19,3.43,0.37,5.15,0.56C324.28,264.11,323.88,267.72,323.49,271.32z M320.95,291.33
			c-1.72-0.19-3.43-0.37-5.15-0.56c0.39-3.6,0.78-7.21,1.18-10.81c1.72,0.19,3.43,0.37,5.15,0.56
			C321.73,284.12,321.34,287.72,320.95,291.33z M318.74,312.27c-1.71-0.19-3.43-0.37-5.15-0.56c0.39-3.6,0.78-7.21,1.18-10.81
			c1.72,0.19,3.43,0.37,5.15,0.56C319.52,305.06,319.13,308.66,318.74,312.27z M316.86,332.29c-1.72-0.19-3.43-0.37-5.15-0.56
			c0.39-3.6,0.78-7.21,1.18-10.81c1.72,0.19,3.43,0.37,5.15,0.56C317.64,325.08,317.25,328.69,316.86,332.29z M331.85,283.97
			c-0.03,0.19-0.03,0.36-0.01,0.53c-0.33,0.7-0.27,1.63,0.53,2.21c4.15,3.03,8.24,6.15,12.26,9.35c-0.02,0.05-0.05,0.1-0.06,0.15
			c-3.67,12.17-13.46,20.66-23.5,27.82c0.15-1.34,0.29-2.67,0.44-4.01c0.11-0.97-0.84-1.57-1.65-1.65
			c-0.63-0.07-1.26-0.14-1.89-0.21c0.03-0.89,0.06-1.77,0.08-2.66c0.72,0.08,1.44,0.16,2.15,0.23c0.97,0.11,1.57-0.84,1.65-1.65
			c0.51-4.69,1.02-9.39,1.53-14.08c0.11-0.97-0.84-1.57-1.65-1.65c-0.4-0.04-0.8-0.09-1.2-0.13c0.02-1.2,0.04-2.41,0.05-3.61
			c0.61,0.07,1.22,0.13,1.82,0.2c0.97,0.1,1.57-0.84,1.65-1.66c0.51-4.69,1.02-9.39,1.53-14.08c0.1-0.97-0.84-1.57-1.65-1.65
			c-0.84-0.09-1.68-0.18-2.51-0.27c0.06-0.9,0.11-1.8,0.17-2.71c1.12,0.12,2.24,0.24,3.36,0.37c0.97,0.1,1.56-0.84,1.65-1.65
			c0.17-1.55,0.34-3.1,0.51-4.65c0.14,0.01,0.29,0,0.45-0.03c2.03-0.42,4.05-0.91,6.06-1.44
			C334.23,272.69,332.82,278.4,331.85,283.97z M409.7,236.44c-8.35,9.77-22.42,12.77-34.81,11.26
			c15.83-11.17,29.2-25.83,38.64-42.78C417.52,215.52,417.39,227.45,409.7,236.44z M402.71,215.83c1.45-2.36,2.54-4.98,3.32-7.72
			c0.01-0.04,0.01-0.07,0.02-0.11c0.69-0.56,1.01-1.63,0.24-2.48c-2.92-3.21-6.61-5.79-10.12-8.3c-5.42-3.87-11.1-7.39-16.86-10.72
			c-10.51-6.06-22.62-12.92-34.87-14.4c-2.9-0.35-3.72,3.58-4.32,5.71c-0.46,1.62-0.65,3.29-0.66,4.98
			c-1.78,10.29-1.27,20.29,3.86,29.99c1,1.89,3.85,0.21,2.86-1.67c-2.54-4.8-3.83-9.67-4.23-14.62c1.26,3.51,3.03,6.77,5.36,9.85
			c6.59,8.66,16.31,15.24,26.73,18.34c6.24,1.85,13.4,2.24,19.44-0.49c2.49-1.13,4.6-2.69,6.36-4.57
			c-17.98,22.8-43.93,39.33-72.35,45.44c0.22-2.01,0.44-4.02,0.66-6.02c0.11-0.97-0.84-1.57-1.65-1.65
			c-0.58-0.06-3.46-0.42-3.65-0.34c0.02-0.32,0.18-3.19,0.21-3.51c1.39,0.15,2.79,0.3,4.18,0.46c0.97,0.11,1.57-0.84,1.65-1.65
			c0.51-4.69,1.53-14.1,1.53-14.1c5.87,0.97,11.71,2.06,17.55,3.21c2.08,0.41,2.97-2.78,0.88-3.19c-8.05-1.58-16.11-3.05-24.23-4.26
			c0.02-0.19,0.03-0.37,0.05-0.56c1.7,0.19,3.41,0.37,5.11,0.56c0.97,0.1,1.57-0.84,1.65-1.65c0.51-4.69,1.02-9.39,1.53-14.08
			c0.11-0.97-0.84-1.57-1.65-1.65c-1.62-0.18-3.23-0.35-4.85-0.53c0.05-0.37,0.19-1.53,0.17-1.73c1.48,0.24,2.96,0.49,4.44,0.73
			c0.81,0.13,1.88-0.2,2.04-1.16c0.76-4.66,1.53-9.32,2.29-13.98c0.13-0.81-0.2-1.88-1.16-2.04c-1.63-0.27-3.25-0.53-4.88-0.8
			c0.19-1.13,0.38-2.27,0.58-3.4c1.51,0.25,3.02,0.49,4.52,0.74c0.81,0.13,1.88-0.2,2.04-1.16c0.76-4.66,1.53-9.32,2.29-13.98
			c0.13-0.81-0.2-1.88-1.16-2.04c-0.14-0.02-0.53-2.43-0.56-2.51c0.11,0.03,0.21,0.05,0.32,0.08c0.86,0.22,1.81-0.27,2.04-1.16
			c1.17-4.57,2.35-9.15,3.52-13.72c0.22-0.86-0.27-1.81-1.16-2.04c-1.69-0.43-3.39-0.87-5.08-1.3c0.22-1.42,0.44-2.84,0.66-4.26
			c1.76,0.52,3.52,1.04,5.28,1.56c0.33,0.1,17.72,6.12,28.43-5.45c0.93-1.01,0.44-2.17-0.55-2.6c-8.79-12.67,7.35-19.4,11.91-18.92
			c5.79,0.61,9.77,6.37,11.74,11.45c2.05,5.27,2.58,11.8-0.79,16.64c-4.76,6.86-15.45,4.63-22.03,2.61
			c-1.65-0.51-2.53,1.46-1.75,2.58c0.01,0.04,0.01,0.08,0.03,0.13c2.58,8.24,6.43,16.75,13.81,21.73
			c7.15,4.83,15.68,2.78,22.66-1.16c2.4,4.63,5.66,8.8,10.09,11.12C412.63,200.48,408.08,208.45,402.71,215.83z M345.12,175.54
			c2.82,0.45,5.58,1.32,8.27,2.25c13.06,4.5,25.4,11.78,36.87,19.39c4.36,2.9,9,5.93,12.72,9.69c-0.06,0.11-0.11,0.23-0.15,0.36
			c-1.57,5.52-4.41,10.47-9.51,13.37c-4.4,2.5-9.82,2.62-14.69,1.78c-11.05-1.91-21.36-8.9-28.33-17.52
			c-4.05-5-5.99-10.63-7.11-16.91C342.22,182.49,344.24,175.4,345.12,175.54z M446.63,166.95c-2.25-3.27-5.3-6.29-9.43-6.44
			c-3.51-0.13-6.41,2.59-7.83,5.57c-1.64,3.44-1.66,7.42-0.06,10.86c1.64,3.53,5.11,5.37,8.75,6.17c-3.89,3.86-8.61,7.14-14.19,7.48
			c-7.32,0.45-12.18-5.91-15.14-11.78c0.31-1.26-0.99-2.77-2.39-1.88c-6.55,4.17-14.15,6.68-21.23,2.29
			c-5.98-3.71-9.33-10.94-11.56-17.53c7.05,1.77,15.1,2.25,20.8-2.82c4.78-4.25,5.35-11.32,4.21-17.21
			c-1.2-6.2-4.75-12.31-10.07-15.83c-5.86-3.87-12.61-2.32-17.84,1.8c-2.66,2.1-5.1,4.81-6.27,8.01c-1.46,4.01,0.47,8.36,2.97,11.58
			c-6.58,5.02-14.23,6.73-22.17,3.75c1.16-3.93,2.32-7.86,3.49-11.8c0.26-0.88-0.3-1.78-1.16-2.04c-1.01-0.3-2.02-0.6-3.03-0.9
			c0.37-0.82,0.76-1.63,1.17-2.43c0.95,0.3,1.89,0.61,2.83,0.91c0.89,0.28,1.77-0.33,2.04-1.16c1.45-4.5,2.89-8.99,4.34-13.49
			c0.28-0.89-0.33-1.77-1.16-2.04c-1.18-0.38-2.35-0.76-3.53-1.13c0.21-0.61,0.43-1.21,0.64-1.82c1.18,0.38,2.36,0.76,3.54,1.14
			c0.89,0.28,1.77-0.33,2.04-1.16c1.45-4.5,2.89-8.99,4.34-13.49c0.28-0.89-0.33-1.77-1.16-2.04c-0.8-0.26-1.6-0.52-2.4-0.77
			c0.23-0.52,0.45-1.03,0.68-1.55c1.08,0.49,2.15,0.98,3.23,1.48c0.75,0.34,1.86,0.28,2.26-0.59c1.97-4.29,3.93-8.59,5.9-12.88
			c0.35-0.75,0.28-1.86-0.59-2.26c-0.92-0.42-1.85-0.85-2.77-1.27c0.3-0.46,0.6-0.93,0.91-1.38c0.65,0.47,1.3,0.95,1.95,1.42
			c0.78,0.57,1.78,0.08,2.26-0.59c2.78-3.82,5.56-7.63,8.34-11.45c0.39-0.53,0.28-1.16-0.04-1.66c0.64,0.52,1.27,1.05,1.9,1.59
			c-0.03,0.85,0.49,1.66,1.57,1.53c12.14-1.49,25.62,0.08,35.53,7.83c4.82,3.77,8.36,8.9,9.66,14.84
			c4.19,19.08-8.01,26.97-2.54,27.68c10.34,1.33,22.91,4.85,27.04,15.64C456.23,146.95,451.49,158.21,446.63,166.95z"/>
		<path d="M263.14,177.23c-1.23-2.71-3.09-2.24-5.7-1.86c-6.05,0.88-11.94,3.08-17.58,5.35c-9.04,3.64-17.77,8.08-26.2,12.95
			c-5.81,3.36-12.11,6.9-16.91,11.67c-0.82,0.81-0.51,1.87,0.19,2.43c0.01,0.06,0.01,0.12,0.02,0.19
			c2.37,10.3,9.21,17.67,19.9,18.94c10.43,1.24,21.36-3.54,29.66-9.46c6.69-4.77,11.91-10.83,15.01-18.06
			c-0.65,4.99-2.19,9.86-5.01,14.59c-1.09,1.84,1.77,3.5,2.86,1.67c5.68-9.54,6.6-19.64,5.26-30.13
			C264.71,182.68,264.33,179.85,263.14,177.23z M242.64,216.12c-8.57,5.65-20.12,9.81-30.3,6.45c-6.92-2.28-10.63-8.74-12.18-15.48
			c-0.03-0.11-0.06-0.21-0.1-0.3c3.03-2.76,6.64-4.97,10.08-7.13c5.73-3.59,11.68-6.84,17.73-9.88c6.38-3.2,12.92-6.09,19.67-8.41
			c2.72-0.94,5.49-1.73,8.3-2.35c1.25-0.28,2.52-0.48,3.8-0.62c1.05-0.12,1.53,5.8,1.75,7.5
			C261.41,198.62,252.78,209.43,242.64,216.12z"/>
		<path d="M306.18,426c-0.51,0.05-1.01,0.12-1.52,0.2c-0.61,0.1-1.05,0.51-1.34,1.67c-1.25,5.01,0.74,7.62,1.5,8.09
			c2.27,1.4,4.77-0.67,5.65-1.5c0.96-0.91,3.62-4.59,1.13-7.31C310.28,425.71,308.05,425.81,306.18,426z M308.33,429.27
			 M306.46,433.37c-0.66-0.15-0.5-3.08-0.1-3.78c0.4-0.71,2.68-0.78,3.02,0C309.71,430.37,307.12,433.52,306.46,433.37z"/>
	</g>
	<path d="M438.19,498.83c-0.6-0.55-1.21-0.83-1.83-0.83c-0.76,0-1.95,0.48-3.57,1.42c-2.11,1.29-3.16,2.51-3.16,3.67
		c0,0.62,0.26,1.21,0.79,1.79c0.5,0.55,1.09,0.83,1.78,0.83c0.89,0,2.09-0.47,3.61-1.42c2.21-1.38,3.32-2.6,3.32-3.67
		C439.13,500.01,438.81,499.41,438.19,498.83z"/>
	<g>
		<path d="M218.05,534.65c-1.66-11.8,1.33-27.06-4.7-33.16c-10.22-4.41-27.89-1.38-27.9,12.43c-0.46,6.02,5.94,10.06,10.69,11.65
			c0,0.4-1.15,2.61-3.44,6.65c-2.73,5.53-5.69,8.11-6.95,12.25c0.19,2.16,3.03,3.52,4.8,1.79c3.58-3.84,8.85-14.75,11.92-19.5
			c0.97-0.79,8.2-0.77,9.2-1.19c0.27,5.81,0.5,12.64,0.42,17.55c0.18,1.27,1.75,2.33,2.89,2.31
			C219.16,544.92,218.09,538.52,218.05,534.65z M211.42,518.51l-0.1,1.42c-23.39,5.57-25.96-13.99-9.1-14.54
			c3.3,0.25,7.05-0.56,8.01,1.51C210.67,508.33,211.54,516.92,211.42,518.51z"/>
		<path d="M269.98,517.31c0.01,4.24-0.04,20.74-0.05,25.28c-1.57,1.76-3.98,1.76-5.54,0c-0.56-10.28-0.4-24.31-0.2-35.05
			c-3.25-0.07-14.89,1.14-17.95,1.79c-0.4,0.43-0.69,7.37-0.89,20.83c-0.3,8.27,1.18,17.33-6.19,12.01c0.19-9.71,0.42-35.16,1.64-36
			c-0.07-3.51,27.28-5.52,28.62-2.47C270.35,506.71,269.8,512.36,269.98,517.31z"/>
		<path d="M302.47,506.44c-3.31,9.42-9.52,23.71-16.57,35.51c-10.67,3.63,0.71-12.28,1.73-16.56c-1.21-4.44-16.46-17.39-12.46-21.93
			c4.51-4.49,12.06,14.1,15.43,15.41C293.47,516.04,297.26,496.75,302.47,506.44z"/>
		<path d="M337.29,537.04c-0.91,5.03-8.42,6.07-13.16,6.28c-5.4,0.23-9.68-2.91-13.37-6.63c-9.38-12.02-0.13-32.44,13.32-34.97
			c4.56-2.37,19.49,2.76,10.69,6.88c-25.61-11.43-30.53,40.03-2.67,26.97C334.02,533.78,337.1,534.47,337.29,537.04z"/>
		<path d="M371.61,503.51c-0.59,4.57-9.67,1.68-12.34,3.53c-1.88,6.69-0.24,25.44-0.42,32.66c0.75,4-2.88,5.88-5.29,3.12
			c-1.88-9.57-0.73-24.32-1.09-35.64c-2.23,0-6.72,0.09-8.95,0.18c-0.88-0.94-2.27-2.23-1.42-3.57c3.09-3.87,6.84-1.31,13.74-2.55
			c7.02-0.5,8.8-0.59,13.65-0.62C370.22,501.34,371.72,502.6,371.61,503.51z"/>
		<path d="M412.54,516.2c-3.33-24.43-38.78-15.54-36.42,7.49C376.9,551.79,416.34,543.75,412.54,516.2z M405.3,526.69
			c-2.61,8.01-11.23,10.52-18.25,7.69c-5.53-2.84-5.48-11.85-4.46-17.09C389.85,499,413.57,507.36,405.3,526.69z"/>
		<path d="M445.36,527.13c0.27,8.71,0.4,11.91,0.39,12.8c-0.22,3.04-5.35,2.88-5.83,0c-0.01,1.23-0.99-22.85-0.94-21.7
			c0-0.3-0.05-0.46-0.15-0.46c-3.49,4.14-6.47,8.06-9.03,12.41c-2.83,3.69-5.76,13.44-11.25,10.44c-3.96-7.81-0.06-23.65-0.72-32.96
			c-0.28-3.06,2.66-4.63,4.73-2.62c2.8,7.17,0.25,16.69,0.54,24.8c5.17-8.1,10.29-14.36,14.54-20.37c1.77-3.73,7.79-7.73,8.51-1.24
			C445.13,515.69,444.89,517.45,445.36,527.13z"/>
	</g>
</g>
<image class="sticker-draft" width="600" height="600" xlink:href="sticker-void.webp"></image>
</g>
</svg>
