<?xml version="1.0" encoding="utf-8"?>
<svg xmlns="http://www.w3.org/2000/svg" viewBox="20 0 480 170">
    <style type="text/css">
        @import url("../../../styles/base-items/const.css");

        .s0,.s1,.s2,.s3,.s4{
        fill:none;
        stroke:var(--txt-color);
        stroke-width:10;
        stroke-linecap:round;
        stroke-linejoin:round;
        stroke-miterlimit:1;
        stroke-dasharray:2000;
        stroke-dashoffset:2000;}

        .s0{transform: scale(1.5, 0.5); animation: m0 10s cubic-bezier(0.75, 0.35, 0.4, 0.99) forwards;}
        .s1{transform: scale(1.5, 0.5) translateX(-3px); animation: m1 10s cubic-bezier(0.75,0.35,0.4,0.99) forwards;}
        .s2{transform: scale(1.5, 0.5) translate(-5px, -7px); animation: m2 10s cubic-bezier(0.75,0.35,0.4,0.99) forwards;}
        .s3{transform: scale(1.5, 0.5) translateX(-9px); animation: m3 10s cubic-bezier(0.75,0.35,0.4,0.99) forwards;}
        .s4{transform: scale(1.5, 0.5) translateX(-9px); animation: m4 10s cubic-bezier(0.75,0.35,0.4,0.99) forwards;}

        @keyframes m0 {
        0%{stroke-dashoffset:2000;}
        25%{stroke-dashoffset:0;}
        100%{stroke-dashoffset:0;}
        }
        @keyframes m1 {
        13%{stroke-dashoffset:2000;}
        35%{stroke-dashoffset:0;}
        100%{stroke-dashoffset:0;}
        }
        @keyframes m2 {
        17%{stroke-dashoffset:2000;}
        40%{stroke-dashoffset:0;}
        100%{stroke-dashoffset:0;}
        }
        @keyframes m3 {
        23%{stroke-dashoffset:2000;}
        45%{stroke-dashoffset:0;}
        100%{stroke-dashoffset:0;}
        }
        @keyframes m4 {
        27%{stroke-dashoffset:2000;}
        42%{stroke-dashoffset:0;}
        100%{stroke-dashoffset:0;}
        }
    </style>
    <path class="s0"
        d="M22.4,233.79c0.02,19.46,0.09,39.55,3.16,57.38s9.98,32.95,17.65,31.65c6.47-1.09,11.75-13.03,16.29-24.75
	c29.66-76.65,51.35-172.91,62.3-276.58c-10.58,71.41-21.27,143.94-23.81,219.94c-0.33,9.78,0.13,22.24,3.78,25.55
	c2.05,1.86,4.4-0.28,6.02-3.95c1.62-3.68,2.67-8.67,3.68-13.56c6.96-33.66,13.93-67.32,20.89-100.99
	c-2.7,24.66-3.75,50.46-3.11,75.99c0.15,5.96,0.74,13.09,2.96,15.11c3.05,2.77,5.52-6.54,6.69-14.19c3.72-24.3,7.43-48.6,11.15-72.9
	c-3.72,28.51-3.96,59.85-0.67,88.7" />
    <path class="s1"
        d="M162.25,189.59c-0.99,2-1.97,4.01-2.96,6.01c0.14-13.19,2.16-26.19,5.61-36.08c1.67-4.8,3.92-9.1,6.44-8.89
	c4.32,0.36,7.47,13.47,11.76,12.19c0.98-0.29,2.08-2.05,1.97-4.53c-0.12-2.49-1.46-3.54-2.35-2.44s-1.4,3.47-1.83,5.73
	c-3.73,19.51-5.83,41.01-6.13,62.68c-0.06,4.19-0.01,8.7,0.97,12.07c0.94,3.24,2.7,4.8,4.23,3.75c1.53-1.06,2.74-4.66,2.9-8.66" />
    <path class="s2"
        d="M197.82,154.91c1.61,32.08,0.76,64.94-2.5,96.21c-0.97-1.64-1.18-5.21-0.79-8.01c0.39-2.79,1.24-4.99,2.07-7.09
	c6.09-15.46,12.18-30.92,18.26-46.38c1.93-4.91,3.9-9.93,5.13-16.13s1.61-13.88,0.32-19.99c-2.71,29.73-3.68,60.46-2.88,90.9" />
    <path class="s3"
        d="M231.33,177.32c1.35-5.7,3.27-10.74,5.7-13.28c2.43-2.54,5.39-2.25,7.5,1.71c1.4,2.63,2.31,6.6,2.97,10.69
	c2.53,15.81,1.35,35.02-2.94,48.17c-1.42,4.34-3.23,8.15-5.39,9.45c-2.16,1.3-4.71-0.45-5.91-5.2c-1.03-4.07-0.9-9.31-0.63-14.1
	c0.87-15.68,2.85-30.96,5.82-44.91" />
    <path class="s4"
        d="M255.63,201.62c6.54-5.59,13.11-11.22,19.14-19.22c6.03-8,11.56-18.56,15.14-32.19
	c1.58-6.03,2.69-14.24,0.71-19.64c-1.99-5.44-5.77-4.43-8.69-1.99c-6.27,5.24-11.8,14.91-15.64,27.32s-5.97,27.52-6.01,42.69
	c-0.02,6.4,0.34,12.92,1.54,18.71c1.2,5.79,3.32,10.79,6.01,12.71c3.45,2.46,7.16-0.39,10.54-3.28
	c18.17-15.51,36.01-33.06,53.43-52.55" />
</svg>