<?xml version="1.0" encoding="utf-8"?>
<!-- Generator: Adobe Illustrator 27.2.0, SVG Export Plug-In . SVG Version: 6.00 Build 0)  -->
<svg version="1.1" id="Слой_1" xmlns="http://www.w3.org/2000/svg" xmlns:xlink="http://www.w3.org/1999/xlink" x="0px" y="0px"
	 viewBox="0 0 1920 1080" style="enable-background:new 0 0 1920 1080;" xml:space="preserve">
<style type="text/css">
	.st0{fill:url(#SVGID_1_);}
	.st1{opacity:0.3;fill:url(#SVGID_00000171721636994497916170000001831660406244418730_);}
	.st2{fill:#BDE2EB;}
	.st3{fill:url(#SVGID_00000049197251424582530720000012843522288962974129_);}
	.st4{fill:url(#SVGID_00000003083587220517477150000004926160136082785409_);}
	.st5{fill:url(#SVGID_00000121973193248409803090000016337132934298734524_);}
</style>
<radialGradient id="SVGID_1_" cx="694.3473" cy="444.2348" r="1210.2723" gradientTransform="matrix(0.9514 0.3078 -0.2115 0.6538 127.6829 -59.9476)" gradientUnits="userSpaceOnUse">
	<stop  offset="0" style="stop-color:#110D0C"/>
	<stop  offset="0.6042" style="stop-color:#130E0C"/>
	<stop  offset="0.8216" style="stop-color:#1A100C"/>
	<stop  offset="0.9763" style="stop-color:#25130D"/>
	<stop  offset="1" style="stop-color:#28140D"/>
</radialGradient>
<rect x="-33.78" y="-19" class="st0" width="1987.56" height="1118"/>
<linearGradient id="SVGID_00000083802743071104483570000009199513389932512915_" gradientUnits="userSpaceOnUse" x1="-1595.8362" y1="1216.5101" x2="1672.8821" y2="3026.0308" gradientTransform="matrix(0.953 -0.3028 0.3028 0.953 768.9694 -1869.8442)">
	<stop  offset="0" style="stop-color:#D54736"/>
	<stop  offset="1" style="stop-color:#DFA93F"/>
</linearGradient>
<path style="opacity:0.3;fill:url(#SVGID_00000083802743071104483570000009199513389932512915_);" d="M1226.31-568.17
	C385.16-300.9-195.86,233.2-71.43,624.8c124.42,391.59,907.17,492.38,1748.31,225.12C2518.04,582.66,3099.06,48.55,2974.64-343.04
	C2850.21-734.64,2067.46-835.43,1226.31-568.17z M1724.33,672.83C1005.21,901.32,336.02,815.16,229.65,480.37
	S620-311.04,1339.12-539.53S2727.42-681.84,2833.8-347.06S2443.44,444.34,1724.33,672.83z"/>
<g>
	<path class="st2" d="M1266.97,457.69h-17.07c-18.78,0-35.51,16.73-45.76,35.17l5.8-32.1l-5.12-0.68l-18.1,101.75l-20.49,23.9h-7.17
		H1142c-13.66,0-22.88-14.68-26.97-32.1l77.17-91.51l-2.05-4.44h-65.22l8.54-48.15l-5.12-0.68l-8.54,48.83h-32.1v0.59
		c-3.2-0.56-6.27-0.59-8.53-0.59h-17.07c-27.66,0-51.22,36.19-55.66,62.14c-0.68,4.1-1.02,8.88-1.02,14.34l-44.05,51.56h-7.17
		h-34.14c-21.85,0-32.44-37.22-28.34-63.17h82.97l2.73-2.05l5.8-34.15c5.12-28.34-15.02-28.68-23.56-28.68H942.6
		c-27.66,0-51.22,36.19-55.66,62.14c-1.71,8.88-1.71,20.83,0.68,32.44l-28.68,33.46h-7.17H834.7c-13.66,0-22.88-14.68-26.98-32.1
		l55.66-65.9c5.46-6.49,9.22-11.27,12.29-15.02c3.41-3.76,5.46-6.49,6.83-8.88c2.73-3.07,3.76-7.51,4.44-11.61l3.07-17.07
		c4.78-28.34-15.37-28.68-23.56-28.68c-27.66,0-51.22,36.19-56,62.14l-8.88,51.22c-1.71,8.88-1.71,20.83,0.68,32.44l-28.68,33.46
		h-7.17h-34.14c-21.85,0-32.44-37.22-28.34-63.17h82.97l2.73-2.05l5.8-34.15c5.12-28.34-15.02-28.68-23.56-28.68H754.8
		c-27.66,0-51.22,36.19-55.66,62.14c-1.71,8.88-1.71,20.83,0.68,32.44l-23.28,27.27l34.56-195.61l-5.12-0.68l-17.76,101.75
		l-79.9,94.58l34.49-195.66l-4.44-2.05L487.45,561.15c-10.93,12.98-16.39,19.12-19.8,22.19c-1.71,1.37-2.73,2.05-3.76,2.39
		c-1.37,0-2.39,0-4.78,0v5.46c1.02,0,2.05,0,3.07-0.34c1.02,0,2.05,0,2.73-0.34c2.05-0.34,4.1-1.37,6.15-3.42
		c2.05-1.71,4.44-4.1,7.51-7.85c3.07-3.41,7.17-8.2,12.63-14.68l145.12-172.09l-34.49,195.65l4.44,2.05l80.24-95.27l-14.89,84.7
		l-0.14-0.02l-1.37,8.54l4.44,2.05l26.63-31.76c4.78,17.41,14.68,32.78,31.07,32.78h34.14h8.54h0.01v0l2.04-1.02l26.63-31.76
		c4.78,17.41,14.68,32.78,31.07,32.78h17.07h8.54h0v0l2.05-1.02l26.63-31.76c4.78,17.41,14.68,32.78,31.07,32.78h34.14h8.54h0.01v0
		l2.04-1.02l40.97-48.49c1.71,23.22,12.29,49.51,33.8,49.51h34.14h8.54h0.01v0l2.04-1.02l26.63-31.76
		c4.78,17.41,14.68,32.78,31.07,32.78h17.07h8.54h0v0l2.05-1.02l15.37-18.44l-2.73,16.39l4.78,0.68l12.29-68.29
		c4.44-25.27,26.97-57.71,50.54-57.71h17.07c4.44,0,9.9,0.34,14,3.07c3.76,2.39,6.83,7.51,4.78,19.8l4.78,0.68
		C1295.65,458.03,1275.51,457.69,1266.97,457.69z M942.6,462.81h17.07c4.44,0,9.9,0.34,14,3.07c3.76,2.39,6.83,7.51,4.78,19.8
		l-5.8,31.76H892.4C898.21,492.86,920.06,462.81,942.6,462.81z M754.8,462.81h17.07c4.44,0,9.9,0.34,14,3.07
		c3.76,2.39,6.83,7.51,4.78,19.8l-5.8,31.76h-80.24C710.42,492.86,732.27,462.81,754.8,462.81z M806.7,520.52l8.88-51.22
		c4.44-25.27,26.97-57.71,50.88-57.71c4.44,0,9.9,0.34,14,3.07c3.41,2.39,6.49,7.51,4.44,19.8l-3.07,17.07
		c-0.34,1.71-0.68,3.41-1.02,4.78c-0.34,1.37-1.02,2.73-2.39,4.78c-3.07,4.1-8.19,10.24-19.12,23.22l-52.93,62.83
		C804.99,537.94,804.99,528.72,806.7,520.52z M1062.1,462.81h3.07l-54.63,64.88c0.34-2.39,0.34-4.78,1.02-7.17
		C1016.01,495.25,1038.54,462.81,1062.1,462.81z M1080.88,585.74h-7.17h-34.14c-18.44,0-28.68-25.95-29.37-49.85l61.8-73.07h7.17
		c4.44,0,9.9,0.34,14,3.07c3.76,2.39,6.83,7.51,4.78,19.8l4.78,0.68c2.27-12.54-0.42-19.59-4.85-23.56h20.89l-9.9,57.02
		c-1.71,8.88-1.71,20.83,0.68,32.44L1080.88,585.74z M1114,520.52l9.9-57.36l60.78-0.34l-71.02,84.34
		C1112.29,537.94,1112.29,528.72,1114,520.52z"/>
	<path class="st2" d="M1479.69,458.72l-80.24,95.27l20.83-118.83l-5.12-0.68l-4.44,24.93l-42.68,50.54l4.1,3.41l8.64-10.32
		c1.21,8.93,1,17.91-0.1,25.34c-4.78,25.27-27.32,57.37-50.88,57.37c-22.54,0-32.78-39.27-28-65.22
		c4.44-25.27,26.98-57.71,50.54-57.71c2.39,0,4.44,0.68,6.49,1.37l2.05-4.78c-2.73-1.02-5.46-1.71-8.54-1.71
		c-27.66,0-51.22,36.19-55.66,62.14c-4.44,24.93,4.44,71.36,33.12,71.36c27.66,0,51.22-36.19,55.66-62.14
		c1.6-9.27,1.7-20.65-0.26-31.31l23.82-28.45l-20.83,118.83l5.12,0.68l4.44-24.93l79.56-94.58l-20.83,118.83l5.12,0.68l22.54-128.05
		L1479.69,458.72z"/>
</g>
<radialGradient id="SVGID_00000053528027385578873820000005903834108986892195_" cx="2090.4976" cy="352.8073" r="111.4942" gradientTransform="matrix(-1.2364 1.161 -0.9832 -1.0469 4806.9526 -1545.4636)" gradientUnits="userSpaceOnUse">
	<stop  offset="0" style="stop-color:#DFE7A6"/>
	<stop  offset="0.3525" style="stop-color:#DDE6A5"/>
	<stop  offset="0.5022" style="stop-color:#D6E4A3"/>
	<stop  offset="0.6136" style="stop-color:#C9E0A0"/>
	<stop  offset="0.7059" style="stop-color:#B8DA9A"/>
	<stop  offset="0.7865" style="stop-color:#A1D294"/>
	<stop  offset="0.8588" style="stop-color:#84C98B"/>
	<stop  offset="0.925" style="stop-color:#62BD81"/>
	<stop  offset="0.9847" style="stop-color:#3CB176"/>
	<stop  offset="1" style="stop-color:#31AD73"/>
</radialGradient>
<circle style="fill:url(#SVGID_00000053528027385578873820000005903834108986892195_);" cx="1811.07" cy="585.74" r="142.71"/>
<radialGradient id="SVGID_00000102519931068651123010000014786214005884055743_" cx="1451.65" cy="205.145" r="76.1737" gradientTransform="matrix(-1.2364 1.161 -0.9832 -1.0469 2788.4219 -1379.9325)" gradientUnits="userSpaceOnUse">
	<stop  offset="0" style="stop-color:#E87C7D"/>
	<stop  offset="0.4082" style="stop-color:#E67A7B"/>
	<stop  offset="0.5817" style="stop-color:#E17374"/>
	<stop  offset="0.7106" style="stop-color:#D76668"/>
	<stop  offset="0.8175" style="stop-color:#C95556"/>
	<stop  offset="0.9097" style="stop-color:#B73E40"/>
	<stop  offset="0.9922" style="stop-color:#A02225"/>
	<stop  offset="1" style="stop-color:#9E1F22"/>
</radialGradient>
<circle style="fill:url(#SVGID_00000102519931068651123010000014786214005884055743_);" cx="747.96" cy="140.88" r="97.5"/>
<radialGradient id="SVGID_00000155852136317927040850000017379980946519681163_" cx="333.1117" cy="832.6395" r="236.3021" gradientTransform="matrix(-0.729 0.6846 -0.5797 -0.6173 1058.6035 1118.5837)" gradientUnits="userSpaceOnUse">
	<stop  offset="0" style="stop-color:#BDE2EB"/>
	<stop  offset="0.3728" style="stop-color:#BBE1EA"/>
	<stop  offset="0.5312" style="stop-color:#B4DBE7"/>
	<stop  offset="0.6489" style="stop-color:#A7D2E2"/>
	<stop  offset="0.7466" style="stop-color:#96C6DB"/>
	<stop  offset="0.8317" style="stop-color:#7FB5D1"/>
	<stop  offset="0.9082" style="stop-color:#62A0C6"/>
	<stop  offset="0.9766" style="stop-color:#4189B8"/>
	<stop  offset="1" style="stop-color:#347FB3"/>
</radialGradient>
<circle style="fill:url(#SVGID_00000155852136317927040850000017379980946519681163_);" cx="252.6" cy="924.4" r="178.34"/>
</svg>
