<?xml version="1.0" encoding="utf-8"?>
<!-- Generator: Adobe Illustrator 27.2.0, SVG Export Plug-In . SVG Version: 6.00 Build 0)  -->
<svg version="1.1" id="Слой_1" xmlns="http://www.w3.org/2000/svg" xmlns:xlink="http://www.w3.org/1999/xlink" x="0px" y="0px"
	 viewBox="0 0 1920 1080" style="enable-background:new 0 0 1920 1080;" xml:space="preserve">
<style type="text/css">
	.st0{fill:#0000FF;}
</style>
<g>
	<path class="st0" d="M539.6,349.6h4h4h4h4h4h4h4h4h4h4h4h4h4v-4v-4h-4h-4h-4v-4v-4h-4v-4v-4v-4v-4v-4v-4h4h4v4h4v4h4h4h4h4h4h4h4
		v-4h4h4v-4h4v-4h4v-4h4v-4v-4h4v-4v-4v-4h4v-4v-4v-4v-4v-4h-4v-4v-4v-4h-4v-4h-4v-4v-4h-4h-4v-4h-4v-4h-4h-4h-4h-4h-4h-4h-4v4h-4
		h-4v4h-4v4h-4v-4v-4h-4h-4h-4h-4h-4h-4h-4h-4h-4h-4h-4v4v4h4h4v4h4h4v4v4v4v4v4v4v4v4v4v4v4v4v4v4v4v4v4v4v4v4v4v4h-4v4v4h-4h-4h-4
		v4v4h4H539.6z M583.6,245.6h4v-4h4h4h4v4h4h4v4v4v4h4v4v4v4v4v4v4v4v4h-4v4v4v4h-4h-4v4h-4h-4h-4v-4h-4v-4h-4v-4v-4h-4v-4v-4v-4v-4
		v-4v-4v-4v-4h4v-4v-4h4V245.6z"/>
	<path class="st0" d="M967.6,309.6h4v4h4v4h4h4h4h4h4h4h4h4v-4h4h4v-4h4h4v-4h4v4v4h4v4h4h4h4h4h4v-4h4h4v-4h4v-4v-4h-4h-4h-4v-4h-4
		v-4v-4v-4v-4v-4v-4v-4v-4v-4v-4v-4v-4v-4v-4h-4v-4h-4v-4h-4h-4h-4v-4h-4h-4h-4h-4h-4h-4h-4h-4h-4v4h-4h-4h-4v4h-4h-4v4v4h-4v4v4h4
		v4v4h4v4h4h4h4h4v-4h4v-4v-4v-4v-4v-4h4v-4h4h4h4v4h4h4v4v4v4v4v4v4h-4h-4h-4h-4v4h-4h-4h-4v4h-4h-4h-4v4h-4h-4v4h-4v4v4h-4v4v4v4
		v4h4V309.6z M999.6,281.6h4v-4h4h4v-4h4h4v4v4v4v4v4v4h-4v4h-4v4h-4h-4h-4v-4h-4v-4v-4h-4v-4h4v-4v-4H999.6z"/>
	<polygon class="st0" points="759.6,369.6 755.6,369.6 751.6,369.6 747.6,369.6 743.6,369.6 743.6,373.6 743.6,377.6 747.6,377.6 
		751.6,377.6 751.6,381.6 751.6,385.6 755.6,385.6 755.6,389.6 755.6,393.6 755.6,397.6 755.6,401.6 755.6,405.6 755.6,409.6 
		755.6,413.6 755.6,417.6 755.6,421.6 755.6,425.6 755.6,429.6 755.6,433.6 751.6,433.6 751.6,437.6 751.6,441.6 747.6,441.6 
		743.6,441.6 743.6,445.6 743.6,449.6 747.6,449.6 751.6,449.6 755.6,449.6 759.6,449.6 763.6,449.6 767.6,449.6 771.6,449.6 
		775.6,449.6 779.6,449.6 783.6,449.6 787.6,449.6 791.6,449.6 795.6,449.6 795.6,445.6 795.6,441.6 791.6,441.6 787.6,441.6 
		783.6,441.6 783.6,437.6 783.6,433.6 787.6,433.6 787.6,429.6 787.6,425.6 791.6,425.6 791.6,421.6 795.6,421.6 795.6,417.6 
		799.6,417.6 799.6,413.6 803.6,413.6 803.6,409.6 807.6,409.6 807.6,405.6 811.6,405.6 811.6,401.6 815.6,401.6 815.6,405.6 
		815.6,409.6 815.6,413.6 815.6,417.6 815.6,421.6 815.6,425.6 815.6,429.6 815.6,433.6 811.6,433.6 811.6,437.6 811.6,441.6 
		807.6,441.6 803.6,441.6 803.6,445.6 803.6,449.6 807.6,449.6 811.6,449.6 815.6,449.6 819.6,449.6 823.6,449.6 827.6,449.6 
		831.6,449.6 835.6,449.6 839.6,449.6 843.6,449.6 847.6,449.6 851.6,449.6 855.6,449.6 855.6,445.6 855.6,441.6 851.6,441.6 
		847.6,441.6 847.6,437.6 847.6,433.6 843.6,433.6 843.6,429.6 843.6,425.6 843.6,421.6 843.6,417.6 843.6,413.6 843.6,409.6 
		843.6,405.6 843.6,401.6 843.6,397.6 843.6,393.6 843.6,389.6 843.6,385.6 847.6,385.6 847.6,381.6 847.6,377.6 851.6,377.6 
		855.6,377.6 855.6,373.6 855.6,369.6 851.6,369.6 847.6,369.6 843.6,369.6 839.6,369.6 835.6,369.6 831.6,369.6 827.6,369.6 
		823.6,369.6 819.6,369.6 815.6,369.6 811.6,369.6 807.6,369.6 803.6,369.6 803.6,373.6 803.6,377.6 807.6,377.6 811.6,377.6 
		815.6,377.6 815.6,381.6 815.6,385.6 811.6,385.6 811.6,389.6 811.6,393.6 807.6,393.6 807.6,397.6 803.6,397.6 803.6,401.6 
		799.6,401.6 799.6,405.6 795.6,405.6 795.6,409.6 791.6,409.6 791.6,413.6 787.6,413.6 787.6,417.6 783.6,417.6 783.6,413.6 
		783.6,409.6 783.6,405.6 783.6,401.6 783.6,397.6 783.6,393.6 783.6,389.6 783.6,385.6 787.6,385.6 787.6,381.6 787.6,377.6 
		791.6,377.6 795.6,377.6 795.6,373.6 795.6,369.6 791.6,369.6 787.6,369.6 783.6,369.6 779.6,369.6 775.6,369.6 771.6,369.6 
		767.6,369.6 763.6,369.6 	"/>
	<polygon class="st0" points="599.6,721.6 603.6,721.6 607.6,721.6 611.6,721.6 615.6,721.6 615.6,717.6 615.6,713.6 611.6,713.6 
		607.6,713.6 603.6,713.6 603.6,709.6 603.6,705.6 607.6,705.6 607.6,701.6 607.6,697.6 611.6,697.6 611.6,693.6 615.6,693.6 
		615.6,689.6 619.6,689.6 619.6,685.6 623.6,685.6 623.6,681.6 627.6,681.6 627.6,677.6 631.6,677.6 631.6,673.6 635.6,673.6 
		635.6,677.6 635.6,681.6 635.6,685.6 635.6,689.6 635.6,693.6 635.6,697.6 635.6,701.6 635.6,705.6 631.6,705.6 631.6,709.6 
		631.6,713.6 627.6,713.6 623.6,713.6 623.6,717.6 623.6,721.6 627.6,721.6 631.6,721.6 635.6,721.6 639.6,721.6 643.6,721.6 
		647.6,721.6 651.6,721.6 655.6,721.6 659.6,721.6 663.6,721.6 667.6,721.6 671.6,721.6 675.6,721.6 675.6,717.6 675.6,713.6 
		671.6,713.6 667.6,713.6 667.6,709.6 667.6,705.6 663.6,705.6 663.6,701.6 663.6,697.6 663.6,693.6 663.6,689.6 663.6,685.6 
		663.6,681.6 663.6,677.6 663.6,673.6 663.6,669.6 663.6,665.6 663.6,661.6 663.6,657.6 667.6,657.6 667.6,653.6 667.6,649.6 
		671.6,649.6 675.6,649.6 675.6,645.6 675.6,641.6 671.6,641.6 667.6,641.6 663.6,641.6 659.6,641.6 655.6,641.6 651.6,641.6 
		647.6,641.6 643.6,641.6 639.6,641.6 635.6,641.6 631.6,641.6 627.6,641.6 623.6,641.6 623.6,645.6 623.6,649.6 627.6,649.6 
		631.6,649.6 635.6,649.6 635.6,653.6 635.6,657.6 631.6,657.6 631.6,661.6 631.6,665.6 627.6,665.6 627.6,669.6 623.6,669.6 
		623.6,673.6 619.6,673.6 619.6,677.6 615.6,677.6 615.6,681.6 611.6,681.6 611.6,685.6 607.6,685.6 607.6,689.6 603.6,689.6 
		603.6,685.6 603.6,681.6 603.6,677.6 603.6,673.6 603.6,669.6 603.6,665.6 603.6,661.6 603.6,657.6 607.6,657.6 607.6,653.6 
		607.6,649.6 611.6,649.6 615.6,649.6 615.6,645.6 615.6,641.6 611.6,641.6 607.6,641.6 603.6,641.6 599.6,641.6 595.6,641.6 
		591.6,641.6 587.6,641.6 583.6,641.6 579.6,641.6 575.6,641.6 571.6,641.6 567.6,641.6 563.6,641.6 563.6,645.6 563.6,649.6 
		567.6,649.6 571.6,649.6 571.6,653.6 571.6,657.6 575.6,657.6 575.6,661.6 575.6,665.6 575.6,669.6 575.6,673.6 575.6,677.6 
		575.6,681.6 575.6,685.6 575.6,689.6 575.6,693.6 575.6,697.6 575.6,701.6 575.6,705.6 571.6,705.6 571.6,709.6 571.6,713.6 
		567.6,713.6 563.6,713.6 563.6,717.6 563.6,721.6 567.6,721.6 571.6,721.6 575.6,721.6 579.6,721.6 583.6,721.6 587.6,721.6 
		591.6,721.6 595.6,721.6 	"/>
	<polygon class="st0" points="659.6,313.6 663.6,313.6 667.6,313.6 671.6,313.6 675.6,313.6 679.6,313.6 683.6,313.6 687.6,313.6 
		691.6,313.6 695.6,313.6 699.6,313.6 703.6,313.6 703.6,309.6 703.6,305.6 699.6,305.6 695.6,305.6 691.6,305.6 691.6,301.6 
		691.6,297.6 695.6,297.6 695.6,293.6 695.6,289.6 699.6,289.6 699.6,285.6 703.6,285.6 703.6,281.6 707.6,281.6 707.6,277.6 
		711.6,277.6 711.6,273.6 715.6,273.6 715.6,269.6 719.6,269.6 719.6,265.6 723.6,265.6 723.6,269.6 723.6,273.6 723.6,277.6 
		723.6,281.6 723.6,285.6 723.6,289.6 723.6,293.6 723.6,297.6 719.6,297.6 719.6,301.6 719.6,305.6 715.6,305.6 711.6,305.6 
		711.6,309.6 711.6,313.6 715.6,313.6 719.6,313.6 723.6,313.6 727.6,313.6 731.6,313.6 735.6,313.6 739.6,313.6 743.6,313.6 
		747.6,313.6 751.6,313.6 755.6,313.6 759.6,313.6 763.6,313.6 763.6,309.6 763.6,305.6 759.6,305.6 755.6,305.6 755.6,301.6 
		755.6,297.6 751.6,297.6 751.6,293.6 751.6,289.6 751.6,285.6 751.6,281.6 751.6,277.6 751.6,273.6 751.6,269.6 751.6,265.6 
		751.6,261.6 751.6,257.6 751.6,253.6 751.6,249.6 755.6,249.6 755.6,245.6 755.6,241.6 759.6,241.6 763.6,241.6 763.6,237.6 
		763.6,233.6 759.6,233.6 755.6,233.6 751.6,233.6 747.6,233.6 743.6,233.6 739.6,233.6 735.6,233.6 731.6,233.6 727.6,233.6 
		723.6,233.6 719.6,233.6 715.6,233.6 711.6,233.6 711.6,237.6 711.6,241.6 715.6,241.6 719.6,241.6 723.6,241.6 723.6,245.6 
		723.6,249.6 719.6,249.6 719.6,253.6 719.6,257.6 715.6,257.6 715.6,261.6 711.6,261.6 711.6,265.6 707.6,265.6 707.6,269.6 
		703.6,269.6 703.6,273.6 699.6,273.6 699.6,277.6 695.6,277.6 695.6,281.6 691.6,281.6 691.6,277.6 691.6,273.6 691.6,269.6 
		691.6,265.6 691.6,261.6 691.6,257.6 691.6,253.6 691.6,249.6 695.6,249.6 695.6,245.6 695.6,241.6 699.6,241.6 703.6,241.6 
		703.6,237.6 703.6,233.6 699.6,233.6 695.6,233.6 691.6,233.6 687.6,233.6 683.6,233.6 679.6,233.6 675.6,233.6 671.6,233.6 
		667.6,233.6 663.6,233.6 659.6,233.6 655.6,233.6 651.6,233.6 651.6,237.6 651.6,241.6 655.6,241.6 659.6,241.6 659.6,245.6 
		659.6,249.6 663.6,249.6 663.6,253.6 663.6,257.6 663.6,261.6 663.6,265.6 663.6,269.6 663.6,273.6 663.6,277.6 663.6,281.6 
		663.6,285.6 663.6,289.6 663.6,293.6 663.6,297.6 659.6,297.6 659.6,301.6 659.6,305.6 655.6,305.6 651.6,305.6 651.6,309.6 
		651.6,313.6 655.6,313.6 	"/>
	<polygon class="st0" points="1179.6,369.6 1175.6,369.6 1175.6,373.6 1175.6,377.6 1179.6,377.6 1183.6,377.6 1183.6,381.6 
		1183.6,385.6 1187.6,385.6 1187.6,389.6 1187.6,393.6 1187.6,397.6 1187.6,401.6 1187.6,405.6 1187.6,409.6 1187.6,413.6 
		1187.6,417.6 1187.6,421.6 1187.6,425.6 1187.6,429.6 1187.6,433.6 1183.6,433.6 1183.6,437.6 1183.6,441.6 1179.6,441.6 
		1175.6,441.6 1175.6,445.6 1175.6,449.6 1179.6,449.6 1183.6,449.6 1187.6,449.6 1191.6,449.6 1195.6,449.6 1199.6,449.6 
		1203.6,449.6 1207.6,449.6 1211.6,449.6 1215.6,449.6 1219.6,449.6 1223.6,449.6 1227.6,449.6 1227.6,445.6 1227.6,441.6 
		1223.6,441.6 1219.6,441.6 1215.6,441.6 1215.6,437.6 1215.6,433.6 1219.6,433.6 1219.6,429.6 1219.6,425.6 1223.6,425.6 
		1223.6,421.6 1227.6,421.6 1227.6,417.6 1231.6,417.6 1231.6,413.6 1235.6,413.6 1235.6,409.6 1239.6,409.6 1239.6,405.6 
		1243.6,405.6 1243.6,401.6 1247.6,401.6 1247.6,405.6 1247.6,409.6 1247.6,413.6 1247.6,417.6 1247.6,421.6 1247.6,425.6 
		1247.6,429.6 1247.6,433.6 1243.6,433.6 1243.6,437.6 1243.6,441.6 1239.6,441.6 1235.6,441.6 1235.6,445.6 1235.6,449.6 
		1239.6,449.6 1243.6,449.6 1247.6,449.6 1251.6,449.6 1255.6,449.6 1259.6,449.6 1263.6,449.6 1267.6,449.6 1271.6,449.6 
		1275.6,449.6 1279.6,449.6 1283.6,449.6 1287.6,449.6 1287.6,445.6 1287.6,441.6 1283.6,441.6 1279.6,441.6 1279.6,437.6 
		1279.6,433.6 1275.6,433.6 1275.6,429.6 1275.6,425.6 1275.6,421.6 1275.6,417.6 1275.6,413.6 1275.6,409.6 1275.6,405.6 
		1275.6,401.6 1275.6,397.6 1275.6,393.6 1275.6,389.6 1275.6,385.6 1279.6,385.6 1279.6,381.6 1279.6,377.6 1283.6,377.6 
		1287.6,377.6 1287.6,373.6 1287.6,369.6 1283.6,369.6 1279.6,369.6 1275.6,369.6 1271.6,369.6 1267.6,369.6 1263.6,369.6 
		1259.6,369.6 1255.6,369.6 1251.6,369.6 1247.6,369.6 1243.6,369.6 1239.6,369.6 1235.6,369.6 1235.6,373.6 1235.6,377.6 
		1239.6,377.6 1243.6,377.6 1247.6,377.6 1247.6,381.6 1247.6,385.6 1243.6,385.6 1243.6,389.6 1243.6,393.6 1239.6,393.6 
		1239.6,397.6 1235.6,397.6 1235.6,401.6 1231.6,401.6 1231.6,405.6 1227.6,405.6 1227.6,409.6 1223.6,409.6 1223.6,413.6 
		1219.6,413.6 1219.6,417.6 1215.6,417.6 1215.6,413.6 1215.6,409.6 1215.6,405.6 1215.6,401.6 1215.6,397.6 1215.6,393.6 
		1215.6,389.6 1215.6,385.6 1219.6,385.6 1219.6,381.6 1219.6,377.6 1223.6,377.6 1227.6,377.6 1227.6,373.6 1227.6,369.6 
		1223.6,369.6 1219.6,369.6 1215.6,369.6 1211.6,369.6 1207.6,369.6 1203.6,369.6 1199.6,369.6 1195.6,369.6 1191.6,369.6 
		1187.6,369.6 1183.6,369.6 	"/>
	<polygon class="st0" points="1371.6,449.6 1375.6,449.6 1379.6,449.6 1383.6,449.6 1387.6,449.6 1391.6,449.6 1395.6,449.6 
		1399.6,449.6 1403.6,449.6 1407.6,449.6 1407.6,445.6 1407.6,441.6 1403.6,441.6 1399.6,441.6 1399.6,437.6 1399.6,433.6 
		1395.6,433.6 1395.6,429.6 1395.6,425.6 1395.6,421.6 1395.6,417.6 1395.6,413.6 1395.6,409.6 1395.6,405.6 1395.6,401.6 
		1395.6,397.6 1395.6,393.6 1395.6,389.6 1395.6,385.6 1399.6,385.6 1399.6,381.6 1399.6,377.6 1403.6,377.6 1407.6,377.6 
		1407.6,373.6 1407.6,369.6 1403.6,369.6 1399.6,369.6 1395.6,369.6 1391.6,369.6 1387.6,369.6 1383.6,369.6 1379.6,369.6 
		1375.6,369.6 1371.6,369.6 1367.6,369.6 1363.6,369.6 1359.6,369.6 1355.6,369.6 1355.6,373.6 1355.6,377.6 1359.6,377.6 
		1363.6,377.6 1367.6,377.6 1367.6,381.6 1367.6,385.6 1363.6,385.6 1363.6,389.6 1363.6,393.6 1359.6,393.6 1359.6,397.6 
		1355.6,397.6 1355.6,401.6 1351.6,401.6 1351.6,405.6 1347.6,405.6 1347.6,409.6 1343.6,409.6 1343.6,413.6 1339.6,413.6 
		1339.6,417.6 1335.6,417.6 1335.6,413.6 1335.6,409.6 1335.6,405.6 1335.6,401.6 1335.6,397.6 1335.6,393.6 1335.6,389.6 
		1335.6,385.6 1339.6,385.6 1339.6,381.6 1339.6,377.6 1343.6,377.6 1347.6,377.6 1347.6,373.6 1347.6,369.6 1343.6,369.6 
		1339.6,369.6 1335.6,369.6 1331.6,369.6 1327.6,369.6 1323.6,369.6 1319.6,369.6 1315.6,369.6 1311.6,369.6 1307.6,369.6 
		1303.6,369.6 1299.6,369.6 1295.6,369.6 1295.6,373.6 1295.6,377.6 1299.6,377.6 1303.6,377.6 1303.6,381.6 1303.6,385.6 
		1307.6,385.6 1307.6,389.6 1307.6,393.6 1307.6,397.6 1307.6,401.6 1307.6,405.6 1307.6,409.6 1307.6,413.6 1307.6,417.6 
		1307.6,421.6 1307.6,425.6 1307.6,429.6 1307.6,433.6 1303.6,433.6 1303.6,437.6 1303.6,441.6 1299.6,441.6 1295.6,441.6 
		1295.6,445.6 1295.6,449.6 1299.6,449.6 1303.6,449.6 1307.6,449.6 1311.6,449.6 1315.6,449.6 1319.6,449.6 1323.6,449.6 
		1327.6,449.6 1331.6,449.6 1335.6,449.6 1339.6,449.6 1343.6,449.6 1347.6,449.6 1347.6,445.6 1347.6,441.6 1343.6,441.6 
		1339.6,441.6 1335.6,441.6 1335.6,437.6 1335.6,433.6 1339.6,433.6 1339.6,429.6 1339.6,425.6 1343.6,425.6 1343.6,421.6 
		1347.6,421.6 1347.6,417.6 1351.6,417.6 1351.6,413.6 1355.6,413.6 1355.6,409.6 1359.6,409.6 1359.6,405.6 1363.6,405.6 
		1363.6,401.6 1367.6,401.6 1367.6,405.6 1367.6,409.6 1367.6,413.6 1367.6,417.6 1367.6,421.6 1367.6,425.6 1367.6,429.6 
		1367.6,433.6 1363.6,433.6 1363.6,437.6 1363.6,441.6 1359.6,441.6 1355.6,441.6 1355.6,445.6 1355.6,449.6 1359.6,449.6 
		1363.6,449.6 1367.6,449.6 	"/>
	<polygon class="st0" points="643.6,373.6 643.6,377.6 647.6,377.6 651.6,377.6 651.6,381.6 655.6,381.6 659.6,381.6 659.6,385.6 
		659.6,389.6 659.6,393.6 659.6,397.6 659.6,401.6 659.6,405.6 659.6,409.6 659.6,413.6 659.6,417.6 659.6,421.6 659.6,425.6 
		655.6,425.6 655.6,429.6 655.6,433.6 655.6,437.6 651.6,437.6 651.6,441.6 647.6,441.6 647.6,437.6 647.6,433.6 647.6,429.6 
		647.6,425.6 643.6,425.6 643.6,421.6 639.6,421.6 635.6,421.6 635.6,425.6 631.6,425.6 627.6,425.6 627.6,429.6 623.6,429.6 
		623.6,433.6 623.6,437.6 623.6,441.6 623.6,445.6 627.6,445.6 627.6,449.6 631.6,449.6 631.6,453.6 635.6,453.6 639.6,453.6 
		643.6,453.6 647.6,453.6 651.6,453.6 655.6,453.6 655.6,449.6 659.6,449.6 659.6,445.6 663.6,445.6 663.6,441.6 667.6,441.6 
		667.6,437.6 667.6,433.6 667.6,429.6 667.6,425.6 667.6,421.6 667.6,417.6 671.6,417.6 671.6,413.6 671.6,409.6 671.6,405.6 
		671.6,401.6 671.6,397.6 671.6,393.6 671.6,389.6 671.6,385.6 671.6,381.6 675.6,381.6 675.6,377.6 679.6,377.6 683.6,377.6 
		687.6,377.6 691.6,377.6 691.6,381.6 695.6,381.6 695.6,385.6 695.6,389.6 695.6,393.6 695.6,397.6 695.6,401.6 695.6,405.6 
		695.6,409.6 695.6,413.6 695.6,417.6 695.6,421.6 695.6,425.6 695.6,429.6 695.6,433.6 691.6,433.6 691.6,437.6 691.6,441.6 
		687.6,441.6 683.6,441.6 683.6,445.6 683.6,449.6 687.6,449.6 691.6,449.6 695.6,449.6 699.6,449.6 703.6,449.6 707.6,449.6 
		711.6,449.6 715.6,449.6 719.6,449.6 723.6,449.6 727.6,449.6 731.6,449.6 735.6,449.6 735.6,445.6 735.6,441.6 731.6,441.6 
		727.6,441.6 727.6,437.6 727.6,433.6 723.6,433.6 723.6,429.6 723.6,425.6 723.6,421.6 723.6,417.6 723.6,413.6 723.6,409.6 
		723.6,405.6 723.6,401.6 723.6,397.6 723.6,393.6 723.6,389.6 723.6,385.6 727.6,385.6 727.6,381.6 727.6,377.6 731.6,377.6 
		735.6,377.6 735.6,373.6 735.6,369.6 731.6,369.6 727.6,369.6 723.6,369.6 719.6,369.6 715.6,369.6 711.6,369.6 707.6,369.6 
		703.6,369.6 699.6,369.6 695.6,369.6 691.6,369.6 687.6,369.6 683.6,369.6 679.6,369.6 675.6,369.6 671.6,369.6 667.6,369.6 
		663.6,369.6 659.6,369.6 655.6,369.6 651.6,369.6 647.6,369.6 643.6,369.6 	"/>
	<polygon class="st0" points="1075.6,313.6 1079.6,313.6 1079.6,317.6 1083.6,317.6 1087.6,317.6 1091.6,317.6 1095.6,317.6 
		1099.6,317.6 1103.6,317.6 1103.6,313.6 1107.6,313.6 1107.6,309.6 1111.6,309.6 1111.6,305.6 1115.6,305.6 1115.6,301.6 
		1115.6,297.6 1115.6,293.6 1115.6,289.6 1115.6,285.6 1115.6,281.6 1119.6,281.6 1119.6,277.6 1119.6,273.6 1119.6,269.6 
		1119.6,265.6 1119.6,261.6 1119.6,257.6 1119.6,253.6 1119.6,249.6 1119.6,245.6 1123.6,245.6 1123.6,241.6 1127.6,241.6 
		1131.6,241.6 1135.6,241.6 1139.6,241.6 1139.6,245.6 1143.6,245.6 1143.6,249.6 1143.6,253.6 1143.6,257.6 1143.6,261.6 
		1143.6,265.6 1143.6,269.6 1143.6,273.6 1143.6,277.6 1143.6,281.6 1143.6,285.6 1143.6,289.6 1143.6,293.6 1143.6,297.6 
		1139.6,297.6 1139.6,301.6 1139.6,305.6 1135.6,305.6 1131.6,305.6 1131.6,309.6 1131.6,313.6 1135.6,313.6 1139.6,313.6 
		1143.6,313.6 1147.6,313.6 1151.6,313.6 1155.6,313.6 1159.6,313.6 1163.6,313.6 1167.6,313.6 1171.6,313.6 1175.6,313.6 
		1179.6,313.6 1183.6,313.6 1183.6,309.6 1183.6,305.6 1179.6,305.6 1175.6,305.6 1175.6,301.6 1175.6,297.6 1171.6,297.6 
		1171.6,293.6 1171.6,289.6 1171.6,285.6 1171.6,281.6 1171.6,277.6 1171.6,273.6 1171.6,269.6 1171.6,265.6 1171.6,261.6 
		1171.6,257.6 1171.6,253.6 1171.6,249.6 1175.6,249.6 1175.6,245.6 1175.6,241.6 1179.6,241.6 1183.6,241.6 1183.6,237.6 
		1183.6,233.6 1179.6,233.6 1175.6,233.6 1171.6,233.6 1167.6,233.6 1163.6,233.6 1159.6,233.6 1155.6,233.6 1151.6,233.6 
		1147.6,233.6 1143.6,233.6 1139.6,233.6 1135.6,233.6 1131.6,233.6 1127.6,233.6 1123.6,233.6 1119.6,233.6 1115.6,233.6 
		1111.6,233.6 1107.6,233.6 1103.6,233.6 1099.6,233.6 1095.6,233.6 1091.6,233.6 1091.6,237.6 1091.6,241.6 1095.6,241.6 
		1099.6,241.6 1099.6,245.6 1103.6,245.6 1107.6,245.6 1107.6,249.6 1107.6,253.6 1107.6,257.6 1107.6,261.6 1107.6,265.6 
		1107.6,269.6 1107.6,273.6 1107.6,277.6 1107.6,281.6 1107.6,285.6 1107.6,289.6 1103.6,289.6 1103.6,293.6 1103.6,297.6 
		1103.6,301.6 1099.6,301.6 1099.6,305.6 1095.6,305.6 1095.6,301.6 1095.6,297.6 1095.6,293.6 1095.6,289.6 1091.6,289.6 
		1091.6,285.6 1087.6,285.6 1083.6,285.6 1083.6,289.6 1079.6,289.6 1075.6,289.6 1075.6,293.6 1071.6,293.6 1071.6,297.6 
		1071.6,301.6 1071.6,305.6 1071.6,309.6 1075.6,309.6 	"/>
	<polygon class="st0" points="1207.6,277.6 1211.6,277.6 1215.6,277.6 1219.6,277.6 1223.6,277.6 1227.6,277.6 1231.6,277.6 
		1235.6,277.6 1239.6,277.6 1243.6,277.6 1247.6,277.6 1251.6,277.6 1255.6,277.6 1259.6,277.6 1263.6,277.6 1267.6,277.6 
		1271.6,277.6 1275.6,277.6 1279.6,277.6 1279.6,273.6 1279.6,269.6 1279.6,265.6 1275.6,265.6 1271.6,265.6 1267.6,265.6 
		1263.6,265.6 1259.6,265.6 1255.6,265.6 1251.6,265.6 1247.6,265.6 1243.6,265.6 1239.6,265.6 1235.6,265.6 1231.6,265.6 
		1227.6,265.6 1223.6,265.6 1219.6,265.6 1215.6,265.6 1211.6,265.6 1207.6,265.6 1203.6,265.6 1199.6,265.6 1199.6,269.6 
		1199.6,273.6 1199.6,277.6 1203.6,277.6 	"/>
	<polygon class="st0" points="871.6,265.6 875.6,265.6 875.6,261.6 875.6,257.6 875.6,253.6 879.6,253.6 879.6,249.6 883.6,249.6 
		883.6,245.6 887.6,245.6 887.6,241.6 891.6,241.6 891.6,245.6 895.6,245.6 895.6,249.6 899.6,249.6 899.6,253.6 899.6,257.6 
		899.6,261.6 899.6,265.6 899.6,269.6 899.6,273.6 899.6,277.6 899.6,281.6 899.6,285.6 899.6,289.6 899.6,293.6 899.6,297.6 
		899.6,301.6 895.6,301.6 895.6,305.6 891.6,305.6 887.6,305.6 887.6,309.6 887.6,313.6 891.6,313.6 895.6,313.6 899.6,313.6 
		903.6,313.6 907.6,313.6 911.6,313.6 915.6,313.6 919.6,313.6 923.6,313.6 927.6,313.6 931.6,313.6 935.6,313.6 939.6,313.6 
		939.6,309.6 939.6,305.6 935.6,305.6 931.6,305.6 931.6,301.6 927.6,301.6 927.6,297.6 927.6,293.6 927.6,289.6 927.6,285.6 
		927.6,281.6 927.6,277.6 927.6,273.6 927.6,269.6 927.6,265.6 927.6,261.6 927.6,257.6 927.6,253.6 927.6,249.6 931.6,249.6 
		931.6,245.6 935.6,245.6 935.6,241.6 939.6,241.6 939.6,245.6 943.6,245.6 943.6,249.6 947.6,249.6 947.6,253.6 951.6,253.6 
		951.6,257.6 951.6,261.6 951.6,265.6 955.6,265.6 955.6,269.6 959.6,269.6 959.6,265.6 959.6,261.6 959.6,257.6 959.6,253.6 
		959.6,249.6 959.6,245.6 959.6,241.6 959.6,237.6 959.6,233.6 955.6,233.6 951.6,233.6 947.6,233.6 943.6,233.6 939.6,233.6 
		935.6,233.6 931.6,233.6 927.6,233.6 923.6,233.6 919.6,233.6 915.6,233.6 911.6,233.6 907.6,233.6 903.6,233.6 899.6,233.6 
		895.6,233.6 891.6,233.6 887.6,233.6 883.6,233.6 879.6,233.6 875.6,233.6 871.6,233.6 867.6,233.6 867.6,237.6 867.6,241.6 
		867.6,245.6 867.6,249.6 867.6,253.6 867.6,257.6 867.6,261.6 867.6,265.6 867.6,269.6 871.6,269.6 	"/>
	<polygon class="st0" points="503.6,317.6 507.6,317.6 511.6,317.6 511.6,313.6 515.6,313.6 519.6,313.6 519.6,309.6 523.6,309.6 
		523.6,305.6 523.6,301.6 523.6,297.6 527.6,297.6 527.6,293.6 527.6,289.6 527.6,285.6 527.6,281.6 523.6,281.6 519.6,281.6 
		519.6,285.6 519.6,289.6 519.6,293.6 515.6,293.6 515.6,297.6 511.6,297.6 507.6,297.6 507.6,293.6 503.6,293.6 503.6,289.6 
		503.6,285.6 503.6,281.6 503.6,277.6 499.6,277.6 499.6,273.6 499.6,269.6 495.6,269.6 495.6,265.6 495.6,261.6 491.6,261.6 
		491.6,257.6 487.6,257.6 487.6,253.6 483.6,253.6 479.6,253.6 475.6,253.6 475.6,249.6 471.6,249.6 471.6,245.6 475.6,245.6 
		475.6,241.6 479.6,241.6 479.6,237.6 483.6,237.6 483.6,233.6 483.6,229.6 483.6,225.6 483.6,221.6 483.6,217.6 487.6,217.6 
		487.6,213.6 487.6,209.6 487.6,205.6 487.6,201.6 491.6,201.6 491.6,197.6 495.6,197.6 499.6,197.6 499.6,201.6 495.6,201.6 
		495.6,205.6 495.6,209.6 495.6,213.6 495.6,217.6 499.6,217.6 503.6,217.6 503.6,221.6 507.6,221.6 511.6,221.6 515.6,221.6 
		515.6,217.6 519.6,217.6 519.6,213.6 519.6,209.6 523.6,209.6 523.6,205.6 523.6,201.6 523.6,197.6 519.6,197.6 519.6,193.6 
		515.6,193.6 515.6,189.6 511.6,189.6 511.6,185.6 507.6,185.6 503.6,185.6 499.6,185.6 495.6,185.6 491.6,185.6 491.6,189.6 
		487.6,189.6 483.6,189.6 483.6,193.6 479.6,193.6 479.6,197.6 479.6,201.6 479.6,205.6 475.6,205.6 475.6,209.6 475.6,213.6 
		475.6,217.6 475.6,221.6 471.6,221.6 471.6,225.6 471.6,229.6 471.6,233.6 471.6,237.6 467.6,237.6 467.6,241.6 463.6,241.6 
		459.6,241.6 459.6,245.6 455.6,245.6 451.6,245.6 447.6,245.6 443.6,245.6 443.6,241.6 443.6,237.6 443.6,233.6 443.6,229.6 
		443.6,225.6 443.6,221.6 443.6,217.6 443.6,213.6 443.6,209.6 443.6,205.6 447.6,205.6 447.6,201.6 447.6,197.6 451.6,197.6 
		455.6,197.6 459.6,197.6 463.6,197.6 463.6,193.6 463.6,189.6 459.6,189.6 455.6,189.6 451.6,189.6 447.6,189.6 443.6,189.6 
		439.6,189.6 435.6,189.6 431.6,189.6 427.6,189.6 423.6,189.6 419.6,189.6 415.6,189.6 411.6,189.6 407.6,189.6 403.6,189.6 
		399.6,189.6 395.6,189.6 395.6,193.6 395.6,197.6 399.6,197.6 403.6,197.6 407.6,197.6 411.6,197.6 411.6,201.6 411.6,205.6 
		415.6,205.6 415.6,209.6 415.6,213.6 415.6,217.6 415.6,221.6 415.6,225.6 415.6,229.6 415.6,233.6 415.6,237.6 415.6,241.6 
		415.6,245.6 415.6,249.6 415.6,253.6 415.6,257.6 415.6,261.6 415.6,265.6 415.6,269.6 415.6,273.6 415.6,277.6 415.6,281.6 
		415.6,285.6 415.6,289.6 415.6,293.6 415.6,297.6 411.6,297.6 411.6,301.6 411.6,305.6 407.6,305.6 403.6,305.6 399.6,305.6 
		395.6,305.6 395.6,309.6 395.6,313.6 399.6,313.6 403.6,313.6 407.6,313.6 411.6,313.6 415.6,313.6 419.6,313.6 423.6,313.6 
		427.6,313.6 431.6,313.6 435.6,313.6 439.6,313.6 443.6,313.6 447.6,313.6 451.6,313.6 455.6,313.6 459.6,313.6 463.6,313.6 
		463.6,309.6 463.6,305.6 459.6,305.6 455.6,305.6 451.6,305.6 447.6,305.6 447.6,301.6 447.6,297.6 443.6,297.6 443.6,293.6 
		443.6,289.6 443.6,285.6 443.6,281.6 443.6,277.6 443.6,273.6 443.6,269.6 443.6,265.6 443.6,261.6 443.6,257.6 443.6,253.6 
		447.6,253.6 447.6,257.6 451.6,257.6 455.6,257.6 459.6,257.6 463.6,257.6 463.6,261.6 467.6,261.6 467.6,265.6 471.6,265.6 
		471.6,269.6 471.6,273.6 475.6,273.6 475.6,277.6 475.6,281.6 475.6,285.6 475.6,289.6 479.6,289.6 479.6,293.6 479.6,297.6 
		479.6,301.6 479.6,305.6 483.6,305.6 483.6,309.6 487.6,309.6 487.6,313.6 491.6,313.6 491.6,317.6 495.6,317.6 499.6,317.6 	"/>
	<polygon class="st0" points="919.6,453.6 919.6,449.6 923.6,449.6 927.6,449.6 931.6,449.6 931.6,445.6 935.6,445.6 935.6,441.6 
		939.6,441.6 939.6,437.6 939.6,433.6 939.6,429.6 939.6,425.6 939.6,421.6 935.6,421.6 935.6,417.6 935.6,413.6 931.6,413.6 
		927.6,413.6 923.6,413.6 923.6,409.6 927.6,409.6 927.6,405.6 931.6,405.6 931.6,401.6 935.6,401.6 939.6,401.6 939.6,397.6 
		939.6,393.6 939.6,389.6 939.6,385.6 939.6,381.6 939.6,377.6 935.6,377.6 935.6,373.6 931.6,373.6 931.6,369.6 927.6,369.6 
		923.6,369.6 923.6,365.6 919.6,365.6 915.6,365.6 911.6,365.6 907.6,365.6 903.6,365.6 899.6,365.6 895.6,365.6 891.6,365.6 
		891.6,369.6 887.6,369.6 883.6,369.6 883.6,373.6 879.6,373.6 879.6,369.6 875.6,369.6 875.6,365.6 871.6,365.6 867.6,365.6 
		867.6,369.6 867.6,373.6 867.6,377.6 867.6,381.6 867.6,385.6 867.6,389.6 867.6,393.6 871.6,393.6 871.6,397.6 875.6,397.6 
		875.6,393.6 875.6,389.6 879.6,389.6 879.6,385.6 879.6,381.6 883.6,381.6 883.6,377.6 887.6,377.6 891.6,377.6 895.6,377.6 
		895.6,373.6 899.6,373.6 903.6,373.6 903.6,377.6 907.6,377.6 907.6,381.6 907.6,385.6 911.6,385.6 911.6,389.6 911.6,393.6 
		907.6,393.6 907.6,397.6 907.6,401.6 903.6,401.6 899.6,401.6 899.6,405.6 895.6,405.6 891.6,405.6 891.6,409.6 891.6,413.6 
		895.6,413.6 899.6,413.6 899.6,417.6 903.6,417.6 907.6,417.6 907.6,421.6 907.6,425.6 911.6,425.6 911.6,429.6 911.6,433.6 
		907.6,433.6 907.6,437.6 907.6,441.6 903.6,441.6 899.6,441.6 899.6,445.6 895.6,445.6 891.6,445.6 891.6,441.6 887.6,441.6 
		887.6,437.6 887.6,433.6 891.6,433.6 891.6,429.6 891.6,425.6 891.6,421.6 887.6,421.6 887.6,417.6 883.6,417.6 879.6,417.6 
		879.6,413.6 875.6,413.6 871.6,413.6 871.6,417.6 867.6,417.6 863.6,417.6 863.6,421.6 863.6,425.6 859.6,425.6 859.6,429.6 
		859.6,433.6 863.6,433.6 863.6,437.6 863.6,441.6 867.6,441.6 867.6,445.6 871.6,445.6 871.6,449.6 875.6,449.6 879.6,449.6 
		879.6,453.6 883.6,453.6 887.6,453.6 891.6,453.6 895.6,453.6 899.6,453.6 903.6,453.6 907.6,453.6 911.6,453.6 915.6,453.6 	"/>
	<polygon class="st0" points="691.6,717.6 691.6,721.6 695.6,721.6 699.6,721.6 699.6,725.6 703.6,725.6 707.6,725.6 711.6,725.6 
		715.6,725.6 719.6,725.6 723.6,725.6 727.6,725.6 731.6,725.6 735.6,725.6 739.6,725.6 739.6,721.6 743.6,721.6 747.6,721.6 
		751.6,721.6 751.6,717.6 755.6,717.6 755.6,713.6 759.6,713.6 759.6,709.6 759.6,705.6 759.6,701.6 759.6,697.6 759.6,693.6 
		755.6,693.6 755.6,689.6 755.6,685.6 751.6,685.6 747.6,685.6 743.6,685.6 743.6,681.6 747.6,681.6 747.6,677.6 751.6,677.6 
		751.6,673.6 755.6,673.6 759.6,673.6 759.6,669.6 759.6,665.6 759.6,661.6 759.6,657.6 759.6,653.6 759.6,649.6 755.6,649.6 
		755.6,645.6 751.6,645.6 751.6,641.6 747.6,641.6 743.6,641.6 743.6,637.6 739.6,637.6 735.6,637.6 731.6,637.6 727.6,637.6 
		723.6,637.6 719.6,637.6 715.6,637.6 711.6,637.6 711.6,641.6 707.6,641.6 703.6,641.6 703.6,645.6 699.6,645.6 699.6,641.6 
		695.6,641.6 695.6,637.6 691.6,637.6 687.6,637.6 687.6,641.6 687.6,645.6 687.6,649.6 687.6,653.6 687.6,657.6 687.6,661.6 
		687.6,665.6 691.6,665.6 691.6,669.6 695.6,669.6 695.6,665.6 695.6,661.6 699.6,661.6 699.6,657.6 699.6,653.6 703.6,653.6 
		703.6,649.6 707.6,649.6 711.6,649.6 715.6,649.6 715.6,645.6 719.6,645.6 723.6,645.6 723.6,649.6 727.6,649.6 727.6,653.6 
		727.6,657.6 731.6,657.6 731.6,661.6 731.6,665.6 727.6,665.6 727.6,669.6 727.6,673.6 723.6,673.6 719.6,673.6 719.6,677.6 
		715.6,677.6 711.6,677.6 711.6,681.6 711.6,685.6 715.6,685.6 719.6,685.6 719.6,689.6 723.6,689.6 727.6,689.6 727.6,693.6 
		727.6,697.6 731.6,697.6 731.6,701.6 731.6,705.6 727.6,705.6 727.6,709.6 727.6,713.6 723.6,713.6 719.6,713.6 719.6,717.6 
		715.6,717.6 711.6,717.6 711.6,713.6 707.6,713.6 707.6,709.6 707.6,705.6 711.6,705.6 711.6,701.6 711.6,697.6 711.6,693.6 
		707.6,693.6 707.6,689.6 703.6,689.6 699.6,689.6 699.6,685.6 695.6,685.6 691.6,685.6 691.6,689.6 687.6,689.6 683.6,689.6 
		683.6,693.6 683.6,697.6 679.6,697.6 679.6,701.6 679.6,705.6 683.6,705.6 683.6,709.6 683.6,713.6 687.6,713.6 687.6,717.6 	"/>
	<polygon class="st0" points="979.6,541.6 983.6,541.6 987.6,541.6 991.6,541.6 995.6,541.6 995.6,537.6 999.6,537.6 999.6,533.6 
		999.6,529.6 999.6,525.6 999.6,521.6 999.6,517.6 995.6,517.6 995.6,513.6 995.6,509.6 991.6,509.6 987.6,509.6 987.6,505.6 
		983.6,505.6 979.6,505.6 975.6,505.6 975.6,501.6 971.6,501.6 967.6,501.6 963.6,501.6 963.6,505.6 959.6,505.6 955.6,505.6 
		951.6,505.6 947.6,505.6 947.6,509.6 943.6,509.6 943.6,513.6 939.6,513.6 935.6,513.6 935.6,517.6 931.6,517.6 931.6,521.6 
		927.6,521.6 927.6,525.6 923.6,525.6 923.6,529.6 923.6,533.6 919.6,533.6 919.6,537.6 919.6,541.6 915.6,541.6 915.6,545.6 
		915.6,549.6 915.6,553.6 915.6,557.6 915.6,561.6 915.6,565.6 915.6,569.6 919.6,569.6 919.6,573.6 919.6,577.6 923.6,577.6 
		923.6,581.6 927.6,581.6 927.6,585.6 931.6,585.6 935.6,585.6 935.6,589.6 939.6,589.6 943.6,589.6 947.6,589.6 951.6,589.6 
		955.6,589.6 959.6,589.6 963.6,589.6 967.6,589.6 967.6,585.6 971.6,585.6 975.6,585.6 975.6,581.6 979.6,581.6 979.6,577.6 
		983.6,577.6 983.6,573.6 987.6,573.6 987.6,569.6 991.6,569.6 991.6,565.6 987.6,565.6 987.6,561.6 983.6,561.6 983.6,565.6 
		979.6,565.6 979.6,569.6 975.6,569.6 975.6,573.6 971.6,573.6 971.6,577.6 967.6,577.6 963.6,577.6 959.6,577.6 959.6,581.6 
		955.6,581.6 955.6,577.6 951.6,577.6 947.6,577.6 947.6,573.6 947.6,569.6 943.6,569.6 943.6,565.6 943.6,561.6 943.6,557.6 
		943.6,553.6 943.6,549.6 947.6,549.6 947.6,545.6 947.6,541.6 947.6,537.6 951.6,537.6 951.6,533.6 951.6,529.6 951.6,525.6 
		955.6,525.6 955.6,521.6 959.6,521.6 959.6,517.6 963.6,517.6 963.6,513.6 967.6,513.6 971.6,513.6 975.6,513.6 979.6,513.6 
		979.6,517.6 975.6,517.6 975.6,521.6 971.6,521.6 971.6,525.6 971.6,529.6 971.6,533.6 971.6,537.6 975.6,537.6 975.6,541.6 	"/>
	<polygon class="st0" points="1031.6,589.6 1035.6,589.6 1039.6,589.6 1043.6,589.6 1047.6,589.6 1051.6,589.6 1055.6,589.6 
		1059.6,589.6 1063.6,589.6 1063.6,585.6 1067.6,585.6 1071.6,585.6 1071.6,581.6 1075.6,581.6 1075.6,577.6 1079.6,577.6 
		1079.6,573.6 1083.6,573.6 1083.6,569.6 1087.6,569.6 1087.6,565.6 1083.6,565.6 1083.6,561.6 1079.6,561.6 1079.6,565.6 
		1075.6,565.6 1075.6,569.6 1071.6,569.6 1071.6,573.6 1067.6,573.6 1067.6,577.6 1063.6,577.6 1059.6,577.6 1055.6,577.6 
		1055.6,581.6 1051.6,581.6 1051.6,577.6 1047.6,577.6 1043.6,577.6 1043.6,573.6 1043.6,569.6 1039.6,569.6 1039.6,565.6 
		1039.6,561.6 1039.6,557.6 1039.6,553.6 1039.6,549.6 1043.6,549.6 1043.6,545.6 1043.6,541.6 1043.6,537.6 1047.6,537.6 
		1047.6,533.6 1047.6,529.6 1047.6,525.6 1051.6,525.6 1051.6,521.6 1055.6,521.6 1055.6,517.6 1059.6,517.6 1059.6,513.6 
		1063.6,513.6 1067.6,513.6 1071.6,513.6 1075.6,513.6 1075.6,517.6 1071.6,517.6 1071.6,521.6 1067.6,521.6 1067.6,525.6 
		1067.6,529.6 1067.6,533.6 1067.6,537.6 1071.6,537.6 1071.6,541.6 1075.6,541.6 1079.6,541.6 1083.6,541.6 1087.6,541.6 
		1091.6,541.6 1091.6,537.6 1095.6,537.6 1095.6,533.6 1095.6,529.6 1095.6,525.6 1095.6,521.6 1095.6,517.6 1091.6,517.6 
		1091.6,513.6 1091.6,509.6 1087.6,509.6 1083.6,509.6 1083.6,505.6 1079.6,505.6 1075.6,505.6 1071.6,505.6 1071.6,501.6 
		1067.6,501.6 1063.6,501.6 1059.6,501.6 1059.6,505.6 1055.6,505.6 1051.6,505.6 1047.6,505.6 1043.6,505.6 1043.6,509.6 
		1039.6,509.6 1039.6,513.6 1035.6,513.6 1031.6,513.6 1031.6,517.6 1027.6,517.6 1027.6,521.6 1023.6,521.6 1023.6,525.6 
		1019.6,525.6 1019.6,529.6 1019.6,533.6 1015.6,533.6 1015.6,537.6 1015.6,541.6 1011.6,541.6 1011.6,545.6 1011.6,549.6 
		1011.6,553.6 1011.6,557.6 1011.6,561.6 1011.6,565.6 1011.6,569.6 1015.6,569.6 1015.6,573.6 1015.6,577.6 1019.6,577.6 
		1019.6,581.6 1023.6,581.6 1023.6,585.6 1027.6,585.6 1031.6,585.6 	"/>
	<polygon class="st0" points="679.6,541.6 683.6,541.6 687.6,541.6 691.6,541.6 695.6,541.6 695.6,537.6 699.6,537.6 699.6,533.6 
		699.6,529.6 699.6,525.6 699.6,521.6 699.6,517.6 695.6,517.6 695.6,513.6 695.6,509.6 691.6,509.6 687.6,509.6 687.6,505.6 
		683.6,505.6 679.6,505.6 675.6,505.6 675.6,501.6 671.6,501.6 667.6,501.6 663.6,501.6 663.6,505.6 659.6,505.6 655.6,505.6 
		651.6,505.6 647.6,505.6 647.6,509.6 643.6,509.6 643.6,513.6 639.6,513.6 635.6,513.6 635.6,517.6 631.6,517.6 631.6,521.6 
		627.6,521.6 627.6,525.6 623.6,525.6 623.6,529.6 623.6,533.6 619.6,533.6 619.6,537.6 619.6,541.6 615.6,541.6 615.6,545.6 
		615.6,549.6 615.6,553.6 615.6,557.6 615.6,561.6 615.6,565.6 615.6,569.6 619.6,569.6 619.6,573.6 619.6,577.6 623.6,577.6 
		623.6,581.6 627.6,581.6 627.6,585.6 631.6,585.6 635.6,585.6 635.6,589.6 639.6,589.6 643.6,589.6 647.6,589.6 651.6,589.6 
		655.6,589.6 659.6,589.6 663.6,589.6 667.6,589.6 667.6,585.6 671.6,585.6 675.6,585.6 675.6,581.6 679.6,581.6 679.6,577.6 
		683.6,577.6 683.6,573.6 687.6,573.6 687.6,569.6 691.6,569.6 691.6,565.6 687.6,565.6 687.6,561.6 683.6,561.6 683.6,565.6 
		679.6,565.6 679.6,569.6 675.6,569.6 675.6,573.6 671.6,573.6 671.6,577.6 667.6,577.6 663.6,577.6 659.6,577.6 659.6,581.6 
		655.6,581.6 655.6,577.6 651.6,577.6 647.6,577.6 647.6,573.6 647.6,569.6 643.6,569.6 643.6,565.6 643.6,561.6 643.6,557.6 
		643.6,553.6 643.6,549.6 647.6,549.6 647.6,545.6 647.6,541.6 647.6,537.6 651.6,537.6 651.6,533.6 651.6,529.6 651.6,525.6 
		655.6,525.6 655.6,521.6 659.6,521.6 659.6,517.6 663.6,517.6 663.6,513.6 667.6,513.6 671.6,513.6 675.6,513.6 679.6,513.6 
		679.6,517.6 675.6,517.6 675.6,521.6 671.6,521.6 671.6,525.6 671.6,529.6 671.6,533.6 671.6,537.6 675.6,537.6 675.6,541.6 	"/>
	<polygon class="st0" points="523.6,505.6 519.6,505.6 515.6,505.6 511.6,505.6 507.6,505.6 503.6,505.6 499.6,505.6 499.6,509.6 
		499.6,513.6 503.6,513.6 507.6,513.6 507.6,517.6 511.6,517.6 511.6,521.6 511.6,525.6 511.6,529.6 507.6,529.6 507.6,533.6 
		507.6,537.6 507.6,541.6 507.6,545.6 503.6,545.6 503.6,549.6 503.6,553.6 503.6,557.6 499.6,557.6 499.6,561.6 499.6,565.6 
		499.6,569.6 499.6,573.6 499.6,577.6 503.6,577.6 503.6,581.6 503.6,585.6 507.6,585.6 507.6,589.6 511.6,589.6 515.6,589.6 
		519.6,589.6 523.6,589.6 527.6,589.6 531.6,589.6 531.6,585.6 535.6,585.6 539.6,585.6 539.6,581.6 543.6,581.6 543.6,577.6 
		547.6,577.6 547.6,573.6 551.6,573.6 551.6,577.6 551.6,581.6 551.6,585.6 555.6,585.6 555.6,589.6 559.6,589.6 563.6,589.6 
		567.6,589.6 571.6,589.6 575.6,589.6 579.6,589.6 579.6,585.6 583.6,585.6 587.6,585.6 587.6,581.6 591.6,581.6 591.6,577.6 
		595.6,577.6 595.6,573.6 599.6,573.6 599.6,569.6 603.6,569.6 603.6,565.6 599.6,565.6 599.6,561.6 595.6,561.6 595.6,565.6 
		591.6,565.6 591.6,569.6 587.6,569.6 587.6,573.6 583.6,573.6 579.6,573.6 579.6,569.6 579.6,565.6 579.6,561.6 583.6,561.6 
		583.6,557.6 583.6,553.6 583.6,549.6 587.6,549.6 587.6,545.6 587.6,541.6 587.6,537.6 591.6,537.6 591.6,533.6 591.6,529.6 
		591.6,525.6 591.6,521.6 595.6,521.6 595.6,517.6 595.6,513.6 595.6,509.6 599.6,509.6 599.6,505.6 595.6,505.6 591.6,505.6 
		587.6,505.6 583.6,505.6 579.6,505.6 575.6,505.6 571.6,505.6 571.6,509.6 567.6,509.6 567.6,513.6 567.6,517.6 567.6,521.6 
		563.6,521.6 563.6,525.6 563.6,529.6 563.6,533.6 563.6,537.6 559.6,537.6 559.6,541.6 559.6,545.6 555.6,545.6 555.6,549.6 
		555.6,553.6 551.6,553.6 551.6,557.6 551.6,561.6 547.6,561.6 547.6,565.6 543.6,565.6 543.6,569.6 539.6,569.6 539.6,573.6 
		535.6,573.6 531.6,573.6 527.6,573.6 527.6,569.6 527.6,565.6 527.6,561.6 527.6,557.6 531.6,557.6 531.6,553.6 531.6,549.6 
		531.6,545.6 535.6,545.6 535.6,541.6 535.6,537.6 535.6,533.6 539.6,533.6 539.6,529.6 539.6,525.6 539.6,521.6 539.6,517.6 
		543.6,517.6 543.6,513.6 543.6,509.6 543.6,505.6 539.6,505.6 535.6,505.6 531.6,505.6 527.6,505.6 	"/>
	<path class="st0" d="M1287.6,517.6h-4v4h-4v4h-4v4v4h-4v4v4h-4v4v4v4v4v4v4v4h4v4v4h4v4h4v4h4h4v4h4h4h4h4h4h4h4h4h4v-4h4h4v-4h4h4
		v-4h4v-4h4v-4h4v-4v-4v-4v-4v-4h-4v-4h-4v-4h-4v-4h4v-4h4h4v-4v-4h4v-4v-4h-4v-4v-4h-4h-4v-4h-4h-4h-4h-4v-4h-4h-4h-4v4h-4h-4h-4
		h-4v4h-4v4h-4h-4V517.6z M1323.6,513.6h4v4v4v4v4h-4v4h-4v4h-4h-4v4h-4h-4h-4v-4h4v-4v-4v-4h4v-4h4v-4h4v-4h4H1323.6z
		 M1315.6,577.6h-4v4h-4v-4h-4h-4v-4v-4h-4v-4v-4v-4v-4h4h4v-4h4h4h4h4h4v4v4v4v4v4h-4v4v4H1315.6z"/>
	<polygon class="st0" points="1259.6,565.6 1255.6,565.6 1255.6,561.6 1251.6,561.6 1251.6,565.6 1247.6,565.6 1247.6,569.6 
		1243.6,569.6 1243.6,573.6 1239.6,573.6 1235.6,573.6 1231.6,573.6 1231.6,569.6 1235.6,569.6 1235.6,565.6 1235.6,561.6 
		1239.6,561.6 1239.6,557.6 1239.6,553.6 1239.6,549.6 1243.6,549.6 1243.6,545.6 1243.6,541.6 1243.6,537.6 1247.6,537.6 
		1247.6,533.6 1247.6,529.6 1247.6,525.6 1247.6,521.6 1247.6,517.6 1247.6,513.6 1247.6,509.6 1243.6,509.6 1243.6,505.6 
		1239.6,505.6 1235.6,505.6 1235.6,501.6 1231.6,501.6 1227.6,501.6 1227.6,505.6 1223.6,505.6 1219.6,505.6 1215.6,505.6 
		1215.6,509.6 1211.6,509.6 1207.6,509.6 1207.6,513.6 1203.6,513.6 1203.6,517.6 1199.6,517.6 1195.6,517.6 1195.6,513.6 
		1195.6,509.6 1191.6,509.6 1191.6,505.6 1187.6,505.6 1183.6,505.6 1183.6,501.6 1179.6,501.6 1175.6,501.6 1171.6,501.6 
		1171.6,505.6 1167.6,505.6 1163.6,505.6 1163.6,509.6 1159.6,509.6 1155.6,509.6 1155.6,513.6 1151.6,513.6 1151.6,517.6 
		1151.6,521.6 1147.6,521.6 1147.6,517.6 1147.6,513.6 1147.6,509.6 1147.6,505.6 1143.6,505.6 1139.6,505.6 1135.6,505.6 
		1131.6,505.6 1127.6,505.6 1123.6,505.6 1119.6,505.6 1115.6,505.6 1111.6,505.6 1107.6,505.6 1107.6,509.6 1103.6,509.6 
		1103.6,513.6 1107.6,513.6 1111.6,513.6 1115.6,513.6 1115.6,517.6 1119.6,517.6 1119.6,521.6 1119.6,525.6 1119.6,529.6 
		1115.6,529.6 1115.6,533.6 1115.6,537.6 1115.6,541.6 1111.6,541.6 1111.6,545.6 1111.6,549.6 1111.6,553.6 1111.6,557.6 
		1107.6,557.6 1107.6,561.6 1107.6,565.6 1107.6,569.6 1103.6,569.6 1103.6,573.6 1103.6,577.6 1103.6,581.6 1103.6,585.6 
		1107.6,585.6 1111.6,585.6 1115.6,585.6 1119.6,585.6 1123.6,585.6 1127.6,585.6 1127.6,581.6 1131.6,581.6 1131.6,577.6 
		1131.6,573.6 1131.6,569.6 1135.6,569.6 1135.6,565.6 1135.6,561.6 1135.6,557.6 1139.6,557.6 1139.6,553.6 1139.6,549.6 
		1139.6,545.6 1143.6,545.6 1143.6,541.6 1143.6,537.6 1147.6,537.6 1147.6,533.6 1151.6,533.6 1151.6,529.6 1155.6,529.6 
		1155.6,525.6 1155.6,521.6 1159.6,521.6 1163.6,521.6 1163.6,517.6 1167.6,517.6 1167.6,521.6 1167.6,525.6 1167.6,529.6 
		1167.6,533.6 1167.6,537.6 1167.6,541.6 1163.6,541.6 1163.6,545.6 1163.6,549.6 1163.6,553.6 1159.6,553.6 1159.6,557.6 
		1159.6,561.6 1159.6,565.6 1155.6,565.6 1155.6,569.6 1155.6,573.6 1155.6,577.6 1155.6,581.6 1155.6,585.6 1159.6,585.6 
		1163.6,585.6 1167.6,585.6 1171.6,585.6 1175.6,585.6 1179.6,585.6 1179.6,581.6 1183.6,581.6 1183.6,577.6 1183.6,573.6 
		1183.6,569.6 1187.6,569.6 1187.6,565.6 1187.6,561.6 1187.6,557.6 1187.6,553.6 1191.6,553.6 1191.6,549.6 1191.6,545.6 
		1195.6,545.6 1195.6,541.6 1195.6,537.6 1199.6,537.6 1199.6,533.6 1199.6,529.6 1203.6,529.6 1203.6,525.6 1207.6,525.6 
		1207.6,521.6 1211.6,521.6 1215.6,521.6 1215.6,517.6 1219.6,517.6 1219.6,521.6 1223.6,521.6 1223.6,525.6 1219.6,525.6 
		1219.6,529.6 1219.6,533.6 1219.6,537.6 1219.6,541.6 1215.6,541.6 1215.6,545.6 1215.6,549.6 1211.6,549.6 1211.6,553.6 
		1211.6,557.6 1211.6,561.6 1207.6,561.6 1207.6,565.6 1207.6,569.6 1207.6,573.6 1207.6,577.6 1207.6,581.6 1211.6,581.6 
		1211.6,585.6 1211.6,589.6 1215.6,589.6 1219.6,589.6 1223.6,589.6 1227.6,589.6 1231.6,589.6 1235.6,589.6 1235.6,585.6 
		1239.6,585.6 1243.6,585.6 1243.6,581.6 1247.6,581.6 1247.6,577.6 1251.6,577.6 1251.6,573.6 1255.6,573.6 1255.6,569.6 
		1259.6,569.6 	"/>
	<path class="st0" d="M1475.6,565.6v-4h-4v4h-4v4h-4v4h-4h-4h-4v-4v-4h4v-4v-4v-4v-4h4v-4v-4v-4h4v-4v-4v-4h4v-4v-4v-4v-4h4v-4h-4
		h-4h-4h-4h-4h-4v4h-4h-4h-4v-4h-4h-4h-4v-4h-4h-4h-4v4h-4h-4h-4v4h-4v4h-4h-4v4h-4v4h-4v4v4h-4v4h-4v4v4v4h-4v4v4v4v4v4h4v4v4v4h4
		v4h4v4h4v4h4h4h4h4h4h4h4v-4h4h4v-4h4v-4h4v4v4h4v4h4h4h4h4h4h4v-4h4h4v-4h4v-4h4v-4h4v-4h4v-4H1475.6z M1419.6,573.6h-4v4h-4h-4
		h-4h-4v-4v-4v-4h-4v-4v-4h4v-4v-4v-4v-4h4v-4v-4v-4h4v-4v-4h4v-4h4v-4h4h4h4h4v4h4v4v4v4v4v4h-4v4v4v4h-4v4v4v4h-4v4v4h-4V573.6z"
		/>
	<polygon class="st0" points="903.6,505.6 899.6,505.6 895.6,505.6 891.6,505.6 891.6,509.6 887.6,509.6 887.6,513.6 887.6,517.6 
		887.6,521.6 891.6,521.6 891.6,525.6 891.6,529.6 895.6,529.6 895.6,533.6 895.6,537.6 891.6,537.6 891.6,541.6 891.6,545.6 
		891.6,549.6 887.6,549.6 887.6,553.6 887.6,557.6 883.6,557.6 879.6,557.6 879.6,553.6 879.6,549.6 879.6,545.6 875.6,545.6 
		875.6,541.6 875.6,537.6 875.6,533.6 875.6,529.6 871.6,529.6 871.6,525.6 871.6,521.6 871.6,517.6 867.6,517.6 867.6,513.6 
		867.6,509.6 863.6,509.6 863.6,505.6 859.6,505.6 855.6,505.6 851.6,505.6 847.6,505.6 843.6,505.6 839.6,505.6 839.6,509.6 
		835.6,509.6 835.6,513.6 831.6,513.6 831.6,517.6 831.6,521.6 827.6,521.6 827.6,525.6 827.6,529.6 827.6,533.6 823.6,533.6 
		823.6,537.6 823.6,541.6 827.6,541.6 831.6,541.6 831.6,537.6 835.6,537.6 835.6,533.6 835.6,529.6 835.6,525.6 839.6,525.6 
		843.6,525.6 843.6,529.6 847.6,529.6 847.6,533.6 847.6,537.6 847.6,541.6 851.6,541.6 851.6,545.6 851.6,549.6 851.6,553.6 
		851.6,557.6 855.6,557.6 855.6,561.6 855.6,565.6 855.6,569.6 859.6,569.6 859.6,573.6 859.6,577.6 859.6,581.6 859.6,585.6 
		863.6,585.6 863.6,589.6 863.6,593.6 859.6,593.6 859.6,597.6 859.6,601.6 855.6,601.6 855.6,605.6 851.6,605.6 851.6,609.6 
		847.6,609.6 843.6,609.6 843.6,613.6 839.6,613.6 835.6,613.6 835.6,609.6 839.6,609.6 839.6,605.6 839.6,601.6 835.6,601.6 
		835.6,597.6 831.6,597.6 827.6,597.6 827.6,593.6 823.6,593.6 819.6,593.6 819.6,597.6 815.6,597.6 815.6,601.6 815.6,605.6 
		811.6,605.6 811.6,609.6 811.6,613.6 815.6,613.6 815.6,617.6 819.6,617.6 819.6,621.6 823.6,621.6 827.6,621.6 827.6,625.6 
		831.6,625.6 835.6,625.6 839.6,625.6 839.6,621.6 843.6,621.6 847.6,621.6 847.6,617.6 851.6,617.6 855.6,617.6 855.6,613.6 
		859.6,613.6 859.6,609.6 863.6,609.6 863.6,605.6 863.6,601.6 867.6,601.6 867.6,597.6 871.6,597.6 871.6,593.6 875.6,593.6 
		875.6,589.6 875.6,585.6 879.6,585.6 879.6,581.6 883.6,581.6 883.6,577.6 883.6,573.6 887.6,573.6 887.6,569.6 891.6,569.6 
		891.6,565.6 891.6,561.6 895.6,561.6 895.6,557.6 895.6,553.6 899.6,553.6 899.6,549.6 899.6,545.6 903.6,545.6 903.6,541.6 
		903.6,537.6 907.6,537.6 907.6,533.6 907.6,529.6 907.6,525.6 911.6,525.6 911.6,521.6 911.6,517.6 911.6,513.6 911.6,509.6 
		911.6,505.6 907.6,505.6 	"/>
	<polygon class="st0" points="811.6,569.6 811.6,565.6 811.6,561.6 807.6,561.6 803.6,561.6 803.6,565.6 803.6,569.6 799.6,569.6 
		799.6,573.6 795.6,573.6 795.6,577.6 791.6,577.6 791.6,573.6 791.6,569.6 787.6,569.6 787.6,565.6 787.6,561.6 787.6,557.6 
		787.6,553.6 783.6,553.6 783.6,549.6 779.6,549.6 779.6,545.6 775.6,545.6 771.6,545.6 771.6,541.6 775.6,541.6 775.6,537.6 
		779.6,537.6 779.6,533.6 779.6,529.6 783.6,529.6 783.6,525.6 787.6,525.6 787.6,521.6 791.6,521.6 795.6,521.6 795.6,525.6 
		795.6,529.6 799.6,529.6 803.6,529.6 803.6,533.6 807.6,533.6 811.6,533.6 811.6,529.6 815.6,529.6 815.6,525.6 815.6,521.6 
		819.6,521.6 819.6,517.6 819.6,513.6 815.6,513.6 815.6,509.6 815.6,505.6 811.6,505.6 807.6,505.6 807.6,501.6 803.6,501.6 
		799.6,501.6 795.6,501.6 795.6,505.6 791.6,505.6 787.6,505.6 787.6,509.6 783.6,509.6 783.6,513.6 779.6,513.6 779.6,517.6 
		779.6,521.6 775.6,521.6 775.6,525.6 771.6,525.6 771.6,529.6 771.6,533.6 767.6,533.6 767.6,537.6 763.6,537.6 763.6,541.6 
		759.6,541.6 755.6,541.6 751.6,541.6 751.6,537.6 751.6,533.6 755.6,533.6 755.6,529.6 755.6,525.6 755.6,521.6 759.6,521.6 
		759.6,517.6 759.6,513.6 759.6,509.6 759.6,505.6 755.6,505.6 751.6,505.6 747.6,505.6 743.6,505.6 739.6,505.6 735.6,505.6 
		731.6,505.6 727.6,505.6 723.6,505.6 719.6,505.6 715.6,505.6 715.6,509.6 715.6,513.6 719.6,513.6 723.6,513.6 723.6,517.6 
		727.6,517.6 727.6,521.6 727.6,525.6 727.6,529.6 727.6,533.6 723.6,533.6 723.6,537.6 723.6,541.6 723.6,545.6 719.6,545.6 
		719.6,549.6 719.6,553.6 719.6,557.6 719.6,561.6 715.6,561.6 715.6,565.6 715.6,569.6 715.6,573.6 711.6,573.6 711.6,577.6 
		711.6,581.6 711.6,585.6 715.6,585.6 719.6,585.6 723.6,585.6 727.6,585.6 731.6,585.6 735.6,585.6 739.6,585.6 739.6,581.6 
		739.6,577.6 739.6,573.6 743.6,573.6 743.6,569.6 743.6,565.6 743.6,561.6 747.6,561.6 747.6,557.6 747.6,553.6 751.6,553.6 
		755.6,553.6 755.6,549.6 759.6,549.6 759.6,553.6 763.6,553.6 763.6,557.6 763.6,561.6 763.6,565.6 763.6,569.6 763.6,573.6 
		763.6,577.6 763.6,581.6 767.6,581.6 767.6,585.6 771.6,585.6 771.6,589.6 775.6,589.6 779.6,589.6 783.6,589.6 787.6,589.6 
		791.6,589.6 795.6,589.6 795.6,585.6 799.6,585.6 799.6,581.6 803.6,581.6 803.6,577.6 807.6,577.6 807.6,573.6 811.6,573.6 	"/>
	<polygon class="st0" points="795.6,777.6 791.6,777.6 787.6,777.6 783.6,777.6 779.6,777.6 775.6,777.6 771.6,777.6 767.6,777.6 
		763.6,777.6 759.6,777.6 755.6,777.6 751.6,777.6 747.6,777.6 743.6,777.6 739.6,777.6 735.6,777.6 731.6,777.6 727.6,777.6 
		723.6,777.6 719.6,777.6 715.6,777.6 711.6,777.6 707.6,777.6 703.6,777.6 699.6,777.6 695.6,777.6 691.6,777.6 691.6,781.6 
		691.6,785.6 695.6,785.6 699.6,785.6 699.6,789.6 699.6,793.6 703.6,793.6 703.6,797.6 703.6,801.6 703.6,805.6 703.6,809.6 
		703.6,813.6 703.6,817.6 703.6,821.6 703.6,825.6 703.6,829.6 703.6,833.6 703.6,837.6 703.6,841.6 699.6,841.6 699.6,845.6 
		699.6,849.6 695.6,849.6 691.6,849.6 691.6,853.6 691.6,857.6 695.6,857.6 699.6,857.6 703.6,857.6 707.6,857.6 711.6,857.6 
		715.6,857.6 719.6,857.6 723.6,857.6 727.6,857.6 731.6,857.6 735.6,857.6 739.6,857.6 743.6,857.6 743.6,853.6 743.6,849.6 
		739.6,849.6 735.6,849.6 735.6,845.6 735.6,841.6 731.6,841.6 731.6,837.6 731.6,833.6 731.6,829.6 731.6,825.6 731.6,821.6 
		731.6,817.6 731.6,813.6 731.6,809.6 731.6,805.6 731.6,801.6 731.6,797.6 731.6,793.6 731.6,789.6 735.6,789.6 739.6,789.6 
		739.6,785.6 743.6,785.6 747.6,785.6 751.6,785.6 755.6,785.6 755.6,789.6 759.6,789.6 763.6,789.6 763.6,793.6 763.6,797.6 
		763.6,801.6 763.6,805.6 763.6,809.6 763.6,813.6 763.6,817.6 763.6,821.6 763.6,825.6 763.6,829.6 763.6,833.6 763.6,837.6 
		763.6,841.6 759.6,841.6 759.6,845.6 759.6,849.6 755.6,849.6 751.6,849.6 751.6,853.6 751.6,857.6 755.6,857.6 759.6,857.6 
		763.6,857.6 767.6,857.6 771.6,857.6 775.6,857.6 779.6,857.6 783.6,857.6 787.6,857.6 791.6,857.6 795.6,857.6 799.6,857.6 
		803.6,857.6 803.6,853.6 803.6,849.6 799.6,849.6 795.6,849.6 795.6,845.6 795.6,841.6 791.6,841.6 791.6,837.6 791.6,833.6 
		791.6,829.6 791.6,825.6 791.6,821.6 791.6,817.6 791.6,813.6 791.6,809.6 791.6,805.6 791.6,801.6 791.6,797.6 791.6,793.6 
		795.6,793.6 795.6,789.6 795.6,785.6 799.6,785.6 803.6,785.6 803.6,781.6 803.6,777.6 799.6,777.6 	"/>
	<polygon class="st0" points="1059.6,369.6 1055.6,369.6 1055.6,373.6 1055.6,377.6 1059.6,377.6 1063.6,377.6 1063.6,381.6 
		1063.6,385.6 1067.6,385.6 1067.6,389.6 1067.6,393.6 1067.6,397.6 1067.6,401.6 1067.6,405.6 1067.6,409.6 1067.6,413.6 
		1067.6,417.6 1067.6,421.6 1067.6,425.6 1067.6,429.6 1067.6,433.6 1063.6,433.6 1063.6,437.6 1063.6,441.6 1059.6,441.6 
		1055.6,441.6 1055.6,445.6 1055.6,449.6 1059.6,449.6 1063.6,449.6 1067.6,449.6 1071.6,449.6 1075.6,449.6 1079.6,449.6 
		1083.6,449.6 1087.6,449.6 1091.6,449.6 1095.6,449.6 1099.6,449.6 1103.6,449.6 1107.6,449.6 1111.6,449.6 1115.6,449.6 
		1119.6,449.6 1123.6,449.6 1127.6,449.6 1131.6,449.6 1135.6,449.6 1139.6,449.6 1139.6,453.6 1143.6,453.6 1147.6,453.6 
		1151.6,453.6 1151.6,457.6 1151.6,461.6 1155.6,461.6 1155.6,465.6 1155.6,469.6 1159.6,469.6 1159.6,473.6 1159.6,477.6 
		1159.6,481.6 1163.6,481.6 1167.6,481.6 1167.6,477.6 1167.6,473.6 1167.6,469.6 1167.6,465.6 1167.6,461.6 1167.6,457.6 
		1167.6,453.6 1167.6,449.6 1167.6,445.6 1167.6,441.6 1163.6,441.6 1159.6,441.6 1159.6,437.6 1159.6,433.6 1155.6,433.6 
		1155.6,429.6 1155.6,425.6 1155.6,421.6 1155.6,417.6 1155.6,413.6 1155.6,409.6 1155.6,405.6 1155.6,401.6 1155.6,397.6 
		1155.6,393.6 1155.6,389.6 1155.6,385.6 1159.6,385.6 1159.6,381.6 1159.6,377.6 1163.6,377.6 1167.6,377.6 1167.6,373.6 
		1167.6,369.6 1163.6,369.6 1159.6,369.6 1155.6,369.6 1151.6,369.6 1147.6,369.6 1143.6,369.6 1139.6,369.6 1135.6,369.6 
		1131.6,369.6 1127.6,369.6 1123.6,369.6 1119.6,369.6 1115.6,369.6 1115.6,373.6 1115.6,377.6 1119.6,377.6 1123.6,377.6 
		1123.6,381.6 1123.6,385.6 1127.6,385.6 1127.6,389.6 1127.6,393.6 1127.6,397.6 1127.6,401.6 1127.6,405.6 1127.6,409.6 
		1127.6,413.6 1127.6,417.6 1127.6,421.6 1127.6,425.6 1127.6,429.6 1127.6,433.6 1127.6,437.6 1123.6,437.6 1119.6,437.6 
		1119.6,441.6 1115.6,441.6 1111.6,441.6 1107.6,441.6 1103.6,441.6 1103.6,437.6 1099.6,437.6 1095.6,437.6 1095.6,433.6 
		1095.6,429.6 1095.6,425.6 1095.6,421.6 1095.6,417.6 1095.6,413.6 1095.6,409.6 1095.6,405.6 1095.6,401.6 1095.6,397.6 
		1095.6,393.6 1095.6,389.6 1095.6,385.6 1099.6,385.6 1099.6,381.6 1099.6,377.6 1103.6,377.6 1107.6,377.6 1107.6,373.6 
		1107.6,369.6 1103.6,369.6 1099.6,369.6 1095.6,369.6 1091.6,369.6 1087.6,369.6 1083.6,369.6 1079.6,369.6 1075.6,369.6 
		1071.6,369.6 1067.6,369.6 1063.6,369.6 	"/>
	<path class="st0" d="M487.6,805.6v-4v-4h-4v-4v-4h-4v-4h-4v-4h-4h-4v-4h-4h-4v-4h-4h-4h-4h-4h-4h-4h-4v4h-4h-4v4h-4h-4v4h-4v-4v-4
		h4v-4h4v-4h4h4v-4h4h4h4h4v-4h4h4h4h4h4h4v-4h4h4v-4h4v-4v-4h4v-4v-4v-4v-4h-4h-4v4h-4v4h-4v4h-4h-4h-4h-4h-4h-4h-4h-4h-4v4h-4h-4
		h-4v4h-4v4h-4v4h-4v4v4h-4v4v4h-4v4v4v4h-4v4v4v4v4v4v4v4v4v4v4h4v4v4v4h4v4v4h4v4h4v4h4h4v4h4h4v4h4h4h4h4h4h4h4h4v-4h4h4v-4h4h4
		v-4h4v-4h4v-4v-4h4v-4v-4h4v-4v-4v-4v-4v-4h-4V805.6z M435.6,849.6v-4h-4v-4v-4h-4v-4v-4v-4v-4v-4v-4v-4v-4v-4v-4h4v-4v-4h4v-4h4
		v-4h4h4v4h4v4h4v4v4h4v4v4v4v4v4v4v4v4v4v4h-4v4v4h-4v4h-4v4h-4h-4v-4H435.6z"/>
	<path class="st0" d="M583.6,793.6v-4h-4v-4h-4v-4h-4v-4h-4h-4v-4h-4h-4h-4h-4h-4h-4h-4v4h-4h-4h-4v4h-4h-4v4h-4v4v4h-4v4h-4v4v4v4
		h-4v4v4v4v4h4v4v4v4h4v4v4h4v4h4v4h4v4h4h4h4v4h4h4h4h4h4h4h4h4v-4h4h4v-4h4v-4h4v-4h4v-4v-4h4v-4v-4h-4h-4h-4v4v4h-4v4v4h-4h-4v4
		h-4h-4h-4h-4h-4v-4h-4v-4h-4v-4v-4v-4h-4v-4v-4v-4h4h4h4h4h4h4h4h4h4h4h4h4h4h4v-4v-4v-4v-4v-4h-4V793.6z M531.6,805.6v-4v-4h4v-4
		v-4v-4h4h4v-4h4h4v4h4h4v4v4v4h4v4v4v4h-4h-4h-4h-4h-4h-4h-4h-4V805.6z"/>
	<polygon class="st0" points="679.6,785.6 675.6,785.6 675.6,781.6 671.6,781.6 671.6,777.6 667.6,777.6 663.6,777.6 663.6,773.6 
		659.6,773.6 655.6,773.6 651.6,773.6 647.6,773.6 643.6,773.6 639.6,773.6 635.6,773.6 631.6,773.6 631.6,777.6 627.6,777.6 
		623.6,777.6 619.6,777.6 619.6,781.6 615.6,781.6 611.6,781.6 611.6,785.6 607.6,785.6 607.6,789.6 607.6,793.6 603.6,793.6 
		603.6,797.6 599.6,797.6 599.6,801.6 599.6,805.6 599.6,809.6 595.6,809.6 595.6,813.6 595.6,817.6 595.6,821.6 595.6,825.6 
		599.6,825.6 599.6,829.6 599.6,833.6 599.6,837.6 603.6,837.6 603.6,841.6 603.6,845.6 607.6,845.6 607.6,849.6 611.6,849.6 
		611.6,853.6 615.6,853.6 615.6,857.6 619.6,857.6 623.6,857.6 627.6,857.6 627.6,861.6 631.6,861.6 635.6,861.6 639.6,861.6 
		643.6,861.6 647.6,861.6 651.6,861.6 655.6,861.6 659.6,861.6 659.6,857.6 663.6,857.6 667.6,857.6 667.6,853.6 671.6,853.6 
		671.6,849.6 675.6,849.6 675.6,845.6 679.6,845.6 679.6,841.6 679.6,837.6 683.6,837.6 683.6,833.6 683.6,829.6 679.6,829.6 
		675.6,829.6 671.6,829.6 671.6,833.6 671.6,837.6 667.6,837.6 667.6,841.6 667.6,845.6 663.6,845.6 659.6,845.6 659.6,849.6 
		655.6,849.6 651.6,849.6 647.6,849.6 643.6,849.6 639.6,849.6 639.6,845.6 635.6,845.6 635.6,841.6 631.6,841.6 631.6,837.6 
		631.6,833.6 631.6,829.6 627.6,829.6 627.6,825.6 627.6,821.6 627.6,817.6 627.6,813.6 627.6,809.6 627.6,805.6 627.6,801.6 
		627.6,797.6 631.6,797.6 631.6,793.6 631.6,789.6 635.6,789.6 635.6,785.6 639.6,785.6 643.6,785.6 643.6,781.6 647.6,781.6 
		651.6,781.6 655.6,781.6 655.6,785.6 655.6,789.6 655.6,793.6 651.6,793.6 651.6,797.6 651.6,801.6 651.6,805.6 655.6,805.6 
		655.6,809.6 659.6,809.6 663.6,809.6 663.6,813.6 667.6,813.6 671.6,813.6 671.6,809.6 675.6,809.6 679.6,809.6 679.6,805.6 
		679.6,801.6 683.6,801.6 683.6,797.6 683.6,793.6 683.6,789.6 679.6,789.6 	"/>
	<polygon class="st0" points="775.6,285.6 775.6,289.6 775.6,293.6 779.6,293.6 779.6,297.6 779.6,301.6 783.6,301.6 783.6,305.6 
		787.6,305.6 787.6,309.6 791.6,309.6 791.6,313.6 795.6,313.6 799.6,313.6 803.6,313.6 803.6,317.6 807.6,317.6 811.6,317.6 
		815.6,317.6 819.6,317.6 823.6,317.6 827.6,317.6 831.6,317.6 835.6,317.6 835.6,313.6 839.6,313.6 843.6,313.6 843.6,309.6 
		847.6,309.6 847.6,305.6 851.6,305.6 851.6,301.6 855.6,301.6 855.6,297.6 855.6,293.6 859.6,293.6 859.6,289.6 859.6,285.6 
		855.6,285.6 851.6,285.6 847.6,285.6 847.6,289.6 847.6,293.6 843.6,293.6 843.6,297.6 843.6,301.6 839.6,301.6 835.6,301.6 
		835.6,305.6 831.6,305.6 827.6,305.6 823.6,305.6 819.6,305.6 815.6,305.6 815.6,301.6 811.6,301.6 811.6,297.6 807.6,297.6 
		807.6,293.6 807.6,289.6 807.6,285.6 803.6,285.6 803.6,281.6 803.6,277.6 803.6,273.6 803.6,269.6 803.6,265.6 803.6,261.6 
		803.6,257.6 803.6,253.6 807.6,253.6 807.6,249.6 807.6,245.6 811.6,245.6 811.6,241.6 815.6,241.6 819.6,241.6 819.6,237.6 
		823.6,237.6 827.6,237.6 831.6,237.6 831.6,241.6 831.6,245.6 831.6,249.6 827.6,249.6 827.6,253.6 827.6,257.6 827.6,261.6 
		831.6,261.6 831.6,265.6 835.6,265.6 839.6,265.6 839.6,269.6 843.6,269.6 847.6,269.6 847.6,265.6 851.6,265.6 855.6,265.6 
		855.6,261.6 855.6,257.6 859.6,257.6 859.6,253.6 859.6,249.6 859.6,245.6 855.6,245.6 855.6,241.6 851.6,241.6 851.6,237.6 
		847.6,237.6 847.6,233.6 843.6,233.6 839.6,233.6 839.6,229.6 835.6,229.6 831.6,229.6 827.6,229.6 823.6,229.6 819.6,229.6 
		815.6,229.6 811.6,229.6 807.6,229.6 807.6,233.6 803.6,233.6 799.6,233.6 795.6,233.6 795.6,237.6 791.6,237.6 787.6,237.6 
		787.6,241.6 783.6,241.6 783.6,245.6 783.6,249.6 779.6,249.6 779.6,253.6 775.6,253.6 775.6,257.6 775.6,261.6 775.6,265.6 
		771.6,265.6 771.6,269.6 771.6,273.6 771.6,277.6 771.6,281.6 775.6,281.6 	"/>
	<path class="st0" d="M903.6,805.6v-4v-4h-4v-4v-4h-4v-4h-4v-4h-4h-4v-4h-4h-4v-4h-4h-4h-4h-4h-4h-4h-4h-4v4h-4h-4v4h-4h-4v4h-4v4
		h-4v4v4h-4v4v4h-4v4v4v4v4v4h4v4v4v4h4v4v4h4v4h4v4h4h4v4h4h4v4h4h4h4h4h4h4h4h4v-4h4h4v-4h4h4v-4h4v-4h4v-4v-4h4v-4v-4h4v-4v-4v-4
		v-4v-4h-4V805.6z M851.6,849.6v-4h-4v-4v-4h-4v-4v-4v-4v-4v-4v-4v-4v-4v-4v-4h4v-4v-4h4v-4h4v-4h4h4v4h4v4h4v4v4h4v4v4v4v4v4v4v4v4
		v4v4h-4v4v4h-4v4h-4v4h-4h-4v-4H851.6z"/>
	<path class="st0" d="M1131.6,777.6h-4h-4h-4h-4h-4h-4h-4h-4h-4h-4h-4h-4h-4h-4h-4h-4h-4h-4v4h-4h-4v4h-4v4v4h-4v4v4v4h4v4v4h4h4v4
		h4h4v4h-4v4h-4v4v4h-4v4v4v4h-4v4h-4v-4h-4v-4v-4h-4h-4v4v4h4v4v4h4v4h4v4h4h4h4h4h4h4v-4h4v-4v-4h4v-4v-4v-4v-4h4v-4v-4h4h4h4v-4
		h4h4v4v4v4v4v4h-4v4v4h-4h-4v4v4h4h4h4h4h4h4h4h4h4h4h4h4h4v-4v-4h-4h-4v-4v-4h-4v-4v-4v-4v-4v-4v-4v-4v-4v-4v-4v-4v-4h4v-4v-4h4h4
		v-4v-4h-4H1131.6z M1083.6,813.6v-4h-4h-4v-4v-4v-4v-4v-4h4h4v-4h4h4h4v4h4v4v4v4v4v4v4h-4h-4h-4H1083.6z"/>
	<polygon class="st0" points="1355.6,837.6 1355.6,841.6 1351.6,841.6 1351.6,845.6 1351.6,849.6 1347.6,849.6 1347.6,845.6 
		1347.6,841.6 1343.6,841.6 1343.6,837.6 1343.6,833.6 1343.6,829.6 1339.6,829.6 1339.6,825.6 1339.6,821.6 1335.6,821.6 
		1331.6,821.6 1331.6,817.6 1327.6,817.6 1323.6,817.6 1323.6,813.6 1327.6,813.6 1327.6,809.6 1327.6,805.6 1331.6,805.6 
		1331.6,801.6 1331.6,797.6 1331.6,793.6 1335.6,793.6 1335.6,789.6 1335.6,785.6 1339.6,785.6 1339.6,789.6 1339.6,793.6 
		1343.6,793.6 1343.6,797.6 1347.6,797.6 1351.6,797.6 1355.6,797.6 1355.6,793.6 1359.6,793.6 1359.6,789.6 1359.6,785.6 
		1359.6,781.6 1359.6,777.6 1355.6,777.6 1355.6,773.6 1351.6,773.6 1347.6,773.6 1343.6,773.6 1339.6,773.6 1335.6,773.6 
		1335.6,777.6 1331.6,777.6 1331.6,781.6 1327.6,781.6 1327.6,785.6 1323.6,785.6 1323.6,789.6 1323.6,793.6 1323.6,797.6 
		1323.6,801.6 1319.6,801.6 1319.6,805.6 1315.6,805.6 1315.6,809.6 1311.6,809.6 1307.6,809.6 1303.6,809.6 1299.6,809.6 
		1299.6,805.6 1299.6,801.6 1299.6,797.6 1299.6,793.6 1303.6,793.6 1303.6,789.6 1303.6,785.6 1307.6,785.6 1311.6,785.6 
		1311.6,781.6 1311.6,777.6 1307.6,777.6 1303.6,777.6 1299.6,777.6 1295.6,777.6 1291.6,777.6 1287.6,777.6 1283.6,777.6 
		1279.6,777.6 1275.6,777.6 1271.6,777.6 1267.6,777.6 1263.6,777.6 1259.6,777.6 1259.6,781.6 1259.6,785.6 1263.6,785.6 
		1267.6,785.6 1267.6,789.6 1267.6,793.6 1271.6,793.6 1271.6,797.6 1271.6,801.6 1271.6,805.6 1271.6,809.6 1271.6,813.6 
		1271.6,817.6 1271.6,821.6 1271.6,825.6 1271.6,829.6 1271.6,833.6 1271.6,837.6 1271.6,841.6 1267.6,841.6 1267.6,845.6 
		1267.6,849.6 1263.6,849.6 1259.6,849.6 1259.6,853.6 1259.6,857.6 1263.6,857.6 1267.6,857.6 1271.6,857.6 1275.6,857.6 
		1279.6,857.6 1283.6,857.6 1287.6,857.6 1291.6,857.6 1295.6,857.6 1299.6,857.6 1303.6,857.6 1307.6,857.6 1311.6,857.6 
		1311.6,853.6 1311.6,849.6 1307.6,849.6 1303.6,849.6 1303.6,845.6 1303.6,841.6 1299.6,841.6 1299.6,837.6 1299.6,833.6 
		1299.6,829.6 1299.6,825.6 1299.6,821.6 1303.6,821.6 1307.6,821.6 1311.6,821.6 1315.6,821.6 1315.6,825.6 1315.6,829.6 
		1319.6,829.6 1319.6,833.6 1319.6,837.6 1319.6,841.6 1319.6,845.6 1323.6,845.6 1323.6,849.6 1323.6,853.6 1323.6,857.6 
		1327.6,857.6 1331.6,857.6 1331.6,861.6 1335.6,861.6 1339.6,861.6 1343.6,861.6 1347.6,861.6 1351.6,861.6 1351.6,857.6 
		1355.6,857.6 1359.6,857.6 1359.6,853.6 1359.6,849.6 1359.6,845.6 1363.6,845.6 1363.6,841.6 1363.6,837.6 1359.6,837.6 	"/>
	<path class="st0" d="M1463.6,845.6h-4v-4h-4v-4v-4v-4v-4v-4v-4v-4v-4v-4v-4v-4v-4v-4v-4h-4v-4h-4v-4h-4h-4h-4v-4h-4h-4h-4h-4h-4h-4
		h-4h-4h-4v4h-4h-4h-4v4h-4h-4v4v4h-4v4v4h4v4v4h4v4h4h4h4h4v-4h4v-4v-4v-4v-4v-4h4v-4h4h4h4v4h4h4v4v4v4v4v4v4h-4h-4h-4h-4v4h-4h-4
		h-4v4h-4h-4h-4v4h-4h-4v4h-4v4v4h-4v4v4v4v4h4v4h4v4h4v4h4h4h4h4h4h4h4h4v-4h4h4v-4h4h4v-4h4v4v4h4v4h4h4h4h4h4v-4h4h4v-4h4v-4v-4
		h-4H1463.6z M1423.6,841.6v4h-4v4h-4h-4h-4v-4h-4v-4v-4h-4v-4h4v-4v-4h4h4v-4h4h4v-4h4h4v4v4v4v4v4v4H1423.6z"/>
	<path class="st0" d="M955.6,373.6v4v4h-4v4v4h4v4v4h4v4h4h4h4h4v-4h4v-4v-4v-4v-4v-4h4v-4h4h4h4v4h4h4v4v4v4v4v4v4h-4h-4h-4h-4v4
		h-4h-4h-4v4h-4h-4h-4v4h-4h-4v4h-4v4v4h-4v4v4v4v4h4v4h4v4h4v4h4h4h4h4h4h4h4h4v-4h4h4v-4h4h4v-4h4v4v4h4v4h4h4h4h4h4v-4h4h4v-4h4
		v-4v-4h-4h-4h-4v-4h-4v-4v-4v-4v-4v-4v-4v-4v-4v-4v-4v-4v-4v-4v-4h-4v-4h-4v-4h-4h-4h-4v-4h-4h-4h-4h-4h-4h-4h-4h-4h-4v4h-4h-4h-4
		v4h-4H955.6z M999.6,433.6v4h-4v4h-4h-4h-4v-4h-4v-4v-4h-4v-4h4v-4v-4h4h4v-4h4h4v-4h4h4v4v4v4v4v4v4H999.6z"/>
	<path class="st0" d="M1243.6,777.6h-4h-4h-4h-4h-4h-4h-4h-4h-4h-4h-4h-4h-4h-4h-4h-4h-4h-4h-4h-4h-4v4v4h4h4v4h4h4v4v4v4v4v4v4v4v4
		v4h-4v4v4v4h-4v4h-4v4h-4v4h-4h-4h-4v4v4v4v4v4v4v4v4v4v4h4v-4h4v-4h4v-4v-4v-4h4v-4h4v-4h4h4v-4h4h4h4h4h4h4h4h4h4h4h4h4h4v4h4h4
		v4v4h4v4v4h4v4v4v4h4h4v-4v-4v-4v-4v-4v-4v-4v-4v-4v-4h-4h-4h-4v-4v-4v-4v-4v-4v-4v-4v-4v-4v-4v-4v-4v-4v-4h4v-4v-4h4h4v-4v-4h-4
		H1243.6z M1175.6,845.6h4v-4h4v-4v-4v-4v-4h4v-4v-4v-4v-4v-4v-4v-4v-4v-4h4v-4h4h4h4h4v4h4v4v4v4v4v4v4v4v4v4v4v4v4v4v4v4h-4h-4h-4
		h-4h-4h-4h-4h-4h-4V845.6z"/>
	<path class="st0" d="M1023.6,801.6v-4v-4h-4v-4h-4v-4v-4h-4h-4v-4h-4v-4h-4h-4h-4h-4h-4h-4h-4v4h-4h-4v4h-4v4h-4v-4v-4h-4h-4h-4h-4
		h-4h-4h-4h-4h-4h-4h-4v4v4h4h4v4h4h4v4v4v4v4v4v4v4v4v4v4v4v4v4v4v4v4v4v4v4v4v4v4h-4v4v4h-4h-4h-4v4v4h4h4h4h4h4h4h4h4h4h4h4h4h4
		h4h4v-4v-4h-4h-4h-4v-4v-4h-4v-4v-4v-4v-4v-4v-4h4h4v4h4v4h4h4h4h4h4h4h4v-4h4h4v-4h4v-4h4v-4h4v-4v-4h4v-4v-4v-4h4v-4v-4v-4v-4v-4
		h-4V801.6z M967.6,845.6v-4h-4v-4v-4h-4v-4v-4v-4v-4v-4v-4v-4v-4h4v-4v-4h4v-4h4v-4h4h4h4v4h4h4v4v4v4h4v4v4v4v4v4v4v4v4h-4v4v4v4
		h-4h-4v4h-4h-4h-4v-4H967.6z"/>
</g>
</svg>
