<svg xmlns="http://www.w3.org/2000/svg" viewBox="0 0 2025 1125">
<style type="text/css">
    .s0{fill:#513212;}
	.s1{fill:#F1EDD7;}
	.s2{fill:#EE9B00;}
	.s3{fill:#9F5F01;}
	.s4{fill:#DB8600;}
</style>

<rect class="s0" width="2025" height="1125"/>
<rect class="s1" x="75" y="75" width="1875" height="975"/>
<rect class="s2" x="150" y="150" width="1725" height="300"/>
<circle class="s1" cx="300" cy="300" r="75"/>

<g>
	<polygon class="s0" points="975,825 825,825 825,225 "/>
	<polygon class="s3" points="825,225 825,825 675,825 "/>
</g>
<g>
	<polygon class="s0" points="1875,975 1725,975 1725,375 "/>
	<polygon class="s3" points="1725,375 1725,975 1575,975 "/>
</g>
<g>
	<polygon class="s4" points="1125,975 975,975 975,450 "/>
	<polygon class="s3" points="975,450 975,975 825,975 "/>
</g>
<g>
	<polygon class="s4" points="1725,975 1575,975 1575,525 "/>
	<polygon class="s3" points="1575,525 1575,975 1425,975 "/>
</g>

<g>
	<polygon class="s4" points="450,825 300,825 300,300 "/>
	<polygon class="s3" points="300,300 300,825 150,825 "/>
</g>

<g>
	<rect class="s0" x="150" y="750" width="450" height="225"/>
	<g>
		<rect x="562.5" y="490.71" class="s3" width="37.5" height="56.25"/>
		<rect x="600" y="490.71" class="s0" width="75" height="56.25"/>
	</g>
	<polygon class="s3" points="900,750 900,975 600,975 600,750 750,600 "/>
	<polygon class="s0" points="900,750 900,803.04 750,653.01 600,803.04 600,750 723.48,626.52 750,600 "/>
	<polygon class="s3" points="600,750 150,750 123.87,723.87 124.26,723.48 573.48,723.48 "/>
	<polygon class="s4" points="749.97,546.96 723.48,573.48 696.93,599.97 600,696.96 573.48,723.48 124.26,723.48 300.75,546.96 
		"/>
	<polygon class="s2" points="926.49,723.48 900,750 750,600 723.48,626.52 600,750 573.48,723.48 600,696.96 696.93,599.97 
		723.48,573.48 749.97,546.96 750,546.96 776.49,573.48 803.01,600 900,696.96 900,696.99 "/>
	<rect x="712.5" y="787.5" class="s2" width="75" height="75"/>
</g>

<g class="s4">
	<path d="M675,271.86c0,15.54-12.6,28.14-28.14,28.14h-75c-10.35,0-18.75-8.4-18.75-18.75s8.4-18.75,18.75-18.75
		c0-20.73,16.8-37.5,37.5-37.5c14.07,0,26.31,7.71,32.7,19.17c1.56-0.27,3.15-0.42,4.8-0.42C662.4,243.75,675,256.35,675,271.86z"/>
	<path d="M421.89,346.86c0,15.54-12.6,28.14-28.14,28.14h-75c-10.35,0-18.75-8.4-18.75-18.75
		c0-10.35,8.4-18.75,18.75-18.75c0-20.73,16.8-37.5,37.5-37.5c14.07,0,26.31,7.71,32.7,19.17c1.56-0.27,3.15-0.42,4.8-0.42
		C409.29,318.75,421.89,331.35,421.89,346.86z"/>
	<path d="M1200,271.86c0,15.54-12.6,28.14-28.14,28.14h-75c-10.35,0-18.75-8.4-18.75-18.75s8.4-18.75,18.75-18.75
		c0-20.73,16.8-37.5,37.5-37.5c14.07,0,26.31,7.71,32.7,19.17c1.56-0.27,3.15-0.42,4.8-0.42C1187.4,243.75,1200,256.35,1200,271.86z
		"/>
	<path d="M1275,346.86c0,15.54-12.6,28.14-28.14,28.14h-75c-10.35,0-18.75-8.4-18.75-18.75
		c0-10.35,8.4-18.75,18.75-18.75c0-20.73,16.8-37.5,37.5-37.5c14.07,0,26.31,7.71,32.7,19.17c1.56-0.27,3.15-0.42,4.8-0.42
		C1262.4,318.75,1275,331.35,1275,346.86z"/>
	<path d="M1725,271.86c0,15.54-12.6,28.14-28.14,28.14h-75c-10.35,0-18.75-8.4-18.75-18.75s8.4-18.75,18.75-18.75
		c0-20.73,16.8-37.5,37.5-37.5c14.07,0,26.31,7.71,32.7,19.17c1.56-0.27,3.15-0.42,4.8-0.42C1712.4,243.75,1725,256.35,1725,271.86z
		"/>
	<path d="M1575,346.86c0,15.54-12.6,28.14-28.14,28.14h-75c-10.35,0-18.75-8.4-18.75-18.75
		c0-10.35,8.4-18.75,18.75-18.75c0-20.73,16.8-37.5,37.5-37.5c14.07,0,26.31,7.71,32.7,19.17c1.56-0.27,3.15-0.42,4.8-0.42
		C1562.4,318.75,1575,331.35,1575,346.86z"/>
</g>

</svg>