<svg id="illustration" xmlns="http://www.w3.org/2000/svg" viewBox="0 0 1050 525">
<style type="text/css">
    .st0{fill:#513212;}
    .st1{fill:#F1EDD7;}
    .st2{fill:#EE9B00;}
    .st3{fill:#DB8600;}
    .st4{fill:#9F5F01;}

    .clouds{fill:#DB8600;clip-path:url(#frame);}
</style>

<defs>
<clipPath id="frame">
    <rect x="50" y="50" width="950" height="200"/>
</clipPath>
</defs>

<rect class="st0" width="1050" height="525"/>
<rect class="st1" x="25" y="25"  width="1000" height="475"/>
<rect class="st2" x="50" y="50"  width="950" height="200"/>

<circle class="st1" cx="300" cy="100" r="25"/>

<g class="clouds">
    <path d="M46.88,115.62c0,5.18-4.2,9.38-9.38,9.38h-25c-3.45,0-6.25-2.8-6.25-6.25s2.8-6.25,6.25-6.25c0-6.91,5.6-12.5,12.5-12.5c4.69,0,8.77,2.57,10.9,6.39c0.52-0.09,1.05-0.14,1.6-0.14C42.68,106.25,46.88,110.45,46.88,115.62z">
    <animateTransform attributeName="transform" attributeType="XML" type="translate" values="930 0; 1000 0; 0 0; 930 0" keyTimes="0; 0.06999950000357136; 0.07000664280969417; 1" calcMode="linear" dur="140.001s" repeatCount="indefinite" />
    </path>
    <path d="M46.88,115.62c0,5.18-4.2,9.38-9.38,9.38h-25c-3.45,0-6.25-2.8-6.25-6.25s2.8-6.25,6.25-6.25c0-6.91,5.6-12.5,12.5-12.5c4.69,0,8.77,2.57,10.9,6.39c0.52-0.09,1.05-0.14,1.6-0.14C42.68,106.25,46.88,110.45,46.88,115.62z">
    <animateTransform attributeName="transform" attributeType="XML" type="translate" values="45 0; 1000 0; 0 0; 45 0" keyTimes="0; 0.9549931786201526; 0.9550003214262754; 1" calcMode="linear" dur="140.001s" repeatCount="indefinite" />
    </path>
    <path d="M46.88,115.62c0,5.18-4.2,9.38-9.38,9.38h-25c-3.45,0-6.25-2.8-6.25-6.25s2.8-6.25,6.25-6.25c0-6.91,5.6-12.5,12.5-12.5c4.69,0,8.77,2.57,10.9,6.39c0.52-0.09,1.05-0.14,1.6-0.14C42.68,106.25,46.88,110.45,46.88,115.62z">
    <animateTransform attributeName="transform" attributeType="XML" type="translate" values="520 0; 1000 0; 0 0; 520 0" keyTimes="0; 0.47999657145306107; 0.4800037142591839; 1" calcMode="linear" dur="140.001s" repeatCount="indefinite" />
    </path>
    <path d="M46.88,140.62c0,5.18-4.2,9.38-9.38,9.38h-25c-3.45,0-6.25-2.8-6.25-6.25s2.8-6.25,6.25-6.25c0-6.91,5.6-12.5,12.5-12.5c4.69,0,8.77,2.57,10.9,6.39c0.52-0.09,1.05-0.14,1.6-0.14C42.68,131.25,46.88,135.45,46.88,140.62z">
    <animateTransform attributeName="transform" attributeType="XML" type="translate" values="150 0; 1000 0; 0 0; 150 0" keyTimes="0; 0.8499939286147956; 0.8500010714209184; 1" calcMode="linear" dur="140.001s" repeatCount="indefinite" />
    </path>
    <path d="M46.88,115.62c0,5.18-4.2,9.38-9.38,9.38h-25c-3.45,0-6.25-2.8-6.25-6.25s2.8-6.25,6.25-6.25c0-6.91,5.6-12.5,12.5-12.5c4.69,0,8.77,2.57,10.9,6.39c0.52-0.09,1.05-0.14,1.6-0.14C42.68,106.25,46.88,110.45,46.88,115.62z">
    <animateTransform attributeName="transform" attributeType="XML" type="translate" values="120 0; 1000 0; 0 0; 120 0" keyTimes="0; 0.8799937143306119; 0.8800008571367348; 1" calcMode="linear" dur="140.001s" repeatCount="indefinite" />
    </path>
    <path d="M46.88,90.62c0,5.18-4.2,9.38-9.38,9.38h-25c-3.45,0-6.25-2.8-6.25-6.25s2.8-6.25,6.25-6.25C12.5,80.59,18.1,75,25,75c4.69,0,8.77,2.57,10.9,6.39c0.52-0.09,1.05-0.14,1.6-0.14C42.68,81.25,46.88,85.45,46.88,90.62z">
    <animateTransform attributeName="transform" attributeType="XML" type="translate" values="210 0; 1000 0; 0 0; 210 0" keyTimes="0; 0.789994357183163; 0.7900014999892858; 1" calcMode="linear" dur="140.001s" repeatCount="indefinite" />
    </path>
    <path d="M46.88,140.62c0,5.18-4.2,9.38-9.38,9.38h-25c-3.45,0-6.25-2.8-6.25-6.25s2.8-6.25,6.25-6.25c0-6.91,5.6-12.5,12.5-12.5c4.69,0,8.77,2.57,10.9,6.39c0.52-0.09,1.05-0.14,1.6-0.14C42.68,131.25,46.88,135.45,46.88,140.62z">
    <animateTransform attributeName="transform" attributeType="XML" type="translate" values="580 0; 1000 0; 0 0; 580 0" keyTimes="0; 0.41999700002142853; 0.42000414282755133; 1" calcMode="linear" dur="140.00099999999998s" repeatCount="indefinite" />
    </path>
    <path d="M46.88,90.62c0,5.18-4.2,9.38-9.38,9.38h-25c-3.45,0-6.25-2.8-6.25-6.25s2.8-6.25,6.25-6.25C12.5,80.59,18.1,75,25,75c4.69,0,8.77,2.57,10.9,6.39c0.52-0.09,1.05-0.14,1.6-0.14C42.68,81.25,46.88,85.45,46.88,90.62z">
    <animateTransform attributeName="transform" attributeType="XML" type="translate" values="760 0; 1000 0; 0 0; 760 0" keyTimes="0; 0.23999828572653054; 0.24000542853265333; 1" calcMode="linear" dur="140.001s" repeatCount="indefinite" />
    </path>
    <path d="M46.88,140.62c0,5.18-4.2,9.38-9.38,9.38h-25c-3.45,0-6.25-2.8-6.25-6.25s2.8-6.25,6.25-6.25c0-6.91,5.6-12.5,12.5-12.5c4.69,0,8.77,2.57,10.9,6.39c0.52-0.09,1.05-0.14,1.6-0.14C42.68,131.25,46.88,135.45,46.88,140.62z">
    <animateTransform attributeName="transform" attributeType="XML" type="translate" values="390 0; 1000 0; 0 0; 390 0" keyTimes="0; 0.609995642888265; 0.6100027856943878; 1" calcMode="linear" dur="140.001s" repeatCount="indefinite" />
    </path>
    <path d="M46.88,90.62c0,5.18-4.2,9.38-9.38,9.38h-25c-3.45,0-6.25-2.8-6.25-6.25s2.8-6.25,6.25-6.25C12.5,80.59,18.1,75,25,75c4.69,0,8.77,2.57,10.9,6.39c0.52-0.09,1.05-0.14,1.6-0.14C42.68,81.25,46.88,85.45,46.88,90.62z">
    <animateTransform attributeName="transform" attributeType="XML" type="translate" values="840 0; 1000 0; 0 0; 840 0" keyTimes="0; 0.15999885715102038; 0.1600059999571432; 1" calcMode="linear" dur="140.001s" repeatCount="indefinite" />
    </path>
    <path d="M46.88,140.62c0,5.18-4.2,9.38-9.38,9.38h-25c-3.45,0-6.25-2.8-6.25-6.25s2.8-6.25,6.25-6.25c0-6.91,5.6-12.5,12.5-12.5c4.69,0,8.77,2.57,10.9,6.39c0.52-0.09,1.05-0.14,1.6-0.14C42.68,131.25,46.88,135.45,46.88,140.62z">
    <animateTransform attributeName="transform" attributeType="XML" type="translate" values="980 0; 1000 0; 0 0; 980 0" keyTimes="0; 0.019999857143877562; 0.020006999950000375; 1" calcMode="linear" dur="140.001s" repeatCount="indefinite" />
    </path>
    <path d="M46.88,90.62c0,5.18-4.2,9.38-9.38,9.38h-25c-3.45,0-6.25-2.8-6.25-6.25s2.8-6.25,6.25-6.25C12.5,80.59,18.1,75,25,75c4.69,0,8.77,2.57,10.9,6.39c0.52-0.09,1.05-0.14,1.6-0.14C42.68,81.25,46.88,85.45,46.88,90.62z">
    <animateTransform attributeName="transform" attributeType="XML" type="translate" values="310 0; 1000 0; 0 0; 310 0" keyTimes="0; 0.6899950714637751; 0.690002214269898; 1" calcMode="linear" dur="140.001s" repeatCount="indefinite" />
    </path>
    <path d="M46.88,140.62c0,5.18-4.2,9.38-9.38,9.38h-25c-3.45,0-6.25-2.8-6.25-6.25s2.8-6.25,6.25-6.25c0-6.91,5.6-12.5,12.5-12.5c4.69,0,8.77,2.57,10.9,6.39c0.52-0.09,1.05-0.14,1.6-0.14C42.68,131.25,46.88,135.45,46.88,140.62z">
    <animateTransform attributeName="transform" attributeType="XML" type="translate" values="670 0; 1000 0; 0 0; 670 0" keyTimes="0; 0.3299976428739794; 0.3300047856801022; 1" calcMode="linear" dur="140.001s" repeatCount="indefinite" />
    </path>
    <path d="M46.88,90.62c0,5.18-4.2,9.38-9.38,9.38h-25c-3.45,0-6.25-2.8-6.25-6.25s2.8-6.25,6.25-6.25C12.5,80.59,18.1,75,25,75c4.69,0,8.77,2.57,10.9,6.39c0.52-0.09,1.05-0.14,1.6-0.14C42.68,81.25,46.88,85.45,46.88,90.62z">
    <animateTransform attributeName="transform" attributeType="XML" type="translate" values="480 0; 1000 0; 0 0; 480 0" keyTimes="0; 0.5199962857408161; 0.5200034285469389; 1" calcMode="linear" dur="140.001s" repeatCount="indefinite" />
    </path>
</g>

<g id="forest">
    <g class="tree">
    <polygon class="st0" points="650,325 600,325 600,125 "/>
    <polygon class="st4" points="600,125 600,325 550,325 "/>
    <rect x="625" y="325" class="st0" width="25" height="25"/>
    </g>
    <g class="tree">
    <polygon class="st3" points="600,325 550,325 550,175 "/>
    <polygon class="st4" points="550,175 550,325 500,325 "/>
    </g>
    <g class="tree">
    <polygon class="st3" points="775,475 725,475 725,325 "/>
    <polygon class="st4" points="725,325 725,475 675,475 "/>
    </g>
    <g class="tree">
    <polygon class="st0" points="825,475 775,475 775,275 "/>
    <polygon class="st4" points="775,275 775,475 725,475 "/>
    </g>
    <g class="tree">
    <polygon class="st3" points="975,450 925,450 925,300 "/>
    <polygon class="st4" points="925,300 925,450 875,450 "/>
    </g>
    <g class="tree">
    <polygon class="st0" points="925,475 875,475 875,300 "/>
    <polygon class="st4" points="875,300 875,475 825,475 "/>
    </g>
    <g class="tree">
    <polygon class="st0" points="1000,475 950,475 950,275 "/>
    <polygon class="st4" points="950,275 950,475 900,475 "/>
    </g>
    <g class="tree">
    <polygon class="st3" points="175,450 125,450 125,325 "/>
    <polygon class="st4" points="125,325 125,450 75,450 "/>
    </g>
    <g class="tree">
    <polygon class="st0" points="150,475 100,475 100,275 "/>
    <polygon class="st4" points="100,275 100,475 50,475 "/>
    </g>
    <g class="tree">
    <polygon class="st0" points="225,475 175,475 175,300 "/>
    <polygon class="st4" points="175,300 175,475 125,475 "/>
    </g>
    <g class="tree">
    <polygon class="st3" points="900,475 850,475 850,325 "/>
    <polygon class="st4" points="850,325 850,475 800,475 "/>
    </g>
    <g class="tree">
    <polygon class="st0" points="300,450 250,450 250,275 "/>
    <polygon class="st4" points="250,275 250,450 200,450 "/>
    </g>
    <g class="tree">
    <polygon class="st3" points="250,475 200,475 200,275 "/>
    <polygon class="st4" points="200,275 200,475 150,475 "/>
    </g>
    <g class="tree">
    <polygon class="st0" points="375,475 325,475 325,325 "/>
    <polygon class="st4" points="325,325 325,475 275,475 "/>
    </g>
    <g class="tree">
    <polygon class="st3" points="325,475 275,475 275,300 "/>
    <polygon class="st4" points="275,300 275,475 225,475 "/>
    </g>
</g>

<g>
    <rect class="st0" x="400" y="350" width="150" height="75"/>
    <rect class="st4" x="462.75" y="263.57" width="12.5" height="18.75"/>
    <rect class="st0" x="475.25" y="263.57" width="25" height="18.75"/>

    <polygon class="st4" points="650,350 650,425 550,425 550,350 600,300 "/>
    <polygon class="st0" points="650,350 650,367.68 600,317.67 550,367.68 550,350 591.16,308.84 600,300 "/>
    <polygon class="st4" points="550,350 400,350 391.29,341.29 391.42,341.16 541.16,341.16 "/>
    <polygon class="st3" points="599.99,282.32 591.16,291.16 582.31,299.99 550,332.32 541.16,341.16 391.42,341.16 450.25,282.32 "/>
    <polygon class="st2" points="658.83,341.16 650,350 600,300 591.16,308.84 550,350 541.16,341.16 550,332.32 582.31,299.99 591.16,291.16 599.99,282.32 600,282.32 608.83,291.16 617.67,300 650,332.32 650,332.33 "/>
    <rect class="st2" x="587.5" y="362.5" width="25" height="25"/>
</g>

<script>
    <![CDATA[    
    const ILLUSTRATION = document.getElementById('illustration');
    const ILLUSTRATION_CTM = ILLUSTRATION.getScreenCTM();
    const FOREST = document.getElementById('forest');
    const TREES = Array.from(FOREST.querySelectorAll('.tree'));

    const params = {
    maxOffset: 15,         // Смещение
    stiffness: 0.24,       // Жесткость
    damping: 0.5,          // Затухание
    influenceRadius: 200,  // Радиус 
    bounce: 0.05           // Отскок
    };

    const TREE_STATES = TREES.map(tree => {
    const polygons = tree.querySelectorAll('polygon');
    const leftPoly = polygons[0];
    const rightPoly = polygons[1];
    
    const leftPoints = parsePoints(leftPoly.getAttribute('points'));
    const rightPoints = parsePoints(rightPoly.getAttribute('points'));
    
    const apex = findApex(leftPoints);
    
    return {
        leftPoly,
        rightPoly,
        leftPoints,
        rightPoints,
        apex: { x: apex.x, y: apex.y },
        offset: { x: 0, y: 0 },
        velocity: { x: 0, y: 0 },
        targetOffset: { x: 0, y: 0 }
    };
    });

    function parsePoints(pointsStr) {
    return pointsStr.trim().split(' ').map(point => {    
        const [x, y] = point.split(',').map(Number);
        return { x, y };
    });
    }

    function findApex(points) {
    let apex = { x: Infinity, y: Infinity };

    for (const point of points) {
        if (point.y < apex.y) {
        apex = { x: point.x, y: point.y };
        }
    }

    return apex;
    }

    let mouseX = 0;
    let mouseY = 0;


    document.addEventListener('mousemove', (e) => {
    const rect = ILLUSTRATION.getBoundingClientRect();
    const viewBox = ILLUSTRATION.viewBox.baseVal;

    const scaleX = viewBox.width / rect.width;
    const scaleY = viewBox.height / rect.height;
    
    mouseX = (e.clientX - rect.left) * scaleX;
    mouseY = (e.clientY - rect.top) * scaleY;
    });

    function updateTreeParam(tree) {
    const dx = mouseX - tree.apex.x;
    const dy = mouseY - tree.apex.y;
    const distance = Math.sqrt(dx * dx + dy * dy);
    
    if (distance < params.influenceRadius) {
        const force = (1 - distance / params.influenceRadius);

        const angle = Math.atan2(dy, dx);
        const targetX = - Math.cos(angle) * params.maxOffset * force;
        const targetY = - Math.sin(angle) * params.maxOffset * force;
        
        tree.targetOffset.x = targetX;
        tree.targetOffset.y = targetY;
    } else {
        tree.targetOffset.x = 0;
        tree.targetOffset.y = 0;
    }
    
    const springForceX = (tree.targetOffset.x - tree.offset.x) * params.stiffness;
    const springForceY = (tree.targetOffset.y - tree.offset.y) * params.stiffness;
    
    tree.velocity.x += springForceX;
    tree.velocity.y += springForceY;
    
    tree.velocity.x *= params.damping;
    tree.velocity.y *= params.damping;
    
    tree.offset.x += tree.velocity.x;
    tree.offset.y += tree.velocity.y;

    if (Math.abs(tree.velocity.x) > 0.1 || Math.abs(tree.velocity.y) > 0.1) {
        tree.offset.x += (Math.random() - 0.5) * params.bounce;
        tree.offset.y += (Math.random() - 0.5) * params.bounce;
    }

    return tree
    }


    function updateTrees() {
    for (const tree of TREE_STATES) {
        updateTreeParam(tree);
        updatePolygonPoints(tree);
    }
    requestAnimationFrame(updateTrees);
    }


    function updatePolygonPoints(tree) {
    const newLeftPoints = [...tree.leftPoints];
    newLeftPoints[2] = {
        x: tree.apex.x + tree.offset.x,
        y: tree.apex.y + tree.offset.y
    };
    tree.leftPoly.setAttribute('points', pointsToString(newLeftPoints));
    
    const newRightPoints = [...tree.rightPoints];
    newRightPoints[0] = { 
        x: tree.apex.x + tree.offset.x, 
        y: tree.apex.y + tree.offset.y 
    };
    tree.rightPoly.setAttribute('points', pointsToString(newRightPoints));
    }


    function pointsToString(points) {
    return points.map(p => `${p.x},${p.y}`).join(' ');
    }


    updateTrees();
    ]]>
</script>
</svg>