<svg xmlns="http://www.w3.org/2000/svg" viewBox="0 0 2801.51 559.83">
<style type="text/css">
    .st0{fill:url(#SVGID_1_);}
	.st1{fill:url(#SVGID_00000012447062827868344310000015461931249900164504_);}
	.st2{fill:url(#SVGID_00000123436568060679169260000018441425436850427778_);}
	.st3{fill:url(#SVGID_00000038394207849706893140000008094008628551888811_);}
	.st4{fill:url(#SVGID_00000075854823744420214590000003166589560364111541_);}
	.st5{fill:url(#SVGID_00000044880609255827276430000010701749317635116466_);}
	.st6{fill:url(#SVGID_00000114035200593400064070000001603963089530611899_);}
	.st7{fill:url(#SVGID_00000029750616035155282710000012256575395228225448_);}
	.st8{fill:url(#SVGID_00000170249854886063528320000000985048887085101192_);}
	.st9{fill:url(#SVGID_00000104697287638071373230000002301354674393991356_);}
	.st10{fill:url(#SVGID_00000173120721192222523400000006596580482942162056_);}
	.st11{fill:url(#SVGID_00000054986432363972391200000011319569729282340242_);}
	.st12{fill:url(#SVGID_00000007386901799554510500000009158851734714190471_);}
	.st13{fill:url(#SVGID_00000036967553322608368560000008088518243303180928_);}
	.st14{fill:url(#SVGID_00000125575852947148498720000002035724956695888539_);}
	.st15{fill:url(#SVGID_00000078035226384688743710000010547772667896939693_);}
	.st16{fill:url(#SVGID_00000103256399446166460970000001906574181495515265_);}
	.st17{fill:url(#SVGID_00000098929682113322811200000014515009192735260049_);}
	.st18{fill:url(#SVGID_00000106146284183903514570000009703496614703666588_);}
	.st19{fill:url(#SVGID_00000054957660046209782510000003001808388939350193_);}
	.st20{fill:url(#SVGID_00000140693391920174570990000003959363889852247729_);}
	.st21{fill:url(#SVGID_00000000200133359800106680000009311928722800922254_);}
	.st22{fill:url(#SVGID_00000059989720605622935350000015327376261834520211_);}
	.st23{fill:url(#SVGID_00000107585396753876670610000015027033987282406562_);}
	.st24{fill:url(#SVGID_00000083072207642515930610000014531483599484794252_);}
	.st25{fill:url(#SVGID_00000078759813971908452690000000610770154687214478_);}
	.st26{fill:url(#SVGID_00000047061470983539081650000003179781746691941762_);}
	.st27{fill:url(#SVGID_00000073713039179095300020000008513305866191642808_);}
	.st28{fill:url(#SVGID_00000072263709870579302740000016937735914855920272_);}
	.st29{fill:url(#SVGID_00000016789382882853181750000005364308072612152970_);}
	.st30{fill:url(#SVGID_00000076598614143866995750000005088090718264779172_);}
	.st31{fill:url(#SVGID_00000000936229727482889690000008873539752727079068_);}
	.st32{fill:url(#SVGID_00000047022833602298000700000013675774093854540186_);}
	.st33{fill:url(#SVGID_00000021810590939000178030000004404826905120205743_);}
	.st34{fill:url(#SVGID_00000116225867514627112210000008176664094123168437_);}
	.st35{fill:url(#SVGID_00000133530016910324843450000012065269112623770025_);}
	.st36{fill:url(#SVGID_00000096771681300482422780000003166387730509150612_);}
	.st37{fill:url(#SVGID_00000127723510739175570040000015080503669791844766_);}
	.st38{fill:url(#SVGID_00000056400024743985464220000009217218147251698346_);}
	.st39{fill:url(#SVGID_00000088841882860654277110000014124212784378388878_);}
</style>

<g>
	<animateTransform attributeName="transform" attributeType="XML" type="translate" values="0 0; 2801.51 0; 0 0; 0 0" keyTimes="0; 0.999950002499875; 1.0; 1" calcMode="linear" dur="20.001s" repeatCount="indefinite" />

	<g>
		<linearGradient id="SVGID_1_" gradientUnits="userSpaceOnUse" x1="-2591.207" y1="279.9119" x2="-2241.208" y2="279.9119">
			<stop  offset="0" style="stop-color:#177366"/>
			<stop  offset="1" style="stop-color:#12494D"/>
		</linearGradient>
		<path class="st0" d="M-2591.21,350c0,78.71,25.99,151.36,69.85,209.82c-0.07-0.43-16.71-110.69,82.42-308.77
			C-2339.72,52.78-2241.39,0.1-2241.21,0c0,0,0,0,0,0C-2434.51,0-2591.21,156.7-2591.21,350z"/>
		
			<linearGradient id="SVGID_00000090974473589273532480000013589616265413976718_" gradientUnits="userSpaceOnUse" x1="-2522.4504" y1="279.915" x2="-2171.3591" y2="279.915">
			<stop  offset="0" style="stop-color:#177366"/>
			<stop  offset="1" style="stop-color:#12494D"/>
		</linearGradient>
		<path style="fill:url(#SVGID_00000090974473589273532480000013589616265413976718_);" d="M-2171.36,209.83
			c0-78.72-25.99-151.36-69.85-209.83c-0.19,0.1-98.52,52.78-197.74,251.06c-99.12,198.07-82.48,308.34-82.42,308.77c0,0,0,0,0,0.01
			C-2328.06,559.83-2171.36,403.13-2171.36,209.83z"/>
	</g>
	<g>
		
			<linearGradient id="SVGID_00000129196033071249465420000013374104779871253890_" gradientUnits="userSpaceOnUse" x1="6737.4556" y1="279.9119" x2="7087.4541" y2="279.9119" gradientTransform="matrix(-1 0 0 1 4285.9443 0)">
			<stop  offset="0" style="stop-color:#95C58B"/>
			<stop  offset="0.828" style="stop-color:#177366"/>
			<stop  offset="0.9355" style="stop-color:#1D7467"/>
			<stop  offset="0.9355" style="stop-color:#227567"/>
		</linearGradient>
		<path style="fill:url(#SVGID_00000129196033071249465420000013374104779871253890_);" d="M-2451.51,350
			c0,78.71-25.99,151.36-69.85,209.82c0.07-0.43,16.71-110.69-82.42-308.77C-2702.99,52.78-2801.32,0.1-2801.51,0c0,0,0,0,0,0
			C-2608.21,0-2451.51,156.7-2451.51,350z"/>
		
			<linearGradient id="SVGID_00000183933326377441587830000003063615828276515482_" gradientUnits="userSpaceOnUse" x1="6806.2119" y1="279.915" x2="7157.3032" y2="279.915" gradientTransform="matrix(-1 0 0 1 4285.9443 0)">
			<stop  offset="0" style="stop-color:#95C58B"/>
			<stop  offset="0.828" style="stop-color:#177366"/>
			<stop  offset="0.9355" style="stop-color:#1D7467"/>
			<stop  offset="0.9355" style="stop-color:#227567"/>
		</linearGradient>
		<path style="fill:url(#SVGID_00000183933326377441587830000003063615828276515482_);" d="M-2871.36,209.83
			c0-78.72,25.99-151.36,69.85-209.83c0.19,0.1,98.52,52.78,197.74,251.06c99.12,198.07,82.48,308.34,82.42,308.77c0,0,0,0,0,0.01
			C-2714.66,559.83-2871.36,403.13-2871.36,209.83z"/>
	</g>
	<g>
		
			<linearGradient id="SVGID_00000147199761435806916180000003438722680354613150_" gradientUnits="userSpaceOnUse" x1="-2030.905" y1="279.9119" x2="-1680.906" y2="279.9119">
			<stop  offset="0" style="stop-color:#177366"/>
			<stop  offset="1" style="stop-color:#12494D"/>
		</linearGradient>
		<path style="fill:url(#SVGID_00000147199761435806916180000003438722680354613150_);" d="M-2030.91,350
			c0,78.71,25.99,151.36,69.85,209.82c-0.07-0.43-16.71-110.69,82.42-308.77C-1779.42,52.78-1681.09,0.1-1680.91,0c0,0,0,0,0,0
			C-1874.21,0-2030.91,156.7-2030.91,350z"/>
		
			<linearGradient id="SVGID_00000136409732860727698370000001637229196652654755_" gradientUnits="userSpaceOnUse" x1="-1962.1484" y1="279.915" x2="-1611.057" y2="279.915">
			<stop  offset="0" style="stop-color:#177366"/>
			<stop  offset="1" style="stop-color:#12494D"/>
		</linearGradient>
		<path style="fill:url(#SVGID_00000136409732860727698370000001637229196652654755_);" d="M-1611.06,209.83
			c0-78.72-25.99-151.36-69.85-209.83c-0.19,0.1-98.52,52.78-197.74,251.06c-99.12,198.07-82.48,308.34-82.42,308.77c0,0,0,0,0,0.01
			C-1767.76,559.83-1611.06,403.13-1611.06,209.83z"/>
	</g>
	<g>
		
			<linearGradient id="SVGID_00000160910583638988847010000015751706982087978139_" gradientUnits="userSpaceOnUse" x1="6177.1533" y1="279.9119" x2="6527.1523" y2="279.9119" gradientTransform="matrix(-1 0 0 1 4285.9443 0)">
			<stop  offset="0" style="stop-color:#95C58B"/>
			<stop  offset="0.828" style="stop-color:#177366"/>
			<stop  offset="0.9355" style="stop-color:#1D7467"/>
			<stop  offset="0.9355" style="stop-color:#227567"/>
		</linearGradient>
		<path style="fill:url(#SVGID_00000160910583638988847010000015751706982087978139_);" d="M-1891.21,350
			c0,78.71-25.99,151.36-69.85,209.82c0.07-0.43,16.71-110.69-82.42-308.77C-2142.69,52.78-2241.02,0.1-2241.21,0c0,0,0,0,0,0
			C-2047.91,0-1891.21,156.7-1891.21,350z"/>
		
			<linearGradient id="SVGID_00000020385982737521770860000018004592508126921877_" gradientUnits="userSpaceOnUse" x1="6245.9097" y1="279.915" x2="6597.0015" y2="279.915" gradientTransform="matrix(-1 0 0 1 4285.9443 0)">
			<stop  offset="0" style="stop-color:#95C58B"/>
			<stop  offset="0.828" style="stop-color:#177366"/>
			<stop  offset="0.9355" style="stop-color:#1D7467"/>
			<stop  offset="0.9355" style="stop-color:#227567"/>
		</linearGradient>
		<path style="fill:url(#SVGID_00000020385982737521770860000018004592508126921877_);" d="M-2311.06,209.83
			c0-78.72,25.99-151.36,69.85-209.83c0.19,0.1,98.52,52.78,197.74,251.06c99.12,198.07,82.48,308.34,82.42,308.77c0,0,0,0,0,0.01
			C-2154.36,559.83-2311.06,403.13-2311.06,209.83z"/>
	</g>
	<g>
		
			<linearGradient id="SVGID_00000107564430235668101500000015191793097669866395_" gradientUnits="userSpaceOnUse" x1="-1470.603" y1="279.9119" x2="-1120.604" y2="279.9119">
			<stop  offset="0" style="stop-color:#177366"/>
			<stop  offset="1" style="stop-color:#12494D"/>
		</linearGradient>
		<path style="fill:url(#SVGID_00000107564430235668101500000015191793097669866395_);" d="M-1470.6,350
			c0,78.71,25.99,151.36,69.85,209.82c-0.07-0.43-16.71-110.69,82.42-308.77C-1219.12,52.78-1120.79,0.1-1120.6,0c0,0,0,0,0,0
			C-1313.9,0-1470.6,156.7-1470.6,350z"/>
		
			<linearGradient id="SVGID_00000103945724868610908230000012894697553697379737_" gradientUnits="userSpaceOnUse" x1="-1401.8464" y1="279.915" x2="-1050.755" y2="279.915">
			<stop  offset="0" style="stop-color:#177366"/>
			<stop  offset="1" style="stop-color:#12494D"/>
		</linearGradient>
		<path style="fill:url(#SVGID_00000103945724868610908230000012894697553697379737_);" d="M-1050.76,209.83
			c0-78.72-25.99-151.36-69.85-209.83c-0.19,0.1-98.52,52.78-197.74,251.06c-99.12,198.07-82.48,308.34-82.42,308.77c0,0,0,0,0,0.01
			C-1207.45,559.83-1050.76,403.13-1050.76,209.83z"/>
	</g>
	<g>
		
			<linearGradient id="SVGID_00000011729755997909243610000002021577518761908400_" gradientUnits="userSpaceOnUse" x1="5616.8511" y1="279.9119" x2="5966.8501" y2="279.9119" gradientTransform="matrix(-1 0 0 1 4285.9443 0)">
			<stop  offset="0" style="stop-color:#95C58B"/>
			<stop  offset="0.828" style="stop-color:#177366"/>
			<stop  offset="0.9355" style="stop-color:#1D7467"/>
			<stop  offset="0.9355" style="stop-color:#227567"/>
		</linearGradient>
		<path style="fill:url(#SVGID_00000011729755997909243610000002021577518761908400_);" d="M-1330.91,350
			c0,78.71-25.99,151.36-69.85,209.82c0.07-0.43,16.71-110.69-82.42-308.77C-1582.39,52.78-1680.72,0.1-1680.91,0c0,0,0,0,0,0
			C-1487.61,0-1330.91,156.7-1330.91,350z"/>
		
			<linearGradient id="SVGID_00000090286289210632966810000009752028181683136185_" gradientUnits="userSpaceOnUse" x1="5685.6079" y1="279.915" x2="6036.6992" y2="279.915" gradientTransform="matrix(-1 0 0 1 4285.9443 0)">
			<stop  offset="0" style="stop-color:#95C58B"/>
			<stop  offset="0.828" style="stop-color:#177366"/>
			<stop  offset="0.9355" style="stop-color:#1D7467"/>
			<stop  offset="0.9355" style="stop-color:#227567"/>
		</linearGradient>
		<path style="fill:url(#SVGID_00000090286289210632966810000009752028181683136185_);" d="M-1750.76,209.83
			c0-78.72,25.99-151.36,69.85-209.83c0.19,0.1,98.52,52.78,197.74,251.06c99.12,198.07,82.48,308.34,82.42,308.77c0,0,0,0,0,0.01
			C-1594.06,559.83-1750.76,403.13-1750.76,209.83z"/>
	</g>
	<g>
		
			<linearGradient id="SVGID_00000119809895020338161820000017256030664279779465_" gradientUnits="userSpaceOnUse" x1="-910.301" y1="279.9119" x2="-560.302" y2="279.9119">
			<stop  offset="0" style="stop-color:#177366"/>
			<stop  offset="1" style="stop-color:#12494D"/>
		</linearGradient>
		<path style="fill:url(#SVGID_00000119809895020338161820000017256030664279779465_);" d="M-910.3,350
			c0,78.71,25.99,151.36,69.85,209.82c-0.07-0.43-16.71-110.69,82.42-308.77C-658.82,52.78-560.49,0.1-560.3,0c0,0,0,0,0,0
			C-753.6,0-910.3,156.7-910.3,350z"/>
		
			<linearGradient id="SVGID_00000057116822598758454360000015750785585385715877_" gradientUnits="userSpaceOnUse" x1="-841.5444" y1="279.915" x2="-490.453" y2="279.915">
			<stop  offset="0" style="stop-color:#177366"/>
			<stop  offset="1" style="stop-color:#12494D"/>
		</linearGradient>
		<path style="fill:url(#SVGID_00000057116822598758454360000015750785585385715877_);" d="M-490.45,209.83
			c0-78.72-25.99-151.36-69.85-209.83c-0.19,0.1-98.52,52.78-197.74,251.06c-99.12,198.07-82.48,308.34-82.42,308.77c0,0,0,0,0,0.01
			C-647.15,559.83-490.45,403.13-490.45,209.83z"/>
	</g>
	<g>
		
			<linearGradient id="SVGID_00000046309790830655847650000016573141553988313527_" gradientUnits="userSpaceOnUse" x1="5056.5493" y1="279.9119" x2="5406.5483" y2="279.9119" gradientTransform="matrix(-1 0 0 1 4285.9443 0)">
			<stop  offset="0" style="stop-color:#95C58B"/>
			<stop  offset="0.828" style="stop-color:#177366"/>
			<stop  offset="0.9355" style="stop-color:#1D7467"/>
			<stop  offset="0.9355" style="stop-color:#227567"/>
		</linearGradient>
		<path style="fill:url(#SVGID_00000046309790830655847650000016573141553988313527_);" d="M-770.61,350
			c0,78.71-25.99,151.36-69.85,209.82c0.07-0.43,16.71-110.69-82.42-308.77C-1022.09,52.78-1120.42,0.1-1120.6,0c0,0,0,0,0,0
			C-927.3,0-770.61,156.7-770.61,350z"/>
		
			<linearGradient id="SVGID_00000022550436978582876550000007371074756715156926_" gradientUnits="userSpaceOnUse" x1="5125.3057" y1="279.915" x2="5476.3975" y2="279.915" gradientTransform="matrix(-1 0 0 1 4285.9443 0)">
			<stop  offset="0" style="stop-color:#95C58B"/>
			<stop  offset="0.828" style="stop-color:#177366"/>
			<stop  offset="0.9355" style="stop-color:#1D7467"/>
			<stop  offset="0.9355" style="stop-color:#227567"/>
		</linearGradient>
		<path style="fill:url(#SVGID_00000022550436978582876550000007371074756715156926_);" d="M-1190.45,209.83
			c0-78.72,25.99-151.36,69.85-209.83c0.19,0.1,98.52,52.78,197.74,251.06c99.12,198.07,82.48,308.34,82.42,308.77c0,0,0,0,0,0.01
			C-1033.75,559.83-1190.45,403.13-1190.45,209.83z"/>
	</g>
	<g>
		
			<linearGradient id="SVGID_00000049911015075155328090000002219340730920049044_" gradientUnits="userSpaceOnUse" x1="-349.999" y1="279.9119" x2="0" y2="279.9119">
			<stop  offset="0" style="stop-color:#177366"/>
			<stop  offset="1" style="stop-color:#12494D"/>
		</linearGradient>
		<path style="fill:url(#SVGID_00000049911015075155328090000002219340730920049044_);" d="M-350,350
			c0,78.71,25.99,151.36,69.85,209.82c-0.07-0.43-16.71-110.69,82.42-308.77C-98.52,52.78-0.19,0.1,0,0c0,0,0,0,0,0
			C-193.3,0-350,156.7-350,350z"/>
		
			<linearGradient id="SVGID_00000133498032730599108670000008013691239685344154_" gradientUnits="userSpaceOnUse" x1="-281.2424" y1="279.915" x2="69.849" y2="279.915">
			<stop  offset="0" style="stop-color:#177366"/>
			<stop  offset="1" style="stop-color:#12494D"/>
		</linearGradient>
		<path style="fill:url(#SVGID_00000133498032730599108670000008013691239685344154_);" d="M69.85,209.83
			C69.85,131.11,43.86,58.47,0,0c-0.19,0.1-98.52,52.78-197.74,251.06c-99.12,198.07-82.48,308.34-82.42,308.77c0,0,0,0,0,0.01
			C-86.85,559.83,69.85,403.13,69.85,209.83z"/>
	</g>
	<g>
		
			<linearGradient id="SVGID_00000116209139730774757440000002594869647262863013_" gradientUnits="userSpaceOnUse" x1="4496.2471" y1="279.9119" x2="4846.2461" y2="279.9119" gradientTransform="matrix(-1 0 0 1 4285.9443 0)">
			<stop  offset="0" style="stop-color:#95C58B"/>
			<stop  offset="0.828" style="stop-color:#177366"/>
			<stop  offset="0.9355" style="stop-color:#1D7467"/>
			<stop  offset="0.9355" style="stop-color:#227567"/>
		</linearGradient>
		<path style="fill:url(#SVGID_00000116209139730774757440000002594869647262863013_);" d="M-210.3,350
			c0,78.71-25.99,151.36-69.85,209.82c0.07-0.43,16.71-110.69-82.42-308.77C-461.79,52.78-560.12,0.1-560.3,0c0,0,0,0,0,0
			C-367,0-210.3,156.7-210.3,350z"/>
		
			<linearGradient id="SVGID_00000047768534161489572540000000879004276351504804_" gradientUnits="userSpaceOnUse" x1="4565.0039" y1="279.915" x2="4916.0952" y2="279.915" gradientTransform="matrix(-1 0 0 1 4285.9443 0)">
			<stop  offset="0" style="stop-color:#95C58B"/>
			<stop  offset="0.828" style="stop-color:#177366"/>
			<stop  offset="0.9355" style="stop-color:#1D7467"/>
			<stop  offset="0.9355" style="stop-color:#227567"/>
		</linearGradient>
		<path style="fill:url(#SVGID_00000047768534161489572540000000879004276351504804_);" d="M-630.15,209.83
			c0-78.72,25.99-151.36,69.85-209.83c0.19,0.1,98.52,52.78,197.74,251.06c99.12,198.07,82.48,308.34,82.42,308.77c0,0,0,0,0,0.01
			C-473.45,559.83-630.15,403.13-630.15,209.83z"/>
	</g>
	<g>
		
			<linearGradient id="SVGID_00000021104489096988822810000003248053421369891490_" gradientUnits="userSpaceOnUse" x1="210.303" y1="279.9119" x2="560.302" y2="279.9119">
			<stop  offset="0" style="stop-color:#177366"/>
			<stop  offset="1" style="stop-color:#12494D"/>
		</linearGradient>
		<path style="fill:url(#SVGID_00000021104489096988822810000003248053421369891490_);" d="M210.3,350
			c0,78.71,25.99,151.36,69.85,209.82c-0.07-0.43-16.71-110.69,82.42-308.77C461.79,52.78,560.12,0.1,560.3,0c0,0,0,0,0,0
			C367,0,210.3,156.7,210.3,350z"/>
		
			<linearGradient id="SVGID_00000020379637330101165290000008553914376119378594_" gradientUnits="userSpaceOnUse" x1="279.0596" y1="279.915" x2="630.151" y2="279.915">
			<stop  offset="0" style="stop-color:#177366"/>
			<stop  offset="1" style="stop-color:#12494D"/>
		</linearGradient>
		<path style="fill:url(#SVGID_00000020379637330101165290000008553914376119378594_);" d="M630.15,209.83
			c0-78.72-25.99-151.36-69.85-209.83c-0.19,0.1-98.52,52.78-197.74,251.06c-99.12,198.07-82.48,308.34-82.42,308.77c0,0,0,0,0,0.01
			C473.45,559.83,630.15,403.13,630.15,209.83z"/>
	</g>
	<g>
		
			<linearGradient id="SVGID_00000066512217183308878400000008641040394257753008_" gradientUnits="userSpaceOnUse" x1="3935.9453" y1="279.9119" x2="4285.9443" y2="279.9119" gradientTransform="matrix(-1 0 0 1 4285.9443 0)">
			<stop  offset="0" style="stop-color:#95C58B"/>
			<stop  offset="0.828" style="stop-color:#177366"/>
			<stop  offset="0.9355" style="stop-color:#1D7467"/>
			<stop  offset="0.9355" style="stop-color:#227567"/>
		</linearGradient>
		<path style="fill:url(#SVGID_00000066512217183308878400000008641040394257753008_);" d="M350,350
			c0,78.71-25.99,151.36-69.85,209.82c0.07-0.43,16.71-110.69-82.42-308.77C98.52,52.78,0.19,0.1,0,0c0,0,0,0,0,0
			C193.3,0,350,156.7,350,350z"/>
		
			<linearGradient id="SVGID_00000014598177363624483200000009208921210949261958_" gradientUnits="userSpaceOnUse" x1="4004.7019" y1="279.915" x2="4355.7935" y2="279.915" gradientTransform="matrix(-1 0 0 1 4285.9443 0)">
			<stop  offset="0" style="stop-color:#95C58B"/>
			<stop  offset="0.828" style="stop-color:#177366"/>
			<stop  offset="0.9355" style="stop-color:#1D7467"/>
			<stop  offset="0.9355" style="stop-color:#227567"/>
		</linearGradient>
		<path style="fill:url(#SVGID_00000014598177363624483200000009208921210949261958_);" d="M-69.85,209.83
			C-69.85,131.11-43.86,58.47,0,0c0.19,0.1,98.52,52.78,197.74,251.06c99.12,198.07,82.48,308.34,82.42,308.77c0,0,0,0,0,0.01
			C86.85,559.83-69.85,403.13-69.85,209.83z"/>
	</g>
	<g>
		
			<linearGradient id="SVGID_00000030470020278348420390000014867864070664767386_" gradientUnits="userSpaceOnUse" x1="770.605" y1="279.9119" x2="1120.604" y2="279.9119">
			<stop  offset="0" style="stop-color:#177366"/>
			<stop  offset="1" style="stop-color:#12494D"/>
		</linearGradient>
		<path style="fill:url(#SVGID_00000030470020278348420390000014867864070664767386_);" d="M770.61,350
			c0,78.71,25.99,151.36,69.85,209.82c-0.07-0.43-16.71-110.69,82.42-308.77C1022.09,52.78,1120.42,0.1,1120.6,0c0,0,0,0,0,0
			C927.3,0,770.61,156.7,770.61,350z"/>
		
			<linearGradient id="SVGID_00000051376869487278035070000007126790597850954930_" gradientUnits="userSpaceOnUse" x1="839.3616" y1="279.915" x2="1190.453" y2="279.915">
			<stop  offset="0" style="stop-color:#177366"/>
			<stop  offset="1" style="stop-color:#12494D"/>
		</linearGradient>
		<path style="fill:url(#SVGID_00000051376869487278035070000007126790597850954930_);" d="M1190.45,209.83
			c0-78.72-25.99-151.36-69.85-209.83c-0.19,0.1-98.52,52.78-197.74,251.06c-99.12,198.07-82.48,308.34-82.42,308.77c0,0,0,0,0,0.01
			C1033.75,559.83,1190.45,403.13,1190.45,209.83z"/>
	</g>
	<g>
		
			<linearGradient id="SVGID_00000147909123189232670090000013179539538308300685_" gradientUnits="userSpaceOnUse" x1="3375.6433" y1="279.9119" x2="3725.6423" y2="279.9119" gradientTransform="matrix(-1 0 0 1 4285.9443 0)">
			<stop  offset="0" style="stop-color:#95C58B"/>
			<stop  offset="0.828" style="stop-color:#177366"/>
			<stop  offset="0.9355" style="stop-color:#1D7467"/>
			<stop  offset="0.9355" style="stop-color:#227567"/>
		</linearGradient>
		<path style="fill:url(#SVGID_00000147909123189232670090000013179539538308300685_);" d="M910.3,350
			c0,78.71-25.99,151.36-69.85,209.82c0.07-0.43,16.71-110.69-82.42-308.77C658.82,52.78,560.49,0.1,560.3,0c0,0,0,0,0,0
			C753.6,0,910.3,156.7,910.3,350z"/>
		
			<linearGradient id="SVGID_00000088854037496904944010000007991182351495229867_" gradientUnits="userSpaceOnUse" x1="3444.3999" y1="279.915" x2="3795.4912" y2="279.915" gradientTransform="matrix(-1 0 0 1 4285.9443 0)">
			<stop  offset="0" style="stop-color:#95C58B"/>
			<stop  offset="0.828" style="stop-color:#177366"/>
			<stop  offset="0.9355" style="stop-color:#1D7467"/>
			<stop  offset="0.9355" style="stop-color:#227567"/>
		</linearGradient>
		<path style="fill:url(#SVGID_00000088854037496904944010000007991182351495229867_);" d="M490.45,209.83
			c0-78.72,25.99-151.36,69.85-209.83c0.19,0.1,98.52,52.78,197.74,251.06c99.12,198.07,82.48,308.34,82.42,308.77c0,0,0,0,0,0.01
			C647.15,559.83,490.45,403.13,490.45,209.83z"/>
	</g>
	<g>
		
			<linearGradient id="SVGID_00000083082526777532314200000010374464296318558349_" gradientUnits="userSpaceOnUse" x1="1330.9071" y1="279.9119" x2="1680.906" y2="279.9119">
			<stop  offset="0" style="stop-color:#177366"/>
			<stop  offset="1" style="stop-color:#12494D"/>
		</linearGradient>
		<path style="fill:url(#SVGID_00000083082526777532314200000010374464296318558349_);" d="M1330.91,350
			c0,78.71,25.99,151.36,69.85,209.82c-0.07-0.43-16.71-110.69,82.42-308.77C1582.39,52.78,1680.72,0.1,1680.91,0c0,0,0,0,0,0
			C1487.61,0,1330.91,156.7,1330.91,350z"/>
		
			<linearGradient id="SVGID_00000046339817967314348660000000740564636217148081_" gradientUnits="userSpaceOnUse" x1="1399.6637" y1="279.915" x2="1750.755" y2="279.915">
			<stop  offset="0" style="stop-color:#177366"/>
			<stop  offset="1" style="stop-color:#12494D"/>
		</linearGradient>
		<path style="fill:url(#SVGID_00000046339817967314348660000000740564636217148081_);" d="M1750.76,209.83
			c0-78.72-25.99-151.36-69.85-209.83c-0.19,0.1-98.52,52.78-197.74,251.06c-99.12,198.07-82.48,308.34-82.42,308.77c0,0,0,0,0,0.01
			C1594.06,559.83,1750.76,403.13,1750.76,209.83z"/>
	</g>
	<g>
		
			<linearGradient id="SVGID_00000121999555658149709150000010696731203681378197_" gradientUnits="userSpaceOnUse" x1="2815.3413" y1="279.9119" x2="3165.3403" y2="279.9119" gradientTransform="matrix(-1 0 0 1 4285.9443 0)">
			<stop  offset="0" style="stop-color:#95C58B"/>
			<stop  offset="0.828" style="stop-color:#177366"/>
			<stop  offset="0.9355" style="stop-color:#1D7467"/>
			<stop  offset="0.9355" style="stop-color:#227567"/>
		</linearGradient>
		<path style="fill:url(#SVGID_00000121999555658149709150000010696731203681378197_);" d="M1470.6,350
			c0,78.71-25.99,151.36-69.85,209.82c0.07-0.43,16.71-110.69-82.42-308.77C1219.12,52.78,1120.79,0.1,1120.6,0c0,0,0,0,0,0
			C1313.9,0,1470.6,156.7,1470.6,350z"/>
		
			<linearGradient id="SVGID_00000114773258132352542070000008161936752934945459_" gradientUnits="userSpaceOnUse" x1="2884.0979" y1="279.915" x2="3235.1892" y2="279.915" gradientTransform="matrix(-1 0 0 1 4285.9443 0)">
			<stop  offset="0" style="stop-color:#95C58B"/>
			<stop  offset="0.828" style="stop-color:#177366"/>
			<stop  offset="0.9355" style="stop-color:#1D7467"/>
			<stop  offset="0.9355" style="stop-color:#227567"/>
		</linearGradient>
		<path style="fill:url(#SVGID_00000114773258132352542070000008161936752934945459_);" d="M1050.76,209.83
			c0-78.72,25.99-151.36,69.85-209.83c0.19,0.1,98.52,52.78,197.74,251.06c99.12,198.07,82.48,308.34,82.42,308.77c0,0,0,0,0,0.01
			C1207.45,559.83,1050.76,403.13,1050.76,209.83z"/>
	</g>
	<g>
		
			<linearGradient id="SVGID_00000079463325244135715530000003222531935111924639_" gradientUnits="userSpaceOnUse" x1="1891.2091" y1="279.9119" x2="2241.208" y2="279.9119">
			<stop  offset="0" style="stop-color:#177366"/>
			<stop  offset="1" style="stop-color:#12494D"/>
		</linearGradient>
		<path style="fill:url(#SVGID_00000079463325244135715530000003222531935111924639_);" d="M1891.21,350
			c0,78.71,25.99,151.36,69.85,209.82c-0.07-0.43-16.71-110.69,82.42-308.77C2142.69,52.78,2241.02,0.1,2241.21,0c0,0,0,0,0,0
			C2047.91,0,1891.21,156.7,1891.21,350z"/>
		
			<linearGradient id="SVGID_00000061452829347999991990000013175395996681452932_" gradientUnits="userSpaceOnUse" x1="1959.9657" y1="279.915" x2="2311.0571" y2="279.915">
			<stop  offset="0" style="stop-color:#177366"/>
			<stop  offset="1" style="stop-color:#12494D"/>
		</linearGradient>
		<path style="fill:url(#SVGID_00000061452829347999991990000013175395996681452932_);" d="M2311.06,209.83
			c0-78.72-25.99-151.36-69.85-209.83c-0.19,0.1-98.52,52.78-197.74,251.06c-99.12,198.07-82.48,308.34-82.42,308.77c0,0,0,0,0,0.01
			C2154.36,559.83,2311.06,403.13,2311.06,209.83z"/>
	</g>
	<g>
		
			<linearGradient id="SVGID_00000171721462343070534670000002652458641287907224_" gradientUnits="userSpaceOnUse" x1="2255.0393" y1="279.9119" x2="2605.0381" y2="279.9119" gradientTransform="matrix(-1 0 0 1 4285.9443 0)">
			<stop  offset="0" style="stop-color:#95C58B"/>
			<stop  offset="0.828" style="stop-color:#177366"/>
			<stop  offset="0.9355" style="stop-color:#1D7467"/>
			<stop  offset="0.9355" style="stop-color:#227567"/>
		</linearGradient>
		<path style="fill:url(#SVGID_00000171721462343070534670000002652458641287907224_);" d="M2030.91,350
			c0,78.71-25.99,151.36-69.85,209.82c0.07-0.43,16.71-110.69-82.42-308.77C1779.42,52.78,1681.09,0.1,1680.91,0c0,0,0,0,0,0
			C1874.21,0,2030.91,156.7,2030.91,350z"/>
		
			<linearGradient id="SVGID_00000148638302915456563200000004392969034300100262_" gradientUnits="userSpaceOnUse" x1="2323.7959" y1="279.915" x2="2674.8872" y2="279.915" gradientTransform="matrix(-1 0 0 1 4285.9443 0)">
			<stop  offset="0" style="stop-color:#95C58B"/>
			<stop  offset="0.828" style="stop-color:#177366"/>
			<stop  offset="0.9355" style="stop-color:#1D7467"/>
			<stop  offset="0.9355" style="stop-color:#227567"/>
		</linearGradient>
		<path style="fill:url(#SVGID_00000148638302915456563200000004392969034300100262_);" d="M1611.06,209.83
			c0-78.72,25.99-151.36,69.85-209.83c0.19,0.1,98.52,52.78,197.74,251.06c99.12,198.07,82.48,308.34,82.42,308.77c0,0,0,0,0,0.01
			C1767.76,559.83,1611.06,403.13,1611.06,209.83z"/>
	</g>
	<g>
		
			<linearGradient id="SVGID_00000090284263196513202870000005095937868885540998_" gradientUnits="userSpaceOnUse" x1="2451.511" y1="279.9119" x2="2801.51" y2="279.9119">
			<stop  offset="0" style="stop-color:#177366"/>
			<stop  offset="1" style="stop-color:#12494D"/>
		</linearGradient>
		<path style="fill:url(#SVGID_00000090284263196513202870000005095937868885540998_);" d="M2451.51,350
			c0,78.71,25.99,151.36,69.85,209.82c-0.07-0.43-16.71-110.69,82.42-308.77C2702.99,52.78,2801.32,0.1,2801.51,0c0,0,0,0,0,0
			C2608.21,0,2451.51,156.7,2451.51,350z"/>
		
			<linearGradient id="SVGID_00000129172717597953461360000005934525560303775388_" gradientUnits="userSpaceOnUse" x1="2520.2676" y1="279.915" x2="2871.3591" y2="279.915">
			<stop  offset="0" style="stop-color:#177366"/>
			<stop  offset="1" style="stop-color:#12494D"/>
		</linearGradient>
		<path style="fill:url(#SVGID_00000129172717597953461360000005934525560303775388_);" d="M2871.36,209.83
			c0-78.72-25.99-151.36-69.85-209.83c-0.19,0.1-98.52,52.78-197.74,251.06c-99.12,198.07-82.48,308.34-82.42,308.77c0,0,0,0,0,0.01
			C2714.66,559.83,2871.36,403.13,2871.36,209.83z"/>
	</g>
	<g>
		
			<linearGradient id="SVGID_00000175290414062062690910000001572834781640090301_" gradientUnits="userSpaceOnUse" x1="1694.7372" y1="279.9119" x2="2044.7362" y2="279.9119" gradientTransform="matrix(-1 0 0 1 4285.9443 0)">
			<stop  offset="0" style="stop-color:#95C58B"/>
			<stop  offset="0.828" style="stop-color:#177366"/>
			<stop  offset="0.9355" style="stop-color:#1D7467"/>
			<stop  offset="0.9355" style="stop-color:#227567"/>
		</linearGradient>
		<path style="fill:url(#SVGID_00000175290414062062690910000001572834781640090301_);" d="M2591.21,350
			c0,78.71-25.99,151.36-69.85,209.82c0.07-0.43,16.71-110.69-82.42-308.77C2339.72,52.78,2241.39,0.1,2241.21,0c0,0,0,0,0,0
			C2434.51,0,2591.21,156.7,2591.21,350z"/>
		
			<linearGradient id="SVGID_00000157296056269208551610000004806024134147585438_" gradientUnits="userSpaceOnUse" x1="1763.4938" y1="279.915" x2="2114.5852" y2="279.915" gradientTransform="matrix(-1 0 0 1 4285.9443 0)">
			<stop  offset="0" style="stop-color:#95C58B"/>
			<stop  offset="0.828" style="stop-color:#177366"/>
			<stop  offset="0.9355" style="stop-color:#1D7467"/>
			<stop  offset="0.9355" style="stop-color:#227567"/>
		</linearGradient>
		<path style="fill:url(#SVGID_00000157296056269208551610000004806024134147585438_);" d="M2171.36,209.83
			c0-78.72,25.99-151.36,69.85-209.83c0.19,0.1,98.52,52.78,197.74,251.06c99.12,198.07,82.48,308.34,82.42,308.77c0,0,0,0,0,0.01
			C2328.06,559.83,2171.36,403.13,2171.36,209.83z"/>
	</g>
</g>

</svg>