<svg xmlns="http://www.w3.org/2000/svg" viewBox="0 0 24 24" style="background-color:#DEE8FF;fill:#0057FF;">
<rect x="13.8" y="8.6" width="3.1" height="0.9"/>
<path d="M15.4,11.2c-1.2,0-1.3,1.1-1.3,1.1h2.4C16.6,12.3,16.6,11.2,15.4,11.2z M18,13.3h-3.9c0,1.4,1.3,1.3,1.3,1.3
	c1.2,0,1.2-0.8,1.2-0.8h1.3c0,2.1-2.5,2-2.5,2c-3.1,0-2.9-2.8-2.9-2.8s0-2.9,2.9-2.9C18.4,10.1,18,13.3,18,13.3L18,13.3z"/>
<path d="M9.9,12.3H7.7v2h2.1c0.3,0,0.9-0.1,0.9-1C10.7,12.3,9.9,12.3,9.9,12.3z M12.2,13.4c0,2.3-2.4,2.2-2.4,2.2H6V8.2h3.9
	c1.2,0,2.1,0.6,2.1,2s-1.1,1.4-1.1,1.4C12.3,11.6,12.2,13.4,12.2,13.4L12.2,13.4z M10.4,10.3c0-0.8-0.5-0.8-0.5-0.8H7.7v1.7h2
	C10.1,11.2,10.4,11.1,10.4,10.3z"/>
</svg>
