<svg xmlns="http://www.w3.org/2000/svg" viewBox="0 0 24 24" style="background-color:#202022;fill:#fff;">
<path d="M18,11.9c0-0.1,0-0.1-0.1-0.1c-2.2-0.1-3.5-0.4-4.4-1.3c-0.9-0.9-1.2-2.2-1.3-4.4C12.2,6,12.2,6,12.1,6h-0.3
	c-0.1,0-0.1,0-0.1,0.1c-0.1,2.2-0.4,3.5-1.3,4.4c-0.9,0.9-2.2,1.2-4.4,1.3C6,11.8,6,11.8,6,11.9v0.3c0,0.1,0,0.1,0.1,0.1
	c2.2,0.1,3.5,0.4,4.4,1.3c0.9,0.9,1.2,2.2,1.3,4.4c0,0.1,0.1,0.1,0.1,0.1h0.3c0.1,0,0.1,0,0.1-0.1c0.1-2.1,0.4-3.5,1.3-4.4
	c0.9-0.9,2.2-1.2,4.4-1.3c0.1,0,0.1-0.1,0.1-0.1L18,11.9L18,11.9z"/>
</svg>
