<svg xmlns="http://www.w3.org/2000/svg" viewBox="0 0 24 24" style="background-color:#037DCA; fill:#fff;">
<path d="M7.87,18l-0.22-0.56c0,0,1.23-0.33,1.63-1.88l0.93-5.97H9.28l0.03-0.66h1.11c0,0,0.06-2.62,3.23-2.91
	c3.01-0.27,2.69,2.34,2.69,2.34s-2.65,0.31-2.71,1.76c-0.06,1.58,2.39,1.38,2.38,3.35c-0.02,2-2.83,2.59-4.56,1.7l0.33-0.76
	c0.95,0.9,2.94,0.51,2.94-0.53c0-1.49-2.39-1.96-2.34-3.34c0.06-1.89,2.77-2.46,2.77-2.46s0.26-1.48-1.6-1.51
	C11.9,6.54,11.59,8.9,11.59,8.9l-1.11,6.5C10.01,17.33,7.87,18,7.87,18z"/>
</svg>
