<?xml version="1.0" encoding="utf-8"?>
<svg xmlns="http://www.w3.org/2000/svg" viewBox="0 0 24 24" style="background-color:#fff; fill:#5F5F5F;">
<path d="M12.07,18l0.19-0.55l-0.38-0.09c-0.41-0.13-0.69-0.28-0.83-0.47c-0.13-0.18-0.19-0.52-0.19-1.02v-3.1h1.21
	c0.57,0,0.98,0.06,1.23,0.19c0.25,0.13,0.43,0.37,0.54,0.74l0.09,0.36l0.55-0.19v-2.73l-0.33-0.19L14,11.14
	c-0.33,0.49-0.75,0.74-1.24,0.74h-1.89V8.65c0-0.49,0.06-0.82,0.19-0.98c0.14-0.16,0.41-0.24,0.83-0.24h1.41
	c0.56,0,0.95,0.09,1.17,0.29c0.22,0.18,0.4,0.56,0.55,1.14l0.12,0.38l0.52-0.19V6.21L15.41,6l-0.28,0.21
	c-0.31,0.22-0.92,0.33-1.84,0.33H8.55l-0.2,0.25l0.21,0.29C9.05,7.71,9.29,8.6,9.29,9.73v5.06c0,0.64-0.06,1.16-0.17,1.55
	c-0.1,0.38-0.29,0.75-0.57,1.1l-0.21,0.29l0.21,0.26L12.07,18z"/>
</svg>
