<svg xmlns="http://www.w3.org/2000/svg" viewBox="0 0 180 180" style="background-color:#629FBC;fill:#fff;">
<path d="M39,81l1,1.3c-1.9,0-3.9-0.2-4.2-1V81c1-0.2,2-0.2,3.3-0.2L39,81z M49.2,85.2l0.4,1.4h-1l0.2-1.4
	C48.8,85.2,49.2,85.2,49.2,85.2z M52.8,95.4c-1,0.9-1.7,1.4-2.2,2.8c-0.8-0.7-1.2-2-1.5-3.4l-0.5-4.5v-0.7h1.1l2.8,5.2
	C52.5,94.8,52.8,95.4,52.8,95.4z M51.4,82.4c0.1-1,0.3-2,0.4-3h0.4C52.2,79.4,51.4,82.4,51.4,82.4z M50.6,69.4l5,1.3V71
	c-2.3,1.7-4.5,2.4-5.6,5.6l0.4-7C50.4,69.6,50.6,69.4,50.6,69.4z M55.3,62.2c-0.3,3.2,0.2,4.6,0.7,6.6c1,0.7,1.3,1,1,2
	c-1.5-0.7-3.1-1.5-5.4-1.4l-0.2-0.2c0.7-2.5,2-4.1,2.9-6.1L55.3,62.2L55.3,62.2z M62.6,57.9h0.2c-0.7,2.3-1,7.8-2.2,10
	c-2.9-1.3-2.8-7.2,0.4-9.5L62.6,57.9z M59.9,75.5l2.4,2.7c-1,2.9-2.7,5-3.5,8.4h-1.4c-1.2-3.5,1.8-9,2.3-11.5l2.3,0.3l0.8,2
	C62.8,77.4,59.9,75.5,59.9,75.5z M66.5,58c-0.2,2.8,0.4,4.2,0.6,6.4l-4.3,2.2c0.3-3.6,1-6,2-8.5L66.5,58z M68.2,53.7h0.3L68,55h-1
	l0.8-0.8C67.8,54.2,68.2,53.7,68.2,53.7z M68.5,66.8c-1.4,1-2.9,1.8-4.3,2.7c0.1-1.6,2.1-3.8,3.8-4.4l0.4,0.3L68.5,66.8L68.5,66.8z
	 M71.3,56.9l-0.7,4.4l-0.8,0.5l-0.5,0.5c-0.7-1.1-1-3.8-0.8-5.8C68.5,56.5,71.3,56.9,71.3,56.9z M74.2,53.6v0.2l-1.1,1
	c-0.8,0.3-0.8,0.3-1.8,0.3l0.4-1.5H74.2z M77,47.9l-1.2,2.9l-4.5-0.4v-0.2C73.2,49.4,74.8,48.4,77,47.9z M74.7,55.3l0.5-0.2l0.4,1.4
	c-0.5,0-1-0.2-1.4-0.3L74.7,55.3z M78.4,59.6c-1.7,0.7-4,0.5-5.4,1.2l-0.2-1.7l0.8-1.1c1.5,0.5,3,1,4.3,1.6
	C77.9,59.6,78.4,59.6,78.4,59.6z M74.8,62.2h-2v-0.5c1.3-0.6,3.6-0.6,5.6-0.9L76.3,62L74.8,62.2z M79.8,62.2c-1.6,0.6-3.1,1.6-4.2,3
	c-0.2-1.4,2.3-3.7,3.5-4.4c0.5,0.5,0.6,0.5,0.8,1.4L79.8,62.2z M82.8,45l-0.1,0.2l-1.7,1l-2.6,0.2v-0.2L82.8,45L82.8,45z M80.4,49.3
	l-0.5-0.8c1.2-1,4-0.5,5.7-0.3L80.4,49.3z M93.1,45c2.4,0.2,4.6,0.7,6.2,1.8h0.5l-0.3,0.3l-2.3,0.7l-4-0.6l-9-1.3v-0.2
	C87.1,45.1,90.2,44.7,93.1,45L93.1,45z M102.6,44.2l-0.5,0.7c-1.3-0.1-2.6-0.6-3.7-1.4l4.2,0.5V44.2z M110.2,49.5l1.2-0.4l1.2,1
	c-0.2,1.2-1.3,2.2-2.2,3.4h-0.7c-1.9-3-4.2-6.4-8.3-7.6l-0.2-0.3l1.7-0.7c2.8,1,5,2.4,7.7,3.3C110.9,49,110.8,48.7,110.2,49.5z
	 M113.6,56.4l-0.3-0.4h-0.7l1.2-1L113.6,56.4z M114.9,72.2c2,1.7,2.4,4.1,1.6,7.2L114,74l0.8-1.3L114.9,72.2L114.9,72.2z
	 M115.4,59.3v0.3l-1,1.1L114,60c0.6-1.1,0.2-0.5,1-0.7C115,59.3,115.4,59.3,115.4,59.3z M116.6,59.3l4.5,1.7v0.4l-1.1,0.8l-4.6-1.7
	v-0.4L116.6,59.3z M125.4,65l-2.5-1.6l-0.3-0.7c1-0.6,0.9-0.6,2-0.4L125.4,65z M126.8,64.5l-0.5,0.5c-0.6-0.3-0.7-0.7-0.9-1.4
	l1.3,0.6L126.8,64.5z M125.8,60.4h-0.4l1.2-1.1L125.8,60.4L125.8,60.4z M132.5,67.6l-0.7,0.3l-3.8-2.1l-1.2-1.6c2-1.5,2,0.2,4,1.1
	C130.8,65.3,132.5,67.6,132.5,67.6z M134,69l-1.4-0.5l0.9-0.5L134,69z M132.3,71.3c0.5,1,0.5,0.8,1.7,0.6l-2.1,1.9
	c-0.7-1.4-1.4-2.8-2.1-4.2c1.5-0.4,2,0.2,3.5,0.4l0.6,1L132.3,71.3L132.3,71.3z M132.6,73.9l2.9-1.6c-0.6,1.3-1.3,2-2.2,3
	L132.6,73.9z M138.3,79.4c-0.8,0.7-1.3,0.9-2.7,1l1.2,0.1v0.2l-4,1.7l-0.2-5.1l2.8-3.3l0.5-0.2C135.9,73.8,138.3,79.4,138.3,79.4z
	 M136.9,71.5c7.8-2.2,6.3,2,2.8,5.2L136.9,71.5z M144,72.3c-2.9,13.6-3.4,14.4-13.7,20.2l-0.5-0.8l0.3-1.5c6.7-2,10.5-5.4,10.1-13.3
	l3.4-4.3L144,72.3L144,72.3z M144.4,72.3l-0.4-1.4h1L144.4,72.3z M126.9,85.5c0.1-0.9,0.1-1.8,0.2-2.7l1-0.4h0.1
	c0.3,1.7,0,3-0.5,4.3C127.2,86.4,127.1,86.3,126.9,85.5z M121.1,98v-0.2l2-4.5l0.3-1l3.3,0.3l0.1,0.7c0.2,1.7-0.4,3-1,4.9L121.1,98
	L121.1,98z M122.6,103.8c0-0.9,0-1.9,0-2.8l2.5,0.2h0.3l-1.6,2.7L122.6,103.8L122.6,103.8z M121.2,94.5L121.2,94.5l1.2-0.7h0.2
	l-0.2,0.6l-0.7,2.3l-0.6-2L121.2,94.5L121.2,94.5z M118.9,101.7l-0.6-0.7C118.9,101.5,118.5,101,118.9,101.7z M115.4,100
	c0.8-0.5,1.7-0.4,2.9-0.4l-0.4,1.2c-1,0.4-1,0.2-2.2,0.1l-0.3-1V100z M117.2,105.3l1,2.6l-2.5,1.8
	C115,108.7,115.8,105.7,117.2,105.3z M114.4,96.3H114l0.5-1L114.4,96.3z M118.4,96.7L118.4,96.7l0.5-1.4h0.2l0.6,1.4H118.4
	L118.4,96.7z M128.4,78l-0.1-0.5c0.3-0.4,0.7-0.8,1.2-1l0.2,1l-0.9,0.5h-0.5H128.4z M128.3,81.5c-0.3,0.4-0.8,0.5-1,0.8l-0.5-7.2
	C126.8,75.1,128.3,81.5,128.3,81.5z M125.6,91.2c1-0.6,1.1,0,1.2,1.2H124v-0.5C124,91.9,125.6,91.2,125.6,91.2z M124.2,87.2l0.7-0.6
	l0.5,1l-0.2,0.5l-1.2-0.2C124,87.9,124.2,87.2,124.2,87.2z M124,91l-1.5,1.4l-1-0.2h-0.4l0.7-1.2C121.8,91,124,91,124,91z
	 M118.6,90.2c-0.6-0.4-0.2-0.4-0.3-0.7L118.6,90.2z M123.1,83.8l-4.8-2.5c0.2-3.3,0.6-7.1,0.3-10.5
	C122.3,72.2,125.6,78.2,123.1,83.8z M119.7,83.8c1.2,0.6,1.1,1.2,2.8,1.7c0.3,1-0.2,1.4-0.9,2.6H120c-0.4-2,0-3-0.2-4.3L119.7,83.8z
	 M120,93.1c-0.6-0.4-0.1-0.4-0.2-0.7L120,93.1z M129.7,79.2V79l1.3-0.9c0.2,1.5,0.1,4-0.2,5.8c-0.8-0.6-1-3.1-1.1-4.6V79.2z
	 M129.7,83.8l0.8-1.5l-0.5,1.4L129.7,83.8L129.7,83.8z M138,79.5h0.2c0,5.5-3.3,6.5-7.8,8.5h-0.7l2.8-5.7L138,79.5z M129.5,68.7
	l0.2,0.4l-0.4,0.3l-1-1.5C128.3,67.9,129.5,68.7,129.5,68.7z M128.3,71.1v-0.3h0.3l1,1.4C128.9,71.9,128.7,71.8,128.3,71.1z
	 M129.7,74.8l-2,1.8l-4-6l-5.4-4.6l1.2-1c2.6,1.2,7,3.3,8,6c0.3,0.8-0.7,1.5,0,2.2C128.3,74.1,129.1,73.5,129.7,74.8z M117.7,83.8
	l0.4,0.1l0.2,4.2l-0.7-0.2c-0.6-0.4-1-2.6-0.5-3.5L117.7,83.8z M114.5,91h0.5l0.4,1l-0.7,0.4H114C114,92.4,114.5,91,114.5,91z
	 M113.2,114l-0.6-2.1c0.9-0.2,1.9-0.4,2.8-0.6C115.4,111.3,113.2,114,113.2,114z M111.2,108.2c0.2-0.8,0.4-1,0.9-1.4l0.4,0.1
	l0.1,0.4l-0.9,0.9H111.2z M111.8,109.7l-0.6-0.8l1.4-0.7l-0.4,1.4L111.8,109.7L111.8,109.7z M110.3,116.2l-0.5-0.5h0.4l2.2-1.7
	l0.2,1.7l-1.7,1.2L110.3,116.2z M110.5,132.7c-3.5,0.1-5.5-0.7-8.3-1l-3.2-6.3l-0.6-0.6c5.3-0.7,8.7-3.3,12.7-5
	c1.4,1.3,4.6,8,1.8,11.1C112.2,131.9,111.5,132,110.5,132.7z M95.7,125.6l1.3-0.1c2,1.3,3.3,3.6,4.2,5.8l-5.7-1.7
	C96,128.3,96,126.9,95.7,125.6z M91.7,120.1l6.4-1.8l10,1l0.2,0.5c-3,1.3-6.4,2.5-9.8,4.2c-3.8,0.3-4.7-1-7.2-2
	C91.3,121.4,91.5,120.8,91.7,120.1z M91.3,126.9v-1.2l2.5-0.2c0.2,1,0.4,1.7,0.1,2.9C93.9,128.4,91.3,126.9,91.3,126.9z M88.4,129.2
	l1-0.5c1.1-0.8,2,0.2,3.3,0.6l-0.5,0.5L88.4,129.2z M91.2,126.9l-1-0.4l-0.4-1h1.5L91.2,126.9z M87,126.9l1.4,1.3l-0.2,1.6L87,127
	L87,126.9z M83.3,121.5c1.3-0.4,3.1-0.3,5.1-0.3l-1.9,1.4l-3.8-0.4C82.7,122.2,83.3,121.5,83.3,121.5z M79.9,49.5
	c2.6-2.6,9.2-1.9,10.9-0.3h0.5c-2.3,2-5.7,2.3-7.8,4.3C81.9,52.5,80.5,51.7,79.9,49.5z M94.4,53.5l1.1,1.3l-3,0.2
	c-2.4,0.2-4.7,0.6-6.4,1.4H86l-0.3-0.5c2.7-1.4,5.6-2.2,8.6-2.3h0.2L94.4,53.5z M99.9,46.3c1.9,1.9,4.6,3,5.6,5.8
	c-3.9-1.8-9.8-1.8-12.8-4.6C95.2,48.1,97.8,47.7,99.9,46.3z M101.2,56.4l5.3,0.7h0.4l-4.2,3.6C102,59.4,101.8,57.6,101.2,56.4z
	 M108,62.6l-1-0.2l1.3-0.2L108,62.6z M107,59.1l1.2-1.2l0.1,1.4l-1-0.2h-0.4H107z M109.5,106.8h-0.6l-0.6-0.5l0.4-0.6
	c0.4,0,0.7-0.2,1-0.4C109.7,105.3,109.5,106.8,109.5,106.8z M108.4,109.4l0.5-0.6v-0.6l0.9,1.3l-1.5,0.2L108.4,109.4L108.4,109.4z
	 M107.8,114l-0.9-1l2.9-0.5l-1.4,1.4L107.8,114L107.8,114z M108.3,118.3l-2.8-0.3l2-1.1L108.3,118.3z M106.3,114.3l0.6,0.5l-2,0.5
	l-2.3,0.1l3.1-1.4l0.6,0.2L106.3,114.3z M98.3,52.1c1.7,0,3.5,0.5,4.3,1.4c-1.1,0-3.2,0.1-3.7-0.8l-0.5-0.6L98.3,52.1z M99.8,57.9
	c0.8,0.7,1.1,1.5,1,2.8C99.5,60.3,99.8,58.9,99.8,57.9z M101.2,66.9v-0.2c2.9-0.6,3.5,0.3,2.2,1.2C102.6,67.8,101.8,67.5,101.2,66.9
	z M104.9,103.9l0.6,0.2v0.2l-1.4,1l0.5-1.4C104.6,103.9,104.9,103.9,104.9,103.9z M104.1,68.8l1-0.9l0.4,1.5l-1.4-0.3
	C104.1,69.1,104.1,68.8,104.1,68.8z M108.3,107.3l-3.4,0.9h-0.8v-0.1c1.1-0.2,2.1-0.6,2.9-1.3l1.2,0.2
	C108.2,107,108.3,107.3,108.3,107.3z M105.9,103.9l-0.4-0.8l1-0.6l0.4,0.2l-0.6,1.2C106.3,103.9,105.9,103.9,105.9,103.9z
	 M96.9,113.9l1.7-1.4l5.3,0.5l0.2,0.4l-3.6,2c-1.2-0.2-2.3-0.7-3.1-1.6L96.9,113.9L96.9,113.9z M94.3,113.9l2.6,1.5l-4.2-0.7
	l1.6-0.7V113.9z M94.1,116.9v0.4l-0.8,0.4h-0.6v-0.3C93.3,116.6,93.2,116.9,94.1,116.9z M87.4,58.3L87,58c1.8-0.8,3.8-1.2,5.8-1.3
	l4.9-0.2l0.7,4.3l-5.6-0.5c-1.7-0.1-3.3,0-5,0.2l-0.4-2V58.3z M89.4,116.1l0.4,0.6l-0.3,1.3l-4,0.3c0.5-1.3,1.1-1.9,1.8-2.9
	L89.4,116.1L89.4,116.1z M84.6,111.1c-1.8,0-4.2-1.4-4.7-2.9l5.7,1.5L84.6,111.1z M86.6,111.1h-1v-0.3l1.2-1.1L86.6,111.1
	L86.6,111.1z M82.7,58.4l1.7-0.5l1.2,1.3h-1.2L82.7,58.4z M82.7,120.2l-0.3,1H82l-0.7-1.5l1.4,0.2C82.7,119.9,82.7,120.2,82.7,120.2
	z M83.5,114l3.3,0.7l0.2,0.4l-2.6,3.2l-3.1-0.5C81.3,117.8,83.5,114,83.5,114z M108.3,68.9l0.7-1h0.2l1.8,0.5l0.2,0.2l-2,0.8
	C109.2,69.4,108.3,68.9,108.3,68.9z M112.2,64.2l-1-0.6C112.2,64,111.6,63.6,112.2,64.2z M111.9,70.8l-0.7-0.6l1.4-0.8
	C112.6,69.4,111.9,70.8,111.9,70.8z M111.2,80.8c0.7,0.3,1.4,0.4,2.2,0.6c0.6,0.3,0.6,0.3,0.6,1C113,82,111.5,81.7,111.2,80.8
	L111.2,80.8z M111.4,77c0-0.2,0.2-0.3,0.3-0.4l0.9,1.4c-0.5,0-1-0.2-1.4-0.3L111.4,77z M82.6,124.3l0.1,0.4l-1.9,0.7l-1,0.1v-0.2
	l0.7-1c1-0.4,1-0.2,2,0H82.6z M78.4,52.1c1.3,1,1.6,2,1.4,5.8C79,56.9,78.5,54.6,78.4,52.1z M79.3,49.2l-0.1,1l-0.8,0.1L79.3,49.2
	L79.3,49.2z M78.4,50.7v1L77,51.5l1.1-0.8H78.4z M78.4,134.1l0.7-7.3l5-1.3l-5.2,8.4L78.4,134.1L78.4,134.1z M78.8,114.4l0.8-0.4
	c0.7,0.8,0,2-0.6,2.9c-0.6-0.6-0.6-0.9-0.5-2C78.5,114.9,78.8,114.4,78.8,114.4z M74.2,113.7l1.6-2.6l2.6,1.5l-2.7,4.3
	C74.8,116,74.3,114.9,74.2,113.7z M74.2,125l2.6-2.4l1.2,0.1l0.4,0.7l-0.3,2.1l-4-0.5L74.2,125z M69.9,123l3.1-1.8l2.4,0.4l0.2,0.3
	l-2.5,2.2c-1-0.1-1.9-0.4-2.7-1L69.9,123L69.9,123z M69.5,120.3l1.1-0.6l0.5,0.1l0.2,0.3l-3.3,1l-1-0.3
	C67,120.8,69.5,120.3,69.5,120.3z M65.6,118.9l0.9-2c1.5-0.2,1.9,0.6,3,1l0.4,0.6l-1.7,1.1l-1.5,0.1l-1-0.8L65.6,118.9z M62.8,124.9
	l2-3.7c1.4,0,1.6,0,2.2,0.8c0.2,0.4,0,0.2-0.5,0.3l-0.2,1.3l2.2,0.3c-0.4,1-0.5,1-1.2,1.6C65.3,125.5,64.3,125.2,62.8,124.9
	L62.8,124.9z M60.4,119.7l3.6,1.1l0.2,0.5L62,124l-3.4-1.1L60.4,119.7L60.4,119.7z M46.4,115.9l0.1-0.5l2,1.6l0.2,0.4
	c-4.2,3.2,2.2,13.8,9.5,7l3.2,1.2c-1.2,2.1-3.3,3-5.5,4.2c-5.2,0.4-12.5-8-9.4-14L46.4,115.9z M51.4,117.3v1l-1.2-0.9l-0.2-0.5
	l1.3,0.4H51.4z M58.5,123.4l-2.6,2c-5.1,0.6-7.2-3-7.3-7.3l1-1.2H50c2.6,2,4.9,5,8.3,6.1C58.3,123,58.5,123.4,58.5,123.4z
	 M53.5,102.4c-0.4-0.3-0.4-0.4-0.7-1l1-3.7l1.1-1l0.8,1l-2.1,4.8L53.5,102.4z M52.8,103.7l2.3-5.3l0.4-0.2c1,1.8,2.6,2.6,3,5
	l-3.4,3.6C54.1,106,53.4,105,52.8,103.7L52.8,103.7z M57.1,108.1l2.9-2.8l1.4,3C61.4,108.3,57.1,108.1,57.1,108.1z M64.2,79.1
	c-1.3,2.8-3.1,4.8-4.2,7.5c-0.5-2.5,2.4-6.1,3.3-8.3l0.4-0.3l0.5,1V79.1z M64.2,71.1c1.9-0.6,3.6-1.7,5-3.2l0.7,2l-1.8,2.3l-3.9-1
	L64.2,71.1z M71.3,71.3l-0.7,1l-0.7-0.2V72l1.3-1.2L71.3,71.3L71.3,71.3z M70.3,65.1L70.3,65.1l1.1,1.8l-0.4,1
	c-1.3-0.7-1.3-1.5-0.8-2.8H70.3z M69.9,106.8l1.4,1l-1.4-0.7V106.8z M69.9,108.2c0.5,0.3,0.9,0.5,1.4,0.8l-3,2.1
	c-0.9-0.4-1-1.2-1.2-2v-0.2C67.1,108.9,69.9,108.2,69.9,108.2z M65.7,105.3l1.4,0.6l-0.8,0.4h-0.7L65.7,105.3z M65.7,76.6
	c1.6,0.4,1.1,0.1,1.2,1.4c-0.8-0.5-0.9-0.7-1.3-1.4H65.7z M65.7,102.3V101c0.7,0.5,1,0.8,1.4,1.5L65.7,102.3L65.7,102.3z M68.5,84.3
	c-0.6,0.7-0.5,0.5-1.4,0.9l0.6-1.4L68.5,84.3z M68.5,78.5l-1,1c-0.8-0.6-0.4-0.4,0-1.3l0.6-0.2L68.5,78.5z M68.4,76.1L67,75
	c1,0.4,0.7,0.2,1.3,1L68.4,76.1z M65.6,102.5l1.5,1.1C66.3,103.6,65.9,103.4,65.6,102.5z M69.9,102.5h-0.6l-0.5-1
	c-0.1-0.1-0.2-0.3-0.3-0.4h0.8L69.9,102.5L69.9,102.5z M69.1,75.8l-0.6-0.7C69.1,75.6,68.7,75.1,69.1,75.8z M69.2,99.5L68.5,98
	c0-0.5,0.2-0.9,0.3-1.3H69l0.9,2.9C69.9,99.6,69.2,99.5,69.2,99.5z M65.5,116.2l0.1,0.2l-0.5,1.9c-1-0.4-2-1.5-2.3-2.9L65.5,116.2z
	 M61.4,118.3l1.4,1.3C61.8,119.2,61.8,119.2,61.4,118.3z M63.8,105.5l0.2,1.3l-1.2-1.5C62.8,105.3,63.8,105.5,63.8,105.5z
	 M62.4,112.3l-1-2.6c1.2,0.4,2.2,1.9,2.8,2.8C64.2,112.5,62.4,112.3,62.4,112.3z M63.5,86.6h0.4l-1,1.5c-0.2-0.4,0-0.7,0.6-1.1V86.6
	z M62.8,99l-0.3,0.6L61.7,99l-0.3-0.7l1-0.1C62.4,98.2,62.8,99,62.8,99z M52.8,111.1c2.9,1.9,7.7,3.6,8.6,7.2
	C58,116.6,55,114.2,52.8,111.1z M60.2,109.7l1.2,1.4l-2.9-1.4H60.2z M70.6,114l-2.1-2.2l3.8-3.6l0.5,4C72.8,112.2,70.6,114,70.6,114
	z M72.8,116.4l0.3-1h0.5l0.6,1.5L72.8,116.4z M74.7,111.1l-0.5-1.4c0.3,0,0.7,0,1,0.2C75.2,109.9,74.7,111.1,74.7,111.1z M72.7,62.6
	l1.5-0.4l-1,1.4L72.7,62.6L72.7,62.6z M58.5,92.4l-1.3-2.9C58.9,89.9,58.6,91.1,58.5,92.4z M55,93.8c-1.2-0.8-2-2.5-2-4.3
	c2.4,0.6,2.3,1.6,2.8,3.9L55,93.8z M53.5,86.3c-1.8-1.7,0.9-8.5,2-10.1c0.7-0.8,1.4-0.8,2.4-1l0.7,0.1c-1.7,3-2.8,7.1-3.3,11.3
	C55.3,86.6,53.5,86.3,53.5,86.3z M50.9,109.7l0.9,1.4l-0.8,1.8l-0.5,0.5c0.7,0.1,0.8-0.5,1.8-1.2c1.8,3,4.6,5.8,7.7,7.4
	c-0.5,1-1,2-1.7,3l-5.1-3.3c-0.6-1,0.2-2.3-0.7-3c-0.9-0.6-2,0.3-2.8,0l-2.5-2.2c0.7-1.6,1.4-3.1,2.8-4
	C50,110.1,50.9,109.7,50.9,109.7z M45.9,93.8c0.3-1.5,0.6-2.9,1.1-4.3l0.7,4.3l0.4,2.2l3.4,9.3c-2.7-1.4-4.4-4.8-4.1-9.4
	c-0.7,1.5-0.1,3.8,0,5c-1.6-1.3-1.8-4.1-1.4-7.1H45.9z M43.5,95.3L43,93.5v-2.4l0.3-0.5l1-1l-0.5,4C43.8,93.6,43.5,95.3,43.5,95.3z
	 M142.5,109.7l-2.8-1.1l2.8-0.4V109.7z M67.3,133l0.7-0.4l-0.8,1.4v-1H67.3z M45.7,83.8l-1.2-0.2c-1.7-0.7-2.9-2.4-3-4.2
	c2.3,0.2,3,1.3,4.2,2.7V83.8z M45.5,83.6c0.2-3-2.2-5-5.3-5c0.6-4.3,4.4-6.5,7.8-8h0.6c-0.5,5.4-0.1,10.2-2.2,14.9
	c-1.5,3.5-6.9,3.4-6.6,8.8v0.5c0.8,7.1,8.6,8.6,9.7,14.9c-11.5,5.8,2.6,30.5,11.7,16c1.6,0.3,3.1,1,5.2,0.3c0.9-0.5,1-1,1.5-2
	l3.2,1.6l0.2,0.5c-3,2.3-5.1,5.5-8.3,7.6c0-0.3,0.2-0.6,0.3-0.8l-0.9-0.2l-0.4,0.2l-0.4,2c1.8,1.9,7.4-4.9,9-6.2
	c-1,3.2-3.2,4.8-4.5,7.8l0.4,0.4c2.4-1.7,5.4-6.6,5.8-10.3l3.6,0.6c-6.3,8.7-13.7,16.4-22.2,23c1-2.9,2.4-5,3.2-7.5h-0.5l-0.4-0.3
	c-1.4,2.9-3.9,5-4.3,8.9l1,1c7.2-1.2,19.3-19.4,25-24.4c-1.5,15.7-9.9,18.1-17.2,27.6c6.6-3.3,10.7-11.7,16.3-16.4
	c-0.6,6.6-2.2,21.2-6,23.8h0.6c4.4-2.8,4.6-14,6-19.8l0.7-6l6.3-8.8c0.2,0,0.3-0.2,0.5-0.3c0.7,2.3,3.9,4.6,7.3,4l2.5-1l6.2,2.3
	c0.8,9,0.5,14-5.2,20.7c5.8-3,8-14.3,6-20.3c13.5,1.5,13-3,10.4-12.8h2.4c-0.5-0.6-1.7-0.1-2.6-0.6c-0.4-0.3-0.3-0.2-0.5-0.6
	c3.2-3.6,10.9,0,9.2,6c2.3-5-2.6-9.4-7.4-7.7c2-2.3,4.5-4.3,5.8-7.5l0.4-0.2l11.1,11.6h0.7l0.5-0.7l-10.6-12.5c1-0.4,2-0.8,3-1.2
	l-0.5-0.3c5.7,0.6,12.9,5.3,18.8,3.8c0.5-1,0.6-1.5,0.2-2.4c6.3,0.1,17.6-2,21.2-5c-9.7,2.1-19.6,2.6-29.4,1.5l-7.9-0.9h-0.4
	l2.1-3.8c6.5,0,23.5-0.2,27-4.3l-0.8-1l-3-0.4c-0.3,0.3-0.3,0.7-0.3,1l2.3,0.3c-5,1.3-19.3,4-24,2.4c-0.4-0.6,0-2.6,0-4v-0.9
	c6.6-2,11.6-6.4,13.6-13.2c1.1-3.9,0.4-9,2.9-11.3c1.6,0.1,2,0.8,3,1.2c-0.6-0.8-1.5-1.4-2.5-1.7l-2.1,1.4c-2,0.8-4-1.2-7.2,0.3
	c-2.6-2.2-4-5.7-7.6-7l-0.4-0.7l4.3-4.2l-4.3,4l-2.8-1.3l-0.2-0.4c2.8-2.3,6.5-3.2,10-2.5l0.5,1c-0.2,0.4-0.4,0.4-0.5,0.5l-1.3-0.3
	c0.6,0.3,1.1,0.4,1.7,0.5l0.5-0.5v-0.6c-0.8-0.7-1-1.3-2.6-1.3l0.7-1.1c-1.8,1.2-5.5,1.6-7.3,2.7l4.2-3.4l0.5-0.6l-7.8,4.6
	c-1.6-0.1-3.2-0.7-4.4-1.8h-0.4l9.3-6.2l-0.2-0.7l-10.5,6.2l-3.4-0.9l0.3-3l24.2-18.9h0.4c-0.1-0.3-0.2-0.5-0.3-0.8
	c-1-0.5-4.6,2.5-6,3.4c-5.3,3.4-10,7.7-15.3,10.8c2.1-2.8,6.1-5.5,6.8-9.5l-1-0.2l-1.7,1.4l1.8-0.7c-2.2,4.6-5.4,8.7-9.4,11.8
	l-0.4-0.8c2-3.3,3.8-7.7,3-11.8l-1.7-1l-1.7,0.2c1.1,0.4,1.9,0.5,2.7,1c0.5,4-1.5,6.8-2.6,10c-0.1,0.2-0.3,0.2-0.4,0.3
	c-0.7-1.3-0.7-2-2.2-2.2v-0.8c0.2-0.5,0.6-1,1-1.4l0.6-0.5c0.2,0.5,0.3,0.3,0.3,1c0.3-0.3,0.3-0.6,0.4-1l-0.9-0.4l-2.1,2.3
	c-1.9-1.4-4.1-2.5-6.4-3c1.4-3,5.8-7.7,3.6-11.5c-2.8-4.7-12.3,0.7-15.7,4.3c-0.5,0.5-0.9,1-1,1.4l1-0.8c3.4-2.6,12.5-8.6,14.5-3.8
	c2,2.7-2,8-3,10c-3.8-0.4-7.7-0.6-11.5-0.6c-4,0.1-8.2,0.6-12.3,2c-2,0.7-10.6,5.8-11,5.7l-3.9-3.7L57,41.3v0.4l-0.5,0.5L67,51
	l-1.6,1c-4-3.4-8.7-5.8-13.7-7l-1.1,0.2l11.3,7.3l0.8,1c-2.7,1.1-3.9,3.5-6.1,5c-3.6-1.8-7.3-3.4-11.2-4.6l-0.3,0.9l8,5.2h0.5
	c-0.5,0.2-1,0.6-1.4,0.9c-0.6,2.1-1.9,4.6-3,7.7c-4,3.3-9.2,3-10,9.7c-1.3,0.4-2.2,0.5-3.4,1.3v1c2.7,1.8,5.7,3.1,8.8,4L45.5,83.6
	L45.5,83.6z M93.3,37.6l0.6,0.1h-1.2c0.6-1.2,2.5-1.5,4.2-1.4v0.8l-3.6,0.2C93.3,37.3,93.3,37.6,93.3,37.6z M95.8,39.1l1.7-0.5
	c0.7-1.2,1.1-2.5,0.7-3.7c-1.7-0.3-2.7,0.1-4.3,0.8L93,37.1l-0.3,0.6L93,38c0.6,0.5,1.2,0.6,2.4,0.5c0.4,0.6,0,0.4-0.6,0.5
	C94.8,39,95.8,39.1,95.8,39.1z M137.2,52.1c-0.2,0.1-0.5,0.2-0.7,0.3l1.2,0.5l-1.9,3.5c1-1.1,2-2,2.4-3.7L137.2,52.1z M126.8,108.2
	c-0.4-0.8-1-1.3-1.4-1.4L126.8,108.2z M121.1,125.5l-1.4,0.8h1.1L121.1,125.5z M126.8,108.2c1.7,2,2.5,4.6,2.2,7.2
	C130.7,111.9,128.8,109.7,126.8,108.2z"/>
</svg>
