<svg xmlns="http://www.w3.org/2000/svg" viewBox="0 0 24 24" style="background-color:#000;fill:#FFF;">
<path d="M9.5,6c-0.6,0-1.1,0.1-1.5,0.3C7.7,6.5,7.3,6.7,7,7C6.7,7.4,6.5,7.7,6.3,8.1C6.2,8.5,6.1,8.9,6,9.5s0,0.8,0,2.5
	c0,1.6,0,1.8,0,2.5c0,0.6,0.1,1.1,0.3,1.5C6.5,16.3,6.7,16.7,7,17s0.7,0.5,1.1,0.7c0.4,0.1,0.8,0.2,1.5,0.3c0.6,0,0.8,0,2.5,0
	s1.8,0,2.5,0c0.6,0,1.1-0.1,1.5-0.3c0.4-0.2,0.7-0.4,1.1-0.7c0.3-0.3,0.5-0.7,0.7-1.1c0.1-0.4,0.2-0.8,0.3-1.5c0-0.6,0-0.8,0-2.5
	s0-1.8,0-2.5c0-0.6-0.1-1.1-0.3-1.5C17.5,7.7,17.3,7.3,17,7c-0.3-0.3-0.7-0.5-1.1-0.7c-0.4-0.1-0.8-0.2-1.5-0.3c-0.6,0-0.8,0-2.5,0
	S10.1,6,9.5,6 M9.6,16.9c-0.6,0-0.9-0.1-1.1-0.2c-0.3-0.1-0.5-0.2-0.7-0.4c-0.2-0.2-0.3-0.4-0.5-0.7c-0.1-0.2-0.2-0.5-0.2-1.1
	c0-0.6,0-0.8,0-2.4s0-1.8,0-2.4c0-0.6,0.1-0.9,0.2-1.1C7.4,8.2,7.5,8,7.8,7.8C8,7.6,8.2,7.4,8.4,7.3C8.7,7.2,9,7.2,9.6,7.1
	c0.6,0,0.8,0,2.4,0s1.8,0,2.4,0c0.6,0,0.9,0.1,1.1,0.2c0.3,0.1,0.5,0.2,0.7,0.4s0.3,0.4,0.5,0.7c0.1,0.2,0.2,0.5,0.2,1.1
	c0,0.6,0,0.8,0,2.4s0,1.8,0,2.4c0,0.6-0.1,0.9-0.2,1.1c-0.1,0.3-0.2,0.5-0.4,0.7s-0.4,0.3-0.7,0.5c-0.2,0.1-0.5,0.2-1.1,0.2
	c-0.6,0-0.8,0-2.4,0C10.4,16.9,10.2,16.9,9.6,16.9 M14.5,8.8c0,0.4,0.3,0.7,0.7,0.7c0.4,0,0.7-0.3,0.7-0.7s-0.3-0.7-0.7-0.7
	c0,0,0,0,0,0C14.8,8.1,14.5,8.4,14.5,8.8 M8.9,12c0,1.7,1.4,3.1,3.1,3.1c1.7,0,3.1-1.4,3.1-3.1S13.7,8.9,12,8.9
	C10.3,8.9,8.9,10.3,8.9,12 M10,12c0-1.1,0.9-2,2-2s2,0.9,2,2c0,1.1-0.9,2-2,2C10.9,14,10,13.1,10,12C10,12,10,12,10,12"/>
</svg>
