<svg xmlns="http://www.w3.org/2000/svg" viewBox="0 0 24 24">
<defs>
    <linearGradient id="b">
        <stop offset="0" stop-color="#00f"/>
        <stop offset="1" stop-opacity="0"/>
    </linearGradient><linearGradient id="a">
        <stop offset="0" stop-color="#4cf"/>
        <stop offset=".662" stop-color="#53e"/>
        <stop offset="1" stop-color="#93d"/>
    </linearGradient>
    <linearGradient id="c" x1="2.8" x2="24" y1="18.2" y2="12" gradientUnits="userSpaceOnUse" href="#a"/>
    <radialGradient id="d" cx="-2.1" cy="27" r="12" fx="-2.1" fy="27" gradientTransform="rotate(1.2 37 12)scale(2.42703433 1)" gradientUnits="userSpaceOnUse" href="#b"/>
</defs>

<rect width="24" height="24" fill="url(#c)"/>
<rect width="24" height="24" fill="url(#d)"/>

<path fill="#fff" d="M12.1,17.9c-1.2,0-1.7-0.2-2.7-0.9c-0.6,0.8-2.5,1.4-2.6,0.3c0-0.8-0.2-1.4-0.4-2.1C6.3,14.4,6,13.4,6,12
	c0-3.4,2.8-6,6.1-6c3.3,0,5.9,2.7,5.9,6C18,15.3,15.4,17.9,12.1,17.9 M12.2,9c-1.6-0.1-2.9,1-3.1,2.8C8.8,13.2,9.2,15,9.6,15
	c0.2,0,0.6-0.3,0.8-0.6c0.4,0.3,0.9,0.5,1.5,0.5c1.7,0.1,3.1-1.2,3.2-2.9C15.1,10.5,13.8,9.1,12.2,9L12.2,9z"/>
</svg>
