<svg xmlns="http://www.w3.org/2000/svg" viewBox="0 0 24 24" style="background-color:#e60023;fill:#FFF;">
<path d="M9.8,17.6c-0.1-0.7,0-1.3,0.1-2l0.6-2.6c-0.1-0.3-0.2-0.7-0.2-1c0-0.8,0.4-1.4,1-1.4c0.4,0,0.8,0.3,0.8,0.9
	c0,0.2,0,0.4-0.1,0.6l-0.3,0.9c-0.1,0.2-0.1,0.3-0.1,0.5c0,0.6,0.5,0.9,1,0.9c1,0,1.8-1.1,1.8-2.5c0-1.6-1-2.6-2.5-2.6
	c-1.7,0-2.7,1.1-2.7,2.6c0,0.6,0.2,1.2,0.6,1.6c-0.1,0.2-0.2,0.2-0.4,0.2c-0.6,0-1.2-0.8-1.2-2c0-2,1.6-3.6,3.8-3.6
	c2.4,0,3.8,1.6,3.8,3.7c0,2-1.4,3.6-3,3.6c-0.6,0-1.2-0.3-1.5-0.7L11,15.9c-0.2,0.6-0.4,1.3-0.8,1.8c0.6,0.2,1.1,0.3,1.8,0.3
	c3.3,0,6-2.7,6-6s-2.7-6-6-6s-6,2.7-6,6C6,14.5,7.5,16.7,9.8,17.6"/>
</svg>
