<svg xmlns="http://www.w3.org/2000/svg" viewBox="0 0 24 24" style="background-color:#8AC858;">
<defs>
	<linearGradient
		id="g1" x1="7.6006" y1="13.0925" x2="13.2187" y2="8.347"
		gradientTransform="matrix(1 0 0 -1 0 26)"
		gradientUnits="userSpaceOnUse">
			<stop offset="0" style="stop-color:#DD571D" />
			<stop offset="0.65" style="stop-color:#DF6132" />
	</linearGradient>
	<radialGradient
		id="g2" cx="-863.1141" cy="500.5425" r="0.5629"
		gradientTransform="matrix(11.6095 0.7546 0.5684 -8.7453 9746.1055 5042.6353)"
		gradientUnits="userSpaceOnUse">
			<stop offset="0" style="stop-color:#BD350E" />
			<stop offset="0.44" style="stop-color:#BF3710;stop-opacity:0.51" />
			<stop offset="0.62" style="stop-color:#C43E15;stop-opacity:0.3" />
			<stop offset="0.76" style="stop-color:#CE4B20;stop-opacity:0.15" />
			<stop offset="0.87" style="stop-color:#DB5C2E;stop-opacity:3.000000e-02" />
			<stop offset="0.89" style="stop-color:#DF6132;stop-opacity:1.000000e-02" />
	</radialGradient>
	<radialGradient
		id="g3" cx="-815.5773" cy="505.4662" r="0.5629"
		gradientTransform="matrix(7.2122 0 0 -10.9971 5887.5327 5571.7363)"
		gradientUnits="userSpaceOnUse">
			<stop offset="0" style="stop-color:#E05E21" />
			<stop offset="0.56" style="stop-color:#DF602A;stop-opacity:0.37" />
			<stop offset="0.89" style="stop-color:#DF6132;stop-opacity:1.000000e-02" />
	</radialGradient>
	<radialGradient
		id="g4" cx="-810.0245" cy="489.7394" r="0.5629"
		gradientTransform="matrix(6.569 -0.5092 -0.7251 -9.3539 5684.4238 4182.5059)"
		gradientUnits="userSpaceOnUse">
			<stop offset="0" style="stop-color:#E05E21" />
			<stop offset="0.56" style="stop-color:#DF602A;stop-opacity:0.37" />
			<stop offset="0.89" style="stop-color:#DF6132;stop-opacity:1.000000e-02" />
	</radialGradient>
	<radialGradient
		id="g5" cx="-676.0069" cy="515.9192" r="0.4995"
		gradientTransform="matrix(3.6871 1.3241 1.5528 -4.324 1705.2052 3142.6323)"
		gradientUnits="userSpaceOnUse">
			<stop offset="0" style="stop-color:#C13B12" />
			<stop offset="0.72" style="stop-color:#DD5D28;stop-opacity:0.41" />
			<stop offset="0.99" style="stop-color:#DF602A;stop-opacity:1.000000e-02" />
			<stop offset="1" style="stop-color:#DF6132;stop-opacity:1.000000e-02" />
	</radialGradient>
	<radialGradient
		id="g6" cx="-984.4248" cy="556.2565" r="0.5629"
		gradientTransform="matrix(-26.0104 -12.0957 -10.3938 22.3507 -19807.5762 -24330.5039)"
		gradientUnits="userSpaceOnUse">
			<stop offset="0" style="stop-color:#FFE491" />
			<stop offset="0.13" style="stop-color:#FFE491" />
			<stop offset="0.3" style="stop-color:#F9C16E" />
			<stop offset="0.53" style="stop-color:#F19645" />
			<stop offset="1" style="stop-color:#EE8635" />
	</radialGradient>
	<radialGradient
		id="g7" cx="-918.0193" cy="476.055" r="0.5629"
		gradientTransform="matrix(2.471 -3.4262 -11.3089 -8.1562 7665.3442 743.4459)"
		gradientUnits="userSpaceOnUse">
			<stop offset="0" style="stop-color:#E74C29" />
			<stop offset="0.26" style="stop-color:#DE4926" />
			<stop offset="0.67" style="stop-color:#C7421C" />
			<stop offset="1" style="stop-color:#B03B13" />
	</radialGradient>
</defs>

<path fill="url(#g1)"
d="M16.4,16.6c0.3-0.3,0.7-0.6,1-0.9C15.5,15.5,4.9,9.5,4.8,9.5c-0.2,1.3-0.5,2.6-0.4,3.8c0.1,1.1,0.2,2,0.8,2.9
c0.3,0.4,0.6,0.8,1,1.1c1.3,1.1,2.9,1.8,4.6,1.9c1.3,0.1,2.6-0.3,3.6-1.1C15.1,17.7,15.8,17.1,16.4,16.6z" />

<path fill="url(#g2)"
d="M16.4,16.6c0.3-0.3,0.7-0.6,1-0.9
C15.5,15.5,4.9,9.5,4.8,9.5c-0.2,1.3-0.5,2.6-0.4,3.8c0.1,1.1,0.2,2,0.8,2.9c0.3,0.4,0.6,0.8,1,1.1c1.3,1.1,2.9,1.8,4.6,1.9
c1.3,0.1,2.6-0.3,3.6-1.1C15.1,17.7,15.8,17.1,16.4,16.6z" />

<g opacity="0.85">
	<path fill="url(#g3)"
	d="M6.8,11.7c0,0-1,2.7-1.1,3.9c-0.1,1.3,1.1,1.3,1.4,1.1c0.3-0.2,1.2-0.9,2.2-3.1C10.4,11.5,7.6,9.8,6.8,11.7L6.8,11.7z" />

	<path fill="url(#g4)"
	d="M9.9,13.1c0,0-1.4,2.9-2,4.1c-0.5,1.2,1.2,1.1,1.5,0.8c0.3-0.2,1.5-0.9,2.4-3.1S11.2,11,9.9,13.1z" />

	<path fill="url(#g5)"
	d="M14.4,15.4c0,0-2.2,2.5-3.7,3.7L9,18.7c0.1-0.5,0.1-2.2,1.9-4.6S15.8,12.8,14.4,15.4z" />	
</g>

<path fill="url(#g6)"
d="M11.9,5.2c0,0-2.8-0.8-4.8-0.1
c-2,0.7-3,1.7-2.4,4.1c0.6,2.4,6.1,5.9,8.5,6.5c2.3,0.7,4.5,0.8,5.6-0.3c1-1.1,1.6-3.8-1.5-7C14.2,5.3,11.9,5.2,11.9,5.2z" />

<path fill="url(#g7)"
d="M10.7,6.6c0,0-0.2-0.7,0.5-1.2
c0.7-0.5,2.2-0.6,3.8,0.4c1.6,1,2.1,1.9,2.2,2.7C17.4,9.3,17,10,15.6,10C14.2,10,11.2,8.7,10.7,6.6z" />
</svg>