<svg xmlns="http://www.w3.org/2000/svg" viewBox="0 0 24 24" style="background-color:#100943;fill:#FFF;">
<path d="M13.9,11.7H9.1v-2h4.9c0.3,0,0.4,0,0.6,0.1c0.1,0.1,0.1,0.2,0.1,0.4v0.7c0,0.2-0.1,0.4-0.1,0.6
	C14.5,11.7,14.3,11.7,13.9,11.7L13.9,11.7z M14.3,7.8H7v8.4h2.1v-2.8h3.9l1.8,2.8H17l-2-2.8c0.8-0.1,1.1-0.3,1.3-0.7s0.4-1,0.4-1.8
	v-0.7c0-0.4,0-0.9-0.1-1.1c-0.1-0.3-0.2-0.6-0.4-0.8C16,8.2,15.8,8.1,15.5,8C15.2,7.9,14.7,7.8,14.3,7.8L14.3,7.8z"/>
<circle fill="#ED143B" cx="18.8" cy="6.3" r="1.6"/>
</svg>
