<svg xmlns="http://www.w3.org/2000/svg" viewBox="0 0 24 24" style="background-color:#28A8E8;fill:#FFF;">
<path d="M6.4,11.3c3.2-1.4,5.3-2.3,6.4-2.8c3.1-1.2,3.7-1.5,4.1-1.5c0.1,0,0.3,0,0.4,0.1
	c0.1,0.1,0.1,0.2,0.1,0.3c0,0.1,0.1,0.2,0,0.4c-0.2,1.8-0.9,5.9-1.2,7.9c-0.1,0.8-0.4,1.1-0.8,1.1c-0.6,0.1-1.1-0.4-1.8-0.8
	c-0.9-0.6-1.5-1-2.4-1.6c-1.1-0.7-0.4-1.1,0.2-1.8c0.2-0.2,2.9-2.7,3-2.9c0,0,0-0.1-0.1-0.2s-0.2-0.1-0.2,0c-0.1,0-1.6,1.1-4.6,3.1
	c-0.4,0.3-0.8,0.4-1.2,0.4c-0.4,0-1.1-0.2-1.7-0.4c-0.7-0.2-1.3-0.3-1.2-0.7C5.6,11.8,5.9,11.5,6.4,11.3z"/>
</svg>
