<svg xmlns="http://www.w3.org/2000/svg" viewBox="0 0 64 64">
<path d="M64,40.7c0,0.9,0,1.8,0,2.7c0,0.7,0,1.5,0,2.2c0,1.6-0.1,3.3-0.4,4.9c-0.3,1.6-0.8,3.2-1.5,4.7
	c-0.7,1.5-1.7,2.8-2.9,4s-2.5,2.1-4,2.9c-1.5,0.8-3,1.2-4.7,1.5c-1.6,0.3-3.3,0.4-4.9,0.4c-0.7,0-1.5,0-2.2,0c-0.9,0-1.8,0-2.7,0
	H23.3c-0.9,0-1.8,0-2.7,0c-0.7,0-1.5,0-2.2,0c-1.6,0-3.3-0.1-4.9-0.4c-1.6-0.3-3.2-0.8-4.7-1.5c-1.5-0.7-2.8-1.7-4-2.9
	s-2.1-2.5-2.9-4c-0.8-1.5-1.2-3-1.5-4.7c-0.3-1.6-0.4-3.3-0.4-4.9c0-0.7,0-1.5,0-2.2c0-0.9,0-1.8,0-2.7V23.3c0-0.9,0-1.8,0-2.7
	c0-0.7,0-1.5,0-2.2c0-1.6,0.1-3.3,0.4-4.9c0.3-1.6,0.8-3.2,1.5-4.7c0.7-1.5,1.7-2.8,2.9-4s2.5-2.1,4-2.9c1.5-0.8,3-1.2,4.7-1.5
	c1.6-0.3,3.3-0.4,4.9-0.4c0.7,0,1.5,0,2.2,0c0.9,0,1.8,0,2.7,0h17.4c0.9,0,1.8,0,2.7,0c0.7,0,1.5,0,2.2,0c1.6,0,3.3,0.1,4.9,0.4
	c1.6,0.3,3.2,0.8,4.7,1.5c1.5,0.7,2.8,1.7,4,2.9s2.1,2.5,2.9,4c0.8,1.5,1.2,3,1.5,4.7c0.3,1.6,0.4,3.3,0.4,4.9c0,0.7,0,1.5,0,2.2
	c0,0.9,0,1.8,0,2.7V40.7z"/>
</svg>